<?xml version="1.0" encoding="utf-8"?>
<!-- Generated by IcoMoon.io -->
<!DOCTYPE svg PUBLIC "-//W3C//DTD SVG 1.1//EN" "http://www.w3.org/Graphics/SVG/1.1/DTD/svg11.dtd">
<svg version="1.1" xmlns="http://www.w3.org/2000/svg" xmlns:xlink="http://www.w3.org/1999/xlink" width="32" height="32" viewBox="0 0 32 32">
<path d="M29.607 0.985h-27.215c-0.771 0-1.877 1.105-1.877 1.877v26.276c0 0.771 1.105 1.877 1.877 1.877h27.215c0.771 0 1.877-1.105 1.877-1.877v-26.276c0-0.771-1.105-1.877-1.877-1.877zM30.546 29.138c-0.006 0.267-0.672 0.933-0.938 0.938h-27.215c-0.267-0.006-0.933-0.672-0.938-0.938v-26.276c0.006-0.267 0.672-0.933 0.938-0.938h27.215c0.267 0.006 0.933 0.672 0.938 0.938v26.276zM16 6.146c-1.035 0-1.877 0.842-1.877 1.877s0.842 1.877 1.877 1.877 1.877-0.842 1.877-1.877-0.842-1.877-1.877-1.877zM16 8.962c-0.517 0-0.938-0.421-0.938-0.938s0.421-0.938 0.938-0.938 0.938 0.421 0.938 0.938-0.421 0.938-0.938 0.938zM23.508 21.161c-1.035 0-1.877 0.842-1.877 1.877s0.842 1.877 1.877 1.877 1.877-0.842 1.877-1.877-0.842-1.877-1.877-1.877zM23.508 23.977c-0.517 0-0.938-0.421-0.938-0.938s0.421-0.938 0.938-0.938 0.938 0.421 0.938 0.938-0.421 0.938-0.938 0.938zM8.492 16.469c-1.035 0-1.877 0.842-1.877 1.877s0.842 1.877 1.877 1.877 1.877-0.842 1.877-1.877-0.842-1.877-1.877-1.877zM8.492 19.285c-0.517 0-0.938-0.421-0.938-0.938s0.421-0.938 0.938-0.938 0.938 0.421 0.938 0.938-0.421 0.938-0.938 0.938zM8.492 15.062c0.259 0 0.469-0.21 0.469-0.469v-8.446c0-0.259-0.21-0.469-0.469-0.469s-0.469 0.21-0.469 0.469v8.446c0 0.259 0.21 0.469 0.469 0.469zM8.492 21.631c-0.259 0-0.469 0.21-0.469 0.469v2.815c0 0.259 0.21 0.469 0.469 0.469s0.469-0.21 0.469-0.469v-2.815c0-0.259-0.21-0.469-0.469-0.469zM16 11.308c-0.259 0-0.469 0.21-0.469 0.469v13.138c0 0.259 0.21 0.469 0.469 0.469s0.469-0.21 0.469-0.469v-13.138c0-0.259-0.21-0.469-0.469-0.469zM23.508 19.754c0.259 0 0.469-0.21 0.469-0.469v-13.138c0-0.259-0.21-0.469-0.469-0.469s-0.469 0.21-0.469 0.469v13.138c0 0.259 0.21 0.469 0.469 0.469z"></path>
</svg>
