<?xml version="1.0" encoding="utf-8"?>
<!-- Generated by IcoMoon.io -->
<!DOCTYPE svg PUBLIC "-//W3C//DTD SVG 1.1//EN" "http://www.w3.org/Graphics/SVG/1.1/DTD/svg11.dtd">
<svg version="1.1" xmlns="http://www.w3.org/2000/svg" xmlns:xlink="http://www.w3.org/1999/xlink" width="32" height="32" viewBox="0 0 32 32">
<path d="M16.061 2.438c-7.479 0-13.563 6.084-13.563 13.563s6.084 13.563 13.563 13.563 13.563-6.084 13.563-13.563-6.084-13.563-13.563-13.563zM16.061 28.594c-6.944 0-12.594-5.65-12.594-12.594s5.65-12.594 12.594-12.594 12.594 5.65 12.594 12.594-5.65 12.594-12.594 12.594zM8.795 0.5c-4.007 0-7.266 3.259-7.266 7.266v1.029c0 0.267 0.217 0.484 0.484 0.484s0.484-0.216 0.484-0.484v-1.029c0-3.472 2.825-6.297 6.297-6.297h0.848c0.267 0 0.484-0.217 0.484-0.484s-0.217-0.484-0.484-0.484h-0.848zM23.205 0.5h-0.848c-0.267 0-0.484 0.217-0.484 0.484s0.217 0.484 0.484 0.484h0.848c3.472 0 6.297 2.825 6.297 6.297v1.029c0 0.267 0.217 0.484 0.484 0.484s0.484-0.217 0.484-0.484v-1.029c0-4.007-3.259-7.266-7.266-7.266zM16.061 16.284v-6.756c0-0.267-0.217-0.484-0.484-0.484s-0.484 0.217-0.484 0.484v6.957c0 0.129 0.051 0.252 0.141 0.343l4.76 4.76c0.095 0.095 0.219 0.141 0.343 0.141s0.248-0.047 0.343-0.141c0.189-0.189 0.189-0.496 0-0.685l-4.619-4.619zM3.37 31.306l2.906-3.875c0.16-0.214 0.116-0.517-0.098-0.678-0.213-0.159-0.516-0.116-0.678 0.098l-2.906 3.875c-0.16 0.214-0.116 0.517 0.098 0.678 0.087 0.065 0.19 0.096 0.291 0.096 0.146 0 0.293-0.067 0.388-0.194zM26.62 26.85c-0.162-0.215-0.464-0.257-0.678-0.098-0.214 0.161-0.258 0.464-0.098 0.678l2.906 3.875c0.096 0.127 0.241 0.194 0.387 0.194 0.101 0 0.203-0.031 0.291-0.097 0.214-0.161 0.258-0.464 0.098-0.678l-2.906-3.874z"></path>
</svg>
