<?xml version="1.0" encoding="utf-8"?>
<!-- Generated by IcoMoon.io -->
<!DOCTYPE svg PUBLIC "-//W3C//DTD SVG 1.1//EN" "http://www.w3.org/Graphics/SVG/1.1/DTD/svg11.dtd">
<svg version="1.1" xmlns="http://www.w3.org/2000/svg" xmlns:xlink="http://www.w3.org/1999/xlink" width="32" height="32" viewBox="0 0 32 32">
<path d="M1.342 18.542l1.921-1.921v0.696c0 6.662 6.066 12.728 12.728 12.728s12.728-6.066 12.728-12.728v-0.678l1.939 1.939c0.086 0.086 0.198 0.128 0.311 0.128s0.225-0.043 0.311-0.128c0.171-0.171 0.171-0.449 0-0.621l-2.649-2.649c-0.081-0.11-0.204-0.186-0.35-0.186-0.040 0-0.074 0.012-0.111 0.022-0.081 0.017-0.159 0.047-0.219 0.106l-2.67 2.67c-0.171 0.171-0.171 0.449 0 0.621s0.449 0.171 0.621 0l1.94-1.939v0.715c0 6.055-5.385 11.567-11.411 11.826v-16.653h7.461c0.242 0 0.439-0.197 0.439-0.439s-0.197-0.439-0.439-0.439h-7.461v-3.556c1.485-0.215 2.633-1.484 2.633-3.027 0-1.694-1.378-3.072-3.072-3.072s-3.072 1.378-3.072 3.072c0 1.543 1.148 2.812 2.633 3.027v3.556h-7.461c-0.242 0-0.439 0.197-0.439 0.439s0.197 0.439 0.439 0.439h7.461v16.653c-6.026-0.259-11.411-5.771-11.411-11.826v-0.696l1.957 1.957c0.086 0.086 0.198 0.128 0.311 0.128s0.225-0.043 0.311-0.128c0.171-0.171 0.171-0.449 0-0.621l-2.706-2.705c-0.080-0.081-0.19-0.13-0.312-0.13s-0.232 0.049-0.311 0.129l-2.669 2.669c-0.171 0.171-0.171 0.449 0 0.621s0.449 0.172 0.621 0.001zM15.99 2.833c1.21 0 2.194 0.984 2.194 2.194s-0.985 2.194-2.194 2.194-2.194-0.984-2.194-2.194 0.985-2.194 2.194-2.194z"></path>
</svg>
