<?xml version="1.0" encoding="utf-8"?>
<!-- Generated by IcoMoon.io -->
<!DOCTYPE svg PUBLIC "-//W3C//DTD SVG 1.1//EN" "http://www.w3.org/Graphics/SVG/1.1/DTD/svg11.dtd">
<svg version="1.1" xmlns="http://www.w3.org/2000/svg" xmlns:xlink="http://www.w3.org/1999/xlink" width="32" height="32" viewBox="0 0 32 32">
<path d="M16 31.5c8.546 0 15.5-6.954 15.5-15.5s-6.954-15.5-15.5-15.5-15.5 6.954-15.5 15.5 6.954 15.5 15.5 15.5zM7.969 3.9c-0.85 2.29-1.272 4.659-1.207 7.059 0.048 1.742 0.346 3.487 0.888 5.188 0.421 1.317 0.972 2.572 1.638 3.728 0.107 0.186 0.218 0.369 0.33 0.55 0.092 0.147 0.25 0.229 0.412 0.229 0.088 0 0.176-0.023 0.256-0.073 0.227-0.141 0.297-0.44 0.156-0.666-0.107-0.172-0.212-0.347-0.315-0.524-0.631-1.096-1.154-2.285-1.554-3.537-0.514-1.615-0.797-3.271-0.843-4.92-0.069-2.527 0.403-5.021 1.427-7.473 0.047-0.116 0.098-0.231 0.148-0.345 2.005-1.046 4.279-1.647 6.694-1.647 2.318 0 4.503 0.559 6.449 1.529-2.402 0.41-4.659 1.227-6.703 2.483-1.483 0.91-2.846 2.041-4.048 3.363-0.932 1.022-1.743 2.127-2.409 3.282-0.108 0.186-0.212 0.374-0.312 0.563-0.126 0.236-0.036 0.53 0.201 0.655 0.072 0.039 0.15 0.057 0.227 0.057 0.173 0 0.341-0.094 0.427-0.258 0.095-0.178 0.193-0.356 0.295-0.533 0.632-1.096 1.402-2.143 2.286-3.115 1.142-1.254 2.434-2.326 3.84-3.19 2.155-1.322 4.551-2.161 7.124-2.492 0.141-0.019 0.284-0.035 0.426-0.051 3.795 2.429 6.382 6.564 6.681 11.321-1.556-1.875-3.392-3.42-5.501-4.562-1.533-0.83-3.194-1.444-4.938-1.825-1.569-0.344-3.15-0.49-4.692-0.434-0.266 0.011-0.476 0.234-0.466 0.503 0.010 0.262 0.224 0.466 0.484 0.466 0.006 0 0.012 0 0.018 0 1.449-0.054 2.959 0.085 4.449 0.412 1.654 0.361 3.23 0.945 4.682 1.73 2.223 1.205 4.147 2.861 5.772 4.99 0.070 0.090 0.137 0.182 0.204 0.273-0.208 4.78-2.72 8.969-6.468 11.464 0.85-2.29 1.272-4.659 1.207-7.059-0.048-1.742-0.346-3.487-0.888-5.188-0.421-1.317-0.972-2.572-1.638-3.728-0.107-0.186-0.218-0.369-0.33-0.55-0.141-0.228-0.441-0.295-0.666-0.156-0.227 0.141-0.297 0.44-0.156 0.666 0.107 0.172 0.212 0.347 0.315 0.524 0.631 1.096 1.154 2.285 1.554 3.537 0.514 1.615 0.797 3.271 0.843 4.92 0.069 2.526-0.403 5.021-1.427 7.473-0.048 0.115-0.098 0.231-0.148 0.345-2.006 1.046-4.28 1.647-6.695 1.647-2.318 0-4.503-0.559-6.449-1.529 2.402-0.41 4.659-1.227 6.703-2.483 1.485-0.912 2.847-2.043 4.048-3.363 0.933-1.023 1.744-2.127 2.409-3.283 0.108-0.186 0.212-0.374 0.312-0.563 0.126-0.236 0.036-0.53-0.201-0.655-0.234-0.126-0.53-0.035-0.655 0.201-0.095 0.178-0.193 0.356-0.295 0.533-0.632 1.096-1.402 2.143-2.287 3.115-1.139 1.253-2.432 2.325-3.839 3.19-2.155 1.322-4.551 2.161-7.124 2.492-0.141 0.019-0.284 0.035-0.426 0.051-3.795-2.429-6.382-6.564-6.681-11.321 1.556 1.875 3.392 3.42 5.501 4.562 1.533 0.83 3.194 1.444 4.938 1.825 1.351 0.297 2.713 0.447 4.047 0.447 0.216 0 0.429-0.004 0.644-0.012 0.266-0.011 0.476-0.234 0.466-0.503-0.010-0.266-0.199-0.489-0.503-0.466-1.447 0.055-2.959-0.085-4.449-0.412-1.654-0.361-3.23-0.945-4.682-1.73-2.223-1.205-4.147-2.861-5.772-4.99-0.070-0.090-0.137-0.182-0.204-0.273 0.209-4.78 2.722-8.969 6.469-11.464z"></path>
</svg>
