<?xml version="1.0" encoding="utf-8"?>
<!-- Generated by IcoMoon.io -->
<!DOCTYPE svg PUBLIC "-//W3C//DTD SVG 1.1//EN" "http://www.w3.org/Graphics/SVG/1.1/DTD/svg11.dtd">
<svg version="1.1" xmlns="http://www.w3.org/2000/svg" xmlns:xlink="http://www.w3.org/1999/xlink" width="32" height="32" viewBox="0 0 32 32">
<path d="M19.147 16.455c0.159 0.017 0.316 0.025 0.474 0.025 1.175 0 2.303-0.465 3.149-1.312l7.158-7.158c0.837-0.837 1.304-1.947 1.311-3.123 0.009-1.179-0.444-2.285-1.272-3.115-0.822-0.822-1.914-1.273-3.082-1.273-0.011 0-0.020 0-0.032 0-1.176 0.008-2.285 0.474-3.122 1.311l-7.158 7.158c-1.058 1.058-1.517 2.561-1.227 4.018 0.056 0.28 0.334 0.463 0.608 0.405 0.28-0.056 0.462-0.328 0.406-0.607-0.223-1.118 0.13-2.273 0.943-3.085l7.158-7.158c0.644-0.645 1.496-1.002 2.399-1.008 0.942 0 1.745 0.338 2.376 0.97s0.976 1.476 0.971 2.376c-0.007 0.904-0.364 1.755-1.009 2.399l-7.158 7.158c-0.739 0.738-1.753 1.095-2.783 0.99-0.276-0.032-0.538 0.175-0.568 0.459-0.031 0.286 0.175 0.54 0.458 0.57zM15.429 23.030c1.11-1.11 1.554-2.677 1.188-4.189-0.067-0.277-0.339-0.45-0.624-0.381-0.277 0.067-0.448 0.346-0.381 0.623 0.281 1.161-0.061 2.362-0.914 3.217l-7.158 7.158c-0.644 0.645-1.496 1.002-2.399 1.008-0.927 0.005-1.745-0.337-2.376-0.97s-0.976-1.475-0.97-2.376c0.006-0.904 0.364-1.755 1.008-2.4l7.158-7.158c0.745-0.745 1.761-1.106 2.809-0.987 0.278 0.021 0.54-0.171 0.572-0.455s-0.171-0.539-0.455-0.572c-1.357-0.153-2.687 0.313-3.657 1.283l-7.158 7.158c-0.837 0.837-1.303 1.947-1.311 3.123-0.009 1.179 0.444 2.285 1.272 3.114 0.822 0.822 1.914 1.273 3.082 1.273 0.011 0 0.020 0 0.032 0 1.176-0.008 2.285-0.474 3.122-1.311l7.16-7.159zM22.77 9.11c-0.202-0.202-0.529-0.202-0.731 0l-13.050 13.050c-0.202 0.201-0.202 0.529 0 0.731 0.101 0.101 0.233 0.152 0.365 0.152s0.264-0.050 0.365-0.152l13.050-13.050c0.202-0.202 0.202-0.529 0-0.731z"></path>
</svg>
