<?xml version="1.0" encoding="utf-8"?>
<!-- Generated by IcoMoon.io -->
<!DOCTYPE svg PUBLIC "-//W3C//DTD SVG 1.1//EN" "http://www.w3.org/Graphics/SVG/1.1/DTD/svg11.dtd">
<svg version="1.1" xmlns="http://www.w3.org/2000/svg" xmlns:xlink="http://www.w3.org/1999/xlink" width="32" height="32" viewBox="0 0 32 32">
<path d="M22.861 11.283v17.153c0 0.151 0.031 0.294 0.079 0.429h-2.731c0.048-0.135 0.079-0.278 0.079-0.429v-24.872c0-0.709-0.577-1.286-1.286-1.286h-6.003c-0.709 0-1.286 0.577-1.286 1.286v24.872c0 0.151 0.031 0.294 0.079 0.429h-2.731c0.048-0.135 0.079-0.278 0.079-0.429v-9.434c0-0.709-0.577-1.286-1.286-1.286h-6.003c-0.709 0-1.286 0.577-1.286 1.286v9.434c0 0.709 0.577 1.286 1.286 1.286h28.302c0.709 0 1.286-0.577 1.286-1.286v-17.153c0-0.709-0.577-1.286-1.286-1.286h-6.003c-0.709 0-1.286 0.577-1.286 1.286zM4.851 28.865h-3.002c-0.236 0-0.429-0.192-0.429-0.429v-9.434c0-0.237 0.193-0.429 0.429-0.429h6.003c0.236 0 0.429 0.192 0.429 0.429v9.434c0 0.237-0.193 0.429-0.429 0.429h-3.002zM12.998 28.865c-0.236 0-0.429-0.192-0.429-0.429v-24.872c0-0.237 0.193-0.429 0.429-0.429h6.003c0.236 0 0.429 0.192 0.429 0.429v24.872c0 0.237-0.193 0.429-0.429 0.429h-6.003zM30.58 11.283v17.153c0 0.237-0.193 0.429-0.429 0.429h-6.003c-0.236 0-0.429-0.192-0.429-0.429v-17.153c0-0.237 0.193-0.429 0.429-0.429h6.003c0.236 0 0.429 0.192 0.429 0.429z"></path>
</svg>
