<?xml version="1.0" encoding="utf-8"?>
<!-- Generated by IcoMoon.io -->
<!DOCTYPE svg PUBLIC "-//W3C//DTD SVG 1.1//EN" "http://www.w3.org/Graphics/SVG/1.1/DTD/svg11.dtd">
<svg version="1.1" xmlns="http://www.w3.org/2000/svg" xmlns:xlink="http://www.w3.org/1999/xlink" width="32" height="32" viewBox="0 0 32 32">
<path d="M29.518 14.56h-27.036c-0.113 0-0.219 0.052-0.289 0.14s-0.094 0.204-0.067 0.313l2.927 11.704c0.070 0.246 0.286 0.995 1.081 0.995h19.729c0.799 0 1.012-0.75 1.085-1.008l2.923-11.691c0.027-0.109 0.003-0.225-0.067-0.313s-0.175-0.14-0.288-0.14zM26.245 26.517c-0.133 0.465-0.27 0.465-0.38 0.465h-19.729c-0.109 0-0.246 0-0.376-0.454l-2.809-11.238h26.1l-2.806 11.226zM14.173 24.791c0.202 0 0.365-0.164 0.365-0.365v-6.576c0-0.202-0.164-0.365-0.365-0.365s-0.365 0.164-0.365 0.365v6.576c0 0.202 0.164 0.365 0.365 0.365zM9.057 24.791c0.014 0 0.027-0.001 0.042-0.002 0.2-0.023 0.345-0.203 0.322-0.403l-0.731-6.576c-0.022-0.201-0.197-0.343-0.404-0.323-0.2 0.023-0.345 0.203-0.322 0.403l0.731 6.576c0.020 0.187 0.179 0.325 0.362 0.325zM18.558 24.791c0.202 0 0.365-0.164 0.365-0.365v-6.576c0-0.202-0.164-0.365-0.365-0.365s-0.365 0.164-0.365 0.365v6.576c0 0.202 0.164 0.365 0.365 0.365zM22.901 24.788c0.015 0.001 0.028 0.002 0.042 0.002 0.183 0 0.342-0.138 0.362-0.325l0.731-6.576c0.022-0.2-0.122-0.381-0.322-0.403-0.21-0.020-0.381 0.122-0.404 0.323l-0.731 6.576c-0.022 0.2 0.122 0.381 0.322 0.403zM25.865 13.099c0.085 0 0.169-0.029 0.239-0.089 0.153-0.132 0.169-0.362 0.037-0.515l-6.942-8.038c-0.132-0.153-0.362-0.169-0.515-0.038-0.153 0.132-0.169 0.362-0.037 0.515l6.942 8.038c0.072 0.084 0.174 0.127 0.276 0.127zM13.673 4.413c-0.156-0.126-0.386-0.105-0.514 0.052l-6.576 8.038c-0.128 0.156-0.105 0.386 0.051 0.514 0.068 0.055 0.151 0.082 0.232 0.082 0.106 0 0.21-0.045 0.283-0.134l6.576-8.038c0.128-0.156 0.104-0.386-0.052-0.514zM30.98 11.638h-2.923c-0.202 0-0.365 0.164-0.365 0.365s0.164 0.365 0.365 0.365h2.923c0.202 0 0.365-0.164 0.365-0.365s-0.164-0.365-0.365-0.365zM10.52 12.368h11.691c0.202 0 0.365-0.164 0.365-0.365s-0.164-0.365-0.365-0.365h-11.691c-0.202 0-0.365 0.164-0.365 0.365s0.164 0.365 0.365 0.365zM1.020 12.368h3.654c0.202 0 0.365-0.164 0.365-0.365s-0.164-0.365-0.365-0.365h-3.654c-0.202 0-0.365 0.164-0.365 0.365s0.164 0.365 0.365 0.365z"></path>
</svg>
