<?xml version="1.0" encoding="utf-8"?>
<!-- Generated by IcoMoon.io -->
<!DOCTYPE svg PUBLIC "-//W3C//DTD SVG 1.1//EN" "http://www.w3.org/Graphics/SVG/1.1/DTD/svg11.dtd">
<svg version="1.1" xmlns="http://www.w3.org/2000/svg" xmlns:xlink="http://www.w3.org/1999/xlink" width="32" height="32" viewBox="0 0 32 32">
<path d="M19.875 1.469c0.267 0 0.484-0.217 0.484-0.484s-0.217-0.484-0.484-0.484h-8.719c-0.267 0-0.484 0.217-0.484 0.484s0.217 0.484 0.484 0.484h8.719zM3.881 27.271c-1.040 1.464-0.924 2.42-0.643 2.964 0.297 0.576 1.072 1.264 3.075 1.264h19.375c2.002 0 2.777-0.688 3.075-1.265 0.281-0.544 0.397-1.501-0.628-2.939l-6.025-9.639-0.085-0.12c-0.433-0.618-2.634-4.421-2.634-7.591v-7.023c0-0.267-0.217-0.484-0.484-0.484h-6.781c-0.267 0-0.484 0.217-0.484 0.484v7.023c0 3.382-2.388 7.708-2.415 7.755l-5.345 9.571zM27.902 29.79c-0.243 0.472-1.050 0.741-2.215 0.741h-19.375c-1.164 0-1.971-0.269-2.215-0.741-0.222-0.43-0.019-1.126 0.601-2.001l4.843-8.668 0.007 0.004c0.882 0.509 1.793 1.035 3.603 1.035s2.722-0.525 3.603-1.033c0.807-0.465 1.568-0.905 3.119-0.905 0.588 0 1.098 0.073 1.566 0.203l5.89 9.409c0.592 0.831 0.794 1.527 0.573 1.957zM12.609 9.945v-6.539h5.813v6.539c0 2.751 1.469 5.853 2.329 7.364-0.281-0.032-0.567-0.057-0.877-0.057-1.811 0-2.722 0.525-3.603 1.033-0.807 0.465-1.568 0.905-3.119 0.905s-2.312-0.44-3.118-0.905l-0.018-0.011 0.045-0.079c0.024-0.039 2.55-4.54 2.55-8.25z"></path>
</svg>
