<?xml version="1.0" encoding="utf-8"?>
<!-- Generated by IcoMoon.io -->
<!DOCTYPE svg PUBLIC "-//W3C//DTD SVG 1.1//EN" "http://www.w3.org/Graphics/SVG/1.1/DTD/svg11.dtd">
<svg version="1.1" xmlns="http://www.w3.org/2000/svg" xmlns:xlink="http://www.w3.org/1999/xlink" width="32" height="32" viewBox="0 0 32 32">
<path d="M25.453 13.299c-1.039 0-2.011 0.286-2.85 0.776l-3.674-5.637h5.185c-0.007 0.269-0.070 0.719-0.378 1.073-0.317 0.364-0.83 0.548-1.525 0.548-0.149 0-0.27 0.121-0.27 0.27s0.121 0.27 0.27 0.27c0.858 0 1.508-0.246 1.932-0.732 0.628-0.722 0.502-1.694 0.496-1.735-0.018-0.133-0.132-0.233-0.267-0.233h-5.942c-0.099 0-0.191 0.055-0.237 0.142-0.048 0.087-0.043 0.193 0.011 0.277l1.529 2.347h-8.57l-1.665-2.765h2.99c0.149 0 0.27-0.121 0.27-0.27s-0.121-0.27-0.27-0.27h-4.862c-0.149 0-0.27 0.121-0.27 0.27s0.121 0.27 0.27 0.27h1.25c0.005 0.012 0.006 0.026 0.014 0.038l1.843 3.058-1.65 2.912c-0.764-0.384-1.624-0.606-2.537-0.606-3.128 0-5.672 2.544-5.672 5.672s2.544 5.672 5.672 5.672c3.019 0 5.487-2.372 5.629-5.402h5.985c0.016 0.313-0.052 0.739-0.348 1.074-0.32 0.362-0.839 0.546-1.543 0.546-0.149 0-0.27 0.121-0.27 0.27s0.121 0.27 0.27 0.27c0.869 0 1.525-0.247 1.952-0.734 0.617-0.704 0.501-1.64 0.496-1.679-0.018-0.134-0.132-0.235-0.268-0.235h-2.122l3.807-7.476 2.015 3.092c-1.431 1.030-2.369 2.706-2.369 4.601 0 3.128 2.544 5.672 5.672 5.672s5.672-2.544 5.672-5.672-2.544-5.672-5.672-5.672zM19.568 11.138l-3.699 7.329-4.379-7.329h8.078zM11.054 11.525l4.357 7.229h-3.202c-0.073-1.931-1.114-3.615-2.653-4.583l1.499-2.646zM11.668 18.754h-4.71l2.33-4.113c1.376 0.875 2.306 2.383 2.38 4.113zM6.547 24.103c-2.829 0-5.132-2.302-5.132-5.132s2.302-5.132 5.132-5.132c0.816 0 1.585 0.197 2.271 0.536l-2.558 4.515c-0.048 0.083-0.047 0.186 0.002 0.269s0.137 0.134 0.233 0.081h5.168c-0.168 2.732-2.395 4.862-5.115 4.862zM25.453 24.103c-2.829 0-5.132-2.302-5.132-5.132 0-1.705 0.839-3.215 2.124-4.149l2.834 4.349c0.052 0.079 0.138 0.123 0.226 0.123 0.051 0 0.102-0.014 0.147-0.044 0.124-0.081 0.16-0.249 0.079-0.374l-2.834-4.349c0.754-0.435 1.624-0.688 2.555-0.688 2.829 0 5.132 2.302 5.132 5.132s-2.302 5.132-5.132 5.132z"></path>
</svg>
