<?xml version="1.0" encoding="utf-8"?>
<!-- Generated by IcoMoon.io -->
<!DOCTYPE svg PUBLIC "-//W3C//DTD SVG 1.1//EN" "http://www.w3.org/Graphics/SVG/1.1/DTD/svg11.dtd">
<svg version="1.1" xmlns="http://www.w3.org/2000/svg" xmlns:xlink="http://www.w3.org/1999/xlink" width="32" height="32" viewBox="0 0 32 32">
<path d="M28.72 4.402h-11.972c-0.297 0-0.554 0.102-0.748 0.271-0.195-0.169-0.451-0.271-0.748-0.271h-11.972c-0.65 0-1.122 0.472-1.122 1.122v20.95c0 0.65 0.472 1.122 1.122 1.122h11.972c0.297 0 0.554-0.102 0.748-0.271 0.195 0.169 0.451 0.271 0.748 0.271h11.972c0.65 0 1.122-0.472 1.122-1.122v-20.95c0-0.65-0.472-1.122-1.122-1.122zM15.252 26.849h-11.972c-0.234 0-0.374-0.14-0.374-0.374v-20.95c0-0.234 0.14-0.374 0.374-0.374h11.972c0.234 0 0.374 0.14 0.374 0.374v20.95c0 0.234-0.14 0.374-0.374 0.374zM29.094 26.475c0 0.234-0.14 0.374-0.374 0.374h-11.972c-0.234 0-0.374-0.14-0.374-0.374v-20.95c0-0.234 0.14-0.374 0.374-0.374h11.972c0.234 0 0.374 0.14 0.374 0.374v20.95zM30.965 5.899c-0.206 0-0.374 0.168-0.374 0.374v19.454c0 0.206 0.168 0.374 0.374 0.374s0.374-0.168 0.374-0.374v-19.454c0-0.207-0.168-0.374-0.374-0.374zM1.035 26.101c0.206 0 0.374-0.168 0.374-0.374v-19.454c0-0.207-0.168-0.374-0.374-0.374s-0.374 0.168-0.374 0.374v19.454c0 0.206 0.168 0.374 0.374 0.374zM13.755 11.137h-8.979c-0.207 0-0.374 0.168-0.374 0.374s0.168 0.374 0.374 0.374h8.979c0.207 0 0.374-0.168 0.374-0.374s-0.168-0.374-0.374-0.374zM13.755 14.129h-8.979c-0.207 0-0.374 0.168-0.374 0.374s0.168 0.374 0.374 0.374h8.979c0.207 0 0.374-0.168 0.374-0.374s-0.168-0.374-0.374-0.374zM13.755 8.144h-8.979c-0.207 0-0.374 0.168-0.374 0.374s0.168 0.374 0.374 0.374h8.979c0.207 0 0.374-0.168 0.374-0.374s-0.168-0.374-0.374-0.374zM13.755 17.122h-8.979c-0.207 0-0.374 0.168-0.374 0.374s0.168 0.374 0.374 0.374h8.979c0.207 0 0.374-0.168 0.374-0.374s-0.168-0.374-0.374-0.374zM13.755 20.115h-8.979c-0.207 0-0.374 0.168-0.374 0.374s0.168 0.374 0.374 0.374h8.979c0.207 0 0.374-0.168 0.374-0.374s-0.168-0.374-0.374-0.374zM13.755 23.108h-8.979c-0.207 0-0.374 0.168-0.374 0.374s0.168 0.374 0.374 0.374h8.979c0.207 0 0.374-0.168 0.374-0.374s-0.168-0.374-0.374-0.374zM27.223 11.137h-8.979c-0.206 0-0.374 0.168-0.374 0.374s0.168 0.374 0.374 0.374h8.979c0.206 0 0.374-0.168 0.374-0.374s-0.168-0.374-0.374-0.374zM27.223 14.129h-8.979c-0.206 0-0.374 0.168-0.374 0.374s0.168 0.374 0.374 0.374h8.979c0.206 0 0.374-0.168 0.374-0.374s-0.168-0.374-0.374-0.374zM27.223 8.144h-8.979c-0.206 0-0.374 0.168-0.374 0.374s0.168 0.374 0.374 0.374h8.979c0.206 0 0.374-0.168 0.374-0.374s-0.168-0.374-0.374-0.374zM27.223 17.122h-8.979c-0.206 0-0.374 0.168-0.374 0.374s0.168 0.374 0.374 0.374h8.979c0.206 0 0.374-0.168 0.374-0.374s-0.168-0.374-0.374-0.374zM27.223 20.115h-8.979c-0.206 0-0.374 0.168-0.374 0.374s0.168 0.374 0.374 0.374h8.979c0.206 0 0.374-0.168 0.374-0.374s-0.168-0.374-0.374-0.374zM27.223 23.108h-8.979c-0.206 0-0.374 0.168-0.374 0.374s0.168 0.374 0.374 0.374h8.979c0.206 0 0.374-0.168 0.374-0.374s-0.168-0.374-0.374-0.374z"></path>
</svg>
