<?xml version="1.0" encoding="utf-8"?>
<!-- Generated by IcoMoon.io -->
<!DOCTYPE svg PUBLIC "-//W3C//DTD SVG 1.1//EN" "http://www.w3.org/Graphics/SVG/1.1/DTD/svg11.dtd">
<svg version="1.1" xmlns="http://www.w3.org/2000/svg" xmlns:xlink="http://www.w3.org/1999/xlink" width="32" height="32" viewBox="0 0 32 32">
<path d="M31.001 17.622c-0.224 0-0.405 0.182-0.405 0.405v9.73c0 0.224-0.182 0.405-0.405 0.405h-28.38c-0.224 0-0.405-0.182-0.405-0.405v-9.73c0-0.224-0.182-0.405-0.405-0.405s-0.405 0.182-0.405 0.405v9.73c0 0.671 0.546 1.216 1.216 1.216h28.38c0.671 0 1.216-0.546 1.216-1.216v-9.73c0-0.224-0.182-0.405-0.405-0.405zM21.271 7.081c0.224 0 0.405-0.182 0.405-0.405v-2.433c0-0.671-0.546-1.216-1.216-1.216h-8.919c-0.671 0-1.216 0.546-1.216 1.216v2.433c0 0.224 0.182 0.405 0.405 0.405s0.405-0.182 0.405-0.405v-2.433c0-0.224 0.182-0.405 0.405-0.405h8.919c0.224 0 0.405 0.182 0.405 0.405v2.433c0 0.224 0.182 0.405 0.405 0.405zM30.19 8.702h-28.38c-0.671 0-1.216 0.546-1.216 1.216v4.020c0 2.253 7.667 5.271 15.508 5.271 7.738 0 15.305-3.018 15.305-5.271v-4.020c0-0.671-0.546-1.216-1.216-1.216zM30.595 13.939c0 1.43-6.857 4.46-14.494 4.46-7.744 0-14.697-3.029-14.697-4.46v-4.020c0-0.224 0.182-0.405 0.405-0.405h28.38c0.224 0 0.405 0.182 0.405 0.405v4.020zM16.101 21.676c0.765 0 1.559-0.032 2.363-0.094 0.223-0.017 0.39-0.212 0.372-0.436s-0.204-0.394-0.436-0.372c-1.633 0.127-3.17 0.122-4.799-0.016-0.214-0.022-0.419 0.147-0.438 0.37s0.147 0.419 0.37 0.438c0.872 0.074 1.737 0.111 2.569 0.111z"></path>
</svg>
