<?xml version="1.0" encoding="utf-8"?>
<!-- Generated by IcoMoon.io -->
<!DOCTYPE svg PUBLIC "-//W3C//DTD SVG 1.1//EN" "http://www.w3.org/Graphics/SVG/1.1/DTD/svg11.dtd">
<svg version="1.1" xmlns="http://www.w3.org/2000/svg" xmlns:xlink="http://www.w3.org/1999/xlink" width="32" height="32" viewBox="0 0 32 32">
<path d="M30.978 11.616c-0.202 0-0.365 0.164-0.365 0.365v14.613c0 0.202-0.164 0.365-0.365 0.365h-28.496c-0.202 0-0.365-0.164-0.365-0.365v-14.613c0-0.202-0.164-0.365-0.365-0.365s-0.365 0.164-0.365 0.365v14.613c0 0.604 0.492 1.096 1.096 1.096h28.496c0.604 0 1.096-0.492 1.096-1.096v-14.613c0-0.202-0.164-0.365-0.365-0.365zM30.248 4.31h-28.496c-0.604 0-1.096 0.492-1.096 1.096v4.384c0 0.202 0.164 0.365 0.365 0.365h29.957c0.202 0 0.365-0.164 0.365-0.365v-4.384c0-0.604-0.492-1.096-1.096-1.096zM30.613 9.424h-29.226v-4.019c0-0.202 0.164-0.365 0.365-0.365h28.496c0.202 0 0.365 0.164 0.365 0.365v4.019zM13.443 24.768c0.202 0 0.365-0.164 0.365-0.365v-11.69c0-0.202-0.164-0.365-0.365-0.365h-9.498c-0.202 0-0.365 0.164-0.365 0.365v11.69c0 0.202 0.164 0.365 0.365 0.365h9.498zM4.31 13.077h8.768v10.96h-8.768v-10.96zM17.096 15.269h10.96c0.202 0 0.365-0.164 0.365-0.365s-0.164-0.365-0.365-0.365h-10.96c-0.202 0-0.365 0.164-0.365 0.365s0.164 0.365 0.365 0.365zM17.096 18.923h10.96c0.202 0 0.365-0.164 0.365-0.365s-0.164-0.365-0.365-0.365h-10.96c-0.202 0-0.365 0.164-0.365 0.365s0.164 0.365 0.365 0.365zM17.096 22.576h10.96c0.202 0 0.365-0.164 0.365-0.365s-0.164-0.365-0.365-0.365h-10.96c-0.202 0-0.365 0.164-0.365 0.365s0.164 0.365 0.365 0.365zM2.848 7.232c0 0.404 0.327 0.731 0.731 0.731s0.731-0.327 0.731-0.731c0-0.404-0.327-0.731-0.731-0.731s-0.731 0.327-0.731 0.731zM5.771 7.232c0 0.404 0.327 0.731 0.731 0.731s0.731-0.327 0.731-0.731c0-0.404-0.327-0.731-0.731-0.731s-0.731 0.327-0.731 0.731zM8.693 7.232c0 0.404 0.327 0.731 0.731 0.731s0.731-0.327 0.731-0.731c0-0.404-0.327-0.731-0.731-0.731s-0.731 0.327-0.731 0.731z"></path>
</svg>
