<?xml version="1.0" encoding="utf-8"?>
<!-- Generated by IcoMoon.io -->
<!DOCTYPE svg PUBLIC "-//W3C//DTD SVG 1.1//EN" "http://www.w3.org/Graphics/SVG/1.1/DTD/svg11.dtd">
<svg version="1.1" xmlns="http://www.w3.org/2000/svg" xmlns:xlink="http://www.w3.org/1999/xlink" width="32" height="32" viewBox="0 0 32 32">
<path d="M31.469 29.194v-17.289c0-0.251-0.204-0.455-0.455-0.455s-0.455 0.204-0.455 0.455v17.289c0 0.251-0.204 0.455-0.455 0.455h-28.208c-0.251 0-0.455-0.204-0.455-0.455v-17.289c0-0.251-0.204-0.455-0.455-0.455s-0.455 0.204-0.455 0.455v17.289c0 0.753 0.612 1.365 1.365 1.365h28.208c0.753 0 1.365-0.612 1.365-1.365zM4.626 22.369c-0.251 0-0.455 0.204-0.455 0.455s0.204 0.455 0.455 0.455h1.365v3.185c0 0.251 0.204 0.455 0.455 0.455s0.455-0.204 0.455-0.455v-3.185h5.46v3.185c0 0.251 0.204 0.455 0.455 0.455s0.455-0.204 0.455-0.455v-3.185h5.46v3.185c0 0.251 0.204 0.455 0.455 0.455s0.455-0.204 0.455-0.455v-3.185h5.46v3.185c0 0.251 0.204 0.455 0.455 0.455s0.455-0.204 0.455-0.455v-3.185h1.365c0.251 0 0.455-0.204 0.455-0.455s-0.204-0.455-0.455-0.455h-1.365v-4.55h1.365c0.251 0 0.455-0.204 0.455-0.455s-0.204-0.455-0.455-0.455h-1.365v-4.095c0-0.251-0.204-0.455-0.455-0.455s-0.455 0.204-0.455 0.455v4.095h-5.46v-4.095c0-0.251-0.204-0.455-0.455-0.455s-0.455 0.204-0.455 0.455v4.095h-5.46v-4.095c0-0.251-0.204-0.455-0.455-0.455s-0.455 0.204-0.455 0.455v4.095h-5.46v-4.095c0-0.251-0.204-0.455-0.455-0.455s-0.455 0.204-0.455 0.455v4.095h-1.365c-0.251 0-0.455 0.204-0.455 0.455s0.204 0.455 0.455 0.455h1.365v4.55h-1.365zM25.099 17.82v4.55h-5.46v-4.55h5.46zM18.73 17.82v4.55h-5.46v-4.55h5.46zM6.901 17.82h5.46v4.55h-5.46v-4.55zM26.464 4.171h3.867c0.079 0 0.227 0 0.227 0.455v4.095h-29.118v-4.095c0-0.251 0.204-0.455 0.455-0.455h3.64c0.251 0 0.455-0.204 0.455-0.455s-0.204-0.455-0.455-0.455h-3.64c-0.752 0-1.365 0.612-1.365 1.365v4.55c0 0.251 0.204 0.455 0.455 0.455h30.028c0.251 0 0.455-0.204 0.455-0.455v-4.55c0-1.006-0.588-1.365-1.137-1.365h-3.867c-0.251 0-0.455 0.204-0.455 0.455s0.204 0.455 0.455 0.455zM21.005 4.171c0.251 0 0.455-0.204 0.455-0.455s-0.204-0.455-0.455-0.455h-10.009c-0.251 0-0.455 0.204-0.455 0.455s0.204 0.455 0.455 0.455h10.009zM8.721 5.536v-3.64c0-0.251-0.204-0.455-0.455-0.455s-0.455 0.204-0.455 0.455v3.64c0 0.251 0.204 0.455 0.455 0.455s0.455-0.204 0.455-0.455zM23.734 5.991c0.251 0 0.455-0.204 0.455-0.455v-3.64c0-0.251-0.204-0.455-0.455-0.455s-0.455 0.204-0.455 0.455v3.64c0 0.251 0.204 0.455 0.455 0.455z"></path>
</svg>
