<?xml version="1.0" encoding="utf-8"?>
<!-- Generated by IcoMoon.io -->
<!DOCTYPE svg PUBLIC "-//W3C//DTD SVG 1.1//EN" "http://www.w3.org/Graphics/SVG/1.1/DTD/svg11.dtd">
<svg version="1.1" xmlns="http://www.w3.org/2000/svg" xmlns:xlink="http://www.w3.org/1999/xlink" width="32" height="32" viewBox="0 0 32 32">
<path d="M29.517 8.693h-5.48c-1.408 0-1.46-1.313-1.461-1.461v-0.731c0-0.919-1.016-2.192-2.923-2.192h-7.284c-2.144 0-2.923 1.311-2.923 2.192v0.726c-0.001 0.060-0.035 1.466-1.484 1.466h-5.48c-1.008 0-1.827 0.82-1.827 1.827v13.152c0 1.007 0.819 1.827 1.827 1.827h4.384c0.202 0 0.365-0.164 0.365-0.365s-0.164-0.365-0.365-0.365h-4.384c-0.604 0-1.096-0.492-1.096-1.096v-9.133h5.845c-0.471 1.125-0.731 2.359-0.731 3.653 0 5.237 4.261 9.498 9.498 9.498s9.498-4.261 9.498-9.498c0-1.294-0.262-2.528-0.733-3.653h5.847v9.133c0 0.604-0.492 1.096-1.096 1.096h-5.115c-0.202 0-0.365 0.164-0.365 0.365s0.164 0.365 0.365 0.365h5.115c1.008 0 1.827-0.82 1.827-1.827v-13.152c0-1.007-0.819-1.827-1.827-1.827zM16 26.96c-4.835 0-8.768-3.933-8.768-8.768s3.933-8.768 8.768-8.768 8.768 3.933 8.768 8.768-3.933 8.768-8.768 8.768zM24.585 13.808c-0.054 0-0.104 0.013-0.151 0.034-1.581-3.053-4.765-5.149-8.435-5.149s-6.854 2.096-8.435 5.149c-0.046-0.021-0.096-0.034-0.151-0.034h-6.028v-3.288c0-0.604 0.492-1.096 1.096-1.096h5.48c1.73 0 2.206-1.431 2.215-2.192v-0.731c0-0.587 0.584-1.461 2.192-1.461h7.284c1.53 0 2.192 0.967 2.192 1.461v0.731c0 0.758 0.458 2.192 2.192 2.192h5.48c0.604 0 1.096 0.492 1.096 1.096v3.288h-6.028zM7.597 7.963c0.202 0 0.365-0.164 0.365-0.365v-0.731c0-0.604-0.492-1.096-1.096-1.096h-2.923c-0.604 0-1.096 0.492-1.096 1.096v0.731c0 0.202 0.164 0.365 0.365 0.365s0.365-0.164 0.365-0.365v-0.731c0-0.202 0.164-0.365 0.365-0.365h2.923c0.201 0 0.365 0.164 0.365 0.365v0.731c0 0.202 0.164 0.365 0.365 0.365zM16 11.616c-3.626 0-6.576 2.95-6.576 6.576s2.95 6.576 6.576 6.576 6.576-2.95 6.576-6.576-2.95-6.576-6.576-6.576zM16 24.037c-3.223 0-5.845-2.622-5.845-5.845s2.622-5.845 5.845-5.845 5.845 2.622 5.845 5.845-2.622 5.845-5.845 5.845z"></path>
</svg>
