<?xml version="1.0" encoding="utf-8"?>
<!-- Generated by IcoMoon.io -->
<!DOCTYPE svg PUBLIC "-//W3C//DTD SVG 1.1//EN" "http://www.w3.org/Graphics/SVG/1.1/DTD/svg11.dtd">
<svg version="1.1" xmlns="http://www.w3.org/2000/svg" xmlns:xlink="http://www.w3.org/1999/xlink" width="32" height="32" viewBox="0 0 32 32">
<path d="M19.687 4.644c-0.962-1.657-2.271-2.571-3.686-2.571s-2.725 0.914-3.687 2.571l-10.68 18.395c-0.975 1.695-1.079 3.455-0.287 4.828 0.754 1.306 2.233 2.057 4.060 2.060h21.188c0 0 0 0 0.001 0 1.83-0.003 3.311-0.752 4.062-2.055 0.788-1.364 0.682-3.117-0.292-4.809l-10.679-18.419zM29.905 27.437c-0.593 1.027-1.799 1.617-3.311 1.62h-21.186c-1.507-0.003-2.712-0.595-3.307-1.625-0.633-1.097-0.527-2.539 0.287-3.957l10.679-18.394c0.8-1.379 1.842-2.138 2.934-2.138s2.134 0.759 2.933 2.138l10.679 18.416c0.814 1.415 0.92 2.852 0.292 3.94zM16.001 19.482c0.24 0 0.435-0.195 0.435-0.435v-8.705c0-0.24-0.195-0.435-0.435-0.435s-0.435 0.195-0.435 0.435v8.705c0 0.24 0.195 0.435 0.435 0.435zM15.945 21.658c-0.96 0-1.741 0.781-1.741 1.741s0.781 1.741 1.741 1.741 1.741-0.781 1.741-1.741-0.781-1.741-1.741-1.741zM15.945 24.269c-0.48 0-0.87-0.39-0.87-0.87s0.391-0.87 0.87-0.87 0.87 0.39 0.87 0.87-0.391 0.87-0.87 0.87z"></path>
</svg>
