<?xml version="1.0" encoding="utf-8"?>
<!-- Generated by IcoMoon.io -->
<!DOCTYPE svg PUBLIC "-//W3C//DTD SVG 1.1//EN" "http://www.w3.org/Graphics/SVG/1.1/DTD/svg11.dtd">
<svg version="1.1" xmlns="http://www.w3.org/2000/svg" xmlns:xlink="http://www.w3.org/1999/xlink" width="32" height="32" viewBox="0 0 32 32">
<path d="M26.706 14.556c-0.193-0.060-0.397 0.045-0.459 0.237s0.045 0.397 0.237 0.459c2.855 0.91 4.129 2.267 4.129 4.401 0 1.899-1.732 3.373-2.764 4.083-0.099 0.069-0.159 0.18-0.159 0.301v2.793c-0.533-0.199-1.463-0.65-2.284-1.575-0.085-0.096-0.216-0.14-0.342-0.116-0.208 0.040-0.421 0.097-0.636 0.155-0.373 0.1-0.757 0.204-1.122 0.204-1.876 0-3.19-0.403-4.533-1.39-0.164-0.12-0.391-0.084-0.511 0.078s-0.085 0.391 0.077 0.511c1.481 1.089 2.92 1.532 4.966 1.532 0.461 0 0.894-0.116 1.312-0.229 0.13-0.036 0.259-0.071 0.387-0.101 1.366 1.442 2.91 1.77 2.977 1.784 0.024 0.005 0.048 0.007 0.073 0.007 0.083 0 0.166-0.029 0.231-0.083 0.085-0.069 0.134-0.173 0.134-0.283v-3.097c1.887-1.345 2.923-2.964 2.923-4.575 0-2.47-1.474-4.090-4.638-5.098zM24.768 14.173c0-5.623-5.128-9.864-11.926-9.864-6.833 0-12.185 4.333-12.185 9.865 0 3.316 2.346 5.693 4.384 7.13v4.849c0 0.124 0.063 0.239 0.167 0.307 0.061 0.039 0.129 0.058 0.199 0.058 0.050 0 0.102-0.011 0.15-0.032 0.107-0.047 2.6-1.181 4.734-3.514 0.924 0.172 1.97 0.337 2.918 0.337 6.914 0 11.56-3.672 11.56-9.137zM13.207 22.58c-0.957 0-2.045-0.183-2.983-0.362-0.126-0.023-0.256 0.020-0.342 0.116-1.498 1.689-3.258 2.763-4.111 3.225v-4.444c0-0.121-0.059-0.232-0.159-0.301-1.927-1.326-4.225-3.553-4.225-6.639 0-5.123 5.031-9.135 11.454-9.135 6.383 0 11.196 3.927 11.196 9.133 0 5.028-4.352 8.406-10.831 8.406zM12.712 12.712c-0.806 0-1.461 0.655-1.461 1.461s0.655 1.461 1.461 1.461 1.461-0.655 1.461-1.461-0.655-1.461-1.461-1.461zM12.712 14.904c-0.403 0-0.731-0.327-0.731-0.731s0.328-0.731 0.731-0.731 0.731 0.327 0.731 0.731-0.328 0.731-0.731 0.731zM17.827 12.712c-0.806 0-1.461 0.655-1.461 1.461s0.655 1.461 1.461 1.461 1.461-0.655 1.461-1.461-0.655-1.461-1.461-1.461zM17.827 14.904c-0.403 0-0.731-0.327-0.731-0.731s0.328-0.731 0.731-0.731 0.731 0.327 0.731 0.731-0.328 0.731-0.731 0.731zM7.597 12.781c-0.806 0-1.461 0.655-1.461 1.461s0.655 1.461 1.461 1.461 1.461-0.655 1.461-1.461-0.655-1.461-1.461-1.461zM7.597 14.973c-0.403 0-0.731-0.327-0.731-0.731s0.328-0.731 0.731-0.731 0.731 0.327 0.731 0.731-0.328 0.731-0.731 0.731z"></path>
</svg>
