<?xml version="1.0" encoding="utf-8"?>
<!-- Generated by IcoMoon.io -->
<!DOCTYPE svg PUBLIC "-//W3C//DTD SVG 1.1//EN" "http://www.w3.org/Graphics/SVG/1.1/DTD/svg11.dtd">
<svg version="1.1" xmlns="http://www.w3.org/2000/svg" xmlns:xlink="http://www.w3.org/1999/xlink" width="32" height="32" viewBox="0 0 32 32">
<path d="M16.014 6.335c0.268 0 0.486-0.218 0.486-0.486v-1.459h0.473c0.268 0 0.486-0.218 0.486-0.486v-2.918c0-0.268-0.218-0.486-0.486-0.486h-1.945c-0.268 0-0.486 0.218-0.486 0.486v2.918c0 0.268 0.218 0.486 0.486 0.486h0.5v1.459c0 0.268 0.217 0.486 0.486 0.486zM15.514 1.473h0.973v1.945h-0.973v-1.945zM5.077 31.444c0.072 0.038 0.149 0.056 0.226 0.056 0.175 0 0.344-0.095 0.43-0.261l4.174-7.949c1.872 0.94 3.948 1.449 6.107 1.449 2.153 0 4.225-0.507 6.093-1.442l4.161 7.942c0.088 0.165 0.257 0.261 0.431 0.261 0.076 0 0.154-0.018 0.226-0.055 0.237-0.125 0.33-0.419 0.205-0.657l-4.17-7.96c0.964-0.574 1.869-1.257 2.682-2.070 0.948-0.948 0.948-2.491 0-3.438-0.919-0.919-2.523-0.917-3.438 0-0.46 0.46-0.967 0.856-1.503 1.196l-2.293-4.377c0.888-0.709 1.47-1.787 1.47-3.008 0-2.13-1.733-3.864-3.864-3.864s-3.861 1.734-3.861 3.865c0 1.221 0.58 2.297 1.466 3.006l-2.298 4.374c-0.533-0.34-1.037-0.734-1.494-1.191-0.919-0.919-2.523-0.917-3.438 0-0.948 0.948-0.948 2.491 0 3.438 0.809 0.809 1.711 1.49 2.67 2.062l-4.184 7.967c-0.125 0.238-0.034 0.532 0.204 0.656zM8.105 17.58c0.39 0 0.757 0.152 1.033 0.427 1.834 1.834 4.275 2.844 6.876 2.844s5.044-1.009 6.878-2.844c0.55-0.551 1.512-0.549 2.063 0 0.569 0.569 0.569 1.494 0 2.063-2.385 2.384-5.561 3.698-8.941 3.698-3.382 0-6.555-1.314-8.939-3.698-0.569-0.569-0.569-1.494 0-2.063 0.274-0.274 0.64-0.427 1.030-0.427zM13.124 11.131c0-1.594 1.296-2.891 2.89-2.891s2.891 1.297 2.891 2.891-1.297 2.891-2.891 2.891-2.89-1.298-2.89-2.891zM14.443 14.653c0.48 0.215 1.010 0.341 1.571 0.341 0.558 0 1.086-0.124 1.566-0.338l2.271 4.335c-1.181 0.576-2.483 0.889-3.837 0.889-1.358 0-2.663-0.314-3.845-0.893l2.275-4.334z"></path>
</svg>
