<?xml version="1.0" encoding="utf-8"?>
<!-- Generated by IcoMoon.io -->
<!DOCTYPE svg PUBLIC "-//W3C//DTD SVG 1.1//EN" "http://www.w3.org/Graphics/SVG/1.1/DTD/svg11.dtd">
<svg version="1.1" xmlns="http://www.w3.org/2000/svg" xmlns:xlink="http://www.w3.org/1999/xlink" width="32" height="32" viewBox="0 0 32 32">
<path d="M3.891 31.5h24.219c0.842 0 1.453-0.611 1.453-1.453v-27.125c0-0.842-0.611-1.453-1.453-1.453h-3.875c-0.267 0-0.484 0.217-0.484 0.484s0.217 0.484 0.484 0.484h3.875c0.303 0 0.484 0.181 0.484 0.484v27.125c0 0.303-0.181 0.484-0.484 0.484h-24.219c-0.303 0-0.484-0.181-0.484-0.484v-27.125c0-0.303 0.181-0.484 0.484-0.484h3.875c0.267 0 0.484-0.217 0.484-0.484s-0.217-0.484-0.484-0.484h-3.875c-0.842 0-1.453 0.611-1.453 1.453v27.125c0 0.842 0.611 1.453 1.453 1.453zM7.766 5.344c0.267 0 0.484-0.217 0.484-0.484s-0.217-0.484-0.484-0.484h-1.938c-0.267 0-0.484 0.217-0.484 0.484v23.25c0 0.267 0.217 0.484 0.484 0.484h20.344c0.267 0 0.484-0.217 0.484-0.484v-23.25c0-0.267-0.217-0.484-0.484-0.484h-1.938c-0.267 0-0.484 0.217-0.484 0.484s0.217 0.484 0.484 0.484h1.453v22.281h-19.375v-22.281h1.453zM11.156 7.281h9.688c1.177 0 1.938-0.76 1.938-1.938v-4.359c0-0.267-0.217-0.484-0.484-0.484h-12.594c-0.267 0-0.484 0.217-0.484 0.484v4.359c0 1.177 0.76 1.938 1.938 1.938zM10.188 1.469h11.625v3.875c0 0.643-0.326 0.969-0.969 0.969h-9.688c-0.642 0-0.969-0.325-0.969-0.969v-3.875zM10.672 16h10.656c0.267 0 0.484-0.217 0.484-0.484s-0.217-0.484-0.484-0.484h-10.656c-0.267 0-0.484 0.217-0.484 0.484s0.217 0.484 0.484 0.484zM10.672 12.125h10.656c0.267 0 0.484-0.217 0.484-0.484s-0.217-0.484-0.484-0.484h-10.656c-0.267 0-0.484 0.217-0.484 0.484s0.217 0.484 0.484 0.484zM10.672 19.875h10.656c0.267 0 0.484-0.217 0.484-0.484s-0.217-0.484-0.484-0.484h-10.656c-0.267 0-0.484 0.217-0.484 0.484s0.217 0.484 0.484 0.484zM10.672 23.75h10.656c0.267 0 0.484-0.217 0.484-0.484s-0.217-0.484-0.484-0.484h-10.656c-0.267 0-0.484 0.217-0.484 0.484s0.217 0.484 0.484 0.484z"></path>
</svg>
