<?xml version="1.0" encoding="utf-8"?>
<!-- Generated by IcoMoon.io -->
<!DOCTYPE svg PUBLIC "-//W3C//DTD SVG 1.1//EN" "http://www.w3.org/Graphics/SVG/1.1/DTD/svg11.dtd">
<svg version="1.1" xmlns="http://www.w3.org/2000/svg" xmlns:xlink="http://www.w3.org/1999/xlink" width="32" height="32" viewBox="0 0 32 32">
<path d="M16 31.5c8.546 0 15.5-6.954 15.5-15.5s-6.954-15.5-15.5-15.5-15.5 6.954-15.5 15.5 6.954 15.5 15.5 15.5zM16 1.469c8.013 0 14.531 6.519 14.531 14.531s-6.519 14.531-14.531 14.531-14.531-6.519-14.531-14.531 6.519-14.531 14.531-14.531zM19.934 21.588c0.095 0.095 0.219 0.141 0.343 0.141s0.248-0.047 0.343-0.141c0.189-0.189 0.189-0.496 0-0.685l-4.62-4.619v-6.756c0-0.267-0.217-0.484-0.484-0.484s-0.484 0.217-0.484 0.484v6.957c0 0.129 0.051 0.252 0.141 0.343l4.761 4.76zM3.406 16c0 0.535 0.434 0.969 0.969 0.969s0.969-0.434 0.969-0.969c0-0.535-0.434-0.969-0.969-0.969s-0.969 0.434-0.969 0.969zM26.656 16c0 0.535 0.434 0.969 0.969 0.969s0.969-0.434 0.969-0.969c0-0.535-0.434-0.969-0.969-0.969s-0.969 0.434-0.969 0.969zM15.031 4.375c0 0.535 0.434 0.969 0.969 0.969s0.969-0.434 0.969-0.969c0-0.535-0.434-0.969-0.969-0.969s-0.969 0.434-0.969 0.969zM15.031 27.625c0 0.535 0.434 0.969 0.969 0.969s0.969-0.434 0.969-0.969c0-0.535-0.434-0.969-0.969-0.969s-0.969 0.434-0.969 0.969zM7.281 8.25c0 0.535 0.434 0.969 0.969 0.969s0.969-0.434 0.969-0.969c0-0.535-0.434-0.969-0.969-0.969s-0.969 0.434-0.969 0.969zM22.781 23.75c0 0.535 0.434 0.969 0.969 0.969s0.969-0.434 0.969-0.969c0-0.535-0.434-0.969-0.969-0.969s-0.969 0.434-0.969 0.969zM23.75 8.25c0 0.535 0.434 0.969 0.969 0.969s0.969-0.434 0.969-0.969c0-0.535-0.434-0.969-0.969-0.969s-0.969 0.434-0.969 0.969zM7.281 23.75c0 0.535 0.434 0.969 0.969 0.969s0.969-0.434 0.969-0.969c0-0.535-0.434-0.969-0.969-0.969s-0.969 0.434-0.969 0.969z"></path>
</svg>
