<?xml version="1.0" encoding="utf-8"?>
<!-- Generated by IcoMoon.io -->
<!DOCTYPE svg PUBLIC "-//W3C//DTD SVG 1.1//EN" "http://www.w3.org/Graphics/SVG/1.1/DTD/svg11.dtd">
<svg version="1.1" xmlns="http://www.w3.org/2000/svg" xmlns:xlink="http://www.w3.org/1999/xlink" width="32" height="32" viewBox="0 0 32 32">
<path d="M0.5 16c0 8.546 6.954 15.5 15.5 15.5s15.5-6.954 15.5-15.5-6.954-15.5-15.5-15.5-15.5 6.954-15.5 15.5zM16 1.469c8.013 0 14.531 6.519 14.531 14.531s-6.519 14.531-14.531 14.531-14.531-6.519-14.531-14.531 6.519-14.531 14.531-14.531zM16 28.594c6.944 0 12.594-5.65 12.594-12.594s-5.65-12.594-12.594-12.594-12.594 5.65-12.594 12.594 5.65 12.594 12.594 12.594zM15.031 4.424v1.478c0 0.267 0.217 0.484 0.484 0.484s0.484-0.217 0.484-0.484v-1.528c6.083 0 11.081 4.698 11.576 10.656h-1.479c-0.267 0-0.484 0.217-0.484 0.484s0.217 0.484 0.484 0.484h1.529c0 6.41-5.215 11.625-11.625 11.625v-1.528c0-0.267-0.217-0.484-0.484-0.484s-0.484 0.217-0.484 0.484v1.478c-5.957-0.495-10.656-5.492-10.656-11.576h1.529c0.267 0 0.484-0.217 0.484-0.484s-0.217-0.484-0.484-0.484h-1.479c0.468-5.637 4.97-10.139 10.607-10.607zM9.593 22.821c0.099 0 0.198-0.030 0.283-0.091l5.439-3.91c0.221 0.054 0.449 0.090 0.686 0.090 1.602 0 2.906-1.304 2.906-2.906 0-0.23-0.034-0.45-0.084-0.666l3.978-5.534c0.139-0.193 0.117-0.458-0.050-0.626s-0.432-0.187-0.626-0.051l-5.597 4.023c-0.171-0.032-0.347-0.053-0.527-0.053-1.602 0-2.906 1.304-2.906 2.906 0 0.189 0.021 0.374 0.056 0.553l-3.95 5.497c-0.139 0.193-0.117 0.458 0.050 0.626 0.094 0.093 0.218 0.141 0.343 0.141zM14.063 16.005c0-1.069 0.869-1.938 1.938-1.938s1.938 0.869 1.938 1.938-0.869 1.938-1.938 1.938-1.938-0.87-1.938-1.938zM20.286 11.644l-1.925 2.679c-0.209-0.292-0.467-0.545-0.767-0.743l2.692-1.936zM13.583 17.615c0.193 0.289 0.44 0.536 0.72 0.739l-2.588 1.861 1.869-2.6z"></path>
</svg>
