<?xml version="1.0" encoding="utf-8"?>
<!-- Generated by IcoMoon.io -->
<!DOCTYPE svg PUBLIC "-//W3C//DTD SVG 1.1//EN" "http://www.w3.org/Graphics/SVG/1.1/DTD/svg11.dtd">
<svg version="1.1" xmlns="http://www.w3.org/2000/svg" xmlns:xlink="http://www.w3.org/1999/xlink" width="32" height="32" viewBox="0 0 32 32">
<path d="M1.793 23.103h13.812v1.184c0 0.218 0.177 0.395 0.395 0.395s0.395-0.177 0.395-0.395v-1.184h13.812c0.653 0 1.184-0.531 1.184-1.184v-17.364c0-0.653-0.531-1.184-1.184-1.184h-28.413c-0.653 0-1.184 0.531-1.184 1.184v17.364c0 0.653 0.531 1.184 1.184 1.184zM1.399 4.556c0-0.218 0.177-0.395 0.395-0.395h28.413c0.218 0 0.395 0.177 0.395 0.395v17.364c0 0.218-0.177 0.395-0.395 0.395h-28.413c-0.218 0-0.395-0.177-0.395-0.395v-17.364zM3.372 20.736h25.256c0.218 0 0.395-0.177 0.395-0.395v-14.207c0-0.218-0.177-0.395-0.395-0.395h-25.256c-0.218 0-0.395 0.177-0.395 0.395v14.207c0 0.218 0.177 0.395 0.395 0.395zM3.766 6.529h24.467v13.417h-24.467v-13.417zM11.659 25.471c-0.9 0-1.579 0.679-1.579 1.579v1.184c0 0.218 0.177 0.395 0.395 0.395h11.050c0.218 0 0.395-0.177 0.395-0.395v-1.125c0-0.918-0.693-1.638-1.579-1.638h-8.682zM21.13 27.109v0.73h-10.26v-0.789c0-0.465 0.324-0.789 0.789-0.789h8.682c0.45 0 0.789 0.365 0.789 0.848z"></path>
</svg>
