<?xml version="1.0" encoding="utf-8"?>
<!-- Generated by IcoMoon.io -->
<!DOCTYPE svg PUBLIC "-//W3C//DTD SVG 1.1//EN" "http://www.w3.org/Graphics/SVG/1.1/DTD/svg11.dtd">
<svg version="1.1" xmlns="http://www.w3.org/2000/svg" xmlns:xlink="http://www.w3.org/1999/xlink" width="32" height="32" viewBox="0 0 32 32">
<path d="M15.999 11.156c-2.644 0-4.816 2.151-4.843 4.794-0.027 2.671 2.123 4.865 4.794 4.893 0.001 0 0.048 0 0.050 0 2.644 0 4.816-2.151 4.843-4.794 0.027-2.671-2.123-4.866-4.845-4.893zM16.001 19.875v0.484l-0.041-0.484c-2.136-0.021-3.857-1.778-3.835-3.915 0.021-2.115 1.759-3.835 3.915-3.835 2.136 0.021 3.857 1.778 3.835 3.915-0.021 2.115-1.759 3.835-3.874 3.835zM0.5 16c0 0.535 0.434 0.969 0.969 0.969s0.969-0.434 0.969-0.969c0-0.535-0.434-0.969-0.969-0.969s-0.969 0.434-0.969 0.969zM29.563 16c0 0.535 0.434 0.969 0.969 0.969s0.969-0.434 0.969-0.969c0-0.535-0.434-0.969-0.969-0.969s-0.969 0.434-0.969 0.969zM15.031 1.469c0 0.535 0.434 0.969 0.969 0.969s0.969-0.434 0.969-0.969c0-0.535-0.434-0.969-0.969-0.969s-0.969 0.434-0.969 0.969zM15.031 30.531c0 0.535 0.434 0.969 0.969 0.969s0.969-0.434 0.969-0.969c0-0.535-0.434-0.969-0.969-0.969s-0.969 0.434-0.969 0.969zM4.375 5.344c0 0.535 0.434 0.969 0.969 0.969s0.969-0.434 0.969-0.969c0-0.535-0.434-0.969-0.969-0.969s-0.969 0.434-0.969 0.969zM25.688 26.656c0 0.535 0.434 0.969 0.969 0.969s0.969-0.434 0.969-0.969c0-0.535-0.434-0.969-0.969-0.969s-0.969 0.434-0.969 0.969zM25.688 5.344c0 0.535 0.434 0.969 0.969 0.969s0.969-0.434 0.969-0.969c0-0.535-0.434-0.969-0.969-0.969s-0.969 0.434-0.969 0.969zM4.375 26.656c0 0.535 0.434 0.969 0.969 0.969s0.969-0.434 0.969-0.969c0-0.535-0.434-0.969-0.969-0.969s-0.969 0.434-0.969 0.969zM23.75 16.074v-7.339c0-0.267-0.217-0.484-0.484-0.484h-7.267c-4.23 0-7.705 3.441-7.749 7.672-0.020 2.070 0.765 4.024 2.215 5.503s3.387 2.305 5.457 2.325c0.001 0 0.078 0 0.080 0 0 0 0 0 0 0 4.229 0 7.704-3.441 7.748-7.676zM16.001 22.781v0.484l-0.070-0.484c-1.812-0.018-3.507-0.741-4.775-2.035s-1.956-3.004-1.938-4.816c0.038-3.701 3.079-6.712 6.855-6.712v0h6.708v6.85c-0.038 3.702-3.080 6.713-6.78 6.712z"></path>
</svg>
