<?xml version="1.0" encoding="utf-8"?>
<!-- Generated by IcoMoon.io -->
<!DOCTYPE svg PUBLIC "-//W3C//DTD SVG 1.1//EN" "http://www.w3.org/Graphics/SVG/1.1/DTD/svg11.dtd">
<svg version="1.1" xmlns="http://www.w3.org/2000/svg" xmlns:xlink="http://www.w3.org/1999/xlink" width="32" height="32" viewBox="0 0 32 32">
<path d="M1.907 26.919h16.368c0.753 0 1.365-0.612 1.365-1.365v-17.289c0-0.021-0.009-0.039-0.012-0.059s-0.006-0.037-0.012-0.056c-0.021-0.078-0.055-0.151-0.111-0.207l-6.369-6.369c-0.056-0.056-0.128-0.089-0.207-0.111-0.019-0.005-0.036-0.009-0.056-0.012s-0.037-0.011-0.058-0.011h-10.914c-0.755 0-1.37 0.612-1.37 1.365v22.748c0 0.753 0.617 1.365 1.376 1.365zM13.27 2.994l4.816 4.816h-4.361c-0.25 0-0.455-0.204-0.455-0.455v-4.361zM1.441 2.806c0-0.251 0.207-0.455 0.46-0.455h10.459v5.005c0 0.752 0.612 1.365 1.365 1.365h5.005v16.834c0 0.251-0.205 0.455-0.455 0.455h-16.368c-0.258 0-0.466-0.204-0.466-0.455v-22.748zM4.626 12.36h10.919c0.251 0 0.455-0.204 0.455-0.455s-0.204-0.455-0.455-0.455h-10.919c-0.251 0-0.455 0.204-0.455 0.455s0.204 0.455 0.455 0.455zM4.626 16h10.919c0.251 0 0.455-0.204 0.455-0.455s-0.204-0.455-0.455-0.455h-10.919c-0.251 0-0.455 0.204-0.455 0.455s0.204 0.455 0.455 0.455zM4.626 8.721h4.55c0.251 0 0.455-0.204 0.455-0.455s-0.204-0.455-0.455-0.455h-4.55c-0.251 0-0.455 0.204-0.455 0.455s0.204 0.455 0.455 0.455zM4.626 19.64h10.919c0.251 0 0.455-0.204 0.455-0.455s-0.204-0.455-0.455-0.455h-10.919c-0.251 0-0.455 0.204-0.455 0.455s0.204 0.455 0.455 0.455zM4.626 23.279h10.919c0.251 0 0.455-0.204 0.455-0.455s-0.204-0.455-0.455-0.455h-10.919c-0.251 0-0.455 0.204-0.455 0.455s0.204 0.455 0.455 0.455zM20.095 5.991h4.095v5.005c0 0.752 0.612 1.365 1.365 1.365h5.005v16.834c0 0.251-0.205 0.455-0.455 0.455h-16.368c-0.258 0-0.466-0.204-0.466-0.455v-0.91c0-0.251-0.204-0.455-0.455-0.455s-0.455 0.204-0.455 0.455v0.91c0 0.753 0.617 1.365 1.376 1.365h16.368c0.753 0 1.365-0.612 1.365-1.365v-17.289c0-0.021-0.009-0.039-0.012-0.059s-0.006-0.037-0.012-0.056c-0.021-0.078-0.055-0.151-0.111-0.207l-6.369-6.369c-0.055-0.056-0.129-0.090-0.207-0.111-0.019-0.005-0.035-0.008-0.055-0.011s-0.037-0.012-0.058-0.012h-4.55c-0.251 0-0.455 0.204-0.455 0.455s0.204 0.455 0.455 0.455zM25.554 11.45c-0.25 0-0.455-0.204-0.455-0.455v-4.361l4.816 4.816h-4.361zM21.915 16h5.46c0.251 0 0.455-0.204 0.455-0.455s-0.204-0.455-0.455-0.455h-5.46c-0.251 0-0.455 0.204-0.455 0.455s0.204 0.455 0.455 0.455zM21.915 19.64h5.46c0.251 0 0.455-0.204 0.455-0.455s-0.204-0.455-0.455-0.455h-5.46c-0.251 0-0.455 0.204-0.455 0.455s0.204 0.455 0.455 0.455zM21.915 23.279h5.46c0.251 0 0.455-0.204 0.455-0.455s-0.204-0.455-0.455-0.455h-5.46c-0.251 0-0.455 0.204-0.455 0.455s0.204 0.455 0.455 0.455zM21.915 26.919h5.46c0.251 0 0.455-0.204 0.455-0.455s-0.204-0.455-0.455-0.455h-5.46c-0.251 0-0.455 0.204-0.455 0.455s0.204 0.455 0.455 0.455z"></path>
</svg>
