<?xml version="1.0" encoding="utf-8"?>
<!-- Generated by IcoMoon.io -->
<!DOCTYPE svg PUBLIC "-//W3C//DTD SVG 1.1//EN" "http://www.w3.org/Graphics/SVG/1.1/DTD/svg11.dtd">
<svg version="1.1" xmlns="http://www.w3.org/2000/svg" xmlns:xlink="http://www.w3.org/1999/xlink" width="32" height="32" viewBox="0 0 32 32">
<path d="M25.468 13.795c-0.314-4.83-3.673-9.485-9.833-9.485-0.752 0-1.493 0.073-2.205 0.217-0.198 0.040-0.325 0.232-0.286 0.431s0.229 0.325 0.431 0.286c0.663-0.135 1.357-0.203 2.060-0.203 6.275 0 9.133 4.924 9.133 9.498v1.096c0 0.202 0.164 0.365 0.365 0.365s0.365-0.164 0.365-0.365v-1.096c0-0.004-0.001-0.008-0.001-0.012 2.238 0.193 5.115 2.142 5.115 6.222 0 3.483-2.568 6.211-5.845 6.211h-17.536c-2.905 0-5.845-2.134-5.845-6.211 0-2.991 1.83-6.211 5.845-6.211h1.096c0.202 0 0.365-0.164 0.365-0.365s-0.164-0.365-0.365-0.365h-1.096v-1.461c0-2.723 1.68-4.415 4.384-4.415 2.458 0 4.384 1.939 4.384 4.415v9.493l-3.040-2.82c-0.146-0.137-0.378-0.129-0.516 0.019s-0.129 0.379 0.019 0.516l3.3 3.061c0.218 0.218 0.411 0.325 0.604 0.325 0.191 0 0.38-0.106 0.59-0.316l3.309-3.070c0.148-0.137 0.157-0.368 0.019-0.516-0.137-0.149-0.37-0.157-0.516-0.019l-3.040 2.821v-9.493c0-2.885-2.247-5.145-5.115-5.145-3.107 0-5.115 2.020-5.115 5.145v1.499c-3.84 0.371-5.845 3.655-5.845 6.904 0 3.365 2.304 6.941 6.576 6.941h17.536c3.688 0 6.576-3.049 6.576-6.941 0-4.606-3.33-6.779-5.876-6.954z"></path>
</svg>
