<?xml version="1.0" encoding="utf-8"?>
<!-- Generated by IcoMoon.io -->
<!DOCTYPE svg PUBLIC "-//W3C//DTD SVG 1.1//EN" "http://www.w3.org/Graphics/SVG/1.1/DTD/svg11.dtd">
<svg version="1.1" xmlns="http://www.w3.org/2000/svg" xmlns:xlink="http://www.w3.org/1999/xlink" width="32" height="32" viewBox="0 0 32 32">
<path d="M16 0.5c-8.548 0-15.5 6.952-15.5 15.5s6.952 15.5 15.5 15.5 15.5-6.952 15.5-15.5-6.952-15.5-15.5-15.5zM16 30.468c-7.977 0-14.468-6.49-14.468-14.468s6.49-14.468 14.468-14.468 14.468 6.49 14.468 14.468-6.49 14.468-14.468 14.468zM21.656 10.688c-1.487-1.583-3.495-2.454-5.656-2.454-1.015 0-2.006 0.195-2.945 0.582-2.666 1.092-4.498 3.55-4.782 6.41-0.024 0.255-0.039 0.512-0.039 0.774 0 2.347 1.046 4.543 2.872 6.027 1.379 1.121 3.119 1.739 4.894 1.739 1.12 0 2.21-0.24 3.24-0.713 2.104-0.969 3.654-2.804 4.254-5.037 0 0 0-0.001 0-0.001 0.18-0.677 0.272-1.354 0.272-2.015 0-1.978-0.749-3.864-2.11-5.312zM22.608 17.262c-0.171-0.037-0.337-0.053-0.508-0.083-0.225-0.040-0.45-0.081-0.673-0.11-0.264-0.034-0.522-0.051-0.781-0.069-0.209-0.014-0.418-0.032-0.623-0.035-0.064-0.001-0.131-0.011-0.195-0.011-0.34 0-0.678 0.016-1.013 0.045-0.044 0.004-0.086 0.013-0.13 0.016-0.271 0.027-0.54 0.058-0.805 0.104-0.044-0.113-0.093-0.219-0.137-0.332-0.18-0.455-0.365-0.904-0.557-1.346-0.047-0.108-0.089-0.222-0.136-0.33 0.102-0.041 0.192-0.086 0.291-0.129 0.101-0.043 0.201-0.086 0.298-0.131 0.215-0.101 0.419-0.205 0.616-0.313 0.063-0.035 0.13-0.067 0.19-0.101 0.251-0.145 0.488-0.297 0.712-0.452 0.053-0.038 0.102-0.076 0.153-0.114 0.168-0.123 0.33-0.247 0.481-0.372 0.066-0.055 0.128-0.109 0.19-0.164 0.132-0.116 0.258-0.232 0.377-0.348 0.054-0.052 0.108-0.104 0.16-0.158 0.135-0.138 0.261-0.277 0.38-0.414 0.023-0.027 0.050-0.054 0.073-0.081 0.127-0.151 0.246-0.3 0.354-0.446 0.913 1.176 1.409 2.613 1.409 4.11 0 0.413-0.043 0.835-0.126 1.262zM16 9.266c1.736 0 3.358 0.65 4.613 1.839-0.014 0.020-0.025 0.039-0.040 0.058-0.037 0.051-0.077 0.103-0.116 0.155-0.071 0.094-0.145 0.188-0.224 0.285-0.047 0.057-0.097 0.115-0.147 0.172-0.083 0.095-0.171 0.19-0.263 0.286-0.055 0.058-0.111 0.116-0.17 0.174-0.103 0.101-0.216 0.203-0.33 0.304-0.057 0.050-0.11 0.101-0.17 0.151-0.178 0.149-0.365 0.296-0.568 0.438-0.013 0.009-0.028 0.017-0.042 0.027-0.19 0.132-0.393 0.261-0.607 0.385-0.078 0.045-0.164 0.088-0.247 0.132-0.157 0.085-0.317 0.168-0.485 0.247-0.103 0.048-0.213 0.095-0.321 0.14-0.087 0.037-0.181 0.071-0.271 0.106-0.024-0.051-0.049-0.096-0.073-0.147-0.202-0.421-0.404-0.828-0.604-1.211-0.015-0.030-0.031-0.057-0.046-0.087-0.191-0.365-0.379-0.709-0.565-1.038-0.043-0.075-0.084-0.151-0.127-0.224-0.187-0.327-0.367-0.635-0.541-0.923-0.040-0.066-0.076-0.125-0.115-0.188-0.157-0.255-0.307-0.495-0.45-0.715-0.014-0.022-0.032-0.051-0.046-0.073 0.633-0.192 1.289-0.291 1.955-0.291zM13.062 9.943c0.006 0.009 0.012 0.017 0.017 0.026 0.153 0.233 0.319 0.495 0.492 0.773 0.037 0.059 0.074 0.12 0.111 0.181 0.179 0.291 0.363 0.6 0.556 0.937 0.021 0.037 0.043 0.076 0.064 0.113 0.181 0.317 0.366 0.656 0.555 1.010 0.036 0.068 0.072 0.133 0.108 0.203 0.2 0.381 0.402 0.784 0.605 1.204 0.014 0.030 0.029 0.061 0.043 0.091-0.321 0.090-0.636 0.188-0.978 0.252-0.052 0.010-0.106 0.016-0.159 0.026-1.038 0.184-2.171 0.249-3.383 0.203-0.094-0.004-0.185-0.004-0.28-0.009-0.466-0.024-0.953-0.080-1.442-0.138 0.377-2.122 1.745-3.931 3.691-4.873zM9.266 16c0-0.046 0.001-0.094 0.002-0.14 0.137 0.016 0.265 0.017 0.401 0.031 0.379 0.039 0.751 0.069 1.117 0.088 0.217 0.012 0.433 0.020 0.646 0.024 0.13 0.003 0.27 0.015 0.398 0.015 0 0 0 0 0.001 0 0.277 0 0.544-0.016 0.813-0.029 0.113-0.005 0.229-0.005 0.34-0.012 0.5-0.033 0.985-0.088 1.455-0.163 0.122-0.019 0.237-0.046 0.356-0.069 0.361-0.068 0.711-0.148 1.050-0.242 0.071-0.019 0.148-0.029 0.217-0.050 0.049 0.109 0.097 0.22 0.145 0.332 0.181 0.414 0.357 0.834 0.526 1.261 0.041 0.102 0.081 0.206 0.122 0.309-0.104 0.030-0.201 0.068-0.304 0.101-0.133 0.042-0.266 0.084-0.394 0.131-0.212 0.075-0.415 0.159-0.616 0.245-0.109 0.047-0.221 0.091-0.328 0.141-0.241 0.113-0.472 0.235-0.696 0.362-0.054 0.030-0.112 0.058-0.165 0.089-0.276 0.16-0.537 0.331-0.786 0.506-0.070 0.048-0.132 0.1-0.2 0.149-0.176 0.13-0.349 0.259-0.511 0.392-0.082 0.068-0.159 0.135-0.238 0.203-0.138 0.119-0.272 0.238-0.4 0.358-0.077 0.073-0.153 0.145-0.226 0.218-0.117 0.116-0.229 0.23-0.336 0.345-0.069 0.073-0.138 0.146-0.203 0.218-0.024 0.027-0.052 0.055-0.076 0.081-1.345-1.271-2.108-3.028-2.108-4.893zM12.184 21.546c0.017-0.019 0.031-0.037 0.048-0.056 0.058-0.065 0.122-0.13 0.183-0.195 0.099-0.105 0.201-0.211 0.308-0.316 0.069-0.068 0.14-0.135 0.213-0.203 0.112-0.105 0.23-0.211 0.351-0.315 0.077-0.067 0.155-0.133 0.235-0.199 0.133-0.109 0.275-0.216 0.417-0.321 0.078-0.058 0.154-0.117 0.234-0.173 0.193-0.135 0.396-0.265 0.605-0.391 0.039-0.023 0.073-0.048 0.113-0.072 0.249-0.145 0.511-0.281 0.784-0.409 0.083-0.039 0.172-0.072 0.257-0.108 0.196-0.085 0.395-0.167 0.603-0.241 0.11-0.039 0.224-0.073 0.338-0.108 0.112-0.035 0.23-0.065 0.346-0.097 0.218 0.606 0.43 1.216 0.621 1.841 0.009 0.028 0.018 0.054 0.027 0.082 0.2 0.663 0.374 1.339 0.541 2.017-2.067 0.799-4.429 0.507-6.225-0.737zM19.37 21.822c-0.153-0.607-0.321-1.209-0.5-1.805-0.007-0.023-0.013-0.047-0.019-0.071-0.187-0.616-0.386-1.223-0.597-1.82 0.14-0.022 0.279-0.048 0.421-0.065 0.118-0.014 0.236-0.029 0.355-0.038 0.345-0.026 0.694-0.037 1.050-0.029 0.040 0.001 0.078-0.003 0.118-0.001 0.399 0.014 0.804 0.052 1.215 0.108 0.111 0.015 0.224 0.039 0.336 0.057 0.191 0.032 0.386 0.074 0.579 0.115-0.536 1.498-1.58 2.751-2.958 3.548z"></path>
</svg>
