<?xml version="1.0" encoding="utf-8"?>
<!-- Generated by IcoMoon.io -->
<!DOCTYPE svg PUBLIC "-//W3C//DTD SVG 1.1//EN" "http://www.w3.org/Graphics/SVG/1.1/DTD/svg11.dtd">
<svg version="1.1" xmlns="http://www.w3.org/2000/svg" xmlns:xlink="http://www.w3.org/1999/xlink" width="32" height="32" viewBox="0 0 32 32">
<path d="M1.953 31.5h28.094c0.801 0 1.453-0.652 1.453-1.453v-28.094c0-0.801-0.652-1.453-1.453-1.453h-28.094c-0.801 0-1.453 0.652-1.453 1.453v28.094c0 0.801 0.652 1.453 1.453 1.453zM1.469 1.953c0-0.267 0.218-0.484 0.484-0.484h28.094c0.266 0 0.484 0.217 0.484 0.484v28.094c0 0.267-0.218 0.484-0.484 0.484h-28.094c-0.266 0-0.484-0.217-0.484-0.484v-28.094zM4.375 28.089c0.046 0 0.093-0.007 0.139-0.020l9.688-2.886c0.078-0.023 0.149-0.066 0.206-0.123l9.775-9.886c0.022-0.023 0.034-0.051 0.050-0.078l3.544-3.544c0.588-0.588 0.588-1.545 0-2.134l-5.072-5.070c-0.588-0.588-1.545-0.589-2.133 0l-3.622 3.622c-0.023 0.023-0.035 0.052-0.052 0.078l-9.802 9.803c-0.054 0.054-0.095 0.12-0.118 0.193l-3.061 9.411c-0.056 0.171-0.012 0.359 0.113 0.488 0.092 0.094 0.218 0.145 0.347 0.145zM17.317 8.997l1.008 1.008-8.257 8.295-1.673-0.38 8.922-8.923zM10.672 19.066l8.338-8.376 2.358 2.358-8.472 8.28h-2.224v-2.262zM23.154 14.835l-8.957 9.060-0.558-1.937 8.413-8.224 1.102 1.101zM7.759 18.77l1.944 0.442v2.601c0 0.267 0.217 0.484 0.484 0.484h2.542l0.613 2.131-8.222 2.449 2.638-8.107zM21.255 5.033c0.211-0.21 0.554-0.209 0.763 0l5.071 5.071c0.211 0.21 0.211 0.553 0 0.764l-3.267 3.267-5.835-5.835 3.267-3.268z"></path>
</svg>
