<?xml version="1.0" encoding="utf-8"?>
<!-- Generated by IcoMoon.io -->
<!DOCTYPE svg PUBLIC "-//W3C//DTD SVG 1.1//EN" "http://www.w3.org/Graphics/SVG/1.1/DTD/svg11.dtd">
<svg version="1.1" xmlns="http://www.w3.org/2000/svg" xmlns:xlink="http://www.w3.org/1999/xlink" width="32" height="32" viewBox="0 0 32 32">
<path d="M16.86 3.4c-0.471-0.433-1.249-0.433-1.72 0l-14.353 8.659c-0.122 0.074-0.196 0.205-0.196 0.347v15.354c0 0.7 0.573 1.271 1.277 1.271h28.263c0.704 0 1.277-0.57 1.277-1.271v-15.354c0-0.142-0.075-0.273-0.196-0.347l-14.352-8.659zM15.598 4.072c0.028-0.017 0.054-0.037 0.077-0.060 0.088-0.087 0.203-0.135 0.325-0.135s0.238 0.048 0.325 0.135c0.024 0.023 0.049 0.043 0.077 0.060l13.979 8.434-10.125 6.034c-0.192 0.115-0.256 0.364-0.141 0.557 0.076 0.127 0.211 0.198 0.349 0.198 0.071 0 0.142-0.018 0.207-0.057l9.936-5.916v14.409l-13.742-9.142c-0.437-0.348-1.293-0.348-1.701-0.020l-13.77 9.158v-14.405l9.936 5.916c0.065 0.039 0.137 0.057 0.208 0.057 0.138 0 0.273-0.071 0.349-0.198 0.114-0.192 0.051-0.441-0.141-0.557l-10.126-6.034 13.979-8.434zM29.868 28.221h-27.742l13.516-8.996c0.14-0.112 0.578-0.111 0.746 0.020l13.481 8.976zM5.857 13.614h20.286c0.224 0 0.406-0.182 0.406-0.406s-0.182-0.406-0.406-0.406h-20.286c-0.224 0-0.406 0.182-0.406 0.406s0.182 0.406 0.406 0.406z"></path>
</svg>
