<?xml version="1.0" encoding="utf-8"?>
<!-- Generated by IcoMoon.io -->
<!DOCTYPE svg PUBLIC "-//W3C//DTD SVG 1.1//EN" "http://www.w3.org/Graphics/SVG/1.1/DTD/svg11.dtd">
<svg version="1.1" xmlns="http://www.w3.org/2000/svg" xmlns:xlink="http://www.w3.org/1999/xlink" width="32" height="32" viewBox="0 0 32 32">
<path d="M31.5 30.047v-28.094c0-0.801-0.652-1.453-1.453-1.453h-28.094c-0.801 0-1.453 0.652-1.453 1.453v8.719c0 0.267 0.217 0.484 0.484 0.484s0.484-0.217 0.484-0.484v-8.719c0-0.267 0.218-0.484 0.484-0.484h28.094c0.266 0 0.484 0.217 0.484 0.484v28.094c0 0.267-0.218 0.484-0.484 0.484h-8.719c-0.267 0-0.484 0.217-0.484 0.484s0.217 0.484 0.484 0.484h8.719c0.801 0 1.453-0.652 1.453-1.453zM1.953 13.094c-0.801 0-1.453 0.652-1.453 1.453v15.5c0 0.801 0.652 1.453 1.453 1.453h15.5c0.801 0 1.453-0.652 1.453-1.453v-16.268l6.781-6.781v6.581c0 0.267 0.217 0.484 0.484 0.484s0.484-0.217 0.484-0.484v-7.75c0-0.267-0.217-0.484-0.484-0.484h-7.75c-0.267 0-0.484 0.217-0.484 0.484s0.217 0.484 0.484 0.484h6.58l-6.781 6.781h-16.267zM17.938 30.047c0 0.267-0.218 0.484-0.484 0.484h-15.5c-0.266 0-0.484-0.217-0.484-0.484v-15.5c0-0.267 0.218-0.484 0.484-0.484h15.984v15.984z"></path>
</svg>
