<?xml version="1.0" encoding="utf-8"?>
<!-- Generated by IcoMoon.io -->
<!DOCTYPE svg PUBLIC "-//W3C//DTD SVG 1.1//EN" "http://www.w3.org/Graphics/SVG/1.1/DTD/svg11.dtd">
<svg version="1.1" xmlns="http://www.w3.org/2000/svg" xmlns:xlink="http://www.w3.org/1999/xlink" width="32" height="32" viewBox="0 0 32 32">
<path d="M16 0.501c-8.546 0-15.5 6.952-15.5 15.499s6.954 15.499 15.5 15.499 15.5-6.952 15.5-15.499-6.954-15.499-15.5-15.499zM16 30.467c-7.977 0-14.466-6.49-14.466-14.467s6.489-14.467 14.466-14.467 14.466 6.49 14.466 14.467-6.489 14.467-14.466 14.467zM19.383 7.3h-2.579c-3.285-0.033-3.704 2-3.704 4.2v1.6h-1.45c-0.285-0.033-0.517 0.198-0.483 0.483v2.9c-0.034 0.285 0.198 0.516 0.483 0.483h1.45v7.25c-0.030 0.285 0.201 0.516 0.486 0.483h2.953c0.285 0.033 0.516-0.198 0.425-0.483l0.002-7.25h2.417c0.285 0.033 0.517-0.198 0.483-0.483v-2.9c0.034-0.285-0.198-0.516-0.483-0.483h-2.419l0.003-1.45c0.094-0.618 0.094-0.517 0.667-0.483h1.729c0.134-0.030 0.277-0.014 0.378-0.111s0.159-0.231 0.125-0.372v-2.9c0.035-0.285-0.197-0.516-0.482-0.483zM18.866 10.146l-1.212-0.046c-1.501 0-1.627 0.815-1.627 1.649l-0.004 1.833c0 0.137 0.054 0.269 0.151 0.366s0.228 0.151 0.365 0.151h2.36v1.868h-2.359c-0.285 0-0.516 0.231-0.517 0.516l-0.001 7.251h-1.956v-7.25c0-0.285-0.194-0.516-0.48-0.516h-1.453v-1.868h1.453c0.137 0 0.269-0.054 0.365-0.151s0.114-0.229 0.114-0.366v-2.083c0-2.167 0.438-3.2 2.737-3.2h2.062v1.846z"></path>
</svg>
