<?xml version="1.0" encoding="utf-8"?>
<!-- Generated by IcoMoon.io -->
<!DOCTYPE svg PUBLIC "-//W3C//DTD SVG 1.1//EN" "http://www.w3.org/Graphics/SVG/1.1/DTD/svg11.dtd">
<svg version="1.1" xmlns="http://www.w3.org/2000/svg" xmlns:xlink="http://www.w3.org/1999/xlink" width="32" height="32" viewBox="0 0 32 32">
<path d="M15.737 1.469h-10.656c-0.267 0-0.484 0.217-0.484 0.484v14.531c0 0.267 0.217 0.484 0.484 0.484h10.658c0.243 0 1.451 0.072 1.451 1.453 0 0.267 0.217 0.484 0.484 0.484s0.484-0.217 0.484-0.484v-14.547c-0.026-0.832-0.566-2.406-2.422-2.406zM17.191 16.442c-0.485-0.326-1.054-0.442-1.453-0.442h-10.172v-13.563h10.172c1.352 0 1.447 1.32 1.453 1.453v12.551zM28.166 20.844h-13.409c0.006 0.001-0.681 0.009-1.104-0.406-0.243-0.239-0.367-0.591-0.367-1.047 0-0.267-0.217-0.484-0.484-0.484s-0.484 0.217-0.484 0.484c0 0.73 0.224 1.317 0.666 1.747 0.666 0.644 1.597 0.675 1.762 0.675 0.015 0 13.421 0 13.421 0 0.377 0 0.697-0.152 0.902-0.429 0.272-0.367 0.266-0.836 0.179-1.126-0.545-1.795-3.43-5.699-4.242-6.777 0.782-1.202 3.696-5.754 4.242-7.549 0.088-0.29 0.094-0.758-0.179-1.126-0.205-0.278-0.525-0.43-0.902-0.43h-8.512c-0.267 0-0.484 0.217-0.484 0.484s0.217 0.484 0.484 0.484h8.512c0.096 0 0.115 0.027 0.123 0.038 0.046 0.060 0.053 0.191 0.030 0.266-0.577 1.9-4.274 7.529-4.312 7.586-0.113 0.172-0.105 0.397 0.020 0.561 0.037 0.048 3.719 4.861 4.292 6.743 0.022 0.077 0.015 0.206-0.030 0.267-0.008 0.011-0.027 0.038-0.123 0.038zM3.628 31.016v-30.031c0-0.267-0.217-0.484-0.484-0.484s-0.484 0.217-0.484 0.484v30.031c0 0.267 0.217 0.484 0.484 0.484s0.484-0.217 0.484-0.484z"></path>
</svg>
