<?xml version="1.0" encoding="utf-8"?>
<!-- Generated by IcoMoon.io -->
<!DOCTYPE svg PUBLIC "-//W3C//DTD SVG 1.1//EN" "http://www.w3.org/Graphics/SVG/1.1/DTD/svg11.dtd">
<svg version="1.1" xmlns="http://www.w3.org/2000/svg" xmlns:xlink="http://www.w3.org/1999/xlink" width="32" height="32" viewBox="0 0 32 32">
<path d="M6.867 4.31h-5.115c-0.604 0-1.096 0.492-1.096 1.096v4.384c0 0.202 0.164 0.365 0.365 0.365s0.365-0.164 0.365-0.365v-4.384c0-0.202 0.164-0.365 0.365-0.365h5.115c0.202 0 0.365-0.164 0.365-0.365s-0.164-0.365-0.365-0.365zM30.248 4.31h-5.115c-0.202 0-0.365 0.164-0.365 0.365s0.164 0.365 0.365 0.365h5.115c0.201 0 0.365 0.164 0.365 0.365v4.384c0 0.202 0.164 0.365 0.365 0.365s0.365-0.164 0.365-0.365v-4.384c0-0.604-0.492-1.096-1.096-1.096zM30.978 21.845c-0.202 0-0.365 0.164-0.365 0.365v4.384c0 0.202-0.164 0.365-0.365 0.365h-5.115c-0.202 0-0.365 0.164-0.365 0.365s0.164 0.365 0.365 0.365h5.115c0.604 0 1.096-0.492 1.096-1.096v-4.384c0-0.202-0.164-0.365-0.365-0.365zM1.022 21.845c-0.202 0-0.365 0.164-0.365 0.365v4.384c0 0.604 0.492 1.096 1.096 1.096h5.115c0.202 0 0.365-0.164 0.365-0.365s-0.164-0.365-0.365-0.365h-5.115c-0.201 0-0.365-0.164-0.365-0.365v-4.384c0-0.202-0.164-0.365-0.365-0.365zM17.827 18.192c0.202 0 0.365-0.164 0.365-0.365v-3.653c0-0.202-0.164-0.365-0.365-0.365h-3.653c-0.202 0-0.365 0.164-0.365 0.365v3.653c0 0.202 0.164 0.365 0.365 0.365h3.653zM14.539 14.539h2.923v2.923h-2.923v-2.923z"></path>
</svg>
