<?xml version="1.0" encoding="utf-8"?>
<!-- Generated by IcoMoon.io -->
<!DOCTYPE svg PUBLIC "-//W3C//DTD SVG 1.1//EN" "http://www.w3.org/Graphics/SVG/1.1/DTD/svg11.dtd">
<svg version="1.1" xmlns="http://www.w3.org/2000/svg" xmlns:xlink="http://www.w3.org/1999/xlink" width="32" height="32" viewBox="0 0 32 32">
<path d="M3.35 20.174c0.128 0.031 0.303 0.189 0.353 0.333l0.255 0.616c0.058 0.118 0.047 0.352-0.022 0.465l-1.019 1.666c-0.218 0.357-0.173 0.864 0.12 1.192l0.863 0.862c0.301 0.267 0.831 0.315 1.177 0.106l1.666-1.019c0.104-0.064 0.328-0.087 0.485-0.013l0.615 0.254c0.124 0.043 0.282 0.217 0.313 0.345l0.457 1.9c0.097 0.403 0.481 0.734 0.894 0.772 0 0 0.253 0.023 0.632 0.023s0.632-0.023 0.633-0.023c0.412-0.037 0.797-0.369 0.894-0.772l0.458-1.9c0.031-0.128 0.188-0.302 0.333-0.352l0.616-0.255c0.109-0.053 0.36-0.042 0.465 0.022l1.666 1.019c0.147 0.090 0.322 0.137 0.508 0.137 0.252 0 0.495-0.088 0.684-0.257l0.862-0.863c0.279-0.313 0.324-0.819 0.106-1.177l-1.019-1.666c-0.069-0.112-0.079-0.346-0.013-0.485l0.254-0.615c0.043-0.124 0.217-0.282 0.345-0.313l1.9-0.457c0.403-0.097 0.734-0.481 0.772-0.894 0 0 0.023-0.253 0.023-0.632s-0.023-0.632-0.023-0.633c-0.037-0.412-0.369-0.797-0.772-0.894l-1.899-0.457c-0.128-0.031-0.303-0.189-0.353-0.333l-0.255-0.616c-0.058-0.118-0.047-0.352 0.022-0.465l1.019-1.666c0.218-0.357 0.173-0.864-0.12-1.192l-0.863-0.862c-0.301-0.268-0.832-0.316-1.177-0.106l-1.666 1.019c-0.104 0.063-0.329 0.088-0.485 0.013l-0.615-0.254c-0.124-0.043-0.282-0.217-0.312-0.345l-0.458-1.9c-0.097-0.403-0.481-0.734-0.894-0.772-0.001 0.001-0.255-0.023-0.634-0.023s-0.632 0.023-0.633 0.023c-0.412 0.037-0.797 0.369-0.894 0.772l-0.457 1.898c-0.031 0.128-0.189 0.303-0.333 0.353l-0.616 0.255c-0.109 0.053-0.36 0.042-0.465-0.022l-1.665-1.019c-0.345-0.21-0.864-0.174-1.192 0.12l-0.862 0.863c-0.279 0.313-0.324 0.819-0.106 1.177l1.019 1.666c0.069 0.112 0.080 0.347 0.013 0.485l-0.254 0.615c-0.043 0.124-0.217 0.282-0.345 0.313l-1.9 0.457c-0.403 0.097-0.734 0.481-0.772 0.894 0.001 0-0.022 0.253-0.022 0.632s0.023 0.632 0.023 0.633c0.037 0.412 0.369 0.797 0.772 0.894l1.898 0.457zM1.387 18.19c0-0.334 0.020-0.559 0.020-0.567 0.009-0.098 0.12-0.228 0.216-0.251l1.9-0.457c0.368-0.089 0.74-0.426 0.855-0.764l0.236-0.574c0.166-0.341 0.143-0.841-0.055-1.165l-1.019-1.665c-0.049-0.081-0.035-0.241 0.013-0.296l0.832-0.833c0.066-0.059 0.236-0.074 0.311-0.028l1.666 1.019c0.316 0.193 0.857 0.206 1.144 0.064l0.575-0.238c0.358-0.123 0.695-0.495 0.784-0.864l0.457-1.899c0.023-0.096 0.152-0.208 0.251-0.217 0.007 0 0.233-0.020 0.567-0.020s0.559 0.020 0.567 0.020c0.098 0.009 0.228 0.12 0.251 0.216l0.457 1.899c0.089 0.368 0.425 0.74 0.764 0.856l0.574 0.236c0.333 0.163 0.85 0.138 1.165-0.055l1.665-1.019c0.076-0.046 0.255-0.022 0.296 0.013l0.833 0.832c0.063 0.071 0.077 0.23 0.028 0.311l-1.019 1.666c-0.198 0.323-0.221 0.824-0.064 1.144l0.238 0.575c0.123 0.358 0.495 0.695 0.864 0.784l1.899 0.457c0.096 0.023 0.208 0.152 0.217 0.251 0 0.007 0.020 0.233 0.020 0.567s-0.020 0.559-0.020 0.567c-0.009 0.098-0.12 0.228-0.216 0.251l-1.9 0.457c-0.368 0.089-0.74 0.426-0.855 0.764l-0.236 0.574c-0.166 0.341-0.143 0.841 0.055 1.165l1.019 1.665c0.049 0.081 0.035 0.241-0.013 0.296l-0.832 0.833c-0.039 0.035-0.111 0.058-0.183 0.058-0.050 0-0.097-0.011-0.128-0.030l-1.666-1.019c-0.315-0.193-0.856-0.206-1.144-0.064l-0.575 0.238c-0.358 0.123-0.695 0.495-0.783 0.864l-0.457 1.899c-0.023 0.096-0.152 0.208-0.251 0.217-0.008 0-0.233 0.020-0.568 0.020s-0.559-0.020-0.567-0.020c-0.098-0.009-0.228-0.12-0.251-0.216l-0.457-1.9c-0.089-0.368-0.426-0.74-0.764-0.855l-0.574-0.236c-0.149-0.073-0.329-0.111-0.522-0.111-0.24 0-0.468 0.059-0.643 0.166l-1.665 1.019c-0.076 0.046-0.256 0.021-0.296-0.013l-0.833-0.833c-0.063-0.071-0.077-0.23-0.028-0.311l1.019-1.666c0.198-0.323 0.221-0.824 0.064-1.144l-0.238-0.575c-0.123-0.358-0.495-0.695-0.864-0.784l-1.899-0.457c-0.096-0.023-0.208-0.152-0.217-0.251 0-0.007-0.020-0.233-0.020-0.567zM10.14 22.202c2.212 0 4.012-1.8 4.012-4.012s-1.8-4.012-4.012-4.012-4.012 1.8-4.012 4.012 1.8 4.012 4.012 4.012zM10.14 14.908c1.81 0 3.283 1.473 3.283 3.283s-1.473 3.283-3.283 3.283-3.283-1.473-3.283-3.283 1.473-3.283 3.283-3.283zM20.701 8.207c-0.029 0.044-0.135 0.101-0.189 0.101l-1.358-0.013c-0.33 0-0.66 0.234-0.768 0.544 0 0-0.060 0.17-0.125 0.43s-0.093 0.438-0.093 0.438c-0.051 0.329 0.132 0.693 0.426 0.847l1.197 0.627c0.046 0.024 0.114 0.125 0.121 0.199l0.068 0.463c0.011 0.051-0.024 0.168-0.061 0.204l-0.964 0.945c-0.241 0.236-0.305 0.64-0.139 0.958l0.437 0.729c0.185 0.271 0.584 0.41 0.898 0.312l1.331-0.407c0.072 0 0.144 0.028 0.185 0.061l0.376 0.277c0.044 0.029 0.101 0.136 0.101 0.189l-0.013 1.351c-0.003 0.333 0.23 0.666 0.544 0.775 0 0 0.17 0.060 0.43 0.125s0.438 0.093 0.438 0.093c0.019 0.003 0.095 0.009 0.114 0.009 0.298 0 0.6-0.179 0.733-0.435l0.627-1.197c0.024-0.046 0.125-0.114 0.199-0.121l0.484-0.070c0.073 0 0.159 0.038 0.183 0.063l0.945 0.964c0.23 0.235 0.617 0.319 0.958 0.139l0.729-0.437c0.279-0.19 0.414-0.576 0.313-0.898l-0.403-1.289c-0.015-0.050 0.009-0.169 0.057-0.227l0.277-0.376c0.029-0.044 0.135-0.101 0.189-0.101l1.358 0.013c0.33 0 0.66-0.234 0.768-0.544 0 0 0.060-0.17 0.125-0.43s0.093-0.438 0.093-0.438c0.051-0.329-0.132-0.693-0.426-0.847l-1.197-0.627c-0.046-0.024-0.114-0.125-0.121-0.199l-0.067-0.462c-0.011-0.051 0.024-0.168 0.061-0.204l0.964-0.945c0.241-0.236 0.305-0.64 0.139-0.958l-0.437-0.729c-0.185-0.271-0.584-0.411-0.898-0.313l-1.331 0.407c-0.072 0-0.144-0.028-0.185-0.061l-0.376-0.277c-0.044-0.029-0.101-0.136-0.101-0.189l0.013-1.351c0.003-0.333-0.23-0.666-0.544-0.775 0 0-0.17-0.060-0.43-0.125s-0.438-0.093-0.438-0.093c-0.019-0.002-0.095-0.008-0.114-0.008-0.298 0-0.6 0.179-0.733 0.435l-0.627 1.197c-0.024 0.046-0.125 0.114-0.199 0.121l-0.484 0.069c-0.073 0-0.159-0.038-0.183-0.063l-0.945-0.964c-0.229-0.234-0.616-0.319-0.958-0.139l-0.729 0.436c-0.279 0.19-0.414 0.576-0.313 0.898l0.403 1.289c0.015 0.050-0.009 0.169-0.057 0.227l-0.276 0.376zM21.299 8.624l0.25-0.34c0.195-0.231 0.271-0.608 0.181-0.896l-0.402-1.288c-0.004-0.020 0.012-0.066 0.009-0.067l0.692-0.414 0.082 0.012 0.946 0.964c0.168 0.171 0.444 0.282 0.704 0.282 0.060 0 0.117-0.006 0.149-0.014l0.419-0.062c0.301-0.026 0.621-0.239 0.761-0.506l0.627-1.196c0.012-0.018 0.058-0.045 0.088-0.045 0.008 0.001 0.157 0.026 0.374 0.080s0.36 0.104 0.366 0.106c0.023 0.009 0.055 0.057 0.057 0.080l-0.013 1.351c-0.003 0.302 0.179 0.641 0.414 0.794l0.339 0.25c0.225 0.19 0.612 0.271 0.896 0.181l1.294-0.403c0.031 0 0.065 0.019 0.061 0.009l0.414 0.692c0.008 0.019 0 0.067-0.012 0.082l-0.964 0.946c-0.215 0.212-0.327 0.58-0.268 0.853l0.061 0.419c0.026 0.301 0.239 0.621 0.507 0.761l1.196 0.627c0.020 0.013 0.046 0.064 0.044 0.088-0.001 0.008-0.026 0.157-0.079 0.374s-0.104 0.36-0.107 0.366c-0.009 0.023-0.057 0.055-0.080 0.057l-1.358-0.013c-0.3 0-0.635 0.182-0.787 0.414l-0.249 0.339c-0.195 0.231-0.271 0.608-0.181 0.896l0.402 1.288c0.004 0.020-0.012 0.066-0.009 0.067l-0.692 0.414-0.082-0.012-0.946-0.964c-0.168-0.171-0.444-0.282-0.704-0.282-0.060 0-0.117 0.006-0.149 0.014l-0.419 0.062c-0.301 0.026-0.621 0.239-0.761 0.506l-0.627 1.196c-0.012 0.018-0.058 0.044-0.088 0.044v0c-0.008-0.001-0.157-0.026-0.374-0.079s-0.36-0.104-0.366-0.107c-0.023-0.009-0.055-0.057-0.057-0.080l0.013-1.351c0.003-0.302-0.179-0.641-0.414-0.794l-0.339-0.25c-0.162-0.137-0.4-0.219-0.638-0.219-0.092 0-0.179 0.013-0.259 0.038l-1.294 0.403c-0.031 0-0.066-0.017-0.061-0.009l-0.414-0.692c-0.008-0.019 0-0.067 0.012-0.082l0.964-0.946c0.215-0.212 0.327-0.58 0.268-0.853l-0.061-0.419c-0.026-0.301-0.239-0.621-0.507-0.761l-1.196-0.627c-0.020-0.013-0.046-0.064-0.044-0.088 0.001-0.008 0.026-0.157 0.079-0.374s0.104-0.36 0.107-0.366c0.009-0.023 0.057-0.055 0.080-0.057l1.358 0.013c0.3 0 0.635-0.182 0.787-0.414zM24.73 13.084c1.207 0 2.188-0.982 2.188-2.188s-0.982-2.188-2.188-2.188-2.188 0.982-2.188 2.188 0.982 2.188 2.188 2.188zM24.73 9.437c0.805 0 1.459 0.654 1.459 1.459s-0.654 1.459-1.459 1.459-1.459-0.654-1.459-1.459 0.654-1.459 1.459-1.459z"></path>
</svg>
