<?xml version="1.0" encoding="utf-8"?>
<!-- Generated by IcoMoon.io -->
<!DOCTYPE svg PUBLIC "-//W3C//DTD SVG 1.1//EN" "http://www.w3.org/Graphics/SVG/1.1/DTD/svg11.dtd">
<svg version="1.1" xmlns="http://www.w3.org/2000/svg" xmlns:xlink="http://www.w3.org/1999/xlink" width="32" height="32" viewBox="0 0 32 32">
<path d="M2.019 23.75c0.76 1.317 2.468 2.014 4.938 2.014 0 0 0 0 0.001 0 1.11 0 2.332-0.156 3.606-0.424 1.226 3.758 3.184 6.16 5.438 6.16s4.211-2.402 5.438-6.16c1.275 0.267 2.496 0.424 3.607 0.424 0 0 0 0 0 0 2.468 0 4.176-0.697 4.937-2.014 0.984-1.706 0.113-4.572-2.873-7.75 2.987-3.178 3.858-6.044 2.873-7.75-0.76-1.317-2.468-2.014-4.938-2.014-1.11 0-2.333 0.156-3.607 0.424-1.225-3.758-3.183-6.16-5.437-6.16s-4.211 2.402-5.438 6.16c-1.275-0.268-2.497-0.424-3.607-0.424-2.469 0-4.177 0.697-4.938 2.014-0.984 1.706-0.113 4.572 2.873 7.75-2.987 3.178-3.859 6.044-2.873 7.75zM16.001 30.531c-1.782 0-3.406-2.13-4.482-5.405 1.456-0.369 2.97-0.891 4.482-1.549 1.512 0.658 3.026 1.18 4.482 1.549-1.076 3.274-2.701 5.405-4.482 5.405zM10.188 16c0-1.128 0.060-2.225 0.163-3.287 0.865-0.603 1.78-1.19 2.744-1.747 0.953-0.55 1.929-1.043 2.906-1.485 0.977 0.441 1.953 0.934 2.906 1.485 0.964 0.556 1.877 1.143 2.744 1.747 0.103 1.062 0.163 2.159 0.163 3.287s-0.060 2.225-0.163 3.287c-0.865 0.603-1.78 1.19-2.744 1.747-0.953 0.55-1.929 1.043-2.906 1.485-0.977-0.441-1.953-0.934-2.906-1.485-0.964-0.556-1.877-1.143-2.744-1.747-0.103-1.062-0.163-2.159-0.163-3.287zM9.315 18.541c-1.11-0.834-2.116-1.69-2.99-2.541 0.874-0.851 1.879-1.707 2.99-2.541-0.057 0.827-0.095 1.671-0.095 2.541s0.038 1.714 0.095 2.541zM10.499 11.433c0.178-1.299 0.428-2.523 0.74-3.637 1.158 0.292 2.359 0.695 3.567 1.181-0.738 0.357-1.474 0.733-2.196 1.15-0.749 0.433-1.441 0.869-2.111 1.306zM17.194 8.978c1.208-0.486 2.409-0.889 3.567-1.181 0.312 1.114 0.562 2.338 0.74 3.637-0.668-0.437-1.362-0.873-2.111-1.306-0.721-0.417-1.457-0.792-2.196-1.15zM22.687 13.459c1.111 0.834 2.116 1.69 2.99 2.541-0.874 0.851-1.879 1.707-2.99 2.541 0.057-0.827 0.095-1.671 0.095-2.541s-0.038-1.714-0.095-2.541zM21.503 20.567c-0.178 1.299-0.428 2.523-0.74 3.637-1.158-0.292-2.359-0.695-3.567-1.181 0.739-0.357 1.475-0.733 2.197-1.15 0.748-0.433 1.441-0.869 2.11-1.306zM12.61 21.873c0.722 0.417 1.458 0.793 2.197 1.15-1.208 0.486-2.409 0.889-3.567 1.181-0.312-1.114-0.562-2.338-0.74-3.637 0.668 0.437 1.361 0.873 2.11 1.306zM29.144 23.266c-0.57 0.987-2.025 1.53-4.098 1.53-1.023 0-2.149-0.141-3.325-0.383 0.384-1.38 0.671-2.914 0.85-4.561 1.498-1.050 2.762-2.1 3.817-3.128 2.453 2.598 3.61 5.063 2.756 6.542zM25.045 7.205c2.073 0 3.529 0.543 4.098 1.53 0.854 1.479-0.303 3.944-2.756 6.542-1.055-1.027-2.319-2.078-3.817-3.128-0.178-1.647-0.466-3.181-0.85-4.561 1.176-0.241 2.303-0.383 3.325-0.383zM16.001 1.469c1.782 0 3.406 2.13 4.482 5.405-1.456 0.369-2.97 0.891-4.482 1.549-1.512-0.658-3.026-1.18-4.482-1.549 1.076-3.274 2.701-5.405 4.482-5.405zM2.858 8.734c0.57-0.987 2.025-1.53 4.098-1.53 1.023 0 2.149 0.141 3.325 0.383-0.384 1.38-0.671 2.914-0.85 4.561-1.498 1.050-2.762 2.1-3.817 3.128-2.453-2.598-3.61-5.063-2.756-6.542zM5.614 16.724c1.055 1.027 2.319 2.078 3.817 3.128 0.178 1.647 0.466 3.181 0.85 4.561-1.175 0.241-2.301 0.383-3.324 0.383 0 0-0.001 0-0.001 0-2.073 0-3.529-0.543-4.098-1.53-0.853-1.479 0.303-3.944 2.756-6.542zM16.001 18.422c1.335 0 2.422-1.086 2.422-2.422s-1.087-2.422-2.422-2.422-2.422 1.086-2.422 2.422 1.087 2.422 2.422 2.422zM16.001 14.547c0.801 0 1.453 0.652 1.453 1.453s-0.652 1.453-1.453 1.453-1.453-0.652-1.453-1.453 0.652-1.453 1.453-1.453z"></path>
</svg>
