<?xml version="1.0" encoding="utf-8"?>
<!-- Generated by IcoMoon.io -->
<!DOCTYPE svg PUBLIC "-//W3C//DTD SVG 1.1//EN" "http://www.w3.org/Graphics/SVG/1.1/DTD/svg11.dtd">
<svg version="1.1" xmlns="http://www.w3.org/2000/svg" xmlns:xlink="http://www.w3.org/1999/xlink" width="32" height="32" viewBox="0 0 32 32">
<path d="M1.752 16.731c-0.202 0-0.365 0.164-0.365 0.365v8.768c0 0.604 0.492 1.096 1.096 1.096h7.307c0.202 0 0.365-0.164 0.365-0.365s-0.164-0.365-0.365-0.365h-7.307c-0.202 0-0.365-0.164-0.365-0.365v-8.768c0-0.202-0.164-0.365-0.365-0.365zM30.248 16.731c-0.202 0-0.365 0.164-0.365 0.365v8.768c0 0.202-0.164 0.365-0.365 0.365h-15.344c-0.202 0-0.365 0.164-0.365 0.365s0.164 0.365 0.365 0.365h15.344c0.604 0 1.096-0.492 1.096-1.096v-8.768c0-0.202-0.164-0.365-0.365-0.365zM13.808 5.405c0 0.202 0.164 0.365 0.365 0.365h15.344c0.202 0 0.365 0.164 0.365 0.365v6.545c0 0.202 0.164 0.365 0.365 0.365s0.365-0.164 0.365-0.365v-6.545c0-0.604-0.492-1.096-1.096-1.096h-15.344c-0.202 0-0.365 0.164-0.365 0.365zM2.483 5.040c-0.604 0-1.096 0.492-1.096 1.096v6.545c0 0.202 0.164 0.365 0.365 0.365s0.365-0.164 0.365-0.365v-6.545c0-0.202 0.164-0.365 0.365-0.365h7.307c0.202 0 0.365-0.164 0.365-0.365s-0.164-0.365-0.365-0.365h-7.307zM30.978 14.508h-14.905c0.29-0.129 0.541-0.278 0.719-0.457 1.104-1.104 1.104-2.9 0-4.004-1.070-1.070-2.934-1.070-4.004 0-0.172 0.172-0.316 0.411-0.441 0.687v-6.059c0-0.202-0.164-0.365-0.365-0.365s-0.365 0.164-0.365 0.365v9.663c-1.244-0.513-3.435-1.567-3.884-2.475-0.292-0.59-0.337-1.258-0.126-1.882s0.652-1.127 1.241-1.42c0.181-0.090 0.255-0.308 0.166-0.49-0.091-0.181-0.308-0.256-0.49-0.166-0.765 0.378-1.336 1.032-1.61 1.841s-0.215 1.675 0.164 2.44c0.442 0.893 1.922 1.747 3.124 2.321h-9.179c-0.202 0-0.365 0.164-0.365 0.365s0.164 0.365 0.365 0.365h6.829c-0.283 0.127-0.528 0.274-0.702 0.449-1.104 1.104-1.104 2.9 0 4.004 0.535 0.535 1.246 0.829 2.002 0.829s1.467-0.294 2.002-0.829c0.181-0.181 0.333-0.438 0.464-0.734v8.368c0 0.202 0.164 0.365 0.365 0.365s0.365-0.164 0.365-0.365v-11.913c1.248 0.516 3.414 1.562 3.861 2.465 0.292 0.59 0.337 1.258 0.126 1.882s-0.652 1.127-1.241 1.42c-0.181 0.090-0.255 0.308-0.166 0.49 0.064 0.129 0.194 0.203 0.328 0.203 0.054 0 0.11-0.012 0.161-0.038 0.765-0.378 1.336-1.032 1.61-1.841s0.215-1.675-0.164-2.44c-0.44-0.888-1.908-1.739-3.107-2.314h17.222c0.202 0 0.365-0.164 0.365-0.365s-0.164-0.365-0.365-0.365zM13.305 10.565c0.397-0.397 0.924-0.615 1.485-0.615s1.089 0.218 1.485 0.615c0.819 0.819 0.819 2.152 0 2.971-0.624 0.624-2.769 0.878-3.921 0.95 0.082-1.362 0.381-3.351 0.951-3.921zM10.636 19.175c-0.793 0.794-2.177 0.794-2.971 0-0.819-0.819-0.819-2.152 0-2.971 0.624-0.624 2.769-0.878 3.921-0.95-0.082 1.362-0.381 3.352-0.951 3.921z"></path>
</svg>
