<?xml version="1.0" encoding="utf-8"?>
<!-- Generated by IcoMoon.io -->
<!DOCTYPE svg PUBLIC "-//W3C//DTD SVG 1.1//EN" "http://www.w3.org/Graphics/SVG/1.1/DTD/svg11.dtd">
<svg version="1.1" xmlns="http://www.w3.org/2000/svg" xmlns:xlink="http://www.w3.org/1999/xlink" width="32" height="32" viewBox="0 0 32 32">
<path d="M17.14 21.741c5.65 0 10.246-4.596 10.246-10.246s-4.596-10.246-10.246-10.246-10.246 4.596-10.246 10.246 4.596 10.246 10.246 10.246zM17.14 2.224c5.112 0 9.271 4.159 9.271 9.271s-4.159 9.271-9.271 9.271-9.271-4.159-9.271-9.271 4.158-9.271 9.271-9.271zM12.748 27.597c-1.113 0-1.952 0.838-1.952 1.952v1.464c0 0.269 0.219 0.488 0.488 0.488h11.71c0.269 0 0.488-0.219 0.488-0.488v-1.391c0-1.136-0.858-2.025-1.952-2.025h-8.783zM22.507 29.621v0.903h-10.734v-0.976c0-0.575 0.401-0.976 0.976-0.976h8.783c0.556 0 0.976 0.451 0.976 1.049zM16.655 24.648c0 0.006-0.003 0.010-0.003 0.016v1.565c0 0.269 0.219 0.488 0.488 0.488s0.488-0.219 0.488-0.488v-1.565c0-0.007-0.004-0.013-0.004-0.020 3.155-0.126 6.117-1.343 8.429-3.495l1.151 1.151c0.19 0.19 0.5 0.19 0.69 0s0.19-0.5 0-0.69l-1.489-1.489c-0.19-0.19-0.5-0.19-0.69 0-2.305 2.304-5.368 3.573-8.627 3.573s-6.322-1.269-8.626-3.573-3.573-5.367-3.573-8.626 1.269-6.322 3.573-8.626c0.19-0.19 0.19-0.5 0-0.69l-1.489-1.489c-0.19-0.19-0.5-0.19-0.69 0s-0.19 0.5 0 0.69l1.151 1.151c-2.275 2.443-3.52 5.608-3.52 8.963 0 3.518 1.37 6.827 3.859 9.316 2.385 2.385 5.526 3.729 8.881 3.837z"></path>
</svg>
