<?xml version="1.0" encoding="utf-8"?>
<!-- Generated by IcoMoon.io -->
<!DOCTYPE svg PUBLIC "-//W3C//DTD SVG 1.1//EN" "http://www.w3.org/Graphics/SVG/1.1/DTD/svg11.dtd">
<svg version="1.1" xmlns="http://www.w3.org/2000/svg" xmlns:xlink="http://www.w3.org/1999/xlink" width="32" height="32" viewBox="0 0 32 32">
<path d="M0.533 16.647c0.343 8.245 7.139 14.853 15.467 14.853s15.124-6.608 15.467-14.853c0.018-0.051 0.033-0.105 0.033-0.163 0-0.035-0.013-0.065-0.019-0.097 0.003-0.13 0.019-0.257 0.019-0.387 0-8.546-6.954-15.5-15.5-15.5s-15.5 6.954-15.5 15.5c0 0.131 0.016 0.258 0.019 0.387-0.007 0.032-0.019 0.062-0.019 0.097 0 0.058 0.015 0.111 0.033 0.163zM24.642 22.531c-1.278-0.535-2.65-0.948-4.083-1.231 0.153-1.408 0.243-2.869 0.271-4.33h4.824c-0.088 1.99-0.442 3.868-1.012 5.562zM26.622 16.969h3.86c-0.18 2.718-1.102 5.234-2.58 7.342-0.735-0.516-1.528-0.987-2.38-1.395 0.625-1.811 1.009-3.82 1.101-5.947zM12.502 22.090c1.141-0.178 2.312-0.277 3.498-0.277s2.357 0.099 3.497 0.277c-0.672 5.168-2.141 8.442-3.497 8.442s-2.825-3.273-3.498-8.442zM13.973 30.206c-2.665-0.854-4.919-3.363-6.279-6.766 1.207-0.509 2.505-0.906 3.865-1.179 0.445 3.387 1.257 6.338 2.414 7.945zM12.39 10.874c1.179 0.182 2.388 0.282 3.61 0.282s2.431-0.1 3.61-0.282c0.167 1.569 0.265 3.282 0.265 5.126h-7.75c0-1.844 0.099-3.556 0.265-5.126zM19.86 16.969c-0.027 1.477-0.114 2.868-0.252 4.157-1.178-0.182-2.386-0.282-3.609-0.282s-2.431 0.1-3.61 0.282c-0.168-1.575-0.23-2.961-0.252-4.157h7.722zM20.442 22.261c1.36 0.273 2.657 0.67 3.865 1.179-1.36 3.403-3.614 5.911-6.279 6.766 1.156-1.607 1.968-4.558 2.414-7.945zM20.844 16c0-1.779-0.099-3.581-0.285-5.299 1.434-0.283 2.805-0.697 4.083-1.231 0.663 1.966 1.045 4.18 1.045 6.53h-4.844zM20.442 9.739c-0.446-3.387-1.257-6.339-2.415-7.945 2.665 0.854 4.919 3.363 6.279 6.766-1.207 0.509-2.504 0.907-3.864 1.179zM19.498 9.91c-1.141 0.178-2.312 0.277-3.498 0.277s-2.357-0.099-3.498-0.277c0.673-5.168 2.142-8.442 3.498-8.442s2.825 3.273 3.498 8.442zM11.558 9.739c-1.36-0.273-2.657-0.67-3.865-1.179 1.36-3.403 3.614-5.911 6.279-6.766-1.156 1.607-1.969 4.558-2.414 7.945zM11.441 10.701c-0.186 1.719-0.285 3.52-0.285 5.299h-4.844c0-2.35 0.383-4.565 1.045-6.531 1.278 0.535 2.65 0.948 4.083 1.232zM11.17 16.969c0.028 1.461 0.118 2.923 0.271 4.331-1.434 0.283-2.806 0.698-4.083 1.231-0.571-1.693-0.924-3.572-1.012-5.563h4.824zM6.477 22.916c-0.853 0.409-1.644 0.879-2.379 1.395-1.477-2.108-2.4-4.623-2.58-7.342h3.86c0.091 2.127 0.476 4.137 1.1 5.947zM4.678 25.087c0.664-0.464 1.373-0.893 2.138-1.264 0.973 2.407 2.372 4.406 4.055 5.757-2.447-0.928-4.581-2.488-6.193-4.493zM21.129 29.579c1.684-1.35 3.083-3.35 4.055-5.757 0.765 0.372 1.474 0.8 2.138 1.264-1.612 2.006-3.746 3.566-6.193 4.493zM26.656 16c0-2.487-0.415-4.831-1.133-6.916 0.852-0.409 1.645-0.879 2.38-1.395 1.651 2.358 2.628 5.221 2.628 8.311h-3.875zM27.323 6.913c-0.664 0.464-1.373 0.892-2.138 1.264-0.973-2.407-2.372-4.407-4.055-5.757 2.446 0.928 4.58 2.488 6.193 4.493zM10.871 2.421c-1.684 1.35-3.083 3.35-4.055 5.757-0.766-0.372-1.474-0.801-2.138-1.265 1.612-2.005 3.746-3.565 6.193-4.492zM4.098 7.689c0.734 0.516 1.527 0.986 2.379 1.395-0.719 2.085-1.133 4.429-1.133 6.916h-3.875c0-3.090 0.977-5.953 2.629-8.311z"></path>
</svg>
