<?xml version="1.0" encoding="utf-8"?>
<!-- Generated by IcoMoon.io -->
<!DOCTYPE svg PUBLIC "-//W3C//DTD SVG 1.1//EN" "http://www.w3.org/Graphics/SVG/1.1/DTD/svg11.dtd">
<svg version="1.1" xmlns="http://www.w3.org/2000/svg" xmlns:xlink="http://www.w3.org/1999/xlink" width="32" height="32" viewBox="0 0 32 32">
<path d="M16 0.5c-8.548 0-15.5 6.952-15.5 15.5s6.952 15.5 15.5 15.5 15.5-6.952 15.5-15.5-6.952-15.5-15.5-15.5zM16 30.468c-7.977 0-14.468-6.49-14.468-14.468s6.49-14.468 14.468-14.468 14.468 6.49 14.468 14.468-6.49 14.468-14.468 14.468zM17.966 9.776c0-0.285-0.231-0.516-0.516-0.516h-4.118c-0.025 0-0.045 0.011-0.070 0.014-0.055-0.002-0.106-0.014-0.162-0.014-2.151 0-3.9 1.492-3.9 3.325s1.75 3.325 3.9 3.325c0.297 0 0.583-0.034 0.861-0.088-0.072 0.281-0.112 0.604-0.064 0.965 0.045 0.337 0.18 0.66 0.356 0.974-0.359-0.063-0.728-0.105-1.113-0.105-2.66 0-4.825 1.6-4.825 3.567s2.164 3.567 4.825 3.567c2.661 0 4.826-1.6 4.826-3.567 0-1.011-0.578-1.921-1.495-2.57-0.037-0.093-0.092-0.179-0.181-0.239-0.82-0.555-1.279-1.145-1.366-1.752-0.097-0.676 0.302-1.17 0.322-1.195 0.043-0.051 0.073-0.109 0.094-0.169 1.002-0.602 1.661-1.592 1.661-2.714 0-0.89-0.418-1.696-1.088-2.293h1.537c0.285 0.002 0.516-0.23 0.516-0.515zM13.141 23.761c-2.091 0-3.792-1.138-3.792-2.535s1.701-2.535 3.792-2.535 3.793 1.138 3.793 2.535-1.702 2.535-3.793 2.535zM13.1 14.88c-1.581 0-2.867-1.029-2.867-2.293s1.287-2.293 2.867-2.293 2.867 1.029 2.867 2.293-1.287 2.293-2.867 2.293zM25.002 12.133h-2.263v-2.296c0-0.285-0.231-0.516-0.516-0.516s-0.516 0.231-0.422 0.395v2.417h-2.357c-0.285-0.033-0.516 0.198-0.516 0.483s0.231 0.516 0.516 0.483h2.357v2.296c0 0.285 0.138 0.516 0.423 0.516s0.516-0.231 0.516-0.516v-2.296h2.263c0.285 0.033 0.516-0.198 0.516-0.483s-0.232-0.516-0.517-0.483z"></path>
</svg>
