<?xml version="1.0" encoding="utf-8"?>
<!-- Generated by IcoMoon.io -->
<!DOCTYPE svg PUBLIC "-//W3C//DTD SVG 1.1//EN" "http://www.w3.org/Graphics/SVG/1.1/DTD/svg11.dtd">
<svg version="1.1" xmlns="http://www.w3.org/2000/svg" xmlns:xlink="http://www.w3.org/1999/xlink" width="32" height="32" viewBox="0 0 32 32">
<path d="M28.594 11.156c0.267 0 0.484-0.217 0.484-0.484s-0.217-0.484-0.484-0.484h-7.266v-7.266c0-0.267-0.217-0.484-0.484-0.484s-0.484 0.217-0.484 0.484v7.266h-8.719v-7.266c0-0.267-0.217-0.484-0.484-0.484s-0.484 0.217-0.484 0.484v7.266h-7.266c-0.267 0-0.484 0.217-0.484 0.484s0.217 0.484 0.484 0.484h7.266v8.719h-7.266c-0.267 0-0.484 0.217-0.484 0.484s0.217 0.484 0.484 0.484h7.266v8.234c0 0.267 0.217 0.484 0.484 0.484s0.484-0.217 0.484-0.484v-8.234h8.719v8.234c0 0.267 0.217 0.484 0.484 0.484s0.484-0.217 0.484-0.484v-8.234h7.266c0.267 0 0.484-0.217 0.484-0.484s-0.217-0.484-0.484-0.484h-7.266v-8.719h7.266zM20.359 19.875h-8.719v-8.719h8.719v8.719zM31.016 30.047v-28.094c0-0.801-0.652-1.453-1.453-1.453h-27.125c-0.801 0-1.453 0.652-1.453 1.453v28.094c0 0.801 0.652 1.453 1.453 1.453h27.125c0.801 0 1.453-0.652 1.453-1.453zM1.953 30.047v-28.094c0-0.267 0.218-0.484 0.484-0.484h27.125c0.266 0 0.484 0.217 0.484 0.484v28.094c0 0.267-0.218 0.484-0.484 0.484h-27.125c-0.266 0-0.484-0.217-0.484-0.484z"></path>
</svg>
