<?xml version="1.0" encoding="utf-8"?>
<!-- Generated by IcoMoon.io -->
<!DOCTYPE svg PUBLIC "-//W3C//DTD SVG 1.1//EN" "http://www.w3.org/Graphics/SVG/1.1/DTD/svg11.dtd">
<svg version="1.1" xmlns="http://www.w3.org/2000/svg" xmlns:xlink="http://www.w3.org/1999/xlink" width="32" height="32" viewBox="0 0 32 32">
<path d="M16 0.501c-8.546 0-15.5 6.952-15.5 15.499s6.954 15.499 15.5 15.499 15.5-6.952 15.5-15.499-6.954-15.499-15.5-15.499zM16 30.467c-7.977 0-14.466-6.49-14.466-14.467s6.489-14.467 14.466-14.467 14.466 6.49 14.466 14.467-6.489 14.467-14.466 14.467zM10.684 16.483c1.066 0 1.933-0.867 1.933-1.933s-0.867-1.933-1.933-1.933-1.933 0.867-1.933 1.933 0.867 1.933 1.933 1.933zM10.684 13.583c0.533 0 0.967 0.433 0.967 0.967s-0.434 0.967-0.967 0.967-0.967-0.433-0.967-0.967 0.434-0.967 0.967-0.967zM21.317 16.483c1.066 0 1.933-0.867 1.933-1.933s-0.867-1.933-1.933-1.933-1.933 0.867-1.933 1.933 0.867 1.933 1.933 1.933zM21.317 13.583c0.533 0 0.967 0.433 0.967 0.967s-0.434 0.967-0.967 0.967-0.967-0.433-0.967-0.967 0.434-0.967 0.967-0.967zM22.595 21.872c-1.639 1.776-3.96 2.795-6.368 2.795-2.446 0-4.791-1.045-6.434-2.868-0.191-0.211-0.519-0.229-0.73-0.037-0.212 0.19-0.229 0.517-0.038 0.73 1.839 2.039 4.464 3.207 7.201 3.207 2.695 0 5.293-1.14 7.127-3.126 0.193-0.21 0.181-0.536-0.029-0.73s-0.536-0.182-0.73 0.029z"></path>
</svg>
