<?xml version="1.0" encoding="utf-8"?>
<!-- Generated by IcoMoon.io -->
<!DOCTYPE svg PUBLIC "-//W3C//DTD SVG 1.1//EN" "http://www.w3.org/Graphics/SVG/1.1/DTD/svg11.dtd">
<svg version="1.1" xmlns="http://www.w3.org/2000/svg" xmlns:xlink="http://www.w3.org/1999/xlink" width="32" height="32" viewBox="0 0 32 32">
<path d="M16 31.5c8.548 0 15.5-6.952 15.5-15.5s-6.952-15.5-15.5-15.5-15.5 6.952-15.5 15.5 6.952 15.5 15.5 15.5zM16 1.532c7.977 0 14.468 6.49 14.468 14.468s-6.49 14.468-14.468 14.468-14.468-6.49-14.468-14.468 6.49-14.468 14.468-14.468zM10.187 26.067c0.081 0.047 0.17 0.069 0.259 0.069 0.175 0 0.344-0.088 0.442-0.248l5.112-8.409 5.113 8.409c0.098 0.16 0.267 0.248 0.442 0.248 0.089 0 0.178-0.021 0.259-0.069 3.754-2.172 5.82-5.576 5.82-9.584 0-0.285-0.231-0.516-0.516-0.483h-10.244l5.134-9.37c0.135-0.247 0.049-0.556-0.194-0.697-3.542-2.048-8.085-2.048-11.625 0-0.245 0.14-0.331 0.45-0.195 0.697l5.133 9.37h-10.243c-0.285-0.033-0.516 0.198-0.516 0.483 0 4.008 2.067 7.412 5.82 9.584zM26.587 16.967c-0.163 3.28-1.87 6.059-4.859 7.944l-4.81-7.944h9.669zM20.853 6.585l-4.853 8.826-4.852-8.826c3.003-1.554 6.7-1.554 9.705 0zM15.082 16.967l-4.809 7.944c-2.99-1.884-4.696-4.663-4.86-7.944h9.669z"></path>
</svg>
