<?xml version="1.0" encoding="utf-8"?>
<!-- Generated by IcoMoon.io -->
<!DOCTYPE svg PUBLIC "-//W3C//DTD SVG 1.1//EN" "http://www.w3.org/Graphics/SVG/1.1/DTD/svg11.dtd">
<svg version="1.1" xmlns="http://www.w3.org/2000/svg" xmlns:xlink="http://www.w3.org/1999/xlink" width="32" height="32" viewBox="0 0 32 32">
<path d="M23.084 2.734c-2.064 0-4.047 0.768-5.587 2.163-0.585 0.529-1.086 1.131-1.497 1.795-0.411-0.664-0.912-1.266-1.497-1.796-1.54-1.394-3.524-2.162-5.587-2.162-4.596 0-8.335 3.739-8.335 8.335 0 3.102 0.965 5.551 3.226 8.189 3.285 3.834 11.601 9.685 11.953 9.932 0.072 0.051 0.156 0.076 0.239 0.076s0.168-0.025 0.239-0.076c0.353-0.248 8.668-6.098 11.954-9.932 2.26-2.638 3.225-5.087 3.225-8.189 0-4.596-3.739-8.335-8.335-8.335zM27.561 18.716c-2.913 3.397-10.151 8.619-11.561 9.622-1.409-1.003-8.648-6.225-11.56-9.622-2.121-2.474-3.025-4.761-3.025-7.647 0-4.136 3.365-7.501 7.501-7.501 1.856 0 3.642 0.691 5.027 1.946 0.698 0.633 1.265 1.38 1.684 2.22 0.142 0.283 0.605 0.283 0.747 0 0.418-0.84 0.985-1.587 1.684-2.219 1.385-1.256 3.171-1.947 5.027-1.947 4.136 0 7.501 3.365 7.501 7.501 0 2.885-0.904 5.172-3.025 7.647z"></path>
</svg>
