<?xml version="1.0" encoding="utf-8"?>
<!-- Generated by IcoMoon.io -->
<!DOCTYPE svg PUBLIC "-//W3C//DTD SVG 1.1//EN" "http://www.w3.org/Graphics/SVG/1.1/DTD/svg11.dtd">
<svg version="1.1" xmlns="http://www.w3.org/2000/svg" xmlns:xlink="http://www.w3.org/1999/xlink" width="32" height="32" viewBox="0 0 32 32">
<path d="M29.563 9.607c0-6.128-4.436-9.107-13.563-9.107s-13.563 2.979-13.563 9.107c0 7.048 12.761 15.178 13.304 15.52 0.001 0.001 0.003 0 0.005 0.001 0.011 0.007 0.022 0.007 0.034 0.013 0.070 0.037 0.143 0.062 0.22 0.062s0.15-0.025 0.22-0.061c0.011-0.006 0.023-0.006 0.034-0.013 0.001-0.001 0.003 0 0.005-0.001 0.543-0.343 13.304-8.473 13.304-15.521zM19.875 9.607c0 5.386-2.786 11.742-3.875 14.021-1.089-2.278-3.875-8.631-3.875-14.021 0-7.295 2.212-8.138 3.875-8.138s3.875 0.844 3.875 8.138zM11.156 9.607c0 4.647 1.917 9.824 3.227 12.822-2.656-2.806-7.102-8.192-7.102-12.822 0-4.543 1.858-7.098 5.79-7.878-1.283 1.403-1.915 4.013-1.915 7.878zM20.844 9.607c0-3.865-0.632-6.475-1.915-7.878 3.932 0.78 5.79 3.335 5.79 7.878 0 4.631-4.446 10.015-7.102 12.822 1.31-2.997 3.227-8.175 3.227-12.822zM3.406 9.607c0-3.847 1.925-6.268 5.964-7.394-2.048 1.484-3.057 3.937-3.057 7.394 0 4.072 3.037 8.517 5.656 11.599-3.737-2.972-8.562-7.585-8.562-11.599zM20.032 21.206c2.619-3.082 5.656-7.526 5.656-11.599 0-3.457-1.009-5.91-3.057-7.394 4.039 1.126 5.964 3.547 5.964 7.394 0 4.014-4.824 8.627-8.562 11.599zM13.578 26.656c-0.267 0-0.484 0.217-0.484 0.484v2.906c0 0.815 0.638 1.453 1.453 1.453h2.906c0.815 0 1.453-0.638 1.453-1.453v-2.906c0-0.267-0.217-0.484-0.484-0.484h-4.844zM17.938 30.047c0 0.285-0.2 0.484-0.484 0.484h-2.906c-0.285 0-0.484-0.2-0.484-0.484v-2.422h3.875v2.422z"></path>
</svg>
