<?xml version="1.0" encoding="utf-8"?>
<!-- Generated by IcoMoon.io -->
<!DOCTYPE svg PUBLIC "-//W3C//DTD SVG 1.1//EN" "http://www.w3.org/Graphics/SVG/1.1/DTD/svg11.dtd">
<svg version="1.1" xmlns="http://www.w3.org/2000/svg" xmlns:xlink="http://www.w3.org/1999/xlink" width="32" height="32" viewBox="0 0 32 32">
<path d="M26.192 0.984c0-0.267-0.217-0.484-0.484-0.484h-19.416c-0.267 0-0.484 0.217-0.484 0.484s0.216 0.484 0.484 0.484h19.417c0.267 0 0.483-0.217 0.483-0.484zM25.203 6.421v-3.499c0-0.267-0.217-0.484-0.484-0.484h-17.358c-0.267 0-0.484 0.217-0.484 0.484v3.499c0 4.821 3.689 8.089 5.826 9.577-2.45 1.688-5.905 4.899-5.905 9.581v3.499c0 0.267 0.217 0.484 0.484 0.484h17.438c0.267 0 0.484-0.217 0.484-0.484v-3.471c0-4.807-3.742-8.104-5.905-9.606 2.45-1.688 5.905-4.898 5.905-9.58zM15.999 23.934l4.66 4.66h-9.319l4.66-4.66zM18.162 15.591c-0.14 0.088-0.225 0.243-0.225 0.409s0.084 0.321 0.225 0.409c1.826 1.158 6.072 4.372 6.072 9.198v2.987h-2.216c-0.009-0.011-0.013-0.024-0.022-0.034l-5.511-5.511v-0.752c0-0.267-0.217-0.484-0.484-0.484s-0.484 0.217-0.484 0.484v0.752l-5.511 5.511c-0.010 0.010-0.014 0.023-0.022 0.034h-2.216v-3.015c0-4.628 3.804-7.732 6.072-9.169 0.14-0.089 0.225-0.244 0.225-0.41s-0.084-0.321-0.225-0.409c-1.802-1.143-6.072-4.324-6.072-9.17v-3.015h16.469v3.015c0 4.629-3.804 7.732-6.072 9.17zM20.883 9.192h-9.507c-0.173 0-0.334 0.093-0.42 0.243s-0.085 0.336 0.002 0.486c1.15 1.958 2.829 3.156 4.606 4.426l0.154 0.109c0.084 0.060 0.182 0.090 0.282 0.090s0.198-0.030 0.282-0.090c0.254-0.181 0.51-0.359 0.765-0.538 1.588-1.108 3.23-2.253 4.254-3.998 0.088-0.149 0.089-0.335 0.003-0.485s-0.247-0.244-0.42-0.244zM16.492 13.124c-0.164 0.114-0.327 0.229-0.491 0.344-1.458-1.041-2.746-1.978-3.726-3.308h7.695c-0.912 1.174-2.164 2.048-3.478 2.964zM6.292 31.5h19.417c0.267 0 0.484-0.217 0.484-0.484s-0.217-0.484-0.484-0.484h-19.417c-0.267 0-0.484 0.217-0.484 0.484s0.216 0.484 0.484 0.484zM15.999 18.906c-0.267 0-0.484 0.217-0.484 0.484v0.969c0 0.267 0.217 0.484 0.484 0.484s0.484-0.217 0.484-0.484v-0.969c0-0.267-0.217-0.484-0.484-0.484zM15.999 16c-0.267 0-0.484 0.217-0.484 0.484v0.969c0 0.267 0.217 0.484 0.484 0.484s0.484-0.217 0.484-0.484v-0.969c0-0.267-0.217-0.484-0.484-0.484z"></path>
</svg>
