<?xml version="1.0" encoding="utf-8"?>
<!-- Generated by IcoMoon.io -->
<!DOCTYPE svg PUBLIC "-//W3C//DTD SVG 1.1//EN" "http://www.w3.org/Graphics/SVG/1.1/DTD/svg11.dtd">
<svg version="1.1" xmlns="http://www.w3.org/2000/svg" xmlns:xlink="http://www.w3.org/1999/xlink" width="32" height="32" viewBox="0 0 32 32">
<path d="M14.714 14.74c0.113 0 0.227-0.040 0.319-0.12l10.955-9.605-0.639-0.728-10.955 9.604c-0.201 0.176-0.222 0.482-0.045 0.683 0.096 0.109 0.229 0.166 0.364 0.166zM10.363 31.488c5.946 0 9.498-4.676 9.498-9.196 0-1.303-0.312-2.739-0.773-3.671l4.377-2.189c0.164-0.082 0.267-0.25 0.267-0.433v-3.872h2.904c0.011 0 0.099-0.006 0.109-0.006 0.645-0.044 0.837-0.249 0.859-0.962v-3.872h2.904c0.125 0 0.211 0.014 0.269 0.022 0.117 0.018 0.336 0.052 0.526-0.118 0.196-0.174 0.187-0.395 0.179-0.59-0.002-0.070-0.006-0.162-0.006-0.283v-4.386c0-0.784-0.638-1.422-1.422-1.422h-3.751c-0.343 0-0.676 0.125-0.938 0.352l-12.765 11.19c-0.628-0.126-1.578-0.289-2.239-0.289-5.437 0-9.861 4.424-9.861 9.861s4.424 9.862 9.862 9.862zM10.363 12.733c0.485 0 1.316 0.116 2.279 0.318 0.15 0.033 0.304-0.010 0.418-0.109l12.944-11.347c0.084-0.074 0.192-0.114 0.301-0.114h3.751c0.251 0 0.454 0.203 0.454 0.454v4.386h-3.388c-0.267 0-0.484 0.217-0.484 0.484v4.356h-3.388c-0.267 0-0.484 0.217-0.484 0.484v4.057l-4.573 2.287c-0.127 0.063-0.22 0.18-0.254 0.317s-0.006 0.284 0.077 0.399c0.426 0.588 0.877 2.046 0.877 3.588 0 4.044-3.191 8.228-8.53 8.228-4.904 0-8.894-3.99-8.894-8.894s3.99-8.893 8.894-8.893zM8.729 26.648c1.868 0 3.388-1.52 3.388-3.388s-1.52-3.388-3.388-3.388-3.388 1.52-3.388 3.388 1.52 3.388 3.388 3.388zM8.729 20.84c1.334 0 2.42 1.086 2.42 2.42s-1.086 2.42-2.42 2.42-2.42-1.086-2.42-2.42 1.086-2.42 2.42-2.42z"></path>
</svg>
