<?xml version="1.0" encoding="utf-8"?>
<!-- Generated by IcoMoon.io -->
<!DOCTYPE svg PUBLIC "-//W3C//DTD SVG 1.1//EN" "http://www.w3.org/Graphics/SVG/1.1/DTD/svg11.dtd">
<svg version="1.1" xmlns="http://www.w3.org/2000/svg" xmlns:xlink="http://www.w3.org/1999/xlink" width="32" height="32" viewBox="0 0 32 32">
<path d="M3.214 23.307c0.202 0 0.365-0.164 0.365-0.365v-17.17c0-0.437 0.294-0.731 0.731-0.731h23.381c0.416 0 0.731 0.342 0.731 0.796v17.105c0 0.202 0.164 0.365 0.365 0.365s0.365-0.164 0.365-0.365v-17.105c0-0.856-0.642-1.526-1.461-1.526h-23.381c-0.847 0-1.461 0.614-1.461 1.461v17.17c0 0.202 0.164 0.365 0.365 0.365zM5.405 6.502c-0.202 0-0.365 0.164-0.365 0.365v16.074c0 0.202 0.164 0.365 0.365 0.365h21.189c0.202 0 0.365-0.164 0.365-0.365v-16.074c0-0.202-0.164-0.365-0.365-0.365h-21.189zM26.229 22.576h-20.458v-15.344h20.458v15.344zM30.978 24.768h-29.957c-0.202 0-0.365 0.164-0.365 0.365v0.859c0 0.875 1.029 1.699 1.827 1.699h27.034c0.837 0 1.827-0.99 1.827-1.827v-0.731c0-0.202-0.164-0.365-0.365-0.365zM30.613 25.864c0 0.43-0.666 1.096-1.096 1.096h-27.034c-0.461 0-1.096-0.561-1.096-0.968v-0.493h29.226v0.365z"></path>
</svg>
