<?xml version="1.0" encoding="utf-8"?>
<!-- Generated by IcoMoon.io -->
<!DOCTYPE svg PUBLIC "-//W3C//DTD SVG 1.1//EN" "http://www.w3.org/Graphics/SVG/1.1/DTD/svg11.dtd">
<svg version="1.1" xmlns="http://www.w3.org/2000/svg" xmlns:xlink="http://www.w3.org/1999/xlink" width="32" height="32" viewBox="0 0 32 32">
<path d="M29.975 7.652l-11.151-6.294c-1.518-0.857-4.126-0.858-5.647 0l-11.151 6.294c-0.853 0.482-1.322 1.156-1.322 1.9s0.47 1.418 1.322 1.899l11.151 6.295c0.759 0.429 1.762 0.665 2.823 0.665s2.064-0.237 2.824-0.665l11.151-6.295c0.853-0.481 1.323-1.155 1.323-1.899s-0.47-1.418-1.323-1.9zM29.466 10.553l-11.151 6.295c-1.196 0.675-3.435 0.676-4.631 0l-11.151-6.295c-0.506-0.286-0.796-0.651-0.796-1.001s0.29-0.715 0.796-1.002l11.151-6.295c0.598-0.338 1.442-0.531 2.315-0.531s1.718 0.194 2.316 0.531l11.151 6.295c0.506 0.286 0.797 0.651 0.797 1.002s-0.289 0.715-0.796 1.001zM29.975 14.257c-0.247-0.14-0.562-0.053-0.704 0.196-0.14 0.248-0.052 0.563 0.196 0.703 0.506 0.286 0.797 0.651 0.797 1.001s-0.291 0.715-0.797 1.001l-11.151 6.295c-1.254 0.708-3.375 0.709-4.631 0l-11.151-6.295c-0.506-0.286-0.796-0.651-0.796-1.001s0.29-0.715 0.796-1.001c0.248-0.14 0.336-0.455 0.196-0.703s-0.457-0.337-0.704-0.196c-0.853 0.481-1.322 1.156-1.322 1.9s0.469 1.419 1.322 1.9l11.151 6.295c0.791 0.446 1.808 0.67 2.823 0.67s2.033-0.223 2.824-0.67l11.151-6.295c0.853-0.481 1.323-1.156 1.323-1.9s-0.47-1.419-1.322-1.9zM29.975 20.734c-0.247-0.14-0.562-0.053-0.704 0.196-0.14 0.248-0.052 0.563 0.196 0.703 0.506 0.286 0.797 0.651 0.797 1.001s-0.291 0.715-0.797 1.002l-11.151 6.295c-1.254 0.708-3.375 0.709-4.631 0l-11.151-6.296c-0.506-0.286-0.796-0.651-0.796-1.002s0.29-0.715 0.796-1.001c0.248-0.14 0.336-0.455 0.196-0.703s-0.457-0.337-0.704-0.196c-0.851 0.482-1.321 1.156-1.321 1.901s0.469 1.419 1.322 1.9l11.151 6.295c0.791 0.446 1.808 0.67 2.823 0.67s2.033-0.223 2.824-0.67l11.151-6.295c0.853-0.482 1.323-1.156 1.323-1.9s-0.47-1.419-1.323-1.9z"></path>
</svg>
