<?xml version="1.0" encoding="utf-8"?>
<!-- Generated by IcoMoon.io -->
<!DOCTYPE svg PUBLIC "-//W3C//DTD SVG 1.1//EN" "http://www.w3.org/Graphics/SVG/1.1/DTD/svg11.dtd">
<svg version="1.1" xmlns="http://www.w3.org/2000/svg" xmlns:xlink="http://www.w3.org/1999/xlink" width="32" height="32" viewBox="0 0 32 32">
<path d="M6.477 4.069l-2.731 2.73c-0.181 0.182-0.181 0.475 0 0.656 0.091 0.091 0.21 0.136 0.328 0.136s0.238-0.045 0.329-0.136l2.731-2.73c0.181-0.181 0.181-0.475 0-0.656s-0.475-0.181-0.657 0zM27.596 25.188l-2.731 2.73c-0.181 0.181-0.181 0.475 0 0.656 0.091 0.091 0.21 0.136 0.328 0.136s0.238-0.045 0.328-0.136l2.731-2.73c0.181-0.181 0.181-0.475 0-0.656s-0.476-0.182-0.657 0zM25.885 4.251c-0.181-0.181-0.475-0.181-0.656 0s-0.181 0.475 0 0.656l2.549 2.548c0.091 0.091 0.21 0.136 0.328 0.136s0.238-0.045 0.328-0.136c0.181-0.181 0.181-0.475 0-0.656l-2.55-2.548zM3.928 25.552c-0.181 0.181-0.181 0.475 0 0.656l2.549 2.548c0.091 0.091 0.21 0.136 0.329 0.136s0.238-0.045 0.329-0.136c0.181-0.181 0.181-0.475 0-0.656l-2.549-2.548c-0.183-0.181-0.476-0.181-0.657 0zM5.358 10.625c-0.189 0.353-0.354 0.716-0.505 1.080-1.215 2.936-1.216 6.302-0.001 9.236 0.187 0.452 0.396 0.884 0.62 1.283 0.541 0.966 1.212 1.852 1.993 2.634 0.895 0.896 1.92 1.642 3.048 2.217 0.286 0.146 0.576 0.275 0.87 0.396 1.468 0.608 3.022 0.916 4.617 0.916s3.149-0.308 4.618-0.916c0.001 0 0.001-0.001 0.002-0.002 0.365-0.15 0.726-0.316 1.077-0.504 1.044-0.559 1.999-1.268 2.838-2.108 0.839-0.838 1.548-1.793 2.108-2.839 0.188-0.353 0.355-0.714 0.506-1.080 0 0 0-0.001 0-0.001 1.213-2.935 1.213-6.3-0.001-9.233-0.122-0.293-0.252-0.586-0.396-0.87-0.574-1.127-1.321-2.151-2.217-3.048-0.78-0.78-1.666-1.45-2.633-1.992-0.398-0.224-0.831-0.433-1.284-0.621-2.935-1.215-6.295-1.215-9.235 0.001 0 0-0.001 0-0.001 0-0.367 0.152-0.728 0.316-1.080 0.506-1.043 0.559-1.997 1.268-2.836 2.107-0.839 0.838-1.549 1.792-2.107 2.837zM14.237 12.067c0 0 0 0 0 0 0.401-0.165 0.814-0.274 1.227-0.322 0.432-0.051 0.871-0.040 1.301 0.033 0.341 0.057 0.677 0.153 0.999 0.285 0 0 0 0 0.001 0 0.561 0.232 1.064 0.568 1.495 0.999 0.428 0.428 0.763 0.931 0.996 1.496 0 0 0 0 0 0.001s0 0 0 0c0.196 0.474 0.311 0.967 0.343 1.466 0.018 0.276 0.010 0.556-0.021 0.831-0.048 0.414-0.156 0.827-0.322 1.227 0 0 0 0 0 0s0 0 0 0.001c-0.233 0.565-0.568 1.068-0.996 1.496s-0.931 0.762-1.497 0.996c0 0 0 0 0 0-0.401 0.164-0.814 0.274-1.227 0.321-0.276 0.032-0.553 0.040-0.832 0.021-0.498-0.032-0.992-0.148-1.467-0.343-0.566-0.234-1.070-0.569-1.497-0.996-0.432-0.432-0.767-0.934-0.999-1.495-0.133-0.321-0.229-0.658-0.287-1-0.072-0.432-0.083-0.87-0.033-1.3 0.048-0.414 0.156-0.827 0.322-1.227 0 0 0 0 0 0s0 0 0-0.001c0.233-0.565 0.568-1.068 0.996-1.496 0.428-0.424 0.932-0.759 1.498-0.993zM26.46 12.493c0.896 2.457 0.896 5.201 0 7.66l-5.186-2.147c0.11-0.341 0.186-0.69 0.226-1.039 0.039-0.33 0.047-0.667 0.026-0.999-0.029-0.448-0.113-0.893-0.252-1.326l5.186-2.148zM10.54 17.241c0.044 0.259 0.106 0.515 0.185 0.765l-5.184 2.148c-0.896-2.457-0.896-5.201 0.001-7.66l5.185 2.147c-0.11 0.341-0.186 0.69-0.226 1.038-0.059 0.518-0.047 1.043 0.040 1.561zM8.121 24.202c-0.721-0.721-1.34-1.539-1.84-2.431-0.136-0.241-0.264-0.495-0.386-0.759l5.184-2.146c0.261 0.507 0.599 0.967 1.005 1.374 0.405 0.406 0.867 0.741 1.376 1.002l-2.149 5.189c-0.126-0.058-0.252-0.118-0.377-0.181-1.040-0.533-1.987-1.22-2.813-2.047zM12.17 26.783l2.148-5.187c0.433 0.139 0.878 0.224 1.325 0.252 0.332 0.019 0.666 0.014 1-0.026 0.349-0.041 0.696-0.117 1.038-0.226l2.148 5.187c-2.453 0.898-5.207 0.898-7.66 0zM23.879 24.202c-0.774 0.775-1.656 1.429-2.621 1.946-0.187 0.1-0.378 0.194-0.57 0.282l-2.149-5.189c0.51-0.261 0.972-0.597 1.376-1.002s0.741-0.867 1.002-1.376l5.188 2.148c-0.088 0.193-0.181 0.383-0.282 0.571-0.515 0.965-1.169 1.846-1.944 2.62zM23.879 8.444c0.828 0.828 1.515 1.773 2.046 2.814 0.064 0.124 0.123 0.25 0.182 0.377l-5.189 2.148c-0.262-0.509-0.597-0.972-1.002-1.376-0.407-0.407-0.869-0.745-1.375-1.006l2.148-5.184c0.265 0.122 0.52 0.252 0.76 0.387 0.892 0.5 1.709 1.119 2.43 1.84zM19.831 5.863l-2.148 5.185c-0.251-0.080-0.507-0.141-0.765-0.185-0.513-0.087-1.039-0.1-1.562-0.039-0.349 0.041-0.696 0.117-1.038 0.226l-2.148-5.187c2.455-0.899 5.208-0.899 7.661-0.001zM10.741 6.498c0.187-0.1 0.378-0.194 0.571-0.281l2.148 5.188c-0.51 0.261-0.972 0.598-1.376 1.002s-0.741 0.867-1.002 1.376l-5.188-2.148c0.087-0.193 0.18-0.383 0.281-0.571 0.517-0.965 1.171-1.846 1.946-2.62s1.656-1.429 2.62-1.946zM22.884 28.425c-4.247 2.419-9.522 2.419-13.769 0-0.224-0.126-0.507-0.050-0.633 0.174-0.127 0.222-0.049 0.506 0.174 0.633 2.265 1.291 4.804 1.935 7.344 1.935s5.079-0.644 7.344-1.935c0.223-0.127 0.301-0.41 0.174-0.633-0.128-0.225-0.411-0.301-0.634-0.174zM3.091 8.98c-2.581 4.53-2.581 10.157 0 14.687 0.085 0.15 0.242 0.235 0.404 0.235 0.078 0 0.157-0.019 0.229-0.060 0.223-0.127 0.301-0.41 0.174-0.633-2.419-4.247-2.419-9.523 0-13.77 0.127-0.222 0.049-0.506-0.174-0.633-0.224-0.125-0.507-0.048-0.633 0.174zM28.909 23.666c2.581-4.53 2.581-10.157 0-14.687-0.127-0.223-0.412-0.3-0.633-0.174-0.223 0.127-0.301 0.41-0.174 0.633 2.419 4.247 2.419 9.523 0 13.77-0.127 0.222-0.049 0.506 0.174 0.633 0.072 0.041 0.151 0.060 0.229 0.060 0.161 0 0.318-0.084 0.404-0.235zM9.116 4.221c4.247-2.419 9.522-2.419 13.769 0 0.072 0.041 0.151 0.060 0.229 0.060 0.161 0 0.318-0.084 0.404-0.235 0.127-0.222 0.049-0.506-0.174-0.633-4.531-2.581-10.157-2.581-14.688 0-0.223 0.127-0.301 0.41-0.174 0.633s0.409 0.299 0.633 0.174z"></path>
</svg>
