<?xml version="1.0" encoding="utf-8"?>
<!-- Generated by IcoMoon.io -->
<!DOCTYPE svg PUBLIC "-//W3C//DTD SVG 1.1//EN" "http://www.w3.org/Graphics/SVG/1.1/DTD/svg11.dtd">
<svg version="1.1" xmlns="http://www.w3.org/2000/svg" xmlns:xlink="http://www.w3.org/1999/xlink" width="32" height="32" viewBox="0 0 32 32">
<path d="M16 0.5c-5.125 0-10.656 4.075-10.656 10.656 0 3.248 1.292 5.981 3.774 8.052 0.026 0.033 0.056 0.061 0.089 0.085 1.842 1.998 1.935 2.377 1.947 3.256 0.006 0.348 0.003 0.45 0 0.507l-0.004 0.202c-0.015 0.438-0.037 1.171 0.871 1.448l7.841 1.725c0.035 0.008 0.070 0.012 0.104 0.012 0.223 0 0.423-0.154 0.473-0.381 0.058-0.262-0.108-0.52-0.369-0.577l-7.803-1.716c-0.15-0.046-0.163-0.049-0.149-0.482l0.003-0.185c0 0 0.010-0.076 0.002-0.568-0.018-1.229-0.286-1.823-2.237-3.932-0.038-0.047-0.083-0.085-0.134-0.114-2.282-1.94-3.439-4.407-3.439-7.332 0-5.984 5.028-9.688 9.688-9.688 4.762 0 9.688 3.624 9.688 9.688 0 3.854-1.868 5.978-3.408 7.315-0.053 0.025-0.101 0.061-0.142 0.106-1.973 2.135-2.241 2.729-2.259 3.958 0 0.029-0.001 0.063 0 0.1l-0.001 0.034c-0.003 0.074-0.014 0.114-0.013 0.13-0.033-0.005-0.113-0.017-0.113-0.017l-4.064-0.956c-0.264-0.060-0.521 0.101-0.582 0.36s0.1 0.521 0.36 0.583l4.014 0.942c0.053 0.019 0.536 0.176 0.943-0.109 0.177-0.125 0.384-0.37 0.42-0.839l0.003-0.046c0.001-0.031 0.002-0.063 0.002-0.096 0-0.009 0-0.017-0.001-0.025l0.001-0.045c0.013-0.874 0.104-1.254 1.942-3.251 0.009-0.007 0.018-0.014 0.026-0.021 2.584-2.171 3.84-4.828 3.84-8.122 0-6.67-5.418-10.656-10.656-10.656zM19.875 29.078c0.222 0 0.421-0.152 0.472-0.378 0.060-0.261-0.104-0.52-0.365-0.579l-7.75-1.757c-0.263-0.058-0.52 0.105-0.579 0.365s0.104 0.52 0.365 0.579l7.75 1.757c0.037 0.009 0.073 0.013 0.108 0.013zM12.715 29.13c-0.263-0.058-0.519 0.106-0.579 0.366-0.058 0.262 0.106 0.52 0.367 0.578l6.297 1.412c0.037 0.009 0.072 0.013 0.107 0.013 0.222 0 0.422-0.153 0.473-0.379 0.058-0.262-0.106-0.52-0.367-0.578l-6.297-1.412z"></path>
</svg>
