<?xml version="1.0" encoding="utf-8"?>
<!-- Generated by IcoMoon.io -->
<!DOCTYPE svg PUBLIC "-//W3C//DTD SVG 1.1//EN" "http://www.w3.org/Graphics/SVG/1.1/DTD/svg11.dtd">
<svg version="1.1" xmlns="http://www.w3.org/2000/svg" xmlns:xlink="http://www.w3.org/1999/xlink" width="32" height="32" viewBox="0 0 32 32">
<path d="M29.152 4.31c-1.209 0-2.192 0.983-2.192 2.192 0 0.649 0.289 1.227 0.739 1.629l-6.43 10.252c-0.271-0.121-0.57-0.19-0.885-0.19-0.634 0-1.201 0.275-1.602 0.707l-6.629-4.198c0.123-0.273 0.194-0.574 0.194-0.893 0-1.208-0.983-2.192-2.192-2.192s-2.192 0.983-2.192 2.192c0 0.661 0.3 1.246 0.763 1.648l-5.038 8.019c-0.259-0.108-0.542-0.169-0.84-0.169-1.208 0-2.192 0.983-2.192 2.192s0.983 2.192 2.192 2.192 2.192-0.983 2.192-2.192c0-0.649-0.289-1.226-0.738-1.628l5.044-8.030c0.251 0.101 0.522 0.159 0.808 0.159 0.628 0 1.19-0.268 1.59-0.692l6.633 4.2c-0.118 0.269-0.186 0.564-0.186 0.876 0 1.209 0.983 2.192 2.192 2.192s2.192-0.983 2.192-2.192c0-0.631-0.271-1.195-0.699-1.596l6.437-10.263c0.259 0.107 0.541 0.168 0.838 0.168 1.209 0 2.192-0.983 2.192-2.192s-0.983-2.192-2.192-2.192zM4.31 25.498c0 0.806-0.655 1.461-1.461 1.461s-1.461-0.655-1.461-1.461 0.655-1.461 1.461-1.461 1.461 0.655 1.461 1.461zM10.155 15.269c-0.806 0-1.461-0.655-1.461-1.461s0.655-1.461 1.461-1.461 1.461 0.655 1.461 1.461-0.655 1.461-1.461 1.461zM20.384 21.845c-0.806 0-1.461-0.655-1.461-1.461s0.655-1.461 1.461-1.461 1.461 0.655 1.461 1.461-0.655 1.461-1.461 1.461zM29.152 7.963c-0.806 0-1.461-0.655-1.461-1.461s0.655-1.461 1.461-1.461 1.461 0.655 1.461 1.461-0.655 1.461-1.461 1.461z"></path>
</svg>
