<?xml version="1.0" encoding="utf-8"?>
<!-- Generated by IcoMoon.io -->
<!DOCTYPE svg PUBLIC "-//W3C//DTD SVG 1.1//EN" "http://www.w3.org/Graphics/SVG/1.1/DTD/svg11.dtd">
<svg version="1.1" xmlns="http://www.w3.org/2000/svg" xmlns:xlink="http://www.w3.org/1999/xlink" width="32" height="32" viewBox="0 0 32 32">
<path d="M19.398 12.087c-0.655 0-1.141 0.165-1.521 0.374-0.061-0.217-0.261-0.375-0.497-0.328h-2.885c-0.285-0.047-0.516 0.184-0.428 0.483v10.634c-0.088 0.271 0.143 0.503 0.428 0.483h2.885c0.285 0.019 0.516-0.213 0.516-0.498l-0.001-6.427c-0.001-0.003-0.012-0.31 0.183-0.522 0.156-0.168 0.423-0.254 0.794-0.254 0.617 0 0.891 0.252 0.994 0.817v6.386c-0.102 0.285 0.13 0.517 0.415 0.498h3.040c0.285 0.019 0.516-0.213 0.414-0.498v-6.601c0.102-3.356-2.289-4.548-4.337-4.548zM22.804 22.767h-2.007v-5.917c0-1.142-0.738-1.849-1.924-1.849-0.671 0-1.193 0.197-1.552 0.586-0.5 0.541-0.461 1.228-0.354 1.38v5.8h-1.955v-9.648h1.852v0.325c0 0.196 0.111 0.377 0.288 0.463s0.387 0.065 0.543-0.054l0.135-0.104c0.392-0.308 0.797-0.628 1.568-0.628 0.799 0 3.406 0.254 3.406 3.516v6.131zM11.166 7.267c-1.085 0-1.966 0.882-1.966 1.966s0.882 1.966 1.966 1.966 1.966-0.882 1.966-1.966-0.882-1.966-1.966-1.966zM11.166 10.167c-0.514 0-0.934-0.42-0.934-0.934s0.42-0.934 0.934-0.934 0.934 0.42 0.934 0.934-0.42 0.934-0.934 0.934zM12.547 12.086h-2.869c-0.285 0-0.516 0.231-0.445 0.531v10.634c-0.072 0.271 0.159 0.503 0.445 0.483h2.869c0.285 0.019 0.516-0.213 0.516-0.498v-10.634c0-0.285-0.231-0.516-0.516-0.516zM12.133 22.767h-1.939v-9.648h1.939v9.648zM16 0.5c-8.548 0-15.5 6.952-15.5 15.5s6.952 15.5 15.5 15.5 15.5-6.952 15.5-15.5-6.952-15.5-15.5-15.5zM16 30.468c-7.977 0-14.468-6.49-14.468-14.468s6.49-14.468 14.468-14.468 14.468 6.49 14.468 14.468-6.49 14.468-14.468 14.468z"></path>
</svg>
