<?xml version="1.0" encoding="utf-8"?>
<!-- Generated by IcoMoon.io -->
<!DOCTYPE svg PUBLIC "-//W3C//DTD SVG 1.1//EN" "http://www.w3.org/Graphics/SVG/1.1/DTD/svg11.dtd">
<svg version="1.1" xmlns="http://www.w3.org/2000/svg" xmlns:xlink="http://www.w3.org/1999/xlink" width="32" height="32" viewBox="0 0 32 32">
<path d="M16 0.5c-5.342 0-9.688 4.346-9.688 9.688v2.906h-1.453c-1.335 0-2.422 1.087-2.422 2.422v13.563c0 1.335 1.087 2.422 2.422 2.422h22.281c1.335 0 2.422-1.087 2.422-2.422v-13.563c0-1.335-1.087-2.422-2.422-2.422h-1.453v-2.906c0-5.342-4.346-9.688-9.688-9.688zM7.281 10.188c0-4.807 3.912-8.719 8.719-8.719s8.719 3.912 8.719 8.719v2.906h-2.906v-2.906c0-3.206-2.607-5.813-5.813-5.813s-5.813 2.607-5.813 5.813v2.906h-2.906v-2.906zM20.844 13.094h-9.688v-2.906c0-2.671 2.173-4.844 4.844-4.844s4.844 2.173 4.844 4.844v2.906zM14.346 20.844l-4.844 4.844h-4.443l4.844-4.844h4.443zM20.159 20.844l-4.844 4.844h-4.443l4.844-4.844h4.443zM25.971 20.844l-4.844 4.844h-4.443l4.844-4.844h4.443zM28.594 20.844v4.844h-6.096l4.844-4.844h1.253zM3.69 25.688h-0.284v-4.844h5.128l-4.844 4.844zM27.141 30.531h-22.281c-0.801 0-1.453-0.652-1.453-1.453v-2.422h25.188v2.422c0 0.801-0.652 1.453-1.453 1.453zM28.594 15.516v4.359h-25.188v-4.359c0-0.801 0.652-1.453 1.453-1.453h22.281c0.801 0 1.453 0.652 1.453 1.453z"></path>
</svg>
