<?xml version="1.0" encoding="utf-8"?>
<!-- Generated by IcoMoon.io -->
<!DOCTYPE svg PUBLIC "-//W3C//DTD SVG 1.1//EN" "http://www.w3.org/Graphics/SVG/1.1/DTD/svg11.dtd">
<svg version="1.1" xmlns="http://www.w3.org/2000/svg" xmlns:xlink="http://www.w3.org/1999/xlink" width="32" height="32" viewBox="0 0 32 32">
<path d="M10.672 0.5c-5.609 0-10.172 4.563-10.172 10.172s4.563 10.172 10.172 10.172c2.64 0 5.040-1.019 6.85-2.674 0.021 0.038 0.041 0.078 0.074 0.11l2.084 2.084c-0.174 0.294-0.273 0.628-0.273 0.979 0 0.517 0.201 1.004 0.568 1.37l8.22 8.22c0.365 0.365 0.852 0.567 1.369 0.567s1.004-0.201 1.37-0.568 0.568-0.852 0.568-1.37-0.201-1.004-0.568-1.37l-8.22-8.22c-0.614-0.614-1.607-0.706-2.344-0.29l-2.088-2.088c-0.033-0.033-0.072-0.052-0.11-0.074 1.655-1.81 2.674-4.21 2.674-6.85 0-5.609-4.563-10.172-10.172-10.172zM22.028 20.658l8.22 8.22c0.183 0.183 0.284 0.426 0.284 0.685s-0.101 0.502-0.284 0.685c-0.367 0.365-1.003 0.365-1.37 0l-8.22-8.22c-0.182-0.183-0.284-0.426-0.284-0.685s0.101-0.502 0.284-0.685c0.183-0.182 0.426-0.284 0.685-0.284s0.501 0.101 0.685 0.284zM10.672 19.875c-5.074 0-9.203-4.129-9.203-9.203s4.129-9.203 9.203-9.203 9.203 4.129 9.203 9.203-4.129 9.203-9.203 9.203zM10.672 3.406c-4.007 0-7.266 3.259-7.266 7.266s3.259 7.266 7.266 7.266 7.266-3.259 7.266-7.266-3.259-7.266-7.266-7.266zM10.672 16.969c-3.472 0-6.297-2.825-6.297-6.297s2.825-6.297 6.297-6.297 6.297 2.825 6.297 6.297-2.825 6.297-6.297 6.297z"></path>
</svg>
