<?xml version="1.0" encoding="utf-8"?>
<!-- Generated by IcoMoon.io -->
<!DOCTYPE svg PUBLIC "-//W3C//DTD SVG 1.1//EN" "http://www.w3.org/Graphics/SVG/1.1/DTD/svg11.dtd">
<svg version="1.1" xmlns="http://www.w3.org/2000/svg" xmlns:xlink="http://www.w3.org/1999/xlink" width="32" height="32" viewBox="0 0 32 32">
<path d="M16 0.5c-6.41 0-11.625 5.225-11.625 11.646 0 9.617 10.851 18.851 11.313 19.239 0.090 0.077 0.201 0.114 0.312 0.114s0.219-0.037 0.308-0.11c0.462-0.382 11.317-9.457 11.317-19.243 0-6.421-5.215-11.646-11.625-11.646zM16.002 30.374c-1.783-1.594-10.658-9.938-10.658-18.228 0-5.888 4.781-10.678 10.656-10.678s10.656 4.79 10.656 10.678c0 8.43-8.866 16.656-10.654 18.228zM16 6.313c-3.206 0-5.813 2.607-5.813 5.813s2.607 5.813 5.813 5.813 5.813-2.607 5.813-5.813-2.607-5.813-5.813-5.813zM16 16.969c-2.671 0-4.844-2.173-4.844-4.844s2.173-4.844 4.844-4.844 4.844 2.173 4.844 4.844-2.173 4.844-4.844 4.844z"></path>
</svg>
