<?xml version="1.0" encoding="utf-8"?>
<!-- Generated by IcoMoon.io -->
<!DOCTYPE svg PUBLIC "-//W3C//DTD SVG 1.1//EN" "http://www.w3.org/Graphics/SVG/1.1/DTD/svg11.dtd">
<svg version="1.1" xmlns="http://www.w3.org/2000/svg" xmlns:xlink="http://www.w3.org/1999/xlink" width="32" height="32" viewBox="0 0 32 32">
<path d="M7.581 27.908c0.007 0.005 0.016 0.002 0.022 0.007 0.055 0.028 0.111 0.048 0.173 0.048 0.033 0 0.066-0.005 0.099-0.013l8.126-2.218 8.126 2.218c0.033 0.009 0.066 0.013 0.099 0.013 0.061 0 0.118-0.020 0.172-0.049 0.007-0.004 0.016-0.002 0.022-0.007l6.729-4.112c0.143-0.087 0.21-0.26 0.165-0.421l-3.726-13.084c-0.031-0.11-0.111-0.2-0.217-0.244-0.106-0.043-0.225-0.036-0.326 0.019l-3.71 2.082c-0.179 0.101-0.244 0.329-0.143 0.509s0.328 0.245 0.51 0.143l3.296-1.85 3.519 12.356-5.992 3.663-1.424-11.388c-0.025-0.206-0.219-0.348-0.418-0.325-0.204 0.025-0.35 0.212-0.325 0.417l1.426 11.409-7.409-2.022v-2.041c0-0.206-0.167-0.374-0.374-0.374s-0.374 0.167-0.374 0.374v2.041l-7.41 2.022 1.426-11.409c0.025-0.205-0.12-0.392-0.325-0.417-0.203-0.024-0.392 0.119-0.418 0.325l-1.423 11.388-5.992-3.662 3.519-12.355 3.296 1.85c0.181 0.1 0.408 0.037 0.51-0.143s0.037-0.407-0.143-0.509l-3.711-2.082c-0.099-0.056-0.218-0.064-0.325-0.019s-0.186 0.133-0.217 0.244l-3.726 13.084c-0.046 0.162 0.021 0.333 0.164 0.421l6.728 4.112zM15.747 21.509c0.072 0.066 0.162 0.099 0.253 0.099 0.090 0 0.179-0.032 0.251-0.096 0.249-0.227 6.104-5.599 6.104-11.118 0-3.564-2.791-6.355-6.355-6.355s-6.355 2.791-6.355 6.355c0 5.424 5.853 10.886 6.102 11.116zM16 4.785c3.196 0 5.607 2.41 5.607 5.607 0 4.559-4.481 9.224-5.605 10.323-1.122-1.112-5.61-5.838-5.61-10.323 0-3.197 2.411-5.607 5.607-5.607zM19.365 10.393c0-1.855-1.51-3.364-3.364-3.364s-3.364 1.51-3.364 3.364 1.51 3.364 3.364 3.364 3.364-1.51 3.364-3.364zM16 13.009c-1.443 0-2.617-1.174-2.617-2.617s1.174-2.617 2.617-2.617 2.617 1.174 2.617 2.617-1.174 2.617-2.617 2.617z"></path>
</svg>
