<?xml version="1.0" encoding="utf-8"?>
<!-- Generated by IcoMoon.io -->
<!DOCTYPE svg PUBLIC "-//W3C//DTD SVG 1.1//EN" "http://www.w3.org/Graphics/SVG/1.1/DTD/svg11.dtd">
<svg version="1.1" xmlns="http://www.w3.org/2000/svg" xmlns:xlink="http://www.w3.org/1999/xlink" width="32" height="32" viewBox="0 0 32 32">
<path d="M30.991 3.699c-0.213 0-0.383 0.172-0.383 0.384v23.832c0 0.212 0.17 0.384 0.383 0.384s0.384-0.172 0.384-0.384v-23.832c0-0.212-0.172-0.384-0.384-0.384zM29.621 4.625c-0.131-0.064-0.289-0.048-0.404 0.042l-0.434 0.342c-2.289 1.811-6.119 4.84-13.935 4.84h-10.662c-1.115 0-2.023 0.923-2.023 2.056v8.237c0 1.107 0.907 2.008 2.023 2.008h2.609c0.068 0.865 0.386 2.917 1.887 4.429 1.133 1.142 2.691 1.721 4.629 1.721 0.212 0 0.384-0.172 0.384-0.384s-0.172-0.384-0.384-0.384c-1.724 0-3.095-0.501-4.079-1.49-1.282-1.288-1.589-3.094-1.663-3.892h2.303c0.065 0.524 0.277 1.446 0.979 2.154 0.607 0.611 1.435 0.921 2.46 0.921 0.212 0 0.384-0.172 0.384-0.384s-0.172-0.384-0.384-0.384c-0.811 0-1.454-0.232-1.91-0.689-0.505-0.507-0.687-1.189-0.754-1.618h4.148c7.854 0 11.714 3.047 14.020 4.867l0.401 0.316c0.068 0.054 0.152 0.081 0.236 0.081 0.058 0 0.115-0.013 0.168-0.039 0.132-0.065 0.216-0.198 0.216-0.345v-22.060c0.001-0.147-0.083-0.281-0.215-0.345zM2.931 20.142v-8.237c0-0.71 0.562-1.287 1.254-1.287h2.59v10.763h-2.59c-0.703 0-1.254-0.544-1.254-1.239zM29.070 26.238c-2.409-1.896-6.402-4.856-14.275-4.856h-4.457c-0.036-0.012-0.073-0.023-0.114-0.024-0.001 0-0.001 0-0.002 0-0.041 0-0.081 0.012-0.118 0.024h-2.561v-10.763h7.303c7.87 0 11.835-2.971 14.223-4.856v20.475zM1.009 20.503c0.212 0 0.384-0.172 0.384-0.384v-8.237c0-0.212-0.172-0.384-0.384-0.384s-0.384 0.171-0.384 0.384v8.237c0 0.212 0.172 0.384 0.384 0.384z"></path>
</svg>
