<?xml version="1.0" encoding="utf-8"?>
<!-- Generated by IcoMoon.io -->
<!DOCTYPE svg PUBLIC "-//W3C//DTD SVG 1.1//EN" "http://www.w3.org/Graphics/SVG/1.1/DTD/svg11.dtd">
<svg version="1.1" xmlns="http://www.w3.org/2000/svg" xmlns:xlink="http://www.w3.org/1999/xlink" width="32" height="32" viewBox="0 0 32 32">
<path d="M15.483 23.765v3.864h-2.87c-1.104 0-1.935 0.831-1.935 1.935v1.452c0 0.267 0.217 0.484 0.484 0.484h9.677c0.267 0 0.484-0.217 0.484-0.484v-1.379c0-1.126-0.851-2.008-1.935-2.008h-2.936v-3.864c3.845-0.269 6.84-3.445 6.84-7.32v-1.826c0-0.285-0.231-0.517-0.517-0.517s-0.517 0.232-0.517 0.518v1.826c0 3.481-2.806 6.311-6.257 6.311s-6.257-2.832-6.257-6.311v-1.826c0-0.285-0.231-0.517-0.517-0.517s-0.517 0.231-0.517 0.517v1.826c0 3.874 2.995 7.050 6.774 7.319zM20.355 29.637v0.895h-8.71v-0.968c0-0.57 0.398-0.968 0.968-0.968h6.774c0.552 0 0.968 0.447 0.968 1.040zM16 0.5c-2.419 0-4.388 1.993-4.388 4.443v11.503c0 2.449 1.968 4.443 4.388 4.443s4.388-1.994 4.322-4.443v-11.503c0.066-2.45-1.903-4.443-4.322-4.443zM19.354 16.445c0 1.879-1.505 3.408-3.354 3.408s-3.42-1.528-3.42-3.408v-11.502c0-1.879 1.571-3.408 3.42-3.408s3.354 1.528 3.354 3.408v11.502z"></path>
</svg>
