<?xml version="1.0" encoding="utf-8"?>
<!-- Generated by IcoMoon.io -->
<!DOCTYPE svg PUBLIC "-//W3C//DTD SVG 1.1//EN" "http://www.w3.org/Graphics/SVG/1.1/DTD/svg11.dtd">
<svg version="1.1" xmlns="http://www.w3.org/2000/svg" xmlns:xlink="http://www.w3.org/1999/xlink" width="32" height="32" viewBox="0 0 32 32">
<path d="M1.953 31.5h13.563c0.267 0 0.484-0.217 0.484-0.484s-0.217-0.484-0.484-0.484h-13.563c-0.267 0-0.484-0.217-0.484-0.484v-28.094c0-0.267 0.217-0.484 0.484-0.484h20.344c0.267 0 0.484 0.217 0.484 0.484v4.844c0 0.267 0.217 0.484 0.484 0.484s0.484-0.217 0.484-0.484v-4.844c0-0.801-0.652-1.453-1.453-1.453h-20.344c-0.801 0-1.453 0.652-1.453 1.453v28.094c0 0.801 0.652 1.453 1.453 1.453zM17.938 10.672v19.375c0 0.801 0.652 1.453 1.453 1.453h10.656c0.801 0 1.453-0.652 1.453-1.453v-19.375c0-0.801-0.652-1.453-1.453-1.453h-10.656c-0.801 0-1.453 0.652-1.453 1.453zM30.531 10.672v19.375c0 0.267-0.217 0.484-0.484 0.484h-10.656c-0.267 0-0.484-0.217-0.484-0.484v-19.375c0-0.267 0.217-0.484 0.484-0.484h10.656c0.267 0 0.484 0.217 0.484 0.484zM11.156 27.625c0 0.535 0.434 0.969 0.969 0.969s0.969-0.434 0.969-0.969c0-0.535-0.434-0.969-0.969-0.969s-0.969 0.434-0.969 0.969zM23.75 27.625c0 0.535 0.434 0.969 0.969 0.969s0.969-0.434 0.969-0.969c0-0.535-0.434-0.969-0.969-0.969s-0.969 0.434-0.969 0.969z"></path>
</svg>
