<?xml version="1.0" encoding="utf-8"?>
<!-- Generated by IcoMoon.io -->
<!DOCTYPE svg PUBLIC "-//W3C//DTD SVG 1.1//EN" "http://www.w3.org/Graphics/SVG/1.1/DTD/svg11.dtd">
<svg version="1.1" xmlns="http://www.w3.org/2000/svg" xmlns:xlink="http://www.w3.org/1999/xlink" width="32" height="32" viewBox="0 0 32 32">
<path d="M27.72 25.542c0.876 0 1.465-0.589 1.465-1.465v-19.412c0-0.202-0.164-0.366-0.366-0.366s-0.366 0.164-0.366 0.366v19.412c0 0.637-0.459 0.733-0.733 0.733-0.075 0-0.733-0.020-0.733-0.733v-19.412c0-0.202-0.164-0.366-0.366-0.366s-0.366 0.164-0.366 0.366v19.412c0 0.962 0.737 1.465 1.465 1.465zM3.913 19.682h7.325c0.202 0 0.366-0.164 0.366-0.366v-6.593c0-0.202-0.164-0.366-0.366-0.366h-7.325c-0.202 0-0.366 0.164-0.366 0.366v6.593c0 0.202 0.164 0.366 0.366 0.366zM4.279 13.089h6.593v5.86h-6.593v-5.86zM3.913 10.159h17.58c0.202 0 0.366-0.164 0.366-0.366v-2.93c0-0.202-0.164-0.366-0.366-0.366h-17.58c-0.202 0-0.366 0.164-0.366 0.366v2.93c0 0.202 0.164 0.366 0.366 0.366zM4.279 7.229h16.848v2.198h-16.848v-2.198zM21.493 12.357h-7.325c-0.202 0-0.366 0.164-0.366 0.366s0.164 0.366 0.366 0.366h7.325c0.202 0 0.366-0.164 0.366-0.366s-0.164-0.366-0.366-0.366zM21.493 14.554h-7.325c-0.202 0-0.366 0.164-0.366 0.366s0.164 0.366 0.366 0.366h7.325c0.202 0 0.366-0.164 0.366-0.366s-0.164-0.366-0.366-0.366zM21.493 16.752h-7.325c-0.202 0-0.366 0.164-0.366 0.366s0.164 0.366 0.366 0.366h7.325c0.202 0 0.366-0.164 0.366-0.366s-0.164-0.366-0.366-0.366zM21.493 18.949h-7.325c-0.202 0-0.366 0.164-0.366 0.366s0.164 0.366 0.366 0.366h7.325c0.202 0 0.366-0.164 0.366-0.366s-0.164-0.366-0.366-0.366zM21.493 21.147h-7.325c-0.202 0-0.366 0.164-0.366 0.366s0.164 0.366 0.366 0.366h7.325c0.202 0 0.366-0.164 0.366-0.366s-0.164-0.366-0.366-0.366zM3.913 21.88h7.325c0.202 0 0.366-0.164 0.366-0.366s-0.164-0.366-0.366-0.366h-7.325c-0.202 0-0.366 0.164-0.366 0.366s0.164 0.366 0.366 0.366zM21.493 23.345h-7.325c-0.202 0-0.366 0.164-0.366 0.366s0.164 0.366 0.366 0.366h7.325c0.202 0 0.366-0.164 0.366-0.366s-0.164-0.366-0.366-0.366zM3.913 24.077h7.325c0.202 0 0.366-0.164 0.366-0.366s-0.164-0.366-0.366-0.366h-7.325c-0.202 0-0.366 0.164-0.366 0.366s0.164 0.366 0.366 0.366zM4.279 27.701h23.44c0.006 0 0.012 0 0.015 0 0.005 0 0.010-0.003 0.015-0.003 1.984-0.016 3.595-1.633 3.595-3.621v-19.412c0-0.181-0.146-0.327-0.327-0.327s-0.327 0.146-0.327 0.327v19.412c0 1.637-1.332 2.969-2.969 2.969s-2.97-1.332-2.97-2.969v-19.412c0-0.181-0.146-0.327-0.327-0.327h-23.44c-0.181 0-0.327 0.146-0.327 0.327v19.412c0 1.998 1.625 3.624 3.624 3.624zM1.311 4.993h22.785v19.084c0 0.224 0.027 0.442 0.066 0.656 0.008 0.043 0.015 0.085 0.024 0.127 0.045 0.204 0.105 0.401 0.184 0.59 0.014 0.034 0.031 0.067 0.046 0.1 0.079 0.177 0.171 0.348 0.277 0.509 0.012 0.018 0.022 0.038 0.034 0.056 0.116 0.169 0.248 0.325 0.389 0.471 0.031 0.032 0.061 0.062 0.093 0.093 0.136 0.132 0.28 0.257 0.435 0.366h-21.364c-1.636 0-2.969-1.332-2.969-2.969v-19.084z"></path>
</svg>
