<?xml version="1.0" encoding="utf-8"?>
<!-- Generated by IcoMoon.io -->
<!DOCTYPE svg PUBLIC "-//W3C//DTD SVG 1.1//EN" "http://www.w3.org/Graphics/SVG/1.1/DTD/svg11.dtd">
<svg version="1.1" xmlns="http://www.w3.org/2000/svg" xmlns:xlink="http://www.w3.org/1999/xlink" width="32" height="32" viewBox="0 0 32 32">
<path d="M20.265 20.844h4.437c1.020 0 1.849-0.829 1.954-1.849v-16.645c-0.105-1.020-0.934-1.849-1.954-1.849h-17.405c-1.020 0-1.849 0.829-1.954 1.849v16.645c0.105 1.020 0.934 1.849 1.954 1.849h4.807c0.337 0 2.018 0.072 2.018 1.494 0 2.54-0.536 3.722-0.738 4.168l-0.047 0.106 0.39 0.169v0.013l-0.433-0.087c-0.016 0.032-0.029 0.066-0.037 0.101-0.149 0.398-0.225 0.807-0.225 1.218 0.001 2.080 1.193 3.477 2.967 3.477 1.793 0 2.997-1.397 2.997-3.477 0-0.379-0.064-0.756-0.192-1.125-0.005-0.11-0.047-0.213-0.115-0.293-0.025-0.058-0.058-0.121-0.098-0.196-0.212-0.402-0.655-1.237-0.655-4.073 0-0.601 0.62-1.494 2.328-1.494zM6.313 12.182h19.375v3.818h-19.375v-3.818zM7.298 1.469h17.405c0.485 0 0.881 0.395 0.985 0.881v8.863h-19.375v-8.863c0.105-0.485 0.5-0.881 0.985-0.881zM17.736 26.864c0.027 0.051 0.050 0.094 0.090 0.183 0 0.001 0.003 0.007 0.007 0.015 0.004 0.013 0.008 0.024 0.013 0.037 0.121 0.303 0.182 0.615 0.182 0.924 0.001 1.213-0.532 2.508-2.028 2.508-1.473 0-1.998-1.295-1.998-2.508 0-0.309 0.061-0.621 0.182-0.924 0.004-0.012 0.009-0.022 0.012-0.034 0.014-0.029 0.030-0.066 0.032-0.070l0.041-0.090c0.225-0.498 0.824-1.817 0.824-4.568-0.002-1.944-1.878-2.463-3.017-2.463 0 0 0 0-0.001 0h-4.778c-0.485 0-0.881-0.395-0.985-0.881v-2.026h19.375v2.026c-0.105 0.485-0.5 0.881-0.985 0.881h-4.437c-2.419 0-3.297 1.473-3.297 2.463 0 3.076 0.518 4.056 0.767 4.526z"></path>
</svg>
