<?xml version="1.0" encoding="utf-8"?>
<!-- Generated by IcoMoon.io -->
<!DOCTYPE svg PUBLIC "-//W3C//DTD SVG 1.1//EN" "http://www.w3.org/Graphics/SVG/1.1/DTD/svg11.dtd">
<svg version="1.1" xmlns="http://www.w3.org/2000/svg" xmlns:xlink="http://www.w3.org/1999/xlink" width="32" height="32" viewBox="0 0 32 32">
<path d="M5.898 30.339c1.816 0 3.77-0.925 5.143-2.299l15.216-15.473c0.78-0.78 1.215-1.815 1.222-2.912 0.008-1.1-0.414-2.131-1.186-2.904-1.593-1.593-4.201-1.578-5.824 0.043l-11.663 12.194c-0.183 0.192-0.177 0.497 0.016 0.681s0.496 0.177 0.681-0.015l11.655-12.187c1.237-1.238 3.236-1.254 4.453-0.036 0.589 0.589 0.91 1.375 0.904 2.215-0.005 0.843-0.34 1.637-0.943 2.241l-15.216 15.474c-1.601 1.6-4.89 3.051-6.863 1.076-0.935-0.935-1.403-2.081-1.355-3.316 0.048-1.226 0.625-2.451 1.629-3.454l17.39-17.65c0.925-0.925 2.369-1.46 3.962-1.465 0.010 0 0.019 0 0.029 0 1.579 0 3.004 0.52 3.913 1.429 0.916 0.915 1.437 2.351 1.43 3.942-0.006 1.592-0.542 3.036-1.473 3.967l-13.424 13.956c-0.185 0.192-0.178 0.497 0.014 0.681s0.497 0.178 0.68-0.014l13.418-13.949c1.104-1.103 1.741-2.794 1.747-4.638 0.008-1.845-0.616-3.532-1.711-4.627-1.089-1.089-2.761-1.712-4.595-1.712-0.011 0-0.022 0-0.032 0-1.845 0.007-3.536 0.644-4.641 1.75l-17.391 17.651c-2.434 2.434-2.548 5.854-0.271 8.13 0.853 0.853 1.941 1.22 3.085 1.22z"></path>
</svg>
