<?xml version="1.0" encoding="utf-8"?>
<!-- Generated by IcoMoon.io -->
<!DOCTYPE svg PUBLIC "-//W3C//DTD SVG 1.1//EN" "http://www.w3.org/Graphics/SVG/1.1/DTD/svg11.dtd">
<svg version="1.1" xmlns="http://www.w3.org/2000/svg" xmlns:xlink="http://www.w3.org/1999/xlink" width="32" height="32" viewBox="0 0 32 32">
<path d="M0.501 31.017c0 0.266 0.216 0.483 0.483 0.483h30.032c0.065 0 0.127-0.013 0.186-0.038s0.112-0.061 0.156-0.105c0.001-0.001 0.002-0.001 0.003-0.002 0.003-0.003 0.003-0.009 0.007-0.012 0.049-0.053 0.081-0.118 0.103-0.188 0.007-0.022 0.010-0.043 0.014-0.067s0.014-0.045 0.014-0.070c0-0.039-0.014-0.072-0.022-0.108-0.003-0.014 0.003-0.027-0.002-0.041l-3.050-9.378c-0.023-0.072-0.064-0.139-0.118-0.192l-16.523-16.524c-0.017-0.027-0.030-0.056-0.053-0.080l-3.609-3.609c-0.586-0.586-1.54-0.586-2.127 0l-5.053 5.053c-0.284 0.284-0.44 0.661-0.44 1.063s0.156 0.78 0.44 1.064l3.529 3.529c0.017 0.026 0.029 0.056 0.052 0.079l16.497 16.608c0.057 0.058 0.126 0.099 0.205 0.123l6.48 1.931h-26.721c-0.266-0.001-0.483 0.215-0.483 0.482zM6.642 10.439l15.143 14.949-0.557 1.933-15.681-15.786 1.096-1.096zM22.526 24.763l-15.202-15.006 2.352-2.352 15.066 15.105v2.253h-2.216zM25.343 21.747l-14.985-15.024 1.003-1.003 15.649 15.649-1.667 0.378zM22.692 25.728h2.533c0.266 0 0.483-0.216 0.483-0.483v-2.592l1.937-0.44 2.629 8.080-8.194-2.441 0.612-2.124zM1.466 7.202c0-0.144 0.056-0.278 0.157-0.38l5.053-5.053c0.209-0.209 0.55-0.21 0.762 0l3.255 3.255-5.814 5.814-3.255-3.255c-0.102-0.101-0.158-0.237-0.158-0.38z"></path>
</svg>
