<?xml version="1.0" encoding="utf-8"?>
<!-- Generated by IcoMoon.io -->
<!DOCTYPE svg PUBLIC "-//W3C//DTD SVG 1.1//EN" "http://www.w3.org/Graphics/SVG/1.1/DTD/svg11.dtd">
<svg version="1.1" xmlns="http://www.w3.org/2000/svg" xmlns:xlink="http://www.w3.org/1999/xlink" width="32" height="32" viewBox="0 0 32 32">
<path d="M8.25 31.5h15.5c0.801 0 1.453-0.652 1.453-1.453v-28.094c0-0.801-0.652-1.453-1.453-1.453h-15.5c-0.801 0-1.453 0.652-1.453 1.453v28.094c0 0.801 0.652 1.453 1.453 1.453zM7.766 1.953c0-0.267 0.217-0.484 0.484-0.484h15.5c0.267 0 0.484 0.217 0.484 0.484v28.094c0 0.267-0.217 0.484-0.484 0.484h-15.5c-0.267 0-0.484-0.217-0.484-0.484v-28.094zM9.219 26.656h13.563c0.267 0 0.484-0.217 0.484-0.484v-20.344c0-0.267-0.217-0.484-0.484-0.484h-13.563c-0.267 0-0.484 0.217-0.484 0.484v20.344c0 0.267 0.217 0.484 0.484 0.484zM9.703 6.313h12.594v19.375h-12.594v-19.375zM15.516 28.594c0 0.535 0.434 0.969 0.969 0.969s0.969-0.434 0.969-0.969c0-0.535-0.434-0.969-0.969-0.969s-0.969 0.434-0.969 0.969zM14.063 4.375h3.875c0.267 0 0.484-0.217 0.484-0.484s-0.217-0.484-0.484-0.484h-3.875c-0.267 0-0.484 0.217-0.484 0.484s0.217 0.484 0.484 0.484z"></path>
</svg>
