<?xml version="1.0" encoding="utf-8"?>
<!-- Generated by IcoMoon.io -->
<!DOCTYPE svg PUBLIC "-//W3C//DTD SVG 1.1//EN" "http://www.w3.org/Graphics/SVG/1.1/DTD/svg11.dtd">
<svg version="1.1" xmlns="http://www.w3.org/2000/svg" xmlns:xlink="http://www.w3.org/1999/xlink" width="32" height="32" viewBox="0 0 32 32">
<path d="M1.953 31.5h28.094c0.801 0 1.453-0.652 1.453-1.453v-28.094c0-0.801-0.652-1.453-1.453-1.453h-28.094c-0.801 0-1.453 0.652-1.453 1.453v28.094c0 0.801 0.652 1.453 1.453 1.453zM1.469 1.953c0-0.267 0.218-0.484 0.484-0.484h28.094c0.266 0 0.484 0.217 0.484 0.484v28.094c0 0.267-0.218 0.484-0.484 0.484h-28.094c-0.266 0-0.484-0.217-0.484-0.484v-28.094zM20.359 12.609c1.069 0 1.938-0.869 1.938-1.938s-0.869-1.938-1.938-1.938-1.938 0.869-1.938 1.938 0.869 1.938 1.938 1.938zM20.359 9.703c0.535 0 0.969 0.435 0.969 0.969s-0.434 0.969-0.969 0.969-0.969-0.435-0.969-0.969 0.434-0.969 0.969-0.969zM4.859 24.719h22.281c0.267 0 0.484-0.217 0.484-0.484v-19.375c0-0.267-0.217-0.484-0.484-0.484h-22.281c-0.267 0-0.484 0.217-0.484 0.484v19.375c0 0.267 0.217 0.484 0.484 0.484zM5.344 23.75v-5.462c0.021-0.015 0.046-0.024 0.065-0.044l4.956-4.956c0.252-0.252 0.69-0.251 0.942 0l7.286 7.286c0.095 0.095 0.219 0.141 0.343 0.141 0.12 0 0.24-0.045 0.334-0.134l3.745-3.557c0.126-0.126 0.294-0.196 0.471-0.196s0.344 0.070 0.456 0.181l2.714 2.957c0 0 0.001 0 0.001 0.001v3.782h-21.313zM26.656 5.344v13.192l-2.016-2.195c-0.307-0.309-0.718-0.48-1.154-0.48-0.001 0-0.001 0-0.001 0-0.437 0-0.848 0.171-1.148 0.471l-3.395 3.224-6.952-6.953c-0.619-0.618-1.694-0.617-2.311 0l-4.336 4.337v-11.597h21.313z"></path>
</svg>
