<?xml version="1.0" encoding="utf-8"?>
<!-- Generated by IcoMoon.io -->
<!DOCTYPE svg PUBLIC "-//W3C//DTD SVG 1.1//EN" "http://www.w3.org/Graphics/SVG/1.1/DTD/svg11.dtd">
<svg version="1.1" xmlns="http://www.w3.org/2000/svg" xmlns:xlink="http://www.w3.org/1999/xlink" width="32" height="32" viewBox="0 0 32 32">
<path d="M1.923 27.261h24.4c0.776 0 1.408-0.632 1.408-1.408v-23.461c0-0.776-0.632-1.408-1.408-1.408h-24.4c-0.776 0-1.408 0.632-1.408 1.408v23.461c0 0.776 0.632 1.408 1.408 1.408zM1.454 2.393c0-0.259 0.211-0.469 0.469-0.469h24.4c0.258 0 0.469 0.21 0.469 0.469v23.461c0 0.259-0.211 0.469-0.469 0.469h-24.4c-0.258 0-0.469-0.21-0.469-0.469v-23.461zM17.408 11.308c1.035 0 1.877-0.842 1.877-1.877s-0.842-1.877-1.877-1.877-1.877 0.842-1.877 1.877 0.842 1.877 1.877 1.877zM17.408 8.492c0.518 0 0.938 0.421 0.938 0.938s-0.42 0.938-0.938 0.938-0.938-0.421-0.938-0.938 0.42-0.938 0.938-0.938zM3.8 22.569h20.646c0.259 0 0.469-0.21 0.469-0.469v-17.831c0-0.259-0.21-0.469-0.469-0.469h-20.646c-0.259 0-0.469 0.21-0.469 0.469v17.831c0 0.259 0.21 0.469 0.469 0.469zM4.269 21.631v-4.353c0.021-0.015 0.044-0.023 0.063-0.042l4.801-4.801c0.244-0.244 0.668-0.243 0.912 0l7.058 7.058c0.092 0.092 0.212 0.137 0.332 0.137 0.116 0 0.233-0.043 0.324-0.13l3.628-3.446c0.122-0.122 0.284-0.19 0.456-0.19s0.333 0.068 0.435 0.167l1.698 1.932v3.666h-19.707zM23.977 4.739v11.807l-1.014-1.152c-0.297-0.299-0.695-0.465-1.118-0.465-0.001 0-0.001 0-0.001 0-0.423 0-0.821 0.165-1.112 0.456l-3.288 3.123-6.734-6.735c-0.6-0.599-1.641-0.598-2.239 0l-4.2 4.2v-11.234h19.707zM4.739 28.278c-0.259 0-0.469 0.21-0.469 0.469v0.861c0 0.776 0.632 1.408 1.408 1.408h24.4c0.776 0 1.408-0.632 1.408-1.408v-24.4c0-0.776-0.632-1.408-1.408-1.408h-0.861c-0.259 0-0.469 0.21-0.469 0.469s0.21 0.469 0.469 0.469h0.861c0.258 0 0.469 0.21 0.469 0.469v24.4c0 0.259-0.211 0.469-0.469 0.469h-24.4c-0.258 0-0.469-0.21-0.469-0.469v-0.861c0-0.259-0.21-0.469-0.469-0.469z"></path>
</svg>
