<?xml version="1.0" encoding="utf-8"?>
<!-- Generated by IcoMoon.io -->
<!DOCTYPE svg PUBLIC "-//W3C//DTD SVG 1.1//EN" "http://www.w3.org/Graphics/SVG/1.1/DTD/svg11.dtd">
<svg version="1.1" xmlns="http://www.w3.org/2000/svg" xmlns:xlink="http://www.w3.org/1999/xlink" width="32" height="32" viewBox="0 0 32 32">
<path d="M28.594 17.471c0-0.267-0.217-0.484-0.484-0.484h-13.078v-13.096c0-0.267-0.217-0.484-0.484-0.484-7.745 0-14.047 6.292-14.047 14.027 0 8.019 6.048 14.067 14.067 14.067 7.472 0 14.027-6.556 14.027-14.029zM1.469 17.433c0-7.039 5.606-12.793 12.594-13.049v13.087c0 0.267 0.217 0.484 0.484 0.467h13.068c-0.274 6.772-6.253 12.594-13.048 12.594-7.467 0-13.098-5.63-13.098-13.098zM17.453 15.031h13.562c0.267 0.017 0.485-0.217 0.485-0.484 0-7.745-6.302-14.047-14.047-14.047-0.267 0-0.484 0.217-0.484 0.484v13.58c0 0.267 0.217 0.484 0.484 0.467zM17.938 1.477c6.842 0.251 12.36 5.783 12.588 12.602h-12.588v-12.602z"></path>
</svg>
