<?xml version="1.0" encoding="utf-8"?>
<!-- Generated by IcoMoon.io -->
<!DOCTYPE svg PUBLIC "-//W3C//DTD SVG 1.1//EN" "http://www.w3.org/Graphics/SVG/1.1/DTD/svg11.dtd">
<svg version="1.1" xmlns="http://www.w3.org/2000/svg" xmlns:xlink="http://www.w3.org/1999/xlink" width="32" height="32" viewBox="0 0 32 32">
<path d="M2.753 4.488c-0.244 0-0.442 0.198-0.442 0.442v15.013c0 0.73 0.594 1.325 1.325 1.325h24.727c0.73 0 1.325-0.594 1.325-1.325v-15.013c0-0.244-0.198-0.442-0.442-0.442s-0.442 0.198-0.442 0.442v15.013c0 0.244-0.198 0.442-0.442 0.442h-24.727c-0.244 0-0.442-0.198-0.442-0.442v-15.013c0-0.244-0.198-0.442-0.442-0.442zM31.013 1.839h-30.026c-0.244 0-0.442 0.198-0.442 0.442s0.198 0.442 0.442 0.442h30.026c0.244 0 0.442-0.198 0.442-0.442s-0.198-0.442-0.442-0.442zM12.78 9.033c-0.162-0.162-0.419-0.173-0.595-0.027l-5.299 4.416c-0.187 0.156-0.213 0.434-0.056 0.623s0.434 0.213 0.623 0.056l4.989-4.158 5.013 5.013c0.086 0.087 0.199 0.13 0.312 0.13s0.226-0.043 0.313-0.129l6.311-6.312v3.35c0 0.244 0.198 0.442 0.442 0.442s0.442-0.198 0.442-0.442v-4.416c0-0.057-0.011-0.115-0.034-0.169-0.045-0.108-0.131-0.194-0.239-0.239-0.054-0.022-0.111-0.034-0.169-0.034h-4.416c-0.244 0-0.442 0.198-0.442 0.442s0.198 0.442 0.442 0.442h3.35l-5.999 5.999-4.986-4.987zM9.427 29.862c0.113 0.216 0.38 0.299 0.596 0.186l5.977-3.131 5.977 3.131c0.065 0.034 0.135 0.050 0.205 0.050 0.159 0 0.313-0.087 0.391-0.237 0.113-0.216 0.030-0.483-0.186-0.596l-6.087-3.188c0.087-0.080 0.142-0.193 0.142-0.321v-2.281c0-0.244-0.198-0.442-0.442-0.442s-0.442 0.198-0.442 0.442v2.281c0 0.127 0.056 0.24 0.142 0.321l-6.087 3.188c-0.216 0.114-0.299 0.381-0.186 0.597z"></path>
</svg>
