<?xml version="1.0" encoding="utf-8"?>
<!-- Generated by IcoMoon.io -->
<!DOCTYPE svg PUBLIC "-//W3C//DTD SVG 1.1//EN" "http://www.w3.org/Graphics/SVG/1.1/DTD/svg11.dtd">
<svg version="1.1" xmlns="http://www.w3.org/2000/svg" xmlns:xlink="http://www.w3.org/1999/xlink" width="32" height="32" viewBox="0 0 32 32">
<path d="M30.249 4.352h-7.28c-0.503 0-1.146 0.274-1.49 0.633l-0.968 0.976c-0.141 0.143-0.14 0.373 0.003 0.515 0.141 0.141 0.373 0.141 0.515-0.002l0.971-0.98c0.207-0.216 0.67-0.413 0.97-0.413h7.28c0.2 0 0.364 0.163 0.364 0.364v7.316c0 0.299-0.197 0.761-0.418 0.973l-10.251 10.172c-0.146 0.139-0.389 0.135-0.531-0.006l-1.928-1.928c-0.142-0.142-0.373-0.142-0.515 0s-0.142 0.373 0 0.515l1.928 1.928c0.214 0.213 0.498 0.321 0.782 0.321 0.278 0 0.557-0.103 0.773-0.309l10.252-10.172c0.363-0.348 0.636-0.991 0.636-1.494v-7.316c0-0.602-0.49-1.092-1.092-1.092zM29.185 7.992c0-0.803-0.653-1.456-1.456-1.456s-1.456 0.653-1.456 1.456 0.653 1.456 1.456 1.456 1.456-0.653 1.456-1.456zM27.001 7.992c0-0.401 0.326-0.728 0.728-0.728s0.728 0.327 0.728 0.728-0.326 0.728-0.728 0.728-0.728-0.327-0.728-0.728zM12.75 7.264c-0.503 0-1.146 0.274-1.491 0.633l-10.187 10.287c-0.413 0.431-0.408 1.126 0.015 1.549l7.592 7.592c0.207 0.208 0.486 0.323 0.783 0.323 0.288 0 0.561-0.108 0.771-0.31l10.251-10.172c0.363-0.348 0.638-0.991 0.638-1.495v-7.316c0-0.602-0.49-1.092-1.092-1.092h-7.28zM20.422 8.356v7.316c0 0.3-0.225 0.761-0.446 0.973l-10.251 10.172c-0.142 0.135-0.393 0.132-0.531-0.006l-7.592-7.591c-0.142-0.143-0.145-0.386-0.009-0.526l10.188-10.288c0.207-0.216 0.67-0.413 0.97-0.413h7.28c0.2 0 0.392 0.163 0.392 0.364zM17.509 9.448c-0.803 0-1.456 0.653-1.456 1.456s0.653 1.456 1.456 1.456 1.456-0.653 1.456-1.456-0.653-1.456-1.456-1.456zM17.509 11.632c-0.402 0-0.728-0.327-0.728-0.728s0.326-0.728 0.728-0.728 0.728 0.327 0.728 0.728-0.326 0.728-0.728 0.728z"></path>
</svg>
