<?xml version="1.0" encoding="utf-8"?>
<!-- Generated by IcoMoon.io -->
<!DOCTYPE svg PUBLIC "-//W3C//DTD SVG 1.1//EN" "http://www.w3.org/Graphics/SVG/1.1/DTD/svg11.dtd">
<svg version="1.1" xmlns="http://www.w3.org/2000/svg" xmlns:xlink="http://www.w3.org/1999/xlink" width="32" height="32" viewBox="0 0 32 32">
<path d="M30.248 11.616h-1.827v-2.557c0-0.604-0.492-1.096-1.096-1.096h-1.461c-0.202 0-0.365 0.164-0.365 0.365s0.164 0.365 0.365 0.365h1.461c0.201 0 0.365 0.164 0.365 0.365v2.557h-2.923v-6.941c0-0.202-0.164-0.365-0.365-0.365h-16.805c-0.202 0-0.365 0.164-0.365 0.365v6.941h-2.923v-2.557c0-0.202 0.164-0.365 0.365-0.365h1.461c0.202 0 0.365-0.164 0.365-0.365s-0.164-0.365-0.365-0.365h-1.461c-0.604 0-1.096 0.492-1.096 1.096v2.557h-1.827c-0.604 0-1.096 0.492-1.096 1.096v10.229c0 0.604 0.492 1.096 1.096 1.096h4.384c0.202 0 0.365-0.164 0.365-0.365s-0.164-0.365-0.365-0.365h-4.384c-0.201 0-0.365-0.164-0.365-0.365v-2.557h29.226v2.557c0 0.202-0.164 0.365-0.365 0.365h-4.384c-0.202 0-0.365 0.164-0.365 0.365s0.164 0.365 0.365 0.365h4.384c0.604 0 1.096-0.492 1.096-1.096v-10.229c0-0.604-0.492-1.096-1.096-1.096zM7.963 5.040h16.074v6.576h-16.074v-6.576zM1.387 19.653v-6.941c0-0.202 0.164-0.365 0.365-0.365h28.496c0.201 0 0.365 0.164 0.365 0.365v6.941h-29.226zM24.403 21.115c-0.202 0-0.365 0.164-0.365 0.365v5.48h-16.074v-5.48c0-0.202-0.164-0.365-0.365-0.365s-0.365 0.164-0.365 0.365v5.845c0 0.202 0.164 0.365 0.365 0.365h16.805c0.202 0 0.365-0.164 0.365-0.365v-5.845c0-0.202-0.164-0.365-0.365-0.365zM27.69 17.461c0 0.404 0.327 0.731 0.731 0.731s0.731-0.327 0.731-0.731c0-0.404-0.327-0.731-0.731-0.731s-0.731 0.327-0.731 0.731zM24.768 17.461c0 0.404 0.327 0.731 0.731 0.731s0.731-0.327 0.731-0.731c0-0.404-0.327-0.731-0.731-0.731s-0.731 0.327-0.731 0.731z"></path>
</svg>
