<?xml version="1.0" encoding="utf-8"?>
<!-- Generated by IcoMoon.io -->
<!DOCTYPE svg PUBLIC "-//W3C//DTD SVG 1.1//EN" "http://www.w3.org/Graphics/SVG/1.1/DTD/svg11.dtd">
<svg version="1.1" xmlns="http://www.w3.org/2000/svg" xmlns:xlink="http://www.w3.org/1999/xlink" width="32" height="32" viewBox="0 0 32 32">
<path d="M18.245 5.322c0-1.717-1.377-3.45-4.452-3.45-2.708 0-4.529 1.386-4.529 3.45 0 1.204 0.487 1.754 0.81 2.117 0.17 0.192 0.239 0.278 0.239 0.365 0 0.143 0 0.23-0.493 0.249h-5.385c-2.071 0-3.888 1.65-3.888 3.532v3.295c0.034 0.834 0.504 1.352 1.229 1.352 0.412 0 0.718-0.236 1.015-0.464 0.397-0.305 0.847-0.651 1.73-0.651 1.498 0 3.091 1.238 3.091 3.532 0 2.321-1.614 3.94-3.063 3.94-0.874 0-1.332-0.379-1.736-0.713-0.303-0.251-0.615-0.51-1.037-0.51-0.724 0-1.196 0.518-1.229 1.37v3.622c0.001 1.974 1.854 3.77 3.889 3.77h5.412c0.819-0.034 1.348-0.517 1.348-1.233 0-0.43-0.245-0.706-0.461-0.95-0.29-0.326-0.588-0.662-0.588-1.531 0-1.559 1.416-2.567 3.607-2.567s3.608 1.008 3.608 2.567c0 0.869-0.299 1.205-0.588 1.531-0.216 0.244-0.462 0.52-0.462 0.95 0 0.726 0.517 1.197 1.367 1.232l3.48 0.001c1.9 0 3.228-1.481 3.228-3.601v-4.106c0.023-0.108 0.295-0.519 0.71-0.519 0.085 0 0.17 0.070 0.361 0.239 0.362 0.324 0.91 0.814 2.113 0.814 1.928-0.001 3.882-1.479 3.882-4.306 0-3.050-1.774-4.415-3.532-4.415-1.187 0-1.872 0.542-2.326 0.901-0.201 0.159-0.39 0.309-0.498 0.309-0.416 0-0.688-0.413-0.708-0.504-0.001-0.007-0.001-0.014-0.002-0.021v-3.164c0-2.145-1.358-3.702-3.228-3.702h-3.462c-0.011-0.001-0.023-0.002-0.035-0.003-0.466-0.018-0.466-0.103-0.466-0.246 0-0.087 0.069-0.172 0.239-0.365 0.322-0.363 0.811-0.913 0.811-2.117zM16.774 6.854c-0.216 0.244-0.462 0.521-0.462 0.951 0 0.486 0.222 1.070 1.299 1.128 0.020 0.003 0.041 0.004 0.062 0.004h3.486c1.54 0 2.347 1.418 2.347 2.819v3.208c0 0.032-0.006 0.063 0 0.093 0.081 0.54 0.744 1.271 1.591 1.271 0.415 0 0.721-0.242 1.046-0.499 0.42-0.333 0.898-0.71 1.777-0.71 1.609 0 2.649 1.386 2.649 3.532 0 2.352-1.555 3.423-2.999 3.423-0.864 0-1.2-0.299-1.525-0.589-0.244-0.217-0.52-0.464-0.949-0.464-0.848 0-1.511 0.732-1.591 1.272-0.006 0.030 0 0.061 0 0.093v4.145c0 1.352-0.727 2.717-2.347 2.717h-3.462c-0.502-0.020-0.502-0.252-0.502-0.35 0-0.086 0.069-0.172 0.239-0.365 0.322-0.364 0.811-0.913 0.811-2.117 0-1.717-1.388-3.45-4.491-3.45-2.685 0-4.49 1.386-4.49 3.45 0 1.204 0.487 1.754 0.811 2.117 0.17 0.192 0.239 0.278 0.239 0.365 0 0.099 0 0.33-0.484 0.35h-5.394c-1.516 0-3.005-1.43-3.005-2.887v-3.604c0.019-0.504 0.248-0.504 0.346-0.504 0.102 0 0.283 0.149 0.474 0.307 0.44 0.365 1.106 0.916 2.298 0.916 1.905 0 3.945-1.938 3.945-4.823 0-2.868-2.047-4.415-3.974-4.415-1.183 0-1.836 0.502-2.268 0.834-0.196 0.151-0.366 0.281-0.477 0.281-0.097 0-0.326 0-0.346-0.487v-3.278c0-1.561 1.584-2.649 3.005-2.649h5.4c0.014 0 0.027-0.001 0.041-0.002v0c1.091-0.041 1.319-0.638 1.319-1.13 0-0.43-0.245-0.706-0.461-0.95-0.29-0.326-0.588-0.662-0.588-1.532 0-1.536 1.465-2.567 3.646-2.567 2.168 0 3.569 1.007 3.569 2.567 0 0.869-0.299 1.206-0.588 1.532z"></path>
</svg>
