<?xml version="1.0" encoding="utf-8"?>
<!-- Generated by IcoMoon.io -->
<!DOCTYPE svg PUBLIC "-//W3C//DTD SVG 1.1//EN" "http://www.w3.org/Graphics/SVG/1.1/DTD/svg11.dtd">
<svg version="1.1" xmlns="http://www.w3.org/2000/svg" xmlns:xlink="http://www.w3.org/1999/xlink" width="32" height="32" viewBox="0 0 32 32">
<path d="M16 31.5c8.546 0 15.5-6.954 15.5-15.5s-6.954-15.5-15.5-15.5-15.5 6.954-15.5 15.5 6.954 15.5 15.5 15.5zM16 1.469c8.013 0 14.531 6.519 14.531 14.531s-6.519 14.531-14.531 14.531-14.531-6.519-14.531-14.531 6.519-14.531 14.531-14.531zM10.899 13.72c0.491 0.16 1.002 0.086 1.483-0.215 0.226-0.141 0.295-0.441 0.153-0.667s-0.44-0.295-0.667-0.153c-0.233 0.145-0.458 0.182-0.666 0.115-0.222-0.073-0.431-0.26-0.606-0.541-0.157-0.25-0.207-0.546-0.141-0.834s0.241-0.533 0.492-0.69c0.599-0.378 1.378-0.162 1.882 0.217 0.853 0.638 1.235 1.749 1.235 3.595 0 2.726-1.24 6.116-3.611 7.318-0.238 0.121-0.334 0.413-0.213 0.652 0.087 0.168 0.257 0.264 0.433 0.264 0.074 0 0.148-0.017 0.22-0.052 2.843-1.442 4.139-5.254 4.139-8.182 0-2.153-0.515-3.541-1.623-4.371-0.922-0.695-2.12-0.798-2.977-0.263-0.47 0.294-0.797 0.753-0.921 1.293s-0.031 1.097 0.263 1.566c0.297 0.475 0.686 0.802 1.126 0.947zM18.649 13.72c0.49 0.16 1.002 0.086 1.483-0.215 0.226-0.141 0.295-0.441 0.153-0.667s-0.44-0.295-0.667-0.153c-0.233 0.145-0.458 0.182-0.666 0.115-0.222-0.073-0.431-0.26-0.606-0.541-0.157-0.25-0.207-0.546-0.141-0.834s0.241-0.533 0.492-0.69c0.6-0.378 1.379-0.162 1.882 0.217 0.853 0.638 1.235 1.749 1.235 3.595 0 2.726-1.24 6.116-3.611 7.318-0.238 0.121-0.334 0.413-0.213 0.652 0.087 0.168 0.257 0.264 0.433 0.264 0.074 0 0.148-0.017 0.22-0.052 2.843-1.442 4.139-5.254 4.139-8.182 0-2.153-0.515-3.541-1.623-4.371-0.922-0.695-2.12-0.798-2.977-0.263-0.47 0.294-0.797 0.753-0.921 1.293s-0.031 1.097 0.263 1.566c0.297 0.475 0.686 0.802 1.126 0.947z"></path>
</svg>
