<?xml version="1.0" encoding="utf-8"?>
<!-- Generated by IcoMoon.io -->
<!DOCTYPE svg PUBLIC "-//W3C//DTD SVG 1.1//EN" "http://www.w3.org/Graphics/SVG/1.1/DTD/svg11.dtd">
<svg version="1.1" xmlns="http://www.w3.org/2000/svg" xmlns:xlink="http://www.w3.org/1999/xlink" width="32" height="32" viewBox="0 0 32 32">
<path d="M12.29 3.156l-2.951 4.388c-0.148 0.221-0.090 0.52 0.131 0.669s0.52 0.090 0.669-0.131l2.968-4.415c0.79-1.365 1.819-2.115 2.894-2.115s2.104 0.75 2.893 2.113l5.312 9.248-3.776-0.755c-0.263-0.055-0.515 0.117-0.566 0.379s0.118 0.514 0.378 0.566l4.816 0.963c0.033 0.006 0.065 0.009 0.095 0.009 0.076 0 0.147-0.024 0.213-0.057 0.009-0.004 0.018-0.002 0.027-0.007s0.015-0.015 0.025-0.022c0.032-0.021 0.060-0.046 0.086-0.075 0.015-0.016 0.031-0.031 0.043-0.049 0.020-0.030 0.034-0.063 0.047-0.096 0.009-0.022 0.020-0.042 0.025-0.066 0.001-0.006 0.005-0.010 0.006-0.015l0.963-4.816c0.052-0.261-0.118-0.514-0.378-0.566-0.263-0.055-0.515 0.117-0.566 0.379l-0.712 3.559-5.203-9.059c-0.971-1.673-2.295-2.595-3.728-2.595s-2.757 0.922-3.711 2.568zM10.221 28.059c0-0.266-0.216-0.482-0.482-0.482h-4.334c-1.49-0.003-2.682-0.587-3.267-1.603-0.624-1.082-0.519-2.508 0.289-3.914l5.31-9.29 1.556 3.891c0.075 0.187 0.256 0.302 0.447 0.302 0.060 0 0.12-0.012 0.179-0.035 0.247-0.099 0.367-0.38 0.269-0.625l-1.927-4.816c-0.010-0.025-0.027-0.043-0.040-0.066-0.013-0.020-0.021-0.040-0.037-0.060-0.034-0.040-0.072-0.072-0.115-0.099-0.007-0.005-0.011-0.012-0.017-0.015-0.001-0.001-0.002 0-0.003-0.001-0.054-0.031-0.113-0.049-0.175-0.057-0.011-0.001-0.020 0.002-0.031 0.001-0.041-0.003-0.082-0.006-0.124 0.004l-4.816 0.963c-0.261 0.052-0.43 0.305-0.378 0.566s0.301 0.431 0.566 0.379l3.778-0.755-5.279 9.236c-0.984 1.71-1.088 3.487-0.287 4.875 0.763 1.321 2.257 2.081 4.101 2.085h4.335c0.267-0.002 0.483-0.218 0.483-0.484zM30.704 26.448c0.793-1.374 0.686-3.138-0.271-4.797l-1.951-4.4c-0.108-0.243-0.392-0.355-0.636-0.245-0.243 0.108-0.353 0.392-0.245 0.636l1.974 4.445c0.803 1.399 0.911 2.813 0.295 3.88-0.583 1.010-1.776 1.59-3.274 1.593l-9.931 0.016 2.084-2.084c0.188-0.188 0.188-0.493 0-0.681s-0.493-0.188-0.681 0l-2.89 2.89c-0.096 0.096-0.142 0.223-0.14 0.35 0 0.003-0.002 0.006-0.002 0.010 0 0.156 0.080 0.289 0.197 0.377l2.835 2.835c0.094 0.093 0.218 0.141 0.341 0.141s0.247-0.047 0.341-0.141c0.188-0.188 0.188-0.493 0-0.681l-2.052-2.052 9.9-0.016c1.849-0.004 3.346-0.76 4.106-2.075z"></path>
</svg>
