<?xml version="1.0" encoding="utf-8"?>
<!-- Generated by IcoMoon.io -->
<!DOCTYPE svg PUBLIC "-//W3C//DTD SVG 1.1//EN" "http://www.w3.org/Graphics/SVG/1.1/DTD/svg11.dtd">
<svg version="1.1" xmlns="http://www.w3.org/2000/svg" xmlns:xlink="http://www.w3.org/1999/xlink" width="32" height="32" viewBox="0 0 32 32">
<path d="M25.947 5.298h4.534c0.257 0 0.466-0.209 0.466-0.466s-0.209-0.466-0.466-0.466h-5.587c-0.257 0-0.466 0.209-0.466 0.466v5.587c0 0.257 0.209 0.466 0.466 0.466s0.466-0.209 0.466-0.466v-4.393l0.569 0.569c2.638 2.638 4.092 6.146 4.092 9.876s-1.454 7.238-4.092 9.876c-3.916 3.917-9.781 5.151-14.947 3.143-0.239-0.095-0.509 0.025-0.602 0.264s0.025 0.51 0.265 0.602c1.754 0.682 3.583 1.013 5.398 1.013 3.883 0 7.697-1.518 10.544-4.366 2.814-2.813 4.365-6.556 4.365-10.535s-1.55-7.721-4.365-10.534l-0.64-0.64zM7.201 22.059c-0.257 0-0.466 0.209-0.466 0.466v4.507l-0.664-0.664c-2.638-2.638-4.092-6.146-4.092-9.876s1.454-7.239 4.092-9.877c3.851-3.851 9.639-5.117 14.747-3.218 0.238 0.089 0.508-0.033 0.599-0.275s-0.034-0.509-0.275-0.599c-5.447-2.023-11.622-0.675-15.729 3.433-2.814 2.813-4.365 6.556-4.365 10.535s1.55 7.722 4.365 10.535l0.62 0.621h-4.42c-0.257 0-0.466 0.209-0.466 0.466s0.209 0.466 0.466 0.466h5.453c0.037 0.009 0.35-0.023 0.441-0.115 0.004-0.004 0.005-0.008 0.008-0.012 0.091-0.086 0.15-0.204 0.15-0.339v-5.587c0-0.257-0.209-0.466-0.466-0.466z"></path>
</svg>
