<?xml version="1.0" encoding="utf-8"?>
<!-- Generated by IcoMoon.io -->
<!DOCTYPE svg PUBLIC "-//W3C//DTD SVG 1.1//EN" "http://www.w3.org/Graphics/SVG/1.1/DTD/svg11.dtd">
<svg version="1.1" xmlns="http://www.w3.org/2000/svg" xmlns:xlink="http://www.w3.org/1999/xlink" width="32" height="32" viewBox="0 0 32 32">
<path d="M3.913 9.203c-0.267 0-0.483 0.217-0.483 0.483v20.255c0 0.643 0.306 1.005 0.563 1.194 0.308 0.228 0.669 0.308 0.992 0.308 0.194 0 0.374-0.029 0.52-0.074 2.832-0.865 9.037-7.235 10.611-8.887 1.535 1.661 7.547 8.021 10.38 8.887 0.391 0.12 1.020 0.131 1.512-0.235 0.258-0.19 0.564-0.55 0.564-1.193v-20.255c0-0.267-0.217-0.483-0.483-0.483s-0.483 0.217-0.483 0.483v20.255c0 0.261-0.098 0.363-0.171 0.417-0.172 0.128-0.468 0.145-0.655 0.088-2.94-0.898-10.226-8.916-10.299-8.996-0.091-0.101-0.22-0.159-0.355-0.16-0.123-0.001-0.264 0.054-0.357 0.154-0.075 0.080-7.603 8.102-10.546 9.002-0.186 0.057-0.483 0.040-0.655-0.088-0.074-0.054-0.171-0.157-0.171-0.417v-20.255c0-0.267-0.217-0.483-0.483-0.483zM29.538 6.785v-4.835c0-0.8-0.651-1.45-1.451-1.45h-24.175c-0.8 0-1.45 0.651-1.45 1.45v4.835c0 0.267 0.217 0.484 0.483 0.484h26.109c0.267 0 0.483-0.217 0.483-0.484zM28.571 6.302h-25.142v-4.351c0-0.267 0.217-0.484 0.483-0.484h24.175c0.267 0 0.483 0.217 0.483 0.484v4.351z"></path>
</svg>
