<?xml version="1.0" encoding="utf-8"?>
<!-- Generated by IcoMoon.io -->
<!DOCTYPE svg PUBLIC "-//W3C//DTD SVG 1.1//EN" "http://www.w3.org/Graphics/SVG/1.1/DTD/svg11.dtd">
<svg version="1.1" xmlns="http://www.w3.org/2000/svg" xmlns:xlink="http://www.w3.org/1999/xlink" width="32" height="32" viewBox="0 0 32 32">
<path d="M16 0.5c-8.548 0-15.5 6.952-15.5 15.5s6.952 15.5 15.5 15.5 15.5-6.952 15.5-15.5-6.952-15.5-15.5-15.5zM16 30.468c-7.977 0-14.468-6.49-14.468-14.468s6.49-14.468 14.468-14.468 14.468 6.49 14.468 14.468-6.49 14.468-14.468 14.468zM10.685 14.019c-0.285 0-0.516 0.231-0.516 0.516s0.231 0.516 0.516 0.516c2.178 0 4.002 0.674 5.272 1.949s1.943 3.101 1.943 5.283c0 0.285 0.231 0.516 0.516 0.516s0.516-0.231 0.516-0.516c0.001-2.461-0.775-4.54-2.243-6.013-1.47-1.472-3.546-2.251-6.005-2.251zM10.688 9.259c-0.285 0-0.516 0.231-0.516 0.516s0.231 0.516 0.516 0.516c6.902 0 12.106 5.155 12.106 11.991 0 0.285 0.231 0.516 0.516 0.516s0.516-0.231 0.516-0.516c0.001-7.424-5.647-13.023-13.138-13.023zM12.132 18.786c-1.084 0-1.965 0.883-1.965 1.967s0.882 1.965 1.965 1.965c1.085 0 1.967-0.882 1.967-1.966s-0.884-1.966-1.967-1.966zM12.132 21.686c-0.514 0-0.933-0.419-0.933-0.933s0.419-0.935 0.933-0.935 0.934 0.421 0.935 0.935c0 0.514-0.42 0.933-0.935 0.933z"></path>
</svg>
