<?xml version="1.0" encoding="utf-8"?>
<!-- Generated by IcoMoon.io -->
<!DOCTYPE svg PUBLIC "-//W3C//DTD SVG 1.1//EN" "http://www.w3.org/Graphics/SVG/1.1/DTD/svg11.dtd">
<svg version="1.1" xmlns="http://www.w3.org/2000/svg" xmlns:xlink="http://www.w3.org/1999/xlink" width="32" height="32" viewBox="0 0 32 32">
<path d="M16 0.501c-8.546 0-15.5 6.952-15.5 15.499s6.954 15.499 15.5 15.499 15.5-6.952 15.5-15.499-6.954-15.499-15.5-15.499zM16 30.467c-7.977 0-14.466-6.49-14.466-14.467s6.489-14.467 14.466-14.467 14.466 6.49 14.466 14.467-6.489 14.467-14.466 14.467zM16.158 19.695c-2.696 0-5.294 1.14-7.128 3.127-0.193 0.21-0.181 0.536 0.030 0.73 0.209 0.193 0.536 0.182 0.73-0.029 1.638-1.777 3.959-2.796 6.367-2.796 2.445 0 4.791 1.045 6.434 2.868 0.102 0.112 0.243 0.17 0.384 0.17 0.124 0 0.247-0.044 0.346-0.133 0.212-0.19 0.229-0.517 0.038-0.73-1.84-2.039-4.464-3.207-7.2-3.207zM10.684 16.483c1.066 0 1.933-0.867 1.933-1.933s-0.867-1.933-1.933-1.933-1.933 0.867-1.933 1.933 0.867 1.933 1.933 1.933zM10.684 13.583c0.533 0 0.967 0.433 0.967 0.967s-0.434 0.967-0.967 0.967-0.967-0.433-0.967-0.967 0.434-0.967 0.967-0.967zM21.317 16.483c1.066 0 1.933-0.867 1.933-1.933s-0.867-1.933-1.933-1.933-1.933 0.867-1.933 1.933 0.867 1.933 1.933 1.933zM21.317 13.583c0.533 0 0.967 0.433 0.967 0.967s-0.434 0.967-0.967 0.967-0.967-0.433-0.967-0.967 0.434-0.967 0.967-0.967z"></path>
</svg>
