<?xml version="1.0" encoding="utf-8"?>
<!-- Generated by IcoMoon.io -->
<!DOCTYPE svg PUBLIC "-//W3C//DTD SVG 1.1//EN" "http://www.w3.org/Graphics/SVG/1.1/DTD/svg11.dtd">
<svg version="1.1" xmlns="http://www.w3.org/2000/svg" xmlns:xlink="http://www.w3.org/1999/xlink" width="32" height="32" viewBox="0 0 32 32">
<path d="M25.192 28.597c1.867 0 3.386-1.519 3.386-3.386s-1.519-3.386-3.386-3.386-3.386 1.519-3.386 3.386 1.519 3.386 3.386 3.386zM25.192 22.792c1.333 0 2.419 1.085 2.419 2.419s-1.086 2.419-2.419 2.419-2.419-1.085-2.419-2.419 1.086-2.419 2.419-2.419zM18.643 23.711c0 1.404 0.345 3.165 0.809 4.162 0.948 2.406 2.814 3.627 5.546 3.627 3.574 0 6.483-2.909 6.483-6.483 0-3.476-2.727-5.999-6.483-5.999-4.27 0-5.663-2.294-5.718-2.389-0.019-0.033-0.042-0.064-0.068-0.092l-14.857-15.847c-0.135-0.144-0.346-0.191-0.531-0.119s-0.306 0.252-0.306 0.45c0 9.338 6.227 14.238 10.774 17.814 2.432 1.913 4.351 3.422 4.351 4.876zM4.529 2.29l13.945 14.873c0.259 0.41 1.978 2.822 6.525 2.822 3.196 0 5.515 2.116 5.515 5.031 0 3.042-2.474 5.515-5.515 5.515-2.327 0-3.847-0.987-4.657-3.042-0.354-0.761-0.731-2.344-0.731-3.779 0-1.923-2.083-3.562-4.72-5.636-4.177-3.286-9.823-7.726-10.363-15.785zM3.422 25.211c0 1.867 1.519 3.387 3.387 3.387s3.386-1.519 3.386-3.386-1.519-3.386-3.386-3.386-3.386 1.519-3.386 3.386zM9.227 25.211c0 1.334-1.086 2.419-2.419 2.419s-2.419-1.085-2.419-2.419 1.086-2.419 2.419-2.419 2.419 1.085 2.419 2.419zM20.484 15.507c-0.197 0.18-0.212 0.486-0.032 0.683 0.096 0.105 0.226 0.158 0.358 0.158 0.116 0 0.233-0.042 0.326-0.127 3.42-3.116 7.346-7.658 7.346-15.2 0-0.198-0.121-0.377-0.306-0.45-0.184-0.071-0.395-0.025-0.531 0.119l-10.566 11.268c-0.183 0.194-0.173 0.501 0.022 0.683s0.5 0.174 0.684-0.021l9.689-10.334c-0.412 6.415-3.915 10.417-6.991 13.22zM11.076 18.821c0.249-0.097 0.373-0.376 0.277-0.625s-0.377-0.374-0.626-0.276c-0.204 0.079-0.425 0.177-0.662 0.283-0.817 0.363-1.834 0.816-3.063 0.816-3.756 0-6.483 2.522-6.483 5.999 0 3.574 2.909 6.483 6.483 6.483 2.732 0 4.598-1.221 5.534-3.601 0.49-1.050 0.562-3.348 0.562-4.623 0-0.26 0.737-0.816 1.178-1.148 0.407-0.306 0.828-0.623 1.118-0.95 0.177-0.2 0.159-0.506-0.041-0.683s-0.506-0.159-0.683 0.041c-0.226 0.256-0.608 0.543-0.977 0.82-0.804 0.606-1.564 1.177-1.564 1.92 0 2.005-0.176 3.581-0.483 4.242-0.798 2.028-2.318 3.015-4.645 3.015-3.041 0-5.515-2.474-5.515-5.515 0-2.916 2.319-5.031 5.515-5.031 1.436 0 2.604-0.521 3.457-0.901 0.221-0.099 0.427-0.19 0.617-0.264zM15.22 16.971c0 0.431 0.349 0.78 0.78 0.78s0.78-0.349 0.78-0.78c0-0.431-0.349-0.78-0.78-0.78s-0.78 0.349-0.78 0.78z"></path>
</svg>
