<?xml version="1.0" encoding="utf-8"?>
<!-- Generated by IcoMoon.io -->
<!DOCTYPE svg PUBLIC "-//W3C//DTD SVG 1.1//EN" "http://www.w3.org/Graphics/SVG/1.1/DTD/svg11.dtd">
<svg version="1.1" xmlns="http://www.w3.org/2000/svg" xmlns:xlink="http://www.w3.org/1999/xlink" width="32" height="32" viewBox="0 0 32 32">
<path d="M16.909 6.797c0-0.267-0.217-0.484-0.484-0.484s-0.484 0.217-0.484 0.484v8.234h-9.203c-0.267 0-0.484 0.217-0.484 0.484s0.217 0.484 0.484 0.484h9.203v9.173c0 0.267 0.217 0.484 0.484 0.484s0.484-0.217 0.484-0.484v-9.173h9.173c0.267 0 0.484-0.217 0.484-0.484s-0.217-0.484-0.484-0.484h-9.173v-8.234zM31.016 15.031h-2.531c-0.473-6.171-5.405-11.103-11.576-11.576v-2.471c0-0.267-0.217-0.484-0.484-0.484s-0.484 0.217-0.484 0.484v2.422c-6.617 0-12.046 5.133-12.544 11.625h-2.411c-0.267 0-0.484 0.217-0.484 0.484s0.217 0.484 0.484 0.484h2.362c0 6.944 5.65 12.594 12.594 12.594v2.422c0 0.267 0.217 0.484 0.484 0.484s0.484-0.217 0.484-0.484v-2.471c6.492-0.498 11.625-5.928 11.625-12.544h2.482c0.267 0 0.484-0.217 0.484-0.484s-0.216-0.484-0.484-0.484zM15.94 27.625c-6.41 0-11.625-5.215-11.625-11.625s5.215-11.625 11.625-11.625 11.625 5.215 11.625 11.625-5.215 11.625-11.625 11.625z"></path>
</svg>
