<?xml version="1.0" encoding="utf-8"?>
<!-- Generated by IcoMoon.io -->
<!DOCTYPE svg PUBLIC "-//W3C//DTD SVG 1.1//EN" "http://www.w3.org/Graphics/SVG/1.1/DTD/svg11.dtd">
<svg version="1.1" xmlns="http://www.w3.org/2000/svg" xmlns:xlink="http://www.w3.org/1999/xlink" width="32" height="32" viewBox="0 0 32 32">
<path d="M1.922 30.992h19.677c0.775 0 1.405-0.631 1.405-1.405v-7.028c0-0.009-0.005-0.017-0.006-0.026 0.052-0.033 0.105-0.064 0.156-0.098l7.483 7.483c0.092 0.092 0.212 0.138 0.332 0.138s0.24-0.046 0.332-0.137c0.183-0.183 0.183-0.48 0-0.662l-7.415-7.415c1.184-1.112 1.929-2.687 1.929-4.436 0-2.152-1.125-4.044-2.817-5.127 0.001-0.009 0.006-0.017 0.006-0.026v-2.343c0-0.016-0.008-0.029-0.008-0.044-0.002-0.022-0.008-0.040-0.012-0.061-0.016-0.067-0.043-0.127-0.084-0.179-0.007-0.008-0.006-0.019-0.012-0.027l-7.496-8.433c-0.003-0.003-0.007-0.003-0.009-0.006-0.056-0.061-0.128-0.101-0.209-0.126-0.018-0.006-0.034-0.008-0.052-0.010-0.027-0.005-0.052-0.016-0.081-0.016h-13.118c-0.775 0-1.405 0.631-1.405 1.405v27.173c0 0.775 0.631 1.405 1.405 1.405zM24.879 17.405c0 2.842-2.313 5.154-5.154 5.154s-5.154-2.312-5.154-5.154 2.313-5.154 5.154-5.154 5.154 2.312 5.154 5.154zM15.509 2.709l5.985 6.732h-5.516c-0.206 0-0.469-0.394-0.469-0.703v-6.030zM1.453 2.413c0-0.259 0.211-0.469 0.468-0.469h12.65v6.793c0 0.758 0.614 1.64 1.405 1.64h6.091v1.406c-0.721-0.302-1.512-0.469-2.343-0.469-1.722 0-3.276 0.722-4.384 1.874h-9.671c-0.259 0-0.468 0.21-0.468 0.469s0.21 0.469 0.468 0.469h8.932c-0.529 0.824-0.864 1.781-0.943 2.811h-7.989c-0.259 0-0.468 0.21-0.468 0.468s0.21 0.468 0.468 0.468h7.988c0.079 1.030 0.414 1.987 0.943 2.811h-8.931c-0.259 0-0.468 0.21-0.468 0.468s0.21 0.468 0.468 0.468h9.604c0.020 0 0.037-0.008 0.056-0.011 1.109 1.159 2.668 1.885 4.395 1.885 0.83 0 1.621-0.168 2.343-0.47v6.561c0 0.259-0.211 0.468-0.468 0.468h-19.677c-0.262 0-0.469-0.206-0.469-0.468v-27.173zM5.67 10.378h5.622c0.259 0 0.469-0.21 0.469-0.469s-0.21-0.469-0.469-0.469h-5.622c-0.259 0-0.468 0.21-0.468 0.469s0.21 0.469 0.468 0.469zM5.67 25.37h12.181c0.259 0 0.468-0.21 0.468-0.468s-0.21-0.468-0.468-0.468h-12.181c-0.259 0-0.468 0.21-0.468 0.468s0.21 0.468 0.468 0.468z"></path>
</svg>
