<?xml version="1.0" encoding="utf-8"?>
<!-- Generated by IcoMoon.io -->
<!DOCTYPE svg PUBLIC "-//W3C//DTD SVG 1.1//EN" "http://www.w3.org/Graphics/SVG/1.1/DTD/svg11.dtd">
<svg version="1.1" xmlns="http://www.w3.org/2000/svg" xmlns:xlink="http://www.w3.org/1999/xlink" width="32" height="32" viewBox="0 0 32 32">
<path d="M16 0.5c-8.658 0-12.795 4.889-12.968 5.098-0.071 0.087-0.11 0.196-0.11 0.309v9.74c0 8.238 7.581 13.129 10.84 14.85 0.236 0.125 0.529 0.034 0.655-0.202s0.034-0.53-0.202-0.655c-3.856-2.035-10.324-6.559-10.324-13.994v-9.555c0.68-0.731 4.487-4.453 11.625-4.616v29.541c0 0.267 0.217 0.484 0.484 0.484 0.144 0 0.274-0.063 0.363-0.164 1.586-0.682 12.715-5.827 12.715-15.821v-9.688c0-0.113-0.040-0.223-0.111-0.309-0.143-0.173-3.598-4.238-10.793-4.964-0.266-0.018-0.505 0.168-0.531 0.433s0.168 0.504 0.433 0.531c6.091 0.614 9.4 3.822 10.033 4.495v9.502c0 8.672-9.070 13.513-11.625 14.705v-29.236c0-0.267-0.217-0.484-0.484-0.484z"></path>
</svg>
