<?xml version="1.0" encoding="utf-8"?>
<!-- Generated by IcoMoon.io -->
<!DOCTYPE svg PUBLIC "-//W3C//DTD SVG 1.1//EN" "http://www.w3.org/Graphics/SVG/1.1/DTD/svg11.dtd">
<svg version="1.1" xmlns="http://www.w3.org/2000/svg" xmlns:xlink="http://www.w3.org/1999/xlink" width="32" height="32" viewBox="0 0 32 32">
<path d="M16 0.501c-8.546 0-15.5 6.952-15.5 15.499s6.954 15.499 15.5 15.499 15.5-6.952 15.5-15.499-6.954-15.499-15.5-15.499zM16 30.467c-7.977 0-14.466-6.49-14.466-14.467s6.489-14.467 14.466-14.467 14.466 6.49 14.466 14.467-6.489 14.467-14.466 14.467zM16.483 6.385c0.295 0 0.535-0.239 0.535-0.535v-1.933c0-0.296-0.24-0.535-0.535-0.535s-0.535 0.239-0.535 0.535v1.933c0 0.296 0.24 0.535 0.535 0.535zM5.85 14.982h-1.933c-0.295 0-0.535 0.239-0.535 0.535s0.24 0.535 0.535 0.535h1.933c0.295 0 0.535-0.239 0.535-0.535s-0.24-0.535-0.535-0.535zM25.615 15.517c0 0.296 0.24 0.535 0.535 0.535h1.933c0.295 0 0.535-0.239 0.535-0.535s-0.24-0.535-0.535-0.535h-1.933c-0.295 0-0.535 0.239-0.535 0.535zM8.823 10.324c0.137 0 0.274-0.052 0.378-0.157 0.209-0.209 0.209-0.546 0-0.755l-1.522-1.523c-0.209-0.21-0.546-0.21-0.755 0s-0.209 0.546 0 0.755l1.522 1.522c0.103 0.105 0.241 0.158 0.377 0.158zM23.628 20.939c-0.209-0.21-0.546-0.21-0.755 0s-0.209 0.546 0 0.755l1.45 1.45c0.104 0.104 0.241 0.157 0.378 0.157s0.274-0.052 0.378-0.157c0.209-0.209 0.209-0.546 0-0.755l-1.451-1.45zM24.594 8.162c0.209-0.209 0.209-0.546 0-0.755s-0.546-0.21-0.755 0l-1.522 1.522c-0.209 0.209-0.209 0.546 0 0.755 0.104 0.104 0.241 0.157 0.378 0.157s0.274-0.052 0.378-0.157l1.521-1.522zM8.856 21.422l-1.45 1.45c-0.209 0.209-0.209 0.546 0 0.755 0.104 0.104 0.241 0.157 0.378 0.157s0.274-0.052 0.378-0.157l1.45-1.45c0.209-0.209 0.209-0.546 0-0.755s-0.547-0.209-0.756 0zM19.383 23.733h-6.766c-0.859-0.033-1.484 0.591-1.484 1.45v0.925c0 0.868 0.652 1.549 1.484 1.491h6.766c0.831 0.058 1.484-0.623 1.484-1.491v-0.925c0-0.859-0.624-1.483-1.484-1.45zM19.833 26.108c0 0.248-0.141 0.516-0.45 0.549h-6.766c-0.309-0.033-0.45-0.302-0.45-0.024v-0.925c0-0.811 0.163-0.975 0.45-1.008h6.766c0.286 0.033 0.45 0.197 0.45 0.483v0.925zM16 18.578c0.688 0 1.336-0.268 1.822-0.755 0.881-0.881 0.99-2.243 0.329-3.243l2.564-2.564c0.201-0.202 0.201-0.529 0-0.731s-0.529-0.202-0.731 0l-2.567 2.567c-0.991-0.633-2.39-0.525-3.239 0.325-1.005 1.005-1.005 2.64 0 3.645 0.486 0.488 1.134 0.756 1.822 0.756zM15.089 15.089c0.243-0.244 0.566-0.378 0.911-0.378s0.668 0.134 0.912 0.378c0.503 0.503 0.503 1.319 0 1.822-0.486 0.487-1.335 0.487-1.822 0-0.503-0.503-0.503-1.32 0-1.822z"></path>
</svg>
