<?xml version="1.0" encoding="utf-8"?>
<!-- Generated by IcoMoon.io -->
<!DOCTYPE svg PUBLIC "-//W3C//DTD SVG 1.1//EN" "http://www.w3.org/Graphics/SVG/1.1/DTD/svg11.dtd">
<svg version="1.1" xmlns="http://www.w3.org/2000/svg" xmlns:xlink="http://www.w3.org/1999/xlink" width="32" height="32" viewBox="0 0 32 32">
<path d="M26.055 31.016c0-0.267-0.217-0.484-0.484-0.484h-17.421c-0.267 0-0.484 0.217-0.484 0.484s0.217 0.484 0.484 0.484h17.421c0.267 0 0.484-0.217 0.484-0.484zM5.996 9.583c-0.405 0.269-1.018 1.088-0.436 2.251 0.483 0.965 1.49 2.146 2.562 2.457 0.546 0.161 1.084 0.094 1.553-0.19 1.064-0.637 2.32-1.498 2.852-1.868 0.672 0.34 1.519 0.41 2.381 0.189 0.004-0.001 0.008-0.003 0.012-0.004-0.050 1.598-0.591 2.596-3.236 5.052-2.358 2.188-3.756 5.063-3.743 7.69 0.010 1.724 0.638 3.203 1.82 4.277 0.090 0.082 0.206 0.127 0.326 0.127h13.549c0.267 0 0.484-0.217 0.484-0.484s-0.217-0.484-0.484-0.484h-13.357c-0.889-0.876-1.362-2.061-1.369-3.441-0.013-2.325 1.304-4.999 3.433-6.976 2.821-2.619 3.551-3.86 3.551-6.036 0-0.040-0.014-0.075-0.022-0.111 0.529-0.286 0.987-0.663 1.3-1.12 0.392-0.571 1.236-2.037 0.61-3.335-0.116-0.239-0.405-0.341-0.646-0.225-0.24 0.116-0.342 0.405-0.225 0.646 0.282 0.584 0.081 1.468-0.536 2.366-0.356 0.519-0.993 0.938-1.704 1.12-0.723 0.185-1.41 0.104-1.889-0.225-0.167-0.114-0.387-0.113-0.553 0.004-0.017 0.012-1.72 1.211-3.048 2.007-0.243 0.145-0.499 0.176-0.786 0.091-0.749-0.219-1.573-1.173-1.967-1.961-0.318-0.637 0.008-0.941 0.156-1.049 3.336-2.881 5.010-5.875 5.079-6.001 0.064-0.118 0.077-0.257 0.035-0.386-0.005-0.015-0.339-1.029-0.523-1.968 1.012 0.61 2.753 1.461 4.566 1.461 2.52 0 8.379 0.941 8.379 9.655 0 0.047-0.009 4.785-1.907 9.995-0.092 0.251 0.038 0.528 0.289 0.62 0.055 0.018 0.11 0.028 0.166 0.028 0.197 0 0.383-0.122 0.455-0.318 1.956-5.369 1.966-10.129 1.965-10.328 0-9.855-7.155-10.621-9.347-10.621-2.428 0-4.851-1.842-4.874-1.861-0.148-0.111-0.344-0.13-0.51-0.049s-0.27 0.25-0.27 0.434c0 0.949 0.45 2.485 0.625 3.046-0.405 0.676-1.999 3.175-4.715 5.523zM21.685 2.020c-1.549-1.044-3.282-1.49-5.792-1.49-0.267 0-0.484 0.217-0.484 0.484s0.217 0.484 0.484 0.484c2.303 0 3.874 0.396 5.252 1.325 2.239 1.512 4.91 4.524 4.91 10.289 0 1.404 0 3.327-0.953 7.141-0.064 0.259 0.093 0.522 0.352 0.587 0.040 0.010 0.078 0.015 0.117 0.015 0.218 0 0.415-0.146 0.469-0.367 0.982-3.928 0.982-5.921 0.982-7.376 0-6.19-2.902-9.449-5.337-11.091z"></path>
</svg>
