<?xml version="1.0" encoding="utf-8"?>
<!-- Generated by IcoMoon.io -->
<!DOCTYPE svg PUBLIC "-//W3C//DTD SVG 1.1//EN" "http://www.w3.org/Graphics/SVG/1.1/DTD/svg11.dtd">
<svg version="1.1" xmlns="http://www.w3.org/2000/svg" xmlns:xlink="http://www.w3.org/1999/xlink" width="32" height="32" viewBox="0 0 32 32">
<path d="M16.484 31.016v-9.203c0-0.267-0.129-0.969-0.396-0.969s-0.573 0.217-0.573 0.484v9.688c0 0.267 0.304 0.484 0.573 0.484s0.396-0.217 0.396-0.484zM16.573 2.013v-1.029c0-0.267-0.217-0.484-0.484-0.484s-0.484 0.217-0.484 0.484v1.029c0 0.267 0.217 0.484 0.484 0.484s0.484-0.216 0.484-0.484zM5.722 3.863l-3.456 2.711c-0.199 0.183-0.313 0.442-0.313 0.708s0.114 0.525 0.343 0.734l3.395 2.659c0.297 0.274 0.827 0.481 1.233 0.481h13.396c0.555 0 1.008-0.449 1.008-1.001v-5.749c0-0.552-0.452-1.001-1.008-1.001h-13.396c-0.406 0-0.936 0.207-1.203 0.456zM20.359 10.156c0 0.015-0.017 0.032-0.039 0.032h-13.396c-0.165 0-0.456-0.113-0.605-0.25l-3.425-2.628 3.455-2.711c0.121-0.11 0.412-0.224 0.576-0.224l13.435 0.032v5.749zM26.308 12.606c-0.297-0.274-0.827-0.481-1.233-0.481h-13.396c-0.555 0-1.008 0.449-1.008 1.001v5.75c0 0.551 0.452 1 1.008 1h13.396c0.406 0 0.936-0.207 1.204-0.456l3.455-2.711c0.199-0.183 0.313-0.442 0.313-0.708s-0.114-0.525-0.343-0.734l-3.395-2.659zM11.641 13.094h13.435c0.165 0 0.456 0.113 0.605 0.25l3.425 2.628-3.455 2.711c-0.121 0.11-0.412 0.224-0.576 0.224h-13.435v-5.813z"></path>
</svg>
