<?xml version="1.0" encoding="utf-8"?>
<!-- Generated by IcoMoon.io -->
<!DOCTYPE svg PUBLIC "-//W3C//DTD SVG 1.1//EN" "http://www.w3.org/Graphics/SVG/1.1/DTD/svg11.dtd">
<svg version="1.1" xmlns="http://www.w3.org/2000/svg" xmlns:xlink="http://www.w3.org/1999/xlink" width="32" height="32" viewBox="0 0 32 32">
<path d="M5.344 31.5h21.313c0.801 0 1.453-0.652 1.453-1.453v-28.094c0-0.801-0.652-1.453-1.453-1.453h-21.313c-0.801 0-1.453 0.652-1.453 1.453v28.094c0 0.801 0.652 1.453 1.453 1.453zM4.859 1.953c0-0.267 0.217-0.484 0.484-0.484h21.313c0.267 0 0.484 0.217 0.484 0.484v28.094c0 0.267-0.217 0.484-0.484 0.484h-21.313c-0.267 0-0.484-0.217-0.484-0.484v-28.094zM7.281 26.656h17.438c0.267 0 0.484-0.217 0.484-0.484v-22.281c0-0.267-0.217-0.484-0.484-0.484h-17.438c-0.267 0-0.484 0.217-0.484 0.484v22.281c0 0.267 0.217 0.484 0.484 0.484zM7.766 4.375h16.469v21.313h-16.469v-21.313zM15.516 28.594c0 0.535 0.434 0.969 0.969 0.969s0.969-0.434 0.969-0.969c0-0.535-0.434-0.969-0.969-0.969s-0.969 0.434-0.969 0.969z"></path>
</svg>
