<?xml version="1.0" encoding="utf-8"?>
<!-- Generated by IcoMoon.io -->
<!DOCTYPE svg PUBLIC "-//W3C//DTD SVG 1.1//EN" "http://www.w3.org/Graphics/SVG/1.1/DTD/svg11.dtd">
<svg version="1.1" xmlns="http://www.w3.org/2000/svg" xmlns:xlink="http://www.w3.org/1999/xlink" width="32" height="32" viewBox="0 0 32 32">
<path d="M31.154 13.876c-0.164-0.138-0.41-0.116-0.549 0.050l-1.728 2.073c-0.037-0.012-0.075-0.023-0.117 0.001h-1.015l1.292-1.575c0.138-0.166 0.115-0.411-0.050-0.549s-0.411-0.116-0.549 0.050l-1.708 2.075h-1.153l1.292-1.575c0.138-0.166 0.115-0.411-0.050-0.549s-0.41-0.116-0.549 0.050l-1.708 2.075h-0.549c-0.014-6.454-5.246-11.679-11.678-11.679-6.44 0-11.679 5.24-11.679 11.679s5.24 11.679 11.679 11.679c6.185 0 11.249-4.837 11.642-10.95h0.586l1.708 2.075c0.077 0.093 0.188 0.14 0.299 0.14 0.088 0 0.177-0.029 0.25-0.091 0.166-0.137 0.188-0.383 0.050-0.549l-1.293-1.575h1.153l1.708 2.075c0.077 0.093 0.188 0.14 0.299 0.14 0.088 0 0.177-0.029 0.25-0.091 0.166-0.137 0.188-0.383 0.050-0.549l-1.292-1.575h1.015c0.042 0.025 0.080 0.013 0.118 0.001l1.728 2.073c0.077 0.093 0.188 0.14 0.299 0.14 0.088 0 0.177-0.029 0.25-0.091 0.166-0.137 0.188-0.383 0.050-0.549l-1.617-1.94 1.617-1.94c0.138-0.166 0.115-0.412-0.050-0.549zM12.336 26.95c-6.038 0-10.95-4.912-10.95-10.95s4.912-10.95 10.95-10.95c6.030 0 10.934 4.898 10.948 10.95h-2.19c-0.013-4.843-3.936-8.76-8.758-8.76-4.83 0-8.76 3.929-8.76 8.76s3.929 8.76 8.76 8.76c4.575 0 8.337-3.527 8.722-8.030h2.19c-0.391 5.711-5.129 10.22-10.912 10.22zM18.175 16c-0.013-3.233-2.626-5.84-5.838-5.84-3.22 0-5.84 2.62-5.84 5.84s2.62 5.84 5.84 5.84c2.964 0 5.413-2.221 5.785-5.11h2.206c-0.382 4.099-3.818 7.3-7.991 7.3-4.427 0-8.030-3.602-8.030-8.030s3.602-8.030 8.030-8.030c4.419 0 8.015 3.588 8.028 8.030h-2.19zM15.254 16c-0.014-1.623-1.315-2.92-2.918-2.92-1.61 0-2.92 1.31-2.92 2.92s1.31 2.92 2.92 2.92c1.348 0 2.473-0.922 2.808-2.19h2.24c-0.367 2.485-2.488 4.38-5.048 4.38-2.817 0-5.11-2.293-5.11-5.11s2.293-5.11 5.11-5.11c2.809 0 5.095 2.279 5.108 5.11h-2.191zM12.701 16.73h1.683c-0.309 0.86-1.107 1.46-2.048 1.46-1.207 0-2.19-0.983-2.19-2.19s0.983-2.19 2.19-2.19c1.199 0 2.174 0.969 2.188 2.19h-1.823c-0.215-0.025-0.39 0.15-0.39 0.365s0.174 0.39 0.39 0.365z"></path>
</svg>
