<?xml version="1.0" encoding="utf-8"?>
<!-- Generated by IcoMoon.io -->
<!DOCTYPE svg PUBLIC "-//W3C//DTD SVG 1.1//EN" "http://www.w3.org/Graphics/SVG/1.1/DTD/svg11.dtd">
<svg version="1.1" xmlns="http://www.w3.org/2000/svg" xmlns:xlink="http://www.w3.org/1999/xlink" width="32" height="32" viewBox="0 0 32 32">
<path d="M24.686 3.839c-0.047-0.118-0.142-0.209-0.26-0.253s-0.25-0.035-0.362 0.024l-10.605 5.596c-0.2 0.105-0.289 0.343-0.208 0.553l0.218 0.571-6.122 3.357c-0.2 0.11-0.285 0.352-0.198 0.561l0.203 0.489-6.502 3.107c-0.214 0.102-0.31 0.354-0.219 0.573l1.334 3.216c0.071 0.171 0.236 0.275 0.412 0.275 0.050 0 0.1-0.008 0.149-0.026l6.792-2.406 0.203 0.489c0.070 0.17 0.235 0.275 0.412 0.275 0.041 0 0.082-0.005 0.124-0.018l6.481-1.868 0.194 0.507c0.066 0.175 0.234 0.286 0.414 0.286 0.044 0 0.087-0.006 0.131-0.020l11.58-3.563c0.119-0.037 0.217-0.121 0.271-0.233s0.058-0.242 0.012-0.357l-4.454-11.135zM2.627 20.901l-1.010-2.435 6.078-2.905 1.282 3.091-6.349 2.249zM10.191 19.257l-0.212-0.511c0 0 0 0 0 0l-1.642-3.959c0 0 0 0 0 0l-0.212-0.51 5.644-3.095 2.115 5.464 0.334 0.874-6.027 1.739zM17.414 18.154l-0.181-0.473c-0.003-0.010-0.001-0.021-0.005-0.031l-0.55-1.423-2.453-6.419 9.819-5.18 4.090 10.226-10.719 3.299zM26.022 2.057c-0.092-0.229-0.352-0.339-0.579-0.249s-0.339 0.351-0.249 0.579l5.345 13.361c0.070 0.175 0.238 0.281 0.414 0.281 0.055 0 0.111-0.010 0.166-0.032 0.228-0.092 0.339-0.351 0.249-0.579l-5.346-13.361zM16.256 20.484h-2.672c-1.015 0-1.782 0.766-1.782 1.782v1.171l-5.237 6.11c-0.16 0.186-0.139 0.468 0.048 0.628 0.084 0.072 0.187 0.108 0.29 0.108 0.126 0 0.25-0.053 0.338-0.156l5.212-6.079h2.022v5.79c0 0.246 0.2 0.445 0.445 0.445s0.445-0.2 0.445-0.445v-5.79h2.022l5.211 6.079c0.088 0.103 0.213 0.156 0.338 0.156 0.102 0 0.206-0.036 0.29-0.108 0.187-0.16 0.208-0.441 0.048-0.628l-5.237-6.11v-1.105c0-1.036-0.782-1.848-1.782-1.848zM17.147 23.156h-4.454v-0.891c0-0.525 0.366-0.891 0.891-0.891h2.672c0.508 0 0.891 0.412 0.891 0.958v0.824z"></path>
</svg>
