<?xml version="1.0" encoding="utf-8"?>
<!-- Generated by IcoMoon.io -->
<!DOCTYPE svg PUBLIC "-//W3C//DTD SVG 1.1//EN" "http://www.w3.org/Graphics/SVG/1.1/DTD/svg11.dtd">
<svg version="1.1" xmlns="http://www.w3.org/2000/svg" xmlns:xlink="http://www.w3.org/1999/xlink" width="32" height="32" viewBox="0 0 32 32">
<path d="M30.978 16.731c-0.202 0-0.365 0.164-0.365 0.365v9.498c0 0.202-0.164 0.365-0.365 0.365h-28.496c-0.202 0-0.365-0.164-0.365-0.365v-9.498c0-0.202-0.164-0.365-0.365-0.365s-0.365 0.164-0.365 0.365v9.498c0 0.604 0.492 1.096 1.096 1.096h28.496c0.604 0 1.096-0.492 1.096-1.096v-9.498c0-0.202-0.164-0.365-0.365-0.365zM30.248 9.424h-28.496c-0.604 0-1.096 0.492-1.096 1.096v4.384c0 0.202 0.164 0.365 0.365 0.365h9.864v2.557c0 0.604 0.492 1.096 1.096 1.096h8.037c0.604 0 1.096-0.492 1.096-1.096v-2.557h9.864c0.202 0 0.365-0.164 0.365-0.365v-4.384c0-0.604-0.492-1.096-1.096-1.096zM20.384 17.827c0 0.202-0.164 0.365-0.365 0.365h-8.037c-0.202 0-0.365-0.164-0.365-0.365v-2.557h8.768v2.557zM30.613 14.539h-29.226v-4.019c0-0.202 0.164-0.365 0.365-0.365h28.496c0.202 0 0.365 0.164 0.365 0.365v4.019zM11.981 4.31c-0.604 0-1.096 0.492-1.096 1.096v2.923c0 0.202 0.164 0.365 0.365 0.365s0.365-0.164 0.365-0.365v-2.923c0-0.202 0.164-0.365 0.365-0.365h8.037c0.202 0 0.365 0.164 0.365 0.365v2.923c0 0.202 0.164 0.365 0.365 0.365s0.365-0.164 0.365-0.365v-2.923c0-0.604-0.492-1.096-1.096-1.096h-8.037z"></path>
</svg>
