<?xml version="1.0" encoding="utf-8"?>
<!-- Generated by IcoMoon.io -->
<!DOCTYPE svg PUBLIC "-//W3C//DTD SVG 1.1//EN" "http://www.w3.org/Graphics/SVG/1.1/DTD/svg11.dtd">
<svg version="1.1" xmlns="http://www.w3.org/2000/svg" xmlns:xlink="http://www.w3.org/1999/xlink" width="32" height="32" viewBox="0 0 32 32">
<path d="M27.629 2.446c0.108-0.108 0.157-0.263 0.131-0.413s-0.124-0.28-0.264-0.345c-2.156-1.017-4.716-0.57-6.399 1.121-1.598 1.609-2.156 4.135-1.411 6.247l-10.861 10.861c-0.59-0.211-1.221-0.316-1.879-0.316-1.613 0-3.178 0.642-4.291 1.762-1.677 1.687-2.15 4.179-1.206 6.351 0.062 0.143 0.191 0.247 0.345 0.275s0.312-0.020 0.421-0.131l3.286-3.303c0.216-0.218 0.566-0.248 0.746-0.064l1.418 1.484c0.206 0.208 0.197 0.529-0.021 0.748l-3.274 3.294c-0.108 0.108-0.156 0.263-0.13 0.413s0.124 0.279 0.263 0.344c0.78 0.368 1.601 0.553 2.439 0.553 1.48 0 2.885-0.595 3.96-1.675 1.598-1.608 2.156-4.134 1.41-6.246l10.861-10.862c0.591 0.211 1.222 0.316 1.88 0.316 1.613 0 3.178-0.642 4.291-1.762 1.677-1.687 2.15-4.179 1.206-6.351-0.062-0.143-0.191-0.247-0.345-0.275-0.152-0.026-0.311 0.020-0.421 0.131l-3.286 3.303c-0.202 0.203-0.546 0.201-0.754-0.009l-1.411-1.411c-0.213-0.214-0.212-0.535-0.001-0.747l3.295-3.293zM23.668 7.152l1.411 1.411c0.564 0.567 1.53 0.569 2.088 0.008l2.758-2.771c0.441 1.639-0.015 3.397-1.246 4.637-0.938 0.944-2.258 1.484-3.624 1.484-0.643 0-1.252-0.12-1.81-0.358-0.177-0.076-0.381-0.035-0.517 0.1l-11.295 11.295c-0.136 0.136-0.175 0.339-0.101 0.515 0.756 1.798 0.296 4.118-1.095 5.517-1.243 1.25-3.053 1.695-4.692 1.184l2.768-2.786c0.585-0.588 0.594-1.5 0.027-2.069l-1.418-1.484c-0.547-0.551-1.519-0.517-2.088 0.058l-2.758 2.771c-0.441-1.639 0.015-3.397 1.246-4.637 0.938-0.944 2.258-1.484 3.624-1.484 0.643 0 1.252 0.12 1.81 0.358 0.176 0.077 0.381 0.035 0.517-0.1l11.295-11.295c0.136-0.136 0.175-0.339 0.101-0.515-0.756-1.798-0.296-4.119 1.095-5.518 1.242-1.25 3.052-1.692 4.689-1.184l-2.786 2.787c-0.58 0.581-0.58 1.492 0 2.075zM28.435 30.018c-0.208 0.209-0.569 0.209-0.778-0.002l-9.441-9.413c-0.184-0.182-0.482-0.183-0.665 0.002s-0.183 0.482 0.001 0.665l9.44 9.411c0.282 0.283 0.657 0.44 1.056 0.44 0 0 0 0 0 0 0.399 0 0.774-0.156 1.062-0.446l1.345-1.405c0.579-0.582 0.579-1.494-0.001-2.076l-9.413-9.413c-0.184-0.184-0.482-0.184-0.665 0s-0.184 0.482 0 0.665l9.412 9.412c0.216 0.216 0.216 0.531-0.007 0.755l-1.345 1.405zM6.45 4.133l-2.824-2.824c-0.184-0.184-0.482-0.184-0.665 0l-1.883 1.883c-0.184 0.184-0.184 0.482 0 0.665l2.824 2.824c0.091 0.092 0.212 0.138 0.332 0.138s0.241-0.046 0.333-0.137l0.608-0.609 7.197 7.197c0.092 0.092 0.213 0.138 0.333 0.138s0.241-0.046 0.333-0.137c0.184-0.184 0.184-0.482 0-0.665l-7.198-7.198 0.608-0.608c0.184-0.184 0.184-0.482 0.001-0.666zM4.235 5.683l-2.158-2.158 1.217-1.217 2.158 2.158-1.217 1.217z"></path>
</svg>
