<?xml version="1.0" encoding="utf-8"?>
<!-- Generated by IcoMoon.io -->
<!DOCTYPE svg PUBLIC "-//W3C//DTD SVG 1.1//EN" "http://www.w3.org/Graphics/SVG/1.1/DTD/svg11.dtd">
<svg version="1.1" xmlns="http://www.w3.org/2000/svg" xmlns:xlink="http://www.w3.org/1999/xlink" width="32" height="32" viewBox="0 0 32 32">
<path d="M1.313 6.213c-0.813 0.814-0.639 1.959 0.008 2.605 0.026 0.025 2.623 2.506 6.275 6.158 0.094 0.094 0.217 0.14 0.34 0.14s0.246-0.047 0.34-0.14c0.187-0.187 0.187-0.491 0-0.678-0.551-0.551-1.074-1.072-1.571-1.565l1.524-1.524c0.187-0.187 0.187-0.491 0-0.678s-0.491-0.187-0.678 0l-1.528 1.528c-0.855-0.844-1.608-1.581-2.221-2.179l3.468-3.468c0.187-0.187 0.187-0.491 0-0.678s-0.491-0.187-0.678 0l-3.478 3.479c-0.706-0.684-1.113-1.072-1.12-1.079-0.202-0.202-0.468-0.772 0-1.24l4.797-4.797c0.185-0.188 0.678-0.561 1.219-0.023 0.024 0.027 2.446 2.778 6.143 6.475 0.187 0.187 0.491 0.187 0.678 0s0.187-0.491 0-0.678c-3.674-3.673-6.078-6.403-6.122-6.453-0.894-0.892-1.972-0.625-2.597 0l-4.798 4.797zM21.659 23.961c-0.187-0.187-0.491-0.187-0.678 0l-1.526 1.525c-0.465-0.471-0.954-0.964-1.468-1.478-0.187-0.187-0.491-0.187-0.678 0s-0.187 0.491 0 0.678c3.553 3.552 6.035 6.206 6.071 6.244 0.329 0.33 0.78 0.511 1.269 0.511v0c0.504 0 1.013-0.197 1.329-0.513l4.795-4.851c0.603-0.603 0.638-1.627 0.075-2.192l-6.433-6.432c-0.187-0.187-0.491-0.187-0.678 0s-0.187 0.491 0 0.678l6.433 6.432c0.192 0.192 0.155 0.606-0.076 0.837l-4.796 4.851c-0.11 0.111-0.361 0.23-0.648 0.23 0 0 0 0 0 0-0.165 0-0.401-0.040-0.579-0.22-0.010-0.011-0.412-0.439-1.109-1.169l3.496-3.496c0.187-0.187 0.187-0.491 0-0.678s-0.491-0.187-0.678 0l-3.481 3.481c-0.599-0.623-1.332-1.38-2.168-2.231l1.531-1.531c0.187-0.186 0.187-0.489 0-0.677zM0.83 31.331c0.092 0.094 0.216 0.144 0.343 0.144 0.046 0 0.092-0.007 0.137-0.020l9.593-2.858c0.078-0.023 0.147-0.064 0.203-0.122l16.395-16.505c0.023-0.023 0.035-0.053 0.052-0.079l3.507-3.507c0.282-0.283 0.438-0.658 0.438-1.058s-0.156-0.774-0.438-1.055l-5.022-5.021c-0.564-0.564-1.549-0.564-2.113 0l-3.587 3.587c-0.023 0.023-0.035 0.053-0.053 0.080l-16.42 16.421c-0.054 0.054-0.094 0.119-0.117 0.191l-3.031 9.32c-0.056 0.17-0.012 0.355 0.112 0.483zM20.705 5.854l0.997 0.997-14.892 14.932-1.657-0.376 15.552-15.552zM7.409 22.541l14.972-15.011 2.337 2.337-15.107 14.914h-2.202v-2.239zM26.484 11.634l-15.583 15.689-0.554-1.921 15.049-14.857 1.088 1.089zM4.524 22.247l1.925 0.437v2.576c0 0.265 0.215 0.48 0.48 0.48h2.517l0.608 2.11-8.143 2.426 2.612-8.029zM24.605 1.928c0.202-0.202 0.555-0.202 0.757 0l5.022 5.022c0.101 0.101 0.156 0.235 0.156 0.378s-0.056 0.277-0.157 0.379l-3.234 3.235-5.778-5.778 3.234-3.236z"></path>
</svg>
