<?xml version="1.0" encoding="utf-8"?>
<!-- Generated by IcoMoon.io -->
<!DOCTYPE svg PUBLIC "-//W3C//DTD SVG 1.1//EN" "http://www.w3.org/Graphics/SVG/1.1/DTD/svg11.dtd">
<svg version="1.1" xmlns="http://www.w3.org/2000/svg" xmlns:xlink="http://www.w3.org/1999/xlink" width="32" height="32" viewBox="0 0 32 32">
<path d="M16 0.5c-8.548 0-15.5 6.952-15.5 15.5s6.952 15.5 15.5 15.5 15.5-6.952 15.5-15.5-6.952-15.5-15.5-15.5zM16 30.468c-7.977 0-14.468-6.49-14.468-14.468s6.49-14.468 14.468-14.468 14.468 6.49 14.468 14.468-6.49 14.468-14.468 14.468zM20.348 12.133h-3.381v-3.384c0.032-0.285-0.199-0.516-0.484-0.516h-2.493c-0.261 0-0.48 0.193-0.512 0.453-0.092 0.738-0.257 1.343-0.49 1.801-0.228 0.451-0.537 0.844-0.918 1.169-0.31 0.264-0.844 0.524-1.542 0.749-0.214 0.069-0.358 0.268-0.327 0.492v2.619c-0.031 0.285 0.2 0.516 0.485 0.484l1.448 0.967v4.513c-0.033-0.291 0.036-0.094 0.17 0.223l0.057 0.137c0.005 0.013 0.495 1.231 1.085 1.739 0.435 0.373 0.962 0.663 1.566 0.862 0.566 0.185 1.045 0.292 1.828 0.292 0.659 0 1.283-0.067 1.856-0.2 0.658-0.154 1.254-0.362 1.873-0.654 0.182-0.085 0.297-0.267 0.265-0.467v-2.325c0.031-0.189-0.073-0.364-0.24-0.455s-0.37-0.081-0.53 0.023c-0.682 0.448-1.047 0.528-1.736 0.528-0.321 0-0.599-0.066-0.852-0.204-0.102-0.185-0.248-0.752-0.305-0.975-0.050-0.192-0.093-0.35-0.122-0.428-0.053-0.141-0.053-0.646-0.052-1.23l0.001-2.345h3.35c0.285 0.032 0.516-0.199 0.485-0.484v-2.9c0.031-0.285-0.2-0.516-0.485-0.482zM19.832 15.033h-3.35c-0.285-0.034-0.516 0.197-0.482 0.482l-0.002 2.827c-0.035 0.825-0.035 1.278 0.084 1.595 0.022 0.059 0.051 0.178 0.089 0.323 0.246 0.956 0.4 1.386 0.718 1.573 0.423 0.253 0.907 0.382 1.438 0.382 0.554 0 0.999-0.048 1.504-0.26v1.121c-0.45 0.192-0.893 0.337-1.373 0.45-0.496 0.115-1.040 0.174-1.621 0.174-0.652 0-1.019-0.081-1.506-0.241-0.474-0.157-0.884-0.381-1.215-0.665-0.263-0.226-0.632-0.922-0.798-1.337l-0.064-0.156c-0.092-0.218-0.123-0.291-0.156-0.789v-4.997c0.033-0.285-0.198-0.516-0.483-0.516h-1.415v-1.734c0.665-0.243 1.18-0.519 1.536-0.824 0.487-0.414 0.881-0.914 1.171-1.487 0.235-0.463 0.412-1.029 0.527-1.69h1.531v3.351c0 0.285 0.231 0.516 0.516 0.484h3.35v1.933z"></path>
</svg>
