<?xml version="1.0" encoding="utf-8"?>
<!-- Generated by IcoMoon.io -->
<!DOCTYPE svg PUBLIC "-//W3C//DTD SVG 1.1//EN" "http://www.w3.org/Graphics/SVG/1.1/DTD/svg11.dtd">
<svg version="1.1" xmlns="http://www.w3.org/2000/svg" xmlns:xlink="http://www.w3.org/1999/xlink" width="32" height="32" viewBox="0 0 32 32">
<path d="M16 0.501c-8.546 0-15.5 6.952-15.5 15.499s6.954 15.499 15.5 15.499 15.5-6.952 15.5-15.499-6.954-15.499-15.5-15.499zM16 30.467c-7.977 0-14.466-6.49-14.466-14.467s6.489-14.467 14.466-14.467 14.466 6.49 14.466 14.467-6.489 14.467-14.466 14.467zM24.501 11.211c0.106-0.197 0.195-0.405 0.264-0.622 0.065-0.205-0.002-0.427-0.17-0.562s-0.401-0.149-0.585-0.041c-0.496 0.295-1.029 0.512-1.591 0.651-0.675-0.61-1.561-0.954-2.477-0.954-2.035 0-3.69 1.655-3.69 3.688 0 0.051 0.001 0.101 0.003 0.153-2.16-0.27-4.155-1.368-5.544-3.072-0.106-0.131-0.271-0.2-0.441-0.188-0.169 0.014-0.321 0.108-0.406 0.256-0.327 0.561-0.5 1.202-0.5 1.855 0 0.619 0.154 1.214 0.436 1.742-0.072 0.012-0.142 0.038-0.207 0.075-0.158 0.094-0.255 0.282-0.255 0.465 0 1.097 0.488 2.104 1.275 2.789-0.012 0.011-0.022 0.022-0.034 0.034-0.121 0.137-0.16 0.327-0.104 0.501 0.339 1.058 1.125 1.881 2.111 2.286-1.006 0.498-2.175 0.692-3.292 0.56-0.236-0.021-0.465 0.112-0.547 0.34-0.080 0.226 0.005 0.478 0.208 0.609 1.539 0.986 3.316 1.507 5.142 1.507 5.974 0 9.545-4.852 9.545-9.544 0-0.053 0-0.105-0.001-0.159 0.577-0.45 1.078-0.989 1.49-1.605 0.128-0.19 0.114-0.444-0.034-0.62-0.146-0.173-0.387-0.233-0.595-0.145zM22.814 12.908c-0.142 0.102-0.223 0.27-0.215 0.446 0.006 0.128 0.009 0.257 0.009 0.385 0 4.184-3.183 8.511-8.51 8.511-0.956 0-1.898-0.16-2.791-0.472 1.068-0.204 2.070-0.659 2.943-1.344 0.172-0.135 0.241-0.363 0.171-0.571s-0.262-0.348-0.48-0.352c-0.861-0.017-1.642-0.446-2.121-1.123 0.245-0.016 0.484-0.057 0.717-0.12 0.231-0.063 0.388-0.276 0.38-0.516s-0.18-0.442-0.415-0.489c-0.97-0.194-1.73-0.912-2.012-1.841 0.257 0.065 0.521 0.102 0.785 0.111 0.227-0.001 0.438-0.14 0.508-0.359s-0.013-0.459-0.205-0.587c-0.739-0.495-1.181-1.32-1.181-2.211 0-0.216 0.026-0.428 0.076-0.636 1.673 1.716 3.944 2.752 6.349 2.873 0.17 0.001 0.319-0.060 0.422-0.185s0.143-0.29 0.106-0.449c-0.045-0.196-0.069-0.4-0.069-0.606 0-1.464 1.192-2.655 2.656-2.655 0.732 0 1.438 0.305 1.938 0.839 0.122 0.13 0.302 0.188 0.477 0.154 0.159-0.032 0.317-0.069 0.473-0.111-0.070 0.052-0.142 0.101-0.218 0.146-0.209 0.125-0.302 0.38-0.223 0.61s0.313 0.381 0.55 0.345c0.059-0.007 0.117-0.014 0.176-0.022-0.096 0.079-0.196 0.156-0.299 0.229z"></path>
</svg>
