<?xml version="1.0" encoding="utf-8"?>
<!-- Generated by IcoMoon.io -->
<!DOCTYPE svg PUBLIC "-//W3C//DTD SVG 1.1//EN" "http://www.w3.org/Graphics/SVG/1.1/DTD/svg11.dtd">
<svg version="1.1" xmlns="http://www.w3.org/2000/svg" xmlns:xlink="http://www.w3.org/1999/xlink" width="32" height="32" viewBox="0 0 32 32">
<path d="M25.468 13.799c-0.312-4.831-3.672-9.49-9.833-9.49-5.636 0-9.981 4.189-10.212 9.779-3.083 0.959-4.767 4.259-4.767 6.661 0 3.698 3.073 6.941 6.576 6.941h4.749c0.202 0 0.365-0.164 0.365-0.365s-0.164-0.365-0.365-0.365h-4.749c-3.114 0-5.845-2.902-5.845-6.211 0-2.229 1.954-6.211 5.845-6.211h1.096c0.202 0 0.365-0.164 0.365-0.365s-0.164-0.365-0.365-0.365h-1.096c-0.372 0-0.723 0.042-1.066 0.102 0.286-4.377 3.613-8.869 9.469-8.869 6.275 0 9.133 4.924 9.133 9.498v1.096c0 0.202 0.164 0.365 0.365 0.365s0.365-0.164 0.365-0.365v-1.096c0-0.002 0-0.004 0-0.007 2.206 0.242 5.115 2.609 5.115 6.217 0 2.796-2.697 6.211-5.845 6.211h-5.48c-2.366 0-3.288-0.922-3.288-3.288v-10.022l2.98 2.974c0.072 0.072 0.165 0.107 0.259 0.107s0.187-0.036 0.259-0.107c0.142-0.142 0.142-0.375 0-0.517l-3.259-3.253c-0.434-0.433-0.771-0.433-1.204 0l-3.259 3.253c-0.142 0.142-0.142 0.374 0 0.517s0.374 0.142 0.517 0l2.979-2.974v10.022c0 2.779 1.239 4.019 4.019 4.019h5.48c3.541 0 6.576-3.817 6.576-6.941 0-3.775-3.086-6.728-5.876-6.95z"></path>
</svg>
