<?xml version="1.0" encoding="utf-8"?>
<!-- Generated by IcoMoon.io -->
<!DOCTYPE svg PUBLIC "-//W3C//DTD SVG 1.1//EN" "http://www.w3.org/Graphics/SVG/1.1/DTD/svg11.dtd">
<svg version="1.1" xmlns="http://www.w3.org/2000/svg" xmlns:xlink="http://www.w3.org/1999/xlink" width="32" height="32" viewBox="0 0 32 32">
<path d="M6.83 2.662h-5.002c-0.724 0-1.25 0.526-1.25 1.25v24.175c0 0.724 0.526 1.25 1.25 1.25h28.343c0.724 0 1.25-0.526 1.25-1.25v-24.175c0-0.724-0.526-1.25-1.25-1.25h-23.341zM1.412 28.087v-24.175c0-0.261 0.156-0.417 0.417-0.417h4.585v25.008h-4.585c-0.261 0-0.417-0.156-0.417-0.417zM7.247 28.504v-25.008h17.506v25.008h-17.506zM30.588 3.913v24.175c0 0.261-0.156 0.417-0.417 0.417h-4.585v-25.008h4.585c0.261 0 0.417 0.156 0.417 0.417zM12.896 11.068c-0.128-0.085-0.293-0.093-0.428-0.021-0.134 0.073-0.219 0.213-0.219 0.368v10.003c0 0.154 0.085 0.295 0.22 0.368 0.062 0.032 0.129 0.049 0.197 0.049 0.081 0 0.161-0.023 0.231-0.070l7.503-5.002c0.116-0.078 0.186-0.208 0.186-0.347s-0.070-0.269-0.186-0.347l-7.503-5.002zM13.082 20.64v-8.446l6.335 4.223-6.335 4.223zM4.746 9.331h-1.667c-0.23 0-0.417 0.187-0.417 0.417s0.187 0.417 0.417 0.417h1.667c0.23 0 0.417-0.187 0.417-0.417s-0.187-0.417-0.417-0.417zM3.079 6.83h1.667c0.23 0 0.417-0.187 0.417-0.417s-0.187-0.417-0.417-0.417h-1.667c-0.23 0-0.417 0.187-0.417 0.417s0.187 0.417 0.417 0.417zM4.746 12.666h-1.667c-0.23 0-0.417 0.187-0.417 0.417s0.187 0.417 0.417 0.417h1.667c0.23 0 0.417-0.187 0.417-0.417s-0.187-0.417-0.417-0.417zM4.746 16h-1.667c-0.23 0-0.417 0.187-0.417 0.417s0.187 0.417 0.417 0.417h1.667c0.23 0 0.417-0.187 0.417-0.417s-0.187-0.417-0.417-0.417zM4.746 19.334h-1.667c-0.23 0-0.417 0.187-0.417 0.417s0.187 0.417 0.417 0.417h1.667c0.23 0 0.417-0.187 0.417-0.417s-0.187-0.417-0.417-0.417zM4.746 22.669h-1.667c-0.23 0-0.417 0.187-0.417 0.417s0.187 0.417 0.417 0.417h1.667c0.23 0 0.417-0.187 0.417-0.417s-0.187-0.417-0.417-0.417zM4.746 26.003h-1.667c-0.23 0-0.417 0.187-0.417 0.417s0.187 0.417 0.417 0.417h1.667c0.23 0 0.417-0.187 0.417-0.417s-0.187-0.417-0.417-0.417zM27.254 10.165h1.667c0.23 0 0.417-0.187 0.417-0.417s-0.187-0.417-0.417-0.417h-1.667c-0.23 0-0.417 0.187-0.417 0.417s0.187 0.417 0.417 0.417zM27.254 6.83h1.667c0.23 0 0.417-0.187 0.417-0.417s-0.187-0.417-0.417-0.417h-1.667c-0.23 0-0.417 0.187-0.417 0.417s0.187 0.417 0.417 0.417zM27.254 13.499h1.667c0.23 0 0.417-0.187 0.417-0.417s-0.187-0.417-0.417-0.417h-1.667c-0.23 0-0.417 0.187-0.417 0.417s0.187 0.417 0.417 0.417zM27.254 16.834h1.667c0.23 0 0.417-0.187 0.417-0.417s-0.187-0.417-0.417-0.417h-1.667c-0.23 0-0.417 0.187-0.417 0.417s0.187 0.417 0.417 0.417zM27.254 20.168h1.667c0.23 0 0.417-0.187 0.417-0.417s-0.187-0.417-0.417-0.417h-1.667c-0.23 0-0.417 0.187-0.417 0.417s0.187 0.417 0.417 0.417zM27.254 23.503h1.667c0.23 0 0.417-0.187 0.417-0.417s-0.187-0.417-0.417-0.417h-1.667c-0.23 0-0.417 0.187-0.417 0.417s0.187 0.417 0.417 0.417zM28.921 26.003h-1.667c-0.23 0-0.417 0.187-0.417 0.417s0.187 0.417 0.417 0.417h1.667c0.23 0 0.417-0.187 0.417-0.417s-0.187-0.417-0.417-0.417z"></path>
</svg>
