<?xml version="1.0" encoding="utf-8"?>
<!-- Generated by IcoMoon.io -->
<!DOCTYPE svg PUBLIC "-//W3C//DTD SVG 1.1//EN" "http://www.w3.org/Graphics/SVG/1.1/DTD/svg11.dtd">
<svg version="1.1" xmlns="http://www.w3.org/2000/svg" xmlns:xlink="http://www.w3.org/1999/xlink" width="32" height="32" viewBox="0 0 32 32">
<path d="M26.955 9.133c0.224 0 0.405-0.182 0.405-0.405v-1.35c0-0.732-0.596-1.328-1.328-1.328h-2.179l-0.497-1.467c-0.070-0.207-0.292-0.322-0.502-0.258l-11.801 3.588c-0.214 0.066-0.335 0.292-0.27 0.506 0.054 0.175 0.214 0.287 0.388 0.287 0.039 0 0.079-0.006 0.118-0.017l11.425-3.474 1.089 3.215c0.072 0.212 0.304 0.328 0.514 0.254 0.212-0.071 0.326-0.302 0.254-0.514l-0.444-1.31h1.905c0.285 0 0.517 0.232 0.517 0.517v1.351c-0.001 0.224 0.181 0.405 0.405 0.405zM30.191 15.215c-0.224 0-0.405 0.182-0.405 0.405s0.182 0.405 0.405 0.405c0.285 0 0.405 0.121 0.405 0.405v4.866c0 0.285-0.121 0.405-0.405 0.405h-6.487c-0.285 0-0.405-0.121-0.405-0.405v-4.055c0-0.285 0.121-0.405 0.405-0.405h4.866c0.224 0 0.405-0.182 0.405-0.405v-4.866c0-0.739-0.478-1.216-1.216-1.216h-24.733c-1 0-1.622-0.622-1.622-1.622s0.622-1.622 1.622-1.622h4.116l-2.454 0.809c-0.212 0.070-0.328 0.299-0.259 0.512 0.056 0.17 0.215 0.278 0.385 0.278 0.042 0 0.084-0.007 0.127-0.020l14.693-4.844c0.212-0.071 0.328-0.299 0.258-0.513s-0.299-0.328-0.512-0.258l-9.812 3.236c-0.019-0.003-0.036-0.011-0.055-0.011h-6.487c-1.455 0-2.433 0.978-2.433 2.433v17.84c0 1.455 0.978 2.433 2.433 2.433h24.733c0.739 0 1.216-0.478 1.216-1.216v-4.055c0-0.224-0.182-0.405-0.405-0.405s-0.405 0.182-0.405 0.405v4.055c0 0.285-0.121 0.405-0.405 0.405h-24.733c-1 0-1.622-0.622-1.622-1.622v-15.965c0.416 0.351 0.967 0.558 1.622 0.558h24.733c0.285 0 0.405 0.121 0.405 0.405v4.46h-4.46c-0.739 0-1.216 0.478-1.216 1.216v4.055c0 0.739 0.478 1.216 1.216 1.216h6.487c0.739 0 1.216-0.478 1.216-1.216v-4.866c0-0.739-0.478-1.216-1.216-1.216zM25.731 19.269c0 0.448 0.363 0.811 0.811 0.811s0.811-0.363 0.811-0.811c0-0.448-0.363-0.811-0.811-0.811s-0.811 0.363-0.811 0.811z"></path>
</svg>
