<?xml version="1.0" encoding="utf-8"?>
<!-- Generated by IcoMoon.io -->
<!DOCTYPE svg PUBLIC "-//W3C//DTD SVG 1.1//EN" "http://www.w3.org/Graphics/SVG/1.1/DTD/svg11.dtd">
<svg version="1.1" xmlns="http://www.w3.org/2000/svg" xmlns:xlink="http://www.w3.org/1999/xlink" width="32" height="32" viewBox="0 0 32 32">
<path d="M27.045 7.922c0-2.183-0.666-5.361-1.937-7.211-0.090-0.132-0.239-0.21-0.399-0.21h-17.418c-0.16 0-0.309 0.078-0.399 0.21-1.271 1.852-1.937 5.030-1.937 7.211 0 5.747 4.582 12.137 10.656 12.467v8.205h-3.971c-1.105-0.073-1.938 0.759-1.938 1.865v0.557c0 0.267 0.217 0.484 0.484 0.484h11.625c0.267 0 0.484-0.217 0.484-0.484v-0.484c0-1.128-0.852-2.010-1.938-1.938h-3.779v-8.205c6.074-0.329 10.464-6.72 10.464-12.467zM21.328 30.531h-10.656v-0.073c0-0.571 0.398-0.969 0.969-0.969h8.719c0.553 0 0.969 0.448 0.969 1.041zM7.553 1.469h16.893c1.020 1.639 1.58 4.33 1.621 6.227-0.819-0.19-1.691-0.3-2.683-0.3-3.062 0-4.61 0.892-6.108 1.755-1.45 0.836-2.82 1.626-5.623 1.626s-4.17-0.791-5.62-1.627l-0.029-0.017c-0.048-0.406-0.080-0.811-0.080-1.21 0-1.902 0.57-4.749 1.629-6.453zM6.225 10.37c1.315 0.726 2.822 1.374 5.429 1.374 3.061 0 4.609-0.892 6.107-1.755 1.45-0.835 2.82-1.626 5.624-1.626 0.993 0 1.859 0.107 2.653 0.31-0.385 5.146-4.628 10.777-10.037 10.777-4.819 0.001-8.708-4.468-9.776-9.080z"></path>
</svg>
