<?xml version="1.0" encoding="utf-8"?>
<!-- Generated by IcoMoon.io -->
<!DOCTYPE svg PUBLIC "-//W3C//DTD SVG 1.1//EN" "http://www.w3.org/Graphics/SVG/1.1/DTD/svg11.dtd">
<svg version="1.1" xmlns="http://www.w3.org/2000/svg" xmlns:xlink="http://www.w3.org/1999/xlink" width="32" height="32" viewBox="0 0 32 32">
<path d="M31.040 14.4h-5.44v-5.44c0-0.96-0.64-0.96-1.6-0.96s-1.6 0-1.6 0.96v5.44h-5.44c-0.96 0-0.96 0.64-0.96 1.6s0 1.6 0.96 1.6h5.44v5.44c0 0.96 0.64 0.96 1.6 0.96s1.6 0 1.6-0.96v-5.44h5.44c0.96 0 0.96-0.64 0.96-1.6s0-1.6-0.96-1.6zM11.84 14.4h-10.88c-0.96 0-0.96 0.64-0.96 1.6s0 1.6 0.96 1.6h10.88c0.96 0 0.96-0.64 0.96-1.6s0-1.6-0.96-1.6zM11.84 22.4h-10.88c-0.96 0-0.96 0.64-0.96 1.6s0 1.6 0.96 1.6h10.88c0.96 0 0.96-0.64 0.96-1.6s0-1.6-0.96-1.6zM11.84 6.4h-10.88c-0.96 0-0.96 0.64-0.96 1.6s0 1.6 0.96 1.6h10.88c0.96 0 0.96-0.64 0.96-1.6s0-1.6-0.96-1.6z"></path>
</svg>
