<?xml version="1.0" encoding="utf-8"?>
<!-- Generated by IcoMoon.io -->
<!DOCTYPE svg PUBLIC "-//W3C//DTD SVG 1.1//EN" "http://www.w3.org/Graphics/SVG/1.1/DTD/svg11.dtd">
<svg version="1.1" xmlns="http://www.w3.org/2000/svg" xmlns:xlink="http://www.w3.org/1999/xlink" width="32" height="32" viewBox="0 0 32 32">
<path d="M27.2 1.6l-0.003 20.8c0 1.989-2.082 4.8-5.997 4.8-1.989 0-3.6-1.045-3.6-3 0-2.542 2.312-4.080 4.8-4.080 0.691 0 1.206 0.094 1.6 0.197v-11.734l-11.2 2.037v14.981h-0.003c0 1.989-2.082 4.8-5.997 4.8-1.989 0-3.6-1.045-3.6-3 0-2.542 2.312-4.080 4.8-4.080 0.691 0 1.206 0.094 1.6 0.197v-18.717l17.6-3.2z"></path>
</svg>
