<?xml version="1.0" encoding="utf-8"?>
<!-- Generated by IcoMoon.io -->
<!DOCTYPE svg PUBLIC "-//W3C//DTD SVG 1.1//EN" "http://www.w3.org/Graphics/SVG/1.1/DTD/svg11.dtd">
<svg version="1.1" xmlns="http://www.w3.org/2000/svg" xmlns:xlink="http://www.w3.org/1999/xlink" width="32" height="32" viewBox="0 0 32 32">
<path d="M28.8 3.2h-25.6c-1.76 0-3.2 1.44-3.2 3.2v19.2c0 1.76 1.44 3.2 3.2 3.2h25.6c1.76 0 3.2-1.44 3.2-3.2v-19.2c0-1.76-1.44-3.2-3.2-3.2zM7.2 6c0.662 0 1.2 0.538 1.2 1.2s-0.538 1.2-1.2 1.2c-0.662 0-1.2-0.538-1.2-1.2s0.538-1.2 1.2-1.2zM2.8 7.2c0-0.662 0.538-1.2 1.2-1.2s1.2 0.538 1.2 1.2c0 0.662-0.538 1.2-1.2 1.2s-1.2-0.538-1.2-1.2zM28.8 25.6h-25.6v-14.4h25.6v14.4zM28.8 8h-19.2v-1.6h19.23l-0.030 1.6z"></path>
</svg>
