<?xml version="1.0" encoding="utf-8"?>
<!-- Generated by IcoMoon.io -->
<!DOCTYPE svg PUBLIC "-//W3C//DTD SVG 1.1//EN" "http://www.w3.org/Graphics/SVG/1.1/DTD/svg11.dtd">
<svg version="1.1" xmlns="http://www.w3.org/2000/svg" xmlns:xlink="http://www.w3.org/1999/xlink" width="32" height="32" viewBox="0 0 32 32">
<path d="M19.59 15.232l-11.525-7.918c-0.915-0.613-1.666-0.163-1.666 1v15.374c0 1.16 0.75 1.61 1.666 1l11.525-7.922c0 0 0.446-0.318 0.446-0.765 0-0.448-0.446-0.77-0.446-0.77zM22.4 6.4h1.6c0.885 0 1.6 0.077 1.6 0.96v17.28c0 0.883-0.715 0.96-1.6 0.96h-1.6c-0.885 0-1.6-0.077-1.6-0.96v-17.28c0-0.883 0.715-0.96 1.6-0.96z"></path>
</svg>
