<?xml version="1.0" encoding="utf-8"?>
<!-- Generated by IcoMoon.io -->
<!DOCTYPE svg PUBLIC "-//W3C//DTD SVG 1.1//EN" "http://www.w3.org/Graphics/SVG/1.1/DTD/svg11.dtd">
<svg version="1.1" xmlns="http://www.w3.org/2000/svg" xmlns:xlink="http://www.w3.org/1999/xlink" width="32" height="32" viewBox="0 0 32 32">
<path d="M24 4.8h-3.2c-0.885 0-1.6 0.077-1.6 0.96v20.48c0 0.883 0.715 0.96 1.6 0.96h3.2c0.885 0 1.6-0.077 1.6-0.96v-20.48c0-0.883-0.715-0.96-1.6-0.96zM11.2 4.8h-3.2c-0.885 0-1.6 0.077-1.6 0.96v20.48c0 0.883 0.715 0.96 1.6 0.96h3.2c0.885 0 1.6-0.077 1.6-0.96v-20.48c0-0.883-0.715-0.96-1.6-0.96z"></path>
</svg>
