<?xml version="1.0" encoding="utf-8"?>
<!-- Generated by IcoMoon.io -->
<!DOCTYPE svg PUBLIC "-//W3C//DTD SVG 1.1//EN" "http://www.w3.org/Graphics/SVG/1.1/DTD/svg11.dtd">
<svg version="1.1" xmlns="http://www.w3.org/2000/svg" xmlns:xlink="http://www.w3.org/1999/xlink" width="32" height="32" viewBox="0 0 32 32">
<path d="M23.934 7.314l-11.525 7.918c0 0-0.446 0.322-0.446 0.77s0.446 0.766 0.446 0.766l11.525 7.922c0.915 0.608 1.666 0.158 1.666-1.002v-15.374c0-1.163-0.75-1.613-1.666-1zM9.6 6.4h-1.6c-0.885 0-1.6 0.077-1.6 0.96v17.28c0 0.883 0.715 0.96 1.6 0.96h1.6c0.885 0 1.6-0.077 1.6-0.96v-17.28c0-0.883-0.715-0.96-1.6-0.96z"></path>
</svg>
