<?xml version="1.0" encoding="utf-8"?>
<!-- Generated by IcoMoon.io -->
<!DOCTYPE svg PUBLIC "-//W3C//DTD SVG 1.1//EN" "http://www.w3.org/Graphics/SVG/1.1/DTD/svg11.dtd">
<svg version="1.1" xmlns="http://www.w3.org/2000/svg" xmlns:xlink="http://www.w3.org/1999/xlink" width="32" height="32" viewBox="0 0 32 32">
<path d="M9.6 0h-3.2c-0.883 0-1.6 0.717-1.6 1.6v3.2c0 0.883 0.717 1.6 1.6 1.6h3.2c0.883 0 1.6-0.717 1.6-1.6v-3.2c0-0.883-0.717-1.6-1.6-1.6zM17.6 0h-3.2c-0.883 0-1.6 0.717-1.6 1.6v3.2c0 0.883 0.717 1.6 1.6 1.6h3.2c0.883 0 1.6-0.717 1.6-1.6v-3.2c0-0.883-0.717-1.6-1.6-1.6zM25.6 0h-3.2c-0.883 0-1.6 0.717-1.6 1.6v3.2c0 0.883 0.717 1.6 1.6 1.6h3.2c0.883 0 1.6-0.717 1.6-1.6v-3.2c0-0.883-0.717-1.6-1.6-1.6zM9.6 8h-3.2c-0.883 0-1.6 0.717-1.6 1.6v3.2c0 0.883 0.717 1.6 1.6 1.6h3.2c0.883 0 1.6-0.717 1.6-1.6v-3.2c0-0.883-0.717-1.6-1.6-1.6zM17.6 8h-3.2c-0.883 0-1.6 0.717-1.6 1.6v3.2c0 0.883 0.717 1.6 1.6 1.6h3.2c0.883 0 1.6-0.717 1.6-1.6v-3.2c0-0.883-0.717-1.6-1.6-1.6zM25.6 8h-3.2c-0.883 0-1.6 0.717-1.6 1.6v3.2c0 0.883 0.717 1.6 1.6 1.6h3.2c0.883 0 1.6-0.717 1.6-1.6v-3.2c0-0.883-0.717-1.6-1.6-1.6zM9.6 16h-3.2c-0.883 0-1.6 0.717-1.6 1.6v3.2c0 0.883 0.717 1.6 1.6 1.6h3.2c0.883 0 1.6-0.717 1.6-1.6v-3.2c0-0.883-0.717-1.6-1.6-1.6zM17.6 16h-3.2c-0.883 0-1.6 0.717-1.6 1.6v3.2c0 0.883 0.717 1.6 1.6 1.6h3.2c0.883 0 1.6-0.717 1.6-1.6v-3.2c0-0.883-0.717-1.6-1.6-1.6zM17.6 25.6h-3.2c-0.883 0-1.6 0.717-1.6 1.6v3.2c0 0.883 0.717 1.6 1.6 1.6h3.2c0.883 0 1.6-0.717 1.6-1.6v-3.2c0-0.883-0.717-1.6-1.6-1.6zM25.6 16h-3.2c-0.883 0-1.6 0.717-1.6 1.6v3.2c0 0.883 0.717 1.6 1.6 1.6h3.2c0.883 0 1.6-0.717 1.6-1.6v-3.2c0-0.883-0.717-1.6-1.6-1.6z"></path>
</svg>
