<?xml version="1.0" encoding="utf-8"?>
<!-- Generated by IcoMoon.io -->
<!DOCTYPE svg PUBLIC "-//W3C//DTD SVG 1.1//EN" "http://www.w3.org/Graphics/SVG/1.1/DTD/svg11.dtd">
<svg version="1.1" xmlns="http://www.w3.org/2000/svg" xmlns:xlink="http://www.w3.org/1999/xlink" width="32" height="32" viewBox="0 0 32 32">
<path d="M28.061 4.222c0.63-0.872 0.739-2.622 0.739-2.622h-25.6c0 0 0.109 1.75 0.739 2.622l10.461 13.378v9.6h-3.2c-3.2 0-3.2 3.2-3.2 3.2h16c0 0 0-3.2-3.2-3.2h-3.2v-9.6l10.461-13.378zM15.040 9.6c0-1.416 1.146-2.56 2.56-2.56s2.56 1.144 2.56 2.56c0 1.413-1.146 2.56-2.56 2.56s-2.56-1.147-2.56-2.56z"></path>
</svg>
