<?xml version="1.0" encoding="utf-8"?>
<!-- Generated by IcoMoon.io -->
<!DOCTYPE svg PUBLIC "-//W3C//DTD SVG 1.1//EN" "http://www.w3.org/Graphics/SVG/1.1/DTD/svg11.dtd">
<svg version="1.1" xmlns="http://www.w3.org/2000/svg" xmlns:xlink="http://www.w3.org/1999/xlink" width="32" height="32" viewBox="0 0 32 32">
<path d="M16 7.040c-10.498 0-16 7.731-16 8.96 0 1.226 5.502 8.96 16 8.96 10.496 0 16-7.734 16-8.96 0-1.229-5.504-8.96-16-8.96zM16 22.891c-3.928 0-7.112-3.085-7.112-6.891s3.184-6.894 7.112-6.894c3.928 0 7.11 3.088 7.11 6.894s-3.182 6.891-7.11 6.891zM16 16c-0.651-0.715 1.061-3.446 0-3.446-1.965 0-3.557 1.544-3.557 3.446s1.592 3.446 3.557 3.446c1.963 0 3.557-1.544 3.557-3.446 0-0.875-3.003 0.606-3.557 0z"></path>
</svg>
