<?xml version="1.0" encoding="utf-8"?>
<!-- Generated by IcoMoon.io -->
<!DOCTYPE svg PUBLIC "-//W3C//DTD SVG 1.1//EN" "http://www.w3.org/Graphics/SVG/1.1/DTD/svg11.dtd">
<svg version="1.1" xmlns="http://www.w3.org/2000/svg" xmlns:xlink="http://www.w3.org/1999/xlink" width="32" height="32" viewBox="0 0 32 32">
<path d="M16 0.64c-8.483 0-15.36 6.877-15.36 15.36s6.877 15.36 15.36 15.36 15.36-6.877 15.36-15.36-6.877-15.36-15.36-15.36zM11.898 19.2c-1.754 0-3.171-1.432-3.171-3.2s1.419-3.2 3.171-3.2c1.75 0 3.171 1.432 3.171 3.2s-1.422 3.2-3.171 3.2zM20.104 19.2c-1.752 0-3.173-1.432-3.173-3.2s1.421-3.2 3.173-3.2c1.754 0 3.171 1.432 3.171 3.2s-1.419 3.2-3.171 3.2z"></path>
</svg>
