<?xml version="1.0" encoding="utf-8"?>
<!-- Generated by IcoMoon.io -->
<!DOCTYPE svg PUBLIC "-//W3C//DTD SVG 1.1//EN" "http://www.w3.org/Graphics/SVG/1.1/DTD/svg11.dtd">
<svg version="1.1" xmlns="http://www.w3.org/2000/svg" xmlns:xlink="http://www.w3.org/1999/xlink" width="32" height="32" viewBox="0 0 32 32">
<path d="M17.6 22.118v-12.237c1.32-0.608 2.24-1.933 2.24-3.482 0-2.122-1.718-3.84-3.84-3.84s-3.84 1.718-3.84 3.84c0 1.547 0.922 2.874 2.24 3.482v12.238c-1.32 0.606-2.24 1.933-2.24 3.48 0 2.122 1.718 3.84 3.84 3.84s3.84-1.72 3.84-3.84c0-1.547-0.92-2.874-2.24-3.482zM16 4.184c1.222 0 2.214 0.99 2.214 2.216 0 1.222-0.992 2.216-2.214 2.216-1.224 0-2.214-0.994-2.214-2.216 0-1.226 0.99-2.216 2.214-2.216zM16 27.816c-1.226 0-2.216-0.994-2.216-2.216 0-1.226 0.99-2.216 2.216-2.216 1.222 0 2.214 0.99 2.214 2.216 0 1.222-0.992 2.216-2.214 2.216z"></path>
</svg>
