<?xml version="1.0" encoding="utf-8"?>
<!-- Generated by IcoMoon.io -->
<!DOCTYPE svg PUBLIC "-//W3C//DTD SVG 1.1//EN" "http://www.w3.org/Graphics/SVG/1.1/DTD/svg11.dtd">
<svg version="1.1" xmlns="http://www.w3.org/2000/svg" xmlns:xlink="http://www.w3.org/1999/xlink" width="32" height="32" viewBox="0 0 32 32">
<path d="M28.8 4.8h-25.6c-0.885 0-1.6 0.715-1.6 1.6v19.2c0 0.883 0.715 1.6 1.6 1.6h25.6c0.885 0 1.6-0.717 1.6-1.6v-19.2c0-0.883-0.715-1.6-1.6-1.6zM21.2 10.4c1.104 0 2 0.896 2 2s-0.896 2-2 2-2-0.896-2-2 0.896-2 2-2zM6.4 22.4l5.302-12.19 6.030 9.763 5.17-2.568 2.698 4.995h-19.2z"></path>
</svg>
