<?xml version="1.0" encoding="utf-8"?>
<!-- Generated by IcoMoon.io -->
<!DOCTYPE svg PUBLIC "-//W3C//DTD SVG 1.1//EN" "http://www.w3.org/Graphics/SVG/1.1/DTD/svg11.dtd">
<svg version="1.1" xmlns="http://www.w3.org/2000/svg" xmlns:xlink="http://www.w3.org/1999/xlink" width="32" height="32" viewBox="0 0 32 32">
<path d="M30.4 3.2h-28.8c-0.885 0-1.6 0.715-1.6 1.6v22.4c0 0.883 0.715 1.6 1.6 1.6h28.8c0.885 0 1.6-0.717 1.6-1.6v-22.4c0-0.883-0.715-1.6-1.6-1.6zM28.8 25.6h-25.6v-19.2h25.6v19.2zM22.904 17.403l-5.17 2.568-6.032-9.762-5.302 12.19h19.2l-2.696-4.997zM21.2 14.4c1.104 0 2-0.896 2-2s-0.896-2-2-2-2 0.896-2 2 0.896 2 2 2z"></path>
</svg>
