<?xml version="1.0" encoding="utf-8"?>
<!-- Generated by IcoMoon.io -->
<!DOCTYPE svg PUBLIC "-//W3C//DTD SVG 1.1//EN" "http://www.w3.org/Graphics/SVG/1.1/DTD/svg11.dtd">
<svg version="1.1" xmlns="http://www.w3.org/2000/svg" xmlns:xlink="http://www.w3.org/1999/xlink" width="32" height="32" viewBox="0 0 32 32">
<path d="M24.643 23.043l-4.203-12.056c-1.155-3.317-4.746-5.152-8.147-4.245l-3.162-6.136c-0.286-0.554-0.957-0.766-1.501-0.474-0.542 0.293-0.75 0.982-0.462 1.538l3.086 5.987c-2.459 1.632-3.738 4.726-2.926 7.638l3.422 12.314c0.963 3.459 4.928 5.222 8.914 4.003 3.934-1.381 6.16-5.179 4.979-8.57zM14.238 14.277c-1.168 0.384-2.418-0.275-2.792-1.474-0.376-1.197 0.269-2.477 1.435-2.861 1.168-0.384 2.419 0.275 2.794 1.472s-0.269 2.478-1.437 2.862z"></path>
</svg>
