<?xml version="1.0" encoding="utf-8"?>
<!-- Generated by IcoMoon.io -->
<!DOCTYPE svg PUBLIC "-//W3C//DTD SVG 1.1//EN" "http://www.w3.org/Graphics/SVG/1.1/DTD/svg11.dtd">
<svg version="1.1" xmlns="http://www.w3.org/2000/svg" xmlns:xlink="http://www.w3.org/1999/xlink" width="32" height="32" viewBox="0 0 32 32">
<path d="M27.2 12.8h-19.166l14.358-8.424-1.592-2.776-18.022 10.514c-0.73 0.426-1.178 1.205-1.178 2.050v13.037c0 1.768 1.432 3.2 3.2 3.2h22.4c1.768 0 3.2-1.432 3.2-3.2v-11.2c0-1.768-1.432-3.2-3.2-3.2zM24.8 27.2c-1.325 0-2.4-1.075-2.4-2.4s1.075-2.4 2.4-2.4 2.4 1.075 2.4 2.4c0 1.325-1.075 2.4-2.4 2.4zM27.2 19.2h-22.4v-3.2h22.4v3.2z"></path>
</svg>
