<?xml version="1.0" encoding="utf-8"?>
<!-- Generated by IcoMoon.io -->
<!DOCTYPE svg PUBLIC "-//W3C//DTD SVG 1.1//EN" "http://www.w3.org/Graphics/SVG/1.1/DTD/svg11.dtd">
<svg version="1.1" xmlns="http://www.w3.org/2000/svg" xmlns:xlink="http://www.w3.org/1999/xlink" width="32" height="32" viewBox="0 0 32 32">
<path d="M16 0.64c-8.483 0-15.36 6.877-15.36 15.36s6.877 15.36 15.36 15.36 15.36-6.877 15.36-15.36-6.877-15.36-15.36-15.36zM16 12.456c-0.469 0-0.85 0.381-0.85 0.846v5.069c0 1.99-1.624 3.61-3.618 3.61s-3.618-1.619-3.618-3.61v-2.122h2.766v2.122c0 0.469 0.381 0.846 0.85 0.846s0.85-0.378 0.85-0.846v-5.069c0.003-1.99 1.624-3.608 3.619-3.608 1.994 0 3.618 1.619 3.618 3.61v0.965l-1.664 0.534-1.104-0.534v-0.966c0-0.466-0.379-0.846-0.85-0.846zM24.085 18.371c0 1.99-1.624 3.61-3.618 3.61-1.995 0-3.619-1.619-3.619-3.61v-2.166l1.104 0.534 1.664-0.534v2.166c0 0.469 0.381 0.846 0.85 0.846s0.848-0.378 0.848-0.846v-2.122h2.77v2.122z"></path>
</svg>
