<?xml version="1.0" encoding="utf-8"?>
<!-- Generated by IcoMoon.io -->
<!DOCTYPE svg PUBLIC "-//W3C//DTD SVG 1.1//EN" "http://www.w3.org/Graphics/SVG/1.1/DTD/svg11.dtd">
<svg version="1.1" xmlns="http://www.w3.org/2000/svg" xmlns:xlink="http://www.w3.org/1999/xlink" width="32" height="32" viewBox="0 0 32 32">
<path d="M25.6 0h-19.2c-1.76 0-3.2 1.438-3.2 3.2v25.6c0 1.76 1.44 3.2 3.2 3.2h19.2c1.762 0 3.2-1.44 3.2-3.2v-25.6c0-1.762-1.438-3.2-3.2-3.2zM16 30.4c-1.104 0-2-0.715-2-1.6s0.896-1.6 2-1.6c1.102 0 2 0.715 2 1.6s-0.898 1.6-2 1.6zM25.6 25.6h-19.2v-22.4h19.2v22.4z"></path>
</svg>
