<?xml version="1.0" encoding="utf-8"?>
<!-- Generated by IcoMoon.io -->
<!DOCTYPE svg PUBLIC "-//W3C//DTD SVG 1.1//EN" "http://www.w3.org/Graphics/SVG/1.1/DTD/svg11.dtd">
<svg version="1.1" xmlns="http://www.w3.org/2000/svg" xmlns:xlink="http://www.w3.org/1999/xlink" width="32" height="32" viewBox="0 0 32 32">
<path d="M15.811 14.549c-0.818 6.584-4.994 7.755-4.994 12.333 0 2.826 2.373 5.118 5.182 5.118s5.181-2.294 5.181-5.118c0-4.578-4.176-5.749-4.994-12.333-0.026-0.197-0.35-0.197-0.376 0zM6.213 0.149c-0.818 6.584-4.994 7.754-4.994 12.333 0 2.824 2.371 5.118 5.181 5.118s5.181-2.294 5.181-5.118c0-4.578-4.176-5.749-4.994-12.333-0.024-0.197-0.35-0.197-0.374 0zM25.413 0.149c-0.818 6.584-4.994 7.755-4.994 12.333 0 2.824 2.371 5.118 5.181 5.118s5.181-2.294 5.181-5.118c0-4.578-4.176-5.749-4.994-12.333-0.026-0.197-0.35-0.197-0.374 0z"></path>
</svg>
