<?xml version="1.0" encoding="utf-8"?>
<!-- Generated by IcoMoon.io -->
<!DOCTYPE svg PUBLIC "-//W3C//DTD SVG 1.1//EN" "http://www.w3.org/Graphics/SVG/1.1/DTD/svg11.dtd">
<svg version="1.1" xmlns="http://www.w3.org/2000/svg" xmlns:xlink="http://www.w3.org/1999/xlink" width="32" height="32" viewBox="0 0 32 32">
<path d="M26.667 32c1.473 0 2.667-1.193 2.667-2.667v-3.333h1.2c0.813 0 1.467-0.653 1.467-1.467l-0-7.067c0-0.813-0.653-1.467-1.467-1.467h-1.2v-2.667h1.2c0.813 0 1.467-0.653 1.467-1.467v-7.067c0-0.813-0.653-1.467-1.467-1.467h-1.2v-0.667c0-1.473-1.193-2.667-2.667-2.667h-20.667c-1.473 0-2.667 1.193-2.667 2.667v2.667l-1.667-0c-0.92 0-1.667 0.747-1.667 1.667s0.747 1.667 1.667 1.667h1.667v2.667l-1.667-0c-0.92 0-1.667 0.747-1.667 1.667s0.747 1.667 1.667 1.667h1.667v2.667l-1.667-0c-0.92 0-1.667 0.747-1.667 1.667s0.747 1.667 1.667 1.667h1.667v2.667l-1.667-0c-0.92 0-1.667 0.747-1.667 1.667s0.747 1.667 1.667 1.667h1.667v2.667c0 1.473 1.193 2.667 2.667 2.667l20.667-0zM6.667 27.2v-0.533h2.333c0.92 0 1.667-0.747 1.667-1.667s-0.747-1.667-1.667-1.667h-2.333v-2.667h2.333c0.92 0 1.667-0.747 1.667-1.667s-0.747-1.667-1.667-1.667h-2.333v-2.667h2.333c0.92 0 1.667-0.747 1.667-1.667s-0.747-1.667-1.667-1.667h-2.333v-2.667h2.333c0.92 0 1.667-0.747 1.667-1.667s-0.747-1.667-1.667-1.667h-2.333v-0.533c0-0.813 0.653-1.467 1.467-1.467h4.4c0.813 0 1.467 0.653 1.467 1.467v22.4c0 0.813-0.653 1.467-1.467 1.467h-4.4c-0.813 0-1.467-0.653-1.467-1.467z"></path>
</svg>
