<?xml version="1.0" encoding="utf-8"?>
<!-- Generated by IcoMoon.io -->
<!DOCTYPE svg PUBLIC "-//W3C//DTD SVG 1.1//EN" "http://www.w3.org/Graphics/SVG/1.1/DTD/svg11.dtd">
<svg version="1.1" xmlns="http://www.w3.org/2000/svg" xmlns:xlink="http://www.w3.org/1999/xlink" width="32" height="32" viewBox="0 0 32 32">
<path d="M27.732 8.67c-0.079-0.547-0.333-1.073-0.753-1.493-1.041-1.040-2.727-1.040-3.767 0l-1.887 1.887c-0.519 0.52-1.367 0.52-1.887 0l-6.327-6.32c-1.040-1.040-2.727-1.040-3.767 0l-6.6 6.6c-1.047 1.041-1.047 2.727 0 3.767l6.32 6.327c0.52 0.519 0.52 1.367 0 1.887l-1.887 1.886c-1.040 1.041-1.040 2.727 0 3.767 0.42 0.42 0.947 0.673 1.493 0.753l18.020 2.307c1.853 0.007 3.347-1.493 3.347-3.34l-2.307-18.026z"></path>
</svg>
