<?xml version="1.0" encoding="utf-8"?>
<!-- Generated by IcoMoon.io -->
<!DOCTYPE svg PUBLIC "-//W3C//DTD SVG 1.1//EN" "http://www.w3.org/Graphics/SVG/1.1/DTD/svg11.dtd">
<svg version="1.1" xmlns="http://www.w3.org/2000/svg" xmlns:xlink="http://www.w3.org/1999/xlink" width="32" height="32" viewBox="0 0 32 32">
<path d="M16.92 2.52c-0.447-0.327-0.993-0.52-1.587-0.52-1.473 0-2.667 1.193-2.667 2.667v2.667c0 0.734-0.6 1.333-1.333 1.333h-8c-1.473 0-2.667 1.193-2.667 2.667v9.333c0 1.473 1.193 2.667 2.667 2.667h8c0.733 0 1.333 0.6 1.333 1.333v2.667c0 1.473 1.193 2.667 2.667 2.667 0.593 0 1.14-0.193 1.587-0.52l13.433-11.113c1.307-1.307 1.307-3.427 0-4.733l-13.433-11.113z"></path>
</svg>
