<?xml version="1.0" encoding="utf-8"?>
<!-- Generated by IcoMoon.io -->
<!DOCTYPE svg PUBLIC "-//W3C//DTD SVG 1.1//EN" "http://www.w3.org/Graphics/SVG/1.1/DTD/svg11.dtd">
<svg version="1.1" xmlns="http://www.w3.org/2000/svg" xmlns:xlink="http://www.w3.org/1999/xlink" width="32" height="32" viewBox="0 0 32 32">
<path d="M4.27 23.327c0.080 0.547 0.333 1.074 0.753 1.495 1.040 1.039 2.727 1.039 3.767 0l1.887-1.887c0.52-0.521 1.367-0.521 1.887 0l6.326 6.319c1.041 1.047 2.727 1.047 3.767 0l6.6-6.599c1.041-1.041 1.041-2.728 0-3.767l-6.32-6.327c-0.519-0.52-0.519-1.367 0-1.887l1.88-1.887c1.047-1.040 1.047-2.727 0-3.766-0.414-0.42-0.94-0.673-1.487-0.753l-18.026-2.308c-1.847 0-3.347 1.493-3.34 3.347l2.307 18.019z"></path>
</svg>
