<?xml version="1.0" encoding="utf-8"?>
<!-- Generated by IcoMoon.io -->
<!DOCTYPE svg PUBLIC "-//W3C//DTD SVG 1.1//EN" "http://www.w3.org/Graphics/SVG/1.1/DTD/svg11.dtd">
<svg version="1.1" xmlns="http://www.w3.org/2000/svg" xmlns:xlink="http://www.w3.org/1999/xlink" width="32" height="32" viewBox="0 0 32 32">
<path d="M0 29.333c0 1.473 1.193 2.667 2.667 2.667h8.667c1.473 0 2.667-1.193 2.667-2.667l-0-10.667h4v10.667c0 1.473 1.193 2.667 2.667 2.667h8.667c1.473 0 2.667-1.193 2.667-2.667l-0-17.333c0-1.473-1.193-2.667-2.667-2.667h-1.333v-6h0.333c0.92 0 1.667-0.747 1.667-1.667s-0.747-1.667-1.667-1.667h-8.667c-0.92 0-1.667 0.747-1.667 1.667s0.747 1.667 1.667 1.667h0.333v6h-8v-6h0.333c0.92 0 1.667-0.747 1.667-1.667s-0.747-1.667-1.667-1.667h-8.667c-0.92 0-1.667 0.747-1.667 1.667s0.747 1.667 1.667 1.667h0.333v6h-1.333c-1.473 0-2.667 1.193-2.667 2.667v17.333zM17.333 15.333h-2.667c-0.733 0-1.333-0.6-1.333-1.333s0.6-1.333 1.333-1.333h2.667c0.733 0 1.333 0.6 1.333 1.333s-0.6 1.333-1.333 1.333z"></path>
</svg>
