<?xml version="1.0" encoding="utf-8"?>
<!-- Generated by IcoMoon.io -->
<!DOCTYPE svg PUBLIC "-//W3C//DTD SVG 1.1//EN" "http://www.w3.org/Graphics/SVG/1.1/DTD/svg11.dtd">
<svg version="1.1" xmlns="http://www.w3.org/2000/svg" xmlns:xlink="http://www.w3.org/1999/xlink" width="32" height="32" viewBox="0 0 32 32">
<path d="M29.339 12h1.993c0.173 0 0.347-0.067 0.48-0.193 0.26-0.26 0.26-0.687 0-0.947-0.181-0.173-2.413-2.86-2.413-2.86s2.233-2.687 2.413-2.86c0.26-0.26 0.26-0.687 0-0.947-0.133-0.127-0.307-0.193-0.48-0.193h-3.207c-1.459-2.4-4.107-4-7.12-4-4.6 0-8.333 3.733-8.333 8.333 0 2.76-2.24 5-5 5h-6.346c-0.734 0-1.333 0.6-1.333 1.333l0.007 0.18c0.593 5.8 4.653 10.6 10.007 12.393v3.093c0 0.92 0.747 1.667 1.667 1.667s1.667-0.747 1.667-1.667v-2.393c0.44 0.040 0.887 0.060 1.333 0.060s0.893-0.020 1.333-0.060v2.393c0 0.92 0.747 1.667 1.667 1.667s1.667-0.747 1.667-1.667v-3.093c5.813-1.947 10-7.44 10-13.907l-0-1.333zM21.339 5.667c0-0.92 0.747-1.667 1.667-1.667s1.667 0.747 1.667 1.667-0.747 1.667-1.667 1.667-1.667-0.747-1.667-1.667zM16.166 15.507c0.94 2.041 0.573 4.534-1.107 6.213-1.653 1.66-4.107 2.041-6.127 1.14l-0.213-0.113c-0.427-0.227-0.713-0.673-0.713-1.187 0-0.393 0.167-0.747 0.433-0.993 0.133-0.12 5.513-5.507 5.513-5.507 0.527-0.527 1.38-0.527 1.9 0 0.080 0.080 0.153 0.167 0.207 0.26l0.105 0.187z"></path>
</svg>
