<?xml version="1.0" encoding="utf-8"?>
<!-- Generated by IcoMoon.io -->
<!DOCTYPE svg PUBLIC "-//W3C//DTD SVG 1.1//EN" "http://www.w3.org/Graphics/SVG/1.1/DTD/svg11.dtd">
<svg version="1.1" xmlns="http://www.w3.org/2000/svg" xmlns:xlink="http://www.w3.org/1999/xlink" width="32" height="32" viewBox="0 0 32 32">
<path d="M0 28c0 1.473 1.193 2.667 2.667 2.667h24c1.473 0 2.667-1.193 2.667-2.667v-4h1.2c0.813 0 1.467-0.653 1.467-1.467l-0-7.067c0-0.813-0.653-1.467-1.467-1.467h-1.2v-4c0-1.473-1.193-2.667-2.667-2.667h-22c-0.733 0-1.333-0.6-1.333-1.333s0.6-1.333 1.333-1.333h19.667c0.92 0 1.667-0.747 1.667-1.667s-0.747-1.667-1.667-1.667h-21.667c-1.473 0-2.667 1.193-2.667 2.667v24zM22.667 19c0-0.92 0.747-1.667 1.667-1.667s1.667 0.747 1.667 1.667-0.747 1.667-1.667 1.667-1.667-0.747-1.667-1.667z"></path>
</svg>
