<?xml version="1.0" encoding="utf-8"?>
<!-- Generated by IcoMoon.io -->
<!DOCTYPE svg PUBLIC "-//W3C//DTD SVG 1.1//EN" "http://www.w3.org/Graphics/SVG/1.1/DTD/svg11.dtd">
<svg version="1.1" xmlns="http://www.w3.org/2000/svg" xmlns:xlink="http://www.w3.org/1999/xlink" width="32" height="32" viewBox="0 0 32 32">
<path d="M9.333 0c-1.473 0-2.667 1.193-2.667 2.667v28c0 0.733 0.6 1.333 1.333 1.333 0.367 0 0.7-0.147 0.94-0.387l3.453-3.433c0.52-0.526 1.367-0.526 1.887 0l3.447 3.433c0.24 0.24 0.573 0.387 0.94 0.387 0.733 0 1.333-0.6 1.333-1.333v-26c0-0.773 0.6-1.333 1.333-1.333h1.667c0.92-0 1.667-0.747 1.667-1.667s-0.747-1.667-1.667-1.667h-13.667z"></path>
</svg>
