<?xml version="1.0" encoding="utf-8"?>
<!-- Generated by IcoMoon.io -->
<!DOCTYPE svg PUBLIC "-//W3C//DTD SVG 1.1//EN" "http://www.w3.org/Graphics/SVG/1.1/DTD/svg11.dtd">
<svg version="1.1" xmlns="http://www.w3.org/2000/svg" xmlns:xlink="http://www.w3.org/1999/xlink" width="32" height="32" viewBox="0 0 32 32">
<path d="M2.667 2.667v26.667c0 1.473 1.193 2.667 2.667 2.667h22.333c0.92 0 1.667-0.747 1.667-1.667s-0.747-1.667-1.667-1.667h-20.333c-0.733 0-1.333-0.6-1.333-1.333s0.6-1.333 1.333-1.333h19.333c1.473 0 2.667-1.193 2.667-2.667v-20.667c0-1.473-1.193-2.667-2.667-2.667h-9.333v11.993c0 0.173-0.067 0.347-0.193 0.48-0.26 0.26-0.687 0.26-0.947 0-0.173-0.181-2.86-2.413-2.86-2.413s-2.687 2.233-2.86 2.413c-0.26 0.26-0.687 0.26-0.947 0-0.127-0.133-0.193-0.307-0.193-0.48v-11.993h-4c-1.473 0-2.667 1.193-2.667 2.667z"></path>
</svg>
