<?xml version="1.0" encoding="utf-8"?>
<!-- Generated by IcoMoon.io -->
<!DOCTYPE svg PUBLIC "-//W3C//DTD SVG 1.1//EN" "http://www.w3.org/Graphics/SVG/1.1/DTD/svg11.dtd">
<svg version="1.1" xmlns="http://www.w3.org/2000/svg" xmlns:xlink="http://www.w3.org/1999/xlink" width="32" height="32" viewBox="0 0 32 32">
<path d="M0 21.667c0 0.92 0.747 1.667 1.667 1.667s1.667-0.747 1.667-1.667v-1.533c0-0.813 0.653-1.467 1.467-1.467h0.587c-0.033 0.307-0.053 0.626-0.053 0.953 0 1.3 0.247 2.541 0.693 3.681l-2.027 2.18c-0.38 0.406-0.667 1.306-0.667 1.853v3c0 0.92 0.747 1.667 1.667 1.667s1.667-0.747 1.667-1.667v-2.041c0-0.299 0.087-0.573 0.24-0.806l1.020-1.087c1.28 1.447 2.74 2.921 4.9 3.507 0.047 0.021 0.1 0.034 0.153 0.047 0.113 0.034 0.233 0.047 0.353 0.047 0.733 0 1.333-0.6 1.333-1.333l0-11.333c0-0.733 0.6-1.333 1.333-1.333s1.333 0.6 1.333 1.333v11.333c0 0.733 0.6 1.333 1.333 1.333 0.14 0 0.28-0.019 0.413-0.067l0.167-0.047c2.067-0.573 3.56-2.053 4.826-3.487l1.021 1.087c0.153 0.233 0.24 0.506 0.24 0.805v2.041c0 0.92 0.747 1.667 1.667 1.667s1.667-0.747 1.667-1.667v-3c0-0.547-0.287-1.447-0.667-1.853l-2.027-2.181c0.447-1.14 0.693-2.38 0.693-3.68 0-0.327-0.019-0.647-0.053-0.953h0.587c0.813 0 1.467 0.653 1.467 1.467v1.533c0 0.92 0.747 1.667 1.667 1.667s1.667-0.747 1.667-1.667l-0-3c0-1.84-1.493-3.333-3.333-3.333h-3.14c-0.3-0.56-0.64-1.1-0.986-1.64l2.793-3.027c0.38-0.407 0.667-1.36 0.667-2v-3c0-0.92-0.747-1.667-1.667-1.667s-1.667 0.747-1.667 1.667v2.2c0 0.3-0.087 0.573-0.239 0.807l-1.793 1.92c-0.747-1.453-1.301-3.113-1.301-5.26 0-2.487-1.7-4.573-4-5.167v3.167c0 0.733-0.6 1.333-1.333 1.333s-1.333-0.6-1.333-1.333v-3.167c-2.3 0.593-4 2.68-4 5.167 0 2.14-0.56 3.793-1.307 5.247l-1.787-1.907c-0.153-0.233-0.24-0.507-0.24-0.807v-2.2c0-0.92-0.747-1.667-1.667-1.667s-1.667 0.747-1.667 1.667v3c0 0.64 0.287 1.593 0.667 2l2.78 3.013c-0.353 0.54-0.687 1.087-0.987 1.653h-3.127c-1.84 0-3.333 1.493-3.333 3.333v3z"></path>
</svg>
