<?xml version="1.0" encoding="utf-8"?>
<!-- Generated by IcoMoon.io -->
<!DOCTYPE svg PUBLIC "-//W3C//DTD SVG 1.1//EN" "http://www.w3.org/Graphics/SVG/1.1/DTD/svg11.dtd">
<svg version="1.1" xmlns="http://www.w3.org/2000/svg" xmlns:xlink="http://www.w3.org/1999/xlink" width="32" height="32" viewBox="0 0 32 32">
<path d="M6 26.667c0 1.473 1.193 2.667 2.667 2.667h20.667c1.473 0 2.667-1.193 2.667-2.667l-0-15.333c0-1.473-1.193-2.667-2.667-2.667l-8 0c-0.733 0-1.333-0.6-1.333-1.333s0.6-1.333 1.333-1.333h9c0.92-0 1.667-0.747 1.667-1.667s-0.747-1.667-1.667-1.667h-11c-1.247 0-2.374 0.847-2.667 2l-1.327 4h-2.727c-0.893 0-1.687 0.353-2.26 0.92l-3.373 3.387c-0.607 0.6-0.98 1.44-0.98 2.36v2h-2.667v-0.333c0-0.92-0.747-1.667-1.667-1.667s-1.667 0.747-1.667 1.667v8.667c0 0.92 0.747 1.667 1.667 1.667s1.667-0.747 1.667-1.667v-0.333h2.667v1.333zM14.8 19.333h12.4c0.813 0 1.467 0.653 1.467 1.467v3.733c0 0.813-0.653 1.467-1.467 1.467h-12.4c-0.813 0-1.467-0.653-1.467-1.467v-3.733c0-0.813 0.653-1.467 1.467-1.467zM13.333 13.667c0-0.92 0.747-1.667 1.667-1.667s1.667 0.747 1.667 1.667-0.747 1.667-1.667 1.667-1.667-0.747-1.667-1.667z"></path>
</svg>
