<?xml version="1.0" encoding="utf-8"?>
<!-- Generated by IcoMoon.io -->
<!DOCTYPE svg PUBLIC "-//W3C//DTD SVG 1.1//EN" "http://www.w3.org/Graphics/SVG/1.1/DTD/svg11.dtd">
<svg version="1.1" xmlns="http://www.w3.org/2000/svg" xmlns:xlink="http://www.w3.org/1999/xlink" width="32" height="32" viewBox="0 0 32 32">
<path d="M18 18.333c0-0.92 0.747-1.667 1.667-1.667s1.667 0.747 1.667 1.667-0.747 1.667-1.667 1.667-1.667-0.747-1.667-1.667zM19.667 14c-2.393 0-4.333 1.94-4.333 4.333s1.94 4.333 4.333 4.333 4.333-1.94 4.333-4.333-1.94-4.333-4.333-4.333zM0 26c0 1.473 1.193 2.667 2.667 2.667h26.667c1.473 0 2.667-1.193 2.667-2.667l-0-15.333c0-1.473-1.193-2.667-2.667-2.667h-2.5l-3.413-3.413c-0.393-0.393-0.907-0.587-1.42-0.587h-4.66c-0.513 0-1.033 0.193-1.42 0.587l-3.4 3.413h-2.52v-1.5c0-0.647-0.52-1.167-1.167-1.167h-4.333c-0.647 0-1.167 0.52-1.167 1.167v1.5h-0.667c-1.473 0-2.667 1.193-2.667 2.667v15.333zM8.667 14h-4c-0.733 0-1.333-0.6-1.333-1.333s0.6-1.333 1.333-1.333h4c0.733 0 1.333 0.6 1.333 1.333s-0.6 1.333-1.333 1.333zM19.667 11.333c3.867 0 7 3.133 7 7s-3.133 7-7 7-7-3.133-7-7 3.133-7 7-7z"></path>
</svg>
