<?xml version="1.0" encoding="utf-8"?>
<!-- Generated by IcoMoon.io -->
<!DOCTYPE svg PUBLIC "-//W3C//DTD SVG 1.1//EN" "http://www.w3.org/Graphics/SVG/1.1/DTD/svg11.dtd">
<svg version="1.1" xmlns="http://www.w3.org/2000/svg" xmlns:xlink="http://www.w3.org/1999/xlink" width="32" height="32" viewBox="0 0 32 32">
<path d="M21.333 16c0 1.107 0.893 2 2 2s2-0.893 2-2-0.893-2-2-2-2 0.893-2 2zM6.667 16c0 1.107 0.893 2 2 2s2-0.893 2-2-0.893-2-2-2-2 0.893-2 2zM18.893 14.667h-5.787c0.147 0.42 0.227 0.867 0.227 1.333s-0.080 0.913-0.227 1.333h5.787c-0.147-0.42-0.227-0.867-0.227-1.333s0.080-0.913 0.227-1.333zM0 25.333c0 1.473 1.193 2.667 2.667 2.667h26.667c1.473 0 2.667-1.193 2.667-2.667l-0-18.667c0-1.473-1.193-2.667-2.667-2.667h-26.667c-1.473 0-2.667 1.193-2.667 2.667v18.667zM8.667 20.667c-2.58 0-4.667-2.087-4.667-4.667s2.087-4.667 4.667-4.667h14.667c2.58 0 4.667 2.087 4.667 4.667s-2.087 4.667-4.667 4.667h-14.667z"></path>
</svg>
