<?xml version="1.0" encoding="utf-8"?>
<!-- Generated by IcoMoon.io -->
<!DOCTYPE svg PUBLIC "-//W3C//DTD SVG 1.1//EN" "http://www.w3.org/Graphics/SVG/1.1/DTD/svg11.dtd">
<svg version="1.1" xmlns="http://www.w3.org/2000/svg" xmlns:xlink="http://www.w3.org/1999/xlink" width="32" height="32" viewBox="0 0 32 32">
<path d="M14 16.333c0-0.92 0.747-1.667 1.667-1.667s1.667 0.747 1.667 1.667-0.747 1.667-1.667 1.667-1.667-0.747-1.667-1.667zM15.667 12c-2.393 0-4.333 1.94-4.333 4.333s1.94 4.333 4.333 4.333 4.333-1.94 4.333-4.333-1.94-4.333-4.333-4.333zM0 16.333c0 8.653 7.013 15.667 15.667 15.667s15.667-7.013 15.667-15.667c0-8.653-7.013-15.667-15.667-15.667s-15.667 7.013-15.667 15.667zM15.667 9.333c3.867 0 7 3.133 7 7s-3.133 7-7 7-7-3.133-7-7 3.133-7 7-7z"></path>
</svg>
