<?xml version="1.0" encoding="utf-8"?>
<!-- Generated by IcoMoon.io -->
<!DOCTYPE svg PUBLIC "-//W3C//DTD SVG 1.1//EN" "http://www.w3.org/Graphics/SVG/1.1/DTD/svg11.dtd">
<svg version="1.1" xmlns="http://www.w3.org/2000/svg" xmlns:xlink="http://www.w3.org/1999/xlink" width="32" height="32" viewBox="0 0 32 32">
<path d="M18.573 3.213l-1.239 9.661c0 0.993 0.8 1.793 1.793 1.793l9.66-1.24c0.287-0.040 0.573-0.173 0.793-0.4 0.56-0.56 0.56-1.459 0-2.020l-1.613-1.613 3.587-3.58c0.593-0.593 0.593-1.553 0-2.147l-3.219-3.22c-0.594-0.593-1.553-0.593-2.147 0l-3.579 3.58-1.613-1.607c-0.56-0.56-1.46-0.56-2.020 0-0.227 0.22-0.36 0.507-0.401 0.793zM13.427 3.213c-0.040-0.287-0.173-0.573-0.4-0.793-0.56-0.56-1.46-0.56-2.020 0l-1.613 1.607-3.58-3.58c-0.593-0.593-1.553-0.593-2.147 0l-3.22 3.22c-0.594 0.593-0.594 1.553 0 2.147l3.587 3.58-1.613 1.613c-0.56 0.561-0.56 1.46 0 2.020 0.22 0.227 0.507 0.36 0.793 0.4l9.661 1.24c0.993 0 1.793-0.8 1.793-1.793l-1.24-9.661zM18.573 28.787c0.041 0.287 0.174 0.573 0.401 0.793 0.56 0.56 1.46 0.56 2.020 0l1.613-1.607 3.579 3.58c0.594 0.593 1.553 0.593 2.147 0l3.22-3.22c0.593-0.593 0.593-1.553 0-2.147l-3.587-3.58 1.613-1.613c0.56-0.56 0.56-1.46 0-2.020-0.22-0.227-0.507-0.36-0.793-0.4l-9.661-1.24c-0.993 0-1.793 0.8-1.793 1.793l1.239 9.661zM13.427 28.787l1.24-9.661c0-0.993-0.8-1.793-1.793-1.793l-9.661 1.24c-0.287 0.040-0.573 0.173-0.793 0.4-0.56 0.56-0.56 1.46 0 2.020l1.613 1.613-3.587 3.58c-0.594 0.593-0.594 1.553 0 2.147l3.22 3.22c0.593 0.593 1.553 0.593 2.147 0l3.58-3.58 1.613 1.607c0.56 0.56 1.46 0.56 2.020 0 0.227-0.22 0.36-0.507 0.4-0.793z"></path>
</svg>
