<?xml version="1.0" encoding="utf-8"?>
<!-- Generated by IcoMoon.io -->
<!DOCTYPE svg PUBLIC "-//W3C//DTD SVG 1.1//EN" "http://www.w3.org/Graphics/SVG/1.1/DTD/svg11.dtd">
<svg version="1.1" xmlns="http://www.w3.org/2000/svg" xmlns:xlink="http://www.w3.org/1999/xlink" width="32" height="32" viewBox="0 0 32 32">
<path d="M4 11c0 5.88 4.347 10.74 10 11.547v4.787c0 0.733-0.6 1.333-1.333 1.333h-3.667c-0.92 0-1.667 0.747-1.667 1.667s0.747 1.667 1.667 1.667h13.333c0.92 0 1.667-0.747 1.667-1.667s-0.747-1.667-1.667-1.667h-3.667c-0.733 0-1.333-0.6-1.333-1.333v-4.787c5.653-0.807 10-5.667 10-11.547l-0-8.333c0-1.473-1.193-2.667-2.667-2.667h-18c-1.473 0-2.667 1.193-2.667 2.667v8.333zM8.8 3.333h13.733c0.813 0 1.467 0.653 1.467 1.467v3.733c0 0.813-0.653 1.467-1.467 1.467h-13.733c-0.813 0-1.467-0.653-1.467-1.467v-3.733c0-0.813 0.653-1.467 1.467-1.467z"></path>
</svg>
