<?xml version="1.0" encoding="utf-8"?>
<!-- Generated by IcoMoon.io -->
<!DOCTYPE svg PUBLIC "-//W3C//DTD SVG 1.1//EN" "http://www.w3.org/Graphics/SVG/1.1/DTD/svg11.dtd">
<svg version="1.1" xmlns="http://www.w3.org/2000/svg" xmlns:xlink="http://www.w3.org/1999/xlink" width="32" height="32" viewBox="0 0 32 32">
<path d="M0 17.333c0 1.473 1.193 2.667 2.667 2.667h6.667v9.333c0 1.473 1.193 2.667 2.667 2.667s2.667-1.193 2.667-2.667l-0-9.333h9.34c0.933 0 1.78-0.387 2.387-1.007l4.626-4.627c1.307-1.307 1.307-3.427 0-4.733l-4.626-4.627c-0.607-0.62-1.453-1.007-2.387-1.007h-9.34v-1.333c0-1.473-1.193-2.667-2.667-2.667s-2.667 1.193-2.667 2.667v1.333h-6.667c-1.473 0-2.667 1.193-2.667 2.667v10.667z"></path>
</svg>
