<?xml version="1.0" encoding="utf-8"?>
<!-- Generated by IcoMoon.io -->
<!DOCTYPE svg PUBLIC "-//W3C//DTD SVG 1.1//EN" "http://www.w3.org/Graphics/SVG/1.1/DTD/svg11.dtd">
<svg version="1.1" xmlns="http://www.w3.org/2000/svg" xmlns:xlink="http://www.w3.org/1999/xlink" width="32" height="32" viewBox="0 0 32 32">
<path d="M0 25.333c0 1.473 1.193 2.667 2.667 2.667h26.667c1.473 0 2.667-1.193 2.667-2.667l-0-18c0-1.473-1.193-2.667-2.667-2.667l-26.667 0c-1.473 0-2.667 1.193-2.667 2.667v18zM9.813 16.353l-6.1-6.14c-0.506-0.507-0.506-1.327 0-1.833 0.507-0.507 1.327-0.507 1.833 0l9.733 9.746c0.393 0.387 1.041 0.387 1.427 0l9.746-9.746c0.507-0.507 1.327-0.507 1.833 0s0.507 1.327 0 1.833l-6.107 6.14 6.107 6.099c0.507 0.507 0.507 1.327 0 1.833s-1.327 0.507-1.833 0l-6.1-6.093c0 0-1.906 1.94-2.253 2.287-0.541 0.527-1.287 0.854-2.101 0.854-0.827 0-1.573-0.333-2.113-0.874-0.353-0.347-2.247-2.266-2.247-2.266l-6.094 6.093c-0.506 0.507-1.326 0.507-1.833 0-0.506-0.507-0.506-1.327 0-1.833l6.101-6.1z"></path>
</svg>
