<?xml version="1.0" encoding="utf-8"?>
<!-- Generated by IcoMoon.io -->
<!DOCTYPE svg PUBLIC "-//W3C//DTD SVG 1.1//EN" "http://www.w3.org/Graphics/SVG/1.1/DTD/svg11.dtd">
<svg version="1.1" xmlns="http://www.w3.org/2000/svg" xmlns:xlink="http://www.w3.org/1999/xlink" width="32" height="32" viewBox="0 0 32 32">
<path d="M32 13.993c0-0.933-0.387-1.78-1.007-2.387l-12.627-10.627c-1.307-1.307-3.427-1.307-4.733 0l-12.627 10.627c-0.62 0.607-1.007 1.453-1.007 2.387v15.34c0 1.473 1.193 2.667 2.667 2.667h26.667c1.473 0 2.667-1.193 2.667-2.667l-0-15.34zM6.8 11.333h18.4c0.813 0 1.467 0.653 1.467 1.467v2.533c-0.007 0.32-0.133 0.633-0.38 0.88l-4.107 4.14 6.107 6.099c0.507 0.507 0.507 1.327 0 1.833s-1.327 0.507-1.833 0l-6.287-6.286h-8.347l-6.273 6.287c-0.507 0.507-1.327 0.507-1.833 0s-0.507-1.327 0-1.833l6.1-6.099-4.1-4.14c-0.267-0.267-0.393-0.613-0.38-0.967l-0-2.447c0-0.813 0.653-1.467 1.467-1.467z"></path>
</svg>
