<?xml version="1.0" encoding="utf-8"?>
<!-- Generated by IcoMoon.io -->
<!DOCTYPE svg PUBLIC "-//W3C//DTD SVG 1.1//EN" "http://www.w3.org/Graphics/SVG/1.1/DTD/svg11.dtd">
<svg version="1.1" xmlns="http://www.w3.org/2000/svg" xmlns:xlink="http://www.w3.org/1999/xlink" width="32" height="32" viewBox="0 0 32 32">
<path d="M32 11.987c0-0.727-0.6-1.32-1.333-1.32-0.367 0-0.7 0.147-0.94 0.387l-5.727 4.927v-3.993c0-0.727-0.6-1.321-1.333-1.321-0.367 0-0.7 0.147-0.94 0.387l-5.727 4.927v-3.993c0-0.727-0.6-1.321-1.333-1.321-0.367 0-0.7 0.147-0.94 0.387l-5.787 4.973-1.273-14.56c0-0.813-0.653-1.467-1.467-1.467h-2.4c-0.813 0-1.467 0.653-1.467 1.467l-1.333 27.867c0 1.473 1.193 2.667 2.667 2.667h26.667c1.473 0 2.667-1.193 2.667-2.667l-0-17.347zM12.667 20.58v1.507c0 0.687-0.56 1.247-1.247 1.247h-1.507c-0.687-0-1.247-0.56-1.247-1.247v-1.507c0-0.687 0.56-1.247 1.247-1.247h1.507c0.687 0 1.247 0.56 1.247 1.247zM20.667 20.58v1.507c0 0.687-0.56 1.247-1.247 1.247h-1.507c-0.687-0-1.247-0.56-1.247-1.247v-1.507c0-0.687 0.56-1.247 1.247-1.247h1.507c0.687 0 1.247 0.56 1.247 1.247zM28.667 20.58v1.507c0 0.687-0.56 1.247-1.247 1.247h-1.507c-0.687-0-1.247-0.56-1.247-1.247v-1.507c0-0.687 0.56-1.247 1.247-1.247h1.507c0.687 0 1.247 0.56 1.247 1.247z"></path>
</svg>
