<?xml version="1.0" encoding="utf-8"?>
<!-- Generated by IcoMoon.io -->
<!DOCTYPE svg PUBLIC "-//W3C//DTD SVG 1.1//EN" "http://www.w3.org/Graphics/SVG/1.1/DTD/svg11.dtd">
<svg version="1.1" xmlns="http://www.w3.org/2000/svg" xmlns:xlink="http://www.w3.org/1999/xlink" width="32" height="32" viewBox="0 0 32 32">
<path d="M0 29.333c0 1.473 1.193 2.667 2.667 2.667h26.667c1.473 0 2.667-1.193 2.667-2.667l-0-26.667c0-1.473-1.193-2.667-2.667-2.667h-26.667c-1.473 0-2.667 1.193-2.667 2.667v26.667zM26 23.667c0 0.92-0.747 1.667-1.667 1.667s-1.667-0.747-1.667-1.667c0-7.547-6.121-13.667-13.667-13.667-0.92 0-1.667-0.747-1.667-1.667s0.747-1.667 1.667-1.667c4.947 0 9.007 1.707 12.193 4.893 3.266 3.267 4.807 7.32 4.807 12.107zM20 23.667c0 0.92-0.747 1.667-1.667 1.667s-1.667-0.747-1.667-1.667c0-4.233-3.433-7.667-7.667-7.667-0.92 0-1.667-0.747-1.667-1.667s0.747-1.667 1.667-1.667c6.073 0 11 4.927 11 11zM7.333 22.333c0-1.66 1.34-3 3-3s3 1.34 3 3-1.34 3-3 3-3-1.34-3-3z"></path>
</svg>
