<?xml version="1.0" encoding="utf-8"?>
<!-- Generated by IcoMoon.io -->
<!DOCTYPE svg PUBLIC "-//W3C//DTD SVG 1.1//EN" "http://www.w3.org/Graphics/SVG/1.1/DTD/svg11.dtd">
<svg version="1.1" xmlns="http://www.w3.org/2000/svg" xmlns:xlink="http://www.w3.org/1999/xlink" width="32" height="32" viewBox="0 0 32 32">
<path d="M19.333 28.667h5.2c0.813 0 1.467-0.653 1.467-1.467v-3.867c0-0.733 0.6-1.333 1.333-1.333h3.2c0.813 0 1.467-0.653 1.467-1.467v-13.067c0-0.813-0.653-1.467-1.467-1.467h-11.2v-0.667c0-1.473-1.193-2.667-2.667-2.667h-2l0-1.2c0-0.813-0.653-1.467-1.467-1.467h-7.067c-0.813 0-1.467 0.653-1.467 1.467v1.2h-2c-1.473 0-2.667 1.193-2.667 2.667v24c0 1.473 1.193 2.667 2.667 2.667h14c1.473 0 2.667-1.193 2.667-2.667l-0-0.667zM25.333 11c0-0.92 0.747-1.667 1.667-1.667s1.667 0.747 1.667 1.667-0.747 1.667-1.667 1.667-1.667-0.747-1.667-1.667zM19.333 11c0-0.92 0.747-1.667 1.667-1.667s1.667 0.747 1.667 1.667-0.747 1.667-1.667 1.667-1.667-0.747-1.667-1.667zM19.333 23.667c0-0.92 0.747-1.667 1.667-1.667s1.667 0.747 1.667 1.667-0.747 1.667-1.667 1.667-1.667-0.747-1.667-1.667zM6 7.333v20c0 0.733-0.6 1.333-1.333 1.333s-1.333-0.6-1.333-1.333l-0-20c0-0.733 0.6-1.333 1.333-1.333s1.333 0.6 1.333 1.333z"></path>
</svg>
