<?xml version="1.0" encoding="utf-8"?>
<!-- Generated by IcoMoon.io -->
<!DOCTYPE svg PUBLIC "-//W3C//DTD SVG 1.1//EN" "http://www.w3.org/Graphics/SVG/1.1/DTD/svg11.dtd">
<svg version="1.1" xmlns="http://www.w3.org/2000/svg" xmlns:xlink="http://www.w3.org/1999/xlink" width="32" height="32" viewBox="0 0 32 32">
<path d="M14 22.333c0 0.92 0.747 1.667 1.667 1.667s1.667-0.747 1.667-1.667-0.747-1.667-1.667-1.667-1.667 0.747-1.667 1.667zM2.667 0c-1.473 0-2.667 1.193-2.667 2.667v26.667c0 1.473 1.193 2.667 2.667 2.667h26.667c1.473 0 2.667-1.193 2.667-2.667l-0-22.72c0-0.893-0.353-1.687-0.92-2.26l-3.387-3.373c-0.599-0.607-1.44-0.98-2.36-0.98h-22.667zM4.8 3.333h1.867v5.2c0 0.813 0.653 1.467 1.467 1.467h1.733c0.813 0 1.467-0.653 1.467-1.467l-0-5.2h12.533c0.813 0 1.467 0.653 1.467 1.467v6.4c0 0.813-0.653 1.467-1.467 1.467h-19.067c-0.813 0-1.467-0.653-1.467-1.467v-6.4c0-0.813 0.653-1.467 1.467-1.467zM11.333 22.333c0-2.393 1.94-4.333 4.333-4.333s4.333 1.94 4.333 4.333-1.94 4.333-4.333 4.333-4.333-1.94-4.333-4.333z"></path>
</svg>
