<?xml version="1.0" encoding="utf-8"?>
<!-- Generated by IcoMoon.io -->
<!DOCTYPE svg PUBLIC "-//W3C//DTD SVG 1.1//EN" "http://www.w3.org/Graphics/SVG/1.1/DTD/svg11.dtd">
<svg version="1.1" xmlns="http://www.w3.org/2000/svg" xmlns:xlink="http://www.w3.org/1999/xlink" width="32" height="32" viewBox="0 0 32 32">
<path d="M0 26.667c0 1.473 1.193 2.667 2.667 2.667h26.667c1.473 0 2.667-1.193 2.667-2.667l-0-18c0-1.473-1.193-2.667-2.667-2.667h-13.333v-1.2c0-0.813-0.653-1.467-1.467-1.467h-7.067c-0.813 0-1.467 0.653-1.467 1.467v19.867c0 0.733-0.6 1.333-1.333 1.333s-1.333-0.6-1.333-1.333l-0-17c0-0.92-0.747-1.667-1.667-1.667s-1.667 0.747-1.667 1.667v19z"></path>
</svg>
