<?xml version="1.0" encoding="utf-8"?>
<!-- Generated by IcoMoon.io -->
<!DOCTYPE svg PUBLIC "-//W3C//DTD SVG 1.1//EN" "http://www.w3.org/Graphics/SVG/1.1/DTD/svg11.dtd">
<svg version="1.1" xmlns="http://www.w3.org/2000/svg" xmlns:xlink="http://www.w3.org/1999/xlink" width="32" height="32" viewBox="0 0 32 32">
<path d="M15.541 6.454c-1.973 1.973-1.514 4.54-2.174 7.040l-11.067-11.174c-0.24-0.253-0.587-0.413-0.967-0.413-0.733 0-1.333 0.593-1.333 1.333v0.453c0 4.020 1.734 11.46 7.147 17.42l-6.374 6.367c-1.033 1.033-1.033 2.713 0 3.746s2.713 1.034 3.74 0l6.353-6.36 3.8 3.8 3.28-2.98 5.541 5.54c1.026 1.034 2.707 1.034 3.739 0 1.034-1.033 1.034-2.713 0-3.746l-8.767-8.841c2.527-0.693 5.113-0.207 7.087-2.181l5.959-5.959c0.66-0.653 0.66-1.72 0-2.379-0.66-0.661-1.727-0.661-2.38 0l-5.246 5.239c-0.393 0.393-1.034 0.393-1.427 0-0.4-0.393-0.4-1.033 0-1.427l5.24-5.247c0.659-0.653 0.659-1.72 0-2.38s-1.727-0.659-2.379 0l-5.247 5.24c-0.393 0.4-1.033 0.4-1.427 0-0.393-0.393-0.393-1.034 0-1.427l5.24-5.247c0.66-0.653 0.66-1.72 0-2.38s-1.727-0.66-2.38 0l-5.959 5.961z"></path>
</svg>
