<?xml version="1.0" encoding="utf-8"?>
<!-- Generated by IcoMoon.io -->
<!DOCTYPE svg PUBLIC "-//W3C//DTD SVG 1.1//EN" "http://www.w3.org/Graphics/SVG/1.1/DTD/svg11.dtd">
<svg version="1.1" xmlns="http://www.w3.org/2000/svg" xmlns:xlink="http://www.w3.org/1999/xlink" width="32" height="32" viewBox="0 0 32 32">
<path d="M6 32h16c0.92 0 1.761-0.374 2.36-0.98l3.387-3.373c0.567-0.574 0.92-1.367 0.92-2.26v-22.72c0-1.473-1.193-2.667-2.667-2.667h-20c-1.473 0-2.667 1.193-2.667 2.667v26.667c0 1.473 1.193 2.667 2.667 2.667zM8.133 3.333h15.733c0.813 0 1.467 0.653 1.467 1.467v7.067c0 0.813-0.653 1.467-1.467 1.467l-15.733-0c-0.813 0-1.467-0.653-1.467-1.467l0-7.067c0-0.813 0.653-1.467 1.467-1.467zM12 18.733v1.933h1.933c0.773 0 1.4 0.6 1.4 1.333s-0.627 1.333-1.4 1.333h-1.933v1.933c0 0.773-0.6 1.4-1.333 1.4s-1.333-0.626-1.333-1.4l-0-1.933h-1.933c-0.773 0-1.4-0.6-1.4-1.333s0.627-1.333 1.4-1.333h1.933v-1.933c0-0.773 0.6-1.4 1.333-1.4s1.333 0.626 1.333 1.4zM22 19.667c0-0.92 0.747-1.667 1.667-1.667s1.667 0.747 1.667 1.667-0.747 1.667-1.667 1.667-1.667-0.747-1.667-1.667zM18.667 23.667c0-0.92 0.747-1.667 1.667-1.667s1.667 0.747 1.667 1.667-0.747 1.667-1.667 1.667-1.667-0.747-1.667-1.667z"></path>
</svg>
