<?xml version="1.0" encoding="utf-8"?>
<!-- Generated by IcoMoon.io -->
<!DOCTYPE svg PUBLIC "-//W3C//DTD SVG 1.1//EN" "http://www.w3.org/Graphics/SVG/1.1/DTD/svg11.dtd">
<svg version="1.1" xmlns="http://www.w3.org/2000/svg" xmlns:xlink="http://www.w3.org/1999/xlink" width="32" height="32" viewBox="0 0 32 32">
<path d="M21.333 28.667v-14.667h1c0.553 0 1 0.447 1 1v9.333c0 2.393 1.94 4.333 4.333 4.333s4.333-1.94 4.333-4.333l0-17.947c0-0.94-0.387-1.787-1.007-2.393l-3.534-3.513c-0.639-0.641-1.673-0.641-2.313 0s-0.64 1.673 0 2.313l2.293 2.3-1.693 1.767c-0.553 0.567-0.553 1.48 0 2.047 0.273 0.293 0.64 0.433 1.007 0.427l1.914-0.006v15.007c0 0.553-0.447 1-1 1s-1-0.447-1-1v-9.333c0-2.393-1.94-4.333-4.333-4.333h-1v-8c0-1.473-1.193-2.667-2.667-2.667h-14c-1.473 0-2.667 1.193-2.667 2.667v26h-0.333c-0.92 0-1.667 0.747-1.667 1.667s0.747 1.667 1.667 1.667h20c0.92 0 1.667-0.747 1.667-1.667s-0.747-1.667-1.667-1.667h-0.333zM6.8 3.333h9.733c0.813 0 1.467 0.653 1.467 1.467v7.067c0 0.813-0.653 1.467-1.467 1.467l-9.733-0c-0.813 0-1.467-0.653-1.467-1.467v-7.067c0-0.813 0.653-1.467 1.467-1.467z"></path>
</svg>
