<?xml version="1.0" encoding="utf-8"?>
<!-- Generated by IcoMoon.io -->
<!DOCTYPE svg PUBLIC "-//W3C//DTD SVG 1.1//EN" "http://www.w3.org/Graphics/SVG/1.1/DTD/svg11.dtd">
<svg version="1.1" xmlns="http://www.w3.org/2000/svg" xmlns:xlink="http://www.w3.org/1999/xlink" width="32" height="32" viewBox="0 0 32 32">
<path d="M11.333 1.989c-2.607-2.607-6.78-2.653-9.38-0.046-2.607 2.599-2.607 6.826 0 9.427 1.3 1.299 2.987 1.953 4.687 1.953h-5.173c-0.813 0-1.467 0.653-1.467 1.467v3.066c0 0.814 0.653 1.467 1.467 1.467h1.2v10c0 1.473 1.193 2.667 2.667 2.667h21.333c1.473 0 2.667-1.194 2.667-2.667v-10h1.2c0.813 0 1.467-0.653 1.467-1.467v-3.066c0-0.813-0.653-1.467-1.467-1.467h-5.181c1.707 0 3.394-0.653 4.693-1.953 2.607-2.6 2.607-6.827 0-9.427-2.599-2.608-6.773-2.561-9.379 0.046l-4.667 4.667-4.667-4.667zM19.453 7.816l3.52-3.52c1.307-1.3 3.413-1.3 4.72 0 1.3 1.307 1.3 3.413 0 4.72-0.653 0.647-1.507 0.973-2.36 0.973h-4.847c-0.734 0-1.333-0.6-1.333-1.333 0-0.321 0.113-0.607 0.3-0.84zM9.027 4.296l3.42 3.42c0.239 0.247 0.387 0.573 0.387 0.94 0 0.733-0.6 1.333-1.333 1.333h-4.833c-0.853 0-1.707-0.327-2.36-0.973-1.3-1.307-1.3-3.413 0-4.72 1.307-1.3 3.413-1.3 4.72 0zM12.667 13.323h6.667v13.866c0 0.814-0.653 1.467-1.467 1.467h-3.733c-0.813 0-1.467-0.653-1.467-1.467v-13.866z"></path>
</svg>
