<?xml version="1.0" encoding="utf-8"?>
<!-- Generated by IcoMoon.io -->
<!DOCTYPE svg PUBLIC "-//W3C//DTD SVG 1.1//EN" "http://www.w3.org/Graphics/SVG/1.1/DTD/svg11.dtd">
<svg version="1.1" xmlns="http://www.w3.org/2000/svg" xmlns:xlink="http://www.w3.org/1999/xlink" width="32" height="32" viewBox="0 0 32 32">
<path d="M0 16.333c0 8.653 7.013 15.667 15.667 15.667s15.667-7.013 15.667-15.667c0-8.653-7.013-15.667-15.667-15.667s-15.667 7.013-15.667 15.667zM3.333 16.333c0-0.8 0.073-1.58 0.22-2.333h3.2c-0.060 0.66-0.087 1.327-0.087 2s0.027 1.34 0.087 2h-3.313c-0.073-0.547-0.107-1.1-0.107-1.667zM4.713 10.667c0.973-1.887 2.42-3.487 4.187-4.647-0.7 1.473-1.247 3.027-1.627 4.647h-2.56zM13.9 4.127l0.1-0.013v6.553h-3.28c0.66-2.387 1.747-4.6 3.18-6.54zM17.333 4.113l0.093 0.013c1.433 1.94 2.527 4.153 3.187 6.54l-3.28 0v-6.553zM22.427 6.020c1.767 1.16 3.22 2.76 4.193 4.647h-2.567c-0.373-1.62-0.927-3.173-1.627-4.647zM27.78 14c0.147 0.753 0.22 1.533 0.22 2.333 0 0.567-0.041 1.12-0.113 1.667h-3.3c0.053-0.66 0.080-1.327 0.080-2s-0.027-1.34-0.080-2h3.193zM26.947 21.333c-1.047 2.353-2.807 4.32-5.007 5.62 0.933-1.753 1.647-3.639 2.113-5.62h2.893zM9.393 26.953c-2.2-1.3-3.96-3.267-5.007-5.62h2.893c0.467 1.981 1.18 3.874 2.113 5.62zM10.1 14h3.9v4h-3.9c-0.067-0.66-0.1-1.327-0.1-2s0.033-1.34 0.1-2zM17.333 14h3.9c0.067 0.66 0.1 1.327 0.1 2s-0.033 1.34-0.1 2h-3.9v-4zM10.72 21.333h3.28v6.667c-1.48-1.973-2.607-4.227-3.28-6.667zM17.333 21.333h3.28c-0.673 2.44-1.8 4.693-3.28 6.667v-6.667z"></path>
</svg>
