<?xml version="1.0" encoding="utf-8"?>
<!-- Generated by IcoMoon.io -->
<!DOCTYPE svg PUBLIC "-//W3C//DTD SVG 1.1//EN" "http://www.w3.org/Graphics/SVG/1.1/DTD/svg11.dtd">
<svg version="1.1" xmlns="http://www.w3.org/2000/svg" xmlns:xlink="http://www.w3.org/1999/xlink" width="32" height="32" viewBox="0 0 32 32">
<path d="M4 25.333c0 1.473 1.193 2.667 2.667 2.667h0.667v2.333c0 0.92 0.747 1.667 1.667 1.667s1.667-0.747 1.667-1.667l-0-2.333h3.333v2.333c0 0.92 0.747 1.667 1.667 1.667s1.667-0.747 1.667-1.667l-0-2.333h3.333v2.333c0 0.92 0.747 1.667 1.667 1.667s1.667-0.747 1.667-1.667v-2.333h0.667c1.473 0 2.667-1.193 2.667-2.667v-0.667h2.333c0.92 0 1.667-0.747 1.667-1.667s-0.747-1.667-1.667-1.667h-2.333v-3.333h2.333c0.92 0 1.667-0.747 1.667-1.667s-0.747-1.667-1.667-1.667h-2.333v-3.333h2.333c0.92 0 1.667-0.747 1.667-1.667s-0.747-1.667-1.667-1.667h-2.333v-0.667c0-1.473-1.193-2.667-2.667-2.667h-0.667l0-2.333c0-0.92-0.747-1.667-1.667-1.667s-1.667 0.747-1.667 1.667v2.333h-3.333l-0-2.333c0-0.92-0.747-1.667-1.667-1.667s-1.667 0.747-1.667 1.667v2.333h-3.333v-2.333c0-0.92-0.747-1.667-1.667-1.667s-1.667 0.747-1.667 1.667v2.333h-0.667c-1.473 0-2.667 1.193-2.667 2.667v0.667l-2.333-0c-0.92 0-1.667 0.747-1.667 1.667s0.747 1.667 1.667 1.667h2.333v3.333l-2.333 0c-0.92 0-1.667 0.747-1.667 1.667s0.747 1.667 1.667 1.667h2.333v3.333h-2.333c-0.92 0-1.667 0.747-1.667 1.667s0.747 1.667 1.667 1.667h2.333v0.667zM20.667 12.8v7.067c0 0.813-0.653 1.467-1.467 1.467l-7.067-0c-0.813 0-1.467-0.653-1.467-1.467l0-7.067c0-0.813 0.653-1.467 1.467-1.467h7.067c0.813 0 1.467 0.653 1.467 1.467z"></path>
</svg>
