<?xml version="1.0" encoding="utf-8"?>
<!-- Generated by IcoMoon.io -->
<!DOCTYPE svg PUBLIC "-//W3C//DTD SVG 1.1//EN" "http://www.w3.org/Graphics/SVG/1.1/DTD/svg11.dtd">
<svg version="1.1" xmlns="http://www.w3.org/2000/svg" xmlns:xlink="http://www.w3.org/1999/xlink" width="32" height="32" viewBox="0 0 32 32">
<path d="M17.333 12.333c0-0.92-0.747-1.667-1.667-1.667s-1.667 0.747-1.667 1.667 0.747 1.667 1.667 1.667 1.667-0.747 1.667-1.667zM5.333 0c-1.84 0-3.333 1.493-3.333 3.333v25.333c0 1.84 1.493 3.333 3.333 3.333h20.667c1.84 0 3.333-1.493 3.333-3.333v-25.333c0-1.84-1.493-3.333-3.333-3.333h-20.667zM15.667 3.333c4.973 0 9 4.027 9 9 0 2.593-1.094 4.933-2.853 6.573-0.9-0.681-1.74-1.347-2.22-1.833-1.433-1.433-3.753-1.433-5.187 0-1.086 1.087-1.347 2.693-0.787 4.027-3.987-0.927-6.953-4.5-6.953-8.767 0-4.973 4.027-9 9-9zM5.333 27c0-0.92 0.747-1.667 1.667-1.667s1.667 0.747 1.667 1.667-0.747 1.667-1.667 1.667-1.667-0.747-1.667-1.667zM16.3 18.967c0.4-0.401 1.046-0.401 1.453 0 0.234 0.24 6.787 4.853 7.547 5.613 0.933 0.94 0.933 2.453 0 3.387s-2.447 0.933-3.387 0c-0.8-0.8-5.394-7.333-5.613-7.547-0.4-0.407-0.4-1.053 0-1.453z"></path>
</svg>
