<?xml version="1.0" encoding="utf-8"?>
<!-- Generated by IcoMoon.io -->
<!DOCTYPE svg PUBLIC "-//W3C//DTD SVG 1.1//EN" "http://www.w3.org/Graphics/SVG/1.1/DTD/svg11.dtd">
<svg version="1.1" xmlns="http://www.w3.org/2000/svg" xmlns:xlink="http://www.w3.org/1999/xlink" width="32" height="32" viewBox="0 0 32 32">
<path d="M10.667 5.333c0 2.947 2.387 5.333 5.333 5.333s5.333-2.387 5.333-5.333-2.387-5.333-5.333-5.333-5.333 2.387-5.333 5.333zM10.667 16.667v12h-1.667c-0.92 0-1.667 0.747-1.667 1.667s0.747 1.667 1.667 1.667h14c0.92 0 1.667-0.747 1.667-1.667s-0.747-1.667-1.667-1.667h-1.667v-13.867c0-0.813-0.653-1.467-1.467-1.467h-10.867c-0.92 0-1.667 0.747-1.667 1.667s0.747 1.667 1.667 1.667h1.667z"></path>
</svg>
