<?xml version="1.0" encoding="utf-8"?>
<!-- Generated by IcoMoon.io -->
<!DOCTYPE svg PUBLIC "-//W3C//DTD SVG 1.1//EN" "http://www.w3.org/Graphics/SVG/1.1/DTD/svg11.dtd">
<svg version="1.1" xmlns="http://www.w3.org/2000/svg" xmlns:xlink="http://www.w3.org/1999/xlink" width="32" height="32" viewBox="0 0 32 32">
<path d="M14 7.667c0 0.92 0.747 1.667 1.667 1.667s1.667-0.747 1.667-1.667-0.747-1.667-1.667-1.667-1.667 0.747-1.667 1.667zM14 21.667c0-0.92 0.747-1.667 1.667-1.667s1.667 0.747 1.667 1.667-0.747 1.667-1.667 1.667-1.667-0.747-1.667-1.667zM15.667 17.333c-2.393 0-4.333 1.94-4.333 4.333s1.94 4.333 4.333 4.333 4.333-1.94 4.333-4.333-1.94-4.333-4.333-4.333zM3.333 29.333c0 1.473 1.193 2.667 2.667 2.667h19.333c1.473 0 2.667-1.193 2.667-2.667v-26.667c0-1.473-1.193-2.667-2.667-2.667h-19.333c-1.473 0-2.667 1.193-2.667 2.667v26.667zM12.867 15.247c0.787-0.373 1.333-1.187 1.333-2.12 0-0.72-0.327-1.36-0.84-1.787-1.22-0.767-2.027-2.127-2.027-3.673 0-2.393 1.94-4.333 4.333-4.333s4.333 1.94 4.333 4.333c0 1.48-0.747 2.793-1.88 3.573-0.593 0.42-0.973 1.113-0.973 1.893 0 0.94 0.553 1.753 1.353 2.12l0.053 0.027c2.427 1.1 4.113 3.547 4.113 6.387 0 3.867-3.133 7-7 7s-7-3.133-7-7c0-2.874 1.727-5.34 4.2-6.42z"></path>
</svg>
