<?xml version="1.0" encoding="utf-8"?>
<!-- Generated by IcoMoon.io -->
<!DOCTYPE svg PUBLIC "-//W3C//DTD SVG 1.1//EN" "http://www.w3.org/Graphics/SVG/1.1/DTD/svg11.dtd">
<svg version="1.1" xmlns="http://www.w3.org/2000/svg" xmlns:xlink="http://www.w3.org/1999/xlink" width="32" height="32" viewBox="0 0 32 32">
<path d="M27.333 10c0-3.313-2.687-6-6-6h-10.667c-1.24 0-2.287-0.847-2.58-2 0 0-0.087-0.22-0.087-0.333 0-0.92-0.747-1.667-1.667-1.667s-1.667 0.747-1.667 1.667c0 0.127 0.013 0.247 0.041 0.367 0.346 2.987 2.879 5.3 5.959 5.3h10.667c1.473 0 2.667 1.193 2.667 2.667h-21.333c-1.473 0-2.667 1.193-2.667 2.667v16.667c0 1.473 1.193 2.667 2.667 2.667h26.667c1.473 0 2.667-1.193 2.667-2.667l-0-16.667c0-1.473-1.193-2.667-2.667-2.667h-2zM19.667 13.333c0.92 0 1.667 0.747 1.667 1.667s-0.747 1.667-1.667 1.667-1.667-0.747-1.667-1.667 0.747-1.667 1.667-1.667zM19.667 19.333c0.92 0 1.667 0.747 1.667 1.667s-0.747 1.667-1.667 1.667-1.667-0.747-1.667-1.667 0.747-1.667 1.667-1.667zM12.333 13.333c0.92 0 1.667 0.747 1.667 1.667s-0.747 1.667-1.667 1.667-1.667-0.747-1.667-1.667 0.747-1.667 1.667-1.667zM12.333 19.333c0.92 0 1.667 0.747 1.667 1.667s-0.747 1.667-1.667 1.667-1.667-0.747-1.667-1.667 0.747-1.667 1.667-1.667zM5 13.333c0.92 0 1.667 0.747 1.667 1.667s-0.747 1.667-1.667 1.667-1.667-0.747-1.667-1.667 0.747-1.667 1.667-1.667zM5 19.333c0.92 0 1.667 0.747 1.667 1.667s-0.747 1.667-1.667 1.667-1.667-0.747-1.667-1.667 0.747-1.667 1.667-1.667zM5 25.333c0.92 0 1.667 0.747 1.667 1.667s-0.747 1.667-1.667 1.667-1.667-0.747-1.667-1.667 0.747-1.667 1.667-1.667zM27 13.333c0.92 0 1.667 0.747 1.667 1.667s-0.747 1.667-1.667 1.667-1.667-0.747-1.667-1.667 0.747-1.667 1.667-1.667zM27 19.333c0.92 0 1.667 0.747 1.667 1.667s-0.747 1.667-1.667 1.667-1.667-0.747-1.667-1.667 0.747-1.667 1.667-1.667zM27 25.333c0.92 0 1.667 0.747 1.667 1.667s-0.747 1.667-1.667 1.667-1.667-0.747-1.667-1.667 0.747-1.667 1.667-1.667zM21.333 28.667h-10.667c-0.733 0-1.333-0.6-1.333-1.333s0.6-1.333 1.333-1.333h10.667c0.733 0 1.333 0.6 1.333 1.333s-0.6 1.333-1.333 1.333z"></path>
</svg>
