<?xml version="1.0" encoding="utf-8"?>
<!-- Generated by IcoMoon.io -->
<!DOCTYPE svg PUBLIC "-//W3C//DTD SVG 1.1//EN" "http://www.w3.org/Graphics/SVG/1.1/DTD/svg11.dtd">
<svg version="1.1" xmlns="http://www.w3.org/2000/svg" xmlns:xlink="http://www.w3.org/1999/xlink" width="32" height="32" viewBox="0 0 32 32">
<path d="M14 23.213v7.12c0 0.92 0.747 1.667 1.667 1.667s1.667-0.747 1.667-1.667l-0-7.12c5.653-0.807 10-5.667 10-11.547 0-6.447-5.22-11.667-11.667-11.667s-11.667 5.22-11.667 11.667c0 5.88 4.347 10.74 10 11.547zM16.667 12.94c0.626-1.047 0.067-2.126-1.187-2.126-1.293 0-1.893 1.146-1.893 2.686 0 1.5 1.353 3.459 3.080 3.459 2.92 0 5-2.333 5-4.959 0-3.626-2.913-6.313-6.333-6.313-4.040 0-6.5 3.147-6.5 6.98 0 0.893 0.013 1.867 0.267 3.16 0.193 0.966-0.84 1.060-1.1 0.42-0.46-1.121-0.96-2.913-0.96-4.247 0-5.207 3.5-8.667 8.293-8.667 4.587 0 8.667 3.793 8.667 8.667 0 3.167-2.333 7.333-6.959 7.333-3.621 0-6.187-2.333-6.187-6 0-2.5 1.707-5 4.833-5 2.48 0 3.647 2.314 3.647 3.413 0 0.467-0.094 1.64-0.793 2.253-0.814 0.707-2.354-0.107-1.874-1.060z"></path>
</svg>
