<?xml version="1.0" encoding="utf-8"?>
<!-- Generated by IcoMoon.io -->
<!DOCTYPE svg PUBLIC "-//W3C//DTD SVG 1.1//EN" "http://www.w3.org/Graphics/SVG/1.1/DTD/svg11.dtd">
<svg version="1.1" xmlns="http://www.w3.org/2000/svg" xmlns:xlink="http://www.w3.org/1999/xlink" width="32" height="32" viewBox="0 0 32 32">
<path d="M0 29.333c0 1.473 1.193 2.667 2.667 2.667h26.667c1.473 0 2.667-1.193 2.667-2.667l-0-20c0-1.473-1.193-2.667-2.667-2.667h-5.333v-4c0-1.473-1.193-2.667-2.667-2.667h-10.667c-1.473 0-2.667 1.193-2.667 2.667v4h-5.333c-1.473 0-2.667 1.193-2.667 2.667v20zM20.667 6.667h-9.333v-1.867c0-0.813 0.653-1.467 1.467-1.467h6.4c0.813 0 1.467 0.653 1.467 1.467v1.867zM9.467 16h3.2v-3.2c0-0.813 0.653-1.467 1.467-1.467h3.733c0.813 0 1.467 0.653 1.467 1.467l-0 3.2h3.2c0.813 0 1.467 0.653 1.467 1.467v3.733c0 0.813-0.653 1.467-1.467 1.467h-3.2v3.2c0 0.813-0.653 1.467-1.467 1.467h-3.733c-0.813 0-1.467-0.653-1.467-1.467l0-3.2h-3.2c-0.813 0-1.467-0.653-1.467-1.467v-3.733c0-0.813 0.653-1.467 1.467-1.467z"></path>
</svg>
