<?xml version="1.0" encoding="utf-8"?>
<!-- Generated by IcoMoon.io -->
<!DOCTYPE svg PUBLIC "-//W3C//DTD SVG 1.1//EN" "http://www.w3.org/Graphics/SVG/1.1/DTD/svg11.dtd">
<svg version="1.1" xmlns="http://www.w3.org/2000/svg" xmlns:xlink="http://www.w3.org/1999/xlink" width="32" height="32" viewBox="0 0 32 32">
<path d="M1.778 16.039c-1.327 0.62-1.9 2.193-1.279 3.519s2.193 1.893 3.513 1.28l5.993-2.793v7.953c0 0.733-0.6 1.333-1.333 1.333h-3.667c-0.92 0-1.667 0.747-1.667 1.667s0.747 1.667 1.667 1.667h13.333c0.92 0 1.667-0.747 1.667-1.667s-0.747-1.667-1.667-1.667h-3.667c-0.733 0-1.333-0.6-1.333-1.333v-9.507l2.253-1.053c2.073 1.9 5.187 2.48 7.913 1.233l4.374-1.993c3.573-1.633 5.12-5.8 3.453-9.307-1.667-3.5-5.913-5.014-9.493-3.38l-4.374 1.993c-2.699 1.239-4.247 3.913-4.12 6.66l-11.567 5.393zM24.005 6.332c0-0.92 0.747-1.667 1.667-1.667s1.667 0.747 1.667 1.667-0.747 1.667-1.667 1.667-1.667-0.747-1.667-1.667z"></path>
</svg>
