<?xml version="1.0" encoding="utf-8"?>
<!-- Generated by IcoMoon.io -->
<!DOCTYPE svg PUBLIC "-//W3C//DTD SVG 1.1//EN" "http://www.w3.org/Graphics/SVG/1.1/DTD/svg11.dtd">
<svg version="1.1" xmlns="http://www.w3.org/2000/svg" xmlns:xlink="http://www.w3.org/1999/xlink" width="32" height="32" viewBox="0 0 32 32">
<path d="M30 16.033c0-3.98-2.887-7.287-6.673-7.92-0.113-4.5-3.8-8.113-8.327-8.113-4.6 0-8.333 3.733-8.333 8.333v10.333c0 1.84-1.493 3.333-3.333 3.333h-0.333c-0.92 0-1.667 0.747-1.667 1.667s0.747 1.667 1.667 1.667h0.333c3.68 0 6.667-2.987 6.667-6.667v-10.333c0-2.76 2.24-5 5-5 2.733 0 4.959 2.193 5 4.92-3.453 0.893-6 4.040-6 7.78v7.933c0 4.433 3.58 8.033 8 8.033s8-3.6 8-8.033v-7.933zM23.333 12.667v4c0 0.733-0.6 1.333-1.333 1.333s-1.333-0.6-1.333-1.333v-4c0-0.733 0.6-1.333 1.333-1.333s1.333 0.6 1.333 1.333z"></path>
</svg>
