<?xml version="1.0" encoding="utf-8"?>
<!-- Generated by IcoMoon.io -->
<!DOCTYPE svg PUBLIC "-//W3C//DTD SVG 1.1//EN" "http://www.w3.org/Graphics/SVG/1.1/DTD/svg11.dtd">
<svg version="1.1" xmlns="http://www.w3.org/2000/svg" xmlns:xlink="http://www.w3.org/1999/xlink" width="32" height="32" viewBox="0 0 32 32">
<path d="M24.667 24.28c0.62 0.247 1.293 0.387 2 0.387 2.947 0 5.333-2.387 5.333-5.333v-10c0-2.947-2.387-5.333-5.333-5.333-0.707 0-1.38 0.14-2 0.387v-1.72c0-1.473-1.193-2.667-2.667-2.667h-19.333c-1.473 0-2.667 1.193-2.667 2.667v22.567c0 3.74 3.027 6.767 6.767 6.767h11.133c3.74 0 6.767-3.027 6.767-6.767v-0.953zM6 4.667v19.333c0 0.733-0.6 1.333-1.333 1.333s-1.333-0.6-1.333-1.333l-0-19.333c0-0.733 0.6-1.333 1.333-1.333s1.333 0.6 1.333 1.333zM28.667 19.333c0 1.107-0.893 2-2 2s-2-0.893-2-2v-10c0-1.107 0.893-2 2-2s2 0.893 2 2v10z"></path>
</svg>
