<?xml version="1.0" encoding="utf-8"?>
<!-- Generated by IcoMoon.io -->
<!DOCTYPE svg PUBLIC "-//W3C//DTD SVG 1.1//EN" "http://www.w3.org/Graphics/SVG/1.1/DTD/svg11.dtd">
<svg version="1.1" xmlns="http://www.w3.org/2000/svg" xmlns:xlink="http://www.w3.org/1999/xlink" width="32" height="32" viewBox="0 0 32 32">
<path d="M24.667 25.613c0.62 0.247 1.293 0.387 2 0.387 2.947 0 5.333-2.387 5.333-5.333v-10c0-2.947-2.387-5.333-5.333-5.333-0.707 0-1.38 0.14-2 0.387v-3.053c0-1.473-1.193-2.667-2.667-2.667h-19.333c-1.473 0-2.667 1.193-2.667 2.667v26.667c0 1.473 1.193 2.667 2.667 2.667h19.333c1.473 0 2.667-1.193 2.667-2.667v-3.72zM4.8 3.333h15.067c0.813 0 1.467 0.653 1.467 1.467v3.733c0 0.813-0.653 1.467-1.467 1.467h-15.067c-0.813 0-1.467-0.653-1.467-1.467v-3.733c0-0.813 0.653-1.467 1.467-1.467zM28.667 20.667c0 1.107-0.893 2-2 2s-2-0.893-2-2v-10c0-1.107 0.893-2 2-2s2 0.893 2 2v10z"></path>
</svg>
