<?xml version="1.0" encoding="utf-8"?>
<!-- Generated by IcoMoon.io -->
<!DOCTYPE svg PUBLIC "-//W3C//DTD SVG 1.1//EN" "http://www.w3.org/Graphics/SVG/1.1/DTD/svg11.dtd">
<svg version="1.1" xmlns="http://www.w3.org/2000/svg" xmlns:xlink="http://www.w3.org/1999/xlink" width="32" height="32" viewBox="0 0 32 32">
<path d="M10 19.953c-0.8-0.393-1.707-0.62-2.667-0.62-3.313 0-6 2.687-6 6s2.687 6 6 6 6-2.686 6-6v-13.333c0-0.733 0.6-1.333 1.333-1.333h11.333c0.733 0 1.333 0.6 1.333 1.333v7.953c-0.8-0.393-1.707-0.62-2.667-0.62-3.314 0-6 2.687-6 6s2.686 6 6 6 6-2.686 6-6v-22.533c0-0.813-0.653-1.467-1.467-1.467h-17.733c-0.813 0-1.467 0.653-1.467 1.467v17.153z"></path>
</svg>
