<?xml version="1.0" encoding="utf-8"?>
<!-- Generated by IcoMoon.io -->
<!DOCTYPE svg PUBLIC "-//W3C//DTD SVG 1.1//EN" "http://www.w3.org/Graphics/SVG/1.1/DTD/svg11.dtd">
<svg version="1.1" xmlns="http://www.w3.org/2000/svg" xmlns:xlink="http://www.w3.org/1999/xlink" width="32" height="32" viewBox="0 0 32 32">
<path d="M0 29.333c0 1.473 1.193 2.667 2.667 2.667h26.667c1.473 0 2.667-1.193 2.667-2.667l-0-23.333c0-1.473-1.193-2.667-2.667-2.667h-2.667l0-1.667c0-0.92-0.747-1.667-1.667-1.667s-1.667 0.747-1.667 1.667v1.667h-2.667l0-1.667c0-0.92-0.747-1.667-1.667-1.667s-1.667 0.747-1.667 1.667v1.667h-2.667l0-1.667c0-0.92-0.747-1.667-1.667-1.667s-1.667 0.747-1.667 1.667v1.667h-2.667l0-1.667c0-0.92-0.747-1.667-1.667-1.667s-1.667 0.747-1.667 1.667v1.667h-2.667c-1.473 0-2.667 1.193-2.667 2.667v23.333zM4.8 6.667h0.533v2.333c0 0.92 0.747 1.667 1.667 1.667s1.667-0.747 1.667-1.667v-2.333h2.667v2.333c0 0.92 0.747 1.667 1.667 1.667s1.667-0.747 1.667-1.667l-0-2.333h2.667v2.333c0 0.92 0.747 1.667 1.667 1.667s1.667-0.747 1.667-1.667l-0-2.333h2.667v2.333c0 0.92 0.747 1.667 1.667 1.667s1.667-0.747 1.667-1.667l-0-2.333h0.533c0.813 0 1.467 0.653 1.467 1.467v7.067c0 0.813-0.653 1.467-1.467 1.467l-22.4-0c-0.813 0-1.467-0.653-1.467-1.467v-7.067c0-0.813 0.653-1.467 1.467-1.467z"></path>
</svg>
