<?xml version="1.0" encoding="utf-8"?>
<!-- Generated by IcoMoon.io -->
<!DOCTYPE svg PUBLIC "-//W3C//DTD SVG 1.1//EN" "http://www.w3.org/Graphics/SVG/1.1/DTD/svg11.dtd">
<svg version="1.1" xmlns="http://www.w3.org/2000/svg" xmlns:xlink="http://www.w3.org/1999/xlink" width="32" height="32" viewBox="0 0 32 32">
<path d="M15.407 18.427l-11.3 11.299c-0.24 0.24-0.387 0.573-0.387 0.94 0 0.733 0.593 1.333 1.333 1.333 0.193 0 0.373-0.041 0.54-0.113 0 0 18.827-8.16 19.041-8.261 0.439-0.199 0.78-0.586 0.913-1.067l3.047-10.98 0.613 0.607c0.639 0.64 1.673 0.64 2.313 0 0.641-0.64 0.641-1.674 0-2.313l-9.394-9.393c-0.639-0.64-1.673-0.64-2.313 0-0.641 0.64-0.641 1.674 0 2.313l0.607 0.607-11 3.060c-0.48 0.141-0.867 0.487-1.067 0.94l-8.247 19.027c-0.067 0.159-0.107 0.333-0.107 0.519 0 0.74 0.6 1.333 1.333 1.333 0.38 0 0.72-0.153 0.96-0.406l11.28-11.28c-0.153-0.394-0.24-0.814-0.24-1.261 0-1.84 1.493-3.333 3.333-3.333s3.333 1.493 3.333 3.333-1.493 3.333-3.333 3.333c-0.447 0-0.867-0.087-1.26-0.239z"></path>
</svg>
