<?xml version="1.0" encoding="utf-8"?>
<!-- Generated by IcoMoon.io -->
<!DOCTYPE svg PUBLIC "-//W3C//DTD SVG 1.1//EN" "http://www.w3.org/Graphics/SVG/1.1/DTD/svg11.dtd">
<svg version="1.1" xmlns="http://www.w3.org/2000/svg" xmlns:xlink="http://www.w3.org/1999/xlink" width="32" height="32" viewBox="0 0 32 32">
<path d="M16.052 29.946c2.733 2.74 7.16 2.74 9.893 0 1.701-1.7 2.347-4.053 1.927-6.253 0.72-0.367 1.366-0.793 1.906-1.193 0.060-0.047 0.327-0.233 0.393-0.287 0.301-0.247 0.493-0.62 0.493-1.041 0-0.4-0.173-0.76-0.453-1l-5.5-4.533c-0.227-0.187-0.519-0.3-0.84-0.3-0.361 0-0.687 0.14-0.927 0.367-0.094 0.093-0.919 0.94-0.919 0.94-0.574 0.573-1.5 0.573-2.074 0l-5.613-5.62c-0.573-0.573-0.573-1.507 0-2.080l0.913-0.913c0.24-0.24 0.38-0.573 0.38-0.933s-0.14-0.681-0.367-0.92l-4.713-5.693c-0.247-0.293-0.62-0.487-1.033-0.487-0.44 0-0.827 0.213-1.073 0.54l-0.080 0.107c-1.027 1.387-2.367 3.587-2.367 5.653 0 5.693 12.694 18.367 18.333 18.367 0.107 0 0.213-0.007 0.314-0.007 0.1 1.047-0.254 2.126-1.053 2.933-1.433 1.433-3.754 1.433-5.187 0l-9.206-9.46c-1.953-1.953-5.113-1.953-7.067 0s-1.953 5.113 0 7.067l3.020 2.98c0.653 0.647 1.707 0.647 2.36 0 0.647-0.653 0.647-1.707 0-2.359l-3.027-2.974c-0.647-0.653-0.647-1.707 0-2.359 0.653-0.647 1.707-0.647 2.36 0l9.207 9.459z"></path>
</svg>
