<?xml version="1.0" encoding="utf-8"?>
<!-- Generated by IcoMoon.io -->
<!DOCTYPE svg PUBLIC "-//W3C//DTD SVG 1.1//EN" "http://www.w3.org/Graphics/SVG/1.1/DTD/svg11.dtd">
<svg version="1.1" xmlns="http://www.w3.org/2000/svg" xmlns:xlink="http://www.w3.org/1999/xlink" width="32" height="32" viewBox="0 0 32 32">
<path d="M16 0c-5.7 0-11.413 1.020-13.487 3.053-1.72 1.687-2.293 4.667-2.487 6.553 0 0-0.027 0.187-0.027 0.267 0 0.74 0.6 1.333 1.333 1.333 0.087 0 3.293-0.26 5.227-0.42 0.047-0.007 0.093-0.013 0.14-0.027 0.72-0.020 1.3-0.607 1.3-1.333l0.007-2.627c0-0.813 0.66-1.467 1.473-1.467h13.039c0.814 0 1.474 0.653 1.474 1.467l0.007 2.627c0 0.727 0.58 1.313 1.3 1.333 0.046 0.013 0.093 0.020 0.14 0.027 1.933 0.16 5.14 0.42 5.227 0.42 0.733 0 1.333-0.593 1.333-1.333 0-0.080-0.027-0.267-0.027-0.267-0.193-1.887-0.766-4.867-2.486-6.553-2.074-2.033-7.787-3.053-13.487-3.053zM16 17.333c-1.473 0-2.667 1.193-2.667 2.667s1.193 2.667 2.667 2.667 2.667-1.193 2.667-2.667-1.193-2.667-2.667-2.667zM14 11.333v-1.667c0-0.92-0.747-1.667-1.667-1.667s-1.667 0.747-1.667 1.667v1.667l-8.993 9.607c-0.62 0.607-1.007 1.453-1.007 2.387v2.673c0 1.473 1.193 2.667 2.667 2.667h0.667v1.667c-0 0.92 0.747 1.667 1.667 1.667s1.667-0.747 1.667-1.667l-0-1.667h17.333v1.667c0 0.92 0.747 1.667 1.667 1.667s1.667-0.747 1.667-1.667v-1.667h0.667c1.473 0 2.667-1.193 2.667-2.667v-2.673c0-0.933-0.387-1.78-1.007-2.387l-8.993-9.607v-1.667c0-0.92-0.747-1.667-1.667-1.667s-1.667 0.747-1.667 1.667v1.667h-4zM16 14.667c2.947 0 5.333 2.387 5.333 5.333s-2.387 5.333-5.333 5.333-5.333-2.387-5.333-5.333 2.387-5.333 5.333-5.333z"></path>
</svg>
