<?xml version="1.0" encoding="utf-8"?>
<!-- Generated by IcoMoon.io -->
<!DOCTYPE svg PUBLIC "-//W3C//DTD SVG 1.1//EN" "http://www.w3.org/Graphics/SVG/1.1/DTD/svg11.dtd">
<svg version="1.1" xmlns="http://www.w3.org/2000/svg" xmlns:xlink="http://www.w3.org/1999/xlink" width="32" height="32" viewBox="0 0 32 32">
<path d="M32 27.76c-3.72 2.3-8.041 3.573-12.307 3.573-1.879 0-3.72-0.193-5.5-0.667-1.227-0.347-2.193-1.353-2.193-2.667 0-0.793 0.347-1.513 0.9-2h-0.233c-1.473 0-2.667-1.193-2.667-2.667s1.193-2.667 2.667-2.667h-1.333c-1.473 0-2.667-1.193-2.667-2.667s1.193-2.667 2.667-2.667l-8.667 0c-1.473 0-2.667-1.193-2.667-2.667s1.193-2.667 2.667-2.667h15.207c0.739 0 1.333-0.599 1.333-1.333 0-0.126-0.021-0.247-0.053-0.36l-1.534-3.773c-0.18-0.36-0.287-0.767-0.287-1.2 0-1.473 1.193-2.667 2.667-2.667 1.107 0 2.060 0.68 2.467 1.64 2.233 4.327 4.973 7.793 9.533 10.22v15.233z"></path>
</svg>
