<?xml version="1.0" encoding="utf-8"?>
<!-- Generated by IcoMoon.io -->
<!DOCTYPE svg PUBLIC "-//W3C//DTD SVG 1.1//EN" "http://www.w3.org/Graphics/SVG/1.1/DTD/svg11.dtd">
<svg version="1.1" xmlns="http://www.w3.org/2000/svg" xmlns:xlink="http://www.w3.org/1999/xlink" width="32" height="32" viewBox="0 0 32 32">
<path d="M27.761 0c2.299 3.72 3.573 8.041 3.573 12.307 0 1.88-0.193 3.72-0.667 5.5-0.347 1.227-1.353 2.193-2.667 2.193-0.793 0-1.513-0.347-2-0.9v0.233c0 1.473-1.193 2.667-2.667 2.667s-2.667-1.193-2.667-2.667v1.333c0 1.473-1.193 2.667-2.667 2.667s-2.667-1.193-2.667-2.667v8.667c0 1.473-1.193 2.667-2.667 2.667s-2.667-1.193-2.667-2.667l0-15.207c0-0.739-0.6-1.333-1.333-1.333-0.127 0-0.247 0.020-0.367 0.053l-3.767 1.533c-0.36 0.181-0.767 0.287-1.2 0.287-1.473 0-2.667-1.193-2.667-2.667 0-1.107 0.68-2.060 1.64-2.467 4.327-2.233 7.793-4.973 10.22-9.533h15.234z"></path>
</svg>
