<?xml version="1.0" encoding="utf-8"?>
<!-- Generated by IcoMoon.io -->
<!DOCTYPE svg PUBLIC "-//W3C//DTD SVG 1.1//EN" "http://www.w3.org/Graphics/SVG/1.1/DTD/svg11.dtd">
<svg version="1.1" xmlns="http://www.w3.org/2000/svg" xmlns:xlink="http://www.w3.org/1999/xlink" width="32" height="32" viewBox="0 0 32 32">
<path d="M0 29.333c0 1.473 1.193 2.667 2.667 2.667h26.667c1.473 0 2.667-1.193 2.667-2.667l-0-16c0-1.473-1.193-2.667-2.667-2.667h-2v-8c0-1.473-1.193-2.667-2.667-2.667h-17.333c-1.473 0-2.667 1.193-2.667 2.667v8h-2c-1.473 0-2.667 1.193-2.667 2.667v16zM24 4.8v7.733c0 0.813-0.653 1.467-1.467 1.467h-13.067c-0.813 0-1.467-0.653-1.467-1.467v-7.733c0-0.813 0.653-1.467 1.467-1.467h13.067c0.813 0 1.467 0.653 1.467 1.467zM26 28.667h-20c-0.733 0-1.333-0.6-1.333-1.333s0.6-1.333 1.333-1.333h20c0.733 0 1.333 0.6 1.333 1.333s-0.6 1.333-1.333 1.333zM4.667 21.667c0-0.92 0.747-1.667 1.667-1.667s1.667 0.747 1.667 1.667-0.747 1.667-1.667 1.667-1.667-0.747-1.667-1.667z"></path>
</svg>
