<?xml version="1.0" encoding="utf-8"?>
<!-- Generated by IcoMoon.io -->
<!DOCTYPE svg PUBLIC "-//W3C//DTD SVG 1.1//EN" "http://www.w3.org/Graphics/SVG/1.1/DTD/svg11.dtd">
<svg version="1.1" xmlns="http://www.w3.org/2000/svg" xmlns:xlink="http://www.w3.org/1999/xlink" width="32" height="32" viewBox="0 0 32 32">
<path d="M13.073 8.287l0.014 0.019c0.3 0.24 0.486 0.613 0.486 1.027 0 0.733-0.593 1.333-1.333 1.333l-7.559 0c-1.473 0-2.667 1.193-2.667 2.667v5.147c0 0.733 0.6 1.333 1.333 1.333 0.407 0 0.767-0.181 1.014-0.467 0.046-0.053 0.207-0.22 0.239-0.253 0.719-0.681 1.687-1.094 2.747-1.094 2.207 0 4 1.793 4 4s-1.793 4-4 4c-1.067 0-2.040-0.42-2.76-1.1-0.027-0.026-0.187-0.18-0.227-0.239-0.247-0.287-0.613-0.473-1.027-0.473-0.734 0-1.333 0.6-1.333 1.333l0.013 3.813c0 1.473 1.193 2.667 2.667 2.667h22.667c1.473 0 2.667-1.193 2.667-2.667v-5.813c0-0.733-0.6-1.333-1.333-1.333-0.374 0-0.713 0.153-0.959 0.407l-0.261 0.28c-0.721 0.7-1.7 1.127-2.78 1.127-2.207 0-4-1.793-4-4s1.793-4 4-4c1.087 0 2.067 0.433 2.787 1.133l0.207 0.22c0.247 0.28 0.607 0.46 1.007 0.46 0.733 0 1.333-0.6 1.333-1.333v-3.147c0-1.473-1.193-2.667-2.667-2.667h-7.573c-0.733 0-1.333-0.6-1.333-1.333 0-0.374 0.153-0.713 0.407-0.959 1.112-0.847 1.833-2.194 1.833-3.707 0-2.58-2.087-4.667-4.667-4.667s-4.667 2.087-4.667 4.667c0 1.459 0.673 2.767 1.726 3.621z"></path>
</svg>
