<?xml version="1.0" encoding="utf-8"?>
<!-- Generated by IcoMoon.io -->
<!DOCTYPE svg PUBLIC "-//W3C//DTD SVG 1.1//EN" "http://www.w3.org/Graphics/SVG/1.1/DTD/svg11.dtd">
<svg version="1.1" xmlns="http://www.w3.org/2000/svg" xmlns:xlink="http://www.w3.org/1999/xlink" width="32" height="32" viewBox="0 0 32 32">
<path d="M0 28.667c0 1.473 1.193 2.667 2.667 2.667h8.667c1.473 0 2.667-1.193 2.667-2.667l-0-10.667c0-1.473-1.193-2.667-2.667-2.667h-4.28c-0.74 0-1.333-0.6-1.333-1.333 0-0.24 0.060-0.407 0.060-0.407 0.973-3.227 3.433-5.813 6.587-6.96l0.013-0.013c0.953-0.407 1.62-1.353 1.62-2.453 0-1.473-1.193-2.667-2.667-2.667-0.36 0-0.7 0.073-1.013 0.2l-0.12 0.047c-5.967 2.327-10.2 8.127-10.2 14.92v12zM17.333 28.667c0 1.473 1.193 2.667 2.667 2.667h8.667c1.473 0 2.667-1.193 2.667-2.667l-0-10.667c0-1.473-1.193-2.667-2.667-2.667h-4.28c-0.74 0-1.333-0.6-1.333-1.333 0-0.247 0.060-0.407 0.060-0.407 0.973-3.227 3.433-5.813 6.587-6.96l0.013-0.013c0.953-0.407 1.62-1.353 1.62-2.453 0-1.473-1.193-2.667-2.667-2.667-0.36 0-0.7 0.073-1.013 0.2l-0.12 0.047c-5.967 2.327-10.2 8.127-10.2 14.92v12z"></path>
</svg>
