<?xml version="1.0" encoding="utf-8"?>
<!-- Generated by IcoMoon.io -->
<!DOCTYPE svg PUBLIC "-//W3C//DTD SVG 1.1//EN" "http://www.w3.org/Graphics/SVG/1.1/DTD/svg11.dtd">
<svg version="1.1" xmlns="http://www.w3.org/2000/svg" xmlns:xlink="http://www.w3.org/1999/xlink" width="32" height="32" viewBox="0 0 32 32">
<path d="M6 23.667c0 0.921 0.747 1.667 1.667 1.667s1.667-0.746 1.667-1.667c0-0.919-0.747-1.667-1.667-1.667s-1.667 0.747-1.667 1.667zM22.387 8l-16.5-7.239c-0.74-0.28-1.553 0.087-1.807 0.82-0.26 0.733 0.133 1.56 0.873 1.84l10.44 4.579h-12.727c-1.473 0-2.667 1.193-2.667 2.667v18c0 1.474 1.193 2.667 2.667 2.667h24c1.473 0 2.667-1.193 2.667-2.667l-0-9.333h1.2c0.813 0 1.467-0.653 1.467-1.466v-3.733c0-0.813-0.653-1.467-1.467-1.467h-1.2v-2c0-1.473-1.193-2.667-2.667-2.667l-4.28 0zM4.8 11.333h19.733c0.813 0 1.467 0.653 1.467 1.467v2.4c0 0.813-0.653 1.467-1.467 1.467h-13.2l-2-2-2 2h-2.533c-0.813 0-1.467-0.653-1.467-1.467v-2.4c0-0.813 0.653-1.467 1.467-1.467zM22.667 21c0-0.919 0.747-1.667 1.667-1.667s1.667 0.747 1.667 1.667c0 0.921-0.747 1.667-1.667 1.667s-1.667-0.746-1.667-1.667zM3.333 23.667c0-2.393 1.94-4.333 4.333-4.333s4.333 1.94 4.333 4.333-1.94 4.333-4.333 4.333-4.333-1.94-4.333-4.333z"></path>
</svg>
