<?xml version="1.0" encoding="utf-8"?>
<!-- Generated by IcoMoon.io -->
<!DOCTYPE svg PUBLIC "-//W3C//DTD SVG 1.1//EN" "http://www.w3.org/Graphics/SVG/1.1/DTD/svg11.dtd">
<svg version="1.1" xmlns="http://www.w3.org/2000/svg" xmlns:xlink="http://www.w3.org/1999/xlink" width="32" height="32" viewBox="0 0 32 32">
<path d="M5.999 14.751h4.967c0.74 0 1.333 0.6 1.333 1.333 0 0.361-0.14 0.687-0.373 0.927l0.007 0.013-3.4 3.4c-2.347 2.347-2.347 6.141 0 8.487 2.34 2.34 6.14 2.34 8.486 0 2.341-2.347 2.341-6.139 0-8.487-0.68-0.673-1.479-1.16-2.326-1.447l0.893-0.893h11.413c2.72 0 4.933-2.313 5-5.199 0-0.047 0.007-0.087 0-0.133-0.067-0.747-0.7-1.333-1.467-1.333h-8.28l5.98-5.98c0.547-0.547 0.581-1.407 0.1-1.98-0.033-0.041-0.067-0.067-0.1-0.1-2.079-1.986-5.287-2.060-7.207-0.14l-8.2 8.2h-1.453c0.4-0.8 0.627-1.707 0.627-2.667 0-3.313-2.687-6-6-6s-6 2.687-6 6c0 3.313 2.687 5.999 6 5.999zM8.665 8.751c0 1.473-1.193 2.667-2.667 2.667s-2.667-1.193-2.667-2.667 1.193-2.667 2.667-2.667 2.667 1.193 2.667 2.667zM14.659 22.785c1.040 1.041 1.040 2.727 0 3.767-1.040 1.045-2.727 1.045-3.773 0-1.040-1.041-1.040-2.727 0-3.767 1.047-1.047 2.733-1.047 3.773 0z"></path>
</svg>
