<?xml version="1.0" encoding="utf-8"?>
<!-- Generated by IcoMoon.io -->
<!DOCTYPE svg PUBLIC "-//W3C//DTD SVG 1.1//EN" "http://www.w3.org/Graphics/SVG/1.1/DTD/svg11.dtd">
<svg version="1.1" xmlns="http://www.w3.org/2000/svg" xmlns:xlink="http://www.w3.org/1999/xlink" width="32" height="32" viewBox="0 0 32 32">
<path d="M0 29.333c0 1.473 1.193 2.667 2.667 2.667h26.667c1.473 0 2.667-1.193 2.667-2.667l-0-26.667c0-1.473-1.193-2.667-2.667-2.667h-26.667c-1.473 0-2.667 1.193-2.667 2.667v26.667zM6 16c0-2.207 1.793-4 4-4 0.92 0 1.767 0.313 2.44 0.827l5.573-2.527c-0.013-0.1-0.013-0.2-0.013-0.3 0-2.207 1.793-4 4-4s4 1.793 4 4-1.793 4-4 4c-1.027 0-1.967-0.387-2.673-1.027l-5.373 2.44c0.033 0.193 0.047 0.387 0.047 0.587s-0.013 0.393-0.047 0.587l5.373 2.433c0.707-0.633 1.647-1.020 2.673-1.020 2.207 0 4 1.793 4 4s-1.793 4-4 4-4-1.793-4-4c0-0.1 0-0.2 0.013-0.3l-5.573-2.533c-0.674 0.52-1.521 0.833-2.441 0.833-2.207 0-4-1.793-4-4z"></path>
</svg>
