<?xml version="1.0" encoding="utf-8"?>
<!-- Generated by IcoMoon.io -->
<!DOCTYPE svg PUBLIC "-//W3C//DTD SVG 1.1//EN" "http://www.w3.org/Graphics/SVG/1.1/DTD/svg11.dtd">
<svg version="1.1" xmlns="http://www.w3.org/2000/svg" xmlns:xlink="http://www.w3.org/1999/xlink" width="32" height="32" viewBox="0 0 32 32">
<path d="M8 29.333c0 1.473 1.193 2.667 2.667 2.667h10c1.473 0 2.667-1.193 2.667-2.667v-0.78c0-0.626 0.433-1.153 1.019-1.293 3.201-0.494 5.647-3.261 5.647-6.594 0-1.5-0.493-2.887-1.333-4v-4.56c0-6.687-5.82-12.107-13-12.107s-13 5.42-13 12.107v4.56c-0.84 1.113-1.333 2.5-1.333 4 0 3.333 2.447 6.1 5.647 6.594 0.587 0.139 1.020 0.667 1.020 1.293l-0 0.78zM6.667 16c0-1.84 1.493-3.333 3.333-3.333s3.333 1.493 3.333 3.333-1.493 3.333-3.333 3.333-3.333-1.493-3.333-3.333zM18 16c0-1.84 1.493-3.333 3.333-3.333s3.333 1.493 3.333 3.333-1.493 3.333-3.333 3.333-3.333-1.493-3.333-3.333zM12.379 23.12l2.347-2.347c0.52-0.52 1.36-0.52 1.88 0l2.347 2.347c0.507 0.507 0.507 1.327 0 1.833s-1.327 0.507-1.833 0l-1.453-1.453-1.454 1.453c-0.506 0.507-1.326 0.507-1.833 0-0.505-0.507-0.505-1.327-0-1.833z"></path>
</svg>
