<?xml version="1.0" encoding="utf-8"?>
<!-- Generated by IcoMoon.io -->
<!DOCTYPE svg PUBLIC "-//W3C//DTD SVG 1.1//EN" "http://www.w3.org/Graphics/SVG/1.1/DTD/svg11.dtd">
<svg version="1.1" xmlns="http://www.w3.org/2000/svg" xmlns:xlink="http://www.w3.org/1999/xlink" width="32" height="32" viewBox="0 0 32 32">
<path d="M10 16.333c0 0.92 0.747 1.667 1.667 1.667s1.667-0.747 1.667-1.667-0.747-1.667-1.667-1.667-1.667 0.747-1.667 1.667zM18 16.333c0 0.92 0.747 1.667 1.667 1.667s1.667-0.747 1.667-1.667-0.747-1.667-1.667-1.667-1.667 0.747-1.667 1.667zM0 29.333c0 1.473 1.193 2.667 2.667 2.667h26c1.473 0 2.667-1.193 2.667-2.667l-0-26c0-1.473-1.193-2.667-2.667-2.667l-26 0c-1.473 0-2.667 1.193-2.667 2.667v26zM6.667 16.333c0-4.973 4.027-9 9-9s9 4.027 9 9-4.027 9-9 9-9-4.027-9-9z"></path>
</svg>
