<?xml version="1.0" encoding="utf-8"?>
<!-- Generated by IcoMoon.io -->
<!DOCTYPE svg PUBLIC "-//W3C//DTD SVG 1.1//EN" "http://www.w3.org/Graphics/SVG/1.1/DTD/svg11.dtd">
<svg version="1.1" xmlns="http://www.w3.org/2000/svg" xmlns:xlink="http://www.w3.org/1999/xlink" width="32" height="32" viewBox="0 0 32 32">
<path d="M24 8v-4c0-1.473-1.193-2.667-2.667-2.667h-10.667c-1.473 0-2.667 1.193-2.667 2.667v4h-5.333c-1.473 0-2.667 1.193-2.667 2.667v17.333c0 1.473 1.193 2.667 2.667 2.667h26.667c1.473 0 2.667-1.193 2.667-2.667l-0-17.333c0-1.473-1.193-2.667-2.667-2.667h-5.333zM12.8 4.667h6.4c0.813 0 1.467 0.653 1.467 1.467v1.867h-9.333v-1.867c0-0.813 0.653-1.467 1.467-1.467zM8 12.667v13.333c0 0.733-0.6 1.333-1.333 1.333s-1.333-0.6-1.333-1.333l-0-13.333c0-0.733 0.6-1.333 1.333-1.333s1.333 0.6 1.333 1.333zM26.667 12.667v13.333c0 0.733-0.6 1.333-1.333 1.333s-1.333-0.6-1.333-1.333l-0-13.333c0-0.733 0.6-1.333 1.333-1.333s1.333 0.6 1.333 1.333z"></path>
</svg>
