<?xml version="1.0" encoding="utf-8"?>
<!-- Generated by IcoMoon.io -->
<!DOCTYPE svg PUBLIC "-//W3C//DTD SVG 1.1//EN" "http://www.w3.org/Graphics/SVG/1.1/DTD/svg11.dtd">
<svg version="1.1" xmlns="http://www.w3.org/2000/svg" xmlns:xlink="http://www.w3.org/1999/xlink" width="32" height="32" viewBox="0 0 32 32">
<path d="M22.667 7.666c0 0.92 0.747 1.667 1.667 1.667s1.667-0.747 1.667-1.667-0.747-1.667-1.667-1.667-1.667 0.747-1.667 1.667zM11.014 31.226c1.027 1.034 2.693 1.034 3.727 0l16.293-16.187c0.653-0.653 0.98-1.513 0.967-2.373v-9.36c0-1.827-1.481-3.307-3.307-3.307h-9.36c-0.86-0.014-1.72 0.313-2.374 0.967l-16.186 16.294c-1.034 1.033-1.034 2.699 0 3.727l10.24 10.239zM20.001 7.666c0-2.393 1.94-4.333 4.333-4.333s4.333 1.94 4.333 4.333-1.94 4.333-4.333 4.333-4.333-1.94-4.333-4.333z"></path>
</svg>
