<?xml version="1.0" encoding="utf-8"?>
<!-- Generated by IcoMoon.io -->
<!DOCTYPE svg PUBLIC "-//W3C//DTD SVG 1.1//EN" "http://www.w3.org/Graphics/SVG/1.1/DTD/svg11.dtd">
<svg version="1.1" xmlns="http://www.w3.org/2000/svg" xmlns:xlink="http://www.w3.org/1999/xlink" width="32" height="32" viewBox="0 0 32 32">
<path d="M0 28c5.66 2.567 12.379 4 19 4 2.147 0 4.26-0.1 6.32-0.44 0.806-0.133 1.853-0.433 2.306-0.78 0.634-0.487 1.041-1.253 1.041-2.113 0-0.793-0.347-1.513-0.9-2h0.233c1.473 0 2.667-1.193 2.667-2.667s-1.193-2.667-2.667-2.667h1.333c1.473 0 2.667-1.193 2.667-2.667s-1.193-2.667-2.667-2.667c1.473 0 2.667-1.193 2.667-2.667s-1.193-2.667-2.667-2.667l-11.959 0c-0.921 0-1.667-0.747-1.667-1.667l0.839-5.541c0.079-0.252 0.12-0.519 0.12-0.793 0-1.473-1.193-2.667-2.667-2.667-1.233 0-2.273 0.84-2.573 1.973l-0.113 0.38c-1.713 5.453-5.593 10.434-11.313 13.647v12z"></path>
</svg>
