<?xml version="1.0" encoding="utf-8"?>
<!-- Generated by IcoMoon.io -->
<!DOCTYPE svg PUBLIC "-//W3C//DTD SVG 1.1//EN" "http://www.w3.org/Graphics/SVG/1.1/DTD/svg11.dtd">
<svg version="1.1" xmlns="http://www.w3.org/2000/svg" xmlns:xlink="http://www.w3.org/1999/xlink" width="32" height="32" viewBox="0 0 32 32">
<path d="M2.667 19c0 7.18 5.82 13 13 13s13-5.82 13-13c0-5.833-3.84-10.767-9.133-12.413l-0.007-0.007c-0.507-0.193-0.86-0.68-0.86-1.247 0-0.733 0.6-1.333 1.333-1.333h0.333c0.92 0 1.667-0.747 1.667-1.667s-0.747-1.667-1.667-1.667h-9.333c-0.92 0-1.667 0.747-1.667 1.667s0.747 1.667 1.667 1.667h0.333c0.733 0 1.333 0.6 1.333 1.333 0 0.58-0.373 1.073-0.887 1.261-1.227 0.379-2.373 0.939-3.42 1.647l-1.227-1.227c-0.46-0.459-1.22-0.459-1.681 0l-1.773 1.774c-0.46 0.459-0.46 1.219 0 1.68l1.227 1.227c-1.413 2.086-2.239 4.599-2.239 7.306zM14 11c0-0.92 0.747-1.667 1.667-1.667s1.667 0.747 1.667 1.667-0.747 1.667-1.667 1.667-1.667-0.747-1.667-1.667zM6 19c0-0.92 0.747-1.667 1.667-1.667s1.667 0.747 1.667 1.667-0.747 1.667-1.667 1.667-1.667-0.747-1.667-1.667zM22 19c0-0.92 0.747-1.667 1.667-1.667s1.667 0.747 1.667 1.667-0.747 1.667-1.667 1.667-1.667-0.747-1.667-1.667zM14 27c0-0.92 0.747-1.667 1.667-1.667s1.667 0.747 1.667 1.667-0.747 1.667-1.667 1.667-1.667-0.747-1.667-1.667zM22.287 14.213l-5.406 5.407c-0.507 0.506-1.327 0.506-1.833 0-0.507-0.507-0.507-1.327 0-1.833l5.407-5.407c0.507-0.507 1.327-0.507 1.833 0s0.505 1.327-0.001 1.833z"></path>
</svg>
