<?xml version="1.0" encoding="utf-8"?>
<!-- Generated by IcoMoon.io -->
<!DOCTYPE svg PUBLIC "-//W3C//DTD SVG 1.1//EN" "http://www.w3.org/Graphics/SVG/1.1/DTD/svg11.dtd">
<svg version="1.1" xmlns="http://www.w3.org/2000/svg" xmlns:xlink="http://www.w3.org/1999/xlink" width="32" height="32" viewBox="0 0 32 32">
<path d="M29.333 24.667c1.473 0 2.667-1.193 2.667-2.667v-16.667c0-1.473-1.193-2.667-2.667-2.667l-14.667 0c-1.473 0-2.667 1.193-2.667 2.667v2.667h-4.053c-0.893 0-1.687 0.353-2.26 0.92l-3.373 3.387c-0.607 0.6-0.98 1.44-0.98 2.36v6.7c-0.76 0.153-1.333 0.827-1.333 1.633 0 0.92 0.747 1.667 1.667 1.667h2.347c0.167 2.607 2.34 4.667 4.987 4.667s4.82-2.060 4.987-4.667h4.687c0.173 2.607 2.347 4.667 4.993 4.667s4.82-2.060 4.987-4.667h0.68zM10.667 24.333c0 0.92-0.747 1.667-1.667 1.667s-1.667-0.747-1.667-1.667 0.747-1.667 1.667-1.667 1.667 0.747 1.667 1.667zM25.333 24.333c0 0.92-0.747 1.667-1.667 1.667s-1.667-0.747-1.667-1.667 0.747-1.667 1.667-1.667 1.667 0.747 1.667 1.667zM4.667 16.667v-1.686c0-0.667 0.267-0.981 0.767-1.481l1.433-1.433c0.453-0.453 0.8-0.733 1.453-0.733l3.68-0v5.333l-7.333 0z"></path>
</svg>
