<?xml version="1.0" encoding="utf-8"?>
<!-- Generated by IcoMoon.io -->
<!DOCTYPE svg PUBLIC "-//W3C//DTD SVG 1.1//EN" "http://www.w3.org/Graphics/SVG/1.1/DTD/svg11.dtd">
<svg version="1.1" xmlns="http://www.w3.org/2000/svg" xmlns:xlink="http://www.w3.org/1999/xlink" width="32" height="32" viewBox="0 0 32 32">
<path d="M0 29.333c0 1.473 1.193 2.667 2.667 2.667h26.667c1.473 0 2.667-1.193 2.667-2.667l-0-26.667c0-1.473-1.193-2.667-2.667-2.667h-26.667c-1.473 0-2.667 1.193-2.667 2.667v26.667zM20.667 16.667h-6.667v2c0 0.733 0.6 1.333 1.333 1.333h5.333c1.473 0 2.667 1.193 2.667 2.667s-1.193 2.667-2.667 2.667l-6.667-0c-2.947 0-5.333-2.387-5.333-5.333v-11.333c0-1.473 1.193-2.667 2.667-2.667s2.667 1.193 2.667 2.667v2.667h6.667c1.473 0 2.667 1.193 2.667 2.667s-1.193 2.667-2.667 2.667z"></path>
</svg>
