<?xml version="1.0" encoding="utf-8"?>
<!-- Generated by IcoMoon.io -->
<!DOCTYPE svg PUBLIC "-//W3C//DTD SVG 1.1//EN" "http://www.w3.org/Graphics/SVG/1.1/DTD/svg11.dtd">
<svg version="1.1" xmlns="http://www.w3.org/2000/svg" xmlns:xlink="http://www.w3.org/1999/xlink" width="32" height="32" viewBox="0 0 32 32">
<path d="M4.667 0c-1.473 0-2.667 1.193-2.667 2.667v26.667c0 1.473 1.193 2.667 2.667 2.667h22c1.473 0 2.667-1.193 2.667-2.667l-0-10.667h-1.2c-0.813 0-1.467-0.653-1.467-1.467v-3.733c0-0.813 0.653-1.467 1.467-1.467h1.2v-5.387c0-0.893-0.353-1.687-0.92-2.26l-3.387-3.373c-0.6-0.607-1.44-0.98-2.36-0.98h-18zM8 4.667v6c0 0.733-0.6 1.333-1.333 1.333s-1.333-0.6-1.333-1.333l-0-6c0-0.733 0.6-1.333 1.333-1.333s1.333 0.6 1.333 1.333zM14 4.667v6c0 0.733-0.6 1.333-1.333 1.333s-1.333-0.6-1.333-1.333l-0-6c0-0.733 0.6-1.333 1.333-1.333s1.333 0.6 1.333 1.333zM20 4.667v6c0 0.733-0.6 1.333-1.333 1.333s-1.333-0.6-1.333-1.333l-0-6c0-0.733 0.6-1.333 1.333-1.333s1.333 0.6 1.333 1.333zM6.8 21.333h15.733c0.813 0 1.467 0.653 1.467 1.467v4.4c0 0.813-0.653 1.467-1.467 1.467h-15.733c-0.813 0-1.467-0.653-1.467-1.467v-4.4c0-0.813 0.653-1.467 1.467-1.467z"></path>
</svg>
