<?xml version="1.0" encoding="utf-8"?>
<!-- Generated by IcoMoon.io -->
<!DOCTYPE svg PUBLIC "-//W3C//DTD SVG 1.1//EN" "http://www.w3.org/Graphics/SVG/1.1/DTD/svg11.dtd">
<svg version="1.1" xmlns="http://www.w3.org/2000/svg" xmlns:xlink="http://www.w3.org/1999/xlink" width="32" height="32" viewBox="0 0 32 32">
<path d="M22.987 0.773c-1.027-1.033-2.694-1.033-3.727 0l-7.92 7.9-1.686-1.687-6.020 6.047c-0.653 0.653-0.967 1.499-0.967 2.373v7.927l0.013 0.013-1.907 1.914c-1.033 1.033-1.033 2.699 0 3.727l2.24 2.239c1.027 1.034 2.694 1.034 3.727 0l1.914-1.906 0.013 0.013h7.94c0.853 0.013 1.72-0.314 2.373-0.967l6.020-6.033-1.673-1.673 7.9-7.92c1.033-1.033 1.033-2.7 0-3.727l-8.24-8.24zM25.626 10.4l0.641 0.64c0.533 0.533 0.533 1.387 0 1.92l-0.641 0.64c-0.533 0.533-1.387 0.533-1.919 0l-0.641-0.64c-0.533-0.533-0.533-1.387 0-1.92l0.641-0.64c0.533-0.534 1.387-0.534 1.919 0zM20.959 5.733l0.641 0.64c0.533 0.533 0.533 1.387 0 1.92l-0.641 0.64c-0.533 0.533-1.387 0.533-1.919 0l-0.641-0.64c-0.533-0.533-0.533-1.387 0-1.92l0.641-0.64c0.533-0.534 1.387-0.534 1.919 0z"></path>
</svg>
