<?xml version="1.0" encoding="utf-8"?>
<!-- Generated by IcoMoon.io -->
<!DOCTYPE svg PUBLIC "-//W3C//DTD SVG 1.1//EN" "http://www.w3.org/Graphics/SVG/1.1/DTD/svg11.dtd">
<svg version="1.1" xmlns="http://www.w3.org/2000/svg" xmlns:xlink="http://www.w3.org/1999/xlink" width="32" height="32" viewBox="0 0 32 32">
<path d="M27.793 23.060c-1.4-1.827-3.093-3.013-5.519-3.686l-2.273 7.959c0 0.733-0.6 1.333-1.333 1.333s-1.333-0.6-1.333-1.333v-6.333c0-0.92-0.747-1.667-1.667-1.667s-1.667 0.747-1.667 1.667v6.333c0 0.733-0.6 1.333-1.333 1.333s-1.333-0.6-1.333-1.333l-2.273-7.959c-2.427 0.68-4.12 1.859-5.52 3.686-0.553 0.72-0.853 2.167-0.873 2.94v3.333c0 1.473 1.193 2.667 2.667 2.667h20.667c1.473 0 2.667-1.193 2.667-2.667v-3.333c-0.020-0.773-0.32-2.22-0.874-2.94zM15.667 16.667c4.493 0 7-5.72 7-9.613s-3.133-7.053-7-7.053-7 3.16-7 7.053 2.427 9.613 7 9.613z"></path>
</svg>
