<?xml version="1.0" encoding="utf-8"?>
<!-- Generated by IcoMoon.io -->
<!DOCTYPE svg PUBLIC "-//W3C//DTD SVG 1.1//EN" "http://www.w3.org/Graphics/SVG/1.1/DTD/svg11.dtd">
<svg version="1.1" xmlns="http://www.w3.org/2000/svg" xmlns:xlink="http://www.w3.org/1999/xlink" width="32" height="32" viewBox="0 0 32 32">
<path d="M27.793 23.060c-0.78-1.019-1.653-1.84-2.7-2.486-1.619 3.593-5.233 6.093-9.426 6.093s-7.807-2.5-9.427-6.093c-1.040 0.647-1.919 1.467-2.699 2.486-0.553 0.721-0.854 2.167-0.873 2.941 0.007 0.2 0 3.333 0 3.333 0 1.473 1.193 2.667 2.667 2.667h20.667c1.473 0 2.667-1.193 2.667-2.667 0 0-0.007-3.133 0-3.333-0.020-0.773-0.32-2.22-0.874-2.94zM12.046 18.833c-0.559 0.060-1.093 0.133-1.599 0.22-0.58 0.147-1.020 0.673-1.020 1.3 0 0.26 0.073 0.493 0.2 0.7 1.4 1.793 3.586 2.947 6.040 2.947 2.393 0 4.527-1.093 5.933-2.807 0.186-0.227 0.293-0.52 0.293-0.84 0-0.653-0.473-1.2-1.1-1.313-0.519-0.094-1.067-0.174-1.653-0.234-0.753-0.139-1.32-0.673-1.32-1.473 0-0.733 0.546-1.293 1.28-1.387 0.073-0.013 0.246-0.019 0.246-0.019 3.587-0.254 6.027-0.981 7.633-2.367 0.221-0.233 0.354-0.547 0.354-0.893 0-0.693-0.527-1.26-1.2-1.327-1.98-0.4-3.467-2.040-3.467-4.007v-0.28c0-3.893-3.133-7.053-7-7.053s-7 3.16-7 7.053v0.28c0 1.967-1.487 3.607-3.467 4.007-0.673 0.067-1.2 0.633-1.2 1.327 0 0.347 0.133 0.66 0.353 0.893 1.614 1.387 4.053 2.113 7.647 2.367 0.107 0 0.207 0.007 0.3 0.019 0.746 0.107 1.213 0.64 1.213 1.387 0.001 0.853-0.639 1.4-1.467 1.5z"></path>
</svg>
