<?xml version="1.0" encoding="utf-8"?>
<!-- Generated by IcoMoon.io -->
<!DOCTYPE svg PUBLIC "-//W3C//DTD SVG 1.1//EN" "http://www.w3.org/Graphics/SVG/1.1/DTD/svg11.dtd">
<svg version="1.1" xmlns="http://www.w3.org/2000/svg" xmlns:xlink="http://www.w3.org/1999/xlink" width="32" height="32" viewBox="0 0 32 32">
<path d="M7.92 22.667l8.473 8.28c0.24 0.24 0.573 0.387 0.94 0.387 0.733 0 1.333-0.594 1.333-1.32l0-28.027c0-0.727-0.6-1.32-1.333-1.32-0.374 0-0.713 0.153-0.954 0.4l-8.453 8.267h-5.26c-1.473 0-2.667 1.193-2.667 2.667v8c0 1.473 1.193 2.667 2.667 2.667h5.253zM26.167 7.813c-0.64 0.633-0.64 1.667 0 2.307 1.587 1.593 2.573 3.787 2.573 6.213s-0.993 4.62-2.579 6.213c-0.641 0.64-0.641 1.673 0 2.307 0.633 0.64 1.667 0.64 2.307 0 2.18-2.18 3.533-5.193 3.533-8.52 0-3.32-1.34-6.327-3.513-8.507l-0.014-0.013c-0.639-0.64-1.666-0.64-2.306 0zM24.787 21.167c1.233-1.239 1.993-2.947 1.993-4.833s-0.761-3.593-1.993-4.833c-0.64-0.64-1.673-0.64-2.307 0-0.64 0.633-0.64 1.667 0 2.307 0.64 0.647 1.040 1.54 1.040 2.527s-0.4 1.88-1.040 2.527c-0.64 0.64-0.64 1.667 0 2.307 0.633 0.633 1.667 0.64 2.307-0z"></path>
</svg>
