<?xml version="1.0" encoding="utf-8"?>
<!-- Generated by IcoMoon.io -->
<!DOCTYPE svg PUBLIC "-//W3C//DTD SVG 1.1//EN" "http://www.w3.org/Graphics/SVG/1.1/DTD/svg11.dtd">
<svg version="1.1" xmlns="http://www.w3.org/2000/svg" xmlns:xlink="http://www.w3.org/1999/xlink" width="32" height="32" viewBox="0 0 32 32">
<path d="M15.669 11.332c-0.92 0-1.667 0.747-1.667 1.667s0.747 1.667 1.667 1.667h6.667c0.919 0 1.667-0.747 1.667-1.667s-0.747-1.667-1.667-1.667h-6.667zM1.442 26.812c-1.034 1.033-1.034 2.713 0 3.746 1.033 1.034 2.713 1.034 3.739 0l7.66-7.653c1.787 1.115 3.894 1.761 6.161 1.761 6.447 0 11.667-5.22 11.667-11.667s-5.22-11.667-11.667-11.667c-6.447 0-11.667 5.22-11.667 11.667 0 2.26 0.647 4.373 1.76 6.16l-7.653 7.653zM10.669 12.999c0-4.6 3.733-8.333 8.334-8.333s8.333 3.733 8.333 8.333-3.733 8.333-8.333 8.333c-4.601-0.001-8.334-3.734-8.334-8.333z"></path>
</svg>
