<?xml version="1.0" encoding="utf-8"?>
<!-- Generated by IcoMoon.io -->
<!DOCTYPE svg PUBLIC "-//W3C//DTD SVG 1.1//EN" "http://www.w3.org/Graphics/SVG/1.1/DTD/svg11.dtd">
<svg version="1.1" xmlns="http://www.w3.org/2000/svg" xmlns:xlink="http://www.w3.org/1999/xlink" width="32" height="32" viewBox="0 0 32 32">
<path d="M8.37 20.701c0.006 0.018 0.164 0.445 0.252 0.662 0.492 1.166 1.201 2.22 2.103 3.122s1.951 1.611 3.122 2.103c1.213 0.51 2.496 0.773 3.82 0.773s2.613-0.258 3.82-0.773c1.172-0.492 2.22-1.201 3.122-2.103s1.611-1.951 2.103-3.122c0.51-1.213 0.773-2.496 0.773-3.82s-0.258-2.613-0.773-3.82c-0.492-1.172-1.201-2.22-2.103-3.122s-1.951-1.611-3.122-2.103c-1.213-0.51-2.496-0.773-3.82-0.773-1.342 0-2.683 0.269-3.872 0.773-0.955 0.404-2.572 1.441-3.515 2.419l-0.006 0.006v-8.084h13.574c0.492-0.006 0.492-0.697 0.492-0.92 0-0.228 0-0.914-0.498-0.92h-14.675c-0.398 0-0.644 0.334-0.644 0.639v11.371c0 0.369 0.457 0.633 0.885 0.721 0.832 0.176 1.019-0.088 1.224-0.369l0.029-0.035c0.31-0.463 1.277-1.435 1.289-1.447 1.511-1.511 3.533-2.343 5.694-2.343 2.15 0 4.165 0.832 5.677 2.343 1.517 1.517 2.355 3.527 2.355 5.659 0 2.138-0.832 4.153-2.343 5.659-1.488 1.488-3.573 2.343-5.712 2.343-1.447 0-2.847-0.387-4.048-1.119l0.006-6.913c0-0.92 0.398-1.927 1.072-2.683 0.767-0.867 1.822-1.342 2.976-1.342 1.113 0 2.156 0.422 2.935 1.189 0.767 0.762 1.195 1.781 1.195 2.865 0 2.308-1.816 4.118-4.136 4.118-0.445 0-1.26-0.199-1.295-0.205-0.469-0.141-0.668 0.51-0.732 0.726-0.252 0.826 0.129 0.99 0.205 1.013 0.744 0.234 1.236 0.275 1.88 0.275 3.275 0 5.94-2.666 5.94-5.94 0-3.251-2.666-5.893-5.934-5.893-1.605 0-3.111 0.615-4.241 1.722-1.078 1.060-1.693 2.472-1.693 3.878v0.035c-0.006 0.176-0.006 4.323-0.012 5.682l-0.006-0.006c-0.615-0.68-1.224-1.722-1.629-2.788-0.158-0.416-0.516-0.346-1.002-0.193-0.234 0.064-0.879 0.264-0.732 0.738v0zM15.347 19.078c0 0.199 0.182 0.375 0.293 0.475l0.035 0.035c0.187 0.182 0.363 0.275 0.527 0.275 0.135 0 0.217-0.064 0.246-0.094 0.082-0.076 1.008-1.019 1.101-1.107l1.037 1.031c0.094 0.105 0.199 0.164 0.322 0.164 0.164 0 0.346-0.1 0.533-0.293 0.445-0.457 0.223-0.703 0.117-0.82l-1.049-1.049 1.096-1.101c0.24-0.258 0.029-0.533-0.182-0.744-0.305-0.305-0.603-0.387-0.791-0.211l-1.090 1.090-1.101-1.101c-0.059-0.059-0.135-0.088-0.211-0.088-0.146 0-0.322 0.1-0.516 0.293-0.34 0.34-0.41 0.574-0.234 0.762l1.101 1.096-1.095 1.096c-0.1 0.094-0.146 0.193-0.141 0.293zM17.743 4.21c-1.757 0-3.632 0.357-5.003 0.949-0.146 0.059-0.234 0.176-0.252 0.34-0.018 0.158 0.023 0.363 0.129 0.633 0.088 0.217 0.31 0.797 0.75 0.627 1.406-0.539 2.964-0.832 4.376-0.832 1.605 0 3.163 0.316 4.628 0.931 1.166 0.492 2.261 1.207 3.456 2.238 0.088 0.076 0.182 0.111 0.275 0.111 0.234 0 0.457-0.228 0.65-0.445 0.316-0.357 0.539-0.656 0.223-0.955-1.142-1.078-2.39-1.886-3.937-2.542-1.675-0.697-3.462-1.054-5.296-1.054zM27.216 25.927v0c-0.211-0.211-0.392-0.334-0.551-0.381s-0.305-0.012-0.416 0.1l-0.105 0.105c-1.090 1.090-2.361 1.945-3.773 2.542-1.465 0.621-3.017 0.931-4.616 0.931-1.605 0-3.158-0.316-4.616-0.931-1.412-0.598-2.683-1.453-3.773-2.542-1.136-1.137-1.992-2.408-2.542-3.773-0.539-1.336-0.715-2.337-0.773-2.666-0.006-0.029-0.012-0.053-0.012-0.070-0.076-0.387-0.434-0.416-0.943-0.334-0.211 0.035-0.861 0.135-0.803 0.598v0.012c0.17 1.084 0.475 2.144 0.902 3.152 0.685 1.623 1.67 3.081 2.923 4.335s2.712 2.232 4.335 2.923c1.681 0.709 3.468 1.072 5.308 1.072s3.626-0.363 5.308-1.072c1.623-0.685 3.081-1.67 4.335-2.923 0 0 0.070-0.070 0.111-0.111 0.129-0.158 0.252-0.422-0.299-0.967z"></path>
</svg>
