<?xml version="1.0" encoding="utf-8"?>
<!-- Generated by IcoMoon.io -->
<!DOCTYPE svg PUBLIC "-//W3C//DTD SVG 1.1//EN" "http://www.w3.org/Graphics/SVG/1.1/DTD/svg11.dtd">
<svg version="1.1" xmlns="http://www.w3.org/2000/svg" xmlns:xlink="http://www.w3.org/1999/xlink" width="32" height="32" viewBox="0 0 32 32">
<path d="M6.625 1v30h22.5v-30h-22.5zM17.875 8.51c2.066 0 3.74 1.675 3.74 3.74s-1.675 3.74-3.74 3.74-3.74-1.675-3.74-3.74 1.675-3.74 3.74-3.74v0zM23.5 23.5h-11.25v-1.875c0-2.071 1.679-3.75 3.75-3.75v0h3.75c2.071 0 3.75 1.679 3.75 3.75v1.875z"></path>
<path d="M2.875 2.875h2.813v5.625h-2.813v-5.625z"></path>
<path d="M2.875 10.375h2.813v5.625h-2.813v-5.625z"></path>
<path d="M2.875 17.875h2.813v5.625h-2.813v-5.625z"></path>
<path d="M2.875 25.375h2.813v5.625h-2.813v-5.625z"></path>
</svg>
