<?xml version="1.0" encoding="utf-8"?>
<!-- Generated by IcoMoon.io -->
<!DOCTYPE svg PUBLIC "-//W3C//DTD SVG 1.1//EN" "http://www.w3.org/Graphics/SVG/1.1/DTD/svg11.dtd">
<svg version="1.1" xmlns="http://www.w3.org/2000/svg" xmlns:xlink="http://www.w3.org/1999/xlink" width="32" height="32" viewBox="0 0 32 32">
<path d="M27.2 7.6h-5.6v-3.733c0-1.027-0.84-1.867-1.867-1.867h-7.467c-1.027 0-1.867 0.84-1.867 1.867v3.733h-5.6c-2.053 0-3.733 1.68-3.733 3.733v14.933c0 2.053 1.68 3.733 3.733 3.733h22.4c2.053 0 3.733-1.68 3.733-3.733v-14.933c0-2.053-1.68-3.733-3.733-3.733zM12.267 3.867h7.467v3.733h-7.467v-3.733zM23.467 20.667h-5.6v5.6h-3.733v-5.6h-5.6v-3.733h5.6v-5.6h3.733v5.6h5.6v3.733z"></path>
</svg>
