<?xml version="1.0" encoding="utf-8"?>
<!-- Generated by IcoMoon.io -->
<!DOCTYPE svg PUBLIC "-//W3C//DTD SVG 1.1//EN" "http://www.w3.org/Graphics/SVG/1.1/DTD/svg11.dtd">
<svg version="1.1" xmlns="http://www.w3.org/2000/svg" xmlns:xlink="http://www.w3.org/1999/xlink" width="32" height="32" viewBox="0 0 32 32">
<path d="M16 4.75c-7.249 0-13.125 5.876-13.125 13.125s5.876 13.125 13.125 13.125 13.125-5.876 13.125-13.125-5.876-13.125-13.125-13.125zM16 28.422c-5.825 0-10.547-4.722-10.547-10.547s4.722-10.547 10.547-10.547c5.825 0 10.547 4.722 10.547 10.547s-4.722 10.547-10.547 10.547zM28.386 9.413c0.47-0.822 0.739-1.774 0.739-2.788 0-3.107-2.518-5.625-5.625-5.625-1.811 0-3.422 0.856-4.451 2.185 3.864 0.798 7.184 3.082 9.337 6.228v0zM12.951 3.185c-1.029-1.329-2.64-2.185-4.451-2.185-3.107 0-5.625 2.518-5.625 5.625 0 1.015 0.269 1.966 0.739 2.788 2.153-3.146 5.473-5.43 9.337-6.228z"></path>
<path d="M16 17.875v-7.5h-1.875v9.375h7.5v-1.875z"></path>
</svg>
