<?xml version="1.0" encoding="utf-8"?>
<!-- Generated by IcoMoon.io -->
<!DOCTYPE svg PUBLIC "-//W3C//DTD SVG 1.1//EN" "http://www.w3.org/Graphics/SVG/1.1/DTD/svg11.dtd">
<svg version="1.1" xmlns="http://www.w3.org/2000/svg" xmlns:xlink="http://www.w3.org/1999/xlink" width="32" height="32" viewBox="0 0 32 32">
<path d="M27.838 25.969c-3.222 2.377-7.885 3.641-11.904 3.641-5.633 0-10.704-2.079-14.54-5.547-0.299-0.27-0.034-0.643 0.327-0.431 4.14 2.412 9.263 3.859 14.552 3.859 3.566 0 7.488-0.741 11.1-2.274 0.54-0.23 0.999 0.362 0.465 0.752z"></path>
<path d="M29.176 24.442c-0.413-0.528-2.722-0.253-3.761-0.126-0.316 0.034-0.362-0.235-0.080-0.436 1.843-1.292 4.864-0.919 5.214-0.488 0.356 0.436-0.092 3.463-1.82 4.91-0.264 0.224-0.517 0.103-0.402-0.189 0.396-0.971 1.263-3.141 0.85-3.669z"></path>
<path d="M21.573 22.305l0.006 0.006c0.712-0.626 1.993-1.746 2.716-2.349 0.287-0.23 0.235-0.614 0.012-0.936-0.649-0.896-1.338-1.625-1.338-3.279v-5.513c0-2.337 0.161-4.479-1.556-6.087-1.355-1.298-3.606-1.757-5.329-1.757-3.365 0-7.121 1.258-7.908 5.415-0.086 0.442 0.241 0.678 0.528 0.741l3.428 0.373c0.322-0.017 0.551-0.333 0.614-0.655 0.293-1.43 1.493-2.125 2.843-2.125 0.729 0 1.556 0.264 1.987 0.919 0.494 0.729 0.431 1.723 0.431 2.567v0.459c-2.050 0.23-4.732 0.379-6.65 1.223-2.217 0.959-3.773 2.911-3.773 5.783 0 3.675 2.314 5.513 5.295 5.513 2.515 0 3.888-0.591 5.829-2.578 0.643 0.93 0.85 1.384 2.027 2.36 0.27 0.144 0.603 0.132 0.838-0.080zM18.007 13.68c0 1.378 0.034 2.527-0.66 3.75-0.563 0.999-1.453 1.608-2.446 1.608-1.355 0-2.148-1.034-2.148-2.561 0-3.015 2.705-3.56 5.26-3.56v0.764z"></path>
</svg>
