<?xml version="1.0" encoding="utf-8"?>
<!-- Generated by IcoMoon.io -->
<!DOCTYPE svg PUBLIC "-//W3C//DTD SVG 1.1//EN" "http://www.w3.org/Graphics/SVG/1.1/DTD/svg11.dtd">
<svg version="1.1" xmlns="http://www.w3.org/2000/svg" xmlns:xlink="http://www.w3.org/1999/xlink" width="32" height="32" viewBox="0 0 32 32">
<path d="M27.201 12.332c-1.027 0-1.867 0.84-1.867 1.867v7.467c0 1.027 0.84 1.867 1.867 1.867s1.867-0.84 1.867-1.867v-7.467c0-1.027-0.84-1.867-1.867-1.867zM4.8 12.332c-1.027 0-1.867 0.84-1.867 1.867v7.467c0 1.027 0.84 1.867 1.867 1.867s1.867-0.84 1.867-1.867v-7.467c0-1.027-0.84-1.867-1.867-1.867zM7.6 22.6c0 1.546 1.254 2.8 2.8 2.8v0 3.733c0 1.027 0.84 1.867 1.867 1.867s1.867-0.84 1.867-1.867v-3.733h3.734v3.733c0 1.027 0.84 1.867 1.867 1.867s1.867-0.84 1.867-1.867v-3.733c1.546 0 2.8-1.254 2.8-2.8v-10.267h-16.801v10.267z"></path>
<path d="M24.348 10.466c-0.283-2.563-1.721-4.777-3.781-6.115l0.934-1.868c0.231-0.461 0.044-1.022-0.417-1.252s-1.022-0.044-1.252 0.417l-0.938 1.875-0.244-0.097c-0.833-0.277-1.724-0.428-2.651-0.428s-1.818 0.15-2.651 0.428l-0.243 0.097-0.938-1.875c-0.231-0.461-0.791-0.648-1.252-0.417s-0.648 0.791-0.417 1.252l0.934 1.868c-2.060 1.337-3.497 3.552-3.781 6.115v0.933h16.749v-0.933h-0.052zM13.2 8.599c-0.515 0-0.933-0.418-0.933-0.933s0.417-0.932 0.931-0.933c0.001 0 0.002 0 0.003 0s0.001-0 0.002-0c0.514 0.001 0.931 0.419 0.931 0.933s-0.418 0.933-0.933 0.933zM18.8 8.599c-0.515 0-0.933-0.418-0.933-0.933s0.417-0.932 0.931-0.933c0 0 0.001 0 0.001 0s0.002-0 0.003-0c0.514 0.001 0.931 0.418 0.931 0.933s-0.418 0.933-0.933 0.933z"></path>
</svg>
