<?xml version="1.0" encoding="utf-8"?>
<!-- Generated by IcoMoon.io -->
<!DOCTYPE svg PUBLIC "-//W3C//DTD SVG 1.1//EN" "http://www.w3.org/Graphics/SVG/1.1/DTD/svg11.dtd">
<svg version="1.1" xmlns="http://www.w3.org/2000/svg" xmlns:xlink="http://www.w3.org/1999/xlink" width="32" height="32" viewBox="0 0 32 32">
<path d="M16 31c8.284 0 15-6.716 15-15s-6.716-15-15-15-15 6.716-15 15 6.716 15 15 15zM16 3.813c6.731 0 12.188 5.457 12.188 12.188s-5.457 12.188-12.188 12.188-12.188-5.457-12.188-12.188 5.457-12.188 12.188-12.188zM21.628 23.873c-1.148-1.909-3.239-3.186-5.628-3.186s-4.48 1.277-5.628 3.186l-2.412-1.447c1.639-2.727 4.626-4.551 8.040-4.551s6.4 1.824 8.040 4.551l-2.412 1.447zM23.472 9.21c0.125 0.502-0.18 1.011-0.682 1.137-0.516 0.13-1.129 0.355-1.668 0.626 0.312 0.335 0.503 0.784 0.503 1.278 0 1.036-0.839 1.875-1.875 1.875s-1.875-0.839-1.875-1.875c0-0.034 0.001-0.068 0.003-0.102 0.060-1.39 1.325-2.313 2.39-2.846 1.018-0.509 2.024-0.763 2.067-0.774 0.502-0.126 1.011 0.18 1.137 0.682zM8.528 9.21c0.126-0.502 0.635-0.808 1.137-0.682 0.042 0.011 1.049 0.265 2.067 0.774 1.066 0.533 2.331 1.456 2.39 2.846 0.002 0.034 0.003 0.068 0.003 0.102 0 1.036-0.839 1.875-1.875 1.875s-1.875-0.839-1.875-1.875c0-0.494 0.191-0.943 0.503-1.278-0.539-0.27-1.152-0.495-1.668-0.626-0.502-0.126-0.808-0.635-0.682-1.137z"></path>
</svg>
