<?xml version="1.0" encoding="utf-8"?>
<!-- Generated by IcoMoon.io -->
<!DOCTYPE svg PUBLIC "-//W3C//DTD SVG 1.1//EN" "http://www.w3.org/Graphics/SVG/1.1/DTD/svg11.dtd">
<svg version="1.1" xmlns="http://www.w3.org/2000/svg" xmlns:xlink="http://www.w3.org/1999/xlink" width="32" height="32" viewBox="0 0 32 32">
<path d="M24.862 16.902c-0.038-3.79 3.091-5.608 3.231-5.698-1.758-2.573-4.497-2.925-5.473-2.966-2.331-0.236-4.548 1.372-5.73 1.372-1.18 0-3.005-1.337-4.938-1.302-2.54 0.038-4.883 1.477-6.191 3.752-2.639 4.58-0.676 11.365 1.897 15.079 1.257 1.818 2.756 3.86 4.724 3.787 1.895-0.076 2.612-1.226 4.903-1.226s2.935 1.226 4.941 1.189c2.039-0.038 3.331-1.853 4.58-3.677 1.444-2.109 2.038-4.151 2.073-4.256-0.045-0.021-3.977-1.527-4.016-6.054zM21.094 5.779c1.045-1.267 1.75-3.025 1.557-4.779-1.505 0.061-3.328 1.002-4.408 2.267-0.969 1.122-1.816 2.912-1.589 4.631 1.68 0.131 3.394-0.854 4.44-2.118z"></path>
</svg>
