<?xml version="1.0" encoding="utf-8"?>
<!-- Generated by IcoMoon.io -->
<!DOCTYPE svg PUBLIC "-//W3C//DTD SVG 1.1//EN" "http://www.w3.org/Graphics/SVG/1.1/DTD/svg11.dtd">
<svg version="1.1" xmlns="http://www.w3.org/2000/svg" xmlns:xlink="http://www.w3.org/1999/xlink" width="32" height="32" viewBox="0 0 32 32">
<path d="M26.646 1.968l-20.565 20.565v-8.892c0-1.37-1.11-2.48-2.48-2.48s-2.48 1.11-2.48 2.48v14.879c0 1.003 0.604 1.907 1.531 2.291 0.307 0.127 0.629 0.188 0.949 0.187v0.001l14.879-0c1.369 0 2.48-1.11 2.48-2.48s-1.11-2.48-2.48-2.48h-8.892l20.565-20.565c0.484-0.484 0.726-1.119 0.726-1.754s-0.242-1.269-0.726-1.753c-0.968-0.968-2.539-0.968-3.507 0v0z"></path>
</svg>
