<?xml version="1.0" encoding="utf-8"?>
<!-- Generated by IcoMoon.io -->
<!DOCTYPE svg PUBLIC "-//W3C//DTD SVG 1.1//EN" "http://www.w3.org/Graphics/SVG/1.1/DTD/svg11.dtd">
<svg version="1.1" xmlns="http://www.w3.org/2000/svg" xmlns:xlink="http://www.w3.org/1999/xlink" width="32" height="32" viewBox="0 0 32 32">
<path d="M30.024 26.64l-20.554-20.554h8.887c1.369 0 2.479-1.11 2.479-2.478s-1.11-2.478-2.479-2.478h-14.871c-1.002 0-1.906 0.604-2.29 1.53-0.127 0.307-0.187 0.629-0.187 0.948h-0.001v14.871c0 1.369 1.11 2.479 2.479 2.479s2.479-1.11 2.479-2.479v-8.887l20.554 20.554c0.484 0.484 1.118 0.726 1.753 0.726s1.269-0.242 1.753-0.726c0.968-0.968 0.968-2.537 0-3.505z"></path>
</svg>
