<?xml version="1.0" encoding="utf-8"?>
<!-- Generated by IcoMoon.io -->
<!DOCTYPE svg PUBLIC "-//W3C//DTD SVG 1.1//EN" "http://www.w3.org/Graphics/SVG/1.1/DTD/svg11.dtd">
<svg version="1.1" xmlns="http://www.w3.org/2000/svg" xmlns:xlink="http://www.w3.org/1999/xlink" width="32" height="32" viewBox="0 0 32 32">
<path d="M21.296 10.728l-1.808-1.807-9.042 9.040c-1.498 1.497-1.498 3.926 0 5.424s3.927 1.497 5.425 0l10.85-10.848c2.497-2.496 2.497-6.543 0-9.040-2.496-2.497-6.545-2.497-9.041 0l-11.392 11.39c-0.008 0.008-0.017 0.016-0.024 0.024-3.482 3.482-3.482 9.127 0 12.608 3.481 3.481 9.127 3.481 12.61 0 0.008-0.008 0.014-0.016 0.023-0.024l0.001 0.001 7.776-7.775-1.809-1.807-7.776 7.774c-0.008 0.007-0.016 0.016-0.024 0.023-2.48 2.479-6.513 2.479-8.994 0s-2.479-6.512 0-8.991c0.008-0.008 0.017-0.016 0.025-0.024l-0.001-0.002 11.393-11.39c1.495-1.496 3.929-1.496 5.425 0s1.495 3.929 0 5.424l-10.85 10.848c-0.499 0.499-1.31 0.499-1.809 0-0.498-0.498-0.498-1.309 0-1.807l9.042-9.041z"></path>
</svg>
