<?xml version="1.0" encoding="utf-8"?>
<!-- Generated by IcoMoon.io -->
<!DOCTYPE svg PUBLIC "-//W3C//DTD SVG 1.1//EN" "http://www.w3.org/Graphics/SVG/1.1/DTD/svg11.dtd">
<svg version="1.1" xmlns="http://www.w3.org/2000/svg" xmlns:xlink="http://www.w3.org/1999/xlink" width="32" height="32" viewBox="0 0 32 32">
<path d="M16 31c8.284 0 15-6.716 15-15s-6.716-15-15-15-15 6.716-15 15 6.716 15 15 15zM16 3.813c6.731 0 12.188 5.457 12.188 12.188s-5.457 12.188-12.188 12.188-12.188-5.457-12.188-12.188 5.457-12.188 12.188-12.188z"></path>
<path d="M12.25 13.188c0 0.518-0.42 0.938-0.938 0.938s-0.938-0.42-0.938-0.938c0-0.518 0.42-0.938 0.938-0.938s0.938 0.42 0.938 0.938z"></path>
<path d="M11.313 10.375c1.553 0 2.813 1.259 2.813 2.813s-1.259 2.813-2.813 2.813-2.813-1.259-2.813-2.813 1.259-2.813 2.813-2.813zM11.313 8.5c-2.585 0-4.688 2.103-4.688 4.688s2.103 4.688 4.688 4.688 4.688-2.103 4.688-4.688-2.103-4.688-4.688-4.688v0z"></path>
<path d="M21.625 13.188c0 0.518-0.42 0.938-0.938 0.938s-0.938-0.42-0.938-0.938c0-0.518 0.42-0.938 0.938-0.938s0.938 0.42 0.938 0.938z"></path>
<path d="M20.688 10.375c1.553 0 2.813 1.259 2.813 2.813s-1.259 2.813-2.813 2.813-2.813-1.259-2.813-2.813 1.259-2.813 2.813-2.813zM20.688 8.5c-2.585 0-4.688 2.103-4.688 4.688s2.103 4.688 4.688 4.688 4.688-2.103 4.688-4.688-2.103-4.688-4.688-4.688v0z"></path>
<path d="M12.25 21.625h7.5v1.875h-7.5v-1.875z"></path>
</svg>
