<?xml version="1.0" encoding="utf-8"?>
<!-- Generated by IcoMoon.io -->
<!DOCTYPE svg PUBLIC "-//W3C//DTD SVG 1.1//EN" "http://www.w3.org/Graphics/SVG/1.1/DTD/svg11.dtd">
<svg version="1.1" xmlns="http://www.w3.org/2000/svg" xmlns:xlink="http://www.w3.org/1999/xlink" width="32" height="32" viewBox="0 0 32 32">
<path d="M12.25 13.188c0 0.518-0.42 0.938-0.938 0.938s-0.938-0.42-0.938-0.938 0.42-0.938 0.938-0.938 0.938 0.42 0.938 0.938z"></path>
<path d="M21.625 13.188c0 0.518-0.42 0.938-0.938 0.938s-0.938-0.42-0.938-0.938 0.42-0.938 0.938-0.938 0.938 0.42 0.938 0.938z"></path>
<path d="M16 1c-8.284 0-15 6.716-15 15s6.716 15 15 15 15-6.716 15-15-6.716-15-15-15zM8.5 13.188c0-1.553 1.259-2.813 2.813-2.813s2.813 1.259 2.813 2.813-1.259 2.813-2.813 2.813-2.813-1.259-2.813-2.813zM19.75 23.5h-7.5v-1.875h7.5v1.875zM20.688 16c-1.553 0-2.813-1.259-2.813-2.813s1.259-2.813 2.813-2.813 2.813 1.259 2.813 2.813-1.259 2.813-2.813 2.813z"></path>
</svg>
