<?xml version="1.0" encoding="utf-8"?>
<!-- Generated by IcoMoon.io -->
<!DOCTYPE svg PUBLIC "-//W3C//DTD SVG 1.1//EN" "http://www.w3.org/Graphics/SVG/1.1/DTD/svg11.dtd">
<svg version="1.1" xmlns="http://www.w3.org/2000/svg" xmlns:xlink="http://www.w3.org/1999/xlink" width="32" height="32" viewBox="0 0 32 32">
<path d="M1.333 5h3.667v18.333h-3.667zM6.833 5h1.833v18.333h-1.833zM10.5 5h1.833v18.333h-1.833zM16 5h1.833v18.333h-1.833zM23.333 5h1.833v18.333h-1.833zM28.833 5h1.833v18.333h-1.833zM19.667 5h0.917v18.333h-0.917zM14.167 5h0.917v18.333h-0.917zM26.083 5h0.917v18.333h-0.917zM1.333 25.167h1.833v1.833h-1.833zM6.833 25.167h1.833v1.833h-1.833zM10.5 25.167h1.833v1.833h-1.833zM19.667 25.167h1.833v1.833h-1.833zM28.833 25.167h1.833v1.833h-1.833zM23.333 25.167h3.667v1.833h-3.667zM14.167 25.167h3.667v1.833h-3.667z"></path>
</svg>
