<?xml version="1.0" encoding="utf-8"?>
<!-- Generated by IcoMoon.io -->
<!DOCTYPE svg PUBLIC "-//W3C//DTD SVG 1.1//EN" "http://www.w3.org/Graphics/SVG/1.1/DTD/svg11.dtd">
<svg version="1.1" xmlns="http://www.w3.org/2000/svg" xmlns:xlink="http://www.w3.org/1999/xlink" width="32" height="32" viewBox="0 0 32 32">
<path d="M15.963 3.653c-5.386 0-9.539 4.51-11.892 8.927-1.326 2.486-2.255 5.208-2.682 7.993-0.046 0.317-0.092 0.634-0.127 0.957-0.017 0.173-0.035 0.346-0.046 0.519-0.017 0.219-0.006 0.288 0.11 0.473 0.346 0.559 0.756 1.078 1.217 1.546 0.946 0.969 2.093 1.713 3.31 2.29 2.774 1.309 5.905 1.782 8.951 1.886 3.143 0.104 6.373-0.156 9.377-1.136 2.566-0.836 5.040-2.295 6.465-4.654 0.156-0.254 0.046-0.629 0.017-0.923-0.035-0.352-0.081-0.698-0.138-1.044-0.104-0.68-0.242-1.349-0.409-2.018-0.334-1.361-0.79-2.699-1.344-3.985-2.007-4.66-5.721-9.631-11.004-10.658-0.594-0.115-1.2-0.173-1.805-0.173zM16.147 26.248c-3.293 0-6.88-0.294-9.844-1.88-1.153-0.617-2.33-1.511-2.884-2.739-0.161-0.358-0.104-0.496-0.029-0.917 0.052-0.271 0.075-0.536 0.196-0.79 0.167-0.352 0.34-0.698 0.519-1.044 0.606-1.171 1.257-2.33 2.013-3.42 0.375-0.536 0.773-1.067 1.234-1.528 0.323-0.323 0.715-0.669 1.171-0.779 1.396-0.335 2.463 1.28 3.31 2.093 0.409 0.392 0.957 0.836 1.569 0.761 0.421-0.052 0.796-0.381 1.096-0.652 1.021-0.917 1.84-2.053 2.687-3.12 0.421-0.525 0.836-1.055 1.292-1.557 0.306-0.34 0.64-0.727 1.050-0.946 0.732-0.398 1.667 0.421 2.174 0.842 0.865 0.721 1.632 1.563 2.364 2.416 0.698 0.813 1.373 1.638 1.967 2.532 0.917 1.384 1.713 2.86 2.439 4.354 0.156 0.323 0.208 0.542 0.265 0.9 0.035 0.196 0.11 0.421 0.081 0.623-0.040 0.283-0.236 0.588-0.381 0.819-0.346 0.548-0.813 1.021-1.326 1.419-2.151 1.667-5.064 2.22-7.711 2.468-1.084 0.104-2.168 0.144-3.253 0.144z"></path>
</svg>
