<?xml version="1.0" encoding="utf-8"?>
<!-- Generated by IcoMoon.io -->
<!DOCTYPE svg PUBLIC "-//W3C//DTD SVG 1.1//EN" "http://www.w3.org/Graphics/SVG/1.1/DTD/svg11.dtd">
<svg version="1.1" xmlns="http://www.w3.org/2000/svg" xmlns:xlink="http://www.w3.org/1999/xlink" width="32" height="32" viewBox="0 0 32 32">
<path d="M9.938 6.993c0.848 0 1.612 0.073 2.308 0.225 0.696 0.146 1.286 0.393 1.786 0.73 0.494 0.337 0.876 0.786 1.157 1.348 0.27 0.556 0.404 1.252 0.404 2.078 0 0.893-0.202 1.634-0.606 2.229-0.41 0.595-1.005 1.078-1.803 1.46 1.089 0.314 1.892 0.865 2.432 1.645 0.539 0.786 0.797 1.73 0.797 2.841 0 0.898-0.174 1.668-0.517 2.319-0.348 0.657-0.82 1.191-1.398 1.6-0.584 0.416-1.258 0.719-2.010 0.915-0.747 0.197-1.516 0.298-2.314 0.298h-8.575v-17.689h8.339zM9.433 14.136c0.691 0 1.264-0.163 1.713-0.494 0.449-0.326 0.663-0.865 0.663-1.606 0-0.41-0.073-0.752-0.219-1.016-0.152-0.264-0.348-0.472-0.601-0.618-0.247-0.152-0.528-0.253-0.859-0.309-0.32-0.062-0.657-0.090-1-0.090h-3.639v4.133h3.942zM9.646 21.666c0.382 0 0.747-0.034 1.089-0.112 0.348-0.079 0.657-0.197 0.915-0.376 0.258-0.174 0.477-0.404 0.635-0.708 0.157-0.298 0.23-0.68 0.23-1.146 0-0.91-0.258-1.561-0.769-1.954-0.511-0.387-1.191-0.578-2.033-0.578h-4.223v4.869h4.156z"></path>
<path d="M21.961 21.604c0.528 0.517 1.286 0.775 2.274 0.775 0.708 0 1.325-0.18 1.836-0.539s0.82-0.741 0.938-1.134h3.1c-0.5 1.544-1.252 2.639-2.286 3.302-1.016 0.663-2.263 1-3.706 1-1.011 0-1.915-0.163-2.729-0.483-0.814-0.326-1.494-0.781-2.067-1.376-0.556-0.595-0.994-1.303-1.303-2.134-0.303-0.825-0.46-1.741-0.46-2.729 0-0.96 0.157-1.853 0.472-2.679 0.32-0.831 0.758-1.544 1.342-2.145s1.269-1.078 2.078-1.426c0.803-0.348 1.69-0.522 2.673-0.522 1.084 0 2.033 0.208 2.847 0.635 0.809 0.421 1.477 0.988 1.999 1.696s0.893 1.522 1.123 2.432c0.23 0.91 0.309 1.859 0.247 2.853h-9.249c0 1.005 0.337 1.965 0.87 2.476zM25.999 14.877c-0.416-0.46-1.129-0.713-1.988-0.713-0.562 0-1.028 0.095-1.398 0.286-0.365 0.191-0.663 0.427-0.893 0.708-0.225 0.281-0.382 0.584-0.472 0.904-0.090 0.309-0.146 0.595-0.163 0.842h5.728c-0.084-0.898-0.393-1.561-0.814-2.027z"></path>
<path d="M20.366 8.419h7.171v1.746h-7.171v-1.746z"></path>
</svg>
