<?xml version="1.0" encoding="utf-8"?>
<!-- Generated by IcoMoon.io -->
<!DOCTYPE svg PUBLIC "-//W3C//DTD SVG 1.1//EN" "http://www.w3.org/Graphics/SVG/1.1/DTD/svg11.dtd">
<svg version="1.1" xmlns="http://www.w3.org/2000/svg" xmlns:xlink="http://www.w3.org/1999/xlink" width="32" height="32" viewBox="0 0 32 32">
<path d="M12.842 14.143c0.381-0.275 0.563-0.732 0.563-1.365 0-0.352-0.059-0.639-0.182-0.861-0.129-0.223-0.293-0.398-0.51-0.521-0.211-0.129-0.451-0.217-0.727-0.264-0.27-0.053-0.557-0.076-0.85-0.076h-3.088v3.504h3.34c0.586 0.006 1.072-0.135 1.453-0.416z"></path>
<path d="M13.363 17.307c-0.434-0.328-1.008-0.492-1.723-0.492h-3.592v4.131h3.521c0.328 0 0.633-0.029 0.926-0.094s0.557-0.164 0.779-0.316c0.223-0.146 0.404-0.346 0.539-0.598s0.199-0.58 0.199-0.973c0-0.773-0.217-1.324-0.65-1.658z"></path>
<path d="M28.188 1h-24.375c-1.547 0-2.813 1.266-2.813 2.813v24.375c0 1.547 1.266 2.813 2.813 2.813h24.375c1.547 0 2.813-1.266 2.813-2.813v-24.375c0-1.547-1.266-2.813-2.813-2.813zM20.664 8.893h6.076v1.482h-6.076v-1.482zM16.867 21.109c-0.293 0.557-0.691 1.008-1.184 1.359-0.498 0.352-1.066 0.609-1.705 0.779-0.633 0.17-1.289 0.252-1.957 0.252h-7.271v-14.994h7.066c0.715 0 1.365 0.064 1.957 0.188 0.586 0.123 1.090 0.334 1.512 0.621 0.416 0.287 0.744 0.668 0.979 1.143 0.229 0.469 0.346 1.061 0.346 1.758 0 0.756-0.17 1.383-0.516 1.887s-0.85 0.914-1.529 1.236c0.926 0.264 1.605 0.732 2.057 1.395 0.457 0.668 0.68 1.471 0.68 2.408 0.006 0.768-0.141 1.424-0.434 1.969zM29.107 18.789h-7.834c0 0.855 0.293 1.67 0.738 2.109 0.445 0.434 1.090 0.656 1.928 0.656 0.604 0 1.119-0.152 1.559-0.457 0.434-0.305 0.697-0.627 0.797-0.961h2.625c-0.422 1.307-1.061 2.238-1.934 2.801-0.861 0.563-1.916 0.844-3.141 0.844-0.855 0-1.623-0.141-2.314-0.41-0.691-0.275-1.266-0.662-1.752-1.166-0.475-0.504-0.838-1.107-1.102-1.811-0.258-0.697-0.393-1.477-0.393-2.314 0-0.814 0.135-1.57 0.398-2.273 0.27-0.703 0.645-1.313 1.137-1.816 0.492-0.51 1.078-0.914 1.758-1.213 0.68-0.293 1.43-0.439 2.262-0.439 0.92 0 1.723 0.176 2.414 0.539 0.686 0.357 1.248 0.838 1.693 1.441s0.756 1.289 0.955 2.063c0.193 0.762 0.258 1.564 0.205 2.408z"></path>
<path d="M23.752 14.588c-0.475 0-0.873 0.082-1.184 0.246s-0.563 0.363-0.756 0.598c-0.193 0.24-0.322 0.492-0.398 0.768-0.076 0.264-0.123 0.504-0.135 0.715h4.852c-0.070-0.762-0.334-1.324-0.686-1.717-0.363-0.398-0.961-0.609-1.693-0.609z"></path>
</svg>
