<?xml version="1.0" encoding="utf-8"?>
<!-- Generated by IcoMoon.io -->
<!DOCTYPE svg PUBLIC "-//W3C//DTD SVG 1.1//EN" "http://www.w3.org/Graphics/SVG/1.1/DTD/svg11.dtd">
<svg version="1.1" xmlns="http://www.w3.org/2000/svg" xmlns:xlink="http://www.w3.org/1999/xlink" width="32" height="32" viewBox="0 0 32 32">
<path d="M30.999 24.424c0-8.424-7.488-6.552-7.488-13.105 0-0.543-0.052-1.007-0.148-1.402-0.492-3.306-2.696-5.959-5.551-6.768 0.025-0.115 0.039-0.235 0.039-0.357 0-0.973-0.842-1.77-1.872-1.77s-1.872 0.796-1.872 1.77c0 0.122 0.013 0.242 0.039 0.357-3.202 0.907-5.584 4.133-5.653 7.998-0.001 0.056-0.002 0.113-0.002 0.171 0 6.552-7.488 4.68-7.488 13.105 0 2.23 4.99 4.095 11.67 4.566 0.63 1.182 1.874 1.987 3.306 1.987s2.677-0.805 3.306-1.987c6.68-0.47 11.67-2.336 11.67-4.566 0-0.007-0.001-0.013-0.001-0.020l0.045 0.020zM25.17 26.007c-1.586 0.423-3.456 0.728-5.463 0.896-0.167-1.914-1.772-3.415-3.729-3.415s-3.562 1.501-3.729 3.415c-2.007-0.169-3.877-0.473-5.463-0.896-2.183-0.582-3.227-1.234-3.609-1.582 0.382-0.348 1.426-1 3.609-1.582 2.538-0.677 5.803-1.050 9.192-1.050s6.654 0.373 9.192 1.050c2.183 0.582 3.227 1.234 3.609 1.582-0.382 0.348-1.426 1-3.609 1.582z"></path>
</svg>
