<?xml version="1.0" encoding="utf-8"?>
<!-- Generated by IcoMoon.io -->
<!DOCTYPE svg PUBLIC "-//W3C//DTD SVG 1.1//EN" "http://www.w3.org/Graphics/SVG/1.1/DTD/svg11.dtd">
<svg version="1.1" xmlns="http://www.w3.org/2000/svg" xmlns:xlink="http://www.w3.org/1999/xlink" width="32" height="32" viewBox="0 0 32 32">
<path d="M2.875 1h11.25v1.875h-11.25zM17.875 1h11.25v1.875h-11.25zM28.891 10.375h-1.641v-7.5h-7.5v7.5h-7.5v-7.5h-7.5v7.5h-1.641c-1.16 0-2.109 0.949-2.109 2.109v16.406c0 1.16 0.949 2.109 2.109 2.109h8.906c1.16 0 2.109-0.949 2.109-2.109v-11.016h3.75v11.016c0 1.16 0.949 2.109 2.109 2.109h8.906c1.16 0 2.109-0.949 2.109-2.109v-16.406c0-1.16-0.949-2.109-2.109-2.109zM11.195 29.125h-7.266c-0.58 0-1.055-0.422-1.055-0.938s0.475-0.938 1.055-0.938h7.266c0.58 0 1.055 0.422 1.055 0.938s-0.475 0.938-1.055 0.938zM16.938 16h-1.875c-0.516 0-0.938-0.422-0.938-0.938s0.422-0.938 0.938-0.938h1.875c0.516 0 0.938 0.422 0.938 0.938s-0.422 0.938-0.938 0.938zM28.070 29.125h-7.266c-0.58 0-1.055-0.422-1.055-0.938s0.475-0.938 1.055-0.938h7.266c0.58 0 1.055 0.422 1.055 0.938s-0.475 0.938-1.055 0.938z"></path>
</svg>
