<?xml version="1.0" encoding="utf-8"?>
<!-- Generated by IcoMoon.io -->
<!DOCTYPE svg PUBLIC "-//W3C//DTD SVG 1.1//EN" "http://www.w3.org/Graphics/SVG/1.1/DTD/svg11.dtd">
<svg version="1.1" xmlns="http://www.w3.org/2000/svg" xmlns:xlink="http://www.w3.org/1999/xlink" width="32" height="32" viewBox="0 0 32 32">
<path d="M12.25 1v2.813c2.153 0 4.24 0.421 6.203 1.251 1.898 0.803 3.602 1.952 5.067 3.417s2.614 3.169 3.417 5.067c0.83 1.963 1.251 4.050 1.251 6.203h2.813c0-10.355-8.395-18.75-18.75-18.75z"></path>
<path d="M12.25 6.625v2.813c2.755 0 5.344 1.073 7.292 3.020s3.020 4.537 3.020 7.292h2.813c0-7.249-5.876-13.125-13.125-13.125z"></path>
<path d="M15.063 12.25l-1.875 1.875-6.563 1.875-5.625 12.188 0.743 0.743 6.82-6.82c-0.041-0.155-0.064-0.318-0.064-0.485 0-1.036 0.839-1.875 1.875-1.875s1.875 0.839 1.875 1.875-0.839 1.875-1.875 1.875c-0.168 0-0.331-0.022-0.485-0.064l-6.82 6.82 0.743 0.743 12.188-5.625 1.875-6.563 1.875-1.875-4.688-4.688z"></path>
</svg>
