<?xml version="1.0" encoding="utf-8"?>
<!-- Generated by IcoMoon.io -->
<!DOCTYPE svg PUBLIC "-//W3C//DTD SVG 1.1//EN" "http://www.w3.org/Graphics/SVG/1.1/DTD/svg11.dtd">
<svg version="1.1" xmlns="http://www.w3.org/2000/svg" xmlns:xlink="http://www.w3.org/1999/xlink" width="32" height="32" viewBox="0 0 32 32">
<path d="M29.060 12.25h-1.682c-1.030 0-1.933-0.871-2.004-1.875v0c0-5.352-4.314-9.375-9.703-9.375h-4.917c-5.385 0-9.752 4.336-9.755 9.687v10.629c0 5.351 4.37 9.684 9.755 9.684h10.501c5.389 0 9.744-4.332 9.744-9.684v-6.867c0-1.069-0.863-2.2-1.94-2.2zM10.375 8.5h5.625c1.031 0 1.875 0.844 1.875 1.875s-0.844 1.875-1.875 1.875h-5.625c-1.031 0-1.875-0.844-1.875-1.875s0.844-1.875 1.875-1.875zM21.625 23.5h-11.25c-1.031 0-1.875-0.844-1.875-1.875s0.844-1.875 1.875-1.875h11.25c1.031 0 1.875 0.844 1.875 1.875s-0.844 1.875-1.875 1.875z"></path>
</svg>
