<?xml version="1.0" encoding="utf-8"?>
<!-- Generated by IcoMoon.io -->
<!DOCTYPE svg PUBLIC "-//W3C//DTD SVG 1.1//EN" "http://www.w3.org/Graphics/SVG/1.1/DTD/svg11.dtd">
<svg version="1.1" xmlns="http://www.w3.org/2000/svg" xmlns:xlink="http://www.w3.org/1999/xlink" width="32" height="32" viewBox="0 0 32 32">
<path d="M28.188 1h-24.375c-1.547 0-2.813 1.266-2.813 2.813v24.375c0 1.547 1.266 2.813 2.813 2.813h24.375c1.547 0 2.813-1.266 2.813-2.813v-24.375c0-1.547-1.266-2.813-2.813-2.813zM27.25 19.984c0 4.014-3.264 7.266-7.307 7.266h-7.875c-4.043 0-7.318-3.252-7.318-7.266v-7.969c0-4.014 3.275-7.266 7.318-7.266h3.686c4.043 0 7.277 3.018 7.277 7.031 0.053 0.75 0.732 1.406 1.5 1.406h1.26c0.809 0 1.453 0.85 1.453 1.652v5.145z"></path>
<path d="M21.625 19.75c0 1.031-0.844 1.875-1.875 1.875h-7.5c-1.031 0-1.875-0.844-1.875-1.875v0c0-1.031 0.844-1.875 1.875-1.875h7.5c1.031 0 1.875 0.844 1.875 1.875v0z"></path>
<path d="M17.875 12.25c0 1.031-0.844 1.875-1.875 1.875h-3.75c-1.031 0-1.875-0.844-1.875-1.875v0c0-1.031 0.844-1.875 1.875-1.875h3.75c1.031 0 1.875 0.844 1.875 1.875v0z"></path>
</svg>
