<?xml version="1.0" encoding="utf-8"?>
<!-- Generated by IcoMoon.io -->
<!DOCTYPE svg PUBLIC "-//W3C//DTD SVG 1.1//EN" "http://www.w3.org/Graphics/SVG/1.1/DTD/svg11.dtd">
<svg version="1.1" xmlns="http://www.w3.org/2000/svg" xmlns:xlink="http://www.w3.org/1999/xlink" width="32" height="32" viewBox="0 0 32 32">
<path d="M22.558 15.084c1.256-1.491 2.013-3.415 2.013-5.513 0-4.726-3.845-8.571-8.571-8.571h-10.714v30h12.857c4.726 0 8.571-3.845 8.571-8.571 0-3.112-1.667-5.843-4.156-7.344zM11.714 5.286h3.398c1.874 0 3.398 1.923 3.398 4.286s-1.525 4.286-3.398 4.286h-3.398v-8.571zM17.038 26.714h-5.324v-8.571h5.324c1.957 0 3.549 1.923 3.549 4.286s-1.592 4.286-3.549 4.286z"></path>
</svg>
