<?xml version="1.0" encoding="utf-8"?>
<!-- Generated by IcoMoon.io -->
<!DOCTYPE svg PUBLIC "-//W3C//DTD SVG 1.1//EN" "http://www.w3.org/Graphics/SVG/1.1/DTD/svg11.dtd">
<svg version="1.1" xmlns="http://www.w3.org/2000/svg" xmlns:xlink="http://www.w3.org/1999/xlink" width="32" height="32" viewBox="0 0 32 32">
<path d="M27.25 4.75v24.375h-19.688c-1.553 0-2.813-1.259-2.813-2.813s1.259-2.813 2.813-2.813h17.813v-22.5h-18.75c-2.062 0-3.75 1.688-3.75 3.75v22.5c0 2.063 1.688 3.75 3.75 3.75h22.5v-26.25h-1.875z"></path>
<path d="M7.564 25.375v0c-0.001 0-0.001 0-0.002 0-0.518 0-0.938 0.42-0.938 0.938s0.42 0.938 0.938 0.938c0.001 0 0.001-0 0.002-0v0h17.809v-1.875h-17.809z"></path>
</svg>
