<?xml version="1.0" encoding="utf-8"?>
<!-- Generated by IcoMoon.io -->
<!DOCTYPE svg PUBLIC "-//W3C//DTD SVG 1.1//EN" "http://www.w3.org/Graphics/SVG/1.1/DTD/svg11.dtd">
<svg version="1.1" xmlns="http://www.w3.org/2000/svg" xmlns:xlink="http://www.w3.org/1999/xlink" width="32" height="32" viewBox="0 0 32 32">
<path d="M7.342 5.804h-5.068c-0.465 0-0.845 0.38-0.845 0.845v18.584c0 0.465 0.38 0.845 0.845 0.845h5.068c0.465 0 0.845-0.38 0.845-0.845v-18.584c0-0.465-0.38-0.845-0.845-0.845zM6.497 10.872h-3.379v-1.689h3.379v1.689z"></path>
<path d="M15.789 5.804h-5.068c-0.465 0-0.845 0.38-0.845 0.845v18.584c0 0.465 0.38 0.845 0.845 0.845h5.068c0.465 0 0.845-0.38 0.845-0.845v-18.584c0-0.465-0.38-0.845-0.845-0.845zM14.945 10.872h-3.379v-1.689h3.379v1.689z"></path>
<path d="M21.626 7.11l-4.526 2.281c-0.415 0.209-0.583 0.72-0.374 1.134l7.602 15.087c0.209 0.415 0.72 0.583 1.134 0.374l4.526-2.281c0.415-0.209 0.583-0.72 0.374-1.134l-7.602-15.088c-0.209-0.415-0.72-0.583-1.134-0.374z"></path>
<path d="M25.926 25.233c0 0.467-0.378 0.845-0.845 0.845s-0.845-0.378-0.845-0.845c0-0.467 0.378-0.845 0.845-0.845s0.845 0.378 0.845 0.845z"></path>
</svg>
