<?xml version="1.0" encoding="utf-8"?>
<!-- Generated by IcoMoon.io -->
<!DOCTYPE svg PUBLIC "-//W3C//DTD SVG 1.1//EN" "http://www.w3.org/Graphics/SVG/1.1/DTD/svg11.dtd">
<svg version="1.1" xmlns="http://www.w3.org/2000/svg" xmlns:xlink="http://www.w3.org/1999/xlink" width="32" height="32" viewBox="0 0 32 32">
<path d="M28.923 7.692h-7.385v-1.846c0-1.015-0.831-1.846-1.846-1.846h-7.385c-1.015 0-1.846 0.831-1.846 1.846v1.846h-7.385c-1.015 0-1.846 0.831-1.846 1.846v16.615c0 1.015 0.831 1.846 1.846 1.846h25.846c1.015 0 1.846-0.831 1.846-1.846v-16.615c0-1.015-0.831-1.846-1.846-1.846zM12.308 5.849c0.001-0.001 0.002-0.002 0.003-0.003h7.378c0.001 0.001 0.002 0.002 0.003 0.003v1.843h-7.385v-1.843zM28.923 15.077h-3.692v2.769c0 0.508-0.415 0.923-0.923 0.923h-1.846c-0.508 0-0.923-0.415-0.923-0.923v-2.769h-11.077v2.769c0 0.508-0.415 0.923-0.923 0.923h-1.846c-0.508 0-0.923-0.415-0.923-0.923v-2.769h-3.692v-1.846h25.846v1.846z"></path>
</svg>
