<?xml version="1.0" encoding="utf-8"?>
<!-- Generated by IcoMoon.io -->
<!DOCTYPE svg PUBLIC "-//W3C//DTD SVG 1.1//EN" "http://www.w3.org/Graphics/SVG/1.1/DTD/svg11.dtd">
<svg version="1.1" xmlns="http://www.w3.org/2000/svg" xmlns:xlink="http://www.w3.org/1999/xlink" width="32" height="32" viewBox="0 0 32 32">
<path d="M16 8.5c-4.142 0-7.5 3.358-7.5 7.5s3.358 7.5 7.5 7.5 7.5-3.358 7.5-7.5-3.358-7.5-7.5-7.5zM16 20.688v-9.375c2.585 0 4.688 2.103 4.688 4.688s-2.103 4.688-4.688 4.688zM16 25.375c1.036 0 1.875 0.839 1.875 1.875v1.875c0 1.036-0.839 1.875-1.875 1.875s-1.875-0.839-1.875-1.875v-1.875c0-1.036 0.839-1.875 1.875-1.875zM16 6.625c-1.036 0-1.875-0.839-1.875-1.875v-1.875c0-1.036 0.839-1.875 1.875-1.875s1.875 0.839 1.875 1.875v1.875c0 1.036-0.839 1.875-1.875 1.875zM29.125 14.125c1.036 0 1.875 0.839 1.875 1.875s-0.839 1.875-1.875 1.875h-1.875c-1.036 0-1.875-0.839-1.875-1.875s0.839-1.875 1.875-1.875h1.875zM6.625 16c0 1.036-0.839 1.875-1.875 1.875h-1.875c-1.036 0-1.875-0.839-1.875-1.875s0.839-1.875 1.875-1.875h1.875c1.036 0 1.875 0.839 1.875 1.875zM25.281 22.629l1.326 1.326c0.732 0.732 0.732 1.919 0 2.652s-1.919 0.732-2.652 0l-1.326-1.326c-0.732-0.732-0.732-1.919 0-2.652s1.919-0.732 2.652 0zM6.719 9.371l-1.326-1.326c-0.732-0.732-0.732-1.919 0-2.652s1.919-0.732 2.652 0l1.326 1.326c0.732 0.732 0.732 1.919 0 2.652s-1.919 0.732-2.652 0zM25.281 9.371c-0.732 0.732-1.919 0.732-2.652 0s-0.732-1.919 0-2.652l1.326-1.326c0.732-0.732 1.919-0.732 2.652 0s0.732 1.919 0 2.652l-1.326 1.326zM6.719 22.629c0.732-0.732 1.919-0.732 2.652 0s0.732 1.919 0 2.652l-1.326 1.326c-0.732 0.732-1.919 0.732-2.652 0s-0.732-1.919 0-2.652l1.326-1.326z"></path>
</svg>
