<?xml version="1.0" encoding="utf-8"?>
<!-- Generated by IcoMoon.io -->
<!DOCTYPE svg PUBLIC "-//W3C//DTD SVG 1.1//EN" "http://www.w3.org/Graphics/SVG/1.1/DTD/svg11.dtd">
<svg version="1.1" xmlns="http://www.w3.org/2000/svg" xmlns:xlink="http://www.w3.org/1999/xlink" width="32" height="32" viewBox="0 0 32 32">
<path d="M16 5.74c-1.602 0-3.15 0.253-4.599 0.751-1.362 0.468-2.575 1.13-3.606 1.967-1.931 1.569-2.995 3.587-2.995 5.682 0 1.175 0.326 2.315 0.97 3.388 0.664 1.106 1.662 2.117 2.887 2.924 0.885 0.583 1.481 1.515 1.638 2.564 0.053 0.35 0.085 0.703 0.098 1.054 0.218-0.181 0.43-0.375 0.638-0.583 0.704-0.704 1.656-1.093 2.64-1.093 0.157 0 0.314 0.010 0.471 0.030 0.612 0.078 1.237 0.117 1.857 0.117 1.602 0 3.15-0.253 4.599-0.751 1.362-0.468 2.575-1.13 3.606-1.967 1.931-1.569 2.995-3.587 2.995-5.682s-1.064-4.113-2.995-5.682c-1.030-0.837-2.243-1.499-3.606-1.967-1.45-0.498-2.997-0.751-4.599-0.751zM16 2.007v0c8.247 0 14.933 5.432 14.933 12.133s-6.686 12.133-14.933 12.133c-0.792 0-1.569-0.051-2.328-0.147-3.208 3.208-7.036 3.783-10.738 3.867v-0.785c1.999-0.979 3.733-2.763 3.733-4.802 0-0.284-0.022-0.564-0.063-0.837-3.377-2.224-5.537-5.622-5.537-9.429 0-6.701 6.686-12.133 14.933-12.133z"></path>
</svg>
