<?xml version="1.0" encoding="utf-8"?>
<!-- Generated by IcoMoon.io -->
<!DOCTYPE svg PUBLIC "-//W3C//DTD SVG 1.1//EN" "http://www.w3.org/Graphics/SVG/1.1/DTD/svg11.dtd">
<svg version="1.1" xmlns="http://www.w3.org/2000/svg" xmlns:xlink="http://www.w3.org/1999/xlink" width="32" height="32" viewBox="0 0 32 32">
<path d="M29.222 26.056c0 1.175 0.672 2.193 1.653 2.69v0.412c-0.274 0.038-0.554 0.057-0.839 0.057-1.756 0-3.34-0.737-4.46-1.918-0.677 0.18-1.395 0.278-2.138 0.278-4.107 0-7.437-2.96-7.437-6.611s3.33-6.611 7.437-6.611c4.107 0 7.437 2.96 7.437 6.611 0 1.429-0.51 2.753-1.378 3.834-0.176 0.383-0.275 0.809-0.275 1.258zM14.347 2.785c7.191 0 13.041 4.664 13.217 10.472-1.27-0.566-2.675-0.866-4.128-0.866-2.468 0-4.798 0.864-6.563 2.432-1.829 1.626-2.837 3.807-2.837 6.141 0 1.154 0.246 2.27 0.716 3.3-0.135 0.003-0.27 0.005-0.406 0.005-0.701 0-1.39-0.045-2.061-0.13-2.84 2.84-6.23 3.349-9.508 3.424v-0.695c1.77-0.867 3.305-2.447 3.305-4.252 0-0.252-0.020-0.499-0.056-0.741-2.99-1.969-4.902-4.978-4.902-8.349 0-5.933 5.92-10.743 13.222-10.743z"></path>
</svg>
