<?xml version="1.0" encoding="utf-8"?>
<!-- Generated by IcoMoon.io -->
<!DOCTYPE svg PUBLIC "-//W3C//DTD SVG 1.1//EN" "http://www.w3.org/Graphics/SVG/1.1/DTD/svg11.dtd">
<svg version="1.1" xmlns="http://www.w3.org/2000/svg" xmlns:xlink="http://www.w3.org/1999/xlink" width="32" height="32" viewBox="0 0 32 32">
<path d="M29.222 26.056c0 1.175 0.672 2.193 1.653 2.69v0.412c-0.274 0.038-0.554 0.057-0.839 0.057-1.756 0-3.34-0.737-4.46-1.918-0.677 0.18-1.395 0.278-2.138 0.278-4.107 0-7.437-2.96-7.437-6.611s3.33-6.611 7.437-6.611c4.107 0 7.437 2.96 7.437 6.611 0 1.429-0.51 2.753-1.378 3.834-0.176 0.383-0.275 0.809-0.275 1.258zM7.082 8.496c-1.71 1.389-2.652 3.176-2.652 5.031 0 1.041 0.289 2.050 0.859 2.999 0.588 0.979 1.471 1.874 2.556 2.589 0.784 0.516 1.311 1.341 1.451 2.27 0.046 0.309 0.076 0.622 0.087 0.933 0.193-0.16 0.381-0.332 0.565-0.516 0.624-0.624 1.466-0.968 2.337-0.968 0.139 0 0.278 0.009 0.417 0.026 0.541 0.069 1.093 0.104 1.642 0.104v3.305c-0.701-0-1.388-0.045-2.059-0.13-2.84 2.84-6.23 3.349-9.508 3.424v-0.695c1.77-0.867 3.305-2.447 3.305-4.252 0-0.252-0.020-0.499-0.056-0.741-2.99-1.969-4.902-4.978-4.902-8.349 0-5.933 5.92-10.743 13.222-10.743 7.191 0 13.041 4.664 13.217 10.472-1.061-0.473-2.217-0.76-3.416-0.841-0.298-1.448-1.172-2.81-2.537-3.919-0.912-0.741-1.986-1.327-3.193-1.742-1.284-0.441-2.654-0.665-4.072-0.665s-2.789 0.224-4.072 0.665c-1.206 0.415-2.28 1-3.193 1.742z"></path>
</svg>
