<?xml version="1.0" encoding="utf-8"?>
<!-- Generated by IcoMoon.io -->
<!DOCTYPE svg PUBLIC "-//W3C//DTD SVG 1.1//EN" "http://www.w3.org/Graphics/SVG/1.1/DTD/svg11.dtd">
<svg version="1.1" xmlns="http://www.w3.org/2000/svg" xmlns:xlink="http://www.w3.org/1999/xlink" width="32" height="32" viewBox="0 0 32 32">
<path d="M13.521 6.083c-1.308 0-2.572 0.205-3.755 0.61-1.108 0.379-2.095 0.915-2.931 1.592-1.551 1.255-2.405 2.861-2.405 4.524 0 0.929 0.26 1.832 0.773 2.683 0.534 0.887 1.34 1.699 2.331 2.349 0.786 0.516 1.315 1.342 1.456 2.271 0.023 0.155 0.042 0.31 0.056 0.466 0.070-0.065 0.14-0.132 0.21-0.201 0.623-0.621 1.464-0.964 2.333-0.964 0.138 0 0.277 0.009 0.416 0.026 0.5 0.063 1.010 0.095 1.517 0.095 1.308 0 2.572-0.205 3.755-0.61 1.109-0.379 2.095-0.915 2.931-1.592 1.551-1.255 2.405-2.861 2.405-4.524s-0.854-3.269-2.405-4.524c-0.836-0.677-1.823-1.213-2.931-1.592-1.183-0.405-2.446-0.61-3.755-0.61zM13.521 2.778v0c6.846 0 12.396 4.491 12.396 10.032s-5.55 10.032-12.396 10.032c-0.657 0-1.303-0.042-1.933-0.122-2.663 2.652-5.737 3.128-8.81 3.197v-0.649c1.659-0.81 2.996-2.285 2.996-3.97 0-0.235-0.018-0.466-0.052-0.692-2.803-1.839-4.596-4.648-4.596-7.796 0-5.54 5.55-10.032 12.396-10.032zM26.846 25.263c0 1.445 0.938 2.709 2.376 3.403v0.556c-2.663-0.060-5.108-0.468-7.415-2.741-0.546 0.068-1.105 0.104-1.675 0.104-2.465 0-4.736-0.665-6.55-1.783 3.736-0.013 7.263-1.21 9.938-3.375 1.348-1.091 2.412-2.371 3.161-3.805 0.795-1.52 1.197-3.14 1.197-4.814 0-0.27-0.012-0.538-0.032-0.805 1.874 1.548 3.028 3.657 3.028 5.983 0 2.698-1.554 5.106-3.983 6.682-0.029 0.194-0.045 0.392-0.045 0.593z"></path>
</svg>
