<?xml version="1.0" encoding="utf-8"?>
<!-- Generated by IcoMoon.io -->
<!DOCTYPE svg PUBLIC "-//W3C//DTD SVG 1.1//EN" "http://www.w3.org/Graphics/SVG/1.1/DTD/svg11.dtd">
<svg version="1.1" xmlns="http://www.w3.org/2000/svg" xmlns:xlink="http://www.w3.org/1999/xlink" width="32" height="32" viewBox="0 0 32 32">
<path d="M30.976 18.23v-1.872h-5.654c-0.171-2.126-0.93-4.066-2.096-5.623h4.737l2.049-8.197-1.816-0.454-1.695 6.779h-5.109c-0.026-0.020-0.053-0.040-0.079-0.060 0.196-0.57 0.303-1.182 0.303-1.819 0-3.093-2.514-5.601-5.616-5.601s-5.616 2.508-5.616 5.601c0 0.637 0.107 1.249 0.303 1.819-0.026 0.020-0.053 0.040-0.079 0.060h-5.109l-1.695-6.779-1.816 0.454 2.049 8.197h4.737c-1.167 1.557-1.925 3.497-2.096 5.623h-5.654v1.872h5.656c0.111 1.336 0.454 2.598 0.984 3.737h-3.627l-2.049 8.197 1.816 0.454 1.695-6.779h3.286c1.717 2.282 4.311 3.737 7.215 3.737s5.498-1.454 7.215-3.737h3.286l1.695 6.779 1.816-0.454-2.049-8.197h-3.627c0.53-1.139 0.873-2.401 0.984-3.737h5.656z"></path>
</svg>
