<?xml version="1.0" encoding="utf-8"?>
<!-- Generated by IcoMoon.io -->
<!DOCTYPE svg PUBLIC "-//W3C//DTD SVG 1.1//EN" "http://www.w3.org/Graphics/SVG/1.1/DTD/svg11.dtd">
<svg version="1.1" xmlns="http://www.w3.org/2000/svg" xmlns:xlink="http://www.w3.org/1999/xlink" width="32" height="32" viewBox="0 0 32 32">
<path d="M30.863 13.536c0-5.833-1.707-10.565-3.817-10.602 0.008-0 0.017-0.001 0.025-0.001h-2.408c0 0-5.655 4.248-13.795 5.915-0.248 1.315-0.407 2.882-0.407 4.688s0.159 3.373 0.407 4.688c8.14 1.667 13.795 5.915 13.795 5.915h2.408c-0.008 0-0.017-0.001-0.025-0.001 2.11-0.037 3.817-4.769 3.817-10.602zM26.242 22.535c-0.272 0-0.567-0.283-0.718-0.451-0.367-0.408-0.72-1.044-1.021-1.838-0.675-1.777-1.047-4.16-1.047-6.709s0.372-4.932 1.047-6.709c0.302-0.794 0.655-1.43 1.021-1.838 0.151-0.169 0.446-0.451 0.718-0.451s0.567 0.283 0.718 0.451c0.367 0.408 0.72 1.044 1.021 1.838 0.675 1.777 1.047 4.16 1.047 6.709s-0.372 4.932-1.047 6.709c-0.302 0.794-0.655 1.43-1.021 1.838-0.151 0.169-0.446 0.451-0.718 0.451zM8.447 13.536c0-1.508 0.111-2.973 0.321-4.328-1.375 0.19-2.582 0.3-4.074 0.3-1.947 0-1.947 0-1.947 0l-1.61 2.749v2.559l1.61 2.749c0 0 0 0 1.947 0 1.492 0 2.699 0.11 4.074 0.3-0.21-1.355-0.321-2.82-0.321-4.328zM11.824 19.717l-3.716-0.712 2.376 9.334c0.123 0.483 0.602 0.727 1.065 0.541l3.441-1.377c0.463-0.185 0.648-0.696 0.412-1.135l-3.579-6.652zM26.242 17.005c-0.105 0-0.219-0.109-0.277-0.174-0.141-0.157-0.277-0.402-0.394-0.709-0.26-0.685-0.404-1.603-0.404-2.586s0.143-1.901 0.404-2.586c0.116-0.306 0.252-0.551 0.394-0.709 0.058-0.065 0.172-0.174 0.277-0.174s0.219 0.109 0.277 0.174c0.141 0.157 0.277 0.402 0.394 0.709 0.26 0.685 0.404 1.603 0.404 2.586s-0.143 1.901-0.404 2.586c-0.116 0.306-0.252 0.551-0.394 0.709-0.058 0.065-0.172 0.174-0.277 0.174z"></path>
</svg>
