<?xml version="1.0" encoding="utf-8"?>
<!-- Generated by IcoMoon.io -->
<!DOCTYPE svg PUBLIC "-//W3C//DTD SVG 1.1//EN" "http://www.w3.org/Graphics/SVG/1.1/DTD/svg11.dtd">
<svg version="1.1" xmlns="http://www.w3.org/2000/svg" xmlns:xlink="http://www.w3.org/1999/xlink" width="32" height="32" viewBox="0 0 32 32">
<path d="M11.313 12.25h3.75v3.75h-3.75zM16.938 12.25h3.75v3.75h-3.75zM22.563 12.25h3.75v3.75h-3.75zM5.688 23.5h3.75v3.75h-3.75zM11.313 23.5h3.75v3.75h-3.75zM16.938 23.5h3.75v3.75h-3.75zM11.313 17.875h3.75v3.75h-3.75zM16.938 17.875h3.75v3.75h-3.75zM22.563 17.875h3.75v3.75h-3.75zM5.688 17.875h3.75v3.75h-3.75zM26.313 1v1.875h-3.75v-1.875h-13.125v1.875h-3.75v-1.875h-3.75v30h28.125v-30h-3.75zM28.188 29.125h-24.375v-20.625h24.375v20.625z"></path>
</svg>
