<?xml version="1.0" encoding="utf-8"?>
<!-- Generated by IcoMoon.io -->
<!DOCTYPE svg PUBLIC "-//W3C//DTD SVG 1.1//EN" "http://www.w3.org/Graphics/SVG/1.1/DTD/svg11.dtd">
<svg version="1.1" xmlns="http://www.w3.org/2000/svg" xmlns:xlink="http://www.w3.org/1999/xlink" width="32" height="32" viewBox="0 0 32 32">
<path d="M10 17.846c0 3.314 2.686 6 6 6s6-2.686 6-6-2.686-6-6-6-6 2.686-6 6zM28.923 7.692h-6.462c-0.462-1.846-0.923-3.692-2.769-3.692h-7.385c-1.846 0-2.308 1.846-2.769 3.692h-6.462c-1.015 0-1.846 0.831-1.846 1.846v16.615c0 1.015 0.831 1.846 1.846 1.846h25.846c1.015 0 1.846-0.831 1.846-1.846v-16.615c0-1.015-0.831-1.846-1.846-1.846zM16 26.038c-4.525 0-8.192-3.668-8.192-8.192s3.668-8.192 8.192-8.192c4.525 0 8.192 3.668 8.192 8.192s-3.668 8.192-8.192 8.192zM28.923 13.231h-3.692v-1.846h3.692v1.846z"></path>
</svg>
