<?xml version="1.0" encoding="utf-8"?>
<!-- Generated by IcoMoon.io -->
<!DOCTYPE svg PUBLIC "-//W3C//DTD SVG 1.1//EN" "http://www.w3.org/Graphics/SVG/1.1/DTD/svg11.dtd">
<svg version="1.1" xmlns="http://www.w3.org/2000/svg" xmlns:xlink="http://www.w3.org/1999/xlink" width="32" height="32" viewBox="0 0 32 32">
<path d="M12.267 27.2c0 1.546-1.254 2.8-2.8 2.8s-2.8-1.254-2.8-2.8c0-1.546 1.254-2.8 2.8-2.8s2.8 1.254 2.8 2.8z"></path>
<path d="M30.933 27.2c0 1.546-1.254 2.8-2.8 2.8s-2.8-1.254-2.8-2.8c0-1.546 1.254-2.8 2.8-2.8s2.8 1.254 2.8 2.8z"></path>
<path d="M30.933 15.067v-11.2h-22.4c0-1.031-0.836-1.867-1.867-1.867h-5.6v1.867h3.733l1.402 12.018c-0.854 0.684-1.402 1.735-1.402 2.915 0 2.062 1.671 3.733 3.733 3.733h22.4v-1.867h-22.4c-1.031 0-1.867-0.836-1.867-1.867 0-0.006 0-0.013 0-0.019l24.266-3.714z"></path>
</svg>
