<?xml version="1.0" encoding="utf-8"?>
<!-- Generated by IcoMoon.io -->
<!DOCTYPE svg PUBLIC "-//W3C//DTD SVG 1.1//EN" "http://www.w3.org/Graphics/SVG/1.1/DTD/svg11.dtd">
<svg version="1.1" xmlns="http://www.w3.org/2000/svg" xmlns:xlink="http://www.w3.org/1999/xlink" width="32" height="32" viewBox="0 0 32 32">
<path d="M8.567 14.083l-4.293-7.436c2.749-3.441 6.979-5.647 11.726-5.647 5.491 0 10.292 2.951 12.906 7.353h-12.239c-0.22-0.019-0.442-0.029-0.667-0.029-3.57 0-6.579 2.45-7.433 5.758zM21.37 10.523h8.597c0.666 1.697 1.032 3.545 1.032 5.479 0 8.227-6.624 14.906-14.83 14.998l6.135-10.625c0.864-1.242 1.371-2.749 1.371-4.372 0-2.144-0.884-4.085-2.305-5.479zM10.551 16.001c0-3.005 2.445-5.449 5.449-5.449s5.449 2.445 5.449 5.449c0 3.005-2.445 5.449-5.449 5.449s-5.449-2.445-5.449-5.449zM18.056 23.397l-4.294 7.438c-7.223-1.081-12.762-7.31-12.762-14.834 0-2.672 0.7-5.181 1.925-7.354l6.124 10.607c1.227 2.611 3.881 4.423 6.951 4.423 0.712 0 1.401-0.098 2.056-0.28z"></path>
</svg>
