<?xml version="1.0" encoding="utf-8"?>
<!-- Generated by IcoMoon.io -->
<!DOCTYPE svg PUBLIC "-//W3C//DTD SVG 1.1//EN" "http://www.w3.org/Graphics/SVG/1.1/DTD/svg11.dtd">
<svg version="1.1" xmlns="http://www.w3.org/2000/svg" xmlns:xlink="http://www.w3.org/1999/xlink" width="32" height="32" viewBox="0 0 32 32">
<path d="M28.188 4.75h-8.438c0-2.071-1.679-3.75-3.75-3.75s-3.75 1.679-3.75 3.75h-8.438c-0.518 0-0.938 0.42-0.938 0.938v24.375c0 0.518 0.42 0.938 0.938 0.938h24.375c0.518 0 0.938-0.42 0.938-0.938v-24.375c0-0.518-0.42-0.938-0.938-0.938zM16 2.875c1.036 0 1.875 0.839 1.875 1.875s-0.839 1.875-1.875 1.875c-1.036 0-1.875-0.839-1.875-1.875s0.839-1.875 1.875-1.875zM27.25 29.125h-22.5v-22.5h3.75v2.813c0 0.518 0.42 0.938 0.938 0.938h13.125c0.518 0 0.938-0.42 0.938-0.938v-2.813h3.75v22.5z"></path>
<path d="M14.125 26.152l-6.013-6.951 1.714-1.714 4.299 3.362 8.049-7.112 1.714 1.714z"></path>
</svg>
