<?xml version="1.0" encoding="utf-8"?>
<!-- Generated by IcoMoon.io -->
<!DOCTYPE svg PUBLIC "-//W3C//DTD SVG 1.1//EN" "http://www.w3.org/Graphics/SVG/1.1/DTD/svg11.dtd">
<svg version="1.1" xmlns="http://www.w3.org/2000/svg" xmlns:xlink="http://www.w3.org/1999/xlink" width="32" height="32" viewBox="0 0 32 32">
<path d="M26.909 11.015c-0.093-3.704-3.122-6.679-6.846-6.679-2.181 0-4.124 1.022-5.378 2.611-0.704-0.909-1.804-1.496-3.043-1.496-2.124 0-3.847 1.723-3.847 3.849 0 0.185 0.014 0.367 0.039 0.546-0.323-0.058-0.655-0.090-0.995-0.090-3.080-0-5.576 2.498-5.576 5.579s2.496 5.579 5.576 5.579h2.641l6.519 6.75 6.52-6.75 3.209-0c2.767-0.005 5.008-2.251 5.008-5.021 0-2.363-1.631-4.343-3.828-4.878zM16 24.599l-5.526-5.526h3.684v-5.526h3.684v5.526h3.684l-5.526 5.526z"></path>
</svg>
