<?xml version="1.0" encoding="utf-8"?>
<!-- Generated by IcoMoon.io -->
<!DOCTYPE svg PUBLIC "-//W3C//DTD SVG 1.1//EN" "http://www.w3.org/Graphics/SVG/1.1/DTD/svg11.dtd">
<svg version="1.1" xmlns="http://www.w3.org/2000/svg" xmlns:xlink="http://www.w3.org/1999/xlink" width="32" height="32" viewBox="0 0 32 32">
<path d="M26.695 16.070c0.069-0.312 0.105-0.637 0.105-0.97 0-2.485-2.015-4.5-4.5-4.5-0.4 0-0.788 0.053-1.157 0.151-0.697-2.176-2.736-3.751-5.143-3.751-2.457 0-4.53 1.641-5.184 3.886-0.64-0.186-1.316-0.286-2.016-0.286-3.976 0-7.2 3.224-7.2 7.2s3.224 7.2 7.2 7.2h17.1c2.485 0 4.5-2.015 4.5-4.5 0-2.214-1.599-4.055-3.705-4.43zM13.3 23.2l-4.5-4.5 1.8-1.8 2.7 2.7 6.3-6.3 1.8 1.8-8.1 8.1z"></path>
</svg>
