<?xml version="1.0" encoding="utf-8"?>
<!-- Generated by IcoMoon.io -->
<!DOCTYPE svg PUBLIC "-//W3C//DTD SVG 1.1//EN" "http://www.w3.org/Graphics/SVG/1.1/DTD/svg11.dtd">
<svg version="1.1" xmlns="http://www.w3.org/2000/svg" xmlns:xlink="http://www.w3.org/1999/xlink" width="32" height="32" viewBox="0 0 32 32">
<path d="M30.222 19.154c0-2.28-1.574-4.192-3.694-4.708-0.090-3.575-3.013-6.446-6.607-6.446-2.105 0-3.98 0.986-5.19 2.52-0.679-0.878-1.741-1.443-2.936-1.443-2.050 0-3.712 1.663-3.712 3.715 0 0.179 0.013 0.354 0.038 0.527-0.312-0.056-0.632-0.087-0.96-0.087-2.972-0-5.381 2.411-5.381 5.385s2.409 5.385 5.381 5.385l18.23-0c2.671-0.005 4.834-2.173 4.834-4.846z"></path>
</svg>
