<?xml version="1.0" encoding="utf-8"?>
<!-- Generated by IcoMoon.io -->
<!DOCTYPE svg PUBLIC "-//W3C//DTD SVG 1.1//EN" "http://www.w3.org/Graphics/SVG/1.1/DTD/svg11.dtd">
<svg version="1.1" xmlns="http://www.w3.org/2000/svg" xmlns:xlink="http://www.w3.org/1999/xlink" width="32" height="32" viewBox="0 0 32 32">
<path d="M26.969 13.303c0.070-0.32 0.108-0.653 0.108-0.995 0-2.549-2.066-4.615-4.615-4.615-0.41 0-0.808 0.054-1.186 0.154-0.715-2.231-2.806-3.847-5.275-3.847-2.52 0-4.646 1.683-5.317 3.986-0.656-0.191-1.35-0.293-2.068-0.293-4.078 0-7.385 3.306-7.385 7.385s3.306 7.385 7.385 7.385h3.692v5.538h7.385v-5.538h6.462c2.549 0 4.615-2.066 4.615-4.615 0-2.271-1.64-4.159-3.8-4.544zM17.846 20.615v5.538h-3.692v-5.538h-4.615l6.462-6.462 6.462 6.462h-4.615z"></path>
</svg>
