<?xml version="1.0" encoding="utf-8"?>
<!-- Generated by IcoMoon.io -->
<!DOCTYPE svg PUBLIC "-//W3C//DTD SVG 1.1//EN" "http://www.w3.org/Graphics/SVG/1.1/DTD/svg11.dtd">
<svg version="1.1" xmlns="http://www.w3.org/2000/svg" xmlns:xlink="http://www.w3.org/1999/xlink" width="32" height="32" viewBox="0 0 32 32">
<path d="M24.052 12.507c-1.729 0-3.284 0.721-4.39 1.895-0.469 0.498-1.282 1.087-2.162 1.606 0.413-1.578 1.719-3.565 2.626-4.437 1.161-1.118 1.875-2.69 1.875-4.438 0-3.366-2.68-6.097-6-6.132-3.32 0.036-6 2.766-6 6.132 0 1.748 0.713 3.32 1.875 4.438 0.907 0.872 2.213 2.859 2.626 4.437-0.88-0.519-1.694-1.108-2.162-1.606-1.106-1.175-2.661-1.895-4.39-1.895-3.351 0-6.067 2.744-6.067 6.133s2.716 6.133 6.067 6.133c1.73 0 3.284-0.743 4.39-1.918 0.492-0.524 1.361-1.176 2.294-1.718-0.088 4.327-2.154 7.505-4.257 8.757v1.106h11.25v-1.106c-2.103-1.252-4.17-4.43-4.257-8.757 0.933 0.542 1.801 1.194 2.294 1.718 1.106 1.175 2.66 1.918 4.39 1.918 3.351 0 6.067-2.745 6.067-6.133s-2.716-6.133-6.067-6.133z"></path>
</svg>
