<?xml version="1.0" encoding="utf-8"?>
<!-- Generated by IcoMoon.io -->
<!DOCTYPE svg PUBLIC "-//W3C//DTD SVG 1.1//EN" "http://www.w3.org/Graphics/SVG/1.1/DTD/svg11.dtd">
<svg version="1.1" xmlns="http://www.w3.org/2000/svg" xmlns:xlink="http://www.w3.org/1999/xlink" width="32" height="32" viewBox="0 0 32 32">
<path d="M30.528 10.539l-13.974-9.316c-0.335-0.224-0.772-0.224-1.107 0l-13.974 9.316c-0.278 0.185-0.445 0.497-0.445 0.83v9.316c0 0.334 0.167 0.645 0.445 0.83l13.974 9.316c0.168 0.112 0.361 0.168 0.554 0.168s0.386-0.056 0.554-0.168l13.974-9.316c0.278-0.185 0.445-0.497 0.445-0.83v-9.316c0-0.334-0.167-0.645-0.445-0.83zM16 19.486l-5.188-3.458 5.188-3.458 5.188 3.458-5.188 3.458zM16.998 10.836v-6.917l11.176 7.451-5.188 3.458-5.989-3.993zM15.002 10.836l-5.989 3.993-5.188-3.458 11.176-7.451v6.917zM7.214 16.028l-4.189 2.793v-5.586l4.189 2.793zM9.013 17.228l5.989 3.993v6.917l-11.176-7.451 5.188-3.458zM16.998 21.22l5.989-3.993 5.188 3.458-11.176 7.451v-6.917zM24.786 16.028l4.189-2.793v5.586l-4.189-2.793z"></path>
</svg>
