<?xml version="1.0" encoding="utf-8"?>
<!-- Generated by IcoMoon.io -->
<!DOCTYPE svg PUBLIC "-//W3C//DTD SVG 1.1//EN" "http://www.w3.org/Graphics/SVG/1.1/DTD/svg11.dtd">
<svg version="1.1" xmlns="http://www.w3.org/2000/svg" xmlns:xlink="http://www.w3.org/1999/xlink" width="32" height="32" viewBox="0 0 32 32">
<path d="M11.656 22.154l1.21-1.694-1.326-1.326-1.694 1.21c-0.314-0.176-0.65-0.316-1.004-0.416l-0.342-2.053h-1.875l-0.342 2.053c-0.353 0.1-0.69 0.24-1.004 0.416l-1.694-1.21-1.326 1.326 1.21 1.694c-0.176 0.314-0.316 0.651-0.416 1.004l-2.053 0.342v1.875l2.053 0.342c0.1 0.353 0.24 0.69 0.416 1.004l-1.21 1.694 1.326 1.326 1.694-1.21c0.314 0.176 0.651 0.316 1.004 0.416l0.342 2.053h1.875l0.342-2.053c0.353-0.1 0.69-0.24 1.004-0.416l1.694 1.21 1.326-1.326-1.21-1.694c0.176-0.314 0.316-0.651 0.416-1.004l2.053-0.342v-1.875l-2.053-0.342c-0.1-0.353-0.24-0.69-0.416-1.004zM7.563 26.313c-1.036 0-1.875-0.839-1.875-1.875s0.839-1.875 1.875-1.875 1.875 0.839 1.875 1.875-0.839 1.875-1.875 1.875zM31 12.25v-1.875l-1.974-0.359c-0.036-0.236-0.083-0.468-0.138-0.697l1.686-1.087-0.718-1.732-1.961 0.424c-0.123-0.202-0.256-0.399-0.395-0.59l1.143-1.651-1.326-1.326-1.651 1.143c-0.191-0.14-0.387-0.272-0.59-0.395l0.424-1.961-1.732-0.718-1.087 1.686c-0.229-0.055-0.461-0.102-0.697-0.138l-0.359-1.974h-1.875l-0.359 1.974c-0.236 0.036-0.468 0.083-0.697 0.138l-1.087-1.686-1.732 0.718 0.424 1.961c-0.202 0.123-0.399 0.256-0.59 0.395l-1.651-1.143-1.326 1.326 1.143 1.651c-0.14 0.191-0.272 0.387-0.395 0.59l-1.961-0.424-0.718 1.732 1.686 1.087c-0.055 0.229-0.102 0.461-0.138 0.697l-1.974 0.359v1.875l1.974 0.359c0.036 0.236 0.083 0.468 0.138 0.697l-1.686 1.087 0.718 1.732 1.961-0.424c0.123 0.202 0.256 0.399 0.395 0.59l-1.143 1.651 1.326 1.326 1.651-1.143c0.191 0.14 0.387 0.272 0.59 0.395l-0.424 1.961 1.732 0.718 1.087-1.686c0.229 0.055 0.461 0.102 0.697 0.138l0.359 1.974h1.875l0.359-1.974c0.236-0.036 0.468-0.083 0.697-0.138l1.087 1.686 1.732-0.718-0.424-1.961c0.202-0.123 0.399-0.256 0.59-0.395l1.651 1.143 1.326-1.326-1.143-1.651c0.14-0.191 0.272-0.387 0.395-0.59l1.961 0.424 0.718-1.732-1.686-1.087c0.055-0.229 0.102-0.461 0.138-0.697l1.974-0.359zM20.688 15.391c-2.252 0-4.078-1.826-4.078-4.078s1.826-4.078 4.078-4.078 4.078 1.826 4.078 4.078c0 2.252-1.826 4.078-4.078 4.078z"></path>
</svg>
