<?xml version="1.0" encoding="utf-8"?>
<!-- Generated by IcoMoon.io -->
<!DOCTYPE svg PUBLIC "-//W3C//DTD SVG 1.1//EN" "http://www.w3.org/Graphics/SVG/1.1/DTD/svg11.dtd">
<svg version="1.1" xmlns="http://www.w3.org/2000/svg" xmlns:xlink="http://www.w3.org/1999/xlink" width="32" height="32" viewBox="0 0 32 32">
<path d="M24.75 31c-3.446 0-6.25-2.804-6.25-6.25v-3.75h-5v3.75c0 3.446-2.804 6.25-6.25 6.25s-6.25-2.804-6.25-6.25 2.804-6.25 6.25-6.25h3.75v-5h-3.75c-3.446 0-6.25-2.804-6.25-6.25s2.804-6.25 6.25-6.25 6.25 2.804 6.25 6.25v3.75h5v-3.75c0-3.446 2.804-6.25 6.25-6.25s6.25 2.804 6.25 6.25-2.804 6.25-6.25 6.25h-3.75v5h3.75c3.446 0 6.25 2.804 6.25 6.25s-2.804 6.25-6.25 6.25zM21 21v3.75c0 2.068 1.682 3.75 3.75 3.75s3.75-1.682 3.75-3.75-1.682-3.75-3.75-3.75h-3.75zM7.25 21c-2.068 0-3.75 1.682-3.75 3.75s1.682 3.75 3.75 3.75 3.75-1.682 3.75-3.75v-3.75h-3.75zM13.5 18.5h5v-5h-5v5zM21 11h3.75c2.068 0 3.75-1.682 3.75-3.75s-1.682-3.75-3.75-3.75-3.75 1.682-3.75 3.75v3.75zM7.25 3.5c-2.068 0-3.75 1.682-3.75 3.75s1.682 3.75 3.75 3.75h3.75v-3.75c0-2.068-1.682-3.75-3.75-3.75z"></path>
</svg>
