<?xml version="1.0" encoding="utf-8"?>
<!-- Generated by IcoMoon.io -->
<!DOCTYPE svg PUBLIC "-//W3C//DTD SVG 1.1//EN" "http://www.w3.org/Graphics/SVG/1.1/DTD/svg11.dtd">
<svg version="1.1" xmlns="http://www.w3.org/2000/svg" xmlns:xlink="http://www.w3.org/1999/xlink" width="32" height="32" viewBox="0 0 32 32">
<path d="M16.93 30.961c-0.067 0-0.135-0.007-0.202-0.022-0.427-0.095-0.731-0.473-0.731-0.91v-13.989h-13.989c-0.437 0-0.816-0.304-0.91-0.731s0.12-0.862 0.516-1.047l27.979-13.057c0.355-0.166 0.777-0.092 1.054 0.186s0.351 0.698 0.186 1.054l-13.057 27.979c-0.156 0.333-0.489 0.538-0.845 0.538zM6.212 14.174h10.718c0.515 0 0.933 0.418 0.933 0.933v10.718l10.195-21.845-21.845 10.194z"></path>
</svg>
