<?xml version="1.0" encoding="utf-8"?>
<!-- Generated by IcoMoon.io -->
<!DOCTYPE svg PUBLIC "-//W3C//DTD SVG 1.1//EN" "http://www.w3.org/Graphics/SVG/1.1/DTD/svg11.dtd">
<svg version="1.1" xmlns="http://www.w3.org/2000/svg" xmlns:xlink="http://www.w3.org/1999/xlink" width="32" height="32" viewBox="0 0 32 32">
<path d="M16 1c-8.284 0-15 6.716-15 15s6.716 15 15 15 15-6.716 15-15-6.716-15-15-15zM3.813 16c0-6.731 5.457-12.188 12.188-12.188 3.21 0 6.13 1.242 8.307 3.27l-12.057 5.167-5.167 12.057c-2.029-2.177-3.27-5.096-3.27-8.307zM18.144 18.144l-7.502 3.215 3.215-7.502 4.287 4.287zM16 28.188c-3.21 0-6.13-1.242-8.307-3.27l12.057-5.167 5.167-12.057c2.029 2.177 3.27 5.096 3.27 8.307 0 6.731-5.457 12.188-12.188 12.188z"></path>
</svg>
