<?xml version="1.0" encoding="utf-8"?>
<!-- Generated by IcoMoon.io -->
<!DOCTYPE svg PUBLIC "-//W3C//DTD SVG 1.1//EN" "http://www.w3.org/Graphics/SVG/1.1/DTD/svg11.dtd">
<svg version="1.1" xmlns="http://www.w3.org/2000/svg" xmlns:xlink="http://www.w3.org/1999/xlink" width="32" height="32" viewBox="0 0 32 32">
<path d="M16 1c-8.284 0-15 6.716-15 15s6.716 15 15 15c8.284 0 15-6.716 15-15s-6.716-15-15-15zM21.625 8.5c1.036 0 1.875 0.839 1.875 1.875s-0.839 1.875-1.875 1.875-1.875-0.839-1.875-1.875c0-1.036 0.839-1.875 1.875-1.875zM10.375 8.5c1.036 0 1.875 0.839 1.875 1.875s-0.839 1.875-1.875 1.875-1.875-0.839-1.875-1.875c0-1.036 0.839-1.875 1.875-1.875zM21.127 24.747c-2.429 0.884-5.124-0.372-6.008-2.801-0.53-1.457-2.148-2.211-3.605-1.681-1.335 0.486-2.079 1.884-1.787 3.235h-1.9c-0.271-2.124 0.951-4.234 3.046-4.997 2.429-0.884 5.124 0.372 6.008 2.801 0.53 1.457 2.148 2.211 3.605 1.681 1.335-0.486 2.079-1.884 1.787-3.235h1.9c0.271 2.124-0.951 4.234-3.046 4.997z"></path>
</svg>
