<?xml version="1.0" encoding="utf-8"?>
<!-- Generated by IcoMoon.io -->
<!DOCTYPE svg PUBLIC "-//W3C//DTD SVG 1.1//EN" "http://www.w3.org/Graphics/SVG/1.1/DTD/svg11.dtd">
<svg version="1.1" xmlns="http://www.w3.org/2000/svg" xmlns:xlink="http://www.w3.org/1999/xlink" width="32" height="32" viewBox="0 0 32 32">
<path d="M16 31c8.284 0 15-6.716 15-15s-6.716-15-15-15-15 6.716-15 15 6.716 15 15 15zM16 3.813c6.731 0 12.188 5.457 12.188 12.188s-5.457 12.188-12.188 12.188-12.188-5.457-12.188-12.188 5.457-12.188 12.188-12.188zM8.5 10.375c0-1.036 0.839-1.875 1.875-1.875s1.875 0.839 1.875 1.875c0 1.036-0.839 1.875-1.875 1.875s-1.875-0.839-1.875-1.875zM19.75 10.375c0-1.036 0.839-1.875 1.875-1.875s1.875 0.839 1.875 1.875c0 1.036-0.839 1.875-1.875 1.875s-1.875-0.839-1.875-1.875zM22.273 19.75h1.9c0.271 2.124-0.951 4.234-3.046 4.997-2.429 0.884-5.124-0.373-6.008-2.801-0.53-1.457-2.148-2.211-3.605-1.681-1.335 0.486-2.079 1.884-1.787 3.235h-1.9c-0.271-2.124 0.951-4.234 3.046-4.997 2.429-0.884 5.124 0.373 6.008 2.801 0.53 1.457 2.148 2.211 3.605 1.681 1.335-0.486 2.079-1.884 1.787-3.235z"></path>
</svg>
