<?xml version="1.0" encoding="utf-8"?>
<!-- Generated by IcoMoon.io -->
<!DOCTYPE svg PUBLIC "-//W3C//DTD SVG 1.1//EN" "http://www.w3.org/Graphics/SVG/1.1/DTD/svg11.dtd">
<svg version="1.1" xmlns="http://www.w3.org/2000/svg" xmlns:xlink="http://www.w3.org/1999/xlink" width="32" height="32" viewBox="0 0 32 32">
<path d="M16 17.473c2.437 0 4.647 0.991 6.248 2.592l-2.083 2.083c-1.067-1.067-2.541-1.728-4.165-1.728s-3.098 0.661-4.165 1.728l-2.083-2.083c1.601-1.601 3.811-2.592 6.248-2.592zM5.582 15.895c2.783-2.783 6.483-4.315 10.418-4.315s7.636 1.533 10.418 4.315l-2.084 2.084c-2.226-2.226-5.186-3.452-8.335-3.452s-6.108 1.226-8.335 3.452l-2.084-2.084zM24.030 7.308c2.456 1.039 4.662 2.526 6.556 4.42v0l-2.084 2.084c-3.339-3.339-7.779-5.179-12.502-5.179s-9.163 1.839-12.502 5.179l-2.084-2.084c1.894-1.894 4.1-3.381 6.556-4.42 2.544-1.076 5.246-1.622 8.030-1.622s5.486 0.546 8.030 1.622zM14.527 24.84c0-0.814 0.66-1.473 1.473-1.473s1.473 0.66 1.473 1.473c0 0.814-0.66 1.473-1.473 1.473s-1.473-0.66-1.473-1.473z"></path>
</svg>
