<?xml version="1.0" encoding="utf-8"?>
<!-- Generated by IcoMoon.io -->
<!DOCTYPE svg PUBLIC "-//W3C//DTD SVG 1.1//EN" "http://www.w3.org/Graphics/SVG/1.1/DTD/svg11.dtd">
<svg version="1.1" xmlns="http://www.w3.org/2000/svg" xmlns:xlink="http://www.w3.org/1999/xlink" width="32" height="32" viewBox="0 0 32 32">
<path d="M27.917 5h-23.833c-1.513 0-2.75 1.237-2.75 2.75v16.5c0 1.512 1.237 2.75 2.75 2.75h23.833c1.512 0 2.75-1.238 2.75-2.75v-16.5c0-1.513-1.238-2.75-2.75-2.75zM4.083 6.833h23.833c0.497 0 0.917 0.42 0.917 0.917v2.75h-25.667v-2.75c0-0.497 0.42-0.917 0.917-0.917zM27.917 25.167h-23.833c-0.497 0-0.917-0.42-0.917-0.917v-8.25h25.667v8.25c0 0.497-0.42 0.917-0.917 0.917zM5 19.667h1.833v3.667h-1.833zM8.667 19.667h1.833v3.667h-1.833zM12.333 19.667h1.833v3.667h-1.833z"></path>
</svg>
