<?xml version="1.0" encoding="utf-8"?>
<!-- Generated by IcoMoon.io -->
<!DOCTYPE svg PUBLIC "-//W3C//DTD SVG 1.1//EN" "http://www.w3.org/Graphics/SVG/1.1/DTD/svg11.dtd">
<svg version="1.1" xmlns="http://www.w3.org/2000/svg" xmlns:xlink="http://www.w3.org/1999/xlink" width="32" height="32" viewBox="0 0 32 32">
<path d="M30.663 25.062c-0-0-0-0-0-0l-9.062-9.062 9.062-9.062c0-0 0-0 0-0 0.098-0.098 0.168-0.212 0.213-0.333 0.124-0.332 0.053-0.72-0.214-0.987l-4.281-4.281c-0.267-0.267-0.655-0.337-0.987-0.214-0.121 0.045-0.235 0.116-0.333 0.213 0 0-0 0-0 0l-9.062 9.062-9.062-9.062c-0-0-0-0-0-0-0.098-0.097-0.212-0.168-0.333-0.213-0.332-0.124-0.72-0.053-0.987 0.214l-4.281 4.281c-0.267 0.267-0.337 0.655-0.214 0.987 0.045 0.121 0.116 0.235 0.213 0.333 0 0 0 0 0 0l9.062 9.062-9.062 9.062c-0 0-0 0-0 0-0.097 0.098-0.168 0.212-0.213 0.333-0.124 0.332-0.053 0.72 0.214 0.987l4.281 4.281c0.267 0.267 0.655 0.337 0.987 0.214 0.121-0.045 0.235-0.116 0.333-0.213 0-0 0-0 0-0l9.062-9.062 9.062 9.062c0 0 0 0 0 0 0.098 0.098 0.212 0.168 0.333 0.213 0.332 0.124 0.72 0.053 0.987-0.214l4.281-4.281c0.267-0.267 0.337-0.655 0.214-0.987-0.045-0.121-0.116-0.235-0.213-0.333z"></path>
</svg>
