<?xml version="1.0" encoding="utf-8"?>
<!-- Generated by IcoMoon.io -->
<!DOCTYPE svg PUBLIC "-//W3C//DTD SVG 1.1//EN" "http://www.w3.org/Graphics/SVG/1.1/DTD/svg11.dtd">
<svg version="1.1" xmlns="http://www.w3.org/2000/svg" xmlns:xlink="http://www.w3.org/1999/xlink" width="32" height="32" viewBox="0 0 32 32">
<path d="M16 31c8.284 0 15-6.716 15-15s-6.716-15-15-15-15 6.716-15 15 6.716 15 15 15zM16 3.813c6.731 0 12.188 5.457 12.188 12.188s-5.457 12.188-12.188 12.188-12.188-5.457-12.188-12.188 5.457-12.188 12.188-12.188z"></path>
<path d="M24.438 12.25h-3.75c-0.518 0-0.938-0.42-0.938-0.938s0.42-0.938 0.938-0.938h3.75c0.518 0 0.938 0.42 0.938 0.938s-0.42 0.938-0.938 0.938z"></path>
<path d="M11.313 12.25h-3.75c-0.518 0-0.938-0.42-0.938-0.938s0.42-0.938 0.938-0.938h3.75c0.518 0 0.938 0.42 0.938 0.938s-0.42 0.938-0.938 0.938z"></path>
<path d="M18.813 26.078c-0.24 0-0.48-0.092-0.663-0.275-0.134-0.134-0.862-0.428-2.15-0.428s-2.015 0.294-2.15 0.428c-0.366 0.366-0.96 0.366-1.326 0s-0.366-0.96 0-1.326c0.882-0.882 2.724-0.978 3.475-0.978s2.593 0.095 3.475 0.978c0.366 0.366 0.366 0.96 0 1.326-0.183 0.183-0.423 0.275-0.663 0.275z"></path>
<path d="M22.563 17.875c-0.518 0-0.938-0.42-0.938-0.938v-1.875c0-0.518 0.42-0.938 0.938-0.938s0.938 0.42 0.938 0.938v1.875c0 0.518-0.42 0.938-0.938 0.938z"></path>
<path d="M22.563 23.5c-0.518 0-0.938-0.42-0.938-0.938v-1.875c0-0.518 0.42-0.938 0.938-0.938s0.938 0.42 0.938 0.938v1.875c0 0.518-0.42 0.938-0.938 0.938z"></path>
<path d="M9.438 17.875c-0.518 0-0.938-0.42-0.938-0.938v-1.875c0-0.518 0.42-0.938 0.938-0.938s0.938 0.42 0.938 0.938v1.875c0 0.518-0.42 0.938-0.938 0.938z"></path>
<path d="M9.438 23.5c-0.518 0-0.938-0.42-0.938-0.938v-1.875c0-0.518 0.42-0.938 0.938-0.938s0.938 0.42 0.938 0.938v1.875c0 0.518-0.42 0.938-0.938 0.938z"></path>
</svg>
