<?xml version="1.0" encoding="utf-8"?>
<!-- Generated by IcoMoon.io -->
<!DOCTYPE svg PUBLIC "-//W3C//DTD SVG 1.1//EN" "http://www.w3.org/Graphics/SVG/1.1/DTD/svg11.dtd">
<svg version="1.1" xmlns="http://www.w3.org/2000/svg" xmlns:xlink="http://www.w3.org/1999/xlink" width="32" height="32" viewBox="0 0 32 32">
<path d="M16 1c-8.284 0-15 6.716-15 15s6.716 15 15 15 15-6.716 15-15-6.716-15-15-15zM10.375 22.563c0 0.518-0.42 0.938-0.938 0.938s-0.938-0.42-0.938-0.938v-1.875c0-0.518 0.42-0.938 0.938-0.938s0.938 0.42 0.938 0.938v1.875zM10.375 16.938c0 0.518-0.42 0.938-0.938 0.938s-0.938-0.42-0.938-0.938v-1.875c0-0.518 0.42-0.938 0.938-0.938s0.938 0.42 0.938 0.938v1.875zM11.313 12.25h-3.75c-0.518 0-0.938-0.42-0.938-0.938s0.42-0.938 0.938-0.938h3.75c0.518 0 0.938 0.42 0.938 0.938s-0.42 0.938-0.938 0.938zM19.475 25.803c-0.183 0.183-0.423 0.275-0.663 0.275s-0.48-0.092-0.663-0.275c-0.134-0.134-0.862-0.428-2.15-0.428s-2.015 0.294-2.15 0.428c-0.366 0.366-0.96 0.366-1.326 0s-0.366-0.96 0-1.326c0.882-0.882 2.724-0.978 3.475-0.978s2.593 0.095 3.475 0.978c0.366 0.366 0.366 0.96 0 1.326zM23.5 22.563c0 0.518-0.42 0.938-0.938 0.938s-0.938-0.42-0.938-0.938v-1.875c0-0.518 0.42-0.938 0.938-0.938s0.938 0.42 0.938 0.938v1.875zM23.5 16.938c0 0.518-0.42 0.938-0.938 0.938s-0.938-0.42-0.938-0.938v-1.875c0-0.518 0.42-0.938 0.938-0.938s0.938 0.42 0.938 0.938v1.875zM24.438 12.25h-3.75c-0.518 0-0.938-0.42-0.938-0.938s0.42-0.938 0.938-0.938h3.75c0.518 0 0.938 0.42 0.938 0.938s-0.42 0.938-0.938 0.938z"></path>
</svg>
