<?xml version="1.0" encoding="utf-8"?>
<!-- Generated by IcoMoon.io -->
<!DOCTYPE svg PUBLIC "-//W3C//DTD SVG 1.1//EN" "http://www.w3.org/Graphics/SVG/1.1/DTD/svg11.dtd">
<svg version="1.1" xmlns="http://www.w3.org/2000/svg" xmlns:xlink="http://www.w3.org/1999/xlink" width="32" height="32" viewBox="0 0 32 32">
<path d="M26.313 6.625h-15c-2.578 0-4.688 2.109-4.688 4.688v15c0 2.578 2.109 4.688 4.688 4.688h15c2.578 0 4.688-2.109 4.688-4.688v-15c0-2.578-2.109-4.688-4.688-4.688zM13.188 27.25c-1.553 0-2.813-1.259-2.813-2.813s1.259-2.813 2.813-2.813 2.813 1.259 2.813 2.813-1.259 2.813-2.813 2.813zM13.188 16c-1.553 0-2.813-1.259-2.813-2.813s1.259-2.813 2.813-2.813 2.813 1.259 2.813 2.813-1.259 2.813-2.813 2.813zM18.813 21.625c-1.553 0-2.813-1.259-2.813-2.813s1.259-2.813 2.813-2.813 2.813 1.259 2.813 2.813-1.259 2.813-2.813 2.813zM24.438 27.25c-1.553 0-2.813-1.259-2.813-2.813s1.259-2.813 2.813-2.813 2.813 1.259 2.813 2.813-1.259 2.813-2.813 2.813zM24.438 16c-1.553 0-2.813-1.259-2.813-2.813s1.259-2.813 2.813-2.813 2.813 1.259 2.813 2.813-1.259 2.813-2.813 2.813zM25.28 4.75c-0.437-2.133-2.335-3.75-4.593-3.75h-15c-2.578 0-4.688 2.109-4.688 4.688v15c0 2.257 1.617 4.155 3.75 4.593v-18.655c0-1.031 0.844-1.875 1.875-1.875h18.655z"></path>
</svg>
