<?xml version="1.0" encoding="utf-8"?>
<!-- Generated by IcoMoon.io -->
<!DOCTYPE svg PUBLIC "-//W3C//DTD SVG 1.1//EN" "http://www.w3.org/Graphics/SVG/1.1/DTD/svg11.dtd">
<svg version="1.1" xmlns="http://www.w3.org/2000/svg" xmlns:xlink="http://www.w3.org/1999/xlink" width="32" height="32" viewBox="0 0 32 32">
<path d="M30.346 15.432l-7.273-9.091c-0.173-0.216-0.434-0.341-0.71-0.341h-12.727c-0.276 0-0.537 0.125-0.71 0.341l-7.273 9.091c-0.129 0.161-0.199 0.361-0.199 0.568v8.182c0 1.004 0.814 1.818 1.818 1.818h25.455c1.004 0 1.818-0.814 1.818-1.818v-8.182c0-0.206-0.070-0.407-0.199-0.568zM28.727 16.909h-6.364l-3.636 3.636h-5.455l-3.636-3.636h-6.364v-0.59l6.801-8.501h11.853l6.801 8.501v0.59z"></path>
<path d="M22.364 11.455h-12.727c-0.502 0-0.909-0.407-0.909-0.909s0.407-0.909 0.909-0.909h12.727c0.502 0 0.909 0.407 0.909 0.909s-0.407 0.909-0.909 0.909z"></path>
<path d="M24.182 15.091h-16.364c-0.502 0-0.909-0.407-0.909-0.909s0.407-0.909 0.909-0.909h16.364c0.502 0 0.909 0.407 0.909 0.909s-0.407 0.909-0.909 0.909z"></path>
</svg>
