<?xml version="1.0" encoding="utf-8"?>
<!-- Generated by IcoMoon.io -->
<!DOCTYPE svg PUBLIC "-//W3C//DTD SVG 1.1//EN" "http://www.w3.org/Graphics/SVG/1.1/DTD/svg11.dtd">
<svg version="1.1" xmlns="http://www.w3.org/2000/svg" xmlns:xlink="http://www.w3.org/1999/xlink" width="32" height="32" viewBox="0 0 32 32">
<path d="M26.331 14.862c-1.926-5.374-6.009-10.2-10.331-13.862-4.322 3.662-8.404 8.488-10.331 13.862-1.191 3.323-1.309 6.931 0.369 10.119 1.929 3.666 5.819 6.019 9.962 6.019s8.033-2.352 9.962-6.019c1.678-3.189 1.56-6.796 0.369-10.119zM22.643 23.235c-1.283 2.439-3.891 4.015-6.643 4.015-1.615 0-3.179-0.543-4.456-1.484 0.388 0.050 0.78 0.078 1.175 0.078 3.44 0 6.699-1.969 8.303-5.017 1.315-2.499 1.201-5.093 0.7-7.158 0.427 0.825 0.788 1.646 1.080 2.459 0.662 1.848 1.173 4.58-0.157 7.108z"></path>
</svg>
