<?xml version="1.0" encoding="utf-8"?>
<!-- Generated by IcoMoon.io -->
<!DOCTYPE svg PUBLIC "-//W3C//DTD SVG 1.1//EN" "http://www.w3.org/Graphics/SVG/1.1/DTD/svg11.dtd">
<svg version="1.1" xmlns="http://www.w3.org/2000/svg" xmlns:xlink="http://www.w3.org/1999/xlink" width="32" height="32" viewBox="0 0 32 32">
<path d="M16 1c-8.284 0-15 6.716-15 15s6.716 15 15 15 15-6.716 15-15-6.716-15-15-15zM16 29.125c-1.844 0-3.6-0.381-5.192-1.068l6.831-7.684c0.153-0.172 0.237-0.393 0.237-0.623v-2.813c0-0.518-0.42-0.938-0.938-0.938-3.31 0-6.803-3.441-6.837-3.475-0.176-0.176-0.414-0.275-0.663-0.275h-3.75c-0.518 0-0.938 0.42-0.938 0.938v5.625c0 0.355 0.201 0.68 0.518 0.839l3.232 1.616v5.504c-3.4-2.372-5.625-6.311-5.625-10.771 0-2.013 0.454-3.92 1.264-5.625h3.424c0.249 0 0.487-0.099 0.663-0.275l3.75-3.75c0.176-0.176 0.275-0.414 0.275-0.663v-2.268c1.188-0.354 2.447-0.545 3.75-0.545 2.063 0 4.014 0.476 5.75 1.324-0.121 0.103-0.24 0.21-0.353 0.323-1.062 1.062-1.648 2.475-1.648 3.977s0.585 2.915 1.648 3.977c1.067 1.067 2.497 1.648 3.974 1.648 0.093 0 0.186-0.002 0.279-0.007 0.405 1.518 1.135 5.468-0.246 10.908-0.013 0.051-0.020 0.102-0.025 0.153-2.383 2.434-5.704 3.945-9.379 3.945z"></path>
</svg>
