<?xml version="1.0" encoding="utf-8"?>
<!-- Generated by IcoMoon.io -->
<!DOCTYPE svg PUBLIC "-//W3C//DTD SVG 1.1//EN" "http://www.w3.org/Graphics/SVG/1.1/DTD/svg11.dtd">
<svg version="1.1" xmlns="http://www.w3.org/2000/svg" xmlns:xlink="http://www.w3.org/1999/xlink" width="32" height="32" viewBox="0 0 32 32">
<path d="M2.633 13.866c0.849-6.702 5.423-12.781 13.619-12.866 4.947 0.096 9.017 2.338 11.44 6.611 1.217 2.23 1.596 4.574 1.675 7.16v3.040h-18.187c0.085 7.5 11.038 7.245 15.753 3.94v6.108c-2.762 1.659-9.028 3.142-13.879 1.234-4.132-1.551-7.075-5.875-7.059-10.036-0.136-5.394 2.683-8.966 7.059-10.998-0.928 1.149-1.636 2.417-2.004 4.613h10.268c0 0 0.6-6.136-5.813-6.136-6.045 0.209-10.404 3.725-12.872 7.33v0z"></path>
</svg>
