<?xml version="1.0" encoding="utf-8"?>
<!-- Generated by IcoMoon.io -->
<!DOCTYPE svg PUBLIC "-//W3C//DTD SVG 1.1//EN" "http://www.w3.org/Graphics/SVG/1.1/DTD/svg11.dtd">
<svg version="1.1" xmlns="http://www.w3.org/2000/svg" xmlns:xlink="http://www.w3.org/1999/xlink" width="32" height="32" viewBox="0 0 32 32">
<path d="M16 1c-8.284 0-15 6.716-15 15s6.716 15 15 15 15-6.716 15-15-6.716-15-15-15zM25.159 18.273c-1.078 4.181-4.844 7.102-9.159 7.102s-8.082-2.921-9.16-7.102c-0.183-0.708 0.245-1.432 0.952-1.615 0.109-0.028 0.221-0.042 0.332-0.042 0.604 0 1.132 0.409 1.283 0.995 0.777 3.010 3.488 5.113 6.592 5.113s5.816-2.102 6.592-5.113c0.151-0.586 0.678-0.996 1.282-0.996 0.112 0 0.224 0.014 0.333 0.043 0.343 0.088 0.631 0.305 0.811 0.611s0.23 0.662 0.141 1.005z"></path>
</svg>
