<?xml version="1.0" encoding="utf-8"?>
<!-- Generated by IcoMoon.io -->
<!DOCTYPE svg PUBLIC "-//W3C//DTD SVG 1.1//EN" "http://www.w3.org/Graphics/SVG/1.1/DTD/svg11.dtd">
<svg version="1.1" xmlns="http://www.w3.org/2000/svg" xmlns:xlink="http://www.w3.org/1999/xlink" width="32" height="32" viewBox="0 0 32 32">
<path d="M28 4h-24c-1.523 0-2.769 1.246-2.769 2.769v18.462c0 1.523 1.246 2.769 2.769 2.769h24c1.523 0 2.769-1.246 2.769-2.769v-18.462c0-1.523-1.246-2.769-2.769-2.769zM12.733 16.184l-7.81 6.083v-14.47l7.81 8.387zM6.319 7.692h19.363l-9.681 7.269-9.681-7.269zM13.037 16.511l2.963 3.182 2.963-3.182 6.074 7.797h-18.073l6.074-7.797zM19.267 16.184l7.81-8.387v14.47l-7.81-6.083z"></path>
</svg>
