<?xml version="1.0" encoding="utf-8"?>
<!-- Generated by IcoMoon.io -->
<!DOCTYPE svg PUBLIC "-//W3C//DTD SVG 1.1//EN" "http://www.w3.org/Graphics/SVG/1.1/DTD/svg11.dtd">
<svg version="1.1" xmlns="http://www.w3.org/2000/svg" xmlns:xlink="http://www.w3.org/1999/xlink" width="32" height="32" viewBox="0 0 32 32">
<path d="M27.25 14.125h0.469c0.773 0 1.406-0.633 1.406-1.406v-4.688c0-0.773-0.633-1.406-1.406-1.406h-0.469v-5.625h-3.75v5.625h-0.469c-0.773 0-1.406 0.633-1.406 1.406v4.688c0 0.773 0.633 1.406 1.406 1.406h0.469v16.875h3.75v-16.875zM23.5 8.5h3.75v3.75h-3.75v-3.75zM18.344 25.375c0.773 0 1.406-0.633 1.406-1.406v-4.688c0-0.773-0.633-1.406-1.406-1.406h-0.469v-16.875h-3.75v16.875h-0.469c-0.773 0-1.406 0.633-1.406 1.406v4.688c0 0.773 0.633 1.406 1.406 1.406h0.469v5.625h3.75v-5.625h0.469zM14.125 19.75h3.75v3.75h-3.75v-3.75zM8.969 14.125c0.773 0 1.406-0.633 1.406-1.406v-4.688c0-0.773-0.633-1.406-1.406-1.406h-0.469v-5.625h-3.75v5.625h-0.469c-0.773 0-1.406 0.633-1.406 1.406v4.688c0 0.773 0.633 1.406 1.406 1.406h0.469v16.875h3.75v-16.875h0.469zM4.75 8.5h3.75v3.75h-3.75v-3.75z"></path>
</svg>
