<?xml version="1.0" encoding="utf-8"?>
<!-- Generated by IcoMoon.io -->
<!DOCTYPE svg PUBLIC "-//W3C//DTD SVG 1.1//EN" "http://www.w3.org/Graphics/SVG/1.1/DTD/svg11.dtd">
<svg version="1.1" xmlns="http://www.w3.org/2000/svg" xmlns:xlink="http://www.w3.org/1999/xlink" width="32" height="32" viewBox="0 0 32 32">
<path d="M14.143 4.857v-0.464c0-0.766-0.627-1.393-1.393-1.393h-4.643c-0.766 0-1.393 0.627-1.393 1.393v0.464h-5.571v3.714h5.571v0.464c0 0.766 0.627 1.393 1.393 1.393h4.643c0.766 0 1.393-0.627 1.393-1.393v-0.464h16.714v-3.714h-16.714zM8.571 8.571v-3.714h3.714v3.714h-3.714zM25.286 13.679c0-0.766-0.627-1.393-1.393-1.393h-4.643c-0.766 0-1.393 0.627-1.393 1.393v0.464h-16.714v3.714h16.714v0.464c0 0.766 0.627 1.393 1.393 1.393h4.643c0.766 0 1.393-0.627 1.393-1.393v-0.464h5.571v-3.714h-5.571v-0.464zM19.714 17.857v-3.714h3.714v3.714h-3.714zM14.143 22.964c0-0.766-0.627-1.393-1.393-1.393h-4.643c-0.766 0-1.393 0.627-1.393 1.393v0.464h-5.571v3.714h5.571v0.464c0 0.766 0.627 1.393 1.393 1.393h4.643c0.766 0 1.393-0.627 1.393-1.393v-0.464h16.714v-3.714h-16.714v-0.464zM8.571 27.143v-3.714h3.714v3.714h-3.714z"></path>
</svg>
