<?xml version="1.0" encoding="utf-8"?>
<!-- Generated by IcoMoon.io -->
<!DOCTYPE svg PUBLIC "-//W3C//DTD SVG 1.1//EN" "http://www.w3.org/Graphics/SVG/1.1/DTD/svg11.dtd">
<svg version="1.1" xmlns="http://www.w3.org/2000/svg" xmlns:xlink="http://www.w3.org/1999/xlink" width="32" height="32" viewBox="0 0 32 32">
<path d="M30.118 4.529c0-1.255-0.263-2.449-0.735-3.529-0.926 2.119-2.659 3.803-4.811 4.665-2.377-1.819-5.348-2.9-8.571-2.9s-6.195 1.081-8.571 2.9c-2.152-0.862-3.886-2.546-4.811-4.665-0.472 1.081-0.735 2.274-0.735 3.529 0 2.029 0.685 3.897 1.836 5.387-1.168 2.055-1.836 4.432-1.836 6.966 0 7.797 6.321 14.118 14.118 14.118s14.118-6.321 14.118-14.118c0-2.533-0.668-4.91-1.836-6.966 1.151-1.49 1.836-3.359 1.836-5.387zM17.767 13.257c0.056-1.309 1.247-2.177 2.25-2.678 0.958-0.479 1.905-0.719 1.945-0.729 0.473-0.118 0.952 0.169 1.070 0.642s-0.169 0.952-0.642 1.070c-0.486 0.123-1.062 0.334-1.57 0.589 0.294 0.315 0.474 0.738 0.474 1.202 0 0.975-0.79 1.765-1.765 1.765s-1.765-0.79-1.765-1.765c0-0.032 0.001-0.064 0.003-0.096zM8.968 10.492c0.118-0.473 0.597-0.76 1.070-0.642 0.040 0.010 0.987 0.25 1.945 0.729 1.003 0.502 2.194 1.37 2.25 2.678 0.002 0.032 0.003 0.064 0.003 0.096 0 0.975-0.79 1.765-1.765 1.765s-1.765-0.79-1.765-1.765c0-0.465 0.18-0.887 0.474-1.202-0.508-0.255-1.084-0.466-1.57-0.589-0.473-0.118-0.76-0.597-0.642-1.070zM16 25.706c-3.213 0-6.024-1.717-7.567-4.283l2.27-1.362c1.080 1.796 3.048 2.998 5.297 2.998s4.217-1.202 5.297-2.998l2.27 1.362c-1.543 2.566-4.354 4.283-7.567 4.283z"></path>
</svg>
