<?xml version="1.0" encoding="utf-8"?>
<!-- Generated by IcoMoon.io -->
<!DOCTYPE svg PUBLIC "-//W3C//DTD SVG 1.1//EN" "http://www.w3.org/Graphics/SVG/1.1/DTD/svg11.dtd">
<svg version="1.1" xmlns="http://www.w3.org/2000/svg" xmlns:xlink="http://www.w3.org/1999/xlink" width="32" height="32" viewBox="0 0 32 32">
<path d="M28.667 2.54c-0.544-0.544-1.427-0.544-1.971 0l-5.87 5.87c-1.508-0.457-3.105-0.703-4.759-0.703-6.484 0-12.104 3.776-14.866 9.291 1.194 2.384 2.922 4.443 5.024 6.013l-4.615 4.615c-0.544 0.544-0.544 1.427 0 1.971 0.272 0.272 0.629 0.408 0.985 0.408s0.713-0.136 0.985-0.408l25.086-25.086c0.544-0.544 0.544-1.427 0-1.971zM13.281 11.422c1.226 0 2.267 0.792 2.64 1.893l-3.534 3.534c-1.1-0.373-1.893-1.413-1.893-2.64 0-1.539 1.248-2.787 2.787-2.787zM4.4 16.997c1.112-1.757 2.592-3.25 4.339-4.364 0.114-0.073 0.229-0.143 0.344-0.212-0.289 0.793-0.447 1.65-0.447 2.543 0 1.594 0.502 3.070 1.356 4.28l-1.769 1.769c-1.523-1.070-2.822-2.435-3.823-4.017z"></path>
<path d="M23.501 14.965c0-0.789-0.124-1.549-0.351-2.262l-9.344 9.344c0.713 0.228 1.473 0.351 2.262 0.351 4.105 0 7.433-3.328 7.433-7.433z"></path>
<path d="M25.302 10.551l-2.014 2.014c0.037 0.023 0.073 0.046 0.11 0.069 1.747 1.114 3.227 2.607 4.339 4.364-1.112 1.757-2.592 3.25-4.339 4.364-2.195 1.4-4.729 2.14-7.33 2.14-1.123 0-2.233-0.138-3.309-0.408l-2.233 2.233c1.734 0.623 3.599 0.962 5.541 0.962 6.484 0 12.104-3.776 14.866-9.291-1.307-2.611-3.255-4.831-5.632-6.446z"></path>
</svg>
