<?xml version="1.0" encoding="utf-8"?>
<!-- Generated by IcoMoon.io -->
<!DOCTYPE svg PUBLIC "-//W3C//DTD SVG 1.1//EN" "http://www.w3.org/Graphics/SVG/1.1/DTD/svg11.dtd">
<svg version="1.1" xmlns="http://www.w3.org/2000/svg" xmlns:xlink="http://www.w3.org/1999/xlink" width="32" height="32" viewBox="0 0 32 32">
<path d="M30.769 7.692h-3.692v-3.692h-3.692v3.692h-3.692v3.692h3.692v3.692h3.692v-3.692h3.692z"></path>
<path d="M26.15 16.866c0.532 0.591 1.015 1.227 1.443 1.903-1.105 1.746-2.575 3.229-4.311 4.335-2.181 1.391-4.699 2.126-7.282 2.126s-5.102-0.735-7.282-2.126c-1.735-1.107-3.206-2.59-4.31-4.335 1.105-1.746 2.575-3.229 4.311-4.335 0.113-0.072 0.227-0.142 0.342-0.211-0.287 0.788-0.445 1.639-0.445 2.527 0 4.078 3.306 7.385 7.385 7.385s7.385-3.306 7.385-7.385c0-0.020-0.001-0.040-0.001-0.060-3.152-0.812-5.489-3.653-5.537-7.047-0.607-0.069-1.223-0.104-1.847-0.104-6.442 0-12.025 3.751-14.769 9.231 2.744 5.48 8.327 9.231 14.769 9.231s12.025-3.751 14.769-9.231c-0.509-1.016-1.116-1.973-1.807-2.857-0.845 0.496-1.796 0.828-2.812 0.954zM13.231 13.231c1.529 0 2.769 1.24 2.769 2.769s-1.24 2.769-2.769 2.769-2.769-1.24-2.769-2.769 1.24-2.769 2.769-2.769z"></path>
</svg>
