<?xml version="1.0" encoding="utf-8"?>
<!-- Generated by IcoMoon.io -->
<!DOCTYPE svg PUBLIC "-//W3C//DTD SVG 1.1//EN" "http://www.w3.org/Graphics/SVG/1.1/DTD/svg11.dtd">
<svg version="1.1" xmlns="http://www.w3.org/2000/svg" xmlns:xlink="http://www.w3.org/1999/xlink" width="32" height="32" viewBox="0 0 32 32">
<path d="M19.636 6h10.909v3.636h-10.909v-3.636z"></path>
<path d="M26.18 11.455h-8.361v-3.534c-0.597-0.067-1.204-0.103-1.818-0.103-6.344 0-11.843 3.694-14.545 9.091 2.702 5.397 8.201 9.091 14.545 9.091s11.843-3.694 14.545-9.091c-1.062-2.122-2.557-3.98-4.366-5.455zM13.273 11.455c1.506 0 2.727 1.221 2.727 2.727s-1.221 2.727-2.727 2.727-2.727-1.221-2.727-2.727 1.221-2.727 2.727-2.727zM23.172 21.179c-2.148 1.37-4.628 2.094-7.172 2.094s-5.024-0.724-7.172-2.094c-1.709-1.090-3.157-2.55-4.245-4.27 1.088-1.719 2.536-3.18 4.245-4.27 0.111-0.071 0.224-0.14 0.337-0.207-0.283 0.776-0.438 1.614-0.438 2.489 0 4.017 3.256 7.273 7.273 7.273s7.273-3.256 7.273-7.273c0-0.874-0.155-1.712-0.438-2.489 0.113 0.068 0.226 0.136 0.337 0.207 1.709 1.090 3.157 2.55 4.245 4.27-1.088 1.719-2.536 3.18-4.245 4.27z"></path>
</svg>
