<?xml version="1.0" encoding="utf-8"?>
<!-- Generated by IcoMoon.io -->
<!DOCTYPE svg PUBLIC "-//W3C//DTD SVG 1.1//EN" "http://www.w3.org/Graphics/SVG/1.1/DTD/svg11.dtd">
<svg version="1.1" xmlns="http://www.w3.org/2000/svg" xmlns:xlink="http://www.w3.org/1999/xlink" width="32" height="32" viewBox="0 0 32 32">
<path d="M16 7c-6.281 0-11.725 3.657-14.4 9 2.675 5.343 8.119 9 14.4 9s11.725-3.657 14.4-9c-2.675-5.343-8.119-9-14.4-9zM23.1 11.773c1.692 1.079 3.126 2.525 4.203 4.227-1.077 1.702-2.511 3.148-4.203 4.227-2.126 1.356-4.581 2.073-7.1 2.073s-4.974-0.717-7.1-2.073c-1.692-1.079-3.126-2.525-4.203-4.227 1.077-1.702 2.511-3.148 4.203-4.227 0.11-0.070 0.222-0.138 0.334-0.205-0.28 0.769-0.433 1.598-0.433 2.464 0 3.976 3.224 7.2 7.2 7.2s7.2-3.224 7.2-7.2c0-0.866-0.153-1.695-0.433-2.464 0.112 0.067 0.223 0.135 0.334 0.205v0zM16 13.3c0 1.491-1.209 2.7-2.7 2.7s-2.7-1.209-2.7-2.7 1.209-2.7 2.7-2.7 2.7 1.209 2.7 2.7z"></path>
</svg>
