<?xml version="1.0" encoding="utf-8"?>
<!-- Generated by IcoMoon.io -->
<!DOCTYPE svg PUBLIC "-//W3C//DTD SVG 1.1//EN" "http://www.w3.org/Graphics/SVG/1.1/DTD/svg11.dtd">
<svg version="1.1" xmlns="http://www.w3.org/2000/svg" xmlns:xlink="http://www.w3.org/1999/xlink" width="32" height="32" viewBox="0 0 32 32">
<path d="M29.554 2.46c-1.445-1.445-3.789-1.445-5.234 0l-4.977 4.977-3.51-3.51-3.926 3.926 3.077 3.077-13.652 13.652c-0.233 0.233-0.332 0.548-0.298 0.852h-0.007v4.627c0 0.511 0.414 0.925 0.925 0.925h4.627c0 0 0.077 0 0.116 0 0.266 0 0.533-0.102 0.736-0.305l13.652-13.652 3.077 3.077 3.926-3.926-3.51-3.51 4.977-4.977c1.445-1.445 1.445-3.789 0-5.234zM6.033 29.135h-3.154v-3.154l13.578-13.578 3.154 3.154-13.578 13.578z"></path>
</svg>
