<?xml version="1.0" encoding="utf-8"?>
<!-- Generated by IcoMoon.io -->
<!DOCTYPE svg PUBLIC "-//W3C//DTD SVG 1.1//EN" "http://www.w3.org/Graphics/SVG/1.1/DTD/svg11.dtd">
<svg version="1.1" xmlns="http://www.w3.org/2000/svg" xmlns:xlink="http://www.w3.org/1999/xlink" width="32" height="32" viewBox="0 0 32 32">
<path d="M21.221 14.819c-1.777-0.839-4.042-1.008-5.708 0.177 2.026-0.193 4.247 0.142 5.716 1.674 1.406-1.614 3.636-1.916 5.653-1.75-1.684-1.117-3.903-0.967-5.661-0.101v0zM20.501 18.747c-2.003-0.046-3.939 0.679-5.599 1.761-3.14-1.336-7.111-1.088-9.785 1.142 0.771-0.027 1.524-0.218 2.287-0.316 2.789-0.278 5.759 0.414 7.867 2.339 0.872-1.276 2.099-2.292 3.505-2.927 1.848-0.894 3.93-0.987 5.942-1.011-1.221-0.839-2.772-0.995-4.217-0.987z"></path>
<path d="M27.889 7.711c-0.651-0.887-1.558-1.925-2.554-2.921s-2.034-1.903-2.921-2.554c-1.511-1.108-2.244-1.236-2.664-1.236h-14.531c-1.292 0-2.344 1.051-2.344 2.344v25.313c0 1.292 1.051 2.344 2.344 2.344h21.563c1.292 0 2.344-1.051 2.344-2.344v-18.281c0-0.42-0.128-1.153-1.236-2.664v0zM24.009 6.116c0.899 0.899 1.605 1.711 2.126 2.384h-4.51v-4.51c0.673 0.521 1.485 1.227 2.384 2.126v0zM27.25 28.656c0 0.254-0.215 0.469-0.469 0.469h-21.563c-0.254 0-0.469-0.215-0.469-0.469v-25.313c0-0.254 0.215-0.469 0.469-0.469 0 0 14.53-0 14.531 0v6.563c0 0.518 0.42 0.938 0.938 0.938h6.563v18.281z"></path>
</svg>
