<?xml version="1.0" encoding="utf-8"?>
<!-- Generated by IcoMoon.io -->
<!DOCTYPE svg PUBLIC "-//W3C//DTD SVG 1.1//EN" "http://www.w3.org/Graphics/SVG/1.1/DTD/svg11.dtd">
<svg version="1.1" xmlns="http://www.w3.org/2000/svg" xmlns:xlink="http://www.w3.org/1999/xlink" width="32" height="32" viewBox="0 0 32 32">
<path d="M25.668 18.27c-0.4-0.394-1.287-0.603-2.636-0.62-0.913-0.010-2.013 0.070-3.169 0.232-0.518-0.299-1.052-0.624-1.47-1.015-1.127-1.052-2.067-2.513-2.654-4.119 0.038-0.15 0.071-0.282 0.101-0.416 0 0 0.635-3.605 0.467-4.824-0.023-0.167-0.037-0.216-0.082-0.346l-0.055-0.142c-0.173-0.398-0.511-0.82-1.042-0.797l-0.32-0.010c-0.592 0-1.074 0.303-1.201 0.755-0.385 1.419 0.012 3.542 0.732 6.291l-0.184 0.448c-0.515 1.256-1.161 2.521-1.731 3.637l-0.074 0.145c-0.599 1.173-1.143 2.169-1.636 3.012l-0.509 0.269c-0.037 0.020-0.909 0.481-1.114 0.605-1.736 1.037-2.886 2.213-3.077 3.147-0.061 0.298-0.016 0.679 0.293 0.856l0.492 0.248c0.214 0.107 0.439 0.161 0.67 0.161 1.236 0 2.672-1.54 4.649-4.991 2.283-0.743 4.882-1.361 7.16-1.702 1.736 0.978 3.871 1.657 5.219 1.657 0.239 0 0.446-0.023 0.613-0.067 0.258-0.068 0.476-0.216 0.609-0.416 0.262-0.394 0.314-0.936 0.244-1.491-0.021-0.165-0.153-0.368-0.295-0.507zM7.201 24.849c0.226-0.616 1.118-1.835 2.438-2.917 0.083-0.067 0.287-0.259 0.474-0.437-1.38 2.201-2.304 3.078-2.912 3.353zM15.017 6.85c0.397 0 0.624 1.002 0.642 1.941s-0.201 1.598-0.473 2.086c-0.226-0.722-0.335-1.86-0.335-2.605 0 0-0.017-1.423 0.166-1.423v0zM12.685 19.677c0.277-0.496 0.565-1.018 0.859-1.573 0.718-1.357 1.171-2.419 1.508-3.291 0.671 1.221 1.507 2.259 2.49 3.091 0.123 0.104 0.253 0.208 0.389 0.312-1.998 0.395-3.726 0.876-5.246 1.461v0zM25.284 19.564c-0.122 0.076-0.47 0.12-0.695 0.12-0.724 0-1.619-0.331-2.875-0.869 0.482-0.036 0.925-0.054 1.321-0.054 0.726 0 0.941-0.003 1.651 0.178s0.719 0.549 0.597 0.625v0z"></path>
<path d="M27.889 7.711c-0.651-0.887-1.558-1.925-2.554-2.921s-2.034-1.903-2.921-2.554c-1.511-1.108-2.244-1.236-2.664-1.236h-14.531c-1.292 0-2.344 1.051-2.344 2.344v25.313c0 1.292 1.051 2.344 2.344 2.344h21.563c1.292 0 2.344-1.051 2.344-2.344v-18.281c0-0.42-0.128-1.153-1.236-2.664v0zM24.009 6.116c0.899 0.899 1.605 1.711 2.126 2.384h-4.51v-4.51c0.673 0.521 1.485 1.227 2.384 2.126v0zM27.25 28.656c0 0.254-0.215 0.469-0.469 0.469h-21.563c-0.254 0-0.469-0.215-0.469-0.469v-25.313c0-0.254 0.215-0.469 0.469-0.469 0 0 14.53-0 14.531 0v6.563c0 0.518 0.42 0.938 0.938 0.938h6.563v18.281z"></path>
</svg>
