<?xml version="1.0" encoding="utf-8"?>
<!-- Generated by IcoMoon.io -->
<!DOCTYPE svg PUBLIC "-//W3C//DTD SVG 1.1//EN" "http://www.w3.org/Graphics/SVG/1.1/DTD/svg11.dtd">
<svg version="1.1" xmlns="http://www.w3.org/2000/svg" xmlns:xlink="http://www.w3.org/1999/xlink" width="32" height="32" viewBox="0 0 32 32">
<path d="M27.889 7.711c-0.651-0.887-1.558-1.925-2.554-2.921s-2.034-1.903-2.921-2.554c-1.511-1.108-2.244-1.236-2.664-1.236h-14.531c-1.292 0-2.344 1.051-2.344 2.344v25.313c0 1.292 1.051 2.344 2.344 2.344h21.563c1.292 0 2.344-1.051 2.344-2.344v-18.281c0-0.42-0.128-1.153-1.236-2.664v0 0zM24.009 6.116c0.899 0.899 1.605 1.711 2.126 2.384h-4.51v-4.51c0.673 0.521 1.485 1.227 2.384 2.126v0 0zM27.25 28.656c0 0.254-0.215 0.469-0.469 0.469h-21.563c-0.254 0-0.469-0.215-0.469-0.469v-25.313c0-0.254 0.215-0.469 0.469-0.469 0 0 14.53-0 14.531 0v6.563c0 0.518 0.42 0.938 0.938 0.938h6.563v18.281z"></path>
<path d="M8.5 2.875h3.75v1.875h-3.75v-1.875z"></path>
<path d="M12.25 4.75h3.75v1.875h-3.75v-1.875z"></path>
<path d="M8.5 6.625h3.75v1.875h-3.75v-1.875z"></path>
<path d="M12.25 8.5h3.75v1.875h-3.75v-1.875z"></path>
<path d="M8.5 10.375h3.75v1.875h-3.75v-1.875z"></path>
<path d="M12.25 12.25h3.75v1.875h-3.75v-1.875z"></path>
<path d="M8.5 14.125h3.75v1.875h-3.75v-1.875z"></path>
<path d="M12.25 16h3.75v1.875h-3.75v-1.875z"></path>
<path d="M8.5 25.844c0 0.773 0.633 1.406 1.406 1.406h4.688c0.773 0 1.406-0.633 1.406-1.406v-4.688c0-0.773-0.633-1.406-1.406-1.406h-2.344v-1.875h-3.75v7.969zM14.125 23.5v1.875h-3.75v-1.875h3.75z"></path>
</svg>
