<?xml version="1.0" encoding="utf-8"?>
<!-- Generated by IcoMoon.io -->
<!DOCTYPE svg PUBLIC "-//W3C//DTD SVG 1.1//EN" "http://www.w3.org/Graphics/SVG/1.1/DTD/svg11.dtd">
<svg version="1.1" xmlns="http://www.w3.org/2000/svg" xmlns:xlink="http://www.w3.org/1999/xlink" width="32" height="32" viewBox="0 0 32 32">
<path d="M19.744 14.942h1.295l-1.494 6.626-1.943-9.317h-3.122l-2.259 9.317-1.694-9.317h-3.264l3.313 14.996h3.189l2.235-8.868 2 8.868h2.94l3.798-14.996h-4.994v2.69z"></path>
<path d="M27.889 7.711c-0.651-0.887-1.558-1.925-2.554-2.921s-2.034-1.903-2.921-2.554c-1.511-1.108-2.244-1.236-2.664-1.236h-14.531c-1.292 0-2.344 1.051-2.344 2.344v25.313c0 1.292 1.051 2.344 2.344 2.344h21.563c1.292 0 2.344-1.051 2.344-2.344v-18.281c0-0.42-0.128-1.153-1.236-2.664v0zM24.009 6.116c0.899 0.899 1.605 1.711 2.126 2.384h-4.51v-4.51c0.673 0.521 1.485 1.227 2.384 2.126v0zM27.25 28.656c0 0.254-0.215 0.469-0.469 0.469h-21.563c-0.254 0-0.469-0.215-0.469-0.469v-25.313c0-0.254 0.215-0.469 0.469-0.469 0 0 14.53-0 14.531 0v6.563c0 0.518 0.42 0.938 0.938 0.938h6.563v18.281z"></path>
</svg>
