<?xml version="1.0" encoding="utf-8"?>
<!-- Generated by IcoMoon.io -->
<!DOCTYPE svg PUBLIC "-//W3C//DTD SVG 1.1//EN" "http://www.w3.org/Graphics/SVG/1.1/DTD/svg11.dtd">
<svg version="1.1" xmlns="http://www.w3.org/2000/svg" xmlns:xlink="http://www.w3.org/1999/xlink" width="32" height="32" viewBox="0 0 32 32">
<path d="M27.889 7.711c-0.651-0.887-1.558-1.925-2.554-2.921s-2.034-1.903-2.921-2.554c-1.511-1.108-2.244-1.236-2.664-1.236h-14.531c-1.292 0-2.344 1.051-2.344 2.344v25.313c0 1.292 1.051 2.344 2.344 2.344h21.563c1.292 0 2.344-1.051 2.344-2.344v-18.281c0-0.42-0.128-1.153-1.236-2.664v0zM24.009 6.116c0.899 0.899 1.605 1.711 2.126 2.384h-4.51v-4.51c0.673 0.521 1.485 1.227 2.384 2.126v0zM27.25 28.656c0 0.254-0.215 0.469-0.469 0.469h-21.563c-0.254 0-0.469-0.215-0.469-0.469v-25.313c0-0.254 0.215-0.469 0.469-0.469 0 0 14.53-0 14.531 0v6.563c0 0.518 0.42 0.938 0.938 0.938h6.563v18.281z"></path>
<path d="M23.157 12.462c-0.217-0.178-0.503-0.249-0.778-0.194l-9.375 1.875c-0.438 0.088-0.754 0.472-0.754 0.919v6.94c-0.552-0.239-1.192-0.377-1.875-0.377-2.071 0-3.75 1.259-3.75 2.813s1.679 2.813 3.75 2.813 3.75-1.259 3.75-2.813v-6.731l7.5-1.5v3.921c-0.552-0.239-1.192-0.377-1.875-0.377-2.071 0-3.75 1.259-3.75 2.813s1.679 2.813 3.75 2.813 3.75-1.259 3.75-2.813v-9.375c0-0.281-0.126-0.547-0.343-0.725z"></path>
</svg>
