<?xml version="1.0" encoding="utf-8"?>
<!-- Generated by IcoMoon.io -->
<!DOCTYPE svg PUBLIC "-//W3C//DTD SVG 1.1//EN" "http://www.w3.org/Graphics/SVG/1.1/DTD/svg11.dtd">
<svg version="1.1" xmlns="http://www.w3.org/2000/svg" xmlns:xlink="http://www.w3.org/1999/xlink" width="32" height="32" viewBox="0 0 32 32">
<path d="M8.043 28.849c-1.713-3.564-0.801-5.606 0.516-7.53 1.442-2.107 1.813-4.193 1.813-4.193s1.133 1.473 0.68 3.777c2.002-2.229 2.38-5.779 2.078-7.139 4.525 3.162 6.459 10.010 3.853 15.085 13.863-7.843 3.448-19.58 1.635-20.902 0.604 1.322 0.719 3.56-0.502 4.646-2.067-7.837-7.177-9.443-7.177-9.443 0.604 4.042-2.191 8.461-4.886 11.763-0.095-1.612-0.195-2.724-1.043-4.266-0.19 2.928-2.428 5.314-3.034 8.247-0.821 3.972 0.615 6.881 6.067 9.954z"></path>
</svg>
