<?xml version="1.0" encoding="utf-8"?>
<!-- Generated by IcoMoon.io -->
<!DOCTYPE svg PUBLIC "-//W3C//DTD SVG 1.1//EN" "http://www.w3.org/Graphics/SVG/1.1/DTD/svg11.dtd">
<svg version="1.1" xmlns="http://www.w3.org/2000/svg" xmlns:xlink="http://www.w3.org/1999/xlink" width="32" height="32" viewBox="0 0 32 32">
<path d="M29.554 11.181l-0.329 2.112c0 0-0.471-3.911-1.048-5.373-0.884-2.24-1.278-2.222-1.28-2.219 0.592 1.505 0.485 2.314 0.485 2.314s-1.049-2.86-3.824-3.77c-3.073-1.007-4.736-0.732-4.928-0.68-0.029-0-0.057-0-0.084-0 0.023 0.002 0.045 0.004 0.067 0.006-0.001 0.001-0.003 0.001-0.002 0.001 0.012 0.015 3.396 0.591 3.996 1.416 0 0-1.437 0-2.867 0.412-0.065 0.019 5.262 0.665 6.351 5.988 0 0-0.584-1.218-1.306-1.425 0.475 1.445 0.353 4.186-0.099 5.549-0.058 0.175-0.118-0.758-1.009-1.159 0.285 2.045-0.017 5.288-1.436 6.182-0.111 0.070 0.889-3.202 0.201-1.937-3.962 6.075-8.646 2.804-10.752 1.364 1.079 0.235 3.128-0.037 4.035-0.711 0.001-0.001 0.002-0.002 0.003-0.002 0.985-0.673 1.568-1.165 2.092-1.049s0.873-0.409 0.466-0.875c-0.407-0.468-1.397-1.11-2.736-0.76-0.944 0.247-2.114 1.292-3.9 0.234-1.371-0.812-1.5-1.487-1.512-1.954 0.034-0.166 0.076-0.32 0.127-0.462 0.158-0.441 0.636-0.574 0.902-0.679 0.451 0.078 0.84 0.218 1.249 0.428 0.005-0.136 0.007-0.316-0.001-0.521 0.039-0.078 0.015-0.312-0.048-0.599-0.036-0.286-0.095-0.582-0.187-0.852 0-0 0.001-0 0.001-0 0.002-0.001 0.003-0.001 0.004-0.002s0.004-0.003 0.006-0.005c0-0.001 0.001-0.001 0.001-0.001 0.002-0.003 0.004-0.008 0.005-0.013 0.028-0.128 0.334-0.376 0.714-0.641 0.341-0.238 0.741-0.491 1.057-0.687 0.279-0.173 0.492-0.302 0.537-0.336 0.017-0.013 0.038-0.028 0.060-0.045 0.004-0.003 0.008-0.006 0.013-0.010 0.003-0.002 0.005-0.004 0.008-0.006 0.15-0.12 0.374-0.346 0.421-0.821 0-0.001 0-0.002 0-0.003 0.001-0.014 0.003-0.028 0.004-0.043 0.001-0.010 0.001-0.020 0.002-0.030 0-0.008 0.001-0.016 0.001-0.024 0.001-0.019 0.001-0.038 0.002-0.057 0-0.001 0-0.002 0-0.003 0.001-0.046-0-0.094-0.003-0.144-0.002-0.028-0.004-0.054-0.008-0.077-0-0.001-0.001-0.003-0.001-0.004-0.001-0.002-0.001-0.005-0.002-0.007-0.001-0.004-0.002-0.008-0.003-0.012-0-0.001-0-0.001-0-0.001-0.001-0.004-0.003-0.009-0.005-0.013-0-0-0-0-0-0-0.049-0.114-0.231-0.157-0.984-0.17-0.001-0-0.001-0-0.002-0v0c-0.307-0.005-0.709-0.005-1.236-0.003-0.923 0.004-1.434-0.902-1.596-1.253 0.223-1.234 0.868-2.114 1.928-2.711 0.020-0.011 0.016-0.021-0.008-0.027 0.207-0.125-2.506-0.003-3.754 1.584-1.108-0.275-2.073-0.257-2.905-0.061-0.16-0.005-0.359-0.024-0.595-0.074-0.553-0.501-1.345-1.427-1.388-2.532 0 0-0.003 0.002-0.007 0.006-0.001-0.011-0.002-0.021-0.002-0.032 0 0-1.686 1.296-1.433 4.828-0.001 0.057-0.002 0.111-0.003 0.163-0.456 0.619-0.683 1.139-0.699 1.254-0.404 0.823-0.815 2.062-1.148 3.942 0 0 0.233-0.74 0.702-1.579-0.345 1.056-0.615 2.698-0.456 5.16 0 0 0.042-0.546 0.191-1.333 0.116 1.527 0.625 3.413 1.912 5.631 2.47 4.257 6.266 6.407 10.462 6.736 0.745 0.061 1.501 0.063 2.261 0.005 0.070-0.005 0.14-0.010 0.21-0.016 0.86-0.060 1.725-0.19 2.589-0.399 11.805-2.854 10.522-17.109 10.522-17.109z"></path>
</svg>
