<?xml version="1.0" encoding="utf-8"?>
<!-- Generated by IcoMoon.io -->
<!DOCTYPE svg PUBLIC "-//W3C//DTD SVG 1.1//EN" "http://www.w3.org/Graphics/SVG/1.1/DTD/svg11.dtd">
<svg version="1.1" xmlns="http://www.w3.org/2000/svg" xmlns:xlink="http://www.w3.org/1999/xlink" width="32" height="32" viewBox="0 0 32 32">
<path d="M1 1h3.75v30h-3.75v-30z"></path>
<path d="M25.375 19.838c2.421 0 4.528-0.585 5.625-1.45v-15c-1.097 0.865-3.204 1.45-5.625 1.45s-4.528-0.585-5.625-1.45v15c1.097 0.865 3.204 1.45 5.625 1.45z"></path>
<path d="M18.813 1.953c-1.374-0.584-3.384-0.953-5.625-0.953-2.824 0-5.283 0.585-6.563 1.45v15c1.279-0.865 3.738-1.45 6.563-1.45 2.241 0 4.251 0.369 5.625 0.953v-15z"></path>
</svg>
