<?xml version="1.0" encoding="utf-8"?>
<!-- Generated by IcoMoon.io -->
<!DOCTYPE svg PUBLIC "-//W3C//DTD SVG 1.1//EN" "http://www.w3.org/Graphics/SVG/1.1/DTD/svg11.dtd">
<svg version="1.1" xmlns="http://www.w3.org/2000/svg" xmlns:xlink="http://www.w3.org/1999/xlink" width="32" height="32" viewBox="0 0 32 32">
<path d="M28.188 1h-24.375c-1.547 0-2.813 1.266-2.813 2.813v24.375c0 1.547 1.266 2.813 2.813 2.813h24.375c1.547 0 2.813-1.266 2.813-2.813v-24.375c0-1.547-1.266-2.813-2.813-2.813zM9.438 20.688c-2.59 0-4.688-2.098-4.688-4.688s2.098-4.688 4.688-4.688 4.688 2.098 4.688 4.688-2.098 4.688-4.688 4.688zM22.563 20.688c-2.59 0-4.688-2.098-4.688-4.688s2.098-4.688 4.688-4.688c2.59 0 4.688 2.098 4.688 4.688s-2.098 4.688-4.688 4.688z"></path>
</svg>
