<?xml version="1.0" encoding="utf-8"?>
<!-- Generated by IcoMoon.io -->
<!DOCTYPE svg PUBLIC "-//W3C//DTD SVG 1.1//EN" "http://www.w3.org/Graphics/SVG/1.1/DTD/svg11.dtd">
<svg version="1.1" xmlns="http://www.w3.org/2000/svg" xmlns:xlink="http://www.w3.org/1999/xlink" width="32" height="32" viewBox="0 0 32 32">
<path d="M16 1c-8.228 0-14.898 6.716-14.898 15s6.67 15 14.898 15 14.898-6.716 14.898-15-6.67-15-14.898-15zM9.482 20.554c-2.571 0-4.656-2.084-4.656-4.656s2.084-4.656 4.656-4.656 4.656 2.084 4.656 4.656c0 2.571-2.084 4.656-4.656 4.656zM22.518 20.554c-2.571 0-4.656-2.084-4.656-4.656s2.084-4.656 4.656-4.656 4.656 2.084 4.656 4.656c0 2.571-2.084 4.656-4.656 4.656z"></path>
</svg>
