<?xml version="1.0" encoding="utf-8"?>
<!-- Generated by IcoMoon.io -->
<!DOCTYPE svg PUBLIC "-//W3C//DTD SVG 1.1//EN" "http://www.w3.org/Graphics/SVG/1.1/DTD/svg11.dtd">
<svg version="1.1" xmlns="http://www.w3.org/2000/svg" xmlns:xlink="http://www.w3.org/1999/xlink" width="32" height="32" viewBox="0 0 32 32">
<path d="M23.714 12.571c-1.891 0-3.429 1.538-3.429 3.429s1.538 3.429 3.429 3.429c1.891 0 3.429-1.538 3.429-3.429s-1.538-3.429-3.429-3.429zM23.714 10v0c3.314 0 6 2.686 6 6s-2.686 6-6 6-6-2.686-6-6c0-3.314 2.686-6 6-6zM2.286 16c0-3.314 2.686-6 6-6s6 2.686 6 6c0 3.314-2.686 6-6 6s-6-2.686-6-6z"></path>
</svg>
