<?xml version="1.0" encoding="utf-8"?>
<!-- Generated by IcoMoon.io -->
<!DOCTYPE svg PUBLIC "-//W3C//DTD SVG 1.1//EN" "http://www.w3.org/Graphics/SVG/1.1/DTD/svg11.dtd">
<svg version="1.1" xmlns="http://www.w3.org/2000/svg" xmlns:xlink="http://www.w3.org/1999/xlink" width="32" height="32" viewBox="0 0 32 32">
<path d="M24.426 1.475c-2.652 0-4.354-0.475-7.085-0.475-8.827 0-12.943 5.027-12.943 10.133 0 3.008 1.425 3.998 4.235 3.998-0.198-0.435-0.554-0.911-0.554-3.048 0-5.977 2.256-7.718 5.146-7.837 0 0-2.371 23.243-9.251 26.032v0.723h9.275l3.165-15h5.796l1.291-3.75h-6.296l1.522-7.213c1.742 0.356 3.444 0.712 4.908 0.712 1.821 0 3.483-0.554 4.394-4.75-1.108 0.356-2.296 0.475-3.602 0.475z"></path>
</svg>
