<?xml version="1.0" encoding="utf-8"?>
<!-- Generated by IcoMoon.io -->
<!DOCTYPE svg PUBLIC "-//W3C//DTD SVG 1.1//EN" "http://www.w3.org/Graphics/SVG/1.1/DTD/svg11.dtd">
<svg version="1.1" xmlns="http://www.w3.org/2000/svg" xmlns:xlink="http://www.w3.org/1999/xlink" width="32" height="32" viewBox="0 0 32 32">
<path d="M27.852 1.874c-0.404-0.549-1.045-0.874-1.726-0.874h-20.357c-1.183 0-2.143 0.959-2.143 2.143v25.714c0 0.867 0.522 1.648 1.323 1.98 0.265 0.11 0.544 0.163 0.82 0.163 0.558 0 1.106-0.218 1.516-0.628l7.944-7.944h5.541c0.937 0 1.766-0.609 2.045-1.504l5.357-17.143c0.203-0.651 0.085-1.359-0.319-1.909zM21.872 9.571h-7.532c-1.183 0-2.143 0.959-2.143 2.143s0.959 2.143 2.143 2.143h6.192l-1.339 4.286h-4.853c-0.568 0-1.113 0.226-1.515 0.628l-4.913 4.913v-18.398h15.3l-1.339 4.286z"></path>
</svg>
