<?xml version="1.0" encoding="utf-8"?>
<!-- Generated by IcoMoon.io -->
<!DOCTYPE svg PUBLIC "-//W3C//DTD SVG 1.1//EN" "http://www.w3.org/Graphics/SVG/1.1/DTD/svg11.dtd">
<svg version="1.1" xmlns="http://www.w3.org/2000/svg" xmlns:xlink="http://www.w3.org/1999/xlink" width="32" height="32" viewBox="0 0 32 32">
<path d="M8.5 20.219v2.813c0 0.254 0.215 0.469 0.469 0.469h3.281v-3.75h-3.281c-0.254 0-0.469 0.215-0.469 0.469z"></path>
<path d="M14.125 19.75h3.75v3.75h-3.75v-3.75z"></path>
<path d="M23.031 19.75h-3.281v3.75h3.281c0.254 0 0.469-0.215 0.469-0.469v-2.813c0-0.254-0.215-0.469-0.469-0.469z"></path>
<path d="M16 1c-8.284 0-15 6.716-15 15s6.716 15 15 15 15-6.716 15-15-6.716-15-15-15zM17.878 12.148c0.060-1.39 1.325-2.313 2.39-2.846 1.018-0.509 2.024-0.763 2.067-0.774 0.502-0.126 1.011 0.18 1.137 0.682s-0.18 1.011-0.682 1.137c-0.516 0.13-1.129 0.355-1.668 0.626 0.312 0.335 0.503 0.784 0.503 1.278 0 1.036-0.839 1.875-1.875 1.875s-1.875-0.839-1.875-1.875c0-0.034 0.001-0.068 0.003-0.102zM8.528 9.21c0.126-0.502 0.635-0.808 1.137-0.682 0.042 0.011 1.049 0.265 2.067 0.774 1.066 0.533 2.331 1.456 2.39 2.846 0.002 0.034 0.003 0.068 0.003 0.102 0 1.036-0.839 1.875-1.875 1.875s-1.875-0.839-1.875-1.875c0-0.494 0.191-0.943 0.503-1.278-0.539-0.27-1.152-0.495-1.668-0.626-0.502-0.126-0.808-0.635-0.682-1.137zM25.375 23.031c0 1.292-1.051 2.344-2.344 2.344h-14.063c-1.292 0-2.344-1.051-2.344-2.344v-2.813c0-1.292 1.051-2.344 2.344-2.344h14.063c1.292 0 2.344 1.051 2.344 2.344v2.813z"></path>
</svg>
