<?xml version="1.0" encoding="utf-8"?>
<!-- Generated by IcoMoon.io -->
<!DOCTYPE svg PUBLIC "-//W3C//DTD SVG 1.1//EN" "http://www.w3.org/Graphics/SVG/1.1/DTD/svg11.dtd">
<svg version="1.1" xmlns="http://www.w3.org/2000/svg" xmlns:xlink="http://www.w3.org/1999/xlink" width="32" height="32" viewBox="0 0 32 32">
<path d="M23.693 10.132c0.537-0.382 1.053-0.807 1.525-1.279 0.99-0.99 1.652-2.208 1.865-3.43 0.233-1.339-0.109-2.583-0.938-3.412-0.661-0.661-1.557-1.010-2.59-1.010-1.471 0-3.021 0.706-4.253 1.938-1.971 1.971-3.119 4.691-3.737 6.632-0.458-1.951-1.37-4.584-3.143-6.357-0.951-0.951-2.167-1.44-3.315-1.44-0.938 0-1.831 0.326-2.498 0.993-1.482 1.482-1.282 4.084 0.447 5.813 0.616 0.616 1.337 1.128 2.096 1.554h-6.433v7.589h1.897v13.28h22.765v-13.28h1.897v-7.588h-5.587zM20.812 4.447c0.822-0.822 1.847-1.312 2.743-1.312 0.317 0 0.762 0.067 1.080 0.385 0.772 0.772 0.338 2.558-0.927 3.824-1.303 1.303-3.055 2.199-4.578 2.788h-1.502c0.55-1.706 1.543-4.045 3.183-5.685zM7.757 5.415c-0.021-0.27-0.002-0.778 0.362-1.141 0.304-0.304 0.705-0.367 0.989-0.367v0c0.63 0 1.288 0.297 1.806 0.815 1.004 1.004 1.831 2.602 2.391 4.621 0.015 0.055 0.030 0.109 0.044 0.163-0.054-0.014-0.108-0.029-0.163-0.044-2.019-0.56-3.616-1.387-4.62-2.391-0.469-0.469-0.764-1.072-0.809-1.654zM14.103 29.103h-7.588v-12.331h7.588v12.331zM14.103 15.823h-9.486v-3.794h9.486v3.794zM25.486 29.103h-7.588v-12.331h7.588v12.331zM27.383 15.823h-9.486v-3.794h9.486v3.794z"></path>
</svg>
