<?xml version="1.0" encoding="utf-8"?>
<!-- Generated by IcoMoon.io -->
<!DOCTYPE svg PUBLIC "-//W3C//DTD SVG 1.1//EN" "http://www.w3.org/Graphics/SVG/1.1/DTD/svg11.dtd">
<svg version="1.1" xmlns="http://www.w3.org/2000/svg" xmlns:xlink="http://www.w3.org/1999/xlink" width="32" height="32" viewBox="0 0 32 32">
<path d="M30.255 14.681l-12.936-12.935c-0.745-0.745-1.953-0.745-2.698 0l-3.006 3.005 2.262 2.262c0.363-0.173 0.769-0.271 1.197-0.271 1.534 0 2.777 1.244 2.777 2.777 0 0.429-0.097 0.835-0.271 1.197l3.703 3.703c0.363-0.173 0.769-0.271 1.197-0.271 1.534 0 2.777 1.244 2.777 2.777s-1.244 2.777-2.777 2.777-2.777-1.244-2.777-2.777c0-0.429 0.097-0.835 0.271-1.197l-3.703-3.703c-0.088 0.042-0.179 0.079-0.271 0.112v7.724c1.079 0.381 1.852 1.41 1.852 2.619 0 1.534-1.244 2.777-2.777 2.777s-2.777-1.244-2.777-2.777c0-1.209 0.773-2.237 1.852-2.619v-7.724c-1.079-0.381-1.852-1.41-1.852-2.619 0-0.429 0.097-0.835 0.271-1.197l-2.262-2.262-8.561 8.56c-0.745 0.746-0.745 1.954 0 2.699l12.936 12.935c0.745 0.745 1.952 0.745 2.698 0l12.875-12.875c0.745-0.745 0.745-1.954-0-2.699z"></path>
</svg>
