<?xml version="1.0" encoding="utf-8"?>
<!-- Generated by IcoMoon.io -->
<!DOCTYPE svg PUBLIC "-//W3C//DTD SVG 1.1//EN" "http://www.w3.org/Graphics/SVG/1.1/DTD/svg11.dtd">
<svg version="1.1" xmlns="http://www.w3.org/2000/svg" xmlns:xlink="http://www.w3.org/1999/xlink" width="32" height="32" viewBox="0 0 32 32">
<path d="M16 1.331c-8.272 0-14.979 6.706-14.979 14.979 0 6.618 4.292 12.233 10.243 14.213 0.749 0.139 1.024-0.325 1.024-0.721 0-0.357-0.014-1.537-0.020-2.789-4.167 0.906-5.047-1.767-5.047-1.767-0.681-1.731-1.663-2.192-1.663-2.192-1.359-0.93 0.103-0.911 0.103-0.911 1.504 0.106 2.296 1.544 2.296 1.544 1.336 2.29 3.504 1.628 4.359 1.245 0.134-0.968 0.522-1.629 0.951-2.003-3.327-0.379-6.825-1.663-6.825-7.403 0-1.635 0.585-2.972 1.544-4.021-0.156-0.377-0.669-1.901 0.145-3.964 0 0 1.258-0.402 4.12 1.536 1.195-0.332 2.476-0.498 3.749-0.504 1.273 0.006 2.555 0.172 3.752 0.504 2.859-1.938 4.115-1.536 4.115-1.536 0.815 2.063 0.303 3.587 0.147 3.964 0.96 1.049 1.542 2.385 1.542 4.021 0 5.753-3.504 7.020-6.84 7.391 0.537 0.465 1.016 1.376 1.016 2.774 0 2.004-0.017 3.617-0.017 4.111 0 0.399 0.27 0.866 1.029 0.719 5.948-1.983 10.235-7.596 10.235-14.211 0-8.273-6.706-14.979-14.979-14.979z"></path>
</svg>
