<?xml version="1.0" encoding="utf-8"?>
<!-- Generated by IcoMoon.io -->
<!DOCTYPE svg PUBLIC "-//W3C//DTD SVG 1.1//EN" "http://www.w3.org/Graphics/SVG/1.1/DTD/svg11.dtd">
<svg version="1.1" xmlns="http://www.w3.org/2000/svg" xmlns:xlink="http://www.w3.org/1999/xlink" width="32" height="32" viewBox="0 0 32 32">
<path d="M23.787 1.494c-0.163-0.304-0.481-0.494-0.826-0.494h-13.922c-0.345 0-0.663 0.19-0.826 0.494-1.039 1.934-1.588 4.195-1.588 6.537 0 3.088 0.948 6.001 2.671 8.201 1.331 1.701 3.002 2.828 4.829 3.286v9.606h-2.813c-0.518 0-0.938 0.42-0.938 0.938s0.42 0.938 0.938 0.938h9.375c0.518 0 0.938-0.42 0.938-0.938s-0.42-0.938-0.938-0.938h-2.813v-9.606c1.827-0.458 3.499-1.586 4.829-3.286 1.722-2.2 2.671-5.113 2.671-8.201 0-2.343-0.549-4.603-1.588-6.537zM9.616 2.875h12.768c0.732 1.55 1.116 3.32 1.116 5.156 0 0.157-0.003 0.313-0.009 0.469h-14.983c-0.006-0.155-0.009-0.312-0.009-0.469-0-1.836 0.385-3.606 1.116-5.156z"></path>
</svg>
