<?xml version="1.0" encoding="utf-8"?>
<!-- Generated by IcoMoon.io -->
<!DOCTYPE svg PUBLIC "-//W3C//DTD SVG 1.1//EN" "http://www.w3.org/Graphics/SVG/1.1/DTD/svg11.dtd">
<svg version="1.1" xmlns="http://www.w3.org/2000/svg" xmlns:xlink="http://www.w3.org/1999/xlink" width="32" height="32" viewBox="0 0 32 32">
<path d="M28.628 2.733c0.253-0.323 0.3-0.761 0.121-1.13s-0.554-0.603-0.964-0.603h-23.571c-0.41 0-0.784 0.234-0.964 0.603s-0.132 0.808 0.121 1.13l10.485 13.345v12.779h-3.214c-0.592 0-1.071 0.48-1.071 1.071s0.48 1.071 1.071 1.071h10.714c0.592 0 1.071-0.48 1.071-1.071s-0.48-1.071-1.071-1.071h-3.214v-12.779l10.485-13.345zM25.581 3.143l-3.367 4.286h-12.428l-3.367-4.286h19.163z"></path>
</svg>
