<?xml version="1.0" encoding="utf-8"?>
<!-- Generated by IcoMoon.io -->
<!DOCTYPE svg PUBLIC "-//W3C//DTD SVG 1.1//EN" "http://www.w3.org/Graphics/SVG/1.1/DTD/svg11.dtd">
<svg version="1.1" xmlns="http://www.w3.org/2000/svg" xmlns:xlink="http://www.w3.org/1999/xlink" width="32" height="32" viewBox="0 0 32 32">
<path d="M10.753 14.69v3.151h5.208c-0.209 1.353-1.573 3.962-5.208 3.962-3.134 0-5.693-2.598-5.693-5.8s2.559-5.8 5.693-5.8c1.787 0 2.976 0.761 3.658 1.415l2.491-2.401c-1.601-1.494-3.675-2.401-6.149-2.401-5.078 0.006-9.182 4.109-9.182 9.187s4.103 9.182 9.182 9.182c5.298 0 8.815-3.726 8.815-8.973 0-0.603-0.068-1.065-0.147-1.522h-8.669z"></path>
<path d="M30.429 14.425h-2.705v-2.705h-2.705v2.705h-2.705v2.705h2.705v2.705h2.705v-2.705h2.705z"></path>
</svg>
