<?xml version="1.0" encoding="utf-8"?>
<!-- Generated by IcoMoon.io -->
<!DOCTYPE svg PUBLIC "-//W3C//DTD SVG 1.1//EN" "http://www.w3.org/Graphics/SVG/1.1/DTD/svg11.dtd">
<svg version="1.1" xmlns="http://www.w3.org/2000/svg" xmlns:xlink="http://www.w3.org/1999/xlink" width="32" height="32" viewBox="0 0 32 32">
<path d="M16.299 13.855v5.145h8.508c-0.346 2.209-2.572 6.469-8.508 6.469-5.121 0-9.299-4.242-9.299-9.469s4.178-9.469 9.299-9.469c2.912 0 4.863 1.242 5.977 2.314l4.072-3.92c-2.613-2.449-6-3.926-10.049-3.926-8.291 0-15 6.709-15 15s6.709 15 15 15c8.654 0 14.402-6.088 14.402-14.654 0-0.984-0.105-1.734-0.234-2.484l-14.168-0.006z"></path>
</svg>
