<?xml version="1.0" encoding="utf-8"?>
<!-- Generated by IcoMoon.io -->
<!DOCTYPE svg PUBLIC "-//W3C//DTD SVG 1.1//EN" "http://www.w3.org/Graphics/SVG/1.1/DTD/svg11.dtd">
<svg version="1.1" xmlns="http://www.w3.org/2000/svg" xmlns:xlink="http://www.w3.org/1999/xlink" width="32" height="32" viewBox="0 0 32 32">
<path d="M28.188 1h-24.375c-1.547 0-2.813 1.266-2.813 2.813v24.375c0 1.547 1.266 2.813 2.813 2.813h24.375c1.547 0 2.813-1.266 2.813-2.813v-24.375c0-1.547-1.266-2.813-2.813-2.813zM16.223 27.25c-6.217 0-11.25-5.033-11.25-11.25s5.033-11.25 11.25-11.25c3.035 0 5.578 1.107 7.535 2.941l-3.053 2.941c-0.838-0.803-2.297-1.734-4.482-1.734-3.844 0-6.973 3.182-6.973 7.102s3.135 7.102 6.973 7.102c4.453 0 6.123-3.199 6.381-4.852h-6.381v-3.855h10.623c0.094 0.563 0.176 1.125 0.176 1.863 0.006 6.428-4.301 10.992-10.799 10.992z"></path>
</svg>
