<?xml version="1.0" encoding="utf-8"?>
<!-- Generated by IcoMoon.io -->
<!DOCTYPE svg PUBLIC "-//W3C//DTD SVG 1.1//EN" "http://www.w3.org/Graphics/SVG/1.1/DTD/svg11.dtd">
<svg version="1.1" xmlns="http://www.w3.org/2000/svg" xmlns:xlink="http://www.w3.org/1999/xlink" width="32" height="32" viewBox="0 0 32 32">
<path d="M16 31c8.284 0 15-6.716 15-15s-6.716-15-15-15-15 6.716-15 15 6.716 15 15 15zM16 3.813c6.731 0 12.188 5.457 12.188 12.188s-5.457 12.188-12.188 12.188-12.188-5.457-12.188-12.188 5.457-12.188 12.188-12.188zM6.625 16v1.875c0 4.125 3.375 7.5 7.5 7.5h3.75c4.125 0 7.5-3.375 7.5-7.5v-1.875h-18.75zM12.25 23.177c-0.777-0.277-1.492-0.727-2.096-1.331-1.067-1.066-1.654-2.477-1.654-3.971h3.75v5.302zM17.875 23.5h-3.75v-5.625h3.75v5.625zM21.846 21.846c-0.604 0.604-1.319 1.054-2.096 1.331v-5.302h3.75c0 1.494-0.587 2.904-1.654 3.971zM7.602 12.25c0 0 0 0 0 0 0.286 0 0.53-0.207 0.578-0.489 0.18-1.075 1.104-1.855 2.195-1.855s2.015 0.78 2.195 1.855c0.047 0.282 0.292 0.489 0.578 0.489s0.53-0.207 0.578-0.489c0.032-0.189 0.048-0.379 0.048-0.566 0-1.874-1.525-3.398-3.398-3.398s-3.398 1.525-3.398 3.398c0 0.187 0.016 0.377 0.048 0.566 0.047 0.282 0.292 0.489 0.578 0.489zM18.852 12.25c0 0 0 0 0 0 0.286 0 0.531-0.207 0.578-0.489 0.18-1.075 1.104-1.855 2.195-1.855s2.015 0.78 2.195 1.855c0.047 0.282 0.292 0.489 0.578 0.489s0.53-0.207 0.578-0.489c0.032-0.189 0.048-0.379 0.048-0.566 0-1.874-1.525-3.398-3.398-3.398s-3.398 1.525-3.398 3.398c0 0.187 0.016 0.377 0.048 0.566 0.048 0.282 0.292 0.489 0.578 0.489z"></path>
</svg>
