<?xml version="1.0" encoding="utf-8"?>
<!-- Generated by IcoMoon.io -->
<!DOCTYPE svg PUBLIC "-//W3C//DTD SVG 1.1//EN" "http://www.w3.org/Graphics/SVG/1.1/DTD/svg11.dtd">
<svg version="1.1" xmlns="http://www.w3.org/2000/svg" xmlns:xlink="http://www.w3.org/1999/xlink" width="32" height="32" viewBox="0 0 32 32">
<path d="M16 1c-8.284 0-15 6.716-15 15s6.716 15 15 15c8.284 0 15-6.716 15-15s-6.716-15-15-15zM21.625 7.914c1.874 0 3.398 1.525 3.398 3.398 0 0.187-0.016 0.377-0.048 0.566-0.047 0.282-0.292 0.489-0.578 0.489s-0.53-0.207-0.578-0.489c-0.18-1.075-1.104-1.562-2.195-1.562s-2.015 0.487-2.195 1.562c-0.047 0.282-0.292 0.489-0.578 0.489-0 0 0 0-0 0-0.286 0-0.53-0.207-0.578-0.489-0.032-0.189-0.048-0.379-0.048-0.566 0-1.874 1.525-3.398 3.398-3.398zM10.375 7.914c1.874 0 3.398 1.525 3.398 3.398 0 0.187-0.016 0.377-0.048 0.566-0.047 0.282-0.292 0.489-0.578 0.489s-0.53-0.207-0.578-0.489c-0.18-1.075-1.104-1.562-2.195-1.562s-2.015 0.487-2.195 1.562c-0.047 0.282-0.292 0.489-0.578 0.489 0 0 0 0 0 0-0.286 0-0.53-0.207-0.578-0.489-0.032-0.189-0.048-0.379-0.048-0.566 0-1.874 1.525-3.398 3.398-3.398zM6.625 17.875h5.625v7.261c-3.225-0.838-5.625-3.783-5.625-7.261zM14.125 25.375v-7.5h3.75v7.5h-3.75zM19.75 25.136v-7.261h5.625c0 3.478-2.4 6.423-5.625 7.261z"></path>
</svg>
