<?xml version="1.0" encoding="utf-8"?>
<!-- Generated by IcoMoon.io -->
<!DOCTYPE svg PUBLIC "-//W3C//DTD SVG 1.1//EN" "http://www.w3.org/Graphics/SVG/1.1/DTD/svg11.dtd">
<svg version="1.1" xmlns="http://www.w3.org/2000/svg" xmlns:xlink="http://www.w3.org/1999/xlink" width="32" height="32" viewBox="0 0 32 32">
<path d="M30.463 27.72l-15.936-14.508 0.742-0.744c0.607-0.609 0.935-1.395 0.985-2.196 0.029-0.013 0.058-0.026 0.086-0.042l2.992-1.871c0.405-0.476 0.375-1.228-0.066-1.67l-5.203-5.217c-0.441-0.442-1.191-0.472-1.666-0.066l-1.866 3c-0.015 0.028-0.029 0.057-0.042 0.086-0.799 0.050-1.583 0.379-2.19 0.988l-2.83 2.838c-0.607 0.609-0.935 1.395-0.985 2.196-0.029 0.013-0.058 0.027-0.086 0.042l-2.991 1.871c-0.405 0.476-0.375 1.228 0.066 1.67l5.203 5.217c0.441 0.443 1.191 0.472 1.666 0.066l1.866-3c0.015-0.028 0.029-0.057 0.042-0.086 0.799-0.050 1.583-0.379 2.19-0.988l0.822-0.824 14.469 15.979c0.419 0.463 1.066 0.538 1.437 0.166l1.463-1.467c0.371-0.372 0.296-1.020-0.166-1.441z"></path>
</svg>
