<?xml version="1.0" encoding="utf-8"?>
<!-- Generated by IcoMoon.io -->
<!DOCTYPE svg PUBLIC "-//W3C//DTD SVG 1.1//EN" "http://www.w3.org/Graphics/SVG/1.1/DTD/svg11.dtd">
<svg version="1.1" xmlns="http://www.w3.org/2000/svg" xmlns:xlink="http://www.w3.org/1999/xlink" width="32" height="32" viewBox="0 0 32 32">
<path d="M16 1c-8.284 0-15 6.716-15 15s6.716 15 15 15 15-6.716 15-15-6.716-15-15-15zM21.625 8.5c1.036 0 1.875 1.259 1.875 2.813s-0.839 2.813-1.875 2.813-1.875-1.259-1.875-2.813 0.839-2.813 1.875-2.813zM10.375 8.5c1.036 0 1.875 1.259 1.875 2.813s-0.839 2.813-1.875 2.813-1.875-1.259-1.875-2.813 0.839-2.813 1.875-2.813zM16 27.25c-4.889 0-8.948-4.098-9.375-9.325 2.747 1.585 5.978 2.492 9.375 2.492s6.628-0.903 9.375-2.488c-0.427 5.228-4.486 9.321-9.375 9.321z"></path>
</svg>
