<?xml version="1.0" encoding="utf-8"?>
<!-- Generated by IcoMoon.io -->
<!DOCTYPE svg PUBLIC "-//W3C//DTD SVG 1.1//EN" "http://www.w3.org/Graphics/SVG/1.1/DTD/svg11.dtd">
<svg version="1.1" xmlns="http://www.w3.org/2000/svg" xmlns:xlink="http://www.w3.org/1999/xlink" width="32" height="32" viewBox="0 0 32 32">
<path d="M16 1c-8.284 0-15 6.716-15 15s6.716 15 15 15 15-6.716 15-15-6.716-15-15-15zM21.625 8.5c1.036 0 1.875 0.839 1.875 1.875s-0.839 1.875-1.875 1.875-1.875-0.839-1.875-1.875 0.839-1.875 1.875-1.875zM10.375 8.5c1.036 0 1.875 0.839 1.875 1.875s-0.839 1.875-1.875 1.875-1.875-0.839-1.875-1.875 0.839-1.875 1.875-1.875zM16.932 20.904c-0.037-0.033-0.073-0.067-0.108-0.102-0.549-0.549-0.824-1.269-0.824-1.988-0 0.72-0.275 1.439-0.824 1.988-0.035 0.035-0.071 0.069-0.108 0.102-2.535 2.3-8.443-0.054-8.443-3.029 1.816 1.172 3.236 0.287 4.574-1.051 1.098-1.098 2.879-1.098 3.978 0 0.549 0.549 0.824 1.269 0.824 1.988 0-0.72 0.275-1.439 0.824-1.988 1.098-1.098 2.879-1.098 3.978 0 1.338 1.338 2.757 2.223 4.574 1.051 0 2.975-5.908 5.329-8.443 3.029z"></path>
</svg>
