<?xml version="1.0" encoding="utf-8"?>
<!-- Generated by IcoMoon.io -->
<!DOCTYPE svg PUBLIC "-//W3C//DTD SVG 1.1//EN" "http://www.w3.org/Graphics/SVG/1.1/DTD/svg11.dtd">
<svg version="1.1" xmlns="http://www.w3.org/2000/svg" xmlns:xlink="http://www.w3.org/1999/xlink" width="32" height="32" viewBox="0 0 32 32">
<path d="M16 31c8.284 0 15-6.716 15-15s-6.716-15-15-15-15 6.716-15 15 6.716 15 15 15zM16 3.813c6.731 0 12.188 5.457 12.188 12.188s-5.457 12.188-12.188 12.188-12.188-5.457-12.188-12.188 5.457-12.188 12.188-12.188zM8.5 10.375c0-1.036 0.839-1.875 1.875-1.875s1.875 0.839 1.875 1.875-0.839 1.875-1.875 1.875-1.875-0.839-1.875-1.875zM19.75 10.375c0-1.036 0.839-1.875 1.875-1.875s1.875 0.839 1.875 1.875-0.839 1.875-1.875 1.875-1.875-0.839-1.875-1.875z"></path>
<path d="M20.801 16.824c-1.098-1.098-2.879-1.098-3.978 0s-1.098 2.879 0 3.978c0.035 0.035 0.071 0.069 0.108 0.102 2.535 2.3 8.443-0.054 8.443-3.029-1.816 1.172-3.236 0.287-4.574-1.051z"></path>
<path d="M11.199 16.824c1.098-1.098 2.879-1.098 3.978 0s1.098 2.879 0 3.978c-0.035 0.035-0.071 0.069-0.108 0.102-2.535 2.3-8.443-0.054-8.443-3.029 1.816 1.172 3.236 0.287 4.574-1.051z"></path>
</svg>
