<?xml version="1.0" encoding="utf-8"?>
<!-- Generated by IcoMoon.io -->
<!DOCTYPE svg PUBLIC "-//W3C//DTD SVG 1.1//EN" "http://www.w3.org/Graphics/SVG/1.1/DTD/svg11.dtd">
<svg version="1.1" xmlns="http://www.w3.org/2000/svg" xmlns:xlink="http://www.w3.org/1999/xlink" width="32" height="32" viewBox="0 0 32 32">
<path d="M18.246 3.424c6.945 0 12.576 5.63 12.576 12.576s-5.63 12.576-12.576 12.576v-2.695c2.639 0 5.121-1.028 6.987-2.894s2.894-4.348 2.894-6.987c0-2.639-1.028-5.121-2.894-6.987s-4.348-2.894-6.987-2.894c-2.639 0-5.121 1.028-6.987 2.894-1.436 1.435-2.374 3.235-2.731 5.19h5.227l-6.288 7.186-6.288-7.186h4.62c0.872-6.094 6.112-10.779 12.447-10.779zM23.635 14.203v3.593h-7.186v-8.983h3.593v5.39z"></path>
</svg>
