<?xml version="1.0" encoding="utf-8"?>
<!-- Generated by IcoMoon.io -->
<!DOCTYPE svg PUBLIC "-//W3C//DTD SVG 1.1//EN" "http://www.w3.org/Graphics/SVG/1.1/DTD/svg11.dtd">
<svg version="1.1" xmlns="http://www.w3.org/2000/svg" xmlns:xlink="http://www.w3.org/1999/xlink" width="32" height="32" viewBox="0 0 32 32">
<path d="M22.357 16c4.036-2.559 6.768-7.477 6.768-13.125 0-0.635-0.035-1.261-0.102-1.875h-26.046c-0.067 0.614-0.102 1.24-0.102 1.875 0 5.648 2.732 10.566 6.768 13.125-4.036 2.559-6.768 7.477-6.768 13.125 0 0.635 0.035 1.261 0.102 1.875h26.046c0.067-0.614 0.102-1.24 0.102-1.875 0-5.648-2.732-10.566-6.768-13.125zM5.688 29.125c0-5.476 2.348-10.12 6.563-11.652v-2.947c-4.214-1.532-6.563-6.176-6.563-11.652v0h20.625c0 5.476-2.349 10.12-6.563 11.652v2.947c4.214 1.532 6.563 6.176 6.563 11.652h-20.625zM19.153 20.617c-2.099-1.191-2.215-2.735-2.216-3.673v-1.882c0-0.937 0.111-2.488 2.219-3.682 1.128-0.655 2.104-1.651 2.843-2.881h-11.999c0.74 1.231 1.717 2.228 2.847 2.883 2.099 1.191 2.215 2.735 2.216 3.673v1.882c0 0.937-0.111 2.488-2.219 3.682-2.128 1.236-3.713 3.682-4.192 6.631h14.697c-0.479-2.95-2.066-5.398-4.196-6.633z"></path>
</svg>
