<?xml version="1.0" encoding="utf-8"?>
<!-- Generated by IcoMoon.io -->
<!DOCTYPE svg PUBLIC "-//W3C//DTD SVG 1.1//EN" "http://www.w3.org/Graphics/SVG/1.1/DTD/svg11.dtd">
<svg version="1.1" xmlns="http://www.w3.org/2000/svg" xmlns:xlink="http://www.w3.org/1999/xlink" width="32" height="32" viewBox="0 0 32 32">
<path d="M8.604 16c0-1.917 1.554-3.47 3.47-3.47s3.47 1.554 3.47 3.47c0 1.916-1.554 3.47-3.47 3.47s-3.47-1.554-3.47-3.47zM16 1c-8.284 0-15 6.716-15 15s6.716 15 15 15c8.284 0 15-6.716 15-15s-6.716-15-15-15zM12.115 29.104c-4.51-2.624-7.543-7.509-7.543-13.104s3.033-10.48 7.543-13.104c4.512 2.624 7.547 7.508 7.547 13.104s-3.035 10.48-7.546 13.104z"></path>
</svg>
