<?xml version="1.0" encoding="utf-8"?>
<!-- Generated by IcoMoon.io -->
<!DOCTYPE svg PUBLIC "-//W3C//DTD SVG 1.1//EN" "http://www.w3.org/Graphics/SVG/1.1/DTD/svg11.dtd">
<svg version="1.1" xmlns="http://www.w3.org/2000/svg" xmlns:xlink="http://www.w3.org/1999/xlink" width="32" height="32" viewBox="0 0 32 32">
<path d="M23.976 18.157h6.904c0.053-0.479 0.075-0.968 0.075-1.468 0-2.346-0.63-4.547-1.729-6.443 1.137-3.022 1.097-5.586-0.426-7.119-1.448-1.441-5.332-1.207-9.723 0.737-0.325-0.025-0.653-0.037-0.984-0.037-6.027 0-11.083 4.147-12.481 9.736 1.891-2.42 3.88-4.175 6.537-5.453-0.242 0.226-1.651 1.628-1.888 1.865-7.007 7.005-9.216 16.154-6.839 18.532 1.807 1.807 5.082 1.502 8.844-0.341 1.749 0.891 3.729 1.393 5.827 1.393 5.649 0 10.436-3.636 12.17-8.7h-6.957c-0.957 1.766-2.83 2.968-4.979 2.968s-4.021-1.202-4.979-2.968c-0.426-0.798-0.67-1.713-0.67-2.681v-0.021h11.298zM12.689 14.764c0.16-2.84 2.521-5.106 5.404-5.106s5.245 2.266 5.404 5.106h-10.808zM28.737 4.556c0.981 0.991 0.956 2.814 0.117 5.090-1.437-2.191-3.525-3.918-5.99-4.903 2.636-1.13 4.779-1.28 5.873-0.187zM5.236 28.056c-1.251-1.252-0.874-3.879 0.738-7.044 1.003 2.816 2.959 5.18 5.479 6.703-2.791 1.267-5.076 1.482-6.217 0.342z"></path>
</svg>
