<?xml version="1.0" encoding="utf-8"?>
<!-- Generated by IcoMoon.io -->
<!DOCTYPE svg PUBLIC "-//W3C//DTD SVG 1.1//EN" "http://www.w3.org/Graphics/SVG/1.1/DTD/svg11.dtd">
<svg version="1.1" xmlns="http://www.w3.org/2000/svg" xmlns:xlink="http://www.w3.org/1999/xlink" width="32" height="32" viewBox="0 0 32 32">
<path d="M28.997 4.857c0.001 0.001 0.002 0.002 0.003 0.003v22.279c-0.001 0.001-0.002 0.002-0.003 0.003h-25.993c-0.001-0.001-0.002-0.002-0.003-0.003v-22.279c0.001-0.001 0.002-0.002 0.003-0.003h25.993zM29 3h-26c-1.021 0-1.857 0.836-1.857 1.857v22.286c0 1.021 0.836 1.857 1.857 1.857h26c1.021 0 1.857-0.836 1.857-1.857v-22.286c0-1.021-0.836-1.857-1.857-1.857v0z"></path>
<path d="M25.286 9.5c0 1.539-1.247 2.786-2.786 2.786s-2.786-1.247-2.786-2.786 1.247-2.786 2.786-2.786 2.786 1.247 2.786 2.786z"></path>
<path d="M27.143 25.286h-22.286v-3.714l6.5-11.143 7.429 9.286h1.857l6.5-5.571z"></path>
</svg>
