<?xml version="1.0" encoding="utf-8"?>
<!-- Generated by IcoMoon.io -->
<!DOCTYPE svg PUBLIC "-//W3C//DTD SVG 1.1//EN" "http://www.w3.org/Graphics/SVG/1.1/DTD/svg11.dtd">
<svg version="1.1" xmlns="http://www.w3.org/2000/svg" xmlns:xlink="http://www.w3.org/1999/xlink" width="32" height="32" viewBox="0 0 32 32">
<path d="M23.366 22.5c-1.736 0-3.368-0.676-4.596-1.904l-2.77-2.77-2.77 2.77c-1.228 1.228-2.86 1.904-4.596 1.904s-3.369-0.676-4.597-1.904c-1.228-1.228-1.904-2.86-1.904-4.596s0.676-3.369 1.904-4.596c1.228-1.228 2.86-1.904 4.596-1.904s3.369 0.676 4.596 1.904l2.77 2.77 2.77-2.77c1.228-1.228 2.86-1.904 4.596-1.904s3.369 0.676 4.596 1.904c1.228 1.228 1.904 2.86 1.904 4.596s-0.676 3.369-1.904 4.596c-1.228 1.228-2.86 1.904-4.596 1.904zM20.597 18.77c0.74 0.74 1.724 1.147 2.77 1.147s2.030-0.407 2.77-1.147c0.74-0.74 1.147-1.724 1.147-2.77s-0.407-2.030-1.147-2.77c-0.74-0.74-1.724-1.147-2.77-1.147s-2.030 0.407-2.77 1.147l-2.77 2.77 2.77 2.77zM8.634 12.083c-1.046 0-2.030 0.407-2.77 1.147s-1.147 1.724-1.147 2.77c0 1.046 0.407 2.030 1.147 2.77s1.724 1.147 2.77 1.147c1.046 0 2.030-0.407 2.77-1.147l2.77-2.77-2.77-2.77c-0.74-0.74-1.724-1.147-2.77-1.147v0z"></path>
</svg>
