<?xml version="1.0" encoding="utf-8"?>
<!-- Generated by IcoMoon.io -->
<!DOCTYPE svg PUBLIC "-//W3C//DTD SVG 1.1//EN" "http://www.w3.org/Graphics/SVG/1.1/DTD/svg11.dtd">
<svg version="1.1" xmlns="http://www.w3.org/2000/svg" xmlns:xlink="http://www.w3.org/1999/xlink" width="32" height="32" viewBox="0 0 32 32">
<path d="M12.25 6.625h3.75v1.875h-3.75zM17.875 6.625h3.75v1.875h-3.75zM27.25 6.625v7.5h-5.625v-1.875h3.75v-3.75h-1.875v-1.875zM10.375 12.25h3.75v1.875h-3.75zM16 12.25h3.75v1.875h-3.75zM6.625 8.5v3.75h1.875v1.875h-3.75v-7.5h5.625v1.875zM12.25 17.875h3.75v1.875h-3.75zM17.875 17.875h3.75v1.875h-3.75zM27.25 17.875v7.5h-5.625v-1.875h3.75v-3.75h-1.875v-1.875zM10.375 23.5h3.75v1.875h-3.75zM16 23.5h3.75v1.875h-3.75zM6.625 19.75v3.75h1.875v1.875h-3.75v-7.5h5.625v1.875zM29.125 2.875h-26.25v26.25h26.25v-26.25zM31 1v0 30h-30v-30h30z"></path>
</svg>
