<?xml version="1.0" encoding="utf-8"?>
<!-- Generated by IcoMoon.io -->
<!DOCTYPE svg PUBLIC "-//W3C//DTD SVG 1.1//EN" "http://www.w3.org/Graphics/SVG/1.1/DTD/svg11.dtd">
<svg version="1.1" xmlns="http://www.w3.org/2000/svg" xmlns:xlink="http://www.w3.org/1999/xlink" width="32" height="32" viewBox="0 0 32 32">
<path d="M16.009 3.702c4.009 0 4.483 0.018 6.060 0.088 1.465 0.064 2.256 0.311 2.784 0.516 0.697 0.27 1.201 0.598 1.723 1.119 0.527 0.527 0.85 1.026 1.125 1.723 0.205 0.527 0.451 1.324 0.516 2.784 0.070 1.582 0.088 2.057 0.088 6.060s-0.018 4.483-0.088 6.060c-0.064 1.465-0.311 2.256-0.516 2.784-0.27 0.697-0.598 1.201-1.119 1.723-0.527 0.527-1.026 0.85-1.723 1.125-0.527 0.205-1.324 0.451-2.784 0.516-1.582 0.070-2.057 0.088-6.060 0.088s-4.483-0.018-6.060-0.088c-1.465-0.064-2.256-0.311-2.784-0.516-0.697-0.27-1.201-0.598-1.723-1.119-0.527-0.527-0.85-1.026-1.125-1.723-0.205-0.527-0.451-1.324-0.516-2.784-0.070-1.582-0.088-2.057-0.088-6.060s0.018-4.483 0.088-6.060c0.064-1.465 0.311-2.256 0.516-2.784 0.27-0.697 0.598-1.201 1.119-1.723 0.527-0.527 1.026-0.85 1.723-1.125 0.527-0.205 1.324-0.451 2.784-0.516 1.576-0.070 2.051-0.088 6.060-0.088zM16.009 1c-4.073 0-4.583 0.018-6.183 0.088-1.594 0.070-2.69 0.328-3.639 0.697-0.99 0.387-1.828 0.897-2.661 1.735-0.838 0.832-1.348 1.67-1.735 2.655-0.369 0.955-0.627 2.045-0.697 3.639-0.070 1.606-0.088 2.116-0.088 6.189s0.018 4.583 0.088 6.183c0.070 1.594 0.328 2.69 0.697 3.639 0.387 0.99 0.897 1.828 1.735 2.661 0.832 0.832 1.67 1.348 2.655 1.729 0.955 0.369 2.045 0.627 3.639 0.697 1.6 0.070 2.11 0.088 6.183 0.088s4.583-0.018 6.183-0.088c1.594-0.070 2.69-0.328 3.639-0.697 0.985-0.381 1.823-0.897 2.655-1.729s1.348-1.67 1.729-2.655c0.369-0.955 0.627-2.045 0.697-3.639 0.070-1.6 0.088-2.11 0.088-6.183s-0.018-4.583-0.088-6.183c-0.070-1.594-0.328-2.69-0.697-3.639-0.369-0.996-0.879-1.834-1.717-2.667-0.832-0.832-1.67-1.348-2.655-1.729-0.955-0.369-2.045-0.627-3.639-0.697-1.606-0.076-2.116-0.094-6.189-0.094v0z"></path>
<path d="M16.009 8.296c-4.255 0-7.707 3.452-7.707 7.707s3.452 7.707 7.707 7.707 7.707-3.452 7.707-7.707c0-4.255-3.452-7.707-7.707-7.707zM16.009 21.002c-2.76 0-4.999-2.239-4.999-4.999s2.239-4.999 4.999-4.999c2.76 0 4.999 2.239 4.999 4.999s-2.239 4.999-4.999 4.999z"></path>
<path d="M25.819 7.992c0 0.994-0.806 1.799-1.799 1.799s-1.799-0.806-1.799-1.799c0-0.994 0.806-1.799 1.799-1.799s1.799 0.806 1.799 1.799z"></path>
</svg>
