<?xml version="1.0" encoding="utf-8"?>
<!-- Generated by IcoMoon.io -->
<!DOCTYPE svg PUBLIC "-//W3C//DTD SVG 1.1//EN" "http://www.w3.org/Graphics/SVG/1.1/DTD/svg11.dtd">
<svg version="1.1" xmlns="http://www.w3.org/2000/svg" xmlns:xlink="http://www.w3.org/1999/xlink" width="32" height="32" viewBox="0 0 32 32">
<path d="M21.625 1c-5.178 0-9.375 4.197-9.375 9.375 0 0.587 0.054 1.161 0.158 1.717l-11.408 11.408v5.625c0 1.036 0.839 1.875 1.875 1.875h1.875v-1.875h3.75v-3.75h3.75v-3.75h3.75l2.433-2.433c0.996 0.361 2.071 0.558 3.192 0.558 5.178 0 9.375-4.197 9.375-9.375s-4.197-9.375-9.375-9.375zM24.434 10.379c-1.553 0-2.813-1.259-2.813-2.813s1.259-2.813 2.813-2.813 2.813 1.259 2.813 2.813-1.259 2.813-2.813 2.813z"></path>
</svg>
