<?xml version="1.0" encoding="utf-8"?>
<!-- Generated by IcoMoon.io -->
<!DOCTYPE svg PUBLIC "-//W3C//DTD SVG 1.1//EN" "http://www.w3.org/Graphics/SVG/1.1/DTD/svg11.dtd">
<svg version="1.1" xmlns="http://www.w3.org/2000/svg" xmlns:xlink="http://www.w3.org/1999/xlink" width="32" height="32" viewBox="0 0 32 32">
<path d="M30.151 10.353l-2.941-2.941c-0.721-0.721-1.902-1.901-2.623-2.623l-2.941-2.941c-0.721-0.721-2.006-0.848-2.855-0.283l-8.041 5.361c-0.849 0.566-1.17 1.775-0.714 2.688l2.050 4.101c0.063 0.125 0.135 0.259 0.215 0.397l-10.371 10.371-0.931 6.516h5.585v-1.862h3.723v-3.723h3.723v-3.723h3.723v-2.071c0.186 0.111 0.365 0.21 0.529 0.292l4.101 2.050c0.912 0.456 2.122 0.135 2.688-0.714l5.361-8.041c0.566-0.849 0.439-2.133-0.283-2.854zM5.382 26.073l-1.316-1.316 9.063-9.063 1.316 1.316-9.063 9.063zM27.676 13.539l-1.316 1.316c-0.362 0.362-0.954 0.362-1.316 0l-7.899-7.899c-0.362-0.362-0.362-0.954 0-1.316l1.316-1.316c0.362-0.362 0.954-0.362 1.316 0l7.899 7.899c0.362 0.362 0.362 0.954 0 1.316z"></path>
</svg>
