<?xml version="1.0" encoding="utf-8"?>
<!-- Generated by IcoMoon.io -->
<!DOCTYPE svg PUBLIC "-//W3C//DTD SVG 1.1//EN" "http://www.w3.org/Graphics/SVG/1.1/DTD/svg11.dtd">
<svg version="1.1" xmlns="http://www.w3.org/2000/svg" xmlns:xlink="http://www.w3.org/1999/xlink" width="32" height="32" viewBox="0 0 32 32">
<path d="M28.889 6.333h-25.778c-0.886 0-1.611 0.725-1.611 1.611v16.111c0 0.886 0.725 1.611 1.611 1.611h25.778c0.886 0 1.611-0.725 1.611-1.611v-16.111c0-0.886-0.725-1.611-1.611-1.611zM17.611 9.556h3.222v3.222h-3.222v-3.222zM22.444 14.389v3.222h-3.222v-3.222h3.222zM12.778 9.556h3.222v3.222h-3.222v-3.222zM17.611 14.389v3.222h-3.222v-3.222h3.222zM7.944 9.556h3.222v3.222h-3.222v-3.222zM12.778 14.389v3.222h-3.222v-3.222h3.222zM4.722 9.556h1.611v3.222h-1.611v-3.222zM4.722 14.389h3.222v3.222h-3.222v-3.222zM6.333 22.444h-1.611v-3.222h1.611v3.222zM20.833 22.444h-12.889v-3.222h12.889v3.222zM27.278 22.444h-4.833v-3.222h4.833v3.222zM27.278 17.611h-3.222v-3.222h3.222v3.222zM27.278 12.778h-4.833v-3.222h4.833v3.222z"></path>
</svg>
