<?xml version="1.0" encoding="utf-8"?>
<!-- Generated by IcoMoon.io -->
<!DOCTYPE svg PUBLIC "-//W3C//DTD SVG 1.1//EN" "http://www.w3.org/Graphics/SVG/1.1/DTD/svg11.dtd">
<svg version="1.1" xmlns="http://www.w3.org/2000/svg" xmlns:xlink="http://www.w3.org/1999/xlink" width="32" height="32" viewBox="0 0 32 32">
<path d="M28.188 1h-24.375c-1.547 0-2.813 1.266-2.813 2.813v24.375c0 1.547 1.266 2.813 2.813 2.813h24.375c1.547 0 2.813-1.266 2.813-2.813v-24.375c0-1.547-1.266-2.813-2.813-2.813zM25.094 23.523l-10.207 3.34c-2.332 0.762-2.566 0.639-3.621-2.625l-2.578-7.986c-0.615-1.893-2.49-6.99-2.807-7.969-0.586-1.816-0.586-1.916 2.842-3.029 2.684-0.879 2.795-0.85 3.768 2.18 0.785 2.438 1.289 4.406 2.098 6.896l2.197 6.797 7.020-2.297c1.383-0.457 1.846-0.434 2.238 1.271l0.281 1.289c0.328 1.494-0.428 1.875-1.23 2.133z"></path>
</svg>
