<?xml version="1.0" encoding="utf-8"?>
<!-- Generated by IcoMoon.io -->
<!DOCTYPE svg PUBLIC "-//W3C//DTD SVG 1.1//EN" "http://www.w3.org/Graphics/SVG/1.1/DTD/svg11.dtd">
<svg version="1.1" xmlns="http://www.w3.org/2000/svg" xmlns:xlink="http://www.w3.org/1999/xlink" width="32" height="32" viewBox="0 0 32 32">
<path d="M28.188 1h-24.375c-1.547 0-2.813 1.266-2.813 2.813v24.375c0 1.547 1.266 2.813 2.813 2.813h24.375c1.547 0 2.813-1.266 2.813-2.813v-24.375c0-1.547-1.266-2.813-2.813-2.813zM22.873 23.289c-5.203 0-7.008-2.344-7.969-5.262l-0.961-3.006c-0.721-2.197-1.564-3.908-4.207-3.908-1.834 0-3.697 1.324-3.697 5.021 0 2.889 1.471 4.693 3.551 4.693 2.344 0 3.908-1.746 3.908-1.746l0.961 2.613c0 0-1.623 1.594-5.021 1.594-4.219 0-6.563-2.461-6.563-7.031 0-4.752 2.344-7.547 6.768-7.547 4.002 0 6.012 1.441 7.277 5.35l0.99 3.006c0.721 2.197 1.986 3.791 5.021 3.791 2.045 0 3.129-0.451 3.129-1.564 0-0.873-0.51-1.506-2.045-1.863l-2.045-0.48c-2.496-0.604-3.486-1.893-3.486-3.938 0-3.275 2.648-4.301 5.35-4.301 3.064 0 4.934 1.113 5.174 3.82l-3.006 0.363c-0.123-1.295-0.902-1.834-2.344-1.834-1.324 0-2.133 0.604-2.133 1.623 0 0.902 0.393 1.441 1.711 1.746l1.922 0.422c2.584 0.604 3.967 1.863 3.967 4.301 0 2.994-2.525 4.137-6.252 4.137z"></path>
</svg>
