<?xml version="1.0" encoding="utf-8"?>
<!-- Generated by IcoMoon.io -->
<!DOCTYPE svg PUBLIC "-//W3C//DTD SVG 1.1//EN" "http://www.w3.org/Graphics/SVG/1.1/DTD/svg11.dtd">
<svg version="1.1" xmlns="http://www.w3.org/2000/svg" xmlns:xlink="http://www.w3.org/1999/xlink" width="32" height="32" viewBox="0 0 32 32">
<path d="M14.325 22.166l-1.043-2.829c0 0-1.692 1.886-4.227 1.886-2.247 0-3.839-1.953-3.839-5.076 0-3.999 2.019-5.431 3.999-5.431 2.862 0 3.772 1.853 4.554 4.227l1.043 3.251c1.043 3.156 2.995 5.691 8.62 5.691 4.033 0 6.767-1.237 6.767-4.488 0-2.635-1.498-3.999-4.293-4.654l-2.080-0.455c-1.431-0.327-1.853-0.91-1.853-1.886 0-1.104 0.876-1.758 2.308-1.758 1.564 0 2.407 0.588 2.535 1.986l3.251-0.388c-0.261-2.929-2.28-4.133-5.597-4.133-2.929 0-5.791 1.104-5.791 4.654 0 2.213 1.076 3.611 3.772 4.26l2.213 0.521c1.659 0.388 2.213 1.076 2.213 2.019 0 1.204-1.17 1.692-3.384 1.692-3.284 0-4.654-1.725-5.431-4.099l-1.076-3.251c-1.359-4.232-3.539-5.791-7.866-5.791-4.782 0-7.322 3.023-7.322 8.165 0 4.942 2.535 7.611 7.095 7.611 3.672 0 5.431-1.725 5.431-1.725v0z"></path>
</svg>
