<?xml version="1.0" encoding="utf-8"?>
<!-- Generated by IcoMoon.io -->
<!DOCTYPE svg PUBLIC "-//W3C//DTD SVG 1.1//EN" "http://www.w3.org/Graphics/SVG/1.1/DTD/svg11.dtd">
<svg version="1.1" xmlns="http://www.w3.org/2000/svg" xmlns:xlink="http://www.w3.org/1999/xlink" width="32" height="32" viewBox="0 0 32 32">
<path d="M30.609 4.957c-3.238-2.454-8.22-3.918-13.328-3.918-6.318 0-11.466 2.206-14.125 6.052-1.249 1.806-1.939 3.945-2.052 6.358-0.101 2.148 0.26 4.523 1.072 7.079 2.774-8.314 10.519-14.825 19.448-14.825 0 0-8.356 2.199-13.609 9.010-0.003 0.004-0.073 0.090-0.193 0.254-1.055 1.411-1.974 3.016-2.663 4.833-1.166 2.772-2.245 6.576-2.245 11.161h3.742c0 0-0.568-3.573 0.42-7.682 1.634 0.221 3.095 0.331 4.41 0.331 3.44 0 5.887-0.744 7.7-2.342 1.624-1.432 2.52-3.356 3.468-5.392 1.448-3.111 3.089-6.636 7.854-9.359 0.273-0.156 0.449-0.438 0.469-0.752s-0.118-0.616-0.369-0.806z"></path>
</svg>
