<?xml version="1.0" encoding="utf-8"?>
<!-- Generated by IcoMoon.io -->
<!DOCTYPE svg PUBLIC "-//W3C//DTD SVG 1.1//EN" "http://www.w3.org/Graphics/SVG/1.1/DTD/svg11.dtd">
<svg version="1.1" xmlns="http://www.w3.org/2000/svg" xmlns:xlink="http://www.w3.org/1999/xlink" width="32" height="32" viewBox="0 0 32 32">
<path d="M16 1c-8.284 0-15 6.716-15 15s6.716 15 15 15 15-6.716 15-15-6.716-15-15-15zM10.375 16c0-3.107 2.518-5.625 5.625-5.625s5.625 2.518 5.625 5.625-2.518 5.625-5.625 5.625-5.625-2.518-5.625-5.625zM28.128 21.024v0l-5.198-2.153c0.367-0.884 0.57-1.854 0.57-2.871s-0.203-1.986-0.57-2.871l5.198-2.153c0.642 1.548 0.997 3.244 0.997 5.024s-0.355 3.476-0.997 5.024v0zM21.024 3.872v0 0l-2.153 5.198c-0.884-0.367-1.854-0.57-2.871-0.57s-1.986 0.203-2.871 0.57l-2.153-5.198c1.548-0.642 3.244-0.997 5.024-0.997s3.476 0.355 5.024 0.997zM3.872 10.976l5.198 2.153c-0.367 0.884-0.57 1.854-0.57 2.871s0.203 1.986 0.57 2.871l-5.198 2.153c-0.642-1.548-0.997-3.244-0.997-5.024s0.355-3.476 0.997-5.024zM10.976 28.128l2.153-5.198c0.884 0.367 1.854 0.57 2.871 0.57s1.986-0.203 2.871-0.57l2.153 5.198c-1.548 0.642-3.244 0.997-5.024 0.997s-3.476-0.355-5.024-0.997z"></path>
</svg>
