<?xml version="1.0" encoding="utf-8"?>
<!-- Generated by IcoMoon.io -->
<!DOCTYPE svg PUBLIC "-//W3C//DTD SVG 1.1//EN" "http://www.w3.org/Graphics/SVG/1.1/DTD/svg11.dtd">
<svg version="1.1" xmlns="http://www.w3.org/2000/svg" xmlns:xlink="http://www.w3.org/1999/xlink" width="32" height="32" viewBox="0 0 32 32">
<path d="M27.508 29.575c-0.393 0-2.8-0.442-2.947-0.982-0.344-1.326-0.393-2.751-0.393-4.372v-18.113c0-2.702 0.54-4.273 0.54-4.273-0.049-0.246-0.295-0.786-0.589-0.786h-0.147c-0.147 0-1.866 1.081-3.438 1.081-1.277-0-2.072-1.13-3.546-1.13-6.198 0-9.105 5.033-9.105 12.155v0.371c0 0.147-0.098 0.295-0.246 0.295h-2.014c-0.246 0-0.737 1.375-0.737 2.014 0 0.197 0.049 0.295 0.147 0.295h2.603c0.147 0 0.246 0.197 0.246 0.344 0 4.372-0.049 8.682-0.049 8.682 0 0.688-0.049 2.21-0.344 3.438-0.147 0.54-2.407 0.982-2.996 0.982-0.246 0-0.246 1.179 0 1.425 2.014-0.098 3.34-0.246 5.354-0.246 1.867 0 3.291 0.147 5.256 0.246 0.098-0.295 0.098-1.425-0.147-1.425-0.393 0-2.8-0.442-2.947-0.982-0.344-1.326-0.344-2.751-0.393-4.372v-7.798c0-0.147 0.147-0.295 0.295-0.295h5.059c0.344-0.688 0.589-1.523 0.589-1.965 0-0.295 0-0.344-0.246-0.344h-5.452c-0.098 0-0.246-0.147-0.246-0.246v-1.769c0-4.372 1.791-8.221 4.787-8.221 2.122 0 3.973 1.375 3.973 6.627 0 0 0 0 0 0.001 0.007 0.135 0.011 0.244 0.011 0.316v14.626c0 0.688-0.049 2.21-0.344 3.438-0.147 0.54-2.407 0.982-2.996 0.982-0.246 0-0.246 1.179 0 1.425 2.014-0.098 3.34-0.246 5.354-0.246 1.866 0 3.291 0.147 5.256 0.246 0.098-0.295 0.098-1.424-0.148-1.424z"></path>
</svg>
