<?xml version="1.0" encoding="utf-8"?>
<!-- Generated by IcoMoon.io -->
<!DOCTYPE svg PUBLIC "-//W3C//DTD SVG 1.1//EN" "http://www.w3.org/Graphics/SVG/1.1/DTD/svg11.dtd">
<svg version="1.1" xmlns="http://www.w3.org/2000/svg" xmlns:xlink="http://www.w3.org/1999/xlink" width="32" height="32" viewBox="0 0 32 32">
<path d="M11.736 10.67h5.899v3.024h0.084c0.821-1.472 2.83-3.024 5.824-3.024 6.227 0 7.379 3.877 7.379 8.918v10.268h-6.149v-9.103c0-2.171-0.044-4.964-3.199-4.964-3.203 0-3.691 2.365-3.691 4.806v9.261h-6.147v-19.187z"></path>
<path d="M1.077 10.67h6.396v19.187h-6.396v-19.187z"></path>
<path d="M7.473 5.341c0 1.766-1.432 3.198-3.198 3.198s-3.198-1.432-3.198-3.198c0-1.766 1.432-3.198 3.198-3.198s3.198 1.432 3.198 3.198z"></path>
</svg>
