<?xml version="1.0" encoding="utf-8"?>
<!-- Generated by IcoMoon.io -->
<!DOCTYPE svg PUBLIC "-//W3C//DTD SVG 1.1//EN" "http://www.w3.org/Graphics/SVG/1.1/DTD/svg11.dtd">
<svg version="1.1" xmlns="http://www.w3.org/2000/svg" xmlns:xlink="http://www.w3.org/1999/xlink" width="32" height="32" viewBox="0 0 32 32">
<path d="M13.951 19.534c-0.38 0-0.76-0.145-1.050-0.435-2.716-2.716-2.716-7.137 0-9.853l5.482-5.482c1.316-1.316 3.066-2.041 4.927-2.041s3.611 0.725 4.927 2.041c2.716 2.716 2.716 7.137 0 9.853l-2.506 2.506c-0.58 0.58-1.52 0.58-2.1 0s-0.58-1.52 0-2.1l2.506-2.506c1.559-1.559 1.559-4.095 0-5.653-0.755-0.755-1.759-1.171-2.827-1.171s-2.072 0.416-2.827 1.171l-5.482 5.482c-1.559 1.559-1.559 4.095 0 5.653 0.58 0.58 0.58 1.52 0 2.1-0.29 0.29-0.67 0.435-1.050 0.435z"></path>
<path d="M8.69 30.277c-1.861 0-3.611-0.725-4.926-2.041-2.716-2.716-2.716-7.137 0-9.853l2.506-2.506c0.58-0.58 1.52-0.58 2.1 0s0.58 1.52 0 2.1l-2.506 2.506c-1.559 1.559-1.559 4.095 0 5.653 0.755 0.755 1.759 1.171 2.827 1.171s2.072-0.416 2.827-1.171l5.482-5.482c1.559-1.559 1.559-4.095 0-5.653-0.58-0.58-0.58-1.52 0-2.1s1.52-0.58 2.1 0c2.716 2.716 2.716 7.136 0 9.853l-5.482 5.482c-1.316 1.316-3.066 2.041-4.927 2.041z"></path>
</svg>
