<?xml version="1.0" encoding="utf-8"?>
<!-- Generated by IcoMoon.io -->
<!DOCTYPE svg PUBLIC "-//W3C//DTD SVG 1.1//EN" "http://www.w3.org/Graphics/SVG/1.1/DTD/svg11.dtd">
<svg version="1.1" xmlns="http://www.w3.org/2000/svg" xmlns:xlink="http://www.w3.org/1999/xlink" width="32" height="32" viewBox="0 0 32 32">
<path d="M16 1c-5.178 0-9.375 4.197-9.375 9.375 0 9.375 9.375 20.625 9.375 20.625s9.375-11.25 9.375-20.625c0-5.178-4.197-9.375-9.375-9.375zM16 16.117c-3.171 0-5.742-2.571-5.742-5.742s2.571-5.742 5.742-5.742 5.742 2.571 5.742 5.742-2.571 5.742-5.742 5.742zM12.367 10.375c0-2.006 1.626-3.633 3.633-3.633s3.633 1.626 3.633 3.633c0 2.006-1.626 3.633-3.633 3.633s-3.633-1.626-3.633-3.633z"></path>
</svg>
