<?xml version="1.0" encoding="utf-8"?>
<!-- Generated by IcoMoon.io -->
<!DOCTYPE svg PUBLIC "-//W3C//DTD SVG 1.1//EN" "http://www.w3.org/Graphics/SVG/1.1/DTD/svg11.dtd">
<svg version="1.1" xmlns="http://www.w3.org/2000/svg" xmlns:xlink="http://www.w3.org/1999/xlink" width="32" height="32" viewBox="0 0 32 32">
<path d="M27.065 5.873c-2.742-2.995-6.684-4.873-11.065-4.873-8.284 0-15 6.716-15 15h2.813c0-6.731 5.457-12.188 12.188-12.188 3.604 0 6.842 1.565 9.073 4.052l-4.386 4.386h10.313v-10.313l-3.935 3.935z"></path>
<path d="M28.188 16c0 6.731-5.457 12.188-12.188 12.188-3.604 0-6.842-1.565-9.073-4.052l4.386-4.386h-10.313v10.313l3.935-3.935c2.742 2.995 6.684 4.873 11.065 4.873 8.284 0 15-6.716 15-15h-2.813z"></path>
</svg>
