<?xml version="1.0" encoding="utf-8"?>
<!-- Generated by IcoMoon.io -->
<!DOCTYPE svg PUBLIC "-//W3C//DTD SVG 1.1//EN" "http://www.w3.org/Graphics/SVG/1.1/DTD/svg11.dtd">
<svg version="1.1" xmlns="http://www.w3.org/2000/svg" xmlns:xlink="http://www.w3.org/1999/xlink" width="32" height="32" viewBox="0 0 32 32">
<path d="M8.466 6.599l-3.733-3.733h-1.867v1.866l3.733 3.733zM10.332 1h1.867v3.733h-1.867zM17.798 10.332h3.733v1.867h-3.733zM19.665 4.733v-1.867h-1.866l-3.733 3.733 1.867 1.867zM1 10.332h3.733v1.867h-3.733zM10.332 17.798h1.867v3.733h-1.867zM2.866 17.798v1.866h1.866l3.733-3.733-1.867-1.867zM30.456 26.723l-18.552-18.552c-0.544-0.544-1.435-0.544-1.98 0l-1.753 1.753c-0.544 0.544-0.544 1.435 0 1.98l18.552 18.552c0.544 0.544 1.435 0.544 1.98 0l1.753-1.753c0.544-0.544 0.544-1.435 0-1.98zM14.999 16.865l-5.599-5.599 1.867-1.867 5.599 5.599-1.867 1.867z"></path>
</svg>
