<?xml version="1.0" encoding="utf-8"?>
<!-- Generated by IcoMoon.io -->
<!DOCTYPE svg PUBLIC "-//W3C//DTD SVG 1.1//EN" "http://www.w3.org/Graphics/SVG/1.1/DTD/svg11.dtd">
<svg version="1.1" xmlns="http://www.w3.org/2000/svg" xmlns:xlink="http://www.w3.org/1999/xlink" width="32" height="32" viewBox="0 0 32 32">
<path d="M27.25 1h-7.5l1.875 16.875c0 3.107-2.518 5.625-5.625 5.625s-5.625-2.518-5.625-5.625l1.875-16.875h-7.5l-1.875 16.875c0 7.249 5.876 13.125 13.125 13.125s13.125-5.876 13.125-13.125l-1.875-16.875zM23.789 25.664c-2.081 2.081-4.847 3.226-7.789 3.226s-5.709-1.146-7.789-3.226c-2.054-2.054-3.197-4.777-3.226-7.677l1.057-9.516h3.255l-1.032 9.287v0.117c0 2.066 0.804 4.008 2.265 5.469s3.403 2.265 5.469 2.265 4.008-0.805 5.469-2.265c1.461-1.461 2.265-3.403 2.265-5.469v-0.117l-0.013-0.116-1.019-9.171h3.255l1.057 9.516c-0.029 2.901-1.172 5.623-3.226 7.677z"></path>
</svg>
