<?xml version="1.0" encoding="utf-8"?>
<!-- Generated by IcoMoon.io -->
<!DOCTYPE svg PUBLIC "-//W3C//DTD SVG 1.1//EN" "http://www.w3.org/Graphics/SVG/1.1/DTD/svg11.dtd">
<svg version="1.1" xmlns="http://www.w3.org/2000/svg" xmlns:xlink="http://www.w3.org/1999/xlink" width="32" height="32" viewBox="0 0 32 32">
<path d="M26 1h-20c-2.75 0-5.001 2.25-5.001 5.001v19.999c0 2.752 2.25 5.001 5.001 5.001h20c2.75 0 5-2.249 5-5.001v-19.999c0-2.75-2.249-5.001-5-5.001zM6.35 26.975l-2.263-2.263 7.5-7.5 0.857 0.857-6.094 8.906zM5.493 6.819l0.857-0.857 9.65 7.775 9.65-7.775 0.857 0.857-10.507 12.382-10.507-12.382zM25.65 26.975l-6.094-8.906 0.857-0.857 7.5 7.5-2.263 2.263z"></path>
</svg>
