<?xml version="1.0" encoding="utf-8"?>
<!-- Generated by IcoMoon.io -->
<!DOCTYPE svg PUBLIC "-//W3C//DTD SVG 1.1//EN" "http://www.w3.org/Graphics/SVG/1.1/DTD/svg11.dtd">
<svg version="1.1" xmlns="http://www.w3.org/2000/svg" xmlns:xlink="http://www.w3.org/1999/xlink" width="32" height="32" viewBox="0 0 32 32">
<path d="M26 1h-20c-2.75 0-5.001 2.25-5.001 5.001v19.999c0 2.752 2.25 5.001 5.001 5.001h20c2.75 0 5-2.249 5-5.001v-19.999c0-2.75-2.249-5.001-5-5.001zM26 4.75c0.234 0 0.455 0.068 0.645 0.186l-10.645 8.801-10.645-8.801c0.19-0.117 0.411-0.186 0.646-0.186h20zM6.001 27.25c-0.056 0-0.112-0.004-0.167-0.012l6.61-9.169-0.857-0.857-6.837 6.837v-17.904l11.25 13.605 11.25-13.605v17.904l-6.837-6.837-0.857 0.857 6.61 9.169c-0.054 0.008-0.11 0.012-0.166 0.012h-20z"></path>
</svg>
