<?xml version="1.0" encoding="utf-8"?>
<!-- Generated by IcoMoon.io -->
<!DOCTYPE svg PUBLIC "-//W3C//DTD SVG 1.1//EN" "http://www.w3.org/Graphics/SVG/1.1/DTD/svg11.dtd">
<svg version="1.1" xmlns="http://www.w3.org/2000/svg" xmlns:xlink="http://www.w3.org/1999/xlink" width="32" height="32" viewBox="0 0 32 32">
<path d="M8.5 3.813c0 1.553-1.259 2.813-2.813 2.813s-2.813-1.259-2.813-2.813c0-1.553 1.259-2.813 2.813-2.813s2.813 1.259 2.813 2.813z"></path>
<path d="M25.375 3.813c0 1.553-1.259 2.813-2.813 2.813s-2.813-1.259-2.813-2.813c0-1.553 1.259-2.813 2.813-2.813s2.813 1.259 2.813 2.813z"></path>
<path d="M8.5 8.5h-5.625c-1.036 0-1.875 0.839-1.875 1.875v9.375h1.875v11.25h2.344v-11.25h0.938v11.25h2.344v-11.25h1.875v-9.375c0-1.036-0.839-1.875-1.875-1.875z"></path>
<path d="M29.564 16l1.436-1.040-3.905-6.039c-0.173-0.263-0.468-0.421-0.783-0.421h-7.5c-0.315 0-0.609 0.158-0.783 0.421l-3.905 6.039 1.436 1.040 3.242-4.207 1.127 2.629-3.929 7.203h3.594l0.625 9.375h1.875v-9.375h0.938v9.375h1.875l0.625-9.375h3.594l-3.929-7.203 1.127-2.629 3.242 4.207z"></path>
</svg>
