<?xml version="1.0" encoding="utf-8"?>
<!-- Generated by IcoMoon.io -->
<!DOCTYPE svg PUBLIC "-//W3C//DTD SVG 1.1//EN" "http://www.w3.org/Graphics/SVG/1.1/DTD/svg11.dtd">
<svg version="1.1" xmlns="http://www.w3.org/2000/svg" xmlns:xlink="http://www.w3.org/1999/xlink" width="32" height="32" viewBox="0 0 32 32">
<path d="M16 1c-8.284 0-15 6.716-15 15s6.716 15 15 15 15-6.716 15-15-6.716-15-15-15zM9.872 25.438c0.325-0.897 0.503-1.866 0.503-2.876 0-3.643-2.309-6.747-5.543-7.928 0.299-2.488 1.414-4.79 3.213-6.59 2.125-2.125 4.95-3.295 7.955-3.295s5.83 1.17 7.955 3.295c1.8 1.8 2.914 4.102 3.213 6.59-3.234 1.181-5.543 4.285-5.543 7.928 0 1.010 0.178 1.978 0.503 2.875-1.808 1.179-3.919 1.812-6.128 1.812s-4.32-0.633-6.128-1.812zM17.165 19.779c0.407 0.102 0.71 0.471 0.71 0.908v1.875c0 0.516-0.422 0.938-0.938 0.938h-1.875c-0.516 0-0.938-0.422-0.938-0.938v-1.875c0-0.437 0.304-0.806 0.71-0.908l0.696-13.154h0.938l0.696 13.154z"></path>
</svg>
