<?xml version="1.0" encoding="utf-8"?>
<!-- Generated by IcoMoon.io -->
<!DOCTYPE svg PUBLIC "-//W3C//DTD SVG 1.1//EN" "http://www.w3.org/Graphics/SVG/1.1/DTD/svg11.dtd">
<svg version="1.1" xmlns="http://www.w3.org/2000/svg" xmlns:xlink="http://www.w3.org/1999/xlink" width="32" height="32" viewBox="0 0 32 32">
<path d="M16 2c8.247 0 14.933 6.686 14.933 14.933 0 5.623-3.108 10.519-7.7 13.067h-14.466c-4.592-2.547-7.7-7.444-7.7-13.067 0-8.247 6.686-14.933 14.933-14.933zM24.456 25.389c2.259-2.259 3.503-5.262 3.503-8.456h-2.625v-1.867h2.48c-0.205-1.312-0.624-2.571-1.241-3.733h-3.105v-1.867h1.875c-0.275-0.343-0.57-0.674-0.886-0.989-1.348-1.348-2.962-2.334-4.723-2.911v2.033h-1.867v-2.48c-0.612-0.095-1.236-0.145-1.867-0.145s-1.255 0.049-1.867 0.145v2.48h-1.867v-2.033c-1.761 0.576-3.374 1.563-4.723 2.911-0.316 0.316-0.611 0.646-0.886 0.989h1.875v1.867h-3.106c-0.618 1.162-1.037 2.421-1.241 3.733h2.48v1.867h-2.625c0 3.194 1.244 6.197 3.502 8.456 0.312 0.312 0.639 0.605 0.979 0.878h5.61l1.067-14.933h1.6l1.067 14.933h5.61c0.339-0.273 0.667-0.565 0.979-0.878z"></path>
</svg>
