<?xml version="1.0" encoding="utf-8"?>
<!-- Generated by IcoMoon.io -->
<!DOCTYPE svg PUBLIC "-//W3C//DTD SVG 1.1//EN" "http://www.w3.org/Graphics/SVG/1.1/DTD/svg11.dtd">
<svg version="1.1" xmlns="http://www.w3.org/2000/svg" xmlns:xlink="http://www.w3.org/1999/xlink" width="32" height="32" viewBox="0 0 32 32">
<path d="M25.366 20.407v-13.222h-2.204v13.222h-5.509l6.611 6.611 6.611-6.611z"></path>
<path d="M9.94 4.981v6.611h-6.611v-6.611h6.611zM12.143 2.778h-11.018v11.018h11.018v-11.018z"></path>
<path d="M1.125 18.204h3.306v2.204h-3.306v-2.204z"></path>
<path d="M5.532 18.204h3.306v2.204h-3.306v-2.204z"></path>
<path d="M9.94 18.204h2.204v3.306h-2.204v-3.306z"></path>
<path d="M1.125 25.917h2.204v3.306h-2.204v-3.306z"></path>
<path d="M4.431 27.018h3.306v2.204h-3.306v-2.204z"></path>
<path d="M8.838 27.018h3.306v2.204h-3.306v-2.204z"></path>
<path d="M1.125 21.509h2.204v3.306h-2.204v-3.306z"></path>
<path d="M9.94 22.611h2.204v3.306h-2.204v-3.306z"></path>
</svg>
