<?xml version="1.0" encoding="utf-8"?>
<!-- Generated by IcoMoon.io -->
<!DOCTYPE svg PUBLIC "-//W3C//DTD SVG 1.1//EN" "http://www.w3.org/Graphics/SVG/1.1/DTD/svg11.dtd">
<svg version="1.1" xmlns="http://www.w3.org/2000/svg" xmlns:xlink="http://www.w3.org/1999/xlink" width="32" height="32" viewBox="0 0 32 32">
<path d="M23.162 13.796v13.222h2.204v-13.222h5.509l-6.611-6.611-6.611 6.611z"></path>
<path d="M1.125 2.778h3.306v2.204h-3.306v-2.204z"></path>
<path d="M5.532 2.778h3.306v2.204h-3.306v-2.204z"></path>
<path d="M9.94 2.778h2.204v3.306h-2.204v-3.306z"></path>
<path d="M1.125 10.491h2.204v3.306h-2.204v-3.306z"></path>
<path d="M4.431 11.593h3.306v2.204h-3.306v-2.204z"></path>
<path d="M8.838 11.593h3.306v2.204h-3.306v-2.204z"></path>
<path d="M1.125 6.083h2.204v3.306h-2.204v-3.306z"></path>
<path d="M9.94 7.185h2.204v3.306h-2.204v-3.306z"></path>
<path d="M9.94 20.407v6.611h-6.611v-6.611h6.611zM12.143 18.204h-11.018v11.018h11.018v-11.018z"></path>
</svg>
