<?xml version="1.0" encoding="utf-8"?>
<!-- Generated by IcoMoon.io -->
<!DOCTYPE svg PUBLIC "-//W3C//DTD SVG 1.1//EN" "http://www.w3.org/Graphics/SVG/1.1/DTD/svg11.dtd">
<svg version="1.1" xmlns="http://www.w3.org/2000/svg" xmlns:xlink="http://www.w3.org/1999/xlink" width="32" height="32" viewBox="0 0 32 32">
<path d="M29.067 9.467h-5.6v-2.8c0-2.577-5.014-4.667-11.2-4.667s-11.2 2.089-11.2 4.667v18.667c0 2.577 5.014 4.667 11.2 4.667s11.2-2.089 11.2-4.667v-2.8h5.6c1.031 0 1.867-0.836 1.867-1.867v-9.333c0-1.031-0.836-1.867-1.867-1.867zM6.202 7.67c-1.079-0.356-1.733-0.736-2.083-1.003 0.35-0.267 1.004-0.648 2.083-1.003 1.69-0.557 3.844-0.863 6.065-0.863s4.375 0.307 6.065 0.863c1.079 0.355 1.733 0.736 2.083 1.003-0.35 0.267-1.004 0.648-2.083 1.003-1.69 0.557-3.844 0.863-6.065 0.863s-4.375-0.307-6.065-0.863zM27.2 18.8h-3.733v-5.6h3.733v5.6z"></path>
</svg>
