<?xml version="1.0" encoding="utf-8"?>
<!-- Generated by IcoMoon.io -->
<!DOCTYPE svg PUBLIC "-//W3C//DTD SVG 1.1//EN" "http://www.w3.org/Graphics/SVG/1.1/DTD/svg11.dtd">
<svg version="1.1" xmlns="http://www.w3.org/2000/svg" xmlns:xlink="http://www.w3.org/1999/xlink" width="32" height="32" viewBox="0 0 32 32">
<path d="M16 3.813c-3.255 0-6.316 1.268-8.618 3.57s-3.57 5.362-3.57 8.618c0 3.255 1.268 6.316 3.57 8.618s5.362 3.57 8.618 3.57c3.255 0 6.316-1.268 8.618-3.57s3.57-5.362 3.57-8.618c0-3.255-1.268-6.316-3.57-8.618s-5.362-3.57-8.618-3.57zM16 1v0c8.284 0 15 6.716 15 15s-6.716 15-15 15c-8.284 0-15-6.716-15-15s6.716-15 15-15zM14.125 21.625h3.75v3.75h-3.75zM14.125 6.625h3.75v11.25h-3.75z"></path>
</svg>
