<?xml version="1.0" encoding="utf-8"?>
<!-- Generated by IcoMoon.io -->
<!DOCTYPE svg PUBLIC "-//W3C//DTD SVG 1.1//EN" "http://www.w3.org/Graphics/SVG/1.1/DTD/svg11.dtd">
<svg version="1.1" xmlns="http://www.w3.org/2000/svg" xmlns:xlink="http://www.w3.org/1999/xlink" width="32" height="32" viewBox="0 0 32 32">
<path d="M21.625 27.25h7.5l1.875-3.75v7.5h-11.25v-6.276c3.841-1.655 6.563-5.776 6.563-10.599 0-6.282-4.617-11.199-10.313-11.199s-10.313 4.917-10.313 11.199c0 4.823 2.721 8.944 6.563 10.599v6.276h-11.25v-7.5l1.875 3.75h7.5v-0.955c-5.497-1.947-9.375-6.662-9.375-12.17 0-7.249 6.716-13.125 15-13.125s15 5.876 15 13.125c0 5.508-3.878 10.223-9.375 12.17v0.955z"></path>
</svg>
