<?xml version="1.0" encoding="utf-8"?>
<!-- Generated by IcoMoon.io -->
<!DOCTYPE svg PUBLIC "-//W3C//DTD SVG 1.1//EN" "http://www.w3.org/Graphics/SVG/1.1/DTD/svg11.dtd">
<svg version="1.1" xmlns="http://www.w3.org/2000/svg" xmlns:xlink="http://www.w3.org/1999/xlink" width="32" height="32" viewBox="0 0 32 32">
<path d="M11.433 24.823c-1.687-0.422-2.627-1.763-2.63-3.753-0.001-0.636 0.045-0.941 0.204-1.35 0.389-1.003 1.42-1.76 2.776-2.039 0.675-0.139 0.883-0.287 0.883-0.632 0-0.108 0.080-0.43 0.179-0.715 0.446-1.296 1.272-2.377 2.154-2.819 0.924-0.463 1.39-0.567 2.507-0.561 1.587 0.008 2.378 0.353 3.485 1.515l0.609 0.639 0.545-0.189c2.64-0.914 5.272 0.642 5.484 3.241l0.058 0.711 0.52 0.186c1.485 0.532 2.182 1.649 2.056 3.291-0.083 1.074-0.585 1.931-1.38 2.357l-0.374 0.2-8.309 0.016c-6.385 0.012-8.415-0.010-8.766-0.098v0zM4.5 23.636c-1.013-0.254-2.086-1.2-2.589-2.281-0.285-0.613-0.301-0.703-0.301-1.788 0-1.032 0.024-1.198 0.252-1.71 0.479-1.080 1.397-1.861 2.548-2.167 0.243-0.065 0.471-0.168 0.507-0.229s0.076-0.397 0.089-0.744c0.080-2.161 1.422-4.065 3.295-4.677 1.012-0.33 2.34-0.361 3.44 0.104 0.349 0.148 0.31 0.179 1.048-0.844 0.437-0.605 1.263-1.245 1.985-1.629 0.779-0.414 1.59-0.604 2.559-0.602 2.709 0.007 5.044 1.798 5.907 4.531 0.276 0.873 0.262 1.118-0.063 1.125-0.142 0.003-0.549 0.086-0.904 0.184l-0.646 0.178-0.589-0.623c-1.662-1.756-4.374-2.136-6.679-0.935-0.921 0.48-1.661 1.169-2.22 2.066-0.399 0.64-0.907 1.834-0.907 2.13 0 0.21-0.161 0.315-0.849 0.554-2.13 0.738-3.374 2.443-3.373 4.625 0 0.794 0.194 1.766 0.462 2.322 0.101 0.21 0.158 0.409 0.126 0.443-0.082 0.087-2.732 0.058-3.099-0.034v0z"></path>
</svg>
