<?xml version="1.0" encoding="utf-8"?>
<!-- Generated by IcoMoon.io -->
<!DOCTYPE svg PUBLIC "-//W3C//DTD SVG 1.1//EN" "http://www.w3.org/Graphics/SVG/1.1/DTD/svg11.dtd">
<svg version="1.1" xmlns="http://www.w3.org/2000/svg" xmlns:xlink="http://www.w3.org/1999/xlink" width="32" height="32" viewBox="0 0 32 32">
<path d="M31 16v0 0c0 4.441-1.934 8.438-5.004 11.18-3.85 1.875-7.436 0.563-8.619-0.258 3.779-0.826 6.633-5.396 6.633-10.922s-2.854-10.096-6.633-10.928c1.189-0.82 4.775-2.133 8.619-0.258 3.070 2.748 5.004 6.744 5.004 11.186v0 0z"></path>
<path d="M11.061 7.545c-1.658 1.957-2.73 4.852-2.801 8.104 0 0.006 0 0.697 0 0.709 0.070 3.246 1.148 6.141 2.807 8.098 2.15 2.795 5.35 4.564 8.924 4.564 2.197 0 4.254-0.668 6.012-1.834-2.66 2.373-6.164 3.814-10.002 3.814-0.24 0-0.48-0.006-0.715-0.018-7.951-0.375-14.285-6.938-14.285-14.982 0-8.285 6.715-15 15-15 0.018 0 0.035 0 0.059 0 3.82 0.012 7.301 1.453 9.943 3.82-1.758-1.166-3.814-1.84-6.012-1.84-3.574 0-6.773 1.77-8.93 4.564z"></path>
</svg>
