<?xml version="1.0" encoding="utf-8"?>
<!-- Generated by IcoMoon.io -->
<!DOCTYPE svg PUBLIC "-//W3C//DTD SVG 1.1//EN" "http://www.w3.org/Graphics/SVG/1.1/DTD/svg11.dtd">
<svg version="1.1" xmlns="http://www.w3.org/2000/svg" xmlns:xlink="http://www.w3.org/1999/xlink" width="32" height="32" viewBox="0 0 32 32">
<path d="M29.557 26.429h-8.343c-0.412 0-0.786-0.243-0.953-0.619l-8.068-18.152h-9.751c-0.576 0-1.043-0.467-1.043-1.043s0.467-1.043 1.043-1.043h10.429c0.412 0 0.786 0.243 0.953 0.619l8.068 18.152h7.665c0.576 0 1.043 0.467 1.043 1.043s-0.467 1.043-1.043 1.043z"></path>
<path d="M29.557 7.657h-10.429c-0.576 0-1.043-0.467-1.043-1.043s0.467-1.043 1.043-1.043h10.429c0.576 0 1.043 0.467 1.043 1.043s-0.467 1.043-1.043 1.043z"></path>
</svg>
