<?xml version="1.0" encoding="utf-8"?>
<!-- Generated by IcoMoon.io -->
<!DOCTYPE svg PUBLIC "-//W3C//DTD SVG 1.1//EN" "http://www.w3.org/Graphics/SVG/1.1/DTD/svg11.dtd">
<svg version="1.1" xmlns="http://www.w3.org/2000/svg" xmlns:xlink="http://www.w3.org/1999/xlink" width="32" height="32" viewBox="0 0 32 32">
<path d="M30.933 16.933v-11.2h-5.6v-1.867c0-1.027-0.84-1.867-1.867-1.867h-20.533c-1.027 0-1.867 0.84-1.867 1.867v5.6c0 1.027 0.84 1.867 1.867 1.867h20.533c1.027 0 1.867-0.84 1.867-1.867v-1.867h3.733v7.467h-16.8v3.733h-0.933c-0.515 0-0.933 0.418-0.933 0.933v9.333c0 0.515 0.418 0.933 0.933 0.933h3.733c0.515 0 0.933-0.418 0.933-0.933v-9.333c0-0.515-0.418-0.933-0.933-0.933h-0.933v-1.867h16.8zM23.467 5.733h-20.533v-1.867h20.533v1.867z"></path>
</svg>
