<?xml version="1.0" encoding="utf-8"?>
<!-- Generated by IcoMoon.io -->
<!DOCTYPE svg PUBLIC "-//W3C//DTD SVG 1.1//EN" "http://www.w3.org/Graphics/SVG/1.1/DTD/svg11.dtd">
<svg version="1.1" xmlns="http://www.w3.org/2000/svg" xmlns:xlink="http://www.w3.org/1999/xlink" width="32" height="32" viewBox="0 0 32 32">
<path d="M27.771 10.041c-1.4 6.217-5.725 9.498-12.539 9.498h-2.268l-1.576 10.008h-1.898l-0.1 0.645c-0.064 0.428 0.264 0.809 0.691 0.809h4.852c0.574 0 1.061-0.416 1.154-0.984l0.047-0.246 0.914-5.795 0.059-0.316c0.088-0.568 0.58-0.984 1.154-0.984h0.721c4.699 0 8.379-1.91 9.457-7.43 0.404-2.098 0.252-3.879-0.668-5.203z"></path>
<path d="M24.871 3.262c-1.389-1.582-3.902-2.262-7.113-2.262h-9.322c-0.656 0-1.219 0.475-1.318 1.125l-3.885 24.621c-0.076 0.486 0.299 0.926 0.791 0.926h5.76l1.447-9.17-0.047 0.287c0.1-0.65 0.656-1.125 1.313-1.125h2.736c5.373 0 9.58-2.18 10.811-8.496 0.035-0.188 0.070-0.369 0.094-0.545 0.363-2.332 0-3.926-1.266-5.361z"></path>
</svg>
