<?xml version="1.0" encoding="utf-8"?>
<!-- Generated by IcoMoon.io -->
<!DOCTYPE svg PUBLIC "-//W3C//DTD SVG 1.1//EN" "http://www.w3.org/Graphics/SVG/1.1/DTD/svg11.dtd">
<svg version="1.1" xmlns="http://www.w3.org/2000/svg" xmlns:xlink="http://www.w3.org/1999/xlink" width="32" height="32" viewBox="0 0 32 32">
<path d="M30.727 9.625l-8.352-8.352c-0.273-0.273-0.632-0.211-0.799 0.136l-1.12 2.333 7.801 7.801 2.333-1.12c0.347-0.167 0.409-0.526 0.136-0.799z"></path>
<path d="M18.967 5.055l-7.69 0.641c-0.511 0.063-0.937 0.172-1.083 0.839-0 0.001-0 0.001-0.001 0.002-2.085 10.017-9.194 19.791-9.194 19.791l1.675 1.675 7.941-7.941c-0.175-0.366-0.273-0.776-0.273-1.208 0-1.548 1.255-2.803 2.803-2.803s2.803 1.255 2.803 2.803-1.255 2.803-2.803 2.803c-0.433 0-0.842-0.098-1.208-0.273l-7.941 7.941 1.675 1.675c0 0 9.774-7.109 19.791-9.194 0.001-0 0.001-0 0.002-0.001 0.667-0.146 0.776-0.572 0.839-1.083l0.641-7.69-7.978-7.978z"></path>
</svg>
