<?xml version="1.0" encoding="utf-8"?>
<!-- Generated by IcoMoon.io -->
<!DOCTYPE svg PUBLIC "-//W3C//DTD SVG 1.1//EN" "http://www.w3.org/Graphics/SVG/1.1/DTD/svg11.dtd">
<svg version="1.1" xmlns="http://www.w3.org/2000/svg" xmlns:xlink="http://www.w3.org/1999/xlink" width="32" height="32" viewBox="0 0 32 32">
<path d="M29.416 16.631c0.212 1.473 0.351 3.488-0.31 4.259-1.092 1.275-8.009 1.275-8.009-1.275 0-1.285 1.138-2.127 0.045-3.403-1.074-1.255-3-1.275-5.143-1.275s-4.068 0.021-5.143 1.275c-1.092 1.275 0.046 2.118 0.046 3.403 0 2.551-6.917 2.551-8.010 1.275-0.66-0.771-0.522-2.786-0.31-4.259 0.164-0.983 0.577-2.044 1.899-3.398 0-0 0-0 0-0 1.984-1.851 4.987-3.364 11.411-3.397v-0.001c0.036 0 0.071 0 0.106 0s0.070-0 0.106-0v0.001c6.424 0.033 9.426 1.546 11.411 3.397 0 0 0 0 0 0 1.323 1.354 1.736 2.415 1.899 3.398z"></path>
</svg>
