<?xml version="1.0" encoding="utf-8"?>
<!-- Generated by IcoMoon.io -->
<!DOCTYPE svg PUBLIC "-//W3C//DTD SVG 1.1//EN" "http://www.w3.org/Graphics/SVG/1.1/DTD/svg11.dtd">
<svg version="1.1" xmlns="http://www.w3.org/2000/svg" xmlns:xlink="http://www.w3.org/1999/xlink" width="32" height="32" viewBox="0 0 32 32">
<path d="M16 1c-8.283 0-14.997 6.714-14.997 14.997 0 6.356 3.955 11.778 9.533 13.962-0.128-1.183-0.25-3.009 0.054-4.3 0.27-1.17 1.758-7.451 1.758-7.451s-0.446-0.899-0.446-2.224c0-2.082 1.21-3.644 2.711-3.644 1.278 0 1.9 0.96 1.9 2.11 0 1.285-0.818 3.212-1.244 4.99-0.358 1.494 0.744 2.711 2.218 2.711 2.664 0 4.713-2.813 4.713-6.87 0-3.59-2.583-6.099-6.261-6.099-4.266 0-6.768 3.198-6.768 6.511 0 1.291 0.494 2.671 1.116 3.421 0.122 0.149 0.142 0.277 0.101 0.433-0.115 0.473-0.365 1.494-0.419 1.704-0.068 0.277-0.216 0.331-0.5 0.203-1.873-0.872-3.043-3.611-3.043-5.808 0-4.733 3.435-9.074 9.905-9.074 5.199 0 9.243 3.705 9.243 8.661 0 5.166-3.259 9.331-7.782 9.331-1.521 0-2.948-0.791-3.435-1.724 0 0-0.751 2.86-0.933 3.563-0.338 1.305-1.251 2.934-1.866 3.928 1.406 0.433 2.894 0.669 4.442 0.669 8.283 0 14.997-6.714 14.997-14.997 0-8.289-6.714-15.003-14.997-15.003z"></path>
</svg>
