<?xml version="1.0" encoding="utf-8"?>
<!-- Generated by IcoMoon.io -->
<!DOCTYPE svg PUBLIC "-//W3C//DTD SVG 1.1//EN" "http://www.w3.org/Graphics/SVG/1.1/DTD/svg11.dtd">
<svg version="1.1" xmlns="http://www.w3.org/2000/svg" xmlns:xlink="http://www.w3.org/1999/xlink" width="32" height="32" viewBox="0 0 32 32">
<path d="M16 1c-8.273 0-15 6.727-15 15s6.727 15 15 15 15-6.727 15-15-6.727-15-15-15zM16 28.996c-1.342 0-2.631-0.205-3.85-0.58 0.527-0.861 1.324-2.279 1.617-3.404 0.158-0.609 0.809-3.088 0.809-3.088 0.422 0.809 1.664 1.494 2.977 1.494 3.92 0 6.744-3.604 6.744-8.086 0-4.295-3.504-7.506-8.010-7.506-5.607 0-8.584 3.768-8.584 7.863 0 1.904 1.014 4.277 2.637 5.033 0.246 0.117 0.375 0.064 0.434-0.176 0.041-0.182 0.264-1.061 0.363-1.477 0.029-0.129 0.018-0.246-0.088-0.375-0.539-0.65-0.967-1.852-0.967-2.965 0-2.865 2.168-5.643 5.865-5.643 3.193 0 5.426 2.174 5.426 5.285 0 3.516-1.775 5.953-4.084 5.953-1.277 0-2.232-1.055-1.922-2.35 0.369-1.547 1.078-3.211 1.078-4.324 0-0.996-0.533-1.828-1.646-1.828-1.307 0-2.35 1.348-2.35 3.158 0 1.148 0.387 1.928 0.387 1.928s-1.289 5.443-1.523 6.457c-0.264 1.125-0.158 2.701-0.047 3.727-4.834-1.887-8.262-6.586-8.262-12.094 0-7.178 5.818-12.996 12.996-12.996s12.996 5.818 12.996 12.996c0 7.178-5.818 12.996-12.996 12.996z"></path>
</svg>
