<?xml version="1.0" encoding="utf-8"?>
<!-- Generated by IcoMoon.io -->
<!DOCTYPE svg PUBLIC "-//W3C//DTD SVG 1.1//EN" "http://www.w3.org/Graphics/SVG/1.1/DTD/svg11.dtd">
<svg version="1.1" xmlns="http://www.w3.org/2000/svg" xmlns:xlink="http://www.w3.org/1999/xlink" width="32" height="32" viewBox="0 0 32 32">
<path d="M31 16c0-8.284-6.716-15-15-15s-15 6.716-15 15c0 6.447 4.067 11.943 9.776 14.065l-0.401 0.936h11.25l-0.401-0.936c5.709-2.121 9.776-7.618 9.776-14.065zM15.261 19.598c-0.668-0.287-1.136-0.95-1.136-1.723 0-1.036 0.839-1.875 1.875-1.875s1.875 0.839 1.875 1.875c0 0.773-0.468 1.437-1.136 1.724l-0.739-1.724-0.739 1.723zM16.77 19.671c1.702-0.355 2.98-1.863 2.98-3.671 0-2.071-1.679-3.75-3.75-3.75s-3.75 1.679-3.75 3.75c0 1.807 1.279 3.314 2.981 3.669l-2.186 5.101c-2.673-1.147-4.545-3.802-4.545-6.895 0-4.142 3.358-7.852 7.5-7.852s7.5 3.709 7.5 7.852c0 3.093-1.872 5.748-4.545 6.895l-2.185-5.099zM21.169 29.937l-2.166-5.053c3.704-1.252 6.371-4.756 6.371-8.883 0-5.178-4.197-9.375-9.375-9.375s-9.375 4.197-9.375 9.375c0 4.127 2.667 7.631 6.371 8.883l-2.166 5.053c-4.676-2.006-7.951-6.651-7.951-12.062 0-7.246 5.874-13.472 13.12-13.472s13.12 6.226 13.12 13.472c0 5.41-3.275 10.055-7.951 12.062z"></path>
</svg>
