<?xml version="1.0" encoding="utf-8"?>
<!-- Generated by IcoMoon.io -->
<!DOCTYPE svg PUBLIC "-//W3C//DTD SVG 1.1//EN" "http://www.w3.org/Graphics/SVG/1.1/DTD/svg11.dtd">
<svg version="1.1" xmlns="http://www.w3.org/2000/svg" xmlns:xlink="http://www.w3.org/1999/xlink" width="32" height="32" viewBox="0 0 32 32">
<path d="M29.125 13.188v4.688c0 1.551-1.262 2.813-2.813 2.813-0.501 0-0.972-0.132-1.38-0.362-0.5 0.781-1.376 1.3-2.37 1.3-0.72 0-1.377-0.272-1.875-0.718-0.498 0.446-1.155 0.718-1.875 0.718-0.329 0-0.644-0.057-0.938-0.161v6.723c0 1.551-1.262 2.813-2.813 2.813s-2.813-1.262-2.813-2.813v-11.563l-5.157 2.749c-0.426 0.246-0.912 0.376-1.406 0.376-1.551 0-2.813-1.262-2.813-2.813 0-0.773 0.307-1.493 0.864-2.028 0.007-0.007 0.015-0.014 0.022-0.021l7.007-6.389h-1.33c-0.518 0-0.938-0.42-0.938-0.938v-5.625c0-0.518 0.42-0.938 0.938-0.938h18.75c0.518 0 0.938 0.42 0.938 0.938v5.625c0 0.518-0.42 0.938-0.938 0.938h-1.296l2.134 4.268c0.065 0.13 0.099 0.274 0.099 0.419zM27.25 5.688c0-0.518-0.42-0.938-0.938-0.938s-0.938 0.42-0.938 0.938 0.42 0.938 0.938 0.938 0.938-0.42 0.938-0.938zM27.25 13.409l-2.454-4.909h-11.245l-8.52 7.769c-0.181 0.178-0.281 0.415-0.281 0.669 0 0.517 0.421 0.938 0.938 0.938 0.16 0 0.311-0.038 0.449-0.114 0.016-0.009 0.031-0.018 0.048-0.027l6.562-3.498c0.291-0.155 0.641-0.146 0.923 0.023s0.455 0.475 0.455 0.804v13.125c0 0.517 0.421 0.938 0.938 0.938s0.938-0.421 0.938-0.938v-9.375c0-0.518 0.42-0.938 0.938-0.938s0.938 0.42 0.938 0.938c0 0.517 0.421 0.938 0.938 0.938s0.938-0.421 0.938-0.938c0-0.518 0.42-0.938 0.938-0.938s0.938 0.42 0.938 0.938c0 0.517 0.421 0.938 0.938 0.938s0.938-0.421 0.938-0.938v-0.938c0-0.518 0.42-0.938 0.938-0.938s0.938 0.42 0.938 0.938c0 0.517 0.421 0.938 0.938 0.938s0.938-0.421 0.938-0.938v-4.466z"></path>
</svg>
