<?xml version="1.0" encoding="utf-8"?>
<!-- Generated by IcoMoon.io -->
<!DOCTYPE svg PUBLIC "-//W3C//DTD SVG 1.1//EN" "http://www.w3.org/Graphics/SVG/1.1/DTD/svg11.dtd">
<svg version="1.1" xmlns="http://www.w3.org/2000/svg" xmlns:xlink="http://www.w3.org/1999/xlink" width="32" height="32" viewBox="0 0 32 32">
<path d="M18.786 29h-4.643c-1.536 0-2.786-1.25-2.786-2.786 0-0.496 0.13-0.963 0.359-1.367-0.774-0.495-1.287-1.363-1.287-2.348 0-0.713 0.269-1.364 0.711-1.857-0.442-0.493-0.711-1.144-0.711-1.857 0-0.325 0.056-0.638 0.159-0.929h-6.659c-1.536 0-2.786-1.25-2.786-2.786s1.25-2.786 2.786-2.786h11.453l-2.723-5.108c-0.244-0.422-0.373-0.903-0.373-1.392 0-1.536 1.25-2.786 2.786-2.786 0.765 0 1.479 0.304 2.009 0.856 0.007 0.007 0.014 0.014 0.020 0.022l6.328 6.94v-1.318c0-0.513 0.416-0.929 0.929-0.929h5.571c0.513 0 0.929 0.416 0.929 0.929v18.571c0 0.513-0.416 0.929-0.929 0.929h-5.571c-0.513 0-0.929-0.416-0.929-0.929v-1.283l-4.228 2.114c-0.129 0.064-0.271 0.098-0.415 0.098zM26.214 27.143c0.513 0 0.929-0.416 0.929-0.929s-0.416-0.929-0.929-0.929-0.929 0.416-0.929 0.929 0.416 0.929 0.929 0.929zM18.567 27.143l4.862-2.431v-11.138l-7.695-8.439c-0.176-0.179-0.411-0.278-0.663-0.278-0.512 0-0.929 0.417-0.929 0.929 0 0.158 0.038 0.308 0.113 0.445 0.009 0.015 0.018 0.031 0.027 0.047l3.465 6.5c0.154 0.288 0.145 0.635-0.023 0.915s-0.47 0.451-0.796 0.451h-13c-0.512 0-0.929 0.417-0.929 0.929s0.417 0.929 0.929 0.929h9.286c0.513 0 0.929 0.416 0.929 0.929s-0.416 0.929-0.929 0.929c-0.512 0-0.929 0.417-0.929 0.929s0.417 0.929 0.929 0.929c0.513 0 0.929 0.416 0.929 0.929s-0.416 0.929-0.929 0.929c-0.512 0-0.929 0.417-0.929 0.929s0.417 0.929 0.929 0.929h0.929c0.513 0 0.929 0.416 0.929 0.929s-0.416 0.929-0.929 0.929c-0.512 0-0.929 0.417-0.929 0.929s0.417 0.929 0.929 0.929h4.424z"></path>
</svg>
