<?xml version="1.0" encoding="utf-8"?>
<!-- Generated by IcoMoon.io -->
<!DOCTYPE svg PUBLIC "-//W3C//DTD SVG 1.1//EN" "http://www.w3.org/Graphics/SVG/1.1/DTD/svg11.dtd">
<svg version="1.1" xmlns="http://www.w3.org/2000/svg" xmlns:xlink="http://www.w3.org/1999/xlink" width="32" height="32" viewBox="0 0 32 32">
<path d="M31 9.768l-2.809-2.809-5.548 5.548-3.15-3.15 5.548-5.548-2.809-2.809-5.548 5.548-3.562-3.562-2.689 2.689 15.892 15.892 2.689-2.689-3.562-3.562 5.548-5.548z"></path>
<path d="M23.862 21.913l-13.776-13.776c-2.974 3.566-6.348 9.077-4.016 13.819l-4.105 4.105c-0.966 0.966-0.966 2.546 0 3.512l0.461 0.461c0.966 0.966 2.546 0.966 3.512 0l4.105-4.105c4.742 2.332 10.253-1.042 13.819-4.016z"></path>
</svg>
