<?xml version="1.0" encoding="utf-8"?>
<!-- Generated by IcoMoon.io -->
<!DOCTYPE svg PUBLIC "-//W3C//DTD SVG 1.1//EN" "http://www.w3.org/Graphics/SVG/1.1/DTD/svg11.dtd">
<svg version="1.1" xmlns="http://www.w3.org/2000/svg" xmlns:xlink="http://www.w3.org/1999/xlink" width="32" height="32" viewBox="0 0 32 32">
<path d="M29.627 4.239h-8.955c-0.616 0-1.476 0.356-1.911 0.792l-11.103 11.103c-0.435 0.435-0.435 1.148 0 1.583l9.61 9.61c0.435 0.435 1.148 0.435 1.583 0l11.103-11.103c0.435-0.435 0.791-1.295 0.791-1.911v-8.955c0-0.616-0.504-1.119-1.119-1.119zM24.030 13.193c-1.236 0-2.239-1.002-2.239-2.239s1.002-2.239 2.239-2.239 2.239 1.002 2.239 2.239-1.002 2.239-2.239 2.239z"></path>
<path d="M3.882 16.924l12.686-12.686h-1.866c-0.616 0-1.476 0.356-1.911 0.792l-11.103 11.103c-0.435 0.435-0.435 1.148 0 1.583l9.61 9.61c0.435 0.435 1.148 0.435 1.583 0l0.701-0.701-9.701-9.701z"></path>
</svg>
