<?xml version="1.0" encoding="utf-8"?>
<!-- Generated by IcoMoon.io -->
<!DOCTYPE svg PUBLIC "-//W3C//DTD SVG 1.1//EN" "http://www.w3.org/Graphics/SVG/1.1/DTD/svg11.dtd">
<svg version="1.1" xmlns="http://www.w3.org/2000/svg" xmlns:xlink="http://www.w3.org/1999/xlink" width="32" height="32" viewBox="0 0 32 32">
<path d="M29.572 1h-11.42c-0.785 0-1.882 0.454-2.437 1.009l-14.16 14.16c-0.555 0.555-0.555 1.464 0 2.019l12.257 12.257c0.555 0.555 1.464 0.555 2.019 0l14.16-14.16c0.555-0.555 1.009-1.652 1.009-2.437v-11.42c0-0.785-0.642-1.428-1.428-1.428zM22.435 12.42c-1.577 0-2.855-1.278-2.855-2.855s1.278-2.855 2.855-2.855 2.855 1.278 2.855 2.855-1.278 2.855-2.855 2.855z"></path>
</svg>
