<?xml version="1.0" encoding="utf-8"?>
<!-- Generated by IcoMoon.io -->
<!DOCTYPE svg PUBLIC "-//W3C//DTD SVG 1.1//EN" "http://www.w3.org/Graphics/SVG/1.1/DTD/svg11.dtd">
<svg version="1.1" xmlns="http://www.w3.org/2000/svg" xmlns:xlink="http://www.w3.org/1999/xlink" width="32" height="32" viewBox="0 0 32 32">
<path d="M8.571 3h14.857v3.714h-14.857v-3.714z"></path>
<path d="M29 8.571h-26c-1.021 0-1.857 0.836-1.857 1.857v9.286c0 1.021 0.836 1.857 1.857 1.857h5.571v7.429h14.857v-7.429h5.571c1.021 0 1.857-0.836 1.857-1.857v-9.286c0-1.021-0.836-1.857-1.857-1.857zM4.857 14.143c-1.026 0-1.857-0.831-1.857-1.857s0.831-1.857 1.857-1.857 1.857 0.831 1.857 1.857-0.831 1.857-1.857 1.857zM21.571 27.143h-11.143v-9.286h11.143v9.286z"></path>
</svg>
