<?xml version="1.0" encoding="utf-8"?>
<!-- Generated by IcoMoon.io -->
<!DOCTYPE svg PUBLIC "-//W3C//DTD SVG 1.1//EN" "http://www.w3.org/Graphics/SVG/1.1/DTD/svg11.dtd">
<svg version="1.1" xmlns="http://www.w3.org/2000/svg" xmlns:xlink="http://www.w3.org/1999/xlink" width="32" height="32" viewBox="0 0 32 32">
<path d="M27.25 1h-22.5c-1.547 0-2.813 1.266-2.813 2.813v24.375c0 1.547 1.266 2.813 2.813 2.813h22.5c1.547 0 2.813-1.266 2.813-2.813v-24.375c0-1.547-1.266-2.813-2.813-2.813zM26.313 27.25h-20.625v-22.5h20.625v22.5zM9.438 17.875h13.125v1.875h-13.125zM9.438 21.625h13.125v1.875h-13.125zM11.313 9.438c0-1.553 1.259-2.813 2.813-2.813s2.813 1.259 2.813 2.813c0 1.553-1.259 2.813-2.813 2.813s-2.813-1.259-2.813-2.813zM16 12.25h-3.75c-1.547 0-2.813 0.844-2.813 1.875v1.875h9.375v-1.875c0-1.031-1.266-1.875-2.813-1.875z"></path>
</svg>
