<?xml version="1.0" encoding="utf-8"?>
<!-- Generated by IcoMoon.io -->
<!DOCTYPE svg PUBLIC "-//W3C//DTD SVG 1.1//EN" "http://www.w3.org/Graphics/SVG/1.1/DTD/svg11.dtd">
<svg version="1.1" xmlns="http://www.w3.org/2000/svg" xmlns:xlink="http://www.w3.org/1999/xlink" width="32" height="32" viewBox="0 0 32 32">
<path d="M10.375 2.875h-7.5v7.5h7.5v-7.5zM12.25 1v0 11.25h-11.25v-11.25h11.25zM4.75 4.75h3.75v3.75h-3.75zM29.125 2.875h-7.5v7.5h7.5v-7.5zM31 1v0 11.25h-11.25v-11.25h11.25zM23.5 4.75h3.75v3.75h-3.75zM10.375 21.625h-7.5v7.5h7.5v-7.5zM12.25 19.75v0 11.25h-11.25v-11.25h11.25zM4.75 23.5h3.75v3.75h-3.75zM14.125 1h1.875v1.875h-1.875zM16 2.875h1.875v1.875h-1.875zM14.125 4.75h1.875v1.875h-1.875zM16 6.625h1.875v1.875h-1.875zM14.125 8.5h1.875v1.875h-1.875zM16 10.375h1.875v1.875h-1.875zM14.125 12.25h1.875v1.875h-1.875zM14.125 16h1.875v1.875h-1.875zM16 17.875h1.875v1.875h-1.875zM14.125 19.75h1.875v1.875h-1.875zM16 21.625h1.875v1.875h-1.875zM14.125 23.5h1.875v1.875h-1.875zM16 25.375h1.875v1.875h-1.875zM14.125 27.25h1.875v1.875h-1.875zM16 29.125h1.875v1.875h-1.875zM29.125 16h1.875v1.875h-1.875zM2.875 16h1.875v1.875h-1.875zM4.75 14.125h1.875v1.875h-1.875zM1 14.125h1.875v1.875h-1.875zM8.5 14.125h1.875v1.875h-1.875zM10.375 16h1.875v1.875h-1.875zM12.25 14.125h1.875v1.875h-1.875zM17.875 16h1.875v1.875h-1.875zM19.75 14.125h1.875v1.875h-1.875zM21.625 16h1.875v1.875h-1.875zM23.5 14.125h1.875v1.875h-1.875zM25.375 16h1.875v1.875h-1.875zM27.25 14.125h1.875v1.875h-1.875zM29.125 19.75h1.875v1.875h-1.875zM17.875 19.75h1.875v1.875h-1.875zM19.75 17.875h1.875v1.875h-1.875zM21.625 19.75h1.875v1.875h-1.875zM25.375 19.75h1.875v1.875h-1.875zM27.25 17.875h1.875v1.875h-1.875zM29.125 23.5h1.875v1.875h-1.875zM17.875 23.5h1.875v1.875h-1.875zM19.75 21.625h1.875v1.875h-1.875zM23.5 21.625h1.875v1.875h-1.875zM25.375 23.5h1.875v1.875h-1.875zM27.25 21.625h1.875v1.875h-1.875zM29.125 27.25h1.875v1.875h-1.875zM19.75 25.375h1.875v1.875h-1.875zM21.625 27.25h1.875v1.875h-1.875zM23.5 25.375h1.875v1.875h-1.875zM25.375 27.25h1.875v1.875h-1.875zM19.75 29.125h1.875v1.875h-1.875zM23.5 29.125h1.875v1.875h-1.875zM27.25 29.125h1.875v1.875h-1.875z"></path>
</svg>
