<?xml version="1.0" encoding="utf-8"?>
<!-- Generated by IcoMoon.io -->
<!DOCTYPE svg PUBLIC "-//W3C//DTD SVG 1.1//EN" "http://www.w3.org/Graphics/SVG/1.1/DTD/svg11.dtd">
<svg version="1.1" xmlns="http://www.w3.org/2000/svg" xmlns:xlink="http://www.w3.org/1999/xlink" width="32" height="32" viewBox="0 0 32 32">
<path d="M24.159 18.724c-3.511 0-6.357-2.846-6.357-6.357s2.846-6.357 6.357-6.357 6.357 2.846 6.357 6.357l0.028 0.908c0 7.022-5.692 12.714-12.714 12.714v-3.632c2.426 0 4.706-0.945 6.421-2.66 0.33-0.33 0.631-0.682 0.903-1.051-0.325 0.051-0.657 0.078-0.996 0.078zM7.813 18.724c-3.511 0-6.357-2.846-6.357-6.357s2.846-6.357 6.357-6.357 6.357 2.846 6.357 6.357l0.028 0.908c0 7.022-5.692 12.714-12.714 12.714v-3.632c2.426 0 4.706-0.945 6.421-2.66 0.33-0.33 0.632-0.682 0.903-1.051-0.325 0.051-0.657 0.078-0.996 0.078z"></path>
</svg>
