<?xml version="1.0" encoding="utf-8"?>
<!-- Generated by IcoMoon.io -->
<!DOCTYPE svg PUBLIC "-//W3C//DTD SVG 1.1//EN" "http://www.w3.org/Graphics/SVG/1.1/DTD/svg11.dtd">
<svg version="1.1" xmlns="http://www.w3.org/2000/svg" xmlns:xlink="http://www.w3.org/1999/xlink" width="32" height="32" viewBox="0 0 32 32">
<path d="M8.57 17.883c0-1.026 0.832-1.857 1.857-1.857s1.857 0.832 1.857 1.857c0 1.026-0.832 1.857-1.857 1.857s-1.857-0.832-1.857-1.857zM19.715 17.883c0-1.026 0.832-1.857 1.857-1.857s1.857 0.832 1.857 1.857c0 1.026-0.832 1.857-1.857 1.857s-1.857-0.832-1.857-1.857zM19.805 21.853c0.478-0.377 1.172-0.295 1.549 0.184s0.295 1.172-0.184 1.549c-1.332 1.049-3.361 1.728-5.17 1.728s-3.838-0.678-5.17-1.727c-0.478-0.377-0.561-1.070-0.184-1.549s1.070-0.561 1.549-0.184c0.767 0.604 2.285 1.254 3.805 1.254s3.038-0.65 3.805-1.254zM30.859 14.168c0-2.052-1.663-3.715-3.715-3.715-1.396 0-2.612 0.771-3.246 1.91-1.909-1.045-4.236-1.719-6.77-1.875l2.217-4.978 4.243 1.225c0.382 1.084 1.414 1.861 2.628 1.861 1.539 0 2.786-1.247 2.786-2.786s-1.247-2.786-2.786-2.786c-1.061 0-1.983 0.593-2.454 1.466l-4.728-1.365c-0.529-0.153-1.089 0.108-1.313 0.611l-3.012 6.763c-2.471 0.174-4.738 0.842-6.606 1.864-0.635-1.139-1.851-1.91-3.247-1.91-2.052 0-3.715 1.663-3.715 3.715 0 1.518 0.911 2.823 2.216 3.399-0.234 0.697-0.359 1.425-0.359 2.174 0 5.129 5.821 9.287 13.002 9.287s13.002-4.158 13.002-9.287c0-0.749-0.125-1.476-0.359-2.173 1.305-0.576 2.216-1.881 2.216-3.399zM26.216 4.765c0.577 0 1.045 0.468 1.045 1.045s-0.468 1.045-1.045 1.045-1.045-0.468-1.045-1.045 0.468-1.045 1.045-1.045zM2.998 14.168c0-1.024 0.833-1.857 1.857-1.857 0.74 0 1.381 0.435 1.679 1.064-0.971 0.736-1.775 1.585-2.37 2.517-0.683-0.275-1.166-0.944-1.166-1.723zM16 26.822c-5.963 0-10.796-3.17-10.796-7.081s4.834-7.081 10.796-7.081c5.963 0 10.796 3.17 10.796 7.081s-4.834 7.081-10.796 7.081zM27.836 15.892c-0.595-0.932-1.399-1.781-2.37-2.517 0.298-0.628 0.939-1.064 1.679-1.064 1.024 0 1.857 0.833 1.857 1.857 0 0.78-0.483 1.449-1.166 1.723z"></path>
</svg>
