<?xml version="1.0" encoding="utf-8"?>
<!-- Generated by IcoMoon.io -->
<!DOCTYPE svg PUBLIC "-//W3C//DTD SVG 1.1//EN" "http://www.w3.org/Graphics/SVG/1.1/DTD/svg11.dtd">
<svg version="1.1" xmlns="http://www.w3.org/2000/svg" xmlns:xlink="http://www.w3.org/1999/xlink" width="32" height="32" viewBox="0 0 32 32">
<path d="M13.459 1.166c-7.061 1.189-12.448 7.331-12.448 14.732 0 3.677 1.335 7.044 3.537 9.65 5.229-2.529 8.888-8.256 8.912-14.925v-9.456z"></path>
<path d="M18.541 1.166c7.061 1.189 12.448 7.331 12.448 14.732 0 3.677-1.335 7.044-3.537 9.65-5.229-2.529-8.888-8.256-8.912-14.925v-9.456z"></path>
<path d="M15.947 19.668c-0.931 3.853-3.712 7.143-7.173 9.333 2.131 1.165 4.573 1.833 7.173 1.833s5.041-0.668 7.173-1.833c-3.46-2.19-6.242-5.481-7.173-9.333z"></path>
</svg>
