<?xml version="1.0" encoding="utf-8"?>
<!-- Generated by IcoMoon.io -->
<!DOCTYPE svg PUBLIC "-//W3C//DTD SVG 1.1//EN" "http://www.w3.org/Graphics/SVG/1.1/DTD/svg11.dtd">
<svg version="1.1" xmlns="http://www.w3.org/2000/svg" xmlns:xlink="http://www.w3.org/1999/xlink" width="32" height="32" viewBox="0 0 32 32">
<path d="M4.993 23c-2.203 0-3.993 1.797-3.993 3.987 0 2.202 1.79 3.979 3.993 3.979 2.211 0 3.999-1.777 3.999-3.979-0-2.19-1.788-3.987-3.999-3.987zM1.005 11.193v5.75c3.744 0 7.264 1.464 9.916 4.117 2.648 2.646 4.11 6.183 4.11 9.94h5.775c-0-10.922-8.885-19.807-19.801-19.807zM1.011 1v5.753c13.353 0 24.221 10.879 24.221 24.247h5.767c0-16.537-13.455-30-29.989-30z"></path>
</svg>
