<?xml version="1.0" encoding="utf-8"?>
<!-- Generated by IcoMoon.io -->
<!DOCTYPE svg PUBLIC "-//W3C//DTD SVG 1.1//EN" "http://www.w3.org/Graphics/SVG/1.1/DTD/svg11.dtd">
<svg version="1.1" xmlns="http://www.w3.org/2000/svg" xmlns:xlink="http://www.w3.org/1999/xlink" width="32" height="32" viewBox="0 0 32 32">
<path d="M16 1c-8.285 0-15 6.715-15 15s6.715 15 15 15 15-6.715 15-15-6.715-15-15-15zM29.078 14.852l-0.029-0.311c0.006 0.105 0.018 0.205 0.029 0.311zM27.027 8.875l-0.211-0.316c0.070 0.105 0.141 0.211 0.211 0.316zM26.213 7.756l-0.129-0.158c0.047 0.053 0.088 0.105 0.129 0.158zM24.396 5.91l-0.158-0.129c0.059 0.047 0.105 0.088 0.158 0.129zM23.441 5.184l-0.316-0.211c0.105 0.070 0.211 0.141 0.316 0.211zM17.459 2.957l-0.316-0.029c0.105 0.006 0.211 0.018 0.316 0.029zM14.852 2.922l-0.316 0.029c0.105-0.006 0.211-0.018 0.316-0.029zM8.875 4.973l-0.316 0.211c0.105-0.070 0.211-0.141 0.316-0.211zM7.756 5.787l-0.152 0.123c0.053-0.041 0.1-0.082 0.152-0.123zM5.91 7.604l-0.129 0.158c0.047-0.053 0.088-0.105 0.129-0.158zM5.184 8.559l-0.211 0.316c0.070-0.105 0.141-0.211 0.211-0.316zM2.957 14.541l-0.029 0.316c0.006-0.105 0.018-0.211 0.029-0.316zM2.922 17.148l0.029 0.316c-0.006-0.105-0.018-0.211-0.029-0.316zM4.973 23.119l0.211 0.316c-0.070-0.1-0.141-0.205-0.211-0.316zM5.219 23.488l2.338-1.564-0.258-0.393-2.338 1.564c-1.061-1.646-1.758-3.539-1.992-5.578l1.4-0.141-0.047-0.469-1.4 0.141c-0.023-0.27-0.035-0.545-0.041-0.82h2.813v-0.469h-2.813c0.006-0.275 0.018-0.545 0.041-0.82l1.4 0.135 0.047-0.469-1.4-0.135c0.234-2.039 0.938-3.932 1.998-5.578l2.338 1.564 0.258-0.393-2.344-1.553c0.158-0.223 0.316-0.445 0.486-0.656l1.084 0.891 0.299-0.363-1.084-0.891c0.176-0.211 0.363-0.41 0.551-0.609l1.986 1.986 0.334-0.334-1.986-1.986c0.199-0.188 0.398-0.375 0.604-0.551l0.891 1.090 0.363-0.299-0.891-1.084c0.217-0.17 0.434-0.334 0.656-0.492l1.564 2.338 0.393-0.258-1.564-2.338c1.646-1.061 3.539-1.758 5.578-1.992l0.141 1.4 0.469-0.047-0.141-1.4c0.27-0.023 0.545-0.035 0.82-0.041v2.813h0.469v-2.813c0.275 0.006 0.545 0.018 0.82 0.041l-0.135 1.4 0.469 0.047 0.135-1.4c2.039 0.234 3.932 0.938 5.578 1.998l-1.564 2.338 0.393 0.258 1.564-2.338c0.223 0.158 0.445 0.316 0.656 0.486l-0.891 1.084 0.363 0.299 0.891-1.084c0.211 0.176 0.41 0.363 0.609 0.551l-0.75 0.732-10.254 6.838-6.838 10.254-0.732 0.732c-0.188-0.199-0.375-0.398-0.551-0.604l1.084-0.891-0.299-0.363-1.084 0.891c-0.17-0.211-0.328-0.434-0.486-0.656zM5.91 24.396c-0.041-0.053-0.082-0.1-0.123-0.152l0.123 0.152zM7.604 26.090l0.152 0.123c-0.053-0.041-0.1-0.082-0.152-0.123zM8.559 26.811l0.316 0.211c-0.105-0.064-0.211-0.135-0.316-0.211zM14.541 29.043l0.316 0.029c-0.105-0.006-0.211-0.018-0.316-0.029zM17.148 29.078l0.311-0.029c-0.105 0.006-0.205 0.018-0.311 0.029zM23.125 27.027l0.316-0.211c-0.105 0.070-0.211 0.141-0.316 0.211zM24.244 26.213l0.158-0.129c-0.053 0.047-0.105 0.088-0.158 0.129zM25.27 25.293l0.023-0.023c-0.006 0.006-0.018 0.018-0.023 0.023zM26.090 24.396l0.129-0.158c-0.047 0.053-0.088 0.105-0.129 0.158zM26.295 24.145l-1.084-0.891-0.299 0.363 1.084 0.891c-0.176 0.211-0.363 0.41-0.551 0.609l-1.986-1.986-0.334 0.334 1.986 1.986c-0.199 0.188-0.398 0.375-0.604 0.551l-0.891-1.090-0.363 0.299 0.891 1.084c-0.217 0.17-0.434 0.334-0.656 0.492l-1.564-2.338-0.393 0.258 1.564 2.338c-1.646 1.061-3.539 1.758-5.578 1.992l-0.141-1.4-0.469 0.047 0.141 1.4c-0.27 0.023-0.545 0.035-0.82 0.041v-2.813h-0.469v2.813c-0.275-0.006-0.545-0.018-0.82-0.041l0.135-1.4-0.469-0.047-0.135 1.4c-2.039-0.234-3.932-0.938-5.578-1.998l1.564-2.338-0.393-0.258-1.553 2.338c-0.223-0.158-0.445-0.316-0.656-0.486l0.891-1.084-0.363-0.299-0.891 1.084c-0.211-0.176-0.41-0.363-0.609-0.551l0.738-0.732 10.254-6.838 6.838-10.254 0.732-0.732c0.188 0.199 0.375 0.398 0.551 0.604l-1.084 0.891 0.299 0.363 1.084-0.891c0.17 0.217 0.334 0.434 0.492 0.656l-2.338 1.564 0.258 0.393 2.338-1.564c1.061 1.646 1.758 3.539 1.992 5.578l-1.4 0.141 0.047 0.469 1.4-0.141c0.023 0.27 0.035 0.545 0.041 0.82h-2.813v0.469h2.813c-0.006 0.275-0.018 0.545-0.041 0.82l-1.4-0.135-0.047 0.469 1.4 0.135c-0.234 2.039-0.938 3.932-1.998 5.578l-2.338-1.564-0.258 0.393 2.338 1.564c-0.152 0.211-0.316 0.428-0.486 0.645zM29.078 17.143c-0.012 0.105-0.018 0.211-0.029 0.316l0.029-0.316zM27.027 23.125c-0.070 0.105-0.141 0.211-0.211 0.316l0.211-0.316z"></path>
<path d="M13.672 3.082l0.549 2.759-0.46 0.091-0.549-2.759 0.46-0.091z"></path>
<path d="M18.334 28.918l-0.549-2.759 0.46-0.091 0.549 2.759-0.46 0.091z"></path>
<path d="M12.415 3.37l0.408 1.346-0.449 0.136-0.408-1.346 0.449-0.136z"></path>
<path d="M19.587 28.624l-0.408-1.346 0.449-0.136 0.408 1.346-0.449 0.136z"></path>
<path d="M11.196 3.786l1.076 2.598-0.433 0.179-1.076-2.598 0.433-0.179z"></path>
<path d="M20.808 28.216l-1.076-2.598 0.433-0.179 1.076 2.598-0.433 0.179z"></path>
<path d="M9.602 4.535l0.413-0.221 0.663 1.24-0.413 0.221-0.663-1.24z"></path>
<path d="M22.39 27.464l-0.413 0.221-0.663-1.24 0.413-0.221 0.663 1.24z"></path>
<path d="M4.533 9.608l1.24 0.663-0.221 0.413-1.24-0.663 0.221-0.413z"></path>
<path d="M27.462 22.392l-1.24-0.663 0.221-0.413 1.24 0.663-0.221 0.413z"></path>
<path d="M6.385 12.268l-2.598-1.076 0.179-0.433 2.598 1.076-0.179 0.433z"></path>
<path d="M25.619 19.73l2.598 1.076-0.179 0.433-2.598-1.076 0.179-0.433z"></path>
<path d="M3.506 11.968l1.346 0.408-0.136 0.449-1.346-0.408 0.136-0.449z"></path>
<path d="M28.489 20.033l-1.346-0.408 0.136-0.449 1.346 0.408-0.136 0.449z"></path>
<path d="M3.17 13.21l2.758 0.549-0.091 0.46-2.759-0.549 0.091-0.46z"></path>
<path d="M28.824 18.79l-2.759-0.549 0.091-0.46 2.759 0.549-0.091 0.46z"></path>
<path d="M3.079 18.331l2.759-0.549 0.091 0.46-2.759 0.549-0.091-0.46z"></path>
<path d="M28.915 13.669l-2.759 0.549-0.091-0.46 2.759-0.549 0.091 0.46z"></path>
<path d="M3.372 19.589l1.346-0.408 0.136 0.449-1.346 0.408-0.136-0.449z"></path>
<path d="M28.626 12.417l-1.346 0.408-0.136-0.449 1.346-0.408 0.136 0.449z"></path>
<path d="M3.963 21.242l-0.179-0.433 2.598-1.076 0.179 0.433-2.598 1.076z"></path>
<path d="M28.035 10.763l0.179 0.433-2.598 1.076-0.179-0.433 2.598-1.076z"></path>
<path d="M4.54 22.395l-0.221-0.413 1.24-0.663 0.221 0.413-1.24 0.663z"></path>
<path d="M27.468 9.607l0.221 0.413-1.24 0.663-0.221-0.413 1.24-0.663z"></path>
<path d="M10.020 27.685l-0.413-0.221 0.663-1.24 0.413 0.221-0.663 1.24z"></path>
<path d="M21.979 4.313l0.413 0.221-0.663 1.24-0.413-0.221 0.663-1.24z"></path>
<path d="M10.764 28.035l1.076-2.598 0.433 0.179-1.076 2.598-0.433-0.179z"></path>
<path d="M21.241 3.962l-1.076 2.598-0.433-0.179 1.076-2.598 0.433 0.179z"></path>
<path d="M12.415 28.628l-0.449-0.136 0.408-1.346 0.449 0.136-0.408 1.346z"></path>
<path d="M19.584 3.37l0.449 0.136-0.408 1.346-0.449-0.136 0.408-1.346z"></path>
<path d="M13.67 28.915l-0.46-0.091 0.549-2.759 0.46 0.091-0.549 2.759z"></path>
<path d="M18.33 3.079l0.46 0.091-0.549 2.759-0.46-0.091 0.549-2.759z"></path>
</svg>
