<?xml version="1.0" encoding="utf-8"?>
<!-- Generated by IcoMoon.io -->
<!DOCTYPE svg PUBLIC "-//W3C//DTD SVG 1.1//EN" "http://www.w3.org/Graphics/SVG/1.1/DTD/svg11.dtd">
<svg version="1.1" xmlns="http://www.w3.org/2000/svg" xmlns:xlink="http://www.w3.org/1999/xlink" width="32" height="32" viewBox="0 0 32 32">
<path d="M28.986 21.345c-1.996-3.119-5.42-4.492-7.648-3.066-0.192 0.123-0.369 0.264-0.531 0.419l-2.378-3.72 5.492-8.62c0.449-0.83 0.615-1.819 0.397-2.813-0.209-0.95-0.734-1.749-1.44-2.312l-0.368-0.234-6.509 10.181-6.51-10.181-0.367 0.234c-0.706 0.562-1.231 1.361-1.44 2.312-0.218 0.994-0.052 1.983 0.397 2.813l5.492 8.62-2.378 3.72c-0.162-0.155-0.339-0.295-0.531-0.419-2.228-1.426-5.652-0.053-7.648 3.066s-1.808 6.803 0.42 8.229c2.228 1.426 5.652 0.053 7.648-3.066l4.918-7.719 4.918 7.719c1.996 3.119 5.42 4.492 7.648 3.066s2.416-5.11 0.42-8.229zM8.662 24.959c-0.899 1.404-2.051 2.087-2.831 2.258-0 0-0 0-0 0-0.254 0.056-0.607 0.090-0.848-0.064-0.266-0.17-0.443-0.621-0.473-1.206-0.048-0.947 0.289-2.060 0.925-3.054 0.898-1.404 2.051-2.087 2.831-2.258 0.254-0.056 0.608-0.090 0.848 0.064 0.266 0.17 0.443 0.621 0.473 1.205 0.048 0.947-0.289 2.061-0.924 3.054zM16 16.326c-0.529 0-0.958-0.429-0.958-0.958s0.429-0.958 0.958-0.958 0.958 0.429 0.958 0.958-0.429 0.958-0.958 0.958zM27.49 25.948c-0.030 0.585-0.207 1.035-0.473 1.206-0.24 0.154-0.594 0.12-0.848 0.064 0 0 0 0-0 0-0.779-0.171-1.932-0.854-2.831-2.258-0.636-0.994-0.973-2.107-0.924-3.054 0.030-0.584 0.207-1.035 0.473-1.205 0.24-0.154 0.594-0.119 0.848-0.064 0.779 0.171 1.932 0.854 2.831 2.258 0.636 0.994 0.973 2.107 0.925 3.054z"></path>
</svg>
