<?xml version="1.0" encoding="utf-8"?>
<!-- Generated by IcoMoon.io -->
<!DOCTYPE svg PUBLIC "-//W3C//DTD SVG 1.1//EN" "http://www.w3.org/Graphics/SVG/1.1/DTD/svg11.dtd">
<svg version="1.1" xmlns="http://www.w3.org/2000/svg" xmlns:xlink="http://www.w3.org/1999/xlink" width="32" height="32" viewBox="0 0 32 32">
<path d="M15.53 31c-1.446 0-2.669-0.422-3.636-1.255-0.973-0.838-1.467-1.818-1.467-2.91 0-0.531 0.193-0.989 0.575-1.361 0.388-0.378 0.873-0.578 1.402-0.578 0.527 0 1.002 0.188 1.372 0.543 0.365 0.351 0.551 0.815 0.551 1.38 0 0.332-0.054 0.698-0.161 1.088-0.106 0.386-0.128 0.584-0.128 0.682 0 0.108 0.027 0.237 0.228 0.374 0.374 0.259 0.822 0.383 1.373 0.383 0.661 0 1.252-0.23 1.804-0.704 0.544-0.467 0.809-0.947 0.809-1.466 0-0.578-0.154-1.079-0.472-1.531-0.537-0.755-1.549-1.639-3.006-2.627-2.34-1.566-3.899-2.923-4.763-4.146-0.671-0.958-1.010-1.989-1.010-3.067 0-1.086 0.356-2.166 1.057-3.212 0.601-0.895 1.488-1.703 2.643-2.406-0.618-0.665-1.081-1.291-1.38-1.866-0.377-0.725-0.568-1.476-0.568-2.23 0-1.401 0.554-2.612 1.647-3.6s2.457-1.491 4.052-1.491c1.467 0 2.701 0.413 3.667 1.226 0.976 0.823 1.471 1.784 1.471 2.858 0 0.547-0.205 1.036-0.608 1.455l-0.008 0.008c-0.234 0.232-0.663 0.509-1.378 0.509-0.561 0-1.053-0.184-1.422-0.531-0.368-0.346-0.555-0.759-0.555-1.229 0-0.203 0.050-0.51 0.157-0.966 0.052-0.216 0.078-0.414 0.078-0.593 0-0.303-0.109-0.535-0.343-0.731-0.243-0.203-0.589-0.302-1.059-0.302-0.729 0-1.327 0.222-1.828 0.677-0.504 0.457-0.748 0.999-0.748 1.655 0 0.591 0.134 1.077 0.398 1.446 0.501 0.701 1.371 1.459 2.585 2.251 2.466 1.599 4.187 3.067 5.113 4.36 0.684 0.97 1.030 2.002 1.030 3.070 0 1.072-0.348 2.153-1.035 3.213-0.592 0.913-1.486 1.737-2.663 2.452 0.65 0.687 1.108 1.29 1.393 1.832 0.354 0.673 0.533 1.408 0.533 2.184 0 1.455-0.554 2.691-1.648 3.674s-2.457 1.481-4.051 1.481zM14.079 11.44c-1.413 0.848-2.101 1.822-2.101 2.968 0 0.667 0.19 1.264 0.582 1.825 0.584 0.818 1.736 1.818 3.422 2.967 0.714 0.486 1.358 0.958 1.922 1.408 1.437-0.864 2.137-1.827 2.137-2.935 0-0.603-0.239-1.253-0.709-1.931-0.492-0.709-1.548-1.635-3.139-2.751-0.83-0.573-1.54-1.094-2.114-1.551z"></path>
</svg>
