<?xml version="1.0" encoding="utf-8"?>
<!-- Generated by IcoMoon.io -->
<!DOCTYPE svg PUBLIC "-//W3C//DTD SVG 1.1//EN" "http://www.w3.org/Graphics/SVG/1.1/DTD/svg11.dtd">
<svg version="1.1" xmlns="http://www.w3.org/2000/svg" xmlns:xlink="http://www.w3.org/1999/xlink" width="32" height="32" viewBox="0 0 32 32">
<path d="M26.313 21.625c-1.323 0-2.517 0.549-3.369 1.431l-12.627-6.314c0.039-0.242 0.059-0.489 0.059-0.742s-0.021-0.5-0.059-0.742l12.627-6.314c0.852 0.882 2.046 1.431 3.369 1.431 2.589 0 4.688-2.099 4.688-4.688s-2.099-4.688-4.688-4.688-4.688 2.099-4.688 4.688c0 0.253 0.021 0.5 0.059 0.742l-12.627 6.314c-0.852-0.882-2.046-1.431-3.37-1.431-2.589 0-4.688 2.099-4.688 4.688s2.099 4.688 4.688 4.688c1.323 0 2.517-0.549 3.37-1.43l12.627 6.314c-0.038 0.242-0.059 0.489-0.059 0.742 0 2.589 2.099 4.688 4.688 4.688s4.688-2.099 4.688-4.688c0-2.589-2.099-4.688-4.688-4.688z"></path>
</svg>
