<?xml version="1.0" encoding="utf-8"?>
<!-- Generated by IcoMoon.io -->
<!DOCTYPE svg PUBLIC "-//W3C//DTD SVG 1.1//EN" "http://www.w3.org/Graphics/SVG/1.1/DTD/svg11.dtd">
<svg version="1.1" xmlns="http://www.w3.org/2000/svg" xmlns:xlink="http://www.w3.org/1999/xlink" width="32" height="32" viewBox="0 0 32 32">
<path d="M22.225 31h-12.449c-0.688 0-1.245-0.557-1.245-1.245v-13.694h-4.98c-0.503 0-0.958-0.303-1.15-0.768s-0.086-1.001 0.27-1.357l12.449-12.449c0.486-0.486 1.274-0.486 1.761 0l12.449 12.449c0.356 0.356 0.463 0.892 0.27 1.357s-0.647 0.768-1.15 0.768h-4.98v13.694c0 0.688-0.557 1.245-1.245 1.245zM11.020 28.51h9.96v-13.694c0-0.688 0.557-1.245 1.245-1.245h3.219l-9.444-9.444-9.444 9.444h3.219c0.688 0 1.245 0.557 1.245 1.245v13.694z"></path>
</svg>
