<?xml version="1.0" encoding="utf-8"?>
<!-- Generated by IcoMoon.io -->
<!DOCTYPE svg PUBLIC "-//W3C//DTD SVG 1.1//EN" "http://www.w3.org/Graphics/SVG/1.1/DTD/svg11.dtd">
<svg version="1.1" xmlns="http://www.w3.org/2000/svg" xmlns:xlink="http://www.w3.org/1999/xlink" width="32" height="32" viewBox="0 0 32 32">
<path d="M16 1c-8.284 0-15 6.716-15 15s6.716 15 15 15 15-6.716 15-15-6.716-15-15-15zM10.375 14.125c-1.036 0-1.875-1.259-1.875-2.813s0.839-2.813 1.875-2.813 1.875 1.259 1.875 2.813-0.839 2.813-1.875 2.813zM16 25.375c-2.071 0-3.75-1.679-3.75-3.75s1.679-3.75 3.75-3.75c2.071 0 3.75 1.679 3.75 3.75s-1.679 3.75-3.75 3.75zM21.625 14.125c-1.036 0-1.875-1.259-1.875-2.813s0.839-2.813 1.875-2.813 1.875 1.259 1.875 2.813-0.839 2.813-1.875 2.813z"></path>
</svg>
