<?xml version="1.0" encoding="utf-8"?>
<!-- Generated by IcoMoon.io -->
<!DOCTYPE svg PUBLIC "-//W3C//DTD SVG 1.1//EN" "http://www.w3.org/Graphics/SVG/1.1/DTD/svg11.dtd">
<svg version="1.1" xmlns="http://www.w3.org/2000/svg" xmlns:xlink="http://www.w3.org/1999/xlink" width="32" height="32" viewBox="0 0 32 32">
<path d="M24.167 20.804h-3.047l-4.804-4.804 4.804-4.804h3.047v4.804l6.726-6.726-6.726-6.726v4.804h-3.843c-0.51 0-0.998 0.202-1.359 0.563l-5.367 5.367-5.367-5.367c-0.36-0.36-0.849-0.563-1.359-0.563h-5.765v3.843h4.969l4.804 4.804-4.804 4.804h-4.969v3.843h5.765c0.51 0 0.998-0.202 1.359-0.563l5.367-5.367 5.367 5.367c0.36 0.36 0.849 0.563 1.359 0.563h3.843v4.804l6.726-6.726-6.726-6.726v4.804z"></path>
</svg>
