<?xml version="1.0" encoding="utf-8"?>
<!-- Generated by IcoMoon.io -->
<!DOCTYPE svg PUBLIC "-//W3C//DTD SVG 1.1//EN" "http://www.w3.org/Graphics/SVG/1.1/DTD/svg11.dtd">
<svg version="1.1" xmlns="http://www.w3.org/2000/svg" xmlns:xlink="http://www.w3.org/1999/xlink" width="32" height="32" viewBox="0 0 32 32">
<path d="M13.455 26.25c-4.818 0.477-8.977-1.705-9.29-4.864-0.313-3.165 3.341-6.108 8.153-6.585 4.818-0.477 8.977 1.705 9.284 4.864 0.318 3.165-3.335 6.114-8.148 6.585zM23.085 15.756c-0.409-0.125-0.693-0.205-0.477-0.744 0.466-1.17 0.511-2.176 0.006-2.898-0.943-1.347-3.528-1.278-6.489-0.034 0 0-0.932 0.403-0.693-0.33 0.455-1.466 0.386-2.688-0.324-3.398-1.608-1.608-5.881 0.063-9.545 3.727-2.739 2.733-4.33 5.648-4.33 8.165 0 4.807 6.17 7.733 12.205 7.733 7.909 0 13.176-4.597 13.176-8.244 0-2.21-1.858-3.46-3.528-3.977z"></path>
<path d="M28.341 6.949c-1.909-2.119-4.727-2.926-7.33-2.375v0c-0.602 0.131-0.983 0.722-0.852 1.318 0.131 0.602 0.716 0.983 1.318 0.852 1.852-0.392 3.852 0.182 5.21 1.688s1.727 3.557 1.142 5.352v0c-0.188 0.585 0.131 1.21 0.716 1.403 0.585 0.188 1.21-0.131 1.403-0.716v-0.006c0.818-2.511 0.301-5.398-1.608-7.517z"></path>
<path d="M25.403 9.602c-0.932-1.034-2.307-1.426-3.568-1.153-0.517 0.108-0.847 0.625-0.739 1.142 0.114 0.517 0.625 0.847 1.136 0.733v0c0.619-0.131 1.29 0.063 1.744 0.563 0.455 0.506 0.58 1.193 0.381 1.795v0c-0.159 0.5 0.114 1.045 0.619 1.21 0.506 0.159 1.045-0.114 1.21-0.619 0.398-1.233 0.148-2.642-0.784-3.67z"></path>
<path d="M13.722 20.528c-0.17 0.29-0.54 0.426-0.83 0.307-0.29-0.114-0.375-0.443-0.21-0.722 0.17-0.278 0.528-0.415 0.813-0.307 0.284 0.102 0.386 0.426 0.227 0.722zM12.182 22.494c-0.466 0.744-1.466 1.068-2.216 0.727-0.739-0.335-0.96-1.199-0.494-1.926 0.46-0.722 1.426-1.045 2.17-0.733 0.756 0.324 1 1.182 0.54 1.932zM13.932 17.233c-2.29-0.597-4.881 0.545-5.875 2.563-1.017 2.057-0.034 4.347 2.278 5.097 2.398 0.773 5.227-0.415 6.21-2.631 0.972-2.176-0.239-4.409-2.614-5.028z"></path>
</svg>
