<?xml version="1.0" encoding="utf-8"?>
<!-- Generated by IcoMoon.io -->
<!DOCTYPE svg PUBLIC "-//W3C//DTD SVG 1.1//EN" "http://www.w3.org/Graphics/SVG/1.1/DTD/svg11.dtd">
<svg version="1.1" xmlns="http://www.w3.org/2000/svg" xmlns:xlink="http://www.w3.org/1999/xlink" width="32" height="32" viewBox="0 0 32 32">
<path d="M13.463 2.104c-0.047-0.029-0.1-0.053-0.146-0.076-0.053 0.012-0.1 0.018-0.152 0.029l0.299 0.047z"></path>
<path d="M2.074 13.34c-0.012 0.053-0.018 0.105-0.023 0.152 0.029 0.047 0.047 0.094 0.076 0.141l-0.053-0.293z"></path>
<path d="M29.902 18.66c0.012-0.053 0.018-0.105 0.029-0.158-0.029-0.047-0.047-0.094-0.076-0.141l0.047 0.299z"></path>
<path d="M18.338 29.803c0.047 0.029 0.1 0.053 0.146 0.076 0.053-0.012 0.105-0.018 0.158-0.023l-0.305-0.053z"></path>
<path d="M29.931 18.502c-0.012 0.053-0.018 0.105-0.029 0.158l-0.053-0.305c0.029 0.053 0.053 0.1 0.082 0.146 0.152-0.844 0.234-1.705 0.234-2.566 0-1.91-0.375-3.767-1.113-5.513-0.715-1.687-1.734-3.205-3.035-4.505s-2.818-2.32-4.499-3.035c-1.746-0.738-3.603-1.113-5.513-1.113-0.902 0-1.804 0.082-2.683 0.252 0 0-0.006 0-0.006 0 0.047 0.023 0.1 0.047 0.146 0.076l-0.299-0.047c0.053-0.012 0.1-0.018 0.152-0.029-1.207-0.639-2.56-0.984-3.931-0.984-2.238 0-4.347 0.873-5.929 2.455s-2.455 3.691-2.455 5.929c0 1.424 0.369 2.83 1.055 4.066 0.012-0.053 0.018-0.105 0.023-0.152l0.053 0.299c-0.029-0.047-0.053-0.094-0.076-0.141-0.141 0.803-0.211 1.623-0.211 2.443 0 1.91 0.375 3.767 1.113 5.513 0.715 1.687 1.734 3.199 3.035 4.499s2.818 2.32 4.505 3.035c1.746 0.738 3.603 1.113 5.513 1.113 0.832 0 1.664-0.076 2.478-0.223-0.047-0.029-0.094-0.053-0.146-0.076l0.305 0.053c-0.053 0.012-0.105 0.018-0.158 0.023 1.254 0.709 2.677 1.090 4.124 1.090 2.238 0 4.347-0.873 5.929-2.455s2.455-3.691 2.455-5.929c-0.006-1.424-0.375-2.83-1.066-4.078zM16.059 24.612c-5.032 0-7.282-2.472-7.282-4.329 0-0.949 0.703-1.617 1.67-1.617 2.156 0 1.594 3.093 5.612 3.093 2.056 0 3.193-1.119 3.193-2.261 0-0.685-0.34-1.447-1.693-1.781l-4.476-1.119c-3.603-0.902-4.259-2.853-4.259-4.687 0-3.802 3.58-5.232 6.942-5.232 3.099 0 6.749 1.711 6.749 3.995 0 0.978-0.849 1.547-1.816 1.547-1.84 0-1.5-2.543-5.202-2.543-1.84 0-2.853 0.832-2.853 2.021s1.453 1.57 2.712 1.857l3.316 0.738c3.626 0.808 4.546 2.929 4.546 4.921 0 3.087-2.373 5.396-7.159 5.396z"></path>
</svg>
