<?xml version="1.0" encoding="utf-8"?>
<!-- Generated by IcoMoon.io -->
<!DOCTYPE svg PUBLIC "-//W3C//DTD SVG 1.1//EN" "http://www.w3.org/Graphics/SVG/1.1/DTD/svg11.dtd">
<svg version="1.1" xmlns="http://www.w3.org/2000/svg" xmlns:xlink="http://www.w3.org/1999/xlink" width="32" height="32" viewBox="0 0 32 32">
<path d="M16 31c8.284 0 15-6.716 15-15s-6.716-15-15-15-15 6.716-15 15 6.716 15 15 15zM16 3.813c6.731 0 12.188 5.457 12.188 12.188s-5.457 12.188-12.188 12.188-12.188-5.457-12.188-12.188 5.457-12.188 12.188-12.188z"></path>
<path d="M19.75 20.688c0 2.589-1.679 4.688-3.75 4.688s-3.75-2.099-3.75-4.688c0-2.589 1.679-4.688 3.75-4.688s3.75 2.099 3.75 4.688z"></path>
<path d="M13.188 10.961c-0.24 0-0.48-0.092-0.663-0.275-0.566-0.566-1.858-0.566-2.424 0-0.366 0.366-0.96 0.366-1.326 0s-0.366-0.96 0-1.326c1.305-1.305 3.771-1.305 5.076 0 0.366 0.366 0.366 0.96 0 1.326-0.183 0.183-0.423 0.275-0.663 0.275z"></path>
<path d="M22.563 10.961c-0.24 0-0.48-0.092-0.663-0.275-0.566-0.566-1.858-0.566-2.424 0-0.366 0.366-0.96 0.366-1.326 0s-0.366-0.96 0-1.326c1.305-1.305 3.771-1.305 5.076 0 0.366 0.366 0.366 0.96 0 1.326-0.183 0.183-0.423 0.275-0.663 0.275z"></path>
</svg>
