<?xml version="1.0" encoding="utf-8"?>
<!-- Generated by IcoMoon.io -->
<!DOCTYPE svg PUBLIC "-//W3C//DTD SVG 1.1//EN" "http://www.w3.org/Graphics/SVG/1.1/DTD/svg11.dtd">
<svg version="1.1" xmlns="http://www.w3.org/2000/svg" xmlns:xlink="http://www.w3.org/1999/xlink" width="32" height="32" viewBox="0 0 32 32">
<path d="M16 1c-8.284 0-15 6.716-15 15s6.716 15 15 15 15-6.716 15-15-6.716-15-15-15zM21.625 8.5c1.036 0 1.875 0.839 1.875 1.875s-0.839 1.875-1.875 1.875-1.875-0.839-1.875-1.875 0.839-1.875 1.875-1.875zM10.375 8.5c1.036 0 1.875 0.839 1.875 1.875s-0.839 1.875-1.875 1.875-1.875-0.839-1.875-1.875 0.839-1.875 1.875-1.875zM16 25.375c-3.413 0-6.4-1.824-8.040-4.551l2.412-1.447c1.148 1.909 3.239 3.186 5.628 3.186s4.48-1.277 5.628-3.186l2.412 1.447c-1.64 2.727-4.626 4.551-8.040 4.551z"></path>
</svg>
