<?xml version="1.0" encoding="utf-8"?>
<!-- Generated by IcoMoon.io -->
<!DOCTYPE svg PUBLIC "-//W3C//DTD SVG 1.1//EN" "http://www.w3.org/Graphics/SVG/1.1/DTD/svg11.dtd">
<svg version="1.1" xmlns="http://www.w3.org/2000/svg" xmlns:xlink="http://www.w3.org/1999/xlink" width="32" height="32" viewBox="0 0 32 32">
<path d="M10.844 23.5v-22.5h-3.75v22.5h-4.688l6.563 6.563 6.563-6.563h-4.688z"></path>
<path d="M26.781 14.125c-0.518 0-0.938-0.42-0.938-0.938v-10.313h-0.938c-0.518 0-0.938-0.42-0.938-0.938s0.42-0.938 0.938-0.938h1.875c0.518 0 0.938 0.42 0.938 0.938v11.25c0 0.518-0.42 0.938-0.938 0.938z"></path>
<path d="M28.656 17.875h-5.625c-0.518 0-0.938 0.42-0.938 0.938v5.625c0 0.518 0.42 0.938 0.938 0.938h4.688v3.75h-4.688c-0.518 0-0.938 0.42-0.938 0.938s0.42 0.938 0.938 0.938h5.625c0.518 0 0.938-0.42 0.938-0.938v-11.25c0-0.518-0.42-0.938-0.938-0.938zM23.969 19.75h3.75v3.75h-3.75v-3.75z"></path>
</svg>
