<?xml version="1.0" encoding="utf-8"?>
<!-- Generated by IcoMoon.io -->
<!DOCTYPE svg PUBLIC "-//W3C//DTD SVG 1.1//EN" "http://www.w3.org/Graphics/SVG/1.1/DTD/svg11.dtd">
<svg version="1.1" xmlns="http://www.w3.org/2000/svg" xmlns:xlink="http://www.w3.org/1999/xlink" width="32" height="32" viewBox="0 0 32 32">
<path d="M9.84 23.5v-22.5h-3.75v22.5h-4.687l6.562 6.562 6.562-6.562h-4.687z"></path>
<path d="M27.652 31h-7.5c-0.346 0-0.663-0.19-0.827-0.495s-0.145-0.675 0.047-0.962l6.528-9.792h-5.748c-0.518 0-0.938-0.42-0.938-0.938s0.42-0.938 0.938-0.938h7.5c0.346 0 0.663 0.19 0.827 0.495s0.145 0.675-0.047 0.962l-6.528 9.792h5.748c0.518 0 0.938 0.42 0.938 0.938s-0.42 0.938-0.938 0.938z"></path>
<path d="M30.366 12.768l-5.625-11.25c-0.159-0.318-0.483-0.518-0.839-0.518s-0.68 0.201-0.839 0.518l-5.625 11.25c-0.232 0.463-0.044 1.026 0.419 1.258 0.135 0.067 0.278 0.099 0.419 0.099 0.344 0 0.675-0.19 0.839-0.518l1.616-3.232h6.341l1.616 3.232c0.232 0.463 0.795 0.651 1.258 0.419s0.651-0.795 0.419-1.258zM21.669 8.5l2.233-4.466 2.233 4.466h-4.466z"></path>
</svg>
