<?xml version="1.0" encoding="utf-8"?>
<!-- Generated by IcoMoon.io -->
<!DOCTYPE svg PUBLIC "-//W3C//DTD SVG 1.1//EN" "http://www.w3.org/Graphics/SVG/1.1/DTD/svg11.dtd">
<svg version="1.1" xmlns="http://www.w3.org/2000/svg" xmlns:xlink="http://www.w3.org/1999/xlink" width="32" height="32" viewBox="0 0 32 32">
<path d="M9.867 23.401v-22.401h-3.734v22.401h-4.667l6.534 6.534 6.534-6.534h-4.667z"></path>
<path d="M27.601 14.067h-7.467c-0.344 0-0.66-0.189-0.823-0.493s-0.145-0.672 0.046-0.958l6.5-9.749h-5.723c-0.515 0-0.933-0.418-0.933-0.933s0.418-0.933 0.933-0.933h7.467c0.344 0 0.66 0.189 0.823 0.493s0.145 0.672-0.046 0.958l-6.5 9.749h5.723c0.515 0 0.933 0.418 0.933 0.933s-0.418 0.933-0.933 0.933z"></path>
<path d="M30.303 29.517l-5.6-11.201c-0.158-0.316-0.481-0.516-0.835-0.516s-0.677 0.2-0.835 0.516l-5.6 11.201c-0.231 0.461-0.044 1.022 0.417 1.252 0.134 0.067 0.276 0.099 0.417 0.099 0.342 0 0.672-0.189 0.835-0.516l1.609-3.218h6.313l1.609 3.218c0.23 0.461 0.791 0.648 1.252 0.417s0.648-0.791 0.417-1.252zM21.644 25.268l2.223-4.447 2.223 4.447h-4.447z"></path>
</svg>
