<?xml version="1.0" encoding="utf-8"?>
<!-- Generated by IcoMoon.io -->
<!DOCTYPE svg PUBLIC "-//W3C//DTD SVG 1.1//EN" "http://www.w3.org/Graphics/SVG/1.1/DTD/svg11.dtd">
<svg version="1.1" xmlns="http://www.w3.org/2000/svg" xmlns:xlink="http://www.w3.org/1999/xlink" width="32" height="32" viewBox="0 0 32 32">
<path d="M28.188 1h-24.375c-1.547 0-2.813 1.266-2.813 2.813v24.375c0 1.547 1.266 2.813 2.813 2.813h24.375c1.547 0 2.813-1.266 2.813-2.813v-24.375c0-1.547-1.266-2.813-2.813-2.813zM6.156 21.625h-0.938l-0.469-2.813 0.469-2.813h0.938l0.469 2.813-0.469 2.813zM9.906 21.625h-0.938l-0.469-3.75 0.469-3.75h0.938l0.469 3.75-0.469 3.75zM13.656 21.625h-0.938l-0.469-5.625 0.469-5.625h0.938l0.469 5.625-0.469 5.625zM25.176 21.625c-0.059 0-8.824-0.006-8.83-0.006-0.188-0.018-0.34-0.182-0.346-0.375v-10.113c0-0.188 0.064-0.281 0.305-0.375 0.621-0.24 1.318-0.381 2.039-0.381 2.936 0 5.344 2.25 5.602 5.127 0.381-0.158 0.797-0.246 1.23-0.246 1.758 0 3.188 1.43 3.188 3.188s-1.43 3.182-3.188 3.182z"></path>
</svg>
