<?xml version="1.0" encoding="utf-8"?>
<!-- Generated by IcoMoon.io -->
<!DOCTYPE svg PUBLIC "-//W3C//DTD SVG 1.1//EN" "http://www.w3.org/Graphics/SVG/1.1/DTD/svg11.dtd">
<svg version="1.1" xmlns="http://www.w3.org/2000/svg" xmlns:xlink="http://www.w3.org/1999/xlink" width="32" height="32" viewBox="0 0 32 32">
<path d="M26.177 15.202c-0.484 0-0.947 0.094-1.368 0.264-0.281-3.063-2.954-5.466-6.214-5.466-0.798 0-1.572 0.151-2.259 0.406-0.267 0.099-0.337 0.201-0.337 0.4v10.787c0 0.208 0.167 0.381 0.378 0.402 0.009 0.001 9.738 0.006 9.801 0.006 1.953 0 3.535-1.522 3.535-3.399s-1.584-3.399-3.537-3.399zM13 22h0.857l0.429-6.006-0.429-5.994h-0.857l-0.429 5.994zM10.429 22h-0.857l-0.429-4.359 0.429-4.212h0.857l0.429 4.286zM6.143 22h0.857l0.429-3.429-0.429-3.429h-0.857l-0.429 3.429zM2.714 20.286h0.857l0.429-1.714-0.429-1.714h-0.857l-0.429 1.714z"></path>
</svg>
