<?xml version="1.0" encoding="utf-8"?>
<!-- Generated by IcoMoon.io -->
<!DOCTYPE svg PUBLIC "-//W3C//DTD SVG 1.1//EN" "http://www.w3.org/Graphics/SVG/1.1/DTD/svg11.dtd">
<svg version="1.1" xmlns="http://www.w3.org/2000/svg" xmlns:xlink="http://www.w3.org/1999/xlink" width="32" height="32" viewBox="0 0 32 32">
<path d="M4.75 8.5h3.75v5.625h1.875v-11.25c0-1.031-0.844-1.875-1.875-1.875h-3.75c-1.031 0-1.875 0.844-1.875 1.875v11.25h1.875v-5.625zM4.75 2.875h3.75v3.75h-3.75v-3.75zM29.125 2.875v-1.875h-5.625c-1.031 0-1.875 0.844-1.875 1.875v9.375c0 1.031 0.844 1.875 1.875 1.875h5.625v-1.875h-5.625v-9.375h5.625zM19.75 5.688v-2.813c0-1.031-0.844-1.875-1.875-1.875h-5.625v13.125h5.625c1.031 0 1.875-0.844 1.875-1.875v-2.813c0-1.031-0.258-1.875-1.289-1.875 1.031 0 1.289-0.844 1.289-1.875zM17.875 12.25h-3.75v-3.75h3.75v3.75zM17.875 6.625h-3.75v-3.75h3.75v3.75zM25.375 17.875l-12.188 13.125-6.563-8.438 2.402-2.051 4.16 4.336 10.313-8.848z"></path>
</svg>
