<?xml version="1.0" encoding="utf-8"?>
<!-- Generated by IcoMoon.io -->
<!DOCTYPE svg PUBLIC "-//W3C//DTD SVG 1.1//EN" "http://www.w3.org/Graphics/SVG/1.1/DTD/svg11.dtd">
<svg version="1.1" xmlns="http://www.w3.org/2000/svg" xmlns:xlink="http://www.w3.org/1999/xlink" width="32" height="32" viewBox="0 0 32 32">
<path d="M11.566 4.91c0-2.159 1.751-3.91 3.91-3.91s3.91 1.751 3.91 3.91c0 2.159-1.751 3.91-3.91 3.91s-3.91-1.751-3.91-3.91zM23.998 16.639c0 0 0 0 0 0 0-1.771 1.436-3.207 3.207-3.207s3.207 1.436 3.207 3.207c0 0 0 0 0 0 0 1.771-1.436 3.207-3.207 3.207s-3.207-1.436-3.207-3.207zM20.864 24.933c0-1.604 1.301-2.905 2.905-2.905s2.905 1.301 2.905 2.905c0 1.604-1.301 2.905-2.905 2.905s-2.905-1.301-2.905-2.905zM12.844 28.369c0-1.453 1.178-2.631 2.631-2.631s2.631 1.178 2.631 2.631c0 1.453-1.178 2.631-2.631 2.631s-2.631-1.178-2.631-2.631zM4.798 24.933c0-1.316 1.067-2.383 2.383-2.383s2.383 1.067 2.383 2.383c0 1.316-1.067 2.383-2.383 2.383s-2.383-1.067-2.383-2.383zM1.588 16.639c0-1.192 0.966-2.158 2.158-2.158s2.158 0.966 2.158 2.158c0 1.192-0.966 2.158-2.158 2.158s-2.158-0.966-2.158-2.158zM5.227 8.345c0 0 0 0 0 0 0-1.080 0.875-1.955 1.955-1.955s1.955 0.875 1.955 1.955c0 0 0 0 0 0 0 1.080-0.875 1.955-1.955 1.955s-1.955-0.875-1.955-1.955zM27.311 8.345c0 1.956-1.585 3.541-3.541 3.541s-3.541-1.586-3.541-3.541c0-1.956 1.586-3.541 3.541-3.541s3.541 1.585 3.541 3.541z"></path>
</svg>
