<?xml version="1.0" encoding="utf-8"?>
<!-- Generated by IcoMoon.io -->
<!DOCTYPE svg PUBLIC "-//W3C//DTD SVG 1.1//EN" "http://www.w3.org/Graphics/SVG/1.1/DTD/svg11.dtd">
<svg version="1.1" xmlns="http://www.w3.org/2000/svg" xmlns:xlink="http://www.w3.org/1999/xlink" width="32" height="32" viewBox="0 0 32 32">
<path d="M31 12.25h-11.25l4.205-4.205c-2.125-2.125-4.95-3.295-7.955-3.295s-5.83 1.17-7.955 3.295c-2.125 2.125-3.295 4.95-3.295 7.955s1.17 5.83 3.295 7.955c2.125 2.125 4.95 3.295 7.955 3.295s5.83-1.17 7.955-3.295c0.177-0.177 0.347-0.36 0.511-0.547l2.822 2.469c-2.749 3.14-6.787 5.123-11.288 5.123-8.284 0-15-6.716-15-15s6.716-15 15-15c4.142 0 7.892 1.679 10.606 4.394l4.394-4.394v11.25z"></path>
</svg>
