<?xml version="1.0" encoding="utf-8"?>
<!-- Generated by IcoMoon.io -->
<!DOCTYPE svg PUBLIC "-//W3C//DTD SVG 1.1//EN" "http://www.w3.org/Graphics/SVG/1.1/DTD/svg11.dtd">
<svg version="1.1" xmlns="http://www.w3.org/2000/svg" xmlns:xlink="http://www.w3.org/1999/xlink" width="32" height="32" viewBox="0 0 32 32">
<path d="M16.282 10.023c-0.997 0-1.804-0.808-1.804-1.804v-5.414c0-0.997 0.808-1.804 1.804-1.804s1.805 0.808 1.805 1.804v5.414c0 0.997-0.808 1.804-1.805 1.804z"></path>
<path d="M16.282 31c-0.623 0-1.128-0.505-1.128-1.128v-5.414c0-0.623 0.505-1.128 1.128-1.128s1.128 0.505 1.128 1.128v5.414c0 0.623-0.505 1.128-1.128 1.128z"></path>
<path d="M12.223 10.998c-0.585 0-1.153-0.303-1.467-0.846l-2.707-4.688c-0.467-0.809-0.19-1.844 0.619-2.311s1.844-0.19 2.311 0.619l2.707 4.688c0.467 0.809 0.19 1.844-0.619 2.311-0.266 0.154-0.557 0.227-0.844 0.227z"></path>
<path d="M23.050 29.074c-0.351 0-0.692-0.182-0.88-0.508l-2.707-4.688c-0.28-0.485-0.114-1.106 0.372-1.387s1.106-0.114 1.387 0.372l2.707 4.688c0.28 0.485 0.114 1.106-0.372 1.387-0.16 0.092-0.334 0.136-0.507 0.136z"></path>
<path d="M9.248 13.857c-0.268 0-0.539-0.068-0.788-0.212l-4.688-2.707c-0.755-0.436-1.014-1.402-0.578-2.157s1.402-1.014 2.157-0.578l4.688 2.707c0.755 0.436 1.014 1.402 0.578 2.157-0.292 0.507-0.823 0.79-1.369 0.79z"></path>
<path d="M28.002 24.008c-0.153 0-0.308-0.039-0.45-0.121l-4.688-2.707c-0.432-0.249-0.579-0.801-0.33-1.233s0.801-0.579 1.233-0.33l4.688 2.707c0.432 0.249 0.579 0.801 0.33 1.233-0.167 0.289-0.47 0.451-0.782 0.451z"></path>
<path d="M8.162 17.804h-5.414c-0.81 0-1.466-0.656-1.466-1.466s0.656-1.466 1.466-1.466h5.414c0.81 0 1.466 0.656 1.466 1.466s-0.656 1.466-1.466 1.466z"></path>
<path d="M29.816 17.241c-0 0 0 0 0 0h-5.414c-0.498-0-0.902-0.404-0.902-0.902s0.404-0.902 0.902-0.902c0 0 0 0 0 0h5.414c0.498 0 0.902 0.404 0.902 0.902s-0.404 0.902-0.902 0.902z"></path>
<path d="M4.563 24.459c-0.468 0-0.923-0.243-1.173-0.677-0.374-0.647-0.152-1.475 0.495-1.849l4.688-2.707c0.647-0.374 1.475-0.152 1.849 0.495s0.152 1.475-0.495 1.849l-4.688 2.707c-0.213 0.123-0.446 0.182-0.675 0.182z"></path>
<path d="M23.315 13.181c-0.312 0-0.615-0.162-0.782-0.451-0.249-0.432-0.101-0.983 0.33-1.233l4.688-2.707c0.431-0.249 0.983-0.101 1.233 0.33s0.101 0.983-0.33 1.233l-4.688 2.707c-0.142 0.082-0.297 0.121-0.45 0.121z"></path>
<path d="M9.514 29.3c-0.21 0-0.424-0.054-0.619-0.166-0.593-0.343-0.797-1.101-0.454-1.695l2.707-4.688c0.343-0.593 1.101-0.797 1.695-0.454s0.797 1.101 0.454 1.695l-2.707 4.688c-0.23 0.398-0.647 0.62-1.076 0.62z"></path>
<path d="M20.341 10.208c-0.153 0-0.308-0.039-0.45-0.121-0.432-0.249-0.579-0.801-0.33-1.232l2.707-4.688c0.249-0.432 0.801-0.579 1.232-0.33s0.579 0.801 0.33 1.232l-2.707 4.688c-0.167 0.289-0.47 0.451-0.782 0.451z"></path>
</svg>
