<?xml version="1.0" encoding="utf-8"?>
<!-- Generated by IcoMoon.io -->
<!DOCTYPE svg PUBLIC "-//W3C//DTD SVG 1.1//EN" "http://www.w3.org/Graphics/SVG/1.1/DTD/svg11.dtd">
<svg version="1.1" xmlns="http://www.w3.org/2000/svg" xmlns:xlink="http://www.w3.org/1999/xlink" width="32" height="32" viewBox="0 0 32 32">
<path d="M16 1c-8.166 0-14.808 6.526-14.996 14.648 0.173-7.086 5.561-12.773 12.183-12.773 6.731 0 12.188 5.876 12.188 13.125 0 1.553 1.259 2.813 2.813 2.813s2.813-1.259 2.813-2.813c0-8.284-6.716-15-15-15zM16 31c8.166 0 14.808-6.526 14.996-14.648-0.173 7.086-5.561 12.773-12.183 12.773-6.731 0-12.188-5.876-12.188-13.125 0-1.553-1.259-2.813-2.813-2.813s-2.813 1.259-2.813 2.813c0 8.284 6.716 15 15 15z"></path>
</svg>
