<?xml version="1.0" encoding="utf-8"?>
<!-- Generated by IcoMoon.io -->
<!DOCTYPE svg PUBLIC "-//W3C//DTD SVG 1.1//EN" "http://www.w3.org/Graphics/SVG/1.1/DTD/svg11.dtd">
<svg version="1.1" xmlns="http://www.w3.org/2000/svg" xmlns:xlink="http://www.w3.org/1999/xlink" width="32" height="32" viewBox="0 0 32 32">
<path d="M30.968 16.482c-0.038-2.015-0.476-4.024-1.283-5.86-0.805-1.838-1.973-3.504-3.407-4.88-1.433-1.377-3.132-2.466-4.972-3.184-1.838-0.721-3.815-1.065-5.768-1.024-1.953 0.039-3.898 0.463-5.676 1.246-1.779 0.78-3.392 1.913-4.723 3.302s-2.386 3.035-3.079 4.816c-0.697 1.78-1.028 3.692-0.987 5.583 0.039 1.891 0.451 3.771 1.209 5.491 0.756 1.721 1.853 3.28 3.198 4.567 1.344 1.288 2.937 2.305 4.659 2.975 1.721 0.672 3.569 0.992 5.399 0.95 1.829-0.039 3.645-0.439 5.306-1.173 1.662-0.732 3.168-1.792 4.411-3.093s2.225-2.84 2.871-4.503c0.393-1.008 0.659-2.061 0.8-3.128 0.038 0.002 0.075 0.004 0.113 0.004 1.065 0 1.929-0.863 1.929-1.929 0-0.054-0.003-0.108-0.007-0.161h0.007zM27.904 21.604c-0.707 1.603-1.732 3.056-2.989 4.255s-2.742 2.145-4.347 2.766c-1.604 0.623-3.324 0.918-5.029 0.876-1.706-0.039-3.393-0.414-4.937-1.099-1.544-0.683-2.944-1.672-4.098-2.884s-2.065-2.645-2.662-4.191c-0.599-1.546-0.881-3.201-0.84-4.845 0.039-1.644 0.402-3.267 1.062-4.752 0.659-1.486 1.612-2.832 2.78-3.942s2.547-1.985 4.034-2.557c1.487-0.574 3.078-0.844 4.66-0.803 1.582 0.039 3.141 0.389 4.567 1.026 1.427 0.634 2.72 1.552 3.786 2.675s1.905 2.45 2.453 3.878c0.55 1.428 0.807 2.955 0.766 4.475h0.007c-0.004 0.053-0.007 0.107-0.007 0.161 0 0.995 0.753 1.813 1.72 1.917-0.188 1.049-0.498 2.074-0.928 3.043z"></path>
</svg>
