<?xml version="1.0" encoding="utf-8"?>
<!-- Generated by IcoMoon.io -->
<!DOCTYPE svg PUBLIC "-//W3C//DTD SVG 1.1//EN" "http://www.w3.org/Graphics/SVG/1.1/DTD/svg11.dtd">
<svg version="1.1" xmlns="http://www.w3.org/2000/svg" xmlns:xlink="http://www.w3.org/1999/xlink" width="32" height="32" viewBox="0 0 32 32">
<path d="M16 1c-8.284 0-15 6.716-15 15s6.716 15 15 15 15-6.716 15-15-6.716-15-15-15zM16 8.5c4.142 0 7.5 3.358 7.5 7.5s-3.358 7.5-7.5 7.5-7.5-3.358-7.5-7.5 3.358-7.5 7.5-7.5zM24.949 24.949c-2.39 2.39-5.569 3.707-8.949 3.707s-6.559-1.317-8.949-3.707-3.707-5.569-3.707-8.949c0-3.381 1.316-6.559 3.707-8.949l1.989 1.989c0 0 0 0 0 0-3.838 3.838-3.838 10.083 0 13.921 1.859 1.859 4.331 2.883 6.961 2.883s5.101-1.024 6.961-2.883c3.838-3.838 3.838-10.083 0-13.921l1.989-1.989c2.39 2.39 3.707 5.569 3.707 8.949s-1.317 6.559-3.707 8.949z"></path>
</svg>
