<?xml version="1.0" encoding="utf-8"?>
<!-- Generated by IcoMoon.io -->
<!DOCTYPE svg PUBLIC "-//W3C//DTD SVG 1.1//EN" "http://www.w3.org/Graphics/SVG/1.1/DTD/svg11.dtd">
<svg version="1.1" xmlns="http://www.w3.org/2000/svg" xmlns:xlink="http://www.w3.org/1999/xlink" width="32" height="32" viewBox="0 0 32 32">
<path d="M13.213 26.309c0-1.539 1.248-2.787 2.787-2.787s2.787 1.248 2.787 2.787c0 1.539-1.248 2.787-2.787 2.787s-2.787-1.248-2.787-2.787zM1.135 14.231c0-1.539 1.248-2.787 2.787-2.787s2.787 1.248 2.787 2.787c0 1.539-1.248 2.787-2.787 2.787s-2.787-1.248-2.787-2.787zM25.291 14.231c0-1.539 1.248-2.787 2.787-2.787s2.787 1.248 2.787 2.787c0 1.539-1.248 2.787-2.787 2.787s-2.787-1.248-2.787-2.787zM4.673 5.691c0-1.539 1.248-2.787 2.787-2.787s2.787 1.248 2.787 2.787c0 1.539-1.248 2.787-2.787 2.787s-2.787-1.248-2.787-2.787zM21.753 22.771c0-1.539 1.248-2.787 2.787-2.787s2.787 1.248 2.787 2.787c0 1.539-1.248 2.787-2.787 2.787s-2.787-1.248-2.787-2.787zM4.673 22.771c0-1.539 1.248-2.787 2.787-2.787s2.787 1.248 2.787 2.787c0 1.539-1.248 2.787-2.787 2.787s-2.787-1.248-2.787-2.787zM21.753 5.691c0-1.539 1.248-2.787 2.787-2.787s2.787 1.248 2.787 2.787c0 1.539-1.248 2.787-2.787 2.787s-2.787-1.248-2.787-2.787z"></path>
</svg>
