<?xml version="1.0" encoding="utf-8"?>
<!-- Generated by IcoMoon.io -->
<!DOCTYPE svg PUBLIC "-//W3C//DTD SVG 1.1//EN" "http://www.w3.org/Graphics/SVG/1.1/DTD/svg11.dtd">
<svg version="1.1" xmlns="http://www.w3.org/2000/svg" xmlns:xlink="http://www.w3.org/1999/xlink" width="32" height="32" viewBox="0 0 32 32">
<path d="M6.627 15.942c0-0.357 0.021-0.709 0.059-1.055l-5.418-1.76c-0.173 0.912-0.265 1.853-0.265 2.815 0 4.312 1.821 8.199 4.735 10.934l3.347-4.607c-1.527-1.667-2.458-3.888-2.458-6.327zM25.373 15.942c0 2.439-0.932 4.66-2.458 6.327l3.347 4.607c2.914-2.736 4.735-6.622 4.735-10.934 0-0.963-0.092-1.903-0.265-2.815l-5.418 1.76c0.039 0.346 0.059 0.698 0.059 1.055zM17.875 6.757c2.693 0.547 4.966 2.248 6.281 4.564l5.418-1.76c-2.144-4.552-6.509-7.851-11.699-8.498v5.695zM7.844 11.321c1.315-2.316 3.588-4.017 6.281-4.564v-5.695c-5.19 0.647-9.555 3.946-11.699 8.498l5.418 1.76zM19.882 24.475c-1.183 0.539-2.498 0.84-3.882 0.84s-2.699-0.301-3.882-0.84l-3.348 4.608c2.144 1.182 4.608 1.856 7.23 1.856s5.086-0.673 7.23-1.856l-3.348-4.608z"></path>
</svg>
