<?xml version="1.0" encoding="utf-8"?>
<!-- Generated by IcoMoon.io -->
<!DOCTYPE svg PUBLIC "-//W3C//DTD SVG 1.1//EN" "http://www.w3.org/Graphics/SVG/1.1/DTD/svg11.dtd">
<svg version="1.1" xmlns="http://www.w3.org/2000/svg" xmlns:xlink="http://www.w3.org/1999/xlink" width="32" height="32" viewBox="0 0 32 32">
<path d="M16 30.156c-3.992 0-7.745-1.555-10.567-4.377s-4.377-6.576-4.377-10.567c0-2.827 0.793-5.579 2.294-7.959 1.459-2.314 3.522-4.185 5.965-5.409l1.255 2.505c-1.986 0.995-3.663 2.516-4.85 4.398-1.218 1.933-1.863 4.168-1.863 6.465 0 6.695 5.447 12.142 12.142 12.142s12.142-5.447 12.142-12.142c0-2.297-0.644-4.532-1.863-6.465-1.187-1.882-2.864-3.403-4.85-4.398l1.255-2.505c2.443 1.224 4.505 3.094 5.965 5.409 1.501 2.381 2.294 5.133 2.294 7.959 0 3.992-1.555 7.745-4.377 10.567s-6.576 4.377-10.567 4.377z"></path>
</svg>
