<?xml version="1.0" encoding="utf-8"?>
<!-- Generated by IcoMoon.io -->
<!DOCTYPE svg PUBLIC "-//W3C//DTD SVG 1.1//EN" "http://www.w3.org/Graphics/SVG/1.1/DTD/svg11.dtd">
<svg version="1.1" xmlns="http://www.w3.org/2000/svg" xmlns:xlink="http://www.w3.org/1999/xlink" width="32" height="32" viewBox="0 0 32 32">
<path d="M8.969 1c-3.107 0-5.625 2.938-5.625 6.563 0 3.103 1.846 5.703 4.327 6.387l-0.931 15.179c-0.063 1.029 0.729 1.871 1.76 1.871h0.938c1.031 0 1.823-0.842 1.76-1.871l-0.931-15.179c2.481-0.684 4.327-3.283 4.327-6.387 0-3.624-2.518-6.563-5.625-6.563zM27.875 1l-1.563 9.375h-1.172l-0.781-9.375h-0.781l-0.781 9.375h-1.172l-1.563-9.375h-0.781v12.188c0 0.518 0.42 0.938 0.938 0.938h2.442l-0.921 15.004c-0.063 1.029 0.729 1.871 1.76 1.871h0.938c1.031 0 1.823-0.842 1.76-1.871l-0.921-15.004h2.442c0.518 0 0.938-0.42 0.938-0.938v-12.188h-0.781z"></path>
</svg>
