<?xml version="1.0" encoding="utf-8"?>
<!-- Generated by IcoMoon.io -->
<!DOCTYPE svg PUBLIC "-//W3C//DTD SVG 1.1//EN" "http://www.w3.org/Graphics/SVG/1.1/DTD/svg11.dtd">
<svg version="1.1" xmlns="http://www.w3.org/2000/svg" xmlns:xlink="http://www.w3.org/1999/xlink" width="32" height="32" viewBox="0 0 32 32">
<path d="M16 1c-8.25 0-15 6.75-15 15s6.75 15 15 15 15-6.75 15-15-6.674-15-15-15zM22.902 22.674c-0.299 0.451-0.826 0.598-1.277 0.299-3.527-2.174-7.951-2.625-13.201-1.424-0.527 0.152-0.973-0.223-1.125-0.674-0.152-0.527 0.223-0.973 0.674-1.125 5.701-1.277 10.652-0.75 14.549 1.652 0.527 0.223 0.604 0.82 0.381 1.271zM24.701 18.549c-0.375 0.527-1.049 0.75-1.576 0.375-4.049-2.473-10.201-3.223-14.924-1.723-0.598 0.152-1.277-0.152-1.424-0.75-0.152-0.598 0.152-1.277 0.75-1.424 5.473-1.652 12.223-0.826 16.875 2.027 0.445 0.223 0.674 0.973 0.299 1.494zM24.848 14.348c-4.799-2.848-12.826-3.152-17.402-1.723-0.75 0.223-1.5-0.223-1.723-0.902-0.223-0.75 0.223-1.5 0.902-1.723 5.326-1.576 14.098-1.277 19.652 2.027 0.674 0.375 0.902 1.277 0.527 1.951-0.381 0.521-1.277 0.744-1.957 0.369z"></path>
</svg>
