<?xml version="1.0" encoding="utf-8"?>
<!-- Generated by IcoMoon.io -->
<!DOCTYPE svg PUBLIC "-//W3C//DTD SVG 1.1//EN" "http://www.w3.org/Graphics/SVG/1.1/DTD/svg11.dtd">
<svg version="1.1" xmlns="http://www.w3.org/2000/svg" xmlns:xlink="http://www.w3.org/1999/xlink" width="32" height="32" viewBox="0 0 32 32">
<path d="M4.75 27.25h26.25v3.75h-30v-30h3.75zM9.438 25.375c-1.553 0-2.813-1.259-2.813-2.813s1.259-2.813 2.813-2.813c0.083 0 0.165 0.004 0.246 0.011l3.023-5.039c-0.288-0.441-0.456-0.969-0.456-1.535 0-1.553 1.259-2.813 2.813-2.813s2.813 1.259 2.813 2.813c0 0.567-0.168 1.094-0.456 1.535l3.023 5.039c0.081-0.007 0.163-0.011 0.246-0.011 0.063 0 0.124 0.003 0.186 0.007l4.991-8.734c-0.309-0.451-0.489-0.997-0.489-1.585 0-1.553 1.259-2.813 2.813-2.813s2.813 1.259 2.813 2.813c0 1.553-1.259 2.813-2.813 2.813-0.063 0-0.124-0.003-0.186-0.007l-4.991 8.734c0.309 0.451 0.489 0.997 0.489 1.585 0 1.553-1.259 2.813-2.813 2.813s-2.813-1.259-2.813-2.813c0-0.567 0.168-1.094 0.456-1.535l-3.023-5.039c-0.081 0.007-0.163 0.011-0.246 0.011s-0.165-0.004-0.246-0.011l-3.023 5.039c0.288 0.441 0.456 0.969 0.456 1.535 0 1.553-1.259 2.813-2.813 2.813z"></path>
</svg>
