<?xml version="1.0" encoding="utf-8"?>
<!-- Generated by IcoMoon.io -->
<!DOCTYPE svg PUBLIC "-//W3C//DTD SVG 1.1//EN" "http://www.w3.org/Graphics/SVG/1.1/DTD/svg11.dtd">
<svg version="1.1" xmlns="http://www.w3.org/2000/svg" xmlns:xlink="http://www.w3.org/1999/xlink" width="32" height="32" viewBox="0 0 32 32">
<path d="M8.5 9.571h-6.429c-0.589 0-1.071 0.482-1.071 1.071v19.286c0 0.589 0.482 1.071 1.071 1.071h6.429c0.589 0 1.071-0.482 1.071-1.071v-19.286c0-0.589-0.482-1.071-1.071-1.071zM8.5 28.857h-6.429v-8.571h6.429v8.571zM19.214 5.286h-6.429c-0.589 0-1.071 0.482-1.071 1.071v23.571c0 0.589 0.482 1.071 1.071 1.071h6.429c0.589 0 1.071-0.482 1.071-1.071v-23.571c0-0.589-0.482-1.071-1.071-1.071zM19.214 28.857h-6.429v-10.714h6.429v10.714zM29.929 1h-6.429c-0.589 0-1.071 0.482-1.071 1.071v27.857c0 0.589 0.482 1.071 1.071 1.071h6.429c0.589 0 1.071-0.482 1.071-1.071v-27.857c0-0.589-0.482-1.071-1.071-1.071zM29.929 28.857h-6.429v-12.857h6.429v12.857z"></path>
</svg>
