<?xml version="1.0" encoding="utf-8"?>
<!-- Generated by IcoMoon.io -->
<!DOCTYPE svg PUBLIC "-//W3C//DTD SVG 1.1//EN" "http://www.w3.org/Graphics/SVG/1.1/DTD/svg11.dtd">
<svg version="1.1" xmlns="http://www.w3.org/2000/svg" xmlns:xlink="http://www.w3.org/1999/xlink" width="32" height="32" viewBox="0 0 32 32">
<path d="M9.904 25.492c0.795 0 1.576-0.385 2.050-1.096 0.754-1.131 0.448-2.659-0.683-3.413l-1.936-1.29c0.331-0.090 0.68-0.139 1.039-0.139 2.179 0 3.946 1.767 3.946 3.946s-1.767 3.946-3.946 3.946c-2.121 0-3.851-1.674-3.942-3.773l2.108 1.405c0.42 0.28 0.894 0.414 1.363 0.414zM26 1c2.75 0 5 2.25 5 5.001v19.999c0 2.752-2.25 5-5 5h-20c-2.75 0-5.001-2.249-5.001-5v-5.948l3.555 2.37c-0.341 1.851 0.203 3.833 1.635 5.264 2.312 2.312 6.059 2.312 8.371 0 1.42-1.42 1.967-3.382 1.643-5.22l7.297-6.533c1.355-0.194 2.661-0.813 3.703-1.855 2.563-2.563 2.563-6.718 0-9.281s-6.718-2.563-9.281 0c-1.042 1.042-1.661 2.348-1.855 3.703v0l-5.997 9.089c-0.933 0.048-1.857 0.315-2.687 0.802l-6.383-4.255v-8.135c0-2.75 2.25-5.001 5.001-5.001h20zM27.25 9.438c0-2.589-2.099-4.688-4.688-4.688s-4.688 2.099-4.688 4.688 2.099 4.688 4.688 4.688 4.688-2.099 4.688-4.688zM19.75 9.438c0-1.553 1.259-2.813 2.813-2.813s2.813 1.259 2.813 2.813-1.259 2.813-2.813 2.813-2.813-1.259-2.813-2.813z"></path>
</svg>
