<?xml version="1.0" encoding="utf-8"?>
<!-- Generated by IcoMoon.io -->
<!DOCTYPE svg PUBLIC "-//W3C//DTD SVG 1.1//EN" "http://www.w3.org/Graphics/SVG/1.1/DTD/svg11.dtd">
<svg version="1.1" xmlns="http://www.w3.org/2000/svg" xmlns:xlink="http://www.w3.org/1999/xlink" width="32" height="32" viewBox="0 0 32 32">
<path d="M21.253 9.578c0-1.494 1.211-2.705 2.705-2.705s2.705 1.211 2.705 2.705c0 1.494-1.211 2.705-2.705 2.705s-2.705-1.211-2.705-2.705zM28.42 5.115c-2.465-2.465-6.461-2.465-8.925 0-1.002 1.002-1.597 2.258-1.784 3.561v0l-5.767 8.741c-0.775 0.040-1.543 0.237-2.253 0.592l-4.449-3.477c-1.030-0.805-2.517-0.623-3.322 0.407s-0.623 2.517 0.407 3.322l4.393 3.434c-0.478 1.882 0.019 3.96 1.491 5.432 2.223 2.223 5.827 2.223 8.051 0 1.366-1.366 1.892-3.252 1.58-5.020l7.017-6.283c1.303-0.187 2.559-0.782 3.561-1.784 2.465-2.465 2.465-6.461 0-8.925zM12.237 26.896c-2.096 0-3.795-1.699-3.795-3.795 0-0.020 0.001-0.040 0.002-0.060l1.885 1.474c0.433 0.338 0.946 0.502 1.456 0.502 0.703 0 1.399-0.312 1.866-0.909 0.805-1.030 0.623-2.517-0.407-3.322l-1.789-1.398c0.252-0.053 0.514-0.081 0.782-0.081 2.096 0 3.795 1.699 3.795 3.795s-1.699 3.795-3.795 3.795zM23.958 14.085c-2.49 0-4.508-2.018-4.508-4.508s2.018-4.508 4.508-4.508 4.508 2.018 4.508 4.508-2.018 4.508-4.508 4.508z"></path>
</svg>
