<?xml version="1.0" encoding="utf-8"?>
<!-- Generated by IcoMoon.io -->
<!DOCTYPE svg PUBLIC "-//W3C//DTD SVG 1.1//EN" "http://www.w3.org/Graphics/SVG/1.1/DTD/svg11.dtd">
<svg version="1.1" xmlns="http://www.w3.org/2000/svg" xmlns:xlink="http://www.w3.org/1999/xlink" width="32" height="32" viewBox="0 0 32 32">
<path d="M16.938 6.66v-1.91h3.75v-1.875c0-1.036-0.839-1.875-1.875-1.875h-5.625c-1.036 0-1.875 0.839-1.875 1.875v1.875h3.75v1.91c-6.293 0.479-11.25 5.736-11.25 12.152 0 6.731 5.457 12.188 12.187 12.188s12.188-5.457 12.188-12.188c0-6.416-4.957-11.673-11.25-12.152zM22.629 25.442c-1.771 1.771-4.125 2.746-6.629 2.746s-4.858-0.975-6.629-2.746c-1.771-1.771-2.746-4.125-2.746-6.629s0.975-4.858 2.746-6.629c1.7-1.7 3.939-2.667 6.331-2.741l-0.635 9.2c-0.055 0.77 0.365 1.107 0.933 1.107s0.987-0.337 0.933-1.107l-0.635-9.2c2.393 0.074 4.631 1.040 6.332 2.741 1.771 1.771 2.746 4.125 2.746 6.629s-0.975 4.858-2.746 6.629z"></path>
</svg>
