<?xml version="1.0" encoding="utf-8"?>
<!-- Generated by IcoMoon.io -->
<!DOCTYPE svg PUBLIC "-//W3C//DTD SVG 1.1//EN" "http://www.w3.org/Graphics/SVG/1.1/DTD/svg11.dtd">
<svg version="1.1" xmlns="http://www.w3.org/2000/svg" xmlns:xlink="http://www.w3.org/1999/xlink" width="32" height="32" viewBox="0 0 32 32">
<path d="M30.857 16v1.857h-6.805c0.798 1.117 1.233 2.4 1.233 3.714 0 2.057-1.064 4.034-2.919 5.425-1.722 1.292-3.984 2.003-6.367 2.003s-4.645-0.711-6.367-2.003c-1.855-1.391-2.919-3.369-2.919-5.425h3.714c0 2.013 2.551 3.714 5.571 3.714s5.571-1.701 5.571-3.714c0-2.013-2.551-3.714-5.571-3.714h-14.857v-1.857h8.691c-0.068-0.048-0.135-0.096-0.201-0.146-1.855-1.391-2.919-3.369-2.919-5.425s1.064-4.034 2.919-5.425c1.722-1.292 3.984-2.003 6.367-2.003s4.645 0.711 6.367 2.003c1.855 1.391 2.919 3.369 2.919 5.425h-3.714c0-2.013-2.551-3.714-5.571-3.714s-5.571 1.701-5.571 3.714c0 2.013 2.551 3.714 5.571 3.714 2.292 0 4.47 0.658 6.166 1.857h8.691z"></path>
</svg>
