<?xml version="1.0" encoding="utf-8"?>
<!-- Generated by IcoMoon.io -->
<!DOCTYPE svg PUBLIC "-//W3C//DTD SVG 1.1//EN" "http://www.w3.org/Graphics/SVG/1.1/DTD/svg11.dtd">
<svg version="1.1" xmlns="http://www.w3.org/2000/svg" xmlns:xlink="http://www.w3.org/1999/xlink" width="32" height="32" viewBox="0 0 32 32">
<path d="M25.961 1h-19.922c-2.772 0-5.039 2.268-5.039 5.039v19.922c0 2.771 2.268 5.039 5.039 5.039h19.922c2.771 0 5.039-2.268 5.039-5.039v-19.922c0-2.772-2.268-5.039-5.039-5.039zM16 10.375c-1.034 0-1.875 0.841-1.875 1.875v7.5c0 3.102-2.523 5.625-5.625 5.625s-5.625-2.523-5.625-5.625v-3.75h3.75v3.75c0 1.034 0.841 1.875 1.875 1.875s1.875-0.841 1.875-1.875v-7.5c0-3.102 2.523-5.625 5.625-5.625s5.625 2.523 5.625 5.215v1.816l-2.402 0.703-1.348-0.703v-1.816c0-0.624-0.841-1.465-1.875-1.465zM29.125 19.75c0 3.102-2.523 5.625-5.625 5.625s-5.625-2.523-5.625-6.035v-3.633l1.348 0.703 2.402-0.703v3.633c0 1.444 0.841 2.285 1.875 2.285s1.875-0.841 1.875-1.875v-3.75h3.75v3.75z"></path>
</svg>
