<?xml version="1.0" encoding="utf-8"?>
<!-- Generated by IcoMoon.io -->
<!DOCTYPE svg PUBLIC "-//W3C//DTD SVG 1.1//EN" "http://www.w3.org/Graphics/SVG/1.1/DTD/svg11.dtd">
<svg version="1.1" xmlns="http://www.w3.org/2000/svg" xmlns:xlink="http://www.w3.org/1999/xlink" width="32" height="32" viewBox="0 0 32 32">
<path d="M16 9.743c-1.147 0-2.086 0.939-2.086 2.086v8.343c0 3.448-2.809 6.257-6.257 6.257s-6.257-2.809-6.257-6.257v-4.171h4.171v4.171c0 1.147 0.939 2.086 2.086 2.086s2.086-0.939 2.086-2.086v-8.343c0-3.448 2.809-6.257 6.257-6.257s6.257 2.809 6.257 5.801v2.021l-2.672 0.782-1.499-0.782v-2.021c0-0.691-0.939-1.629-2.086-1.629z"></path>
<path d="M30.6 20.171c0 3.448-2.809 6.257-6.257 6.257s-6.257-2.809-6.257-6.713v-4.041l1.499 0.782 2.672-0.782v4.041c0 1.603 0.939 2.542 2.086 2.542s2.086-0.939 2.086-2.086v-4.171h4.171v4.171z"></path>
</svg>
