<?xml version="1.0" encoding="utf-8"?>
<!-- Generated by IcoMoon.io -->
<!DOCTYPE svg PUBLIC "-//W3C//DTD SVG 1.1//EN" "http://www.w3.org/Graphics/SVG/1.1/DTD/svg11.dtd">
<svg version="1.1" xmlns="http://www.w3.org/2000/svg" xmlns:xlink="http://www.w3.org/1999/xlink" width="32" height="32" viewBox="0 0 32 32">
<path d="M4.715 29.107l1.815-6.050h8.342l1.815 6.050h3.58l-6.050-20.165h-7.034l-6.050 20.165h3.58zM9.554 12.975h2.293l1.815 6.050h-5.922l1.815-6.050zM20.783 29.107l5.041-8.066 5.041 8.066h-10.083z"></path>
<path d="M25.825 6.926h-2.017c-0.556 0-1.008-0.452-1.008-1.008s0.452-1.008 1.008-1.008h4.033c0.557 0 1.008-0.451 1.008-1.008s-0.451-1.008-1.008-1.008h-4.033c-1.668 0-3.025 1.357-3.025 3.025 0 0.774 0.293 1.481 0.773 2.017 0.554 0.618 1.358 1.008 2.252 1.008h2.017c0.556 0 1.008 0.452 1.008 1.008s-0.452 1.008-1.008 1.008h-4.033c-0.557 0-1.008 0.451-1.008 1.008s0.451 1.008 1.008 1.008h4.033c1.668 0 3.025-1.357 3.025-3.025 0-0.774-0.293-1.481-0.773-2.017-0.554-0.618-1.358-1.008-2.252-1.008z"></path>
</svg>
