<?xml version="1.0" encoding="utf-8"?>
<!-- Generated by IcoMoon.io -->
<!DOCTYPE svg PUBLIC "-//W3C//DTD SVG 1.1//EN" "http://www.w3.org/Graphics/SVG/1.1/DTD/svg11.dtd">
<svg version="1.1" xmlns="http://www.w3.org/2000/svg" xmlns:xlink="http://www.w3.org/1999/xlink" width="32" height="32" viewBox="0 0 32 32">
<path d="M28.187 13.187c-0.833 0-1.581 0.362-2.096 0.938h-5.565l3.935-3.935c0.771 0.043 1.556-0.23 2.145-0.819 1.098-1.098 1.098-2.879 0-3.977s-2.879-1.098-3.978 0c-0.589 0.589-0.862 1.374-0.819 2.145l-3.935 3.935v-5.565c0.575-0.515 0.938-1.263 0.938-2.096 0-1.553-1.259-2.813-2.813-2.813s-2.813 1.259-2.813 2.813c0 0.833 0.362 1.581 0.938 2.096v5.565l-3.935-3.935c0.043-0.771-0.23-1.556-0.819-2.145-1.098-1.098-2.879-1.098-3.977 0s-1.098 2.879 0 3.977c0.589 0.589 1.374 0.862 2.145 0.819l3.935 3.935h-5.565c-0.515-0.575-1.263-0.938-2.096-0.938-1.553 0-2.813 1.259-2.813 2.813s1.259 2.813 2.813 2.813c0.833 0 1.581-0.362 2.096-0.938h5.565l-3.935 3.935c-0.771-0.043-1.556 0.23-2.145 0.819-1.098 1.098-1.098 2.879 0 3.978s2.879 1.098 3.977 0c0.589-0.589 0.862-1.374 0.819-2.145l3.935-3.935v5.565c-0.575 0.515-0.938 1.263-0.938 2.096 0 1.553 1.259 2.813 2.813 2.813s2.813-1.259 2.813-2.813c0-0.833-0.362-1.581-0.938-2.096v-5.565l3.935 3.935c-0.043 0.771 0.23 1.556 0.819 2.145 1.098 1.098 2.879 1.098 3.978 0s1.098-2.879 0-3.978c-0.589-0.589-1.374-0.862-2.145-0.819l-3.935-3.935h5.565c0.515 0.575 1.263 0.938 2.096 0.938 1.553 0 2.813-1.259 2.813-2.813s-1.259-2.813-2.813-2.813z"></path>
</svg>
