<?xml version="1.0" encoding="utf-8"?>
<!-- Generated by IcoMoon.io -->
<!DOCTYPE svg PUBLIC "-//W3C//DTD SVG 1.1//EN" "http://www.w3.org/Graphics/SVG/1.1/DTD/svg11.dtd">
<svg version="1.1" xmlns="http://www.w3.org/2000/svg" xmlns:xlink="http://www.w3.org/1999/xlink" width="32" height="32" viewBox="0 0 32 32">
<path d="M1.455 6v20h29.091v-20h-29.091zM12.364 18.727v-3.636h7.273v3.636h-7.273zM19.636 20.545v3.636h-7.273v-3.636h7.273zM19.636 9.636v3.636h-7.273v-3.636h7.273zM10.545 9.636v3.636h-7.273v-3.636h7.273zM3.273 15.091h7.273v3.636h-7.273v-3.636zM21.455 15.091h7.273v3.636h-7.273v-3.636zM21.455 13.273v-3.636h7.273v3.636h-7.273zM3.273 20.545h7.273v3.636h-7.273v-3.636zM21.455 24.182v-3.636h7.273v3.636h-7.273z"></path>
</svg>
