<?xml version="1.0" encoding="utf-8"?>
<!-- Generated by IcoMoon.io -->
<!DOCTYPE svg PUBLIC "-//W3C//DTD SVG 1.1//EN" "http://www.w3.org/Graphics/SVG/1.1/DTD/svg11.dtd">
<svg version="1.1" xmlns="http://www.w3.org/2000/svg" xmlns:xlink="http://www.w3.org/1999/xlink" width="32" height="32" viewBox="0 0 32 32">
<path d="M1.143 3v26h29.714v-26h-29.714zM12.286 19.714v-5.571h7.429v5.571h-7.429zM19.714 21.571v5.571h-7.429v-5.571h7.429zM19.714 6.714v5.571h-7.429v-5.571h7.429zM10.429 6.714v5.571h-7.429v-5.571h7.429zM3 14.143h7.429v5.571h-7.429v-5.571zM21.571 14.143h7.429v5.571h-7.429v-5.571zM21.571 12.286v-5.571h7.429v5.571h-7.429zM3 21.571h7.429v5.571h-7.429v-5.571zM21.571 27.143v-5.571h7.429v5.571h-7.429z"></path>
</svg>
