<?xml version="1.0" encoding="utf-8"?>
<!-- Generated by IcoMoon.io -->
<!DOCTYPE svg PUBLIC "-//W3C//DTD SVG 1.1//EN" "http://www.w3.org/Graphics/SVG/1.1/DTD/svg11.dtd">
<svg version="1.1" xmlns="http://www.w3.org/2000/svg" xmlns:xlink="http://www.w3.org/1999/xlink" width="32" height="32" viewBox="0 0 32 32">
<path d="M31 14.125h-2.957c-0.81-5.222-4.946-9.358-10.168-10.168v-2.957h-3.75v2.957c-5.222 0.81-9.358 4.946-10.168 10.168h-2.957v3.75h2.957c0.81 5.222 4.946 9.358 10.168 10.168v2.957h3.75v-2.957c5.222-0.81 9.358-4.946 10.168-10.168h2.957v-3.75zM24.227 14.125h-2.923c-0.565-1.598-1.831-2.865-3.43-3.43v-2.923c3.15 0.717 5.635 3.202 6.352 6.352zM16 17.875c-1.036 0-1.875-0.839-1.875-1.875s0.839-1.875 1.875-1.875c1.036 0 1.875 0.839 1.875 1.875s-0.839 1.875-1.875 1.875zM14.125 7.773v2.923c-1.598 0.565-2.865 1.831-3.43 3.429h-2.923c0.717-3.15 3.202-5.635 6.352-6.352zM7.773 17.875h2.923c0.565 1.598 1.831 2.865 3.429 3.43v2.923c-3.15-0.717-5.635-3.202-6.352-6.352zM17.875 24.227v-2.923c1.598-0.565 2.865-1.831 3.43-3.43h2.923c-0.717 3.15-3.202 5.635-6.352 6.352z"></path>
</svg>
