<?xml version="1.0" encoding="utf-8"?>
<!-- Generated by IcoMoon.io -->
<!DOCTYPE svg PUBLIC "-//W3C//DTD SVG 1.1//EN" "http://www.w3.org/Graphics/SVG/1.1/DTD/svg11.dtd">
<svg version="1.1" xmlns="http://www.w3.org/2000/svg" xmlns:xlink="http://www.w3.org/1999/xlink" width="32" height="32" viewBox="0 0 32 32">
<path d="M16 1c-8.285 0-15 6.715-15 15s6.715 15 15 15 15-6.715 15-15-6.715-15-15-15zM23.371 11.283l-2.461 11.596c-0.17 0.826-0.668 1.020-1.359 0.639l-3.75-2.771-1.799 1.752c-0.211 0.205-0.375 0.375-0.75 0.375-0.486 0-0.404-0.182-0.568-0.645l-1.277-4.195-3.709-1.154c-0.803-0.246-0.809-0.797 0.182-1.189l14.449-5.578c0.656-0.299 1.295 0.158 1.043 1.172z"></path>
</svg>
