<?xml version="1.0" encoding="utf-8"?>
<!-- Generated by IcoMoon.io -->
<!DOCTYPE svg PUBLIC "-//W3C//DTD SVG 1.1//EN" "http://www.w3.org/Graphics/SVG/1.1/DTD/svg11.dtd">
<svg version="1.1" xmlns="http://www.w3.org/2000/svg" xmlns:xlink="http://www.w3.org/1999/xlink" width="32" height="32" viewBox="0 0 32 32">
<path d="M17.848 10.456l3.696 3.696-7.392 7.392-3.696-3.696zM30.135 9.807l-2.123-2.123-0.924 0.924c-0.473 0.473-1.126 0.765-1.848 0.765-1.443 0-2.614-1.17-2.614-2.613 0-0.722 0.293-1.376 0.766-1.848l0.924-0.924-2.123-2.123c-0.865-0.865-2.281-0.865-3.147 0l-17.181 17.181c-0.865 0.865-0.865 2.281 0 3.147l2.123 2.123 0.923-0.923c0.473-0.474 1.127-0.767 1.849-0.767 1.443 0 2.613 1.17 2.613 2.613 0 0.722-0.293 1.376-0.766 1.849l-0.924 0.924 2.123 2.123c0.865 0.865 2.281 0.865 3.147 0l17.181-17.181c0.865-0.866 0.865-2.282 0-3.147zM14.152 25.24l-7.392-7.392 11.088-11.088 7.392 7.392-11.088 11.088z"></path>
</svg>
