<?xml version="1.0" encoding="utf-8"?>
<!-- Generated by IcoMoon.io -->
<!DOCTYPE svg PUBLIC "-//W3C//DTD SVG 1.1//EN" "http://www.w3.org/Graphics/SVG/1.1/DTD/svg11.dtd">
<svg version="1.1" xmlns="http://www.w3.org/2000/svg" xmlns:xlink="http://www.w3.org/1999/xlink" width="32" height="32" viewBox="0 0 32 32">
<path d="M16 1c-8.284 0-15 6.716-15 15s6.716 15 15 15 15-6.716 15-15-6.716-15-15-15zM10.375 8.5c1.036 0 1.875 0.839 1.875 1.875s-0.839 1.875-1.875 1.875-1.875-0.839-1.875-1.875 0.839-1.875 1.875-1.875zM23.5 19.75h-1.875v2.813c0 1.553-1.259 2.813-2.813 2.813s-2.813-1.259-2.813-2.813v-2.813h-7.5v-1.875h15v1.875zM21.625 12.25c-1.036 0-1.875-0.839-1.875-1.875s0.839-1.875 1.875-1.875 1.875 0.839 1.875 1.875-0.839 1.875-1.875 1.875z"></path>
</svg>
