<?xml version="1.0" encoding="utf-8"?>
<!-- Generated by IcoMoon.io -->
<!DOCTYPE svg PUBLIC "-//W3C//DTD SVG 1.1//EN" "http://www.w3.org/Graphics/SVG/1.1/DTD/svg11.dtd">
<svg version="1.1" xmlns="http://www.w3.org/2000/svg" xmlns:xlink="http://www.w3.org/1999/xlink" width="32" height="32" viewBox="0 0 32 32">
<path d="M29.533 22.533h-0.467v-6.067c0-1.801-1.465-3.267-3.267-3.267h-7.933v-3.733h0.467c0.77 0 1.4-0.63 1.4-1.4v-4.667c0-0.77-0.63-1.4-1.4-1.4h-4.667c-0.77 0-1.4 0.63-1.4 1.4v4.667c0 0.77 0.63 1.4 1.4 1.4h0.467v3.733h-7.933c-1.801 0-3.267 1.465-3.267 3.267v6.067h-0.467c-0.77 0-1.4 0.63-1.4 1.4v4.667c0 0.77 0.63 1.4 1.4 1.4h4.667c0.77 0 1.4-0.63 1.4-1.4v-4.667c0-0.77-0.63-1.4-1.4-1.4h-0.467v-5.6h7.467v5.6h-0.467c-0.77 0-1.4 0.63-1.4 1.4v4.667c0 0.77 0.63 1.4 1.4 1.4h4.667c0.77 0 1.4-0.63 1.4-1.4v-4.667c0-0.77-0.63-1.4-1.4-1.4h-0.467v-5.6h7.467v5.6h-0.467c-0.77 0-1.4 0.63-1.4 1.4v4.667c0 0.77 0.63 1.4 1.4 1.4h4.667c0.77 0 1.4-0.63 1.4-1.4v-4.667c0-0.77-0.63-1.4-1.4-1.4zM6.667 28.133h-3.733v-3.733h3.733v3.733zM17.867 28.133h-3.733v-3.733h3.733v3.733zM14.133 7.6v-3.733h3.733v3.733h-3.733zM29.067 28.133h-3.733v-3.733h3.733v3.733z"></path>
</svg>
