<?xml version="1.0" encoding="utf-8"?>
<!-- Generated by IcoMoon.io -->
<!DOCTYPE svg PUBLIC "-//W3C//DTD SVG 1.1//EN" "http://www.w3.org/Graphics/SVG/1.1/DTD/svg11.dtd">
<svg version="1.1" xmlns="http://www.w3.org/2000/svg" xmlns:xlink="http://www.w3.org/1999/xlink" width="32" height="32" viewBox="0 0 32 32">
<path d="M30.769 16.923l-3.692-7.385h-5.538v-3.692c0-1.015-0.831-1.846-1.846-1.846h-16.615c-1.015 0-1.846 0.831-1.846 1.846v14.769l1.846 1.846h2.341c-0.314 0.543-0.495 1.173-0.495 1.846 0 2.039 1.653 3.692 3.692 3.692s3.692-1.653 3.692-3.692c0-0.673-0.181-1.303-0.495-1.846h10.221c-0.314 0.543-0.495 1.173-0.495 1.846 0 2.039 1.653 3.692 3.692 3.692s3.692-1.653 3.692-3.692c0-0.673-0.181-1.303-0.495-1.846h2.341v-5.538zM21.538 16.923v-5.538h3.827l2.769 5.538h-6.596z"></path>
</svg>
