<?xml version="1.0" encoding="utf-8"?>
<!-- Generated by IcoMoon.io -->
<!DOCTYPE svg PUBLIC "-//W3C//DTD SVG 1.1//EN" "http://www.w3.org/Graphics/SVG/1.1/DTD/svg11.dtd">
<svg version="1.1" xmlns="http://www.w3.org/2000/svg" xmlns:xlink="http://www.w3.org/1999/xlink" width="32" height="32" viewBox="0 0 32 32">
<path d="M28.188 1h-24.375c-1.547 0-2.813 1.266-2.813 2.813v24.375c0 1.547 1.266 2.813 2.813 2.813h24.375c1.547 0 2.813-1.266 2.813-2.813v-24.375c0-1.547-1.266-2.813-2.813-2.813zM22.439 25.158c-0.885 0.416-1.688 0.709-2.402 0.879-0.715 0.164-1.494 0.252-2.326 0.252-0.949 0-1.506-0.117-2.232-0.357s-1.348-0.58-1.863-1.020c-0.516-0.445-0.867-0.914-1.066-1.412s-0.299-1.219-0.299-2.168v-7.26h-2.813v-2.93c0.814-0.264 1.758-0.645 2.332-1.137 0.58-0.492 1.049-1.084 1.395-1.775 0.352-0.691 0.592-1.57 0.727-2.637h2.941v4.781h4.793v3.697h-4.787v5.309c0 1.201-0.018 1.893 0.111 2.232s0.445 0.691 0.791 0.891c0.457 0.275 0.984 0.41 1.57 0.41 1.049 0 2.092-0.34 3.129-1.020v3.264z"></path>
</svg>
