<?xml version="1.0" encoding="utf-8"?>
<!-- Generated by IcoMoon.io -->
<!DOCTYPE svg PUBLIC "-//W3C//DTD SVG 1.1//EN" "http://www.w3.org/Graphics/SVG/1.1/DTD/svg11.dtd">
<svg version="1.1" xmlns="http://www.w3.org/2000/svg" xmlns:xlink="http://www.w3.org/1999/xlink" width="32" height="32" viewBox="0 0 32 32">
<path d="M17.873 14.125l-0 6.861c0 1.741-0.023 2.744 0.162 3.237 0.183 0.491 0.642 1 1.142 1.295 0.665 0.398 1.422 0.597 2.277 0.597 1.519 0 2.416-0.201 3.918-1.188v4.51c-1.28 0.602-2.398 0.955-3.437 1.199-1.040 0.241-2.164 0.363-3.371 0.363-1.372 0-2.181-0.172-3.235-0.517-1.053-0.348-1.953-0.844-2.696-1.481-0.746-0.642-1.26-1.324-1.548-2.046s-0.431-1.77-0.431-3.142v-10.521h-4.026v-4.248c1.178-0.382 2.495-0.931 3.333-1.645 0.842-0.716 1.517-1.573 2.025-2.577 0.51-1 0.86-2.277 1.051-3.824h4.837l-0 7.5h7.499v5.625h-7.499z"></path>
</svg>
