<?xml version="1.0" encoding="utf-8"?>
<!-- Generated by IcoMoon.io -->
<!DOCTYPE svg PUBLIC "-//W3C//DTD SVG 1.1//EN" "http://www.w3.org/Graphics/SVG/1.1/DTD/svg11.dtd">
<svg version="1.1" xmlns="http://www.w3.org/2000/svg" xmlns:xlink="http://www.w3.org/1999/xlink" width="32" height="32" viewBox="0 0 32 32">
<path d="M18.152 22.842c-2.306 1.073-4.451 1.061-5.892 0.957-1.718-0.124-3.1-0.595-3.708-1.006-0.374-0.253-0.883-0.155-1.137 0.219s-0.155 0.883 0.219 1.137c0.977 0.661 2.704 1.153 4.507 1.283 0.306 0.022 0.642 0.036 1.003 0.036 1.57 0 3.564-0.15 5.697-1.142 0.41-0.191 0.588-0.678 0.397-1.087s-0.678-0.587-1.088-0.397zM27.251 21.629c0.078-7.111 0.809-20.55-12.804-19.464-13.441 1.082-9.877 15.281-10.078 20.037-0.178 2.516-1.013 5.591-2.192 8.72h3.633c0.373-1.326 0.648-2.638 0.766-3.888 0.219 0.153 0.453 0.3 0.703 0.442 0.407 0.24 0.757 0.558 1.127 0.896 0.865 0.789 1.846 1.682 3.763 1.794 0.129 0.007 0.258 0.011 0.385 0.011 1.939 0 3.265-0.849 4.331-1.53 0.511-0.327 0.952-0.609 1.367-0.744 1.18-0.369 2.21-0.965 2.98-1.724 0.12-0.118 0.232-0.24 0.337-0.364 0.429 1.573 1.016 3.342 1.669 5.108h7.758c-1.862-2.877-3.783-5.695-3.745-9.292zM5.669 17.76c0-0 0-0.001-0-0.001-0.134-2.321 0.977-4.273 2.48-4.36s2.83 1.723 2.964 4.044c0 0 0 0.001 0 0.001 0.007 0.125 0.010 0.249 0.010 0.372-0.476 0.12-0.906 0.294-1.291 0.496-0.001-0.017-0.003-0.034-0.004-0.052 0-0 0-0 0-0.001-0.129-1.317-0.832-2.312-1.572-2.222s-1.235 1.231-1.106 2.549c0 0 0 0 0 0.001 0.056 0.574 0.221 1.087 0.451 1.476-0.057 0.045-0.219 0.164-0.405 0.3-0.14 0.102-0.31 0.227-0.515 0.378-0.56-0.734-0.943-1.789-1.011-2.98zM20.899 23.497c-0.053 1.227-1.658 2.381-3.14 2.844l-0.008 0.003c-0.616 0.2-1.166 0.552-1.748 0.924-0.977 0.625-1.988 1.272-3.448 1.272-0.096 0-0.194-0.003-0.291-0.008-1.337-0.078-1.963-0.648-2.755-1.37-0.418-0.381-0.85-0.774-1.406-1.101l-0.012-0.007c-1.202-0.678-1.948-1.522-1.996-2.257-0.024-0.365 0.139-0.682 0.484-0.94 0.75-0.562 1.252-0.929 1.584-1.172 0.369-0.27 0.48-0.351 0.563-0.43 0.059-0.056 0.123-0.118 0.191-0.185 0.688-0.669 1.839-1.789 3.607-1.789 1.081 0 2.277 0.417 3.551 1.236 0.6 0.391 1.122 0.571 1.784 0.799 0.455 0.157 0.97 0.335 1.66 0.631l0.011 0.005c0.644 0.265 1.404 0.748 1.369 1.546zM20.544 20.616c-0.124-0.062-0.253-0.122-0.387-0.177-0.622-0.266-1.121-0.447-1.535-0.591 0.228-0.447 0.37-1.005 0.383-1.611 0-0 0-0.001 0-0.001 0.032-1.474-0.712-2.671-1.66-2.673s-1.743 1.191-1.775 2.665c0 0 0 0 0 0.001-0.001 0.048-0.001 0.096-0.001 0.144-0.584-0.269-1.159-0.464-1.721-0.584-0.003-0.055-0.006-0.111-0.007-0.167 0-0 0-0.001 0-0.001-0.055-2.685 1.593-4.908 3.68-4.965s3.823 2.074 3.877 4.759c0 0 0 0.001 0 0.001 0.025 1.214-0.3 2.332-0.855 3.199z"></path>
</svg>
