<?xml version="1.0" encoding="utf-8"?>
<!-- Generated by IcoMoon.io -->
<!DOCTYPE svg PUBLIC "-//W3C//DTD SVG 1.1//EN" "http://www.w3.org/Graphics/SVG/1.1/DTD/svg11.dtd">
<svg version="1.1" xmlns="http://www.w3.org/2000/svg" xmlns:xlink="http://www.w3.org/1999/xlink" width="32" height="32" viewBox="0 0 32 32">
<path d="M29.746 9.441c-2.602-0.374-5.373-0.645-8.264-0.797l4.831-4.831-1.875-1.875-6.579 6.579c-0.615-0.011-1.235-0.016-1.859-0.016v0l-7.5-7.5-1.875 1.875 5.689 5.689c-3.543 0.124-6.924 0.425-10.060 0.876-0.807 3.156-1.254 6.643-1.254 10.309s0.448 7.153 1.254 10.309c4.208 0.605 8.858 0.941 13.746 0.941s9.538-0.336 13.746-0.941c0.807-3.156 1.254-6.643 1.254-10.309s-0.448-7.153-1.254-10.309zM26.309 26.623c-3.156 0.403-6.643 0.627-10.309 0.627s-7.153-0.224-10.309-0.627c-0.605-2.104-0.941-4.429-0.941-6.873s0.336-4.769 0.941-6.873c3.156-0.403 6.643-0.627 10.309-0.627s7.153 0.224 10.309 0.627c0.605 2.104 0.941 4.429 0.941 6.873s-0.336 4.769-0.941 6.873z"></path>
</svg>
