<?xml version="1.0" encoding="utf-8"?>
<!-- Generated by IcoMoon.io -->
<!DOCTYPE svg PUBLIC "-//W3C//DTD SVG 1.1//EN" "http://www.w3.org/Graphics/SVG/1.1/DTD/svg11.dtd">
<svg version="1.1" xmlns="http://www.w3.org/2000/svg" xmlns:xlink="http://www.w3.org/1999/xlink" width="32" height="32" viewBox="0 0 32 32">
<path d="M30.769 6.84c-1.084 0.485-2.255 0.808-3.478 0.952 1.252-0.75 2.209-1.938 2.665-3.351-1.171 0.692-2.469 1.2-3.847 1.471-1.107-1.177-2.682-1.909-4.424-1.909-3.345 0-6.056 2.711-6.056 6.056 0 0.473 0.052 0.934 0.156 1.379-5.035-0.254-9.5-2.665-12.488-6.333-0.519 0.894-0.819 1.938-0.819 3.045 0 2.1 1.067 3.957 2.694 5.041-0.992-0.029-1.927-0.306-2.746-0.756 0 0.023 0 0.052 0 0.075 0 2.936 2.088 5.387 4.862 5.941-0.508 0.138-1.044 0.213-1.598 0.213-0.392 0-0.767-0.040-1.142-0.11 0.773 2.405 3.011 4.159 5.658 4.211-2.076 1.627-4.684 2.596-7.527 2.596-0.49 0-0.969-0.029-1.448-0.087 2.688 1.725 5.872 2.723 9.292 2.723 11.144 0 17.241-9.235 17.241-17.241 0-0.265-0.006-0.525-0.017-0.784 1.182-0.848 2.209-1.915 3.022-3.132z"></path>
</svg>
