<?xml version="1.0" encoding="utf-8"?>
<!-- Generated by IcoMoon.io -->
<!DOCTYPE svg PUBLIC "-//W3C//DTD SVG 1.1//EN" "http://www.w3.org/Graphics/SVG/1.1/DTD/svg11.dtd">
<svg version="1.1" xmlns="http://www.w3.org/2000/svg" xmlns:xlink="http://www.w3.org/1999/xlink" width="32" height="32" viewBox="0 0 32 32">
<path d="M12.25 14.594c0 0.773-0.633 1.406-1.406 1.406h-2.813c-0.773 0-1.406-0.633-1.406-1.406v-2.813c0-0.773 0.633-1.406 1.406-1.406h2.813c0.773 0 1.406 0.633 1.406 1.406v2.813z"></path>
<path d="M21.625 14.594c0 0.773-0.633 1.406-1.406 1.406h-2.813c-0.773 0-1.406-0.633-1.406-1.406v-2.813c0-0.773 0.633-1.406 1.406-1.406h2.813c0.773 0 1.406 0.633 1.406 1.406v2.813z"></path>
<path d="M12.25 23.969c0 0.773-0.633 1.406-1.406 1.406h-2.813c-0.773 0-1.406-0.633-1.406-1.406v-2.813c0-0.773 0.633-1.406 1.406-1.406h2.813c0.773 0 1.406 0.633 1.406 1.406v2.813z"></path>
<path d="M21.625 23.969c0 0.773-0.633 1.406-1.406 1.406h-2.813c-0.773 0-1.406-0.633-1.406-1.406v-2.813c0-0.773 0.633-1.406 1.406-1.406h2.813c0.773 0 1.406 0.633 1.406 1.406v2.813z"></path>
<path d="M27.721 5.688l3.279-3.279v-1.409h-1.409l-3.279 3.279-3.279-3.279h-1.409v1.409l3.279 3.279-3.279 3.279v1.409h1.409l3.279-3.279 3.279 3.279h1.409v-1.409z"></path>
<path d="M1 23.5h1.875v3.75h-1.875v-3.75z"></path>
<path d="M1 17.875h1.875v3.75h-1.875v-3.75z"></path>
<path d="M25.375 14.125h1.875v3.75h-1.875v-3.75z"></path>
<path d="M25.375 25.375h1.875v3.75h-1.875v-3.75z"></path>
<path d="M25.375 19.75h1.875v3.75h-1.875v-3.75z"></path>
<path d="M1 12.25h1.875v3.75h-1.875v-3.75z"></path>
<path d="M1 6.625h1.875v3.75h-1.875v-3.75z"></path>
<path d="M16 4.75h3.75v1.875h-3.75v-1.875z"></path>
<path d="M10.375 4.75h3.75v1.875h-3.75v-1.875z"></path>
<path d="M4.75 4.75h3.75v1.875h-3.75v-1.875z"></path>
<path d="M14.125 29.125h3.75v1.875h-3.75v-1.875z"></path>
<path d="M19.75 29.125h3.75v1.875h-3.75v-1.875z"></path>
<path d="M8.5 29.125h3.75v1.875h-3.75v-1.875z"></path>
<path d="M2.875 29.125h3.75v1.875h-3.75v-1.875z"></path>
</svg>
