<?xml version="1.0" encoding="utf-8"?>
<!-- Generated by IcoMoon.io -->
<!DOCTYPE svg PUBLIC "-//W3C//DTD SVG 1.1//EN" "http://www.w3.org/Graphics/SVG/1.1/DTD/svg11.dtd">
<svg version="1.1" xmlns="http://www.w3.org/2000/svg" xmlns:xlink="http://www.w3.org/1999/xlink" width="32" height="32" viewBox="0 0 32 32">
<path d="M20.958 22.679v-1.363c1.821-1.026 3.306-3.584 3.306-6.142 0-4.108 0-7.438-4.958-7.438s-4.958 3.33-4.958 7.438c0 2.558 1.485 5.116 3.306 6.142v1.363c-5.607 0.458-9.917 3.213-9.917 6.544h23.139c0-3.331-4.31-6.085-9.917-6.544z"></path>
<path d="M9.575 23.317c1.428-0.934 3.204-1.643 5.159-2.077-0.389-0.459-0.741-0.972-1.046-1.524-0.785-1.426-1.201-2.997-1.201-4.542 0-2.222 0-4.321 0.79-6.037 0.767-1.666 2.147-2.699 4.112-3.086-0.437-1.975-1.6-3.273-4.695-3.273-4.958 0-4.958 3.33-4.958 7.437 0 2.558 1.485 5.116 3.306 6.142v1.363c-5.607 0.458-9.917 3.213-9.917 6.544h7.205c0.375-0.333 0.79-0.65 1.245-0.947z"></path>
</svg>
