<?xml version="1.0" encoding="utf-8"?>
<!-- Generated by IcoMoon.io -->
<!DOCTYPE svg PUBLIC "-//W3C//DTD SVG 1.1//EN" "http://www.w3.org/Graphics/SVG/1.1/DTD/svg11.dtd">
<svg version="1.1" xmlns="http://www.w3.org/2000/svg" xmlns:xlink="http://www.w3.org/1999/xlink" width="32" height="32" viewBox="0 0 32 32">
<path d="M12.25 22.563c0-4.431 2.809-8.217 6.739-9.674 0.477-1.070 0.761-2.261 0.761-3.451 0-4.66 0-8.438-5.625-8.438s-5.625 3.778-5.625 8.438c0 2.902 1.685 5.804 3.75 6.968v1.546c-6.36 0.52-11.25 3.645-11.25 7.423h11.64c-0.254-0.894-0.39-1.838-0.39-2.813z"></path>
<path d="M22.563 14.125c-4.66 0-8.438 3.778-8.438 8.438s3.778 8.438 8.438 8.438c4.66 0 8.438-3.778 8.438-8.438s-3.778-8.438-8.438-8.438zM27.25 23.5h-3.75v3.75h-1.875v-3.75h-3.75v-1.875h3.75v-3.75h1.875v3.75h3.75v1.875z"></path>
</svg>
