<?xml version="1.0" encoding="utf-8"?>
<!-- Generated by IcoMoon.io -->
<!DOCTYPE svg PUBLIC "-//W3C//DTD SVG 1.1//EN" "http://www.w3.org/Graphics/SVG/1.1/DTD/svg11.dtd">
<svg version="1.1" xmlns="http://www.w3.org/2000/svg" xmlns:xlink="http://www.w3.org/1999/xlink" width="32" height="32" viewBox="0 0 32 32">
<path d="M12.333 9.583c0-2.531 2.052-4.583 4.583-4.583s4.583 2.052 4.583 4.583c0 2.531-2.052 4.583-4.583 4.583s-4.583-2.052-4.583-4.583zM1.333 9.583c0-2.531 2.052-4.583 4.583-4.583s4.583 2.052 4.583 4.583c0 2.531-2.052 4.583-4.583 4.583s-4.583-2.052-4.583-4.583zM23.333 18.75v-2.75c0-1.008-0.825-1.833-1.833-1.833h-18.333c-1.008 0-1.833 0.825-1.833 1.833v9.167c0 1.008 0.825 1.833 1.833 1.833h18.333c1.008 0 1.833-0.825 1.833-1.833v-2.75l7.333 4.583v-12.833l-7.333 4.583zM19.667 23.333h-14.667v-5.5h14.667v5.5z"></path>
</svg>
