<?xml version="1.0" encoding="utf-8"?>
<!-- Generated by IcoMoon.io -->
<!DOCTYPE svg PUBLIC "-//W3C//DTD SVG 1.1//EN" "http://www.w3.org/Graphics/SVG/1.1/DTD/svg11.dtd">
<svg version="1.1" xmlns="http://www.w3.org/2000/svg" xmlns:xlink="http://www.w3.org/1999/xlink" width="32" height="32" viewBox="0 0 32 32">
<path d="M28.188 1h-24.375c-1.547 0-2.813 1.266-2.813 2.813v24.375c0 1.547 1.266 2.813 2.813 2.813h24.375c1.547 0 2.813-1.266 2.813-2.813v-24.375c0-1.547-1.266-2.813-2.813-2.813zM26.242 10.961c-0.094 2.109-1.57 4.998-4.424 8.666-2.947 3.832-5.443 5.748-7.482 5.748-1.266 0-2.332-1.166-3.205-3.498-0.586-2.139-1.166-4.277-1.752-6.416-0.645-2.332-1.342-3.498-2.086-3.498-0.164 0-0.732 0.34-1.699 1.020l-1.020-1.313c1.072-0.938 2.127-1.881 3.164-2.818 1.43-1.23 2.496-1.881 3.211-1.945 1.688-0.164 2.725 0.99 3.117 3.457 0.422 2.666 0.715 4.318 0.879 4.969 0.486 2.209 1.020 3.311 1.605 3.311 0.451 0 1.137-0.715 2.045-2.15s1.395-2.525 1.459-3.275c0.129-1.236-0.357-1.857-1.459-1.857-0.521 0-1.055 0.117-1.605 0.357 1.066-3.486 3.1-5.186 6.105-5.086 2.227 0.064 3.275 1.506 3.146 4.33z"></path>
</svg>
