<?xml version="1.0" encoding="utf-8"?>
<!-- Generated by IcoMoon.io -->
<!DOCTYPE svg PUBLIC "-//W3C//DTD SVG 1.1//EN" "http://www.w3.org/Graphics/SVG/1.1/DTD/svg11.dtd">
<svg version="1.1" xmlns="http://www.w3.org/2000/svg" xmlns:xlink="http://www.w3.org/1999/xlink" width="32" height="32" viewBox="0 0 32 32">
<path d="M30.67 9.197c-0.133 2.872-2.14 6.812-6.021 11.806-4.014 5.214-7.411 7.827-10.191 7.827-1.719 0-3.178-1.586-4.366-4.764-0.796-2.913-1.586-5.825-2.382-8.738-0.882-3.178-1.828-4.764-2.843-4.764-0.219 0-0.992 0.467-2.319 1.39l-1.39-1.788c1.459-1.28 2.895-2.561 4.308-3.841 1.944-1.678 3.403-2.561 4.378-2.653 2.296-0.219 3.714 1.35 4.245 4.712 0.571 3.628 0.969 5.883 1.194 6.765 0.663 3.011 1.39 4.516 2.186 4.516 0.617 0 1.546-0.975 2.786-2.93 1.234-1.949 1.898-3.438 1.99-4.458 0.179-1.684-0.485-2.532-1.99-2.532-0.709 0-1.436 0.162-2.186 0.485 1.453-4.753 4.222-7.060 8.317-6.927 3.028 0.081 4.458 2.048 4.285 5.895z"></path>
</svg>
