<?xml version="1.0" encoding="utf-8"?>
<!-- Generated by IcoMoon.io -->
<!DOCTYPE svg PUBLIC "-//W3C//DTD SVG 1.1//EN" "http://www.w3.org/Graphics/SVG/1.1/DTD/svg11.dtd">
<svg version="1.1" xmlns="http://www.w3.org/2000/svg" xmlns:xlink="http://www.w3.org/1999/xlink" width="32" height="32" viewBox="0 0 32 32">
<path d="M29.074 15.831c-0.769 0.175-1.509 0.256-2.179 0.256-3.765 0-6.661-2.628-6.661-7.203 0-2.244 0.868-3.403 2.092-3.403 1.166 0 1.941 1.043 1.941 3.164 0 1.206-0.32 2.529-0.559 3.31 0 0 1.16 2.022 4.33 1.404 0.676-1.498 1.037-3.432 1.037-5.128 0-4.569-2.331-7.232-6.603-7.232-4.394 0-6.964 3.374-6.964 7.826 0 4.411 2.063 8.194 5.46 9.918-1.428 2.861-3.246 5.379-5.146 7.279-3.438-4.161-6.55-9.709-7.826-20.542h-5.076c2.349 18.042 9.336 23.788 11.189 24.889 1.043 0.629 1.946 0.6 2.902 0.058 1.503-0.851 6.008-5.361 8.508-10.635 1.049 0 2.308-0.122 3.561-0.408v-3.555z"></path>
</svg>
