<?xml version="1.0" encoding="utf-8"?>
<!-- Generated by IcoMoon.io -->
<!DOCTYPE svg PUBLIC "-//W3C//DTD SVG 1.1//EN" "http://www.w3.org/Graphics/SVG/1.1/DTD/svg11.dtd">
<svg version="1.1" xmlns="http://www.w3.org/2000/svg" xmlns:xlink="http://www.w3.org/1999/xlink" width="32" height="32" viewBox="0 0 32 32">
<path d="M28.188 1h-24.375c-1.547 0-2.813 1.266-2.813 2.813v24.375c0 1.547 1.266 2.813 2.813 2.813h24.375c1.547 0 2.813-1.266 2.813-2.813v-24.375c0-1.547-1.266-2.813-2.813-2.813zM25.299 22l-2.742 0.041c0 0-0.592 0.117-1.365-0.416-1.025-0.703-1.992-2.537-2.748-2.297-0.762 0.24-0.738 1.887-0.738 1.887s0.006 0.352-0.17 0.539c-0.188 0.205-0.563 0.246-0.563 0.246h-1.225c0 0-2.707 0.164-5.092-2.32-2.602-2.707-4.898-8.080-4.898-8.080s-0.135-0.352 0.012-0.521c0.164-0.193 0.604-0.205 0.604-0.205l2.936-0.018c0 0 0.275 0.047 0.475 0.193 0.164 0.117 0.252 0.346 0.252 0.346s0.475 1.201 1.102 2.285c1.225 2.115 1.799 2.578 2.215 2.355 0.604-0.328 0.422-2.994 0.422-2.994s0.012-0.967-0.305-1.395c-0.246-0.334-0.709-0.434-0.908-0.457-0.164-0.023 0.105-0.404 0.457-0.58 0.527-0.258 1.459-0.275 2.561-0.264 0.855 0.006 1.107 0.064 1.441 0.141 1.014 0.246 0.668 1.189 0.668 3.451 0 0.727-0.129 1.746 0.393 2.080 0.223 0.146 0.773 0.023 2.15-2.314 0.65-1.107 1.143-2.408 1.143-2.408s0.105-0.234 0.27-0.334c0.17-0.1 0.398-0.070 0.398-0.070l3.088-0.018c0 0 0.926-0.111 1.078 0.311 0.158 0.439-0.346 1.465-1.605 3.146-2.068 2.76-2.303 2.502-0.58 4.096 1.641 1.523 1.98 2.268 2.039 2.361 0.668 1.125-0.762 1.213-0.762 1.213z"></path>
</svg>
