<?xml version="1.0" encoding="utf-8"?>
<!-- Generated by IcoMoon.io -->
<!DOCTYPE svg PUBLIC "-//W3C//DTD SVG 1.1//EN" "http://www.w3.org/Graphics/SVG/1.1/DTD/svg11.dtd">
<svg version="1.1" xmlns="http://www.w3.org/2000/svg" xmlns:xlink="http://www.w3.org/1999/xlink" width="32" height="32" viewBox="0 0 32 32">
<path d="M22.62 23.689c-0.41 0-0.82-0.156-1.133-0.469-0.626-0.626-0.626-1.64 0-2.266 2.708-2.708 2.708-7.114 0-9.821-0.626-0.626-0.626-1.641 0-2.266s1.641-0.626 2.266 0c3.957 3.957 3.957 10.397 0 14.354-0.313 0.313-0.723 0.469-1.133 0.469z"></path>
<path d="M18.179 31c-0.278 0-0.551-0.108-0.756-0.313l-8.234-8.234h-3.831c-0.59 0-1.068-0.478-1.068-1.068v-10.684c0-0.59 0.478-1.068 1.068-1.068h3.831l8.234-8.235c0.306-0.306 0.765-0.397 1.164-0.232s0.66 0.555 0.66 0.987v27.779c0 0.432-0.26 0.822-0.66 0.987-0.132 0.055-0.271 0.081-0.409 0.081z"></path>
</svg>
