<?xml version="1.0" encoding="utf-8"?>
<!-- Generated by IcoMoon.io -->
<!DOCTYPE svg PUBLIC "-//W3C//DTD SVG 1.1//EN" "http://www.w3.org/Graphics/SVG/1.1/DTD/svg11.dtd">
<svg version="1.1" xmlns="http://www.w3.org/2000/svg" xmlns:xlink="http://www.w3.org/1999/xlink" width="32" height="32" viewBox="0 0 32 32">
<path d="M30.932 19.372v2.64h-2.64l-3.333-3.333-3.333 3.333h-2.64v-2.64l3.333-3.333-3.333-3.333v-2.64h2.64l3.333 3.333 3.333-3.333h2.64v2.64l-3.333 3.333 3.333 3.333z"></path>
<path d="M14.009 29.975c-0.259 0-0.514-0.101-0.704-0.292l-7.672-7.672h-3.569c-0.55 0-0.995-0.446-0.995-0.995v-9.954c0-0.55 0.446-0.995 0.995-0.995h3.569l7.672-7.672c0.285-0.285 0.713-0.37 1.085-0.216s0.614 0.517 0.614 0.92v25.881c0 0.403-0.243 0.766-0.614 0.92-0.123 0.051-0.253 0.076-0.381 0.076z"></path>
</svg>
