<?xml version="1.0" encoding="utf-8"?>
<!-- Generated by IcoMoon.io -->
<!DOCTYPE svg PUBLIC "-//W3C//DTD SVG 1.1//EN" "http://www.w3.org/Graphics/SVG/1.1/DTD/svg11.dtd">
<svg version="1.1" xmlns="http://www.w3.org/2000/svg" xmlns:xlink="http://www.w3.org/1999/xlink" width="32" height="32" viewBox="0 0 32 32">
<path d="M25.407 27.181c-0.334 0-0.668-0.127-0.923-0.382-0.51-0.51-0.51-1.336 0-1.845 2.383-2.383 3.695-5.55 3.695-8.92s-1.312-6.537-3.695-8.92c-0.51-0.51-0.51-1.336 0-1.845s1.336-0.51 1.845 0c2.875 2.875 4.459 6.699 4.459 10.765s-1.584 7.89-4.459 10.765c-0.255 0.255-0.589 0.382-0.923 0.382zM20.772 24.721c-0.334 0-0.668-0.127-0.923-0.382-0.51-0.51-0.51-1.336 0-1.845 3.562-3.562 3.562-9.357 0-12.918-0.51-0.51-0.51-1.336 0-1.845s1.336-0.51 1.845 0c2.218 2.218 3.44 5.167 3.44 8.304s-1.222 6.086-3.44 8.304c-0.255 0.255-0.589 0.382-0.923 0.382v0zM16.136 22.26c-0.334 0-0.668-0.127-0.923-0.382-0.51-0.51-0.51-1.336 0-1.845 2.205-2.205 2.205-5.792 0-7.997-0.51-0.51-0.51-1.336 0-1.845s1.336-0.51 1.845 0c3.222 3.222 3.222 8.465 0 11.688-0.255 0.255-0.589 0.382-0.923 0.382z"></path>
<path d="M12.52 28.213c-0.226 0-0.449-0.088-0.615-0.255l-6.705-6.705h-3.119c-0.48 0-0.87-0.389-0.87-0.87v-8.699c0-0.48 0.389-0.87 0.87-0.87h3.119l6.705-6.705c0.249-0.249 0.623-0.323 0.948-0.189s0.537 0.452 0.537 0.804v22.619c0 0.352-0.212 0.669-0.537 0.804-0.108 0.045-0.221 0.066-0.333 0.066z"></path>
</svg>
