<?xml version="1.0" encoding="utf-8"?>
<!-- Generated by IcoMoon.io -->
<!DOCTYPE svg PUBLIC "-//W3C//DTD SVG 1.1//EN" "http://www.w3.org/Graphics/SVG/1.1/DTD/svg11.dtd">
<svg version="1.1" xmlns="http://www.w3.org/2000/svg" xmlns:xlink="http://www.w3.org/1999/xlink" width="32" height="32" viewBox="0 0 32 32">
<path d="M30.86 17.894h-5.573v5.573h-3.715v-5.573h-5.573v-3.715h5.573v-5.573h3.715v5.573h5.573v3.715z"></path>
<path d="M13.214 29.039c-0.242 0-0.479-0.094-0.657-0.272l-7.158-7.158h-3.33c-0.513 0-0.929-0.416-0.929-0.929v-9.288c0-0.513 0.416-0.929 0.929-0.929h3.33l7.158-7.158c0.266-0.266 0.665-0.345 1.012-0.201s0.573 0.482 0.573 0.858v24.148c0 0.376-0.226 0.714-0.573 0.858-0.115 0.048-0.236 0.071-0.355 0.071z"></path>
</svg>
