<?xml version="1.0" encoding="utf-8"?>
<!-- Generated by IcoMoon.io -->
<!DOCTYPE svg PUBLIC "-//W3C//DTD SVG 1.1//EN" "http://www.w3.org/Graphics/SVG/1.1/DTD/svg11.dtd">
<svg version="1.1" xmlns="http://www.w3.org/2000/svg" xmlns:xlink="http://www.w3.org/1999/xlink" width="32" height="32" viewBox="0 0 32 32">
<path d="M16 4.197l12.081 24.078h-24.161l12.081-24.078zM16 1.585c-0.621 0-1.243 0.419-1.714 1.257l-12.305 24.525c-0.943 1.676-0.141 3.047 1.782 3.047h24.474c1.923 0 2.725-1.371 1.782-3.047h0l-12.305-24.525c-0.471-0.838-1.093-1.257-1.714-1.257v0z"></path>
<path d="M17.802 25.009c0 0.995-0.807 1.802-1.802 1.802s-1.802-0.807-1.802-1.802c0-0.995 0.807-1.802 1.802-1.802s1.802 0.807 1.802 1.802z"></path>
<path d="M16 21.405c-0.995 0-1.802-0.807-1.802-1.802v-5.405c0-0.995 0.807-1.802 1.802-1.802s1.802 0.807 1.802 1.802v5.405c0 0.995-0.807 1.802-1.802 1.802z"></path>
</svg>
