<?xml version="1.0" encoding="utf-8"?>
<!-- Generated by IcoMoon.io -->
<!DOCTYPE svg PUBLIC "-//W3C//DTD SVG 1.1//EN" "http://www.w3.org/Graphics/SVG/1.1/DTD/svg11.dtd">
<svg version="1.1" xmlns="http://www.w3.org/2000/svg" xmlns:xlink="http://www.w3.org/1999/xlink" width="32" height="32" viewBox="0 0 32 32">
<path d="M26.573 5.359c-2.807-2.813-6.539-4.359-10.518-4.359-8.191 0-14.859 6.668-14.859 14.865 0 2.619 0.686 5.18 1.986 7.43l-2.109 7.705 7.881-2.068c2.174 1.184 4.617 1.811 7.102 1.811h0.006c0 0 0 0 0 0 8.191 0 14.865-6.668 14.865-14.865 0-3.973-1.547-7.705-4.354-10.518zM16.062 28.234v0c-2.221 0-4.395-0.598-6.293-1.723l-0.451-0.27-4.676 1.225 1.248-4.559-0.293-0.469c-1.242-1.963-1.893-4.236-1.893-6.574 0-6.814 5.543-12.357 12.363-12.357 3.299 0 6.404 1.289 8.736 3.621 2.332 2.338 3.615 5.438 3.615 8.742-0.006 6.82-5.549 12.363-12.357 12.363zM22.835 18.977c-0.369-0.188-2.197-1.084-2.537-1.207s-0.586-0.188-0.838 0.188c-0.246 0.369-0.961 1.207-1.178 1.459-0.217 0.246-0.434 0.281-0.803 0.094s-1.57-0.58-2.988-1.846c-1.102-0.984-1.852-2.203-2.068-2.572s-0.023-0.574 0.164-0.756c0.17-0.164 0.369-0.434 0.557-0.65s0.246-0.369 0.369-0.621c0.123-0.246 0.064-0.463-0.029-0.65s-0.838-2.016-1.143-2.76c-0.299-0.727-0.609-0.627-0.838-0.639-0.217-0.012-0.463-0.012-0.709-0.012s-0.65 0.094-0.99 0.463c-0.34 0.369-1.301 1.271-1.301 3.1s1.33 3.592 1.518 3.844c0.188 0.246 2.619 4.002 6.346 5.607 0.885 0.381 1.576 0.609 2.115 0.785 0.891 0.281 1.699 0.24 2.338 0.146 0.715-0.105 2.197-0.896 2.508-1.764s0.311-1.611 0.217-1.764c-0.088-0.164-0.334-0.258-0.709-0.445z"></path>
</svg>
