<?xml version="1.0" encoding="utf-8"?>
<!-- Generated by IcoMoon.io -->
<!DOCTYPE svg PUBLIC "-//W3C//DTD SVG 1.1//EN" "http://www.w3.org/Graphics/SVG/1.1/DTD/svg11.dtd">
<svg version="1.1" xmlns="http://www.w3.org/2000/svg" xmlns:xlink="http://www.w3.org/1999/xlink" width="32" height="32" viewBox="0 0 32 32">
<path d="M30.421 7.17c0 0.101-0.032 0.197-0.095 0.285-0.063 0.082-0.133 0.127-0.216 0.127-0.634 0.063-1.154 0.266-1.554 0.609-0.406 0.343-0.818 1.009-1.243 1.979l-6.546 14.761c-0.044 0.14-0.165 0.203-0.362 0.203-0.152 0-0.273-0.070-0.362-0.203l-3.673-7.675-4.225 7.675c-0.089 0.14-0.203 0.203-0.362 0.203-0.19 0-0.311-0.070-0.374-0.203l-6.426-14.754c-0.4-0.913-0.825-1.554-1.269-1.916s-1.066-0.59-1.859-0.672c-0.070 0-0.133-0.038-0.19-0.108-0.063-0.070-0.089-0.152-0.089-0.247 0-0.241 0.070-0.362 0.203-0.362 0.571 0 1.173 0.025 1.801 0.076 0.584 0.051 1.129 0.076 1.643 0.076 0.52 0 1.142-0.025 1.852-0.076 0.742-0.051 1.402-0.076 1.979-0.076 0.14 0 0.203 0.121 0.203 0.362s-0.044 0.355-0.127 0.355c-0.571 0.044-1.028 0.19-1.357 0.438s-0.495 0.571-0.495 0.977c0 0.203 0.070 0.463 0.203 0.768l5.309 12.001 3.019-5.696-2.81-5.893c-0.507-1.053-0.92-1.732-1.243-2.036s-0.818-0.488-1.478-0.558c-0.063 0-0.114-0.038-0.171-0.108s-0.082-0.152-0.082-0.247c0-0.241 0.057-0.362 0.178-0.362 0.571 0 1.097 0.025 1.579 0.076 0.463 0.051 0.951 0.076 1.478 0.076 0.514 0 1.053-0.025 1.63-0.076 0.59-0.051 1.173-0.076 1.744-0.076 0.14 0 0.203 0.121 0.203 0.362s-0.038 0.355-0.127 0.355c-1.148 0.076-1.719 0.406-1.719 0.977 0 0.254 0.133 0.653 0.4 1.192l1.859 3.774 1.852-3.451c0.254-0.488 0.387-0.901 0.387-1.231 0-0.787-0.571-1.205-1.719-1.256-0.101 0-0.152-0.121-0.152-0.355 0-0.089 0.025-0.165 0.076-0.241s0.101-0.114 0.152-0.114c0.412 0 0.913 0.025 1.516 0.076 0.571 0.051 1.047 0.076 1.415 0.076 0.266 0 0.653-0.025 1.167-0.063 0.647-0.057 1.192-0.089 1.63-0.089 0.101 0 0.152 0.101 0.152 0.304 0 0.273-0.095 0.412-0.279 0.412-0.666 0.070-1.205 0.254-1.611 0.552s-0.913 0.977-1.522 2.043l-2.48 4.542 3.337 6.8 4.929-11.462c0.171-0.419 0.254-0.806 0.254-1.154 0-0.837-0.571-1.281-1.719-1.338-0.101 0-0.152-0.121-0.152-0.355 0-0.241 0.076-0.362 0.228-0.362 0.419 0 0.913 0.025 1.491 0.076 0.533 0.051 0.977 0.076 1.332 0.076 0.381 0 0.812-0.025 1.307-0.076 0.514-0.051 0.977-0.076 1.389-0.076 0.127 0 0.19 0.101 0.19 0.304z"></path>
</svg>
