<?xml version="1.0" encoding="utf-8"?>
<!-- Generated by IcoMoon.io -->
<!DOCTYPE svg PUBLIC "-//W3C//DTD SVG 1.1//EN" "http://www.w3.org/Graphics/SVG/1.1/DTD/svg11.dtd">
<svg version="1.1" xmlns="http://www.w3.org/2000/svg" xmlns:xlink="http://www.w3.org/1999/xlink" width="32" height="32" viewBox="0 0 32 32">
<path d="M13.1 15.998c-1.387-0.713-2.734-1.074-4.007-1.074-0.173 0-0.347 0.005-0.522 0.021-1.624 0.134-3.107 0.563-4.062 0.896-0.253 0.093-0.513 0.191-0.78 0.3l-2.611 9.050c1.793-0.664 3.38-0.986 4.832-0.986 2.35 0 4.055 0.878 5.464 1.782 0.667-2.265 2.268-7.733 2.746-9.368-0.347-0.212-0.7-0.423-1.061-0.62zM16.475 18.298l-2.629 9.13c0.78 0.447 3.403 1.861 5.412 1.861 1.622 0 3.437-0.416 5.546-1.273l2.51-8.776c-1.704 0.55-3.339 0.829-4.867 0.829-2.789 0-4.741-0.904-5.972-1.771zM9.63 11.838c2.241 0.023 3.899 0.878 5.272 1.758l2.696-9.223c-0.568-0.325-2.058-1.136-3.135-1.412-0.709-0.165-1.454-0.25-2.244-0.25-1.505 0.028-3.15 0.405-5.025 1.157l-2.57 9.027c1.884-0.71 3.506-1.056 5.001-1.056 0.001 0 0.004 0 0.004 0zM30.88 6.878c-1.709 0.664-3.377 1.002-4.971 1.002-2.665 0-4.63-0.924-5.903-1.813l-2.672 9.249c1.795 1.154 3.729 1.74 5.758 1.74 1.655 0 3.37-0.398 5.099-1.183l-0.005-0.065 0.109-0.026 2.585-8.905z"></path>
</svg>
