<?xml version="1.0" encoding="utf-8"?>
<!-- Generated by IcoMoon.io -->
<!DOCTYPE svg PUBLIC "-//W3C//DTD SVG 1.1//EN" "http://www.w3.org/Graphics/SVG/1.1/DTD/svg11.dtd">
<svg version="1.1" xmlns="http://www.w3.org/2000/svg" xmlns:xlink="http://www.w3.org/1999/xlink" width="32" height="32" viewBox="0 0 32 32">
<path d="M16 1c-8.284 0-15 6.716-15 15s6.716 15 15 15c8.284 0 15-6.716 15-15s-6.716-15-15-15zM21.625 8.5c1.036 0 1.875 1.259 1.875 2.813s-0.839 2.813-1.875 2.813-1.875-1.259-1.875-2.813 0.839-2.813 1.875-2.813zM11.313 10.142c1.747 0 2.988 0.654 2.988 1.678 0 0.217 0.112 1.26-0.005 1.453-0.434-0.72-1.606-1.236-2.983-1.236s-2.549 0.516-2.983 1.236c-0.117-0.193-0.005-1.236-0.005-1.453 0-1.024 1.241-1.678 2.988-1.678zM15.659 25.375c-3.493 0-6.558-1.883-8.288-4.715 2.063 1.613 5.699 1.928 9.53 1.171 4.109-0.812 7.298-2.682 8.451-5.174-0.634 4.921-4.732 8.718-9.693 8.718z"></path>
</svg>
