<?xml version="1.0" encoding="utf-8"?>
<!-- Generated by IcoMoon.io -->
<!DOCTYPE svg PUBLIC "-//W3C//DTD SVG 1.1//EN" "http://www.w3.org/Graphics/SVG/1.1/DTD/svg11.dtd">
<svg version="1.1" xmlns="http://www.w3.org/2000/svg" xmlns:xlink="http://www.w3.org/1999/xlink" width="32" height="32" viewBox="0 0 32 32">
<path d="M16 31c8.284 0 15-6.716 15-15s-6.716-15-15-15-15 6.716-15 15 6.716 15 15 15zM16 3.813c6.731 0 12.188 5.457 12.188 12.188s-5.457 12.188-12.188 12.188-12.188-5.457-12.188-12.188 5.457-12.188 12.188-12.188zM16.901 21.831c4.109-0.812 7.298-2.682 8.451-5.174-0.634 4.921-4.732 8.718-9.693 8.718-3.493 0-6.558-1.883-8.288-4.715 2.063 1.613 5.699 1.928 9.53 1.171zM19.75 11.313c0-1.553 0.839-2.813 1.875-2.813s1.875 1.259 1.875 2.813c0 1.553-0.839 2.813-1.875 2.813s-1.875-1.259-1.875-2.813zM11.313 11.884c-1.224 0-2.266 0.459-2.652 1.099-0.104-0.172-0.161-0.943-0.161-1.135 0-0.91 1.259-1.648 2.813-1.648s2.813 0.738 2.813 1.648c0 0.193-0.057 0.963-0.161 1.135-0.386-0.64-1.427-1.099-2.652-1.099z"></path>
</svg>
