<?xml version="1.0" encoding="utf-8"?>
<!-- Generated by IcoMoon.io -->
<!DOCTYPE svg PUBLIC "-//W3C//DTD SVG 1.1//EN" "http://www.w3.org/Graphics/SVG/1.1/DTD/svg11.dtd">
<svg version="1.1" xmlns="http://www.w3.org/2000/svg" xmlns:xlink="http://www.w3.org/1999/xlink" width="32" height="32" viewBox="0 0 32 32">
<path d="M4.75 16c0 4.337 2.588 8.085 6.341 9.861l-5.367-14.32c-0.624 1.363-0.974 2.871-0.974 4.459zM23.595 15.447c0-1.354-0.5-2.292-0.927-3.022-0.57-0.903-1.105-1.667-1.105-2.57 0-1.007 0.784-1.945 1.889-1.945 0.050 0 0.097 0.006 0.146 0.009-2.001-1.786-4.668-2.877-7.597-2.877-3.93 0-7.388 1.964-9.4 4.939 0.264 0.008 0.513 0.013 0.724 0.013 1.176 0 2.998-0.139 2.998-0.139 0.606-0.035 0.678 0.833 0.072 0.903 0 0-0.61 0.069-1.288 0.104l4.097 11.868 2.462-7.191-1.753-4.677c-0.606-0.035-1.18-0.104-1.18-0.104-0.607-0.035-0.535-0.938 0.071-0.903 0 0 1.857 0.139 2.963 0.139 1.176 0 2.999-0.139 2.999-0.139 0.607-0.035 0.678 0.833 0.072 0.903 0 0-0.61 0.069-1.288 0.104l4.066 11.778 1.122-3.651c0.486-1.516 0.856-2.604 0.856-3.542zM16.198 16.958l-3.376 9.552c1.008 0.289 2.074 0.446 3.178 0.446 1.31 0 2.567-0.22 3.736-0.621-0.030-0.047-0.058-0.097-0.081-0.151l-3.458-9.227zM25.872 10.743c0.048 0.349 0.076 0.723 0.076 1.127 0 1.111-0.214 2.361-0.856 3.924l-3.436 9.676c3.345-1.899 5.594-5.428 5.594-9.47 0-1.905-0.5-3.696-1.378-5.256zM16 1c-8.284 0-15 6.716-15 15s6.716 15 15 15 15-6.716 15-15-6.716-15-15-15zM16 29.125c-7.249 0-13.125-5.876-13.125-13.125s5.876-13.125 13.125-13.125 13.125 5.876 13.125 13.125-5.876 13.125-13.125 13.125z"></path>
</svg>
