<?xml version="1.0" encoding="utf-8"?>
<!-- Generated by IcoMoon.io -->
<!DOCTYPE svg PUBLIC "-//W3C//DTD SVG 1.1//EN" "http://www.w3.org/Graphics/SVG/1.1/DTD/svg11.dtd">
<svg version="1.1" xmlns="http://www.w3.org/2000/svg" xmlns:xlink="http://www.w3.org/1999/xlink" width="32" height="32" viewBox="0 0 32 32">
<path d="M30.179 24.795l-13.399-11.485c0.624-1.172 0.978-2.51 0.978-3.931 0-4.628-3.751-8.379-8.379-8.379-0.846 0-1.663 0.126-2.434 0.359l4.841 4.841c0.724 0.724 0.724 1.909 0 2.633l-2.953 2.953c-0.724 0.724-1.909 0.724-2.633 0l-4.841-4.841c-0.233 0.77-0.359 1.587-0.359 2.434 0 4.628 3.751 8.379 8.379 8.379 1.421 0 2.759-0.354 3.931-0.978l11.485 13.399c0.666 0.777 1.804 0.821 2.528 0.097l2.953-2.953c0.724-0.724 0.68-1.862-0.097-2.528z"></path>
</svg>
