<?xml version="1.0" encoding="utf-8"?>
<!-- Generated by IcoMoon.io -->
<!DOCTYPE svg PUBLIC "-//W3C//DTD SVG 1.1//EN" "http://www.w3.org/Graphics/SVG/1.1/DTD/svg11.dtd">
<svg version="1.1" xmlns="http://www.w3.org/2000/svg" xmlns:xlink="http://www.w3.org/1999/xlink" width="32" height="32" viewBox="0 0 32 32">
<path d="M28.188 1h-24.375c-1.547 0-2.813 1.266-2.813 2.813v24.375c0 1.547 1.266 2.813 2.813 2.813h24.375c1.547 0 2.813-1.266 2.813-2.813v-24.375c0-1.547-1.266-2.813-2.813-2.813zM10.158 20.512h-3.24c-0.193 0-0.34-0.088-0.422-0.223-0.088-0.141-0.088-0.316 0-0.498l3.445-6.082c0.006-0.006 0.006-0.012 0-0.018l-2.191-3.797c-0.088-0.182-0.105-0.357-0.018-0.498 0.082-0.135 0.246-0.205 0.445-0.205h3.246c0.498 0 0.744 0.322 0.902 0.609 0 0 2.215 3.867 2.232 3.891-0.129 0.234-3.504 6.193-3.504 6.193-0.176 0.305-0.41 0.627-0.896 0.627zM25.504 5.459l-7.184 12.703c-0.006 0.006-0.006 0.018 0 0.023l4.576 8.355c0.088 0.182 0.094 0.363 0.006 0.504-0.082 0.135-0.234 0.205-0.434 0.205h-3.24c-0.498 0-0.744-0.328-0.908-0.615 0 0-4.6-8.438-4.611-8.461 0.229-0.404 7.219-12.803 7.219-12.803 0.176-0.311 0.387-0.615 0.867-0.615h3.287c0.193 0 0.352 0.076 0.434 0.205 0.082 0.135 0.082 0.316-0.012 0.498z"></path>
</svg>
