<?xml version="1.0" encoding="utf-8"?>
<!-- Generated by IcoMoon.io -->
<!DOCTYPE svg PUBLIC "-//W3C//DTD SVG 1.1//EN" "http://www.w3.org/Graphics/SVG/1.1/DTD/svg11.dtd">
<svg version="1.1" xmlns="http://www.w3.org/2000/svg" xmlns:xlink="http://www.w3.org/1999/xlink" width="32" height="32" viewBox="0 0 32 32">
<path d="M5.561 6.923c-0.258 0-0.48 0.094-0.592 0.269-0.111 0.187-0.094 0.422 0.023 0.662l2.923 5.061c0.006 0.012 0.006 0.018 0 0.023l-4.593 8.12c-0.117 0.24-0.111 0.48 0 0.662 0.111 0.176 0.305 0.293 0.562 0.293h4.323c0.644 0 0.961-0.439 1.178-0.838 0 0 4.493-7.95 4.669-8.26-0.018-0.029-2.976-5.185-2.976-5.185-0.217-0.381-0.539-0.808-1.207-0.808h-4.312z"></path>
<path d="M23.733 1c-0.644 0-0.926 0.404-1.16 0.826 0 0-9.32 16.526-9.625 17.071 0.018 0.029 6.145 11.277 6.145 11.277 0.217 0.381 0.545 0.826 1.207 0.826h4.323c0.258 0 0.463-0.1 0.574-0.275 0.117-0.187 0.111-0.428-0.012-0.668l-6.093-11.148c-0.006-0.012-0.006-0.018 0-0.029l9.578-16.936c0.117-0.24 0.123-0.48 0.012-0.668-0.111-0.176-0.316-0.275-0.574-0.275h-4.376z"></path>
</svg>
