<?xml version="1.0" encoding="utf-8"?>
<!-- Generated by IcoMoon.io -->
<!DOCTYPE svg PUBLIC "-//W3C//DTD SVG 1.1//EN" "http://www.w3.org/Graphics/SVG/1.1/DTD/svg11.dtd">
<svg version="1.1" xmlns="http://www.w3.org/2000/svg" xmlns:xlink="http://www.w3.org/1999/xlink" width="32" height="32" viewBox="0 0 32 32">
<path d="M17.646 18.256v0c3.299-5.789 8.748-15.234 10.242-17.256-0.656 0.439-1.664 0.662-2.59 0.873l-1.4-0.873c-1.125 2.098-5.273 8.877-7.916 13.219-2.678-4.436-5.848-9.557-7.916-13.219-1.641 0.352-2.32 0.369-3.955 0v0 0c0 0 0 0 0 0v0c3.246 4.887 8.443 14.197 10.213 17.256v0l-0.24 12.744 1.898-0.873v-0.023l1.898 0.896-0.234-12.744z"></path>
</svg>
