<?xml version="1.0" encoding="utf-8"?>
<!-- Generated by IcoMoon.io -->
<!DOCTYPE svg PUBLIC "-//W3C//DTD SVG 1.1//EN" "http://www.w3.org/Graphics/SVG/1.1/DTD/svg11.dtd">
<svg version="1.1" xmlns="http://www.w3.org/2000/svg" xmlns:xlink="http://www.w3.org/1999/xlink" width="32" height="32" viewBox="0 0 32 32">
<path d="M16.035 3.039c-5.303 0-10.313-0.697-15.035-2.039 0 10.6 0 27.34 0 30 4.729-1.342 9.738-2.039 15.035-2.039 5.238 0 10.236 0.68 14.965 2.039 0-10.207 0-19.037 0-30-4.729 1.359-9.721 2.039-14.965 2.039zM24.344 5.6l-0.182 0.287c-0.17 0.27-0.322 0.498-0.533 0.82-0.281 0.422-0.809 1.26-1.441 2.338-0.176 0.299-0.393 0.656-0.615 1.043-0.428 0.721-0.908 1.535-1.289 2.18-0.158 0.275-0.316 0.557-0.48 0.838-0.422 0.732-0.855 1.488-1.271 2.215-0.428 0.756-0.85 1.5-1.271 2.238v0.744c0 1.031 0.023 2.156 0.059 3.158 0.018 0.457 0.035 1.271 0.059 2.133 0.023 1.025 0.047 2.086 0.076 2.625l0.006 0.164v0.018l-0.176-0.047c-0.070-0.018-0.135-0.035-0.205-0.053-0.211-0.047-0.439-0.082-0.662-0.105-0.135-0.012-0.275-0.018-0.416-0.018 0 0 0 0 0 0s0 0 0 0c-0.141 0-0.281 0.006-0.416 0.018-0.223 0.023-0.451 0.059-0.662 0.105-0.070 0.018-0.141 0.035-0.205 0.053l-0.176 0.047v-0.018l0.006-0.164c0.023-0.533 0.053-1.6 0.076-2.625 0.018-0.861 0.041-1.676 0.059-2.133 0.041-1.008 0.059-2.127 0.059-3.158v-0.744c-0.422-0.744-0.844-1.482-1.271-2.238-0.416-0.732-0.85-1.482-1.266-2.215-0.164-0.281-0.322-0.563-0.48-0.838-0.375-0.65-0.861-1.465-1.289-2.18-0.229-0.381-0.445-0.744-0.615-1.043-0.633-1.078-1.16-1.91-1.441-2.338-0.211-0.322-0.363-0.551-0.533-0.82l-0.182-0.287 0.328 0.094c0.416 0.117 0.844 0.176 1.301 0.176s0.896-0.059 1.307-0.176l0.1-0.029 0.053 0.088c0.809 1.459 2.982 5.033 4.283 7.172 0.445 0.738 0.803 1.318 0.979 1.617 0 0 0 0 0-0.006 0 0 0 0 0 0.006 0.176-0.293 0.533-0.879 0.979-1.617 1.301-2.133 3.475-5.707 4.283-7.172l0.053-0.088 0.1 0.029c0.41 0.117 0.85 0.176 1.307 0.176s0.885-0.059 1.301-0.176l0.311-0.094z"></path>
</svg>
