<?xml version="1.0" encoding="utf-8"?>
<!-- Generated by IcoMoon.io -->
<!DOCTYPE svg PUBLIC "-//W3C//DTD SVG 1.1//EN" "http://www.w3.org/Graphics/SVG/1.1/DTD/svg11.dtd">
<svg version="1.1" xmlns="http://www.w3.org/2000/svg" xmlns:xlink="http://www.w3.org/1999/xlink" width="32" height="32" viewBox="0 0 32 32">
<path d="M18.807 20.175c-0.502 0.506-0.077 1.426-0.077 1.426l3.776 6.305c0 0 0.62 0.831 1.157 0.831 0.54 0 1.073-0.443 1.073-0.443l2.985-4.267c0 0 0.301-0.538 0.308-1.010 0.011-0.671-1-0.854-1-0.854l-7.067-2.269c-0 0-0.692-0.184-1.153 0.282zM18.448 16.997c0.362 0.613 1.359 0.435 1.359 0.435l7.051-2.061c0 0 0.961-0.391 1.098-0.912 0.135-0.521-0.158-1.15-0.158-1.15l-3.37-3.969c0 0-0.292-0.502-0.898-0.552-0.668-0.057-1.079 0.752-1.079 0.752l-3.984 6.269c0 0-0.352 0.624-0.019 1.189zM15.117 14.553c0.83-0.204 0.962-1.411 0.962-1.411l-0.056-10.039c0 0-0.125-1.238-0.682-1.574-0.873-0.529-1.131-0.253-1.381-0.216l-5.854 2.175c0 0-0.573 0.19-0.872 0.668-0.426 0.678 0.433 1.67 0.433 1.67l6.085 8.294c0 0 0.601 0.621 1.365 0.432zM13.671 18.615c0.021-0.774-0.93-1.239-0.93-1.239l-6.292-3.179c0 0-0.932-0.384-1.385-0.117-0.347 0.205-0.654 0.576-0.684 0.904l-0.41 5.045c0 0-0.061 0.874 0.165 1.272 0.321 0.564 1.377 0.171 1.377 0.171l7.346-1.624c0.285-0.192 0.786-0.209 0.813-1.233zM15.498 21.338c-0.631-0.324-1.385 0.347-1.385 0.347l-4.919 5.415c0 0-0.614 0.828-0.458 1.337 0.147 0.477 0.39 0.713 0.735 0.88l4.94 1.559c0 0 0.599 0.124 1.052-0.007 0.644-0.187 0.525-1.194 0.525-1.194l0.112-7.332c-0 0-0.025-0.706-0.602-1.005z"></path>
</svg>
