<?xml version="1.0" encoding="utf-8"?>
<!-- Generated by IcoMoon.io -->
<!DOCTYPE svg PUBLIC "-//W3C//DTD SVG 1.1//EN" "http://www.w3.org/Graphics/SVG/1.1/DTD/svg11.dtd">
<svg version="1.1" xmlns="http://www.w3.org/2000/svg" xmlns:xlink="http://www.w3.org/1999/xlink" width="32" height="32" viewBox="0 0 32 32">
<path d="M6.208 12.391c0.002-0.009 0.004-0.016 0.004-0.019l0.011-0.080-0.501-0.003c-0.453-0.003-0.592 0-0.604 0.011-0.006 0.005-0.162 0.6-0.441 1.676-0.133 0.513-0.245 0.924-0.249 0.911s-0.163-0.598-0.354-1.302c-0.191-0.704-0.351-1.284-0.355-1.289-0.007-0.007-0.614-0.010-1.106-0.005-0.071 0.001-0.111-0.139 0.636 2.236 0.103 0.329 0.258 0.794 0.344 1.034 0.099 0.277 0.169 0.491 0.217 0.669 0.085 0.34 0.088 0.552 0.070 0.801-0.021 0.287-0.025 2.313-0.004 2.347 0.016 0.026 0.966 0.038 1.056 0.013 0.014-0.004 0.024-0.018 0.030-0.095 0.022-0.066 0.024-0.328 0.024-1.416v-1.39l0.061-0.192c0.040-0.125 0.14-0.455 0.222-0.733s0.182-0.61 0.222-0.739c0.358-1.168 0.7-2.318 0.71-2.383l0.007-0.054z"></path>
<path d="M11.525 14.077l-0 0.072-0.011 0-0.006 2.002-0.006 1.941-0.155 0.158c-0.174 0.177-0.313 0.245-0.439 0.213-0.137-0.034-0.134 0.019-0.145-2.275l-0.011-2.111h-0.999v0.073h-0.011v2.291c0 2.454-0 2.453 0.124 2.699 0.099 0.196 0.244 0.292 0.491 0.325h0c0.326 0.043 0.678-0.104 1.004-0.422l0.142-0.138v0.238c0 0.205 0.006 0.239 0.043 0.25 0.061 0.017 0.817 0.018 0.899 0.001l0.068-0.014v-0.070l0.011-0.002v-5.243l-0.998 0.013z"></path>
<path d="M8.992 15.112c-0.095-0.406-0.272-0.679-0.564-0.868-0.458-0.297-0.982-0.328-1.468-0.088-0.354 0.175-0.582 0.465-0.7 0.89-0.014 0.051-0.024 0.093-0.032 0.157-0.030 0.15-0.034 0.374-0.041 1.419-0.012 1.609 0.007 1.8 0.208 2.166 0.198 0.358 0.608 0.621 1.055 0.675 0.134 0.016 0.407-0.009 0.564-0.053 0.356-0.099 0.698-0.38 0.848-0.7 0.065-0.138 0.105-0.234 0.128-0.409 0.044-0.24 0.047-0.627 0.047-1.614-0-1.259-0.004-1.396-0.046-1.576zM7.853 18.391c-0.084 0.064-0.23 0.092-0.349 0.066-0.092-0.020-0.215-0.163-0.253-0.294-0.047-0.163-0.051-2.436-0.010-2.881 0.068-0.223 0.256-0.339 0.462-0.284 0.161 0.043 0.243 0.144 0.29 0.354 0.035 0.156 0.039 0.351 0.031 1.496-0.005 0.759-0.008 1.13-0.032 1.33-0.025 0.126-0.067 0.159-0.138 0.213z"></path>
<path d="M26.927 16.254h0.483l-0.008-0.437c-0.007-0.401-0.013-0.447-0.067-0.556-0.085-0.172-0.209-0.248-0.407-0.248-0.238 0-0.388 0.115-0.459 0.351-0.030 0.1-0.062 0.791-0.039 0.85 0.013 0.033 0.082 0.039 0.498 0.039z"></path>
<path d="M23.701 15.259c-0.064-0.13-0.184-0.194-0.323-0.189-0.108 0.004-0.228 0.050-0.344 0.138l-0.086 0.065v3.141l0.086 0.065c0.195 0.149 0.41 0.18 0.557 0.082 0.058-0.039 0.097-0.093 0.126-0.179 0.039-0.111 0.042-0.254 0.037-1.576-0.005-1.377-0.008-1.458-0.053-1.549z"></path>
<path d="M29.686 13.844c-0.096-1.153-0.173-1.527-0.41-2.007-0.315-0.636-0.77-0.972-1.418-1.046-0.501-0.057-2.386-0.137-4.131-0.176-3.020-0.067-7.986 0.062-8.62 0.224-0.293 0.075-0.513 0.202-0.742 0.43-0.401 0.399-0.64 0.971-0.736 1.762-0.219 1.807-0.224 3.99-0.013 5.862 0.091 0.805 0.278 1.329 0.629 1.76 0.219 0.269 0.597 0.498 0.935 0.566 0.237 0.048 1.424 0.114 3.152 0.177 0.257 0.009 0.939 0.025 1.515 0.035 1.2 0.021 3.406 0.009 4.668-0.027 0.849-0.024 2.396-0.087 2.685-0.109 0.081-0.006 0.27-0.018 0.419-0.027 0.501-0.028 0.819-0.133 1.118-0.368 0.387-0.304 0.687-0.866 0.814-1.525 0.12-0.624 0.2-1.734 0.216-2.996 0.014-1.054-0.005-1.622-0.081-2.535zM17.659 13.426l-0.561 0.007-0.025 5.985-0.486 0.006c-0.376 0.005-0.49-0-0.5-0.025-0.007-0.017-0.014-1.366-0.018-2.999l-0.006-2.968-1.096-0.014v-0.935l3.239 0.013 0.014 0.922-0.561 0.007zM21.1 16.857v2.574h-0.887v-0.271c0-0.204-0.008-0.271-0.032-0.271-0.017 0-0.098 0.067-0.179 0.149-0.175 0.178-0.383 0.322-0.56 0.388-0.367 0.137-0.716 0.057-0.864-0.199-0.136-0.234-0.139-0.287-0.139-2.715v-2.23h0.886l0.007 2.1c0.007 2.063 0.008 2.101 0.057 2.185 0.065 0.111 0.165 0.141 0.324 0.098 0.093-0.026 0.157-0.071 0.309-0.222l0.191-0.19v-3.971h0.887v2.574zM24.559 19.063c-0.078 0.174-0.252 0.344-0.395 0.386-0.372 0.11-0.671 0.020-1.016-0.304-0.107-0.101-0.207-0.182-0.222-0.182-0.018 0-0.028 0.079-0.028 0.234v0.234h-0.887v-6.946h0.887v1.133c0 0.623 0.008 1.133 0.018 1.133s0.104-0.083 0.208-0.183c0.24-0.231 0.44-0.333 0.694-0.352 0.453-0.034 0.724 0.199 0.847 0.732 0.039 0.166 0.042 0.356 0.042 1.897-0 1.876-0 1.884-0.15 2.218zM28.31 18.033c-0.008 0.193-0.031 0.414-0.052 0.493-0.123 0.457-0.452 0.781-0.926 0.914-0.639 0.179-1.342-0.114-1.623-0.676-0.158-0.315-0.163-0.378-0.163-1.919 0-1.256 0.004-1.41 0.045-1.582 0.114-0.485 0.396-0.799 0.874-0.973 0.138-0.050 0.283-0.076 0.427-0.079 0.515-0.011 1.027 0.267 1.242 0.718 0.145 0.305 0.163 0.435 0.177 1.293l0.013 0.77-1.89 0.013-0.007 0.517c-0.010 0.73 0.039 0.954 0.236 1.087 0.166 0.112 0.42 0.103 0.559-0.018 0.13-0.114 0.167-0.237 0.179-0.594l0.012-0.314h0.913l-0.015 0.351z"></path>
</svg>
