<?xml version="1.0" encoding="utf-8"?>
<!-- Generated by IcoMoon.io -->
<!DOCTYPE svg PUBLIC "-//W3C//DTD SVG 1.1//EN" "http://www.w3.org/Graphics/SVG/1.1/DTD/svg11.dtd">
<svg version="1.1" xmlns="http://www.w3.org/2000/svg" xmlns:xlink="http://www.w3.org/1999/xlink" width="32" height="32" viewBox="0 0 32 32">
<path d="M30.282 10.172c0 0-0.285-2.010-1.162-2.893-1.11-1.162-2.352-1.167-2.921-1.236-4.077-0.296-10.199-0.296-10.199-0.296h-0.011c0 0-6.122 0-10.199 0.296-0.569 0.068-1.811 0.074-2.921 1.236-0.877 0.883-1.156 2.893-1.156 2.893s-0.29 2.358-0.29 4.721v2.209c0 2.358 0.29 4.721 0.29 4.721s0.285 2.010 1.156 2.893c1.11 1.162 2.568 1.122 3.217 1.247 2.335 0.222 9.914 0.29 9.914 0.29s6.127-0.011 10.205-0.302c0.569-0.068 1.811-0.074 2.921-1.236 0.877-0.883 1.162-2.893 1.162-2.893s0.29-2.358 0.29-4.721v-2.21c-0.006-2.358-0.296-4.721-0.296-4.721zM12.982 19.784v-8.195l7.876 4.111-7.876 4.083z"></path>
</svg>
