<?xml version="1.0" encoding="utf-8"?>
<!-- Generated by IcoMoon.io -->
<!DOCTYPE svg PUBLIC "-//W3C//DTD SVG 1.1//EN" "http://www.w3.org/Graphics/SVG/1.1/DTD/svg11.dtd">
<svg version="1.1" xmlns="http://www.w3.org/2000/svg" xmlns:xlink="http://www.w3.org/1999/xlink" width="32" height="32" viewBox="0 0 32 32">
<path d="M29.766 26.262l-7.032-5.981c-0.727-0.654-1.504-0.955-2.132-0.926 1.66-1.944 2.663-4.467 2.663-7.224 0-6.148-4.984-11.132-11.132-11.132s-11.132 4.984-11.132 11.132 4.984 11.132 11.132 11.132c2.757 0 5.279-1.003 7.224-2.663-0.029 0.628 0.271 1.405 0.926 2.132l5.981 7.032c1.024 1.138 2.697 1.234 3.717 0.213s0.925-2.693-0.213-3.717zM12.132 19.554c-4.099 0-7.422-3.323-7.422-7.422s3.323-7.422 7.422-7.422 7.422 3.323 7.422 7.422-3.323 7.422-7.422 7.422zM13.988 6.566h-3.711v3.711h-3.711v3.711h3.711v3.711h3.711v-3.711h3.711v-3.711h-3.711z"></path>
</svg>
