<?xml version="1.0" encoding="utf-8"?>
<!-- Generated by IcoMoon.io -->
<!DOCTYPE svg PUBLIC "-//W3C//DTD SVG 1.1//EN" "http://www.w3.org/Graphics/SVG/1.1/DTD/svg11.dtd">
<svg version="1.1" xmlns="http://www.w3.org/2000/svg" xmlns:xlink="http://www.w3.org/1999/xlink" width="32" height="32" viewBox="0 0 32 32">
<path d="M28.444 19.556h-1.778v-7.111c0-5.891-4.776-10.667-10.667-10.667s-10.667 4.776-10.667 10.667v7.111h-1.778c-0.982 0-1.778 0.796-1.778 1.778s0.796 1.778 1.778 1.778h24.889c0.982 0 1.778-0.796 1.778-1.778s-0.796-1.778-1.778-1.778zM23.111 19.556h-14.222v-7.111c0-3.921 3.19-7.111 7.111-7.111s7.111 3.19 7.111 7.111v7.111z"></path>
<path d="M12.444 26.667c0 1.964 1.592 3.556 3.556 3.556s3.556-1.592 3.556-3.556v-1.778h-7.111v1.778z"></path>
</svg>
