<?xml version="1.0" encoding="utf-8"?>
<!-- Generated by IcoMoon.io -->
<!DOCTYPE svg PUBLIC "-//W3C//DTD SVG 1.1//EN" "http://www.w3.org/Graphics/SVG/1.1/DTD/svg11.dtd">
<svg version="1.1" xmlns="http://www.w3.org/2000/svg" xmlns:xlink="http://www.w3.org/1999/xlink" width="32" height="32" viewBox="0 0 32 32">
<path d="M24.889 1.778h-17.778c-0.982 0-1.778 0.796-1.778 1.778v24.886c0 1.045 0.859 1.78 1.783 1.78 0.33 0 0.67-0.094 0.981-0.301l7.323-6.31c0.333-0.287 0.826-0.287 1.16 0l7.323 6.31c0.311 0.207 0.65 0.301 0.981 0.301 0.924 0 1.783-0.735 1.783-1.78v-24.886c0-0.982-0.796-1.778-1.778-1.778zM23.111 24.545l-6.531-5.628c-0.333-0.287-0.826-0.287-1.16 0l-6.531 5.628v-18.323c0-0.491 0.398-0.889 0.889-0.889h12.444c0.491 0 0.889 0.398 0.889 0.889v18.323z"></path>
</svg>
