<?xml version="1.0" encoding="utf-8"?>
<!-- Generated by IcoMoon.io -->
<!DOCTYPE svg PUBLIC "-//W3C//DTD SVG 1.1//EN" "http://www.w3.org/Graphics/SVG/1.1/DTD/svg11.dtd">
<svg version="1.1" xmlns="http://www.w3.org/2000/svg" xmlns:xlink="http://www.w3.org/1999/xlink" width="32" height="32" viewBox="0 0 32 32">
<path d="M26.667 1.778h-19.556c-1.964 0-3.556 1.592-3.556 3.556v21.333c0 1.964 1.592 3.556 3.556 3.556h19.556c0.982 0 1.778-0.796 1.778-1.778v-24.889c0-0.982-0.796-1.778-1.778-1.778zM24.889 25.778c0 0.491-0.398 0.889-0.889 0.889h-15.128c-0.972 0-1.76-0.788-1.76-1.76v-0.036c0-0.972 0.788-1.76 1.76-1.76h15.128c0.491 0 0.889 0.398 0.889 0.889v1.778zM24.889 18.722c0 0.491-0.398 0.889-0.889 0.889h-12.444c-0.491 0-0.889-0.398-0.889-0.889v-12.5c0-0.491 0.398-0.889 0.889-0.889h12.444c0.491 0 0.889 0.398 0.889 0.889v12.5z"></path>
<path d="M20.444 8.889h-5.333c-0.491 0-0.889 0.398-0.889 0.889v1.778c0 0.491 0.398 0.889 0.889 0.889h5.333c0.491 0 0.889-0.398 0.889-0.889v-1.778c0-0.491-0.398-0.889-0.889-0.889z"></path>
</svg>
