<?xml version="1.0" encoding="utf-8"?>
<!-- Generated by IcoMoon.io -->
<!DOCTYPE svg PUBLIC "-//W3C//DTD SVG 1.1//EN" "http://www.w3.org/Graphics/SVG/1.1/DTD/svg11.dtd">
<svg version="1.1" xmlns="http://www.w3.org/2000/svg" xmlns:xlink="http://www.w3.org/1999/xlink" width="32" height="32" viewBox="0 0 32 32">
<path d="M24.889 3.556c0-0.982-0.796-1.778-1.778-1.778h-14.222c-0.982 0-1.778 0.796-1.778 1.778l-7.111 12.444v12.444c0 0.982 0.796 1.778 1.778 1.778h28.444c0.982 0 1.778-0.796 1.778-1.778v-12.444l-7.111-12.444zM10.191 5.333h11.618l5.080 8.889h-6.444c-0.491 0-0.889 0.398-0.889 0.889v0.73c0 1.856-1.353 3.516-3.2 3.697-2.119 0.207-3.911-1.461-3.911-3.538v-0.889c0-0.491-0.398-0.889-0.889-0.889h-6.444l5.080-8.889zM28.444 25.778c0 0.491-0.398 0.889-0.889 0.889h-23.111c-0.491 0-0.889-0.398-0.889-0.889v-8h5.566c0.791 3.066 3.566 5.333 6.878 5.333s6.088-2.268 6.878-5.333h5.566v8z"></path>
</svg>
