<?xml version="1.0" encoding="utf-8"?>
<!-- Generated by IcoMoon.io -->
<!DOCTYPE svg PUBLIC "-//W3C//DTD SVG 1.1//EN" "http://www.w3.org/Graphics/SVG/1.1/DTD/svg11.dtd">
<svg version="1.1" xmlns="http://www.w3.org/2000/svg" xmlns:xlink="http://www.w3.org/1999/xlink" width="32" height="32" viewBox="0 0 32 32">
<path d="M20.444 19.556h-2.667v-6.222c0-0.491-0.398-0.889-0.889-0.889h-5.333c-0.491 0-0.889 0.398-0.889 0.889v1.778c0 0.491 0.398 0.889 0.889 0.889h2.667v3.556h-2.667c-0.491 0-0.889 0.398-0.889 0.889v1.778c0 0.491 0.398 0.889 0.889 0.889h8.889c0.491 0 0.889-0.398 0.889-0.889v-1.778c0-0.491-0.398-0.889-0.889-0.889zM28.444 1.778h-24.889c-0.982 0-1.778 0.796-1.778 1.778v24.889c0 0.982 0.796 1.778 1.778 1.778h24.889c0.982 0 1.778-0.796 1.778-1.778v-24.889c0-0.982-0.796-1.778-1.778-1.778zM26.667 25.778c0 0.491-0.398 0.889-0.889 0.889h-19.556c-0.491 0-0.889-0.398-0.889-0.889v-16c0-0.491 0.398-0.889 0.889-0.889h19.556c0.491 0 0.889 0.398 0.889 0.889v16z"></path>
</svg>
