<?xml version="1.0" encoding="utf-8"?>
<!-- Generated by IcoMoon.io -->
<!DOCTYPE svg PUBLIC "-//W3C//DTD SVG 1.1//EN" "http://www.w3.org/Graphics/SVG/1.1/DTD/svg11.dtd">
<svg version="1.1" xmlns="http://www.w3.org/2000/svg" xmlns:xlink="http://www.w3.org/1999/xlink" width="32" height="32" viewBox="0 0 32 32">
<path d="M30.222 7.111h-7.111l-3.035-3.035c-0.333-0.333-0.786-0.521-1.257-0.521h-5.639c-0.471 0-0.924 0.188-1.257 0.521l-3.035 3.035h-7.111c-0.982 0-1.778 0.796-1.778 1.778v17.778c0 0.982 0.796 1.778 1.778 1.778h3.556c0.982 0 1.778-0.796 1.778-1.778s-0.796-1.778-1.778-1.778h-0.889c-0.491 0-0.889-0.398-0.889-0.889v-12.444c0-0.491 0.398-0.889 0.889-0.889h5.918l3.556-3.556h4.165l3.555 3.556h5.918c0.491 0 0.889 0.398 0.889 0.889v12.444c0 0.491-0.398 0.889-0.889 0.889h-0.889c-0.982 0-1.778 0.796-1.778 1.778 0 0.973 0.781 1.76 1.751 1.775l-0.001 0.003h3.583c0.982 0 1.778-0.796 1.778-1.778v-17.778c0-0.982-0.796-1.778-1.778-1.778z"></path>
<path d="M16 16c1.961 0 3.556 1.595 3.556 3.556s-1.595 3.556-3.556 3.556-3.556-1.595-3.556-3.556 1.595-3.556 3.556-3.556zM16 12.444c-3.927 0-7.111 3.184-7.111 7.111s3.184 7.111 7.111 7.111 7.111-3.184 7.111-7.111-3.184-7.111-7.111-7.111v0z"></path>
</svg>
