<?xml version="1.0" encoding="utf-8"?>
<!-- Generated by IcoMoon.io -->
<!DOCTYPE svg PUBLIC "-//W3C//DTD SVG 1.1//EN" "http://www.w3.org/Graphics/SVG/1.1/DTD/svg11.dtd">
<svg version="1.1" xmlns="http://www.w3.org/2000/svg" xmlns:xlink="http://www.w3.org/1999/xlink" width="32" height="32" viewBox="0 0 32 32">
<path d="M25.443 16c1.235 0 2.309-0.849 2.594-2.051l2.099-8.858c0.421-1.683-0.852-3.313-2.586-3.313h-23.99c-0.981 0-1.777 0.796-1.777 1.778s0.796 1.778 1.777 1.778h1.778v15.111c0 1.473 1.194 2.667 2.665 2.667h18.66c0.982 0 1.777-0.796 1.777-1.778s-0.795-1.778-1.777-1.778h-17.771v-3.556h16.551zM8.892 5.333h17.534l-1.685 7.111h-15.849v-7.111zM9.781 24.889c-1.472 0-2.666 1.194-2.666 2.667s1.194 2.667 2.666 2.667 2.666-1.194 2.666-2.667-1.194-2.667-2.666-2.667zM23.997 24.889c-1.472 0-2.665 1.194-2.665 2.667s1.193 2.667 2.665 2.667 2.666-1.194 2.666-2.667-1.194-2.667-2.666-2.667z"></path>
</svg>
