<?xml version="1.0" encoding="utf-8"?>
<!-- Generated by IcoMoon.io -->
<!DOCTYPE svg PUBLIC "-//W3C//DTD SVG 1.1//EN" "http://www.w3.org/Graphics/SVG/1.1/DTD/svg11.dtd">
<svg version="1.1" xmlns="http://www.w3.org/2000/svg" xmlns:xlink="http://www.w3.org/1999/xlink" width="32" height="32" viewBox="0 0 32 32">
<path d="M5.333 26.667v-24.889h-3.556v26.667c0 0.982 0.796 1.778 1.778 1.778h26.667v-3.556h-24.889z"></path>
<path d="M9.778 23.111h1.778c0.491 0 0.889-0.398 0.889-0.889v-8.889c0-0.491-0.398-0.889-0.889-0.889h-1.778c-0.491 0-0.889 0.398-0.889 0.889v8.889c0 0.491 0.398 0.889 0.889 0.889z"></path>
<path d="M15.111 23.111h1.778c0.491 0 0.889-0.398 0.889-0.889v-16c0-0.491-0.398-0.889-0.889-0.889h-1.778c-0.491 0-0.889 0.398-0.889 0.889v16c0 0.491 0.398 0.889 0.889 0.889z"></path>
<path d="M20.444 23.111h1.778c0.491 0 0.889-0.398 0.889-0.889v-5.333c0-0.491-0.398-0.889-0.889-0.889h-1.778c-0.491 0-0.889 0.398-0.889 0.889v5.333c0 0.491 0.398 0.889 0.889 0.889z"></path>
<path d="M25.778 23.111h1.778c0.491 0 0.889-0.398 0.889-0.889v-12.444c0-0.491-0.398-0.889-0.889-0.889h-1.778c-0.491 0-0.889 0.398-0.889 0.889v12.444c0 0.491 0.398 0.889 0.889 0.889z"></path>
</svg>
