<?xml version="1.0" encoding="utf-8"?>
<!-- Generated by IcoMoon.io -->
<!DOCTYPE svg PUBLIC "-//W3C//DTD SVG 1.1//EN" "http://www.w3.org/Graphics/SVG/1.1/DTD/svg11.dtd">
<svg version="1.1" xmlns="http://www.w3.org/2000/svg" xmlns:xlink="http://www.w3.org/1999/xlink" width="32" height="32" viewBox="0 0 32 32">
<path d="M19.556 8.889c4.082 0 7.372 3.457 7.095 7.598-0.253 3.775-3.562 6.624-7.346 6.624h-10.258c-1.856 0-3.516-1.353-3.696-3.2-0.207-2.119 1.46-3.911 3.538-3.911 0.104 0 0.207 0.010 0.307 0.018l1.373 0.117c0.807 0.069 1.559-0.418 1.828-1.183l0.455-1.3c0.999-2.849 3.693-4.763 6.703-4.763zM19.556 5.333c-4.654 0-8.601 2.986-10.058 7.142-0.2-0.017-0.403-0.031-0.608-0.031-3.927 0-7.111 3.184-7.111 7.111s3.184 7.111 7.111 7.111h10.667c5.891 0 10.667-4.776 10.667-10.667s-4.776-10.667-10.667-10.667v0z"></path>
</svg>
