<?xml version="1.0" encoding="utf-8"?>
<!-- Generated by IcoMoon.io -->
<!DOCTYPE svg PUBLIC "-//W3C//DTD SVG 1.1//EN" "http://www.w3.org/Graphics/SVG/1.1/DTD/svg11.dtd">
<svg version="1.1" xmlns="http://www.w3.org/2000/svg" xmlns:xlink="http://www.w3.org/1999/xlink" width="32" height="32" viewBox="0 0 32 32">
<path d="M28.737 13.974l-2.356-0.392c-0.272-1.168-0.734-2.261-1.354-3.247l1.312-1.837c0.5-0.7 0.421-1.66-0.188-2.269l-0.381-0.381c-0.608-0.609-1.568-0.688-2.268-0.188l-1.837 1.312c-0.986-0.62-2.078-1.083-3.247-1.355l-0.393-2.355c-0.142-0.857-0.885-1.486-1.753-1.486h-0.543c-0.869 0-1.611 0.628-1.753 1.486l-0.393 2.355c-1.168 0.271-2.26 0.734-3.247 1.355l-1.837-1.312c-0.7-0.5-1.66-0.421-2.268 0.188l-0.381 0.381c-0.609 0.609-0.688 1.568-0.188 2.269l1.312 1.837c-0.62 0.986-1.082 2.079-1.354 3.247l-2.356 0.392c-0.857 0.143-1.485 0.885-1.485 1.754v0.543c0 0.869 0.628 1.611 1.485 1.753l2.356 0.393c0.272 1.168 0.734 2.261 1.354 3.247l-1.312 1.837c-0.5 0.701-0.421 1.66 0.188 2.269l0.381 0.381c0.609 0.608 1.568 0.688 2.268 0.188l1.837-1.312c0.986 0.62 2.078 1.083 3.247 1.355l0.393 2.355c0.142 0.857 0.885 1.486 1.753 1.486h0.543c0.869 0 1.611-0.628 1.753-1.486l0.393-2.355c1.168-0.271 2.26-0.734 3.247-1.355l1.837 1.312c0.701 0.5 1.66 0.421 2.268-0.188l0.381-0.381c0.608-0.609 0.688-1.568 0.188-2.269l-1.312-1.837c0.62-0.986 1.082-2.079 1.354-3.247l2.356-0.393c0.857-0.143 1.485-0.885 1.485-1.753v-0.543c0-0.869-0.628-1.611-1.485-1.754zM16 21.333c-2.945 0-5.333-2.388-5.333-5.333s2.388-5.333 5.333-5.333 5.333 2.388 5.333 5.333-2.388 5.333-5.333 5.333z"></path>
</svg>
