<?xml version="1.0" encoding="utf-8"?>
<!-- Generated by IcoMoon.io -->
<!DOCTYPE svg PUBLIC "-//W3C//DTD SVG 1.1//EN" "http://www.w3.org/Graphics/SVG/1.1/DTD/svg11.dtd">
<svg version="1.1" xmlns="http://www.w3.org/2000/svg" xmlns:xlink="http://www.w3.org/1999/xlink" width="32" height="32" viewBox="0 0 32 32">
<path d="M16 1.778c-7.855 0-14.222 6.367-14.222 14.222s6.367 14.222 14.222 14.222 14.222-6.367 14.222-14.222-6.367-14.222-14.222-14.222zM16 26.667c-5.882 0-10.667-4.785-10.667-10.667s4.785-10.667 10.667-10.667 10.667 4.785 10.667 10.667-4.785 10.667-10.667 10.667z"></path>
<path d="M20.839 11.186l-0.024-0.024c-0.66-0.66-1.729-0.66-2.389 0l-2.425 2.425-2.425-2.425c-0.66-0.66-1.729-0.66-2.389 0l-0.024 0.024c-0.66 0.66-0.66 1.729 0 2.389l2.425 2.425-2.425 2.425c-0.66 0.66-0.66 1.729 0 2.389l0.024 0.024c0.66 0.66 1.729 0.66 2.389 0l2.425-2.425 2.425 2.425c0.66 0.66 1.729 0.66 2.389 0l0.024-0.024c0.66-0.66 0.66-1.729 0-2.389l-2.425-2.425 2.425-2.425c0.66-0.66 0.66-1.729 0-2.389z"></path>
</svg>
