<?xml version="1.0" encoding="utf-8"?>
<!-- Generated by IcoMoon.io -->
<!DOCTYPE svg PUBLIC "-//W3C//DTD SVG 1.1//EN" "http://www.w3.org/Graphics/SVG/1.1/DTD/svg11.dtd">
<svg version="1.1" xmlns="http://www.w3.org/2000/svg" xmlns:xlink="http://www.w3.org/1999/xlink" width="32" height="32" viewBox="0 0 32 32">
<path d="M16 1.778c-8.837 0-16 7.163-16 16 0 0.982 0.796 1.778 1.778 1.778s1.778-0.796 1.778-1.778c0-6.862 5.582-12.444 12.444-12.444s12.444 5.582 12.444 12.444c0 0.982 0.796 1.778 1.778 1.778s1.778-0.796 1.778-1.778c0-8.837-7.163-16-16-16z"></path>
<path d="M17.778 16.224v-5.557c0-0.982-0.796-1.778-1.778-1.778s-1.778 0.796-1.778 1.778v5.557c-3.067 0.79-5.333 3.574-5.333 6.887 0 3.927 3.184 7.111 7.111 7.111s7.111-3.184 7.111-7.111c0-3.313-2.266-6.098-5.333-6.887zM16 26.667c-1.96 0-3.556-1.595-3.556-3.556s1.595-3.556 3.556-3.556 3.556 1.595 3.556 3.556-1.596 3.556-3.556 3.556z"></path>
</svg>
