<?xml version="1.0" encoding="utf-8"?>
<!-- Generated by IcoMoon.io -->
<!DOCTYPE svg PUBLIC "-//W3C//DTD SVG 1.1//EN" "http://www.w3.org/Graphics/SVG/1.1/DTD/svg11.dtd">
<svg version="1.1" xmlns="http://www.w3.org/2000/svg" xmlns:xlink="http://www.w3.org/1999/xlink" width="32" height="32" viewBox="0 0 32 32">
<path d="M16 3.556c-5.8 0-11.6 4.148-16 12.444 4.4 8.296 10.2 12.444 16 12.444s11.6-4.148 16-12.444c-4.4-8.296-10.2-12.444-16-12.444zM16 24.889c-4.218 0-8.497-3.214-11.917-8.889 3.42-5.675 7.699-8.889 11.917-8.889s8.497 3.214 11.917 8.889c-3.42 5.675-7.699 8.889-11.917 8.889z"></path>
<path d="M19.556 16c0 1.964-1.592 3.556-3.556 3.556s-3.556-1.592-3.556-3.556 1.592-3.556 3.556-3.556 3.556 1.592 3.556 3.556z"></path>
</svg>
