<?xml version="1.0" encoding="utf-8"?>
<!-- Generated by IcoMoon.io -->
<!DOCTYPE svg PUBLIC "-//W3C//DTD SVG 1.1//EN" "http://www.w3.org/Graphics/SVG/1.1/DTD/svg11.dtd">
<svg version="1.1" xmlns="http://www.w3.org/2000/svg" xmlns:xlink="http://www.w3.org/1999/xlink" width="32" height="32" viewBox="0 0 32 32">
<path d="M30.222 3.556h-28.444c-0.982 0-1.778 0.796-1.778 1.778v21.333c0 0.982 0.796 1.778 1.778 1.778h28.444c0.982 0 1.778-0.796 1.778-1.778v-21.333c0-0.982-0.796-1.778-1.778-1.778zM3.556 7.111h3.556v3.556h-3.556v-3.556zM3.556 14.222h3.556v3.556h-3.556v-3.556zM3.556 24.889v-3.556h3.556v3.556h-3.556zM10.667 24.889v-17.778h10.667v17.778h-10.667zM28.444 24.889h-3.556v-3.556h3.556v3.556zM28.444 17.778h-3.556v-3.556h3.556v3.556zM28.444 10.667h-3.556v-3.556h3.556v3.556z"></path>
</svg>
