<?xml version="1.0" encoding="utf-8"?>
<!-- Generated by IcoMoon.io -->
<!DOCTYPE svg PUBLIC "-//W3C//DTD SVG 1.1//EN" "http://www.w3.org/Graphics/SVG/1.1/DTD/svg11.dtd">
<svg version="1.1" xmlns="http://www.w3.org/2000/svg" xmlns:xlink="http://www.w3.org/1999/xlink" width="32" height="32" viewBox="0 0 32 32">
<path d="M10.603 7.111l2.254 2.254c0.839 0.839 1.955 1.302 3.142 1.302h10.667v14.222h-21.333v-17.778h5.27zM11.708 3.556h-8.153c-0.982 0-1.778 0.796-1.778 1.778v21.333c0 0.982 0.796 1.778 1.778 1.778h24.889c0.982 0 1.778-0.796 1.778-1.778v-17.778c0-0.982-0.796-1.778-1.778-1.778h-12.444c-0.236 0-0.462-0.094-0.628-0.26l-3.035-3.035c-0.167-0.167-0.392-0.26-0.629-0.26v0z"></path>
</svg>
