<?xml version="1.0" encoding="utf-8"?>
<!-- Generated by IcoMoon.io -->
<!DOCTYPE svg PUBLIC "-//W3C//DTD SVG 1.1//EN" "http://www.w3.org/Graphics/SVG/1.1/DTD/svg11.dtd">
<svg version="1.1" xmlns="http://www.w3.org/2000/svg" xmlns:xlink="http://www.w3.org/1999/xlink" width="32" height="32" viewBox="0 0 32 32">
<path d="M22.222 7.111c2.451 0 4.444 2.392 4.444 5.333 0 5.608-6.788 10.156-10.667 12.089-3.883-1.936-10.667-6.483-10.667-12.089 0-2.941 1.994-5.333 4.444-5.333 1.143 0 2.394 0.782 3.347 2.092l1.438 1.575c0.71 0.976 2.165 0.976 2.875 0l1.438-1.575c0.953-1.31 2.204-2.092 3.347-2.092zM22.222 3.556c-2.515 0-4.755 1.54-6.222 3.556-1.467-2.016-3.707-3.556-6.222-3.556-4.418 0-8 3.98-8 8.889 0 10.167 14.222 16 14.222 16s14.222-5.833 14.222-16c0-4.909-3.582-8.889-8-8.889v0z"></path>
</svg>
