<?xml version="1.0" encoding="utf-8"?>
<!-- Generated by IcoMoon.io -->
<!DOCTYPE svg PUBLIC "-//W3C//DTD SVG 1.1//EN" "http://www.w3.org/Graphics/SVG/1.1/DTD/svg11.dtd">
<svg version="1.1" xmlns="http://www.w3.org/2000/svg" xmlns:xlink="http://www.w3.org/1999/xlink" width="32" height="32" viewBox="0 0 32 32">
<path d="M31.247 11.913l-13.898-9.81c-0.299-0.212-0.658-0.325-1.025-0.325h-0.649c-0.367 0-0.726 0.114-1.025 0.325l-13.898 9.81c-0.472 0.332-0.753 0.874-0.753 1.452v15.079c0 0.982 0.796 1.778 1.778 1.778h28.444c0.982 0 1.778-0.796 1.778-1.778v-15.079c0-0.578-0.28-1.12-0.753-1.452zM28.444 25.778c0 0.491-0.398 0.889-0.889 0.889h-13.333v-9.778c0-0.491-0.398-0.889-0.889-0.889h-5.333c-0.491 0-0.889 0.398-0.889 0.889v9.778h-2.667c-0.491 0-0.889-0.398-0.889-0.889v-11.030c0-0.289 0.141-0.56 0.376-0.727l12.069-8.518 12.068 8.518c0.236 0.167 0.377 0.438 0.377 0.727v11.030z"></path>
<path d="M24 16h-5.333c-0.491 0-0.889 0.398-0.889 0.889v1.778c0 0.491 0.398 0.889 0.889 0.889h5.333c0.491 0 0.889-0.398 0.889-0.889v-1.778c0-0.491-0.398-0.889-0.889-0.889z"></path>
</svg>
