<?xml version="1.0" encoding="utf-8"?>
<!-- Generated by IcoMoon.io -->
<!DOCTYPE svg PUBLIC "-//W3C//DTD SVG 1.1//EN" "http://www.w3.org/Graphics/SVG/1.1/DTD/svg11.dtd">
<svg version="1.1" xmlns="http://www.w3.org/2000/svg" xmlns:xlink="http://www.w3.org/1999/xlink" width="32" height="32" viewBox="0 0 32 32">
<path d="M30.222 1.778h-28.444c-0.982 0-1.777 0.796-1.777 1.777v24.889c0 0.982 0.796 1.778 1.777 1.778h28.444c0.982 0 1.777-0.796 1.777-1.778v-24.889c0-0.982-0.796-1.777-1.777-1.777zM28.444 25.778c0 0.491-0.397 0.889-0.889 0.889h-14.396l9.958-9.959 5.326 5.326v3.744zM28.444 17.077l-3.858-3.858c-0.062-0.091-0.133-0.178-0.213-0.258-0.349-0.349-0.809-0.521-1.267-0.516-0.455-0.005-0.912 0.166-1.26 0.513-0.072 0.072-0.136 0.149-0.192 0.229l-13.479 13.48h-3.729c-0.491 0-0.889-0.398-0.889-0.889v-19.556c0-0.491 0.397-0.889 0.889-0.889h23.11c0.491 0 0.889 0.398 0.889 0.889v10.854z"></path>
<path d="M10.667 8.889c-1.964 0-3.556 1.592-3.556 3.556s1.592 3.555 3.556 3.555c1.963 0 3.556-1.592 3.556-3.555s-1.593-3.556-3.556-3.556z"></path>
</svg>
