<?xml version="1.0" encoding="utf-8"?>
<!-- Generated by IcoMoon.io -->
<!DOCTYPE svg PUBLIC "-//W3C//DTD SVG 1.1//EN" "http://www.w3.org/Graphics/SVG/1.1/DTD/svg11.dtd">
<svg version="1.1" xmlns="http://www.w3.org/2000/svg" xmlns:xlink="http://www.w3.org/1999/xlink" width="32" height="32" viewBox="0 0 32 32">
<path d="M16 1.778c-7.855 0-14.222 6.367-14.222 14.222s6.367 14.222 14.222 14.222 14.222-6.367 14.222-14.222-6.367-14.222-14.222-14.222zM16 26.667c-5.882 0-10.667-4.785-10.667-10.667s4.785-10.667 10.667-10.667 10.667 4.785 10.667 10.667-4.785 10.667-10.667 10.667z"></path>
<path d="M21.351 14.226h-6.458l2.341-2.3c0.689-0.696 0.689-1.823 0-2.519s-1.806-0.695-2.495 0l-5.333 5.274c-0.331 0.334-0.517 0.786-0.517 1.26 0 0.020 0.001 0.041 0.002 0.061-0.001 0.020-0.002 0.041-0.002 0.061 0 0.473 0.186 0.925 0.517 1.26l5.333 5.274c0.689 0.695 1.806 0.695 2.495 0s0.689-1.823 0-2.519l-2.341-2.3h6.458c0.972 0 1.76-0.788 1.76-1.76v-0.031c0-0.972-0.788-1.76-1.76-1.76z"></path>
</svg>
