<?xml version="1.0" encoding="utf-8"?>
<!-- Generated by IcoMoon.io -->
<!DOCTYPE svg PUBLIC "-//W3C//DTD SVG 1.1//EN" "http://www.w3.org/Graphics/SVG/1.1/DTD/svg11.dtd">
<svg version="1.1" xmlns="http://www.w3.org/2000/svg" xmlns:xlink="http://www.w3.org/1999/xlink" width="32" height="32" viewBox="0 0 32 32">
<path d="M14.222 12.14v9.193c0 0.982 0.796 1.778 1.778 1.778s1.778-0.796 1.778-1.778v-9.193c2.071-0.732 3.556-2.707 3.556-5.029 0-2.945-2.388-5.333-5.333-5.333s-5.333 2.388-5.333 5.333c0 2.322 1.484 4.297 3.556 5.029zM28.444 12.444h-3.556c-0.982 0-1.778 0.796-1.778 1.778s0.796 1.778 1.778 1.778h0.889c0.491 0 0.889 0.398 0.889 0.889v8.889c0 0.491-0.398 0.889-0.889 0.889h-19.556c-0.491 0-0.889-0.398-0.889-0.889v-8.889c0-0.491 0.398-0.889 0.889-0.889h0.889c0.982 0 1.778-0.796 1.778-1.778s-0.796-1.778-1.778-1.778h-3.556c-0.982 0-1.778 0.796-1.778 1.778v14.222c0 0.982 0.796 1.778 1.778 1.778h24.889c0.982 0 1.778-0.796 1.778-1.778v-14.222c0-0.982-0.796-1.778-1.778-1.778z"></path>
</svg>
