<?xml version="1.0" encoding="utf-8"?>
<!-- Generated by IcoMoon.io -->
<!DOCTYPE svg PUBLIC "-//W3C//DTD SVG 1.1//EN" "http://www.w3.org/Graphics/SVG/1.1/DTD/svg11.dtd">
<svg version="1.1" xmlns="http://www.w3.org/2000/svg" xmlns:xlink="http://www.w3.org/1999/xlink" width="32" height="32" viewBox="0 0 32 32">
<path d="M16 1.778c-6.873 0.009-12.444 5.547-12.444 12.378 0 9.822 8.924 14.768 11.571 15.916 0.229 0.1 0.474 0.15 0.718 0.15 0.052 0 0.103-0.011 0.155-0.016 0.052 0.004 0.103 0.016 0.155 0.016 0.244 0 0.489-0.050 0.718-0.15 2.648-1.148 11.571-6.094 11.571-15.916 0-6.832-5.57-12.37-12.444-12.378zM16.156 26.48c-0.047-0.024-0.105-0.055-0.156-0.081-0.051 0.026-0.109 0.056-0.156 0.081-2.281-1.152-8.733-5.055-8.733-12.324 0-4.86 3.986-8.814 8.889-8.823 4.903 0.009 8.889 3.963 8.889 8.823 0 7.269-6.451 11.172-8.733 12.324z"></path>
<path d="M16 10.666c-1.964 0-3.556 1.592-3.556 3.556s1.592 3.556 3.556 3.556 3.556-1.592 3.556-3.556c0-1.964-1.592-3.556-3.556-3.556z"></path>
</svg>
