<?xml version="1.0" encoding="utf-8"?>
<!-- Generated by IcoMoon.io -->
<!DOCTYPE svg PUBLIC "-//W3C//DTD SVG 1.1//EN" "http://www.w3.org/Graphics/SVG/1.1/DTD/svg11.dtd">
<svg version="1.1" xmlns="http://www.w3.org/2000/svg" xmlns:xlink="http://www.w3.org/1999/xlink" width="32" height="32" viewBox="0 0 32 32">
<path d="M26.667 8.889c-0.982 0-1.778 0.796-1.778 1.778v3.242c0 4.73-3.561 8.866-8.28 9.182-5.175 0.346-9.497-3.766-9.497-8.868v-3.556c0-0.982-0.796-1.778-1.778-1.778s-1.778 0.796-1.778 1.778v3.204c0 6.303 4.556 11.777 10.667 12.668v1.906c0 0.982 0.796 1.778 1.778 1.778s1.778-0.796 1.778-1.778v-1.905c6.031-0.863 10.667-6.048 10.667-12.318v-3.556c0-0.982-0.796-1.778-1.778-1.778z"></path>
<path d="M16 1.778c-2.945 0-5.333 2.388-5.333 5.333v7.111c0 2.945 2.388 5.333 5.333 5.333s5.333-2.388 5.333-5.333v-7.111c0-2.945-2.388-5.333-5.333-5.333zM17.778 14.222c0 0.98-0.798 1.778-1.778 1.778s-1.778-0.797-1.778-1.778v-7.111c0-0.98 0.797-1.778 1.778-1.778s1.778 0.798 1.778 1.778v7.111z"></path>
</svg>
