<?xml version="1.0" encoding="utf-8"?>
<!-- Generated by IcoMoon.io -->
<!DOCTYPE svg PUBLIC "-//W3C//DTD SVG 1.1//EN" "http://www.w3.org/Graphics/SVG/1.1/DTD/svg11.dtd">
<svg version="1.1" xmlns="http://www.w3.org/2000/svg" xmlns:xlink="http://www.w3.org/1999/xlink" width="32" height="32" viewBox="0 0 32 32">
<path d="M28.444 1.778h-24.889c-0.982 0-1.778 0.796-1.778 1.778v21.333c0 0.982 0.796 1.778 1.778 1.778h9.778c-1.473 0-2.667 1.194-2.667 2.667v0.889h10.667v-0.889c0-1.473-1.194-2.667-2.667-2.667h9.778c0.982 0 1.778-0.796 1.778-1.778v-21.333c0-0.982-0.796-1.778-1.778-1.778zM26.667 22.222c0 0.491-0.398 0.889-0.889 0.889h-19.556c-0.491 0-0.889-0.398-0.889-0.889v-16c0-0.491 0.398-0.889 0.889-0.889h19.556c0.491 0 0.889 0.398 0.889 0.889v16z"></path>
</svg>
