<?xml version="1.0" encoding="utf-8"?>
<!-- Generated by IcoMoon.io -->
<!DOCTYPE svg PUBLIC "-//W3C//DTD SVG 1.1//EN" "http://www.w3.org/Graphics/SVG/1.1/DTD/svg11.dtd">
<svg version="1.1" xmlns="http://www.w3.org/2000/svg" xmlns:xlink="http://www.w3.org/1999/xlink" width="32" height="32" viewBox="0 0 32 32">
<path d="M12.882 5.786c-0.447 1.472-0.572 3.040-0.352 4.616 0.65 4.675 4.365 8.396 9.030 9.047 0.502 0.070 1.010 0.106 1.51 0.106 1.064 0 2.104-0.154 3.097-0.457-1.199 3.938-4.697 6.979-8.84 7.484-0.451 0.056-0.907 0.083-1.354 0.083-3.046 0-5.953-1.312-7.975-3.599-2.049-2.318-2.968-5.31-2.589-8.425 0.505-4.151 3.542-7.657 7.473-8.857zM15.973 1.778c-0.644 0-1.3 0.043-1.962 0.133-6.299 0.853-11.356 5.981-12.124 12.303-1.052 8.652 5.66 16.009 14.087 16.009 0.587 0 1.181-0.036 1.784-0.109 6.309-0.77 11.427-5.836 12.279-12.147 0.092-0.681 0.135-1.353 0.133-2.016-0.003-1.036-0.858-1.728-1.77-1.728-0.372 0-0.753 0.115-1.091 0.368-1.181 0.885-2.648 1.41-4.237 1.41-0.335 0-0.675-0.023-1.020-0.071-3.080-0.431-5.576-2.932-6.006-6.018-0.276-1.983 0.266-3.833 1.335-5.267 0.737-1.168 0.045-2.861-1.358-2.866-0.016 0-0.032 0-0.049 0v0z"></path>
</svg>
