<?xml version="1.0" encoding="utf-8"?>
<!-- Generated by IcoMoon.io -->
<!DOCTYPE svg PUBLIC "-//W3C//DTD SVG 1.1//EN" "http://www.w3.org/Graphics/SVG/1.1/DTD/svg11.dtd">
<svg version="1.1" xmlns="http://www.w3.org/2000/svg" xmlns:xlink="http://www.w3.org/1999/xlink" width="32" height="32" viewBox="0 0 32 32">
<path d="M30.222 3.556c-0.982 0-1.778 0.796-1.778 1.778v7.677l-16-9.455c-0.982 0-1.778 0.796-1.778 1.778v3.474l-8.889-5.252c-0.982 0-1.778 0.796-1.778 1.778v21.333c0 0.982 0.796 1.778 1.778 1.778l8.889-5.253v3.475c0 0.982 0.796 1.778 1.778 1.778l16-9.455v7.677c0 0.982 0.796 1.778 1.778 1.778s1.778-0.796 1.778-1.778v-21.333c0-0.982-0.796-1.778-1.778-1.778zM10.667 19.062l-7.111 4.202v-14.528l7.111 4.202v6.123zM14.222 23.264v-14.528l12.293 7.264-12.293 7.264z"></path>
</svg>
