<?xml version="1.0" encoding="utf-8"?>
<!-- Generated by IcoMoon.io -->
<!DOCTYPE svg PUBLIC "-//W3C//DTD SVG 1.1//EN" "http://www.w3.org/Graphics/SVG/1.1/DTD/svg11.dtd">
<svg version="1.1" xmlns="http://www.w3.org/2000/svg" xmlns:xlink="http://www.w3.org/1999/xlink" width="32" height="32" viewBox="0 0 32 32">
<path d="M16 1.778c-7.855 0-14.222 6.367-14.222 14.222s6.367 14.222 14.222 14.222 14.222-6.367 14.222-14.222-6.367-14.222-14.222-14.222zM16 26.667c-5.882 0-10.667-4.785-10.667-10.667s4.785-10.667 10.667-10.667 10.667 4.785 10.667 10.667-4.785 10.667-10.667 10.667z"></path>
<path d="M21.351 14.222h-3.573v-3.573c0-0.972-0.788-1.76-1.76-1.76h-0.035c-0.972 0-1.76 0.788-1.76 1.76v3.573h-3.573c-0.972 0-1.76 0.788-1.76 1.76v0.035c0 0.972 0.788 1.76 1.76 1.76h3.573v3.573c0 0.972 0.788 1.76 1.76 1.76h0.035c0.972 0 1.76-0.788 1.76-1.76v-3.573h3.573c0.972 0 1.76-0.788 1.76-1.76v-0.035c-0-0.972-0.788-1.76-1.761-1.76z"></path>
</svg>
