<?xml version="1.0" encoding="utf-8"?>
<!-- Generated by IcoMoon.io -->
<!DOCTYPE svg PUBLIC "-//W3C//DTD SVG 1.1//EN" "http://www.w3.org/Graphics/SVG/1.1/DTD/svg11.dtd">
<svg version="1.1" xmlns="http://www.w3.org/2000/svg" xmlns:xlink="http://www.w3.org/1999/xlink" width="32" height="32" viewBox="0 0 32 32">
<path d="M30.222 5.333h-7.111v-1.778c0-0.982-0.796-1.778-1.778-1.778h-10.667c-0.982 0-1.778 0.796-1.778 1.778v1.778h-7.111c-0.982 0-1.778 0.796-1.778 1.778v14.222c0 0.982 0.796 1.778 1.778 1.778h3.556v5.333c0 0.982 0.796 1.778 1.778 1.778h17.778c0.982 0 1.778-0.796 1.778-1.778v-5.333h3.556c0.982 0 1.778-0.796 1.778-1.778v-14.222c0-0.982-0.796-1.778-1.778-1.778zM23.111 26.667h-14.222v-7.111h14.222v7.111zM28.444 18.667c0 0.491-0.398 0.889-0.889 0.889h-0.889v-1.778c0-0.982-0.796-1.778-1.778-1.778h-17.778c-0.982 0-1.778 0.796-1.778 1.778v1.778h-0.889c-0.491 0-0.889-0.398-0.889-0.889v-8.889c0-0.491 0.398-0.889 0.889-0.889h23.111c0.491 0 0.889 0.398 0.889 0.889v8.889z"></path>
</svg>
