<?xml version="1.0" encoding="utf-8"?>
<!-- Generated by IcoMoon.io -->
<!DOCTYPE svg PUBLIC "-//W3C//DTD SVG 1.1//EN" "http://www.w3.org/Graphics/SVG/1.1/DTD/svg11.dtd">
<svg version="1.1" xmlns="http://www.w3.org/2000/svg" xmlns:xlink="http://www.w3.org/1999/xlink" width="32" height="32" viewBox="0 0 32 32">
<path d="M30.206 11.556c-0.029-0.668-0.089-1.353-0.16-2.051-0.496-4.844-4.36-8.818-9.182-9.419-5.203-0.649-9.766 2.487-11.354 7.026-0.2-0.017-0.4-0.031-0.604-0.031-3.902-0-7.127 3.184-7.127 7.094v1.77c0 0.967 0.844 1.756 1.81 1.756h0.036c0.965 0 1.702-0.83 1.702-1.798v-1.396c-0.205-2.11 1.515-3.886 3.579-3.886 0.103 0 0.205 0.009 0.306 0.018l1.368-0.018c0.803 0.068 1.545-0.283 1.812-1.044l0.384-1.096c0.932-2.664 3.283-4.663 6.090-4.911 4.346-0.385 8.101 3.278 7.811 7.615l-0.006 0.373v4.555h0.017c0.051 0.926 0.865 1.667 1.801 1.667h0.035c0.922 0 1.627-0.757 1.691-1.667h0.012v-4.555h-0.019z"></path>
<path d="M12.445 14.222c-0.982 0-1.778 0.796-1.778 1.778v3.556c0 0.982 0.796 1.778 1.778 1.778s1.778-0.796 1.778-1.778v-3.556c0-0.982-0.796-1.778-1.778-1.778z"></path>
<path d="M12.445 24.889c-0.982 0-1.778 0.795-1.778 1.778v3.555c0 0.982 0.796 1.778 1.778 1.778s1.778-0.796 1.778-1.778v-3.555c0-0.983-0.796-1.778-1.778-1.778z"></path>
<path d="M19.557 10.667c-0.982 0-1.778 0.796-1.778 1.778v3.555c0 0.983 0.796 1.778 1.778 1.778s1.778-0.795 1.778-1.778v-3.555c0-0.982-0.796-1.778-1.778-1.778z"></path>
<path d="M19.557 21.333c-0.982 0-1.778 0.796-1.778 1.778v3.556c0 0.981 0.796 1.777 1.778 1.777s1.778-0.796 1.778-1.777v-3.556c0-0.982-0.796-1.778-1.778-1.778z"></path>
</svg>
