<?xml version="1.0" encoding="utf-8"?>
<!-- Generated by IcoMoon.io -->
<!DOCTYPE svg PUBLIC "-//W3C//DTD SVG 1.1//EN" "http://www.w3.org/Graphics/SVG/1.1/DTD/svg11.dtd">
<svg version="1.1" xmlns="http://www.w3.org/2000/svg" xmlns:xlink="http://www.w3.org/1999/xlink" width="32" height="32" viewBox="0 0 32 32">
<path d="M14.246 24.899h-1.461c-4.216-0.689-7.444-4.361-7.444-8.772 0-1.478 0.379-2.86 1.020-4.087l1.090 1.511c0.794 1.099 2.505 0.793 2.869-0.514l2.066-7.43c0.287-1.032-0.489-2.054-1.56-2.052l-7.42 0.011c-1.318 0.002-2.080 1.495-1.309 2.565l2.006 2.78c-1.453 2.036-2.315 4.523-2.315 7.215 0 6.221 4.563 11.377 10.521 12.297 0.162 0.025 0.32 0.018 0.475-0.002v0.022h1.461c0.969 0 1.754-0.785 1.754-1.755v-0.036c0-0.969-0.785-1.755-1.754-1.755z"></path>
<path d="M29.902 25.869l-2.007-2.78c1.454-2.036 2.315-4.523 2.315-7.215 0-6.221-4.562-11.377-10.52-12.298-0.162-0.025-0.32-0.018-0.475 0.003v-0.023h-1.462c-0.968 0-1.753 0.786-1.753 1.755v0.036c0 0.97 0.785 1.756 1.753 1.756h1.462c4.216 0.689 7.443 4.361 7.443 8.772 0 1.478-0.379 2.86-1.019 4.087l-1.091-1.511c-0.793-1.099-2.505-0.793-2.868 0.513l-2.067 7.43c-0.287 1.033 0.49 2.054 1.561 2.052l7.42-0.010c1.318-0.002 2.080-1.496 1.309-2.565z"></path>
</svg>
