<?xml version="1.0" encoding="utf-8"?>
<!-- Generated by IcoMoon.io -->
<!DOCTYPE svg PUBLIC "-//W3C//DTD SVG 1.1//EN" "http://www.w3.org/Graphics/SVG/1.1/DTD/svg11.dtd">
<svg version="1.1" xmlns="http://www.w3.org/2000/svg" xmlns:xlink="http://www.w3.org/1999/xlink" width="32" height="32" viewBox="0 0 32 32">
<path d="M19.549 12.446l-7.075 0.003c-0.011 0-0.022-0.003-0.034-0.003h-2.851l5.897-5.901c0.678-0.679 0.678-1.778 0-2.456l-0.024-0.025c-0.678-0.678-1.777-0.678-2.455 0l-8.738 8.744c-0.062 0.047-0.124 0.091-0.18 0.147l-0.010 0.009c-0.003 0.002-0.004 0.004-0.006 0.007l-0.010 0.009c-0.060 0.060-0.108 0.127-0.157 0.193-0.016 0.020-0.035 0.038-0.049 0.059-0.202 0.296-0.304 0.64-0.302 0.984 0 0.003-0.001 0.005-0.001 0.008s0.001 0.005 0.001 0.008c-0.002 0.345 0.1 0.688 0.302 0.985 0.014 0.021 0.032 0.038 0.047 0.058 0.050 0.066 0.099 0.134 0.159 0.194l0.010 0.010c0.002 0.002 0.003 0.004 0.006 0.006l0.010 0.009c0.056 0.056 0.118 0.101 0.18 0.148l8.738 8.743c0.678 0.678 1.777 0.678 2.455 0l0.024-0.025c0.679-0.678 0.679-1.778 0-2.457l-5.897-5.901h2.851c0.012 0 0.023-0.003 0.034-0.003v0.003h7.075c2.94 0 5.331 2.393 5.331 5.334v5.329c0 0.982 0.796 1.778 1.777 1.778s1.777-0.796 1.777-1.778v-5.329c0-4.91-3.978-8.891-8.886-8.891z"></path>
</svg>
