<?xml version="1.0" encoding="utf-8"?>
<!-- Generated by IcoMoon.io -->
<!DOCTYPE svg PUBLIC "-//W3C//DTD SVG 1.1//EN" "http://www.w3.org/Graphics/SVG/1.1/DTD/svg11.dtd">
<svg version="1.1" xmlns="http://www.w3.org/2000/svg" xmlns:xlink="http://www.w3.org/1999/xlink" width="32" height="32" viewBox="0 0 32 32">
<path d="M4.255 14.224l7.677-7.679c0.678-0.678 0.678-1.778 0-2.456l-0.025-0.025c-0.678-0.679-1.777-0.679-2.455 0l-8.742 8.743c-0.061 0.047-0.123 0.091-0.18 0.147l-0.025 0.025c-0.343 0.344-0.509 0.795-0.505 1.245-0.004 0.45 0.162 0.901 0.505 1.245l0.025 0.025c0.056 0.056 0.119 0.1 0.18 0.147l8.742 8.743c0.678 0.679 1.777 0.679 2.455 0l0.025-0.025c0.678-0.678 0.678-1.778 0-2.456l-7.677-7.679z"></path>
<path d="M23.105 12.446h-8.184l5.899-5.901c0.678-0.678 0.678-1.778 0-2.456l-0.025-0.025c-0.678-0.679-1.777-0.679-2.455 0l-8.742 8.743c-0.061 0.047-0.123 0.091-0.179 0.147l-0.010 0.009c-0.003 0.002-0.004 0.004-0.006 0.007l-0.010 0.009c-0.059 0.060-0.108 0.127-0.157 0.193-0.015 0.020-0.034 0.038-0.048 0.059-0.203 0.296-0.304 0.64-0.302 0.985 0 0.003-0.002 0.005-0.002 0.008s0.002 0.005 0.002 0.008c-0.002 0.344 0.099 0.689 0.302 0.985 0.014 0.020 0.032 0.038 0.047 0.058 0.050 0.066 0.098 0.134 0.158 0.194l0.010 0.009c0.002 0.002 0.003 0.004 0.005 0.006l0.010 0.010c0.056 0.056 0.118 0.1 0.18 0.147l8.741 8.743c0.678 0.679 1.777 0.679 2.455 0l0.025-0.025c0.678-0.678 0.678-1.778 0-2.456l-5.899-5.901h8.184c2.94 0 5.333 2.393 5.333 5.334v5.33c0 0.982 0.795 1.778 1.777 1.778s1.777-0.796 1.777-1.778v-5.33c0-4.91-3.978-8.89-8.887-8.89z"></path>
</svg>
