<?xml version="1.0" encoding="utf-8"?>
<!-- Generated by IcoMoon.io -->
<!DOCTYPE svg PUBLIC "-//W3C//DTD SVG 1.1//EN" "http://www.w3.org/Graphics/SVG/1.1/DTD/svg11.dtd">
<svg version="1.1" xmlns="http://www.w3.org/2000/svg" xmlns:xlink="http://www.w3.org/1999/xlink" width="32" height="32" viewBox="0 0 32 32">
<path d="M18.158 3.556c-0.198 0-0.399 0.057-0.594 0.18l-7.196 4.995c-0.148 0.103-0.323 0.158-0.503 0.158h-6.316c-0.978 0-1.771 0.796-1.771 1.778v10.667c0 0.982 0.793 1.778 1.771 1.778h6.316c0.181 0 0.356 0.055 0.503 0.158l7.196 4.995c0.194 0.123 0.397 0.18 0.594 0.18 0.696 0 1.328-0.71 1.328-1.688v-21.513c0-0.977-0.632-1.688-1.328-1.688zM15.944 22.817l-4.243-2.946c-0.296-0.205-0.648-0.316-1.007-0.316h-4.49c-0.49 0-0.885-0.398-0.885-0.889v-5.333c0-0.491 0.396-0.889 0.885-0.889h4.49c0.359 0 0.711-0.11 1.007-0.316l4.243-2.946v13.634z"></path>
<path d="M30.104 15.643c-0.153-3.107-2.691-5.317-4.457-6.487-0.836-0.554-1.944-0.217-2.355 0.725l-0.067 0.153c-0.333 0.766-0.081 1.669 0.597 2.123 1.255 0.841 2.819 2.217 2.887 3.671 0.057 1.202-0.983 2.609-2.957 4.035-0.708 0.512-0.941 1.491-0.507 2.267l0.075 0.134c0.472 0.844 1.54 1.109 2.311 0.555 3.094-2.223 4.597-4.632 4.472-7.177z"></path>
</svg>
