<?xml version="1.0" encoding="utf-8"?>
<!-- Generated by IcoMoon.io -->
<!DOCTYPE svg PUBLIC "-//W3C//DTD SVG 1.1//EN" "http://www.w3.org/Graphics/SVG/1.1/DTD/svg11.dtd">
<svg version="1.1" xmlns="http://www.w3.org/2000/svg" xmlns:xlink="http://www.w3.org/1999/xlink" width="32" height="32" viewBox="0 0 32 32">
<path d="M24.905 19.556h-0.035c-0.972 0-1.76 0.788-1.76 1.76v4.462c0 0.49-0.398 0.889-0.889 0.889h-12.442c-0.49 0-0.888-0.398-0.888-0.889v-4.462c0-0.972-0.788-1.76-1.76-1.76h-0.036c-0.971 0-1.76 0.788-1.76 1.76v7.146c0 0.972 0.788 1.76 1.76 1.76h17.81c0.972 0 1.76-0.788 1.76-1.76v-7.146c0-0.972-0.788-1.76-1.76-1.76z"></path>
<path d="M28.557 6.226l-2.784-2.785c-1.105-1.105-2.55-1.648-3.998-1.648-0.148 0-0.295 0.006-0.443 0.017v-0.032h-10.664v0.032c-0.148-0.011-0.295-0.017-0.443-0.017-1.447 0-2.892 0.543-3.997 1.648l-2.785 2.785c-2.217 2.217-2.217 5.813 0 8.030l0.082 0.081c1.108 1.108 2.561 1.663 4.014 1.663s2.906-0.555 4.014-1.663l0.294-0.293c0.968 1.193 2.444 1.957 4.1 1.957h0.107c1.656 0 3.133-0.764 4.1-1.957l0.294 0.293c1.108 1.109 2.562 1.663 4.015 1.663s2.905-0.555 4.014-1.663l0.081-0.081c2.218-2.218 2.218-5.813 0-8.030zM26.044 11.741l-0.082 0.082c-0.401 0.401-0.934 0.622-1.5 0.622-0.568 0-1.101-0.22-1.502-0.622l-0.293-0.294-2.512-2.513c-0.148-0.148-0.391-0.135-0.523 0.027l-2.24 2.76c-0.33 0.408-0.819 0.641-1.339 0.641h-0.107c-0.521 0-1.009-0.233-1.339-0.642l-2.198-2.708c-0.154-0.19-0.438-0.205-0.611-0.032l-2.76 2.76c-0.401 0.401-0.933 0.621-1.501 0.621s-1.1-0.22-1.5-0.622l-0.082-0.082c-0.828-0.829-0.828-2.173 0-3.002l2.785-2.785c0.528-0.528 1.156-0.607 1.483-0.607 0.057 0 0.386-0.019 0.443-0.015h10.664c0.057-0.004 0.386 0.015 0.443 0.015 0.328 0 0.957 0.079 1.484 0.607l2.785 2.785c0.828 0.829 0.828 2.173 0 3.002z"></path>
</svg>
