<?xml version="1.0" encoding="utf-8"?>
<!-- Generated by IcoMoon.io -->
<!DOCTYPE svg PUBLIC "-//W3C//DTD SVG 1.1//EN" "http://www.w3.org/Graphics/SVG/1.1/DTD/svg11.dtd">
<svg version="1.1" xmlns="http://www.w3.org/2000/svg" xmlns:xlink="http://www.w3.org/1999/xlink" width="32" height="32" viewBox="0 0 32 32">
<path d="M17.043 10.766c-0.353-0.067-0.703-0.099-1.044-0.099-3.291 0-5.885 2.973-5.239 6.378 0.396 2.088 2.105 3.795 4.194 4.19 0.353 0.067 0.702 0.099 1.044 0.099 3.291 0 5.884-2.972 5.239-6.377-0.396-2.088-2.105-3.795-4.194-4.191zM17.371 17.132c-0.34 0.41-0.84 0.645-1.372 0.645-0.125 0-0.253-0.013-0.383-0.037-0.652-0.123-1.236-0.707-1.359-1.358-0.137-0.719 0.126-1.22 0.37-1.515 0.339-0.41 0.84-0.645 1.372-0.645 0.124 0 0.253 0.013 0.382 0.037 0.652 0.123 1.237 0.707 1.36 1.358 0.136 0.719-0.126 1.22-0.37 1.515z"></path>
<path d="M30.242 17.778h-3.572c-0.979 0-1.773-0.793-1.773-1.771v-0.013c0-0.978 0.793-1.771 1.773-1.771h3.572c0.979 0 1.773 0.793 1.773 1.771v0.013c0 0.978-0.793 1.771-1.773 1.771z"></path>
<path d="M16.006 24.889h-0.013c-0.979 0-1.773 0.793-1.773 1.771v3.569c0 0.978 0.793 1.771 1.773 1.771h0.013c0.979 0 1.773-0.793 1.773-1.771v-3.569c-0-0.978-0.793-1.771-1.773-1.771z"></path>
<path d="M15.993 7.111h0.013c0.979 0 1.773-0.793 1.773-1.771v-3.569c0-0.978-0.793-1.771-1.773-1.771h-0.013c-0.979 0-1.773 0.793-1.773 1.771v3.569c-0 0.978 0.793 1.771 1.772 1.771z"></path>
<path d="M7.104 16.006v-0.013c0-0.978-0.794-1.771-1.773-1.771h-3.571c-0.979 0-1.773 0.793-1.773 1.771v0.013c0 0.978 0.794 1.771 1.773 1.771h3.571c0.979 0 1.773-0.793 1.773-1.771z"></path>
<path d="M25.978 8.398l1.987-1.985c0.654-0.654 0.654-1.714 0-2.367s-1.715-0.654-2.369 0l-1.988 1.985c-0.654 0.654-0.654 1.714 0 2.367s1.715 0.654 2.37 0z"></path>
<path d="M6.405 4.046c-0.654-0.654-1.715-0.654-2.37 0s-0.654 1.714 0 2.367l1.988 1.985c0.654 0.654 1.714 0.654 2.369 0s0.655-1.714 0-2.367l-1.987-1.985z"></path>
<path d="M6.023 23.602l-1.988 1.985c-0.654 0.654-0.654 1.714 0 2.367s1.715 0.654 2.37 0l1.987-1.985c0.655-0.654 0.655-1.714 0-2.367s-1.715-0.654-2.369 0z"></path>
<path d="M25.978 23.602c-0.654-0.654-1.715-0.654-2.37 0s-0.654 1.714 0 2.367l1.988 1.985c0.654 0.654 1.714 0.654 2.369 0s0.654-1.714 0-2.367l-1.987-1.985z"></path>
</svg>
