<?xml version="1.0" encoding="utf-8"?>
<!-- Generated by IcoMoon.io -->
<!DOCTYPE svg PUBLIC "-//W3C//DTD SVG 1.1//EN" "http://www.w3.org/Graphics/SVG/1.1/DTD/svg11.dtd">
<svg version="1.1" xmlns="http://www.w3.org/2000/svg" xmlns:xlink="http://www.w3.org/1999/xlink" width="32" height="32" viewBox="0 0 32 32">
<path d="M16 1.778c-7.854 0-14.222 6.367-14.222 14.222s6.368 14.222 14.222 14.222 14.222-6.367 14.222-14.222-6.368-14.222-14.222-14.222zM16 5.333c2.3 0 4.427 0.739 6.17 1.982l-2.563 2.564c-1.058-0.625-2.289-0.99-3.607-0.99s-2.549 0.365-3.607 0.99l-2.563-2.564c1.743-1.243 3.87-1.982 6.17-1.982zM19.556 16c0 0.188-0.023 0.37-0.056 0.549-0.237 1.521-1.431 2.714-2.951 2.951-0.179 0.032-0.361 0.056-0.549 0.056s-0.37-0.023-0.549-0.056c-1.521-0.237-2.714-1.431-2.951-2.951-0.033-0.179-0.056-0.36-0.056-0.549s0.023-0.37 0.056-0.549c0.237-1.521 1.431-2.714 2.951-2.951 0.179-0.032 0.361-0.056 0.549-0.056s0.37 0.023 0.549 0.056c1.521 0.237 2.714 1.431 2.951 2.951 0.033 0.179 0.056 0.36 0.056 0.549zM5.333 16c0-2.3 0.74-4.426 1.982-6.17l2.563 2.563c-0.625 1.058-0.99 2.288-0.99 3.607s0.365 2.549 0.99 3.607l-2.563 2.564c-1.242-1.745-1.982-3.871-1.982-6.171zM16 26.667c-2.3 0-4.427-0.739-6.17-1.982l2.563-2.564c1.058 0.625 2.289 0.99 3.607 0.99s2.549-0.365 3.607-0.99l2.563 2.564c-1.743 1.243-3.87 1.982-6.17 1.982zM24.685 22.171l-2.564-2.564c0.626-1.058 0.99-2.288 0.99-3.607s-0.365-2.549-0.99-3.607l2.564-2.563c1.242 1.744 1.982 3.87 1.982 6.17s-0.74 4.426-1.982 6.171z"></path>
</svg>
