<?xml version="1.0" encoding="utf-8"?>
<!-- Generated by IcoMoon.io -->
<!DOCTYPE svg PUBLIC "-//W3C//DTD SVG 1.1//EN" "http://www.w3.org/Graphics/SVG/1.1/DTD/svg11.dtd">
<svg version="1.1" xmlns="http://www.w3.org/2000/svg" xmlns:xlink="http://www.w3.org/1999/xlink" width="36" height="32" viewBox="0 0 36 32">
<path d="M23.111 3.556h-10.667c-6.873 0-12.444 5.571-12.444 12.444s5.571 12.444 12.444 12.444h10.667c6.873 0 12.444-5.571 12.444-12.444s-5.571-12.444-12.444-12.444zM23.111 24.889h-10.667c-4.901 0-8.889-3.988-8.889-8.889s3.988-8.889 8.889-8.889h10.667c4.901 0 8.889 3.988 8.889 8.889s-3.988 8.889-8.889 8.889z"></path>
<path d="M17.778 16c0 2.945-2.388 5.333-5.333 5.333s-5.333-2.388-5.333-5.333 2.388-5.333 5.333-5.333 5.333 2.388 5.333 5.333z"></path>
</svg>
