<?xml version="1.0" encoding="utf-8"?>
<!-- Generated by IcoMoon.io -->
<!DOCTYPE svg PUBLIC "-//W3C//DTD SVG 1.1//EN" "http://www.w3.org/Graphics/SVG/1.1/DTD/svg11.dtd">
<svg version="1.1" xmlns="http://www.w3.org/2000/svg" xmlns:xlink="http://www.w3.org/1999/xlink" width="32" height="32" viewBox="0 0 32 32">
<path d="M29.676 15.129l-12.764-12.815c-0.342-0.344-0.807-0.536-1.291-0.536h-12.005c-1.007 0-1.823 0.817-1.823 1.825v12.004c0 0.484 0.193 0.949 0.535 1.291l12.79 12.791c0.356 0.356 0.823 0.534 1.289 0.534s0.933-0.178 1.289-0.534l11.979-11.98c0.712-0.712 0.712-1.867 0.003-2.58zM25.313 17.043l-8.28 8.28c-0.347 0.347-0.909 0.347-1.255 0l-10.433-10.434v-8.667c0-0.49 0.397-0.889 0.887-0.889h8.671l10.412 10.453c0.347 0.347 0.345 0.909-0.001 1.257z"></path>
<path d="M14.225 11.556c0 1.473-1.193 2.667-2.664 2.667s-2.664-1.194-2.664-2.667c0-1.473 1.192-2.667 2.664-2.667s2.664 1.194 2.664 2.667z"></path>
</svg>
