<?xml version="1.0" encoding="utf-8"?>
<!-- Generated by IcoMoon.io -->
<!DOCTYPE svg PUBLIC "-//W3C//DTD SVG 1.1//EN" "http://www.w3.org/Graphics/SVG/1.1/DTD/svg11.dtd">
<svg version="1.1" xmlns="http://www.w3.org/2000/svg" xmlns:xlink="http://www.w3.org/1999/xlink" width="32" height="32" viewBox="0 0 32 32">
<path d="M28.444 14.222h-1.926c-0.75-4.466-4.274-7.991-8.741-8.741v-1.926c0-0.982-0.796-1.778-1.778-1.778s-1.778 0.796-1.778 1.778v1.926c-4.466 0.75-7.991 4.274-8.741 8.741h-1.926c-0.982 0-1.778 0.796-1.778 1.778s0.796 1.778 1.778 1.778h1.926c0.75 4.466 4.274 7.991 8.741 8.741v1.926c0 0.982 0.796 1.778 1.778 1.778s1.778-0.796 1.778-1.778v-1.926c4.466-0.75 7.991-4.274 8.741-8.741h1.926c0.982 0 1.778-0.796 1.778-1.778s-0.796-1.778-1.778-1.778zM17.778 22.886v-1.553c0-0.982-0.796-1.778-1.778-1.778s-1.778 0.796-1.778 1.778v1.553c-2.495-0.645-4.464-2.613-5.108-5.108h1.553c0.982 0 1.778-0.796 1.778-1.778s-0.796-1.778-1.778-1.778h-1.553c0.645-2.495 2.613-4.464 5.108-5.108v1.553c0 0.982 0.796 1.778 1.778 1.778s1.778-0.796 1.778-1.778v-1.553c2.495 0.645 4.464 2.613 5.108 5.108h-1.553c-0.982 0-1.778 0.796-1.778 1.778s0.796 1.778 1.778 1.778h1.553c-0.645 2.495-2.613 4.464-5.108 5.108z"></path>
</svg>
