<?xml version="1.0" encoding="utf-8"?>
<!-- Generated by IcoMoon.io -->
<!DOCTYPE svg PUBLIC "-//W3C//DTD SVG 1.1//EN" "http://www.w3.org/Graphics/SVG/1.1/DTD/svg11.dtd">
<svg version="1.1" xmlns="http://www.w3.org/2000/svg" xmlns:xlink="http://www.w3.org/1999/xlink" width="32" height="32" viewBox="0 0 32 32">
<path d="M30.222 8.889h-7.111v-5.333c0-0.982-0.796-1.778-1.778-1.778h-10.667c-0.982 0-1.778 0.796-1.778 1.778v5.333h-7.111c-0.982 0-1.778 0.796-1.778 1.778v1.778h3.556v16c0 0.982 0.796 1.778 1.778 1.778h21.333c0.982 0 1.778-0.796 1.778-1.778v-16h3.556v-1.778c0-0.982-0.796-1.778-1.778-1.778zM12.444 5.333h7.111v3.556h-7.111v-3.556zM24.889 26.667h-17.778v-14.222h17.778v14.222z"></path>
<path d="M11.556 23.111h1.778c0.491 0 0.889-0.398 0.889-0.889v-5.333c0-0.491-0.398-0.889-0.889-0.889h-1.778c-0.491 0-0.889 0.398-0.889 0.889v5.333c0 0.491 0.398 0.889 0.889 0.889z"></path>
<path d="M18.667 23.111h1.778c0.491 0 0.889-0.398 0.889-0.889v-5.333c0-0.491-0.398-0.889-0.889-0.889h-1.778c-0.491 0-0.889 0.398-0.889 0.889v5.333c0 0.491 0.398 0.889 0.889 0.889z"></path>
</svg>
