<?xml version="1.0" encoding="utf-8"?>
<!-- Generated by IcoMoon.io -->
<!DOCTYPE svg PUBLIC "-//W3C//DTD SVG 1.1//EN" "http://www.w3.org/Graphics/SVG/1.1/DTD/svg11.dtd">
<svg version="1.1" xmlns="http://www.w3.org/2000/svg" xmlns:xlink="http://www.w3.org/1999/xlink" width="32" height="32" viewBox="0 0 32 32">
<path d="M30.222 16c0-7.855-6.367-14.222-14.222-14.222s-14.222 6.367-14.222 14.222c0 7.855 6.367 14.222 14.222 14.222s14.222-6.367 14.222-14.222zM5.333 16c0-5.882 4.785-10.667 10.667-10.667s10.667 4.785 10.667 10.667-4.785 10.667-10.667 10.667-10.667-4.785-10.667-10.667z"></path>
<path d="M17.774 21.351v-6.458l2.299 2.341c0.696 0.689 1.823 0.689 2.519 0s0.695-1.806 0-2.495l-5.274-5.333c-0.334-0.331-0.786-0.517-1.26-0.517-0.020 0-0.041 0.001-0.061 0.002-0.020-0.001-0.040-0.002-0.061-0.002-0.473 0-0.925 0.186-1.26 0.517l-5.274 5.333c-0.695 0.689-0.695 1.806 0 2.495s1.823 0.689 2.519 0l2.3-2.341v6.458c0 0.972 0.788 1.76 1.76 1.76h0.031c0.972 0 1.76-0.788 1.76-1.76z"></path>
</svg>
