<?xml version="1.0" encoding="utf-8"?>
<!-- Generated by IcoMoon.io -->
<!DOCTYPE svg PUBLIC "-//W3C//DTD SVG 1.1//EN" "http://www.w3.org/Graphics/SVG/1.1/DTD/svg11.dtd">
<svg version="1.1" xmlns="http://www.w3.org/2000/svg" xmlns:xlink="http://www.w3.org/1999/xlink" width="32" height="32" viewBox="0 0 32 32">
<path d="M30.206 13.333c-0.029-0.668-0.089-1.354-0.16-2.052-0.496-4.844-4.36-8.817-9.183-9.419-5.203-0.649-9.767 2.487-11.356 7.026-0.2-0.017-0.4-0.031-0.604-0.031-3.903 0-7.128 3.184-7.128 7.094v1.77c0 0.968 0.844 1.756 1.81 1.756h0.036c0.966 0 1.703-0.83 1.703-1.798v-1.397c-0.205-2.11 1.515-3.886 3.58-3.886 0.103 0 0.205 0.010 0.306 0.018l1.368-0.018c0.803 0.069 1.545-0.282 1.812-1.044l0.384-1.096c0.932-2.664 3.284-4.663 6.091-4.912 4.346-0.385 8.101 3.278 7.811 7.615l-0.006 0.373v4.556h0.017c0.051 0.926 0.865 1.667 1.801 1.667h0.035c0.922 0 1.627-0.757 1.691-1.667h0.012v-4.556l-0.019 0z"></path>
<path d="M22.562 21.865l-5.372-5.348c-0.332-0.331-0.782-0.517-1.253-0.517s-0.92 0.186-1.253 0.517l-5.248 5.334c-0.692 0.689-0.692 1.805 0 2.494s1.814 0.689 2.506 0l2.289-2.341v6.459c0 0.972 0.784 1.76 1.751 1.76h0.035c0.967 0 1.751-0.788 1.751-1.76v-6.189l0.23 0.037 1.988 1.98c0.628 0.624 1.631 0.776 2.349 0.26 0.912-0.655 0.987-1.928 0.226-2.686z"></path>
</svg>
