<?xml version="1.0" encoding="utf-8"?>
<!-- Generated by IcoMoon.io -->
<!DOCTYPE svg PUBLIC "-//W3C//DTD SVG 1.1//EN" "http://www.w3.org/Graphics/SVG/1.1/DTD/svg11.dtd">
<svg version="1.1" xmlns="http://www.w3.org/2000/svg" xmlns:xlink="http://www.w3.org/1999/xlink" width="32" height="32" viewBox="0 0 32 32">
<path d="M25.956 12.444h-0.248c0.607-1.047 0.959-2.259 0.959-3.556 0-3.927-3.184-7.111-7.111-7.111s-7.111 3.184-7.111 7.111c-3.927 0-7.111 3.184-7.111 7.111 0 1.297 0.352 2.509 0.959 3.556h-0.248c-2.533 1.135-4.266 3.565-4.266 6.157v2.732c0 0.623 0.984 1.778 1.722 1.778h18.056c0.738 0 1.556-1.154 1.556-1.778v-2.732c0-0.904-0.222-1.784-0.604-2.601h6.16c0.738 0 1.556-1.154 1.556-1.778v-2.732c0-2.592-1.733-5.022-4.267-6.157zM19.556 5.333c1.96 0 3.556 1.595 3.556 3.556s-1.596 3.556-3.556 3.556c-0.375 0-0.73-0.074-1.069-0.182-0.58-0.935-1.369-1.723-2.304-2.303-0.108-0.34-0.182-0.695-0.182-1.070 0-1.96 1.596-3.556 3.556-3.556zM12.444 12.444c1.964 0 3.556 1.592 3.556 3.556s-1.592 3.556-3.556 3.556c-1.757 0-3.208-1.278-3.495-2.954-0.038-0.195-0.061-0.395-0.061-0.602 0-1.964 1.592-3.556 3.556-3.556zM19.556 26.667h-14.222v-0.954c0-0.965 0.634-1.968 1.597-2.601h11.028c0.964 0.633 1.597 1.636 1.597 2.601v0.954zM26.667 19.556h-8.070c0.607-1.047 0.959-2.259 0.959-3.556h5.514c0.964 0.633 1.597 1.636 1.597 2.601v0.954z"></path>
</svg>
