<?xml version="1.0" encoding="utf-8"?>
<!-- Generated by IcoMoon.io -->
<!DOCTYPE svg PUBLIC "-//W3C//DTD SVG 1.1//EN" "http://www.w3.org/Graphics/SVG/1.1/DTD/svg11.dtd">
<svg version="1.1" xmlns="http://www.w3.org/2000/svg" xmlns:xlink="http://www.w3.org/1999/xlink" width="32" height="32" viewBox="0 0 32 32">
<path d="M24.381 13.606l-0.001 0c0.324-0.922 0.509-1.908 0.509-2.94 0-4.909-3.979-8.889-8.889-8.889s-8.889 3.98-8.889 8.889c0 1.032 0.185 2.018 0.509 2.94v-0c-3.464 1.762-5.842 5.35-5.842 9.503v5.333c0 0.983 0.797 1.78 1.78 1.78h24.884c0.983 0 1.78-0.797 1.78-1.78v-5.333c0-4.152-2.378-7.741-5.841-9.503zM16 5.333c2.941 0 5.333 2.392 5.333 5.333s-2.392 5.333-5.333 5.333c-2.941 0-5.333-2.392-5.333-5.333s2.392-5.333 5.333-5.333zM26.667 26.667h-21.333v-3.558c0-2.852 1.693-5.311 4.122-6.442 1.625 1.772 3.951 2.889 6.545 2.889s4.92-1.117 6.545-2.889c2.429 1.131 4.122 3.59 4.122 6.442v3.558z"></path>
</svg>
