<?xml version="1.0" encoding="utf-8"?>
<!-- Generated by IcoMoon.io -->
<!DOCTYPE svg PUBLIC "-//W3C//DTD SVG 1.1//EN" "http://www.w3.org/Graphics/SVG/1.1/DTD/svg11.dtd">
<svg version="1.1" xmlns="http://www.w3.org/2000/svg" xmlns:xlink="http://www.w3.org/1999/xlink" width="32" height="32" viewBox="0 0 32 32">
<path d="M30.224 7.111c-0.206 0-0.418 0.040-0.626 0.126l-8.265 3.4v-3.526c0-0.982-0.796-1.778-1.778-1.778h-17.778c-0.982 0-1.778 0.796-1.778 1.778v17.778c0 0.982 0.796 1.778 1.778 1.778h17.778c0.982 0 1.778-0.796 1.778-1.778v-3.526l8.265 3.4c0.208 0.086 0.42 0.126 0.626 0.126 0.942 0 1.776-0.835 1.776-1.952v-13.873c0-1.117-0.834-1.952-1.776-1.952zM17.778 22.222c0 0.491-0.398 0.889-0.889 0.889h-12.444c-0.491 0-0.889-0.398-0.889-0.889v-12.444c0-0.491 0.398-0.889 0.889-0.889h12.444c0.491 0 0.889 0.398 0.889 0.889v12.444zM28.444 20.444l-7.111-2.925v-3.036l7.111-2.925v8.887z"></path>
</svg>
