<?xml version="1.0" encoding="utf-8"?>
<!-- Generated by IcoMoon.io -->
<!DOCTYPE svg PUBLIC "-//W3C//DTD SVG 1.1//EN" "http://www.w3.org/Graphics/SVG/1.1/DTD/svg11.dtd">
<svg version="1.1" xmlns="http://www.w3.org/2000/svg" xmlns:xlink="http://www.w3.org/1999/xlink" width="32" height="32" viewBox="0 0 32 32">
<path d="M28.188 8.5c-0.908 0-5.625 0-5.625 0v-3.75c0-2.080-4.629-3.75-10.313-3.75s-10.313 1.67-10.313 3.75v22.5c0 2.080 4.629 3.75 10.313 3.75s10.313-1.67 10.313-3.75v-3.75s4.688 0 5.625 0 1.875-0.879 1.875-1.875 0-10.254 0-11.25-0.85-1.875-1.875-1.875zM7.563 25.375h-1.875v-15h1.875v15zM13.188 27.25h-1.875v-15h1.875v15zM18.813 25.375h-1.875v-15h1.875v15zM12.25 6.625c-3.633 0-6.563-0.85-6.563-1.875s2.93-1.875 6.563-1.875 6.563 0.85 6.563 1.875-2.93 1.875-6.563 1.875zM26.313 19.75h-3.75v-7.5h3.75v7.5z"></path>
</svg>
