<?xml version="1.0" encoding="utf-8"?>
<!-- Generated by IcoMoon.io -->
<!DOCTYPE svg PUBLIC "-//W3C//DTD SVG 1.1//EN" "http://www.w3.org/Graphics/SVG/1.1/DTD/svg11.dtd">
<svg version="1.1" xmlns="http://www.w3.org/2000/svg" xmlns:xlink="http://www.w3.org/1999/xlink" width="32" height="32" viewBox="0 0 32 32">
<path d="M8.5 1v30l7.5-5 7.5 5v-30h-15zM20.854 8.686l-2.808 2.029 1.062 3.258c0.107 0.327-0.027 0.432-0.295 0.258l-2.813-2.035-2.813 2.032c-0.267 0.175-0.403 0.070-0.295-0.258l1.063-3.258-2.808-2.026c-0.253-0.2-0.195-0.36 0.153-0.36l3.438-0.005 1.060-3.246c0.11-0.344 0.295-0.344 0.405 0l1.062 3.246 3.435 0.005c0.349 0 0.405 0.16 0.154 0.36z"></path>
</svg>
