<?xml version="1.0" encoding="utf-8"?>
<!-- Generated by IcoMoon.io -->
<!DOCTYPE svg PUBLIC "-//W3C//DTD SVG 1.1//EN" "http://www.w3.org/Graphics/SVG/1.1/DTD/svg11.dtd">
<svg version="1.1" xmlns="http://www.w3.org/2000/svg" xmlns:xlink="http://www.w3.org/1999/xlink" width="32" height="32" viewBox="0 0 32 32">
<path d="M24.743 18.429h-3.886c-1.032 0-1.943 0.971-1.943 1.943h7.771c0-1.032-0.971-1.943-1.943-1.943zM23.073 5.8c-5.070 0-6.345 0.971-7.073 1.7-0.729-0.729-2.004-1.7-7.073-1.7s-7.498 1.396-7.498 2.368v17.789c0.88-0.486 3.612-1.457 6.496-1.7 3.491-0.273 7.104 0.273 7.104 0.971 0 0.486 0.243 0.941 0.941 0.971 0 0 0 0 0.030 0 0 0 0 0 0.030 0 0.698-0.030 0.941-0.486 0.941-0.971 0-0.698 3.613-1.245 7.104-0.971 2.854 0.212 5.616 1.214 6.496 1.7v-17.789c0-0.971-2.429-2.368-7.498-2.368zM15.029 23.164c-0.911-0.486-3.127-0.85-5.829-0.85s-5.161 0.364-5.829 0.82c0 0 0-12.477 0-13.448s1.943-1.791 5.829-1.791 5.829 0.82 5.829 1.791 0 13.479 0 13.479zM28.629 23.134c-0.668-0.455-3.127-0.82-5.829-0.82s-4.918 0.364-5.829 0.85c0 0 0-12.507 0-13.479s1.943-1.791 5.829-1.791 5.829 0.82 5.829 1.791 0 13.448 0 13.448zM24.743 14.543h-3.886c-1.032 0-1.943 0.971-1.943 1.943h7.771c0-1.032-0.971-1.943-1.943-1.943zM24.743 10.657h-3.886c-1.032 0-1.943 0.971-1.943 1.943h7.771c0-1.032-0.971-1.943-1.943-1.943zM11.143 14.543h-3.886c-0.971 0-1.943 0.911-1.943 1.943h7.771c0-0.971-0.911-1.943-1.943-1.943zM11.143 18.429h-3.886c-0.971 0-1.943 0.911-1.943 1.943h7.771c0-0.971-0.911-1.943-1.943-1.943zM11.143 10.657h-3.886c-0.971 0-1.943 0.911-1.943 1.943h7.771c0-0.971-0.911-1.943-1.943-1.943z"></path>
</svg>
