<?xml version="1.0" encoding="utf-8"?>
<!-- Generated by IcoMoon.io -->
<!DOCTYPE svg PUBLIC "-//W3C//DTD SVG 1.1//EN" "http://www.w3.org/Graphics/SVG/1.1/DTD/svg11.dtd">
<svg version="1.1" xmlns="http://www.w3.org/2000/svg" xmlns:xlink="http://www.w3.org/1999/xlink" width="32" height="32" viewBox="0 0 32 32">
<path d="M28.714 7.524h-8.476v-2.185c0-1.132-0.92-2.053-2.053-2.053h-4.371c-1.132 0-2.053 0.92-2.053 2.053v2.185h-8.476c-1.169 0-2.119 0.95-2.119 2.119v16.952c0 1.169 0.95 2.119 2.119 2.119h25.429c1.169 0 2.119-0.95 2.119-2.119v-16.952c0-1.169-0.95-2.119-2.119-2.119zM13.881 5.934c0-0.291 0.238-0.53 0.53-0.53h3.179c0.291 0 0.53 0.238 0.53 0.53v1.589h-4.238v-1.589zM28.714 18.119h-10.595v2.119h-4.238v-2.119h-10.595v-8.476h2.119v6.357h21.191v-6.357h2.119v8.476z"></path>
</svg>
