<?xml version="1.0" encoding="utf-8"?>
<!-- Generated by IcoMoon.io -->
<!DOCTYPE svg PUBLIC "-//W3C//DTD SVG 1.1//EN" "http://www.w3.org/Graphics/SVG/1.1/DTD/svg11.dtd">
<svg version="1.1" xmlns="http://www.w3.org/2000/svg" xmlns:xlink="http://www.w3.org/1999/xlink" width="32" height="32" viewBox="0 0 32 32">
<path d="M16 6.625c4.16 0 7.5 3.369 7.5 7.5 0 2.021-0.82 3.867-2.109 5.215l-0.469 2.725c2.666-1.641 4.453-4.57 4.453-7.939 0-5.186-4.189-9.375-9.375-9.375s-9.375 4.189-9.375 9.375c0 3.369 1.787 6.299 4.453 7.939l-0.469-2.725c-1.318-1.348-2.109-3.193-2.109-5.215 0-4.16 3.34-7.5 7.5-7.5zM14.125 16c-1.055 0-1.875 0.85-1.875 1.875v3.75c0 1.055 0.879 1.875 1.875 1.875v7.5h3.75v-7.5c0.996 0 1.875-0.82 1.875-1.875v-3.75c0-1.025-0.82-1.875-1.875-1.875s-1.875 0-1.875 0-0.82 0-1.875 0zM19.75 12.25c0-2.080-1.67-3.75-3.75-3.75s-3.75 1.67-3.75 3.75 1.67 3.75 3.75 3.75 3.75-1.67 3.75-3.75zM16 1c-7.236 0-13.125 5.889-13.125 13.125 0 5.771 3.75 10.635 8.936 12.393l-0.352-2.109c-3.955-1.758-6.709-5.684-6.709-10.283 0-6.211 5.039-11.25 11.25-11.25s11.25 5.039 11.25 11.25c0 4.6-2.754 8.525-6.709 10.283l-0.352 2.109c5.186-1.758 8.936-6.592 8.936-12.393 0-7.236-5.889-13.125-13.125-13.125z"></path>
</svg>
