<?xml version="1.0" encoding="utf-8"?>
<!-- Generated by IcoMoon.io -->
<!DOCTYPE svg PUBLIC "-//W3C//DTD SVG 1.1//EN" "http://www.w3.org/Graphics/SVG/1.1/DTD/svg11.dtd">
<svg version="1.1" xmlns="http://www.w3.org/2000/svg" xmlns:xlink="http://www.w3.org/1999/xlink" width="32" height="32" viewBox="0 0 32 32">
<path d="M11.762 5.405h2.119v2.119h-2.119v-2.119zM7.524 5.405h2.119v2.119h-2.119v-2.119zM3.286 5.405h2.119v2.119h-2.119v-2.119zM28.714 26.595h-25.429v-16.952h25.429v16.952zM28.714 7.524h-12.714v-2.119h12.714v2.119zM30.833 5.405c0-1.17-0.949-2.119-2.119-2.119h-25.429c-1.17 0-2.119 0.949-2.119 2.119v21.191c0 1.17 0.949 2.119 2.119 2.119h25.429c1.17 0 2.119-0.949 2.119-2.119v-21.191z"></path>
</svg>
