<?xml version="1.0" encoding="utf-8"?>
<!-- Generated by IcoMoon.io -->
<!DOCTYPE svg PUBLIC "-//W3C//DTD SVG 1.1//EN" "http://www.w3.org/Graphics/SVG/1.1/DTD/svg11.dtd">
<svg version="1.1" xmlns="http://www.w3.org/2000/svg" xmlns:xlink="http://www.w3.org/1999/xlink" width="32" height="32" viewBox="0 0 32 32">
<path d="M11.396 4.046c-1.955 2.099-1.415 5.452-1.415 5.452s1.995 2.366 5.915 2.366c3.92 0 5.916-2.366 5.916-2.366s0.531-3.308-1.382-5.409c1.197-0.667 1.902-1.63 1.61-2.285-0.33-0.738-1.788-0.804-3.262-0.147-0.548 0.244-1.014 0.553-1.377 0.883-0.46-0.083-0.947-0.14-1.505-0.14-0.52 0-0.982 0.050-1.418 0.12-0.357-0.323-0.816-0.624-1.351-0.863-1.474-0.655-2.934-0.589-3.262 0.147-0.286 0.641 0.38 1.578 1.531 2.242zM26.225 19.323c-0.305-0.065-0.596-0.102-0.878-0.129 0-0.079 0.014-0.152 0.014-0.233 0-1.242-0.176-2.427-0.46-3.554 0.608 0.052 1.382-0.088 2.165-0.435 1.474-0.657 2.403-1.788 2.075-2.522-0.328-0.738-1.788-0.804-3.262-0.147-0.689 0.307-1.25 0.72-1.627 1.143-0.287-0.675-0.61-1.323-0.991-1.912-1.116 0.93-3.228 2.319-6.176 2.627v11.896c0 0-0.009 1.183-1.184 1.183-1.174 0-1.183-1.183-1.183-1.183v-11.891c-2.951-0.308-5.064-1.699-6.177-2.627-0.365 0.566-0.679 1.183-0.959 1.824-0.38-0.393-0.91-0.771-1.552-1.057-1.474-0.655-2.934-0.589-3.262 0.147-0.329 0.736 0.601 1.865 2.075 2.522 0.734 0.327 1.461 0.474 2.051 0.447-0.283 1.124-0.461 2.305-0.461 3.542 0 0.081 0.014 0.157 0.016 0.24-0.248 0.028-0.506 0.065-0.768 0.12-1.921 0.397-3.393 1.391-3.284 2.211 0.109 0.825 1.756 1.165 3.682 0.765 0.251-0.051 0.497-0.116 0.731-0.187 0.338 1.509 0.88 2.909 1.63 4.115-0.445 0.224-0.907 0.555-1.332 0.984-1.178 1.178-1.657 2.611-1.068 3.2s2.021 0.111 3.199-1.065c0.345-0.347 0.623-0.712 0.838-1.072 1.609 1.576 3.625 2.518 5.825 2.518 2.231 0 4.28-0.97 5.898-2.585 0.217 0.381 0.508 0.769 0.873 1.134 1.176 1.178 2.611 1.657 3.2 1.067s0.111-2.019-1.067-3.198c-0.455-0.457-0.95-0.804-1.421-1.033 0.744-1.201 1.28-2.602 1.615-4.106 0.266 0.083 0.543 0.162 0.834 0.224 1.925 0.4 3.572 0.058 3.683-0.765 0.104-0.818-1.368-1.811-3.29-2.209z"></path>
</svg>
