<?xml version="1.0" encoding="utf-8"?>
<!-- Generated by IcoMoon.io -->
<!DOCTYPE svg PUBLIC "-//W3C//DTD SVG 1.1//EN" "http://www.w3.org/Graphics/SVG/1.1/DTD/svg11.dtd">
<svg version="1.1" xmlns="http://www.w3.org/2000/svg" xmlns:xlink="http://www.w3.org/1999/xlink" width="32" height="32" viewBox="0 0 32 32">
<path d="M23 17h-2v4h2v-4zM19 17h-2v4h2v-4zM23 11h-2v4h2v-4zM27 17h-2v4h2v-4zM19 23h-2v4h2v-4zM25 1h-2v4h2v-4zM9 1h-2v4h2v-4zM27 11h-2v4h2v-4zM19 11h-2v4h2v-4zM11 23h-2v4h2v-4zM7 17h-2v4h2v-4zM11 17h-2v4h2v-4zM27 3v4h-6v-4h-10v4h-6v-4h-4v28h30v-28h-4zM29 29h-26v-20h26v20zM7 23h-2v4h2v-4zM15 11h-2v4h2v-4zM15 23h-2v4h2v-4zM11 11h-2v4h2v-4zM15 17h-2v4h2v-4zM23 23h-2v4h2v-4z"></path>
</svg>
