<?xml version="1.0" encoding="utf-8"?>
<!-- Generated by IcoMoon.io -->
<!DOCTYPE svg PUBLIC "-//W3C//DTD SVG 1.1//EN" "http://www.w3.org/Graphics/SVG/1.1/DTD/svg11.dtd">
<svg version="1.1" xmlns="http://www.w3.org/2000/svg" xmlns:xlink="http://www.w3.org/1999/xlink" width="32" height="32" viewBox="0 0 32 32">
<path d="M30.564 17.382l-1.93-1.924c-0.249-0.253-0.656-0.255-0.906 0l-4.069 4.066-4.655 4.664-3.605-3.609c-0.253-0.254-0.66-0.254-0.911 0l-1.927 1.925c-0.253 0.254-0.253 0.661 0 0.913l5.984 5.989c0.254 0.254 0.666 0.254 0.913 0l11.102-11.113c0.257-0.251 0.257-0.657 0.002-0.913zM9.941 19.885l1.925-1.93c1.646-1.642 4.508-1.644 6.153 0.002l0.981 0.981 4.408-4.199v-12.4h-22.32v27.279h12.4l-3.547-3.57c-1.696-1.703-1.696-4.466 0-6.164zM8.528 4.818h12.4v2.48h-12.4v-2.48zM8.528 9.778h12.4v2.48h-12.4v-2.48zM6.048 17.218h-2.48v-2.48h2.48v2.48zM6.048 12.258h-2.48v-2.48h2.48v2.48zM6.048 7.298h-2.48v-2.48h2.48v2.48zM8.528 14.738h2.48v2.48h-2.48v-2.48z"></path>
</svg>
