<?xml version="1.0" encoding="utf-8"?>
<!-- Generated by IcoMoon.io -->
<!DOCTYPE svg PUBLIC "-//W3C//DTD SVG 1.1//EN" "http://www.w3.org/Graphics/SVG/1.1/DTD/svg11.dtd">
<svg version="1.1" xmlns="http://www.w3.org/2000/svg" xmlns:xlink="http://www.w3.org/1999/xlink" width="32" height="32" viewBox="0 0 32 32">
<path d="M9.571 7.429c1.183 0 2.143 0.959 2.143 2.143s-0.959 2.143-2.143 2.143-2.143-0.959-2.143-2.143c0-1.183 0.959-2.143 2.143-2.143zM31 24.571c0 3.55-2.878 6.429-6.429 6.429h-15l6.429-6.429h2.716c0.741 1.281 2.126 2.143 3.712 2.143 2.367 0 4.286-1.919 4.286-4.286s-1.919-4.286-4.286-4.286c-1.586 0-2.971 0.862-3.712 2.143h-4.859l-9.775 9.775c-1.848-1.129-3.082-3.165-3.082-5.49v-17.143c0-3.55 2.878-6.429 6.429-6.429v4.859c-1.281 0.741-2.143 2.126-2.143 3.712 0 2.367 1.919 4.286 4.286 4.286 1.583 0 2.965-0.858 3.707-2.135l5.438-0.007c0.741 1.28 2.126 2.142 3.712 2.142 2.367 0 4.286-1.919 4.286-4.286s-1.919-4.286-4.286-4.286c-1.587 0-2.972 0.862-3.713 2.144l-5.427 0.007c-0.377-0.654-0.921-1.2-1.574-1.578v-4.859h12.857c3.55 0 6.429 2.878 6.429 6.429v17.143zM20.286 22.429c0-1.183 0.959-2.143 2.143-2.143s2.143 0.959 2.143 2.143c0 1.183-0.959 2.143-2.143 2.143s-2.143-0.959-2.143-2.143zM20.286 9.571c0-1.183 0.959-2.143 2.143-2.143s2.143 0.959 2.143 2.143c0 1.183-0.959 2.143-2.143 2.143s-2.143-0.959-2.143-2.143z"></path>
</svg>
