<?xml version="1.0" encoding="utf-8"?>
<!-- Generated by IcoMoon.io -->
<!DOCTYPE svg PUBLIC "-//W3C//DTD SVG 1.1//EN" "http://www.w3.org/Graphics/SVG/1.1/DTD/svg11.dtd">
<svg version="1.1" xmlns="http://www.w3.org/2000/svg" xmlns:xlink="http://www.w3.org/1999/xlink" width="32" height="32" viewBox="0 0 32 32">
<path d="M16 1c-8.287 0-15 6.713-15 15 0 8.285 6.713 15 15 15 8.285 0 15-6.715 15-15 0-8.287-6.715-15-15-15zM16 7c1.296 0 2.517 0.286 3.63 0.776l-11.854 11.854c-0.491-1.113-0.776-2.334-0.776-3.63 0-4.969 4.028-9 9-9zM16 25c-1.314 0-2.556-0.299-3.684-0.803l11.902-11.836c0.495 1.116 0.782 2.339 0.782 3.639 0 4.972-4.028 9-9 9z"></path>
</svg>
