<?xml version="1.0" encoding="utf-8"?>
<!-- Generated by IcoMoon.io -->
<!DOCTYPE svg PUBLIC "-//W3C//DTD SVG 1.1//EN" "http://www.w3.org/Graphics/SVG/1.1/DTD/svg11.dtd">
<svg version="1.1" xmlns="http://www.w3.org/2000/svg" xmlns:xlink="http://www.w3.org/1999/xlink" width="32" height="32" viewBox="0 0 32 32">
<path d="M13.857 18.143h8.571l2.143-2.143-2.143-2.143h-4.286v-6.429l-2.143-2.143-2.143 2.143v10.714zM16 1c-8.285 0-15 6.715-15 15s6.715 15 15 15c8.285 0 15-6.715 15-15s-6.715-15-15-15zM16 26.714c-5.901 0-10.714-4.813-10.714-10.714 0-5.891 4.828-10.698 10.714-10.714 5.887 0.017 10.714 4.823 10.714 10.714 0 5.901-4.813 10.714-10.714 10.714z"></path>
</svg>
