<?xml version="1.0" encoding="utf-8"?>
<!-- Generated by IcoMoon.io -->
<!DOCTYPE svg PUBLIC "-//W3C//DTD SVG 1.1//EN" "http://www.w3.org/Graphics/SVG/1.1/DTD/svg11.dtd">
<svg version="1.1" xmlns="http://www.w3.org/2000/svg" xmlns:xlink="http://www.w3.org/1999/xlink" width="32" height="32" viewBox="0 0 32 32">
<path d="M25.286 8.571c-0.254 0-0.497 0.041-0.744 0.074-1.415-3.317-4.708-5.646-8.542-5.646s-7.126 2.329-8.543 5.646c-0.245-0.034-0.488-0.074-0.743-0.074-3.078 0-5.571 2.494-5.571 5.571s2.494 5.571 5.571 5.571c0.596 0 1.157-0.123 1.694-0.301 0.989 1.095 2.349 1.832 3.877 2.057v-1.893c-1.446-0.301-2.658-1.242-3.268-2.55-0.634 0.511-1.426 0.831-2.303 0.831-2.050 0-3.714-1.665-3.714-3.714s1.664-3.714 3.714-3.714c0.734 0 1.411 0.219 1.985 0.583 0.608-3.491 3.633-6.154 7.301-6.154 3.671 0 6.667 2.676 7.269 6.174 0.58-0.377 1.273-0.602 2.017-0.602 2.049 0 3.714 1.664 3.714 3.714s-1.665 3.714-3.714 3.714c-0.297 0-0.58-0.044-0.86-0.109-0.84 1.186-2.218 1.966-3.783 1.966-0.321 0-0.628-0.047-0.929-0.116v1.884c0.303 0.049 0.611 0.089 0.929 0.089 1.776 0 3.381-0.715 4.554-1.87 0.031 0.002 0.056 0.013 0.089 0.013 3.078 0 5.571-2.494 5.571-5.571s-2.494-5.571-5.571-5.571zM17.857 14.143h-3.714v9.286h-3.714l5.571 5.571 5.571-5.571h-3.714v-9.286z"></path>
</svg>
