<?xml version="1.0" encoding="utf-8"?>
<!-- Generated by IcoMoon.io -->
<!DOCTYPE svg PUBLIC "-//W3C//DTD SVG 1.1//EN" "http://www.w3.org/Graphics/SVG/1.1/DTD/svg11.dtd">
<svg version="1.1" xmlns="http://www.w3.org/2000/svg" xmlns:xlink="http://www.w3.org/1999/xlink" width="32" height="32" viewBox="0 0 32 32">
<path d="M16 12.333l-5.5 5.5h3.667v9.167h3.667v-9.167h3.667l-5.5-5.5zM25.167 10.5c-0.251 0-0.491 0.040-0.734 0.073-1.396-3.276-4.648-5.573-8.433-5.573s-7.034 2.297-8.434 5.573c-0.242-0.033-0.482-0.073-0.733-0.073-3.038 0-5.5 2.464-5.5 5.5 0 3.038 2.462 5.5 5.5 5.5 0.588 0 1.142-0.122 1.672-0.299 0.977 1.083 2.319 1.81 3.828 2.032v-1.869c-1.428-0.297-2.624-1.226-3.226-2.514-0.626 0.501-1.408 0.816-2.274 0.816-2.024 0-3.667-1.644-3.667-3.667s1.643-3.667 3.667-3.667c0.724 0 1.393 0.217 1.96 0.577 0.6-3.448 3.586-6.077 7.207-6.077 3.624 0 6.581 2.642 7.176 6.094 0.573-0.372 1.257-0.594 1.991-0.594 2.023 0 3.667 1.643 3.667 3.667s-1.644 3.667-3.667 3.667c-0.294 0-0.573-0.043-0.849-0.107-0.829 1.171-2.19 1.941-3.735 1.941-0.317 0-0.619-0.047-0.917-0.115v1.86c0.299 0.048 0.603 0.088 0.917 0.088 1.753 0 3.337-0.707 4.497-1.846 0.029 0 0.054 0.013 0.086 0.013 3.038 0 5.5-2.462 5.5-5.5 0-3.036-2.462-5.5-5.5-5.5z"></path>
</svg>
