<?xml version="1.0" encoding="utf-8"?>
<!-- Generated by IcoMoon.io -->
<!DOCTYPE svg PUBLIC "-//W3C//DTD SVG 1.1//EN" "http://www.w3.org/Graphics/SVG/1.1/DTD/svg11.dtd">
<svg version="1.1" xmlns="http://www.w3.org/2000/svg" xmlns:xlink="http://www.w3.org/1999/xlink" width="32" height="32" viewBox="0 0 32 32">
<path d="M9.604 14.934c0-2.132 0-6.396 0-6.396s-5.33 0-6.396 0-2.132 1.066-2.132 2.132 0 9.593 0 10.659 1.066 2.132 2.132 2.132 2.132 0 2.132 0v6.396l6.462-6.396s5.396 0 6.396 0 2.065-1.066 2.065-2.132 0-2.132 0-2.132-4.264 0-6.396 0-4.264-2.132-4.264-4.264zM28.791 2.143c-1.066 0-13.857 0-14.923 0s-2.132 1.066-2.132 2.132 0 9.593 0 10.659 1.066 2.132 2.132 2.132 6.329 0 6.329 0l6.462 6.396v-6.396s1.066 0 2.132 0 2.132-1.066 2.132-2.132 0-9.593 0-10.659-1.066-2.132-2.132-2.132z"></path>
</svg>
