<?xml version="1.0" encoding="utf-8"?>
<!-- Generated by IcoMoon.io -->
<!DOCTYPE svg PUBLIC "-//W3C//DTD SVG 1.1//EN" "http://www.w3.org/Graphics/SVG/1.1/DTD/svg11.dtd">
<svg version="1.1" xmlns="http://www.w3.org/2000/svg" xmlns:xlink="http://www.w3.org/1999/xlink" width="32" height="32" viewBox="0 0 32 32">
<path d="M5.2 21.4h3.6v-1.8h-3.6v1.8zM10.6 21.4h3.6v-1.8h-3.6v1.8zM12.4 16h-7.2v1.8h7.2v-1.8zM8.8 14.2h1.8l3.6-3.6h-1.8l-3.6 3.6zM14.2 17.8h5.4v-1.8h-5.4v1.8zM28.6 7c-0.9 0-24.3 0-25.2 0s-1.8 0.9-1.8 1.8 0 13.5 0 14.4 0.9 1.8 1.8 1.8 24.3 0 25.2 0 1.8-0.9 1.8-1.8 0-13.5 0-14.4-0.9-1.8-1.8-1.8zM28.6 14.2v8.1s0 0.9-0.9 0.9h-23.4c-0.9 0-0.9-0.9-0.9-0.9v-8.1h1.8l3.6-3.6h-5.4v-0.9s0-0.9 0.9-0.9h23.4c0.9 0 0.9 0.9 0.9 0.9v0.9h-10.8l-3.6 3.6h14.4z"></path>
</svg>
