<?xml version="1.0" encoding="utf-8"?>
<!-- Generated by IcoMoon.io -->
<!DOCTYPE svg PUBLIC "-//W3C//DTD SVG 1.1//EN" "http://www.w3.org/Graphics/SVG/1.1/DTD/svg11.dtd">
<svg version="1.1" xmlns="http://www.w3.org/2000/svg" xmlns:xlink="http://www.w3.org/1999/xlink" width="32" height="32" viewBox="0 0 32 32">
<path d="M16 14.287c-2.22 0-4.020 1.801-4.020 4.020s1.801 4.020 4.020 4.020 4.020-1.801 4.020-4.020c0-0.306-0.041-0.604-0.108-0.89 2.943-3.423 7.5-8.761 9.934-11.802 0.834-1.041-0.083-2.026-1.154-1.154-3.072 2.502-8.377 7.020-11.787 9.937-0.291-0.068-0.594-0.112-0.905-0.112zM17.149 6.765c0-0.637-0.517-1.154-1.154-1.154s-1.154 0.517-1.154 1.154 0.517 1.154 1.154 1.154 1.154-0.517 1.154-1.154zM24.072 15.995c0 0.637 0.518 1.154 1.154 1.154s1.154-0.517 1.154-1.154-0.518-1.154-1.154-1.154-1.154 0.517-1.154 1.154zM11.38 6.765c-0.637 0-1.154 0.517-1.154 1.154s0.517 1.154 1.154 1.154 1.154-0.517 1.154-1.154-0.517-1.154-1.154-1.154zM9.072 11.38c0-0.637-0.517-1.154-1.154-1.154s-1.154 0.517-1.154 1.154 0.517 1.154 1.154 1.154 1.154-0.517 1.154-1.154zM5.611 15.995c0 0.637 0.517 1.154 1.154 1.154s1.154-0.517 1.154-1.154-0.517-1.154-1.154-1.154-1.154 0.517-1.154 1.154zM21.765 7.919c0-0.637-0.518-1.154-1.154-1.154s-1.154 0.517-1.154 1.154 0.518 1.154 1.154 1.154 1.154-0.517 1.154-1.154zM29.589 9.679l-2.479 3.243c0.27 0.98 0.428 2.010 0.428 3.078 0 6.373-5.168 11.538-11.538 11.538s-11.538-5.165-11.538-11.538c0-6.371 5.168-11.538 11.538-11.538 2.375 0 4.579 0.72 6.414 1.95l2.858-2.186c-2.551-2.015-5.765-3.226-9.271-3.226-8.284 0-15 6.716-15 15s6.716 15 15 15 15-6.716 15-15c0-2.261-0.514-4.399-1.411-6.321z"></path>
</svg>
