<?xml version="1.0" encoding="utf-8"?>
<!-- Generated by IcoMoon.io -->
<!DOCTYPE svg PUBLIC "-//W3C//DTD SVG 1.1//EN" "http://www.w3.org/Graphics/SVG/1.1/DTD/svg11.dtd">
<svg version="1.1" xmlns="http://www.w3.org/2000/svg" xmlns:xlink="http://www.w3.org/1999/xlink" width="32" height="32" viewBox="0 0 32 32">
<path d="M16 31c-7.099 0-12.857-1.921-12.857-4.286 0-1.293 0-2.708 0-4.286 0-0.372 0.186-0.726 0.454-1.071 1.433 1.846 6.418 3.214 12.403 3.214s10.97-1.369 12.403-3.214c0.268 0.345 0.454 0.699 0.454 1.071 0 1.241 0 2.557 0 4.286 0 2.365-5.759 4.286-12.857 4.286zM16 22.429c-7.099 0-12.857-1.921-12.857-4.286 0-1.294 0-2.707 0-4.286 0-0.227 0.086-0.448 0.201-0.666v0c0.065-0.137 0.151-0.272 0.253-0.405 1.433 1.845 6.418 3.214 12.403 3.214s10.97-1.37 12.403-3.214c0.102 0.133 0.188 0.268 0.253 0.405v0c0.115 0.219 0.201 0.439 0.201 0.666 0 1.241 0 2.556 0 4.286 0 2.365-5.759 4.286-12.857 4.286zM16 13.857c-7.099 0-12.857-1.92-12.857-4.286 0-0.677 0-1.393 0-2.143 0-0.681 0-1.388 0-2.143 0-2.366 5.758-4.286 12.857-4.286s12.857 1.92 12.857 4.286c0 0.669 0 1.378 0 2.143 0 0.656 0 1.348 0 2.143 0 2.366-5.759 4.286-12.857 4.286zM16 3.143c-4.734 0-8.571 0.957-8.571 2.143s3.838 2.143 8.571 2.143 8.571-0.957 8.571-2.143-3.838-2.143-8.571-2.143z"></path>
</svg>
