<?xml version="1.0" encoding="utf-8"?>
<!-- Generated by IcoMoon.io -->
<!DOCTYPE svg PUBLIC "-//W3C//DTD SVG 1.1//EN" "http://www.w3.org/Graphics/SVG/1.1/DTD/svg11.dtd">
<svg version="1.1" xmlns="http://www.w3.org/2000/svg" xmlns:xlink="http://www.w3.org/1999/xlink" width="32" height="32" viewBox="0 0 32 32">
<path d="M23.5 1h-15c-1.035 0-1.875 0.84-1.875 1.875v26.25c0 1.036 0.84 1.875 1.875 1.875h15c1.036 0 1.875-0.839 1.875-1.875v-26.25c0-1.035-0.839-1.875-1.875-1.875zM15.063 2.875h1.875c0.516 0 0.938 0.42 0.938 0.938s-0.421 0.938-0.938 0.938h-1.875c-0.517 0-0.938-0.42-0.938-0.938s0.42-0.938 0.938-0.938zM16.938 29.125h-1.875c-0.517 0-0.938-0.421-0.938-0.938s0.42-0.938 0.938-0.938h1.875c0.516 0 0.938 0.421 0.938 0.938s-0.421 0.938-0.938 0.938zM23.5 25.375h-15v-18.75h15v18.75z"></path>
</svg>
