<?xml version="1.0" encoding="utf-8"?>
<!-- Generated by IcoMoon.io -->
<!DOCTYPE svg PUBLIC "-//W3C//DTD SVG 1.1//EN" "http://www.w3.org/Graphics/SVG/1.1/DTD/svg11.dtd">
<svg version="1.1" xmlns="http://www.w3.org/2000/svg" xmlns:xlink="http://www.w3.org/1999/xlink" width="32" height="32" viewBox="0 0 32 32">
<path d="M18.132 6.407c-1.177 0-2.132 0.954-2.132 2.132s0.954 2.132 2.132 2.132 2.132-0.954 2.132-2.132-0.954-2.132-2.132-2.132zM28.791 12.802l-4.264 4.264v-2.132c0-1.020-0.717-1.872-1.674-2.082 1.040-1.137 1.674-2.651 1.674-4.314 0-3.532-2.863-6.396-6.396-6.396-3.368 0-6.129 2.604-6.377 5.909-1.134-1.023-2.635-1.645-4.282-1.645-3.532 0-6.396 2.863-6.396 6.396s2.863 6.396 6.396 6.396h-2.132v4.264h2.132v4.264c0 1.177 0.954 2.132 2.132 2.132h12.791c1.177 0 2.132-0.954 2.132-2.132v-2.132l4.264 4.264h2.132v-17.055h-2.132zM7.473 10.67c-1.177 0-2.132 0.954-2.132 2.132s0.954 2.132 2.132 2.132v2.132c-2.355 0-4.264-1.909-4.264-4.264s1.909-4.264 4.264-4.264 4.264 1.909 4.264 4.264h-2.132c0-1.177-0.954-2.132-2.132-2.132zM18.132 23.462h-4.264v-4.264h4.264v4.264zM22.396 19.824c-1.117-1.117-2.341-2.342-2.444-2.445-0.193-0.193-0.459-0.312-0.754-0.312h-6.396c-0.589 0-1.066 0.477-1.066 1.066v6.396c0 0.277 0.106 0.53 0.28 0.72 0.018 0.019 1.303 1.305 2.479 2.478h-3.824c-0.589 0-1.066-0.477-1.066-1.066v-10.659c0-0.589 0.477-1.066 1.066-1.066h10.659c0.589 0 1.066 0.477 1.066 1.066v3.824zM18.132 12.802c-2.355 0-4.264-1.909-4.264-4.264s1.909-4.264 4.264-4.264 4.264 1.909 4.264 4.264c0 2.355-1.909 4.264-4.264 4.264zM28.791 23.462l-2.132-2.132 0.003-4.267 2.129-2.129v8.528z"></path>
</svg>
