<?xml version="1.0" encoding="utf-8"?>
<!-- Generated by IcoMoon.io -->
<!DOCTYPE svg PUBLIC "-//W3C//DTD SVG 1.1//EN" "http://www.w3.org/Graphics/SVG/1.1/DTD/svg11.dtd">
<svg version="1.1" xmlns="http://www.w3.org/2000/svg" xmlns:xlink="http://www.w3.org/1999/xlink" width="32" height="32" viewBox="0 0 32 32">
<path d="M29 3c-0.929 0-25.071 0-26 0s-1.857 0.929-1.857 1.857 0 15.786 0 16.714 0.929 1.857 1.857 1.857 9.286 0 9.286 0-5.571 1.857-5.571 3.714c0 0.929 0.929 1.857 1.857 1.857s13.929 0 14.857 0 1.857-0.929 1.857-1.857c0-1.857-5.571-3.714-5.571-3.714s8.357 0 9.286 0 1.857-0.929 1.857-1.857 0-15.786 0-16.714-0.929-1.857-1.857-1.857zM29 21.571h-26v-16.714h26v16.714zM27.143 6.714h-5.571c-11.143 1.857-15.728 8.705-16.714 11.143v1.857h22.286v-13z"></path>
</svg>
