<?xml version="1.0" encoding="utf-8"?>
<!-- Generated by IcoMoon.io -->
<!DOCTYPE svg PUBLIC "-//W3C//DTD SVG 1.1//EN" "http://www.w3.org/Graphics/SVG/1.1/DTD/svg11.dtd">
<svg version="1.1" xmlns="http://www.w3.org/2000/svg" xmlns:xlink="http://www.w3.org/1999/xlink" width="32" height="32" viewBox="0 0 32 32">
<path d="M18.143 9.571h-4.286v4.286h-4.286v4.286h4.286v4.286h4.286v-4.286h4.286v-4.286h-4.286v-4.286zM28.857 1c-1.071 0-24.643 0-25.714 0s-2.143 1.071-2.143 2.143 0 24.643 0 25.714 1.071 2.143 2.143 2.143 24.643 0 25.714 0 2.143-1.071 2.143-2.143 0-24.643 0-25.714-1.071-2.143-2.143-2.143zM26.714 25.643c0 0.536-0.569 1.071-1.071 1.071s-18.683 0-19.286 0-1.071-0.402-1.071-1.071c0-0.536 0-18.75 0-19.286s0.536-1.071 1.071-1.071 18.784 0 19.286 0 1.071 0.536 1.071 1.071 0 18.75 0 19.286z"></path>
</svg>
