<?xml version="1.0" encoding="utf-8"?>
<!-- Generated by IcoMoon.io -->
<!DOCTYPE svg PUBLIC "-//W3C//DTD SVG 1.1//EN" "http://www.w3.org/Graphics/SVG/1.1/DTD/svg11.dtd">
<svg version="1.1" xmlns="http://www.w3.org/2000/svg" xmlns:xlink="http://www.w3.org/1999/xlink" width="32" height="32" viewBox="0 0 32 32">
<path d="M28.857 1h-25.714c-1.071 0-2.143 1.071-2.143 2.143v25.714c0 1.071 1.071 2.143 2.143 2.143h25.714c1.071 0 2.143-1.071 2.143-2.143v-25.714c0-1.071-1.071-2.143-2.143-2.143zM26.714 25.643c0 0.536-0.569 1.071-1.071 1.071h-19.286c-0.603 0-1.071-0.402-1.071-1.071v-19.286c0-0.536 0.536-1.071 1.071-1.071h19.286c0.502 0 1.071 0.536 1.071 1.071v19.286zM9.571 19.147v3.281h3.281l9.576-9.576v-3.281h-3.281l-9.576 9.576z"></path>
</svg>
