<?xml version="1.0" encoding="utf-8"?>
<!-- Generated by IcoMoon.io -->
<!DOCTYPE svg PUBLIC "-//W3C//DTD SVG 1.1//EN" "http://www.w3.org/Graphics/SVG/1.1/DTD/svg11.dtd">
<svg version="1.1" xmlns="http://www.w3.org/2000/svg" xmlns:xlink="http://www.w3.org/1999/xlink" width="32" height="32" viewBox="0 0 32 32">
<path d="M16 6c-5.455 0-11.818 3.636-14.545 10.909 2.727 5.455 8.182 9.091 14.545 9.091s11.818-3.636 14.545-9.091c-2.727-7.273-9.091-10.909-14.545-10.909zM16 24.182c-5.455 0-10-3.636-10.909-7.273 0.909-3.636 5.455-7.273 10.909-7.273s10 3.636 10.909 7.273c-0.909 3.636-5.455 7.273-10.909 7.273zM16 11.455c-0.568 0-1.080 0.114-1.591 0.256 0.938 0.426 1.591 1.364 1.591 2.472 0 1.506-1.222 2.727-2.727 2.727-1.108 0-2.045-0.653-2.472-1.591-0.142 0.511-0.256 1.023-0.256 1.591 0 3.011 2.443 5.455 5.455 5.455s5.455-2.443 5.455-5.455-2.443-5.455-5.455-5.455z"></path>
</svg>
