<?xml version="1.0" encoding="utf-8"?>
<!-- Generated by IcoMoon.io -->
<!DOCTYPE svg PUBLIC "-//W3C//DTD SVG 1.1//EN" "http://www.w3.org/Graphics/SVG/1.1/DTD/svg11.dtd">
<svg version="1.1" xmlns="http://www.w3.org/2000/svg" xmlns:xlink="http://www.w3.org/1999/xlink" width="32" height="32" viewBox="0 0 32 32">
<path d="M28.714 7.524c-1.059 0-11.125 0-11.655 0s-1.059-0.53-1.059-1.059 0 0 0-1.059-1.059-2.119-2.119-2.119-9.536 0-10.595 0-2.119 1.059-2.119 2.119 0 23.309 0 23.309h29.667s0-18.012 0-19.071-1.059-2.119-2.119-2.119zM13.881 7.524h-10.595s0-0.497 0-1.059 0.53-1.059 1.059-1.059 7.98 0 8.476 0 1.059 0.497 1.059 1.059 0 1.059 0 1.059z"></path>
</svg>
