<?xml version="1.0" encoding="utf-8"?>
<!-- Generated by IcoMoon.io -->
<!DOCTYPE svg PUBLIC "-//W3C//DTD SVG 1.1//EN" "http://www.w3.org/Graphics/SVG/1.1/DTD/svg11.dtd">
<svg version="1.1" xmlns="http://www.w3.org/2000/svg" xmlns:xlink="http://www.w3.org/1999/xlink" width="32" height="32" viewBox="0 0 32 32">
<path d="M3.143 31v-30h19.286l6.429 6.429v23.571h-25.714zM26.714 9.571l-6.429-6.429h-15v25.714h21.429v-19.286zM13.857 16h-6.429v-8.571h6.429v8.571zM11.714 9.571h-2.143v4.286h2.143v-4.286zM11.714 24.571h2.143v2.143h-6.429v-2.143h2.143v-4.286h-2.143v-2.143h4.286v6.429zM20.286 13.857h2.143v2.143h-6.429v-2.143h2.143v-4.286h-2.143v-2.143h4.286v6.429zM22.429 26.714h-6.429v-8.571h6.429v8.571zM20.286 20.286h-2.143v4.286h2.143v-4.286z"></path>
</svg>
