<?xml version="1.0" encoding="utf-8"?>
<!-- Generated by IcoMoon.io -->
<!DOCTYPE svg PUBLIC "-//W3C//DTD SVG 1.1//EN" "http://www.w3.org/Graphics/SVG/1.1/DTD/svg11.dtd">
<svg version="1.1" xmlns="http://www.w3.org/2000/svg" xmlns:xlink="http://www.w3.org/1999/xlink" width="32" height="32" viewBox="0 0 32 32">
<path d="M28.714 7.524h-11.655c-0.53 0-1.059-0.53-1.059-1.059s0 0 0-1.059-1.059-2.119-2.119-2.119h-10.595c-1.059 0-2.119 1.059-2.119 2.119s0 23.309 0 23.309h29.667s0-18.012 0-19.071-1.059-2.119-2.119-2.119zM3.286 6.464c0-0.563 0.53-1.059 1.059-1.059h8.476c0.497 0 1.059 0.497 1.059 1.059s0 1.059 0 1.059h-10.595s0-0.497 0-1.059zM16 24.476v-4.238c-4.139 0-7.417 1.854-8.476 6.357 0-6.92 3.543-10.595 8.476-10.595 0-1.622 0-4.238 0-4.238l8.476 6.357-8.476 6.357z"></path>
</svg>
