<?xml version="1.0" encoding="utf-8"?>
<!-- Generated by IcoMoon.io -->
<!DOCTYPE svg PUBLIC "-//W3C//DTD SVG 1.1//EN" "http://www.w3.org/Graphics/SVG/1.1/DTD/svg11.dtd">
<svg version="1.1" xmlns="http://www.w3.org/2000/svg" xmlns:xlink="http://www.w3.org/1999/xlink" width="32" height="32" viewBox="0 0 32 32">
<path d="M13.857 18.143v-2.143h-2.143v2.143h2.143zM13.857 13.857v-2.143h-2.143v2.143h2.143zM13.857 9.571v-2.143h-2.143v2.143h2.143zM9.571 11.714h2.143v-2.143h-2.143v2.143zM22.429 1h-19.286v30h25.714v-23.571l-6.429-6.429zM26.714 28.857h-21.429v-25.714h6.429v2.143h2.143v-2.143h6.429l6.429 6.429v19.286zM9.571 7.429h2.143v-2.143h-2.143v2.143zM9.571 16h2.143v-2.143h-2.143v2.143zM9.571 20.286l-2.143 2.143v4.286h8.571v-4.286l-2.143-2.143h-2.143v-2.143h-2.143v2.143zM13.857 22.429v2.143h-4.286v-2.143h4.286z"></path>
</svg>
