<?xml version="1.0" encoding="utf-8"?>
<!-- Generated by IcoMoon.io -->
<!DOCTYPE svg PUBLIC "-//W3C//DTD SVG 1.1//EN" "http://www.w3.org/Graphics/SVG/1.1/DTD/svg11.dtd">
<svg version="1.1" xmlns="http://www.w3.org/2000/svg" xmlns:xlink="http://www.w3.org/1999/xlink" width="32" height="32" viewBox="0 0 32 32">
<path d="M22.429 1h-19.286v30h25.714v-23.571l-6.429-6.429zM5.286 3.143h8.565c-0.442 0.137-0.913 0.503-1.159 1.436-0.444 1.654-0.235 4.378 0.523 7.009-0.808 2.719-4.106 9.263-4.329 9.652-0.523 0.163-2.188 0.791-3.6 2.003v-20.1zM14.765 13.438c1.929 5.015 3.181 5.007 4.526 5.611-2.811 0.433-4.959 0.743-7.786 1.99-0.123 0.216 2.561-4.885 3.259-7.601zM26.714 28.857l-21.429-0.013c0.026 0.002 0.037 0.013 0.062 0.013 1.132 0 2.838-0.703 6.046-6.106 1.279-0.517 2.413-0.9 2.627-0.969 1.969-0.498 4.185-0.891 6.28-1.117 1.823 0.91 4.242 1.53 5.619 1.618 0.322 0.017 0.538-0.040 0.795-0.067v6.642zM26.714 18.457c-0.793-0.492-1.808-0.837-2.984-0.837-0.812 0-1.695 0.046-2.635 0.146-0.902-0.435-3.099-1.096-4.928-6.369 0.572-3.47 0.426-5.811 0.426-5.811 0.227-1.772-0.782-2.439-1.729-2.439 0 0-0.009-0.004-0.011-0.004h5.433l6.429 6.429v8.885z"></path>
</svg>
