<?xml version="1.0" encoding="utf-8"?>
<!-- Generated by IcoMoon.io -->
<!DOCTYPE svg PUBLIC "-//W3C//DTD SVG 1.1//EN" "http://www.w3.org/Graphics/SVG/1.1/DTD/svg11.dtd">
<svg version="1.1" xmlns="http://www.w3.org/2000/svg" xmlns:xlink="http://www.w3.org/1999/xlink" width="32" height="32" viewBox="0 0 32 32">
<path d="M22.429 1h-19.286v30h25.714v-23.571l-6.429-6.429zM26.714 28.857h-21.429v-25.714h15l6.429 6.429v19.286zM7.429 7.429v17.143h4.286c0-2.365 1.92-4.286 4.286-4.286-2.366 0-4.286-1.921-4.286-4.286 0-2.366 1.92-4.286 4.286-4.286 2.365 0 4.286 1.92 4.286 4.286 0 2.365-1.921 4.286-4.286 4.286 2.365 0 4.286 1.921 4.286 4.286h4.286v-12.857l-4.286-4.286h-12.857z"></path>
</svg>
