<?xml version="1.0" encoding="utf-8"?>
<!-- Generated by IcoMoon.io -->
<!DOCTYPE svg PUBLIC "-//W3C//DTD SVG 1.1//EN" "http://www.w3.org/Graphics/SVG/1.1/DTD/svg11.dtd">
<svg version="1.1" xmlns="http://www.w3.org/2000/svg" xmlns:xlink="http://www.w3.org/1999/xlink" width="32" height="32" viewBox="0 0 32 32">
<path d="M28.623 17.052c-1.052 0-6.312 0-6.312 0 0-1.052-1.052-2.104-2.104-2.104s-3.156 0-4.208 0-2.104 1.052-2.104 2.104 0 10.519 0 10.519h16.831s0-7.364 0-8.416-1.052-2.104-2.104-2.104zM20.208 19.156h-4.208s0-0.559 0-1.052 0.493-1.052 1.052-1.052 1.578 0 2.104 0 1.052 0.493 1.052 1.052 0 1.052 0 1.052zM28.623 8.636c-1.052 0-11.045 0-11.571 0s-1.052-0.559-1.052-1.052 0 0 0-1.052-1.052-2.104-2.104-2.104-9.468 0-10.519 0-2.104 1.052-2.104 2.104 0 21.039 0 21.039h10.519s0-11.571 0-12.623 1.052-2.104 2.104-2.104 7.364 0 8.416 0 2.104 1.052 2.104 2.104h6.312s0-3.156 0-4.208-1.052-2.104-2.104-2.104zM13.896 8.636h-10.519s0-0.526 0-1.052 0.526-1.052 1.052-1.052 7.89 0 8.416 0 1.052 0.559 1.052 1.052 0 1.052 0 1.052z"></path>
</svg>
