<?xml version="1.0" encoding="utf-8"?>
<!-- Generated by IcoMoon.io -->
<!DOCTYPE svg PUBLIC "-//W3C//DTD SVG 1.1//EN" "http://www.w3.org/Graphics/SVG/1.1/DTD/svg11.dtd">
<svg version="1.1" xmlns="http://www.w3.org/2000/svg" xmlns:xlink="http://www.w3.org/1999/xlink" width="32" height="32" viewBox="0 0 32 32">
<path d="M14.934 1c1.591 4.263 0.764 6.585-1.018 8.431-1.941 2.036-4.963 3.563-7.094 6.554-2.831 3.977-3.309 12.725 6.904 15.016-4.295-2.259-5.217-8.812-0.573-12.916-1.209 3.977 1.018 6.522 3.786 5.599 2.704-0.923 4.486 1.018 4.422 3.245-0.032 1.527-0.636 2.831-2.195 3.563 6.649-1.177 9.321-6.681 9.321-10.88 0-5.536-4.931-6.299-2.45-10.944-2.959 0.255-3.977 2.195-3.69 5.376 0.191 2.1-2.004 3.531-3.627 2.577-1.304-0.795-1.273-2.322-0.127-3.468 2.45-2.418 3.404-7.985-3.659-12.153z"></path>
</svg>
