<?xml version="1.0" encoding="utf-8"?>
<!-- Generated by IcoMoon.io -->
<!DOCTYPE svg PUBLIC "-//W3C//DTD SVG 1.1//EN" "http://www.w3.org/Graphics/SVG/1.1/DTD/svg11.dtd">
<svg version="1.1" xmlns="http://www.w3.org/2000/svg" xmlns:xlink="http://www.w3.org/1999/xlink" width="32" height="32" viewBox="0 0 32 32">
<path d="M15.998 10.576c-2.994 0-5.422 2.428-5.422 5.424 0 2.992 2.428 5.426 5.422 5.426 2.995 0 5.405-2.434 5.405-5.426-0-2.996-2.411-5.424-5.405-5.424zM26.869 19.116l-0.977 2.354 1.973 3.876-2.417 2.417-3.965-1.873-2.354 0.967-1.195 3.658-0.153 0.485h-3.416l-1.478-4.129-2.354-0.971-3.881 1.965-2.416-2.415 1.871-3.968-0.97-2.352-4.136-1.35v-3.414l4.132-1.481 0.97-2.35-1.738-3.431-0.229-0.45 2.413-2.413 3.971 1.87 2.351-0.972 1.194-3.656 0.154-0.484h3.415l1.48 4.134 2.348 0.972 3.886-1.969 2.415 2.413-1.871 3.964 0.967 2.355 4.143 1.348v3.413l-4.131 1.486z"></path>
</svg>
