<?xml version="1.0" encoding="utf-8"?>
<!-- Generated by IcoMoon.io -->
<!DOCTYPE svg PUBLIC "-//W3C//DTD SVG 1.1//EN" "http://www.w3.org/Graphics/SVG/1.1/DTD/svg11.dtd">
<svg version="1.1" xmlns="http://www.w3.org/2000/svg" xmlns:xlink="http://www.w3.org/1999/xlink" width="32" height="32" viewBox="0 0 32 32">
<path d="M17.059 31h10.592v-10.592h-10.592v10.592zM4.349 31h10.592v-10.592h-10.592v10.592zM17.051 11.676c1.042-0.116 2.213-0.245 2.892-0.322 2.776-0.309 5.275-2.809 5.583-5.584 0.308-2.772-1.688-4.77-4.458-4.459-2.166 0.242-4.147 1.819-5.068 3.818-0.922-1.998-2.902-3.576-5.067-3.82-2.771-0.309-4.77 1.689-4.459 4.461 0.309 2.775 2.809 5.273 5.582 5.584 0.68 0.077 1.851 0.208 2.893 0.322-0.017 0.14-0.008 0.259-0.008 0.259h2.118c0 0 0.008-0.119-0.008-0.259zM20.613 3.882c1.498-0.168 2.582 0.912 2.412 2.412-0.166 1.5-1.518 2.852-3.016 3.019-1.502 0.167-2.582-0.913-2.414-2.413s1.52-2.852 3.018-3.018zM11.992 9.313c-1.498-0.168-2.849-1.519-3.016-3.019s0.913-2.58 2.41-2.412c1.5 0.167 2.852 1.518 3.019 3.018s-0.913 2.58-2.413 2.413zM17.059 11.935v6.355h12.71v-6.355h-12.71zM2.231 18.29h12.71v-6.355h-12.71v6.355z"></path>
</svg>
