<?xml version="1.0" encoding="utf-8"?>
<!-- Generated by IcoMoon.io -->
<!DOCTYPE svg PUBLIC "-//W3C//DTD SVG 1.1//EN" "http://www.w3.org/Graphics/SVG/1.1/DTD/svg11.dtd">
<svg version="1.1" xmlns="http://www.w3.org/2000/svg" xmlns:xlink="http://www.w3.org/1999/xlink" width="32" height="32" viewBox="0 0 32 32">
<path d="M22.436 5.29c-2.38 0-4.291 1.911-4.291 4.29 0 1.575 0.872 2.95 2.145 3.687v0.603c0 2.145-2.145 4.29-4.29 4.29-1.777 0-3.184 0.369-4.29 0.972v-10.156c1.274-0.737 2.145-2.112 2.145-3.687 0-2.38-1.911-4.29-4.29-4.29s-4.29 1.911-4.29 4.29c0 1.575 0.872 2.95 2.145 3.687v14.045c-1.274 0.737-2.145 2.112-2.145 3.687 0 2.38 1.911 4.291 4.29 4.291s4.29-1.911 4.29-4.291c0-1.14-0.436-2.145-1.14-2.916 0.637-0.771 1.642-1.374 3.285-1.374 4.29 0 8.581-4.29 8.581-8.581v-0.603c1.274-0.737 2.145-2.112 2.145-3.687 0-2.38-1.911-4.29-4.29-4.29zM9.564 3.145c1.173 0 2.145 0.972 2.145 2.145s-0.972 2.145-2.145 2.145-2.145-0.972-2.145-2.145 0.972-2.145 2.145-2.145zM9.564 28.888c-1.173 0-2.145-0.972-2.145-2.145s0.972-2.145 2.145-2.145 2.145 0.972 2.145 2.145-0.972 2.145-2.145 2.145zM22.436 11.726c-1.173 0-2.145-0.972-2.145-2.145s0.972-2.145 2.145-2.145 2.145 0.972 2.145 2.145-0.972 2.145-2.145 2.145z"></path>
</svg>
