<?xml version="1.0" encoding="utf-8"?>
<!-- Generated by IcoMoon.io -->
<!DOCTYPE svg PUBLIC "-//W3C//DTD SVG 1.1//EN" "http://www.w3.org/Graphics/SVG/1.1/DTD/svg11.dtd">
<svg version="1.1" xmlns="http://www.w3.org/2000/svg" xmlns:xlink="http://www.w3.org/1999/xlink" width="32" height="32" viewBox="0 0 32 32">
<path d="M27.25 22.152s0-8.965 0-11.777-2.813-5.625-5.625-5.625c-1.875 0-1.875 0-1.875 0v-3.75l-5.625 5.625 5.625 5.625v-3.75s0.938 0 1.875 0 1.875 0.938 1.875 1.875 0 11.777 0 11.777c-1.113 0.645-1.875 1.846-1.875 3.223 0 2.080 1.67 3.75 3.75 3.75s3.75-1.67 3.75-3.75c0-1.377-0.762-2.578-1.875-3.223zM25.375 27.25c-1.025 0-1.875-0.85-1.875-1.875s0.85-1.875 1.875-1.875 1.875 0.85 1.875 1.875-0.85 1.875-1.875 1.875zM12.25 23.5s-0.938 0-1.875 0-1.875-0.938-1.875-1.875 0-11.777 0-11.777c1.113-0.645 1.875-1.846 1.875-3.223 0-2.080-1.67-3.75-3.75-3.75s-3.75 1.67-3.75 3.75c0 1.377 0.762 2.578 1.875 3.223 0 0 0 8.965 0 11.777s2.813 5.625 5.625 5.625c1.875 0 1.875 0 1.875 0v3.75l5.625-5.625-5.625-5.625v3.75zM6.625 8.5c-1.025 0-1.875-0.85-1.875-1.875s0.85-1.875 1.875-1.875 1.875 0.85 1.875 1.875-0.85 1.875-1.875 1.875z"></path>
</svg>
