<?xml version="1.0" encoding="utf-8"?>
<!-- Generated by IcoMoon.io -->
<!DOCTYPE svg PUBLIC "-//W3C//DTD SVG 1.1//EN" "http://www.w3.org/Graphics/SVG/1.1/DTD/svg11.dtd">
<svg version="1.1" xmlns="http://www.w3.org/2000/svg" xmlns:xlink="http://www.w3.org/1999/xlink" width="32" height="32" viewBox="0 0 32 32">
<path d="M16 1c-8.284 0-15 6.716-15 15s6.716 15 15 15c1.014 0 2.004-0.101 2.961-0.293-0.386-0.185-0.428-1.569-0.046-2.359 0.425-0.879 1.758-3.105 0.439-3.853s-0.952-1.084-1.758-1.948-0.476-0.994-0.527-1.216c-0.176-0.762 0.776-1.904 0.82-2.021s0.044-0.557 0.029-0.688-0.601-0.483-0.747-0.498-0.22 0.234-0.425 0.249-1.099-0.542-1.289-0.688-0.278-0.498-0.542-0.762-0.293-0.059-0.703-0.22-1.729-0.645-2.739-1.055-1.099-0.985-1.113-1.392-0.615-0.996-0.897-1.421c-0.282-0.425-0.334-1.011-0.436-0.879s0.527 1.67 0.425 1.714-0.322-0.425-0.615-0.806 0.308-0.176-0.63-2.021 0.293-2.787 0.352-3.75 0.791 0.352 0.41-0.264 0.029-1.904-0.264-2.373-1.963 0.527-1.963 0.527c0.044-0.454 1.465-1.23 2.49-1.948s1.652-0.161 2.476 0.103 0.879 0.176 0.601-0.088 0.117-0.396 0.762-0.293 0.82 0.879 1.802 0.806 0.103 0.19 0.234 0.439-0.146 0.22-0.791 0.659 0.015 0.439 1.157 1.274 0.791-0.557 0.674-1.172 0.835-0.132 0.835-0.132c0.703 0.469 0.573 0.026 1.086 0.187s1.902 1.337 1.902 1.337c-1.743 0.952-0.645 1.055-0.352 1.274s-0.601 0.645-0.601 0.645c-0.366-0.366-0.425 0.015-0.659 0.146s-0.015 0.469-0.015 0.469c-1.212 0.19-0.938 1.465-0.923 1.772s-0.776 0.776-0.981 1.216 0.527 1.392 0.146 1.45-0.762-1.436-2.813-0.879c-0.618 0.168-1.992 0.879-1.26 2.329s1.948-0.41 2.358-0.205-0.117 1.128-0.029 1.143 1.157 0.040 1.216 1.289 1.626 1.143 1.963 1.172 1.465-0.923 1.626-0.967 0.806-0.586 2.212 0.22 2.124 0.688 2.607 1.025 0.146 1.011 0.601 1.23 2.271-0.073 2.725 0.674-1.875 4.497-2.607 4.907-1.069 1.348-1.802 1.948-1.758 1.344-2.725 1.919c-0.856 0.509-1.010 1.421-1.391 1.708 6.713-1.491 11.733-7.481 11.733-14.643 0-8.284-6.716-15-15-15zM19.516 15.077c-0.205 0.059-0.63 0.439-1.67-0.176s-1.758-0.498-1.846-0.601c0 0-0.088-0.249 0.366-0.293 0.932-0.090 2.109 0.864 2.373 0.879s0.395-0.264 0.864-0.113c0.469 0.151 0.117 0.244-0.088 0.303zM14.608 2.494c-0.102-0.074 0.085-0.16 0.196-0.308 0.064-0.085 0.017-0.227 0.097-0.308 0.22-0.22 1.304-0.527 1.092 0.073s-1.224 0.659-1.385 0.542zM17.23 4.398c-0.366-0.015-1.228-0.106-1.069-0.264 0.619-0.615-0.234-0.791-0.762-0.835s-0.747-0.337-0.483-0.366 1.318 0.015 1.494 0.161 1.128 0.527 1.187 0.806 0 0.513-0.366 0.498zM20.409 4.296c-0.293 0.234-1.767-0.841-2.051-1.084-1.23-1.055-1.89-0.703-2.148-0.879s-0.166-0.41 0.229-0.762 1.509 0.117 2.153 0.19 1.392 0.571 1.406 1.163c0.015 0.592 0.703 1.136 0.41 1.371z"></path>
</svg>
