<?xml version="1.0" encoding="utf-8"?>
<!-- Generated by IcoMoon.io -->
<!DOCTYPE svg PUBLIC "-//W3C//DTD SVG 1.1//EN" "http://www.w3.org/Graphics/SVG/1.1/DTD/svg11.dtd">
<svg version="1.1" xmlns="http://www.w3.org/2000/svg" xmlns:xlink="http://www.w3.org/1999/xlink" width="32" height="32" viewBox="0 0 32 32">
<path d="M16 1c-3.045 0-5.87 0.922-8.235 2.48l-2.48-2.48v8.571h8.571l-2.946-2.946c1.521-0.827 3.237-1.339 5.089-1.339 5.918 0 10.714 4.795 10.714 10.714 0 5.918-4.796 10.714-10.714 10.714-5.919 0-10.714-4.796-10.714-10.714 0-1.526 0.327-2.973 0.904-4.286h-3.047v-3.328c-1.329 2.24-2.143 4.821-2.143 7.614 0 8.285 6.715 15 15 15s15-6.715 15-15c0-8.285-6.715-15-15-15zM15.968 26.681l2.175-2.109v-6.429h4.286l2.143-2.143-2.143-2.143h-4.286l-2.143-2.143-4.286 4.286 2.143 2.143v6.429l2.11 2.109z"></path>
</svg>
