<?xml version="1.0" encoding="utf-8"?>
<!-- Generated by IcoMoon.io -->
<!DOCTYPE svg PUBLIC "-//W3C//DTD SVG 1.1//EN" "http://www.w3.org/Graphics/SVG/1.1/DTD/svg11.dtd">
<svg version="1.1" xmlns="http://www.w3.org/2000/svg" xmlns:xlink="http://www.w3.org/1999/xlink" width="32" height="32" viewBox="0 0 32 32">
<path d="M21.479 16c3.457-2.49 5.771-7.031 5.771-11.25 0-2.080-5.039-3.75-11.25-3.75s-11.25 1.67-11.25 3.75c0 4.219 2.344 8.76 5.771 11.25-3.457 2.49-5.771 7.031-5.771 11.25 0 2.080 5.039 3.75 11.25 3.75s11.25-1.67 11.25-3.75c0-4.219-2.344-8.76-5.771-11.25zM16 2.875c4.131 0 7.5 0.85 7.5 1.875s-3.369 1.875-7.5 1.875-7.5-0.85-7.5-1.875 3.369-1.875 7.5-1.875zM14.125 23.559c-4.512 0.205-6.973 1.172-7.412 2.402 0.469-3.34 2.197-5.537 4.131-7.354 2.139-1.992 3.281-1.758 3.281-3.018v7.998zM11.049 13.246c-2.051-1.611-3.574-3.809-4.16-6.299 2.051 0.938 5.361 1.553 9.111 1.553s7.061-0.615 9.111-1.553c-0.586 2.49-2.109 4.688-4.16 6.299-0.703-0.498-2.051-0.996-4.951-0.996s-4.248 0.498-4.951 0.996zM17.875 23.559v-7.998c0 1.26 1.143 1.025 3.281 3.018 1.934 1.816 3.662 4.043 4.131 7.354-0.41-1.201-2.9-2.197-7.412-2.402z"></path>
</svg>
