<?xml version="1.0" encoding="utf-8"?>
<!-- Generated by IcoMoon.io -->
<!DOCTYPE svg PUBLIC "-//W3C//DTD SVG 1.1//EN" "http://www.w3.org/Graphics/SVG/1.1/DTD/svg11.dtd">
<svg version="1.1" xmlns="http://www.w3.org/2000/svg" xmlns:xlink="http://www.w3.org/1999/xlink" width="32" height="32" viewBox="0 0 32 32">
<path d="M16 3c-8.212 0-14.857 6.645-14.857 14.857 0 0 0 5.571 0 7.429s1.857 3.714 3.714 3.714 20.429 0 22.286 0 3.714-1.857 3.714-3.714 0-7.429 0-7.429c0-8.212-6.645-14.857-14.857-14.857zM18.786 25.286h-5.571c-0.522 0-0.929-0.406-0.929-0.929s0.406-0.929 0.929-0.929h5.571c0.522 0 0.929 0.406 0.929 0.929s-0.406 0.929-0.929 0.929zM27.143 21.571c0 0.929-0.929 1.857-1.857 1.857s-3.714 0-3.714 0c0-0.929-0.929-1.857-1.857-1.857s-6.5 0-7.429 0-1.857 0.929-1.857 1.857c0 0-2.786 0-3.714 0s-1.857-0.929-1.857-1.857 0-10.446 0-10.446c2.263-3.743 6.384-6.268 11.143-6.268s8.879 2.525 11.143 6.268c0 0 0 9.518 0 10.446zM23.429 10.429c-0.929 0-13.929 0-14.857 0s-1.857 0.929-1.857 1.857 0 2.786 0 3.714 0.929 1.857 1.857 1.857 13.929 0 14.857 0 1.857-0.929 1.857-1.857 0-2.786 0-3.714-0.929-1.857-1.857-1.857zM23.429 14.143l-1.857 1.857h-3.714l-1.857-1.857-1.857 1.857h-3.714l-1.857-1.857v-1.857h1.857l1.857 1.857 1.857-1.857h3.714l1.857 1.857 1.857-1.857h1.857v1.857z"></path>
</svg>
