<?xml version="1.0" encoding="utf-8"?>
<!-- Generated by IcoMoon.io -->
<!DOCTYPE svg PUBLIC "-//W3C//DTD SVG 1.1//EN" "http://www.w3.org/Graphics/SVG/1.1/DTD/svg11.dtd">
<svg version="1.1" xmlns="http://www.w3.org/2000/svg" xmlns:xlink="http://www.w3.org/1999/xlink" width="32" height="32" viewBox="0 0 32 32">
<path d="M16 11.714c1.172 0 2.143-0.971 2.143-2.143s-0.971-2.143-2.143-2.143-2.143 0.971-2.143 2.143 0.971 2.143 2.143 2.143zM16 1c-8.27 0-15 6.73-15 15s6.73 15 15 15 15-6.73 15-15-6.73-15-15-15zM16 26.714c-5.926 0-10.714-4.788-10.714-10.714s4.788-10.714 10.714-10.714 10.714 4.788 10.714 10.714-4.788 10.714-10.714 10.714zM18.143 16c0-1.071-1.071-2.143-2.143-2.143s-1.071 0-2.143 0-2.143 1.071-2.143 2.143h2.143s0 5.357 0 6.429 1.071 2.143 2.143 2.143 1.071 0 2.143 0 2.143-1.071 2.143-2.143h-2.143s0-5.357 0-6.429z"></path>
</svg>
