<?xml version="1.0" encoding="utf-8"?>
<!-- Generated by IcoMoon.io -->
<!DOCTYPE svg PUBLIC "-//W3C//DTD SVG 1.1//EN" "http://www.w3.org/Graphics/SVG/1.1/DTD/svg11.dtd">
<svg version="1.1" xmlns="http://www.w3.org/2000/svg" xmlns:xlink="http://www.w3.org/1999/xlink" width="32" height="32" viewBox="0 0 32 32">
<path d="M20.976 9.905l-2.986 2.986 4.976 5.1 7.962-7.962-2.986-2.986-4.937 4.938-2.029-2.076zM15.005 25.952c-5.498 0-9.952-4.455-9.952-9.952s4.454-9.952 9.952-9.952c2.749 0 5.237 1.115 7.037 2.916l2.817-2.815c-2.521-2.523-6.004-4.082-9.853-4.082-7.696 0-13.933 6.238-13.933 13.933s6.238 13.933 13.933 13.933c7.696 0 13.933-6.238 13.933-13.933l-6.228 6.228c0.278-0.342-2.333 3.724-7.705 3.724zM16.995 8.038h-3.981v9.952h3.981v-9.952zM13.014 23.962h3.981v-3.981h-3.981v3.981z"></path>
</svg>
