<?xml version="1.0" encoding="utf-8"?>
<!-- Generated by IcoMoon.io -->
<!DOCTYPE svg PUBLIC "-//W3C//DTD SVG 1.1//EN" "http://www.w3.org/Graphics/SVG/1.1/DTD/svg11.dtd">
<svg version="1.1" xmlns="http://www.w3.org/2000/svg" xmlns:xlink="http://www.w3.org/1999/xlink" width="32" height="32" viewBox="0 0 32 32">
<path d="M22.399 24.546c-1.787 1.343-3.989 2.168-6.399 2.168-5.919 0-10.714-4.796-10.714-10.714 0-1.526 0.327-2.973 0.904-4.286h-3.047v-3.33c-1.329 2.24-2.143 4.824-2.143 7.616 0 8.285 6.715 15 15 15 3.595 0 6.847-1.316 9.434-3.424l1.281 1.281v-6.429h-6.429l2.114 2.118zM13.857 24.571h4.286v-4.286h-4.286v4.286zM18.143 7.429h-4.286v10.714h4.286v-10.714zM31 16c0-8.285-6.715-15-15-15-3.596 0-6.848 1.316-9.43 3.427l-1.284-1.284v6.429h6.429l-2.115-2.115c1.789-1.345 3.99-2.171 6.4-2.171 5.918 0 10.714 4.795 10.714 10.714 0 1.526-0.326 2.972-0.904 4.286h3.047v3.331c1.329-2.241 2.143-4.821 2.143-7.617z"></path>
</svg>
