<?xml version="1.0" encoding="utf-8"?>
<!-- Generated by IcoMoon.io -->
<!DOCTYPE svg PUBLIC "-//W3C//DTD SVG 1.1//EN" "http://www.w3.org/Graphics/SVG/1.1/DTD/svg11.dtd">
<svg version="1.1" xmlns="http://www.w3.org/2000/svg" xmlns:xlink="http://www.w3.org/1999/xlink" width="32" height="32" viewBox="0 0 32 32">
<path d="M16 1c-8.285 0-15 6.715-15 15s6.715 15 15 15c8.285 0 15-6.715 15-15s-6.715-15-15-15zM16 26.714c-5.919 0-10.714-4.796-10.714-10.714 0-5.919 4.795-10.714 10.714-10.714 5.918 0 10.714 4.795 10.714 10.714 0 5.918-4.796 10.714-10.714 10.714zM13.857 24.571h4.286v-4.286h-4.286v4.286zM13.857 18.143h4.286v-10.714h-4.286v10.714z"></path>
</svg>
