<?xml version="1.0" encoding="utf-8"?>
<!-- Generated by IcoMoon.io -->
<!DOCTYPE svg PUBLIC "-//W3C//DTD SVG 1.1//EN" "http://www.w3.org/Graphics/SVG/1.1/DTD/svg11.dtd">
<svg version="1.1" xmlns="http://www.w3.org/2000/svg" xmlns:xlink="http://www.w3.org/1999/xlink" width="32" height="32" viewBox="0 0 32 32">
<path d="M24.467 1h-5.625c0 0.938-0.967 1.875-2.842 1.875s-2.783-0.938-2.783-1.875h-5.625c0 3.75-0.059 11.25-3.75 11.25 0 0-0.029 15.938-0.029 16.875s0.938 1.875 1.875 1.875 19.688 0 20.625 0 1.875-0.938 1.875-1.875 0-16.875 0-16.875c-3.691 0-3.75-7.5-3.75-11.25zM6.625 29.125c-0.469 0-0.908-0.293-0.908-0.938 0-0.938 0-14.063 0-14.063 3.486-1.875 3.75-5.625 3.75-11.25h1.875c0 2.813 0.938 5.596 4.688 5.625s4.688-2.813 4.688-5.625h1.875c0 5.449 0.938 8.086 1.875 9.932v16.318s-17.373 0-17.842 0zM17.904 12.25l-0.938 0.938v9.375l0.938 0.938h3.75l0.938-0.938v-9.375l-0.938-0.938h-3.75zM20.717 21.625h-1.875v-7.5h1.875v7.5zM10.404 12.25l-0.938 0.938v9.375l0.938 0.938h3.75l0.938-0.938v-9.375l-0.938-0.938h-3.75zM13.217 21.625h-1.875v-7.5h1.875v7.5z"></path>
</svg>
