<?xml version="1.0" encoding="utf-8"?>
<!-- Generated by IcoMoon.io -->
<!DOCTYPE svg PUBLIC "-//W3C//DTD SVG 1.1//EN" "http://www.w3.org/Graphics/SVG/1.1/DTD/svg11.dtd">
<svg version="1.1" xmlns="http://www.w3.org/2000/svg" xmlns:xlink="http://www.w3.org/1999/xlink" width="32" height="32" viewBox="0 0 32 32">
<path d="M22.404 2.156c-4.705 0-8.518 3.813-8.518 8.518 0 0.652 0.073 1.284 0.213 1.893l-13.020 13.017v2.13l2.13 2.13h4.259l2.13-2.13v-2.13h2.13v-2.13h2.13v-2.13h4.259l2.356-2.356c0.622 0.143 1.268 0.22 1.933 0.22 4.705 0 8.518-3.813 8.518-8.518s-3.817-8.515-8.518-8.515zM13.855 17.066l-10.648 10.648v-2.13l10.648-10.648v2.13zM24.503 10.678c-1.175 0-2.13-0.955-2.13-2.13s0.955-2.13 2.13-2.13 2.13 0.955 2.13 2.13c0 1.175-0.955 2.13-2.13 2.13z"></path>
</svg>
