<?xml version="1.0" encoding="utf-8"?>
<!-- Generated by IcoMoon.io -->
<!DOCTYPE svg PUBLIC "-//W3C//DTD SVG 1.1//EN" "http://www.w3.org/Graphics/SVG/1.1/DTD/svg11.dtd">
<svg version="1.1" xmlns="http://www.w3.org/2000/svg" xmlns:xlink="http://www.w3.org/1999/xlink" width="32" height="32" viewBox="0 0 32 32">
<path d="M19.667 17.833h1.833v-3.667h-1.833v3.667zM23.333 8.667h-1.833v3.667h1.833v-3.667zM19.667 8.667h-1.833v3.667h1.833v-3.667zM16 17.833h1.833v-3.667h-1.833v3.667zM12.333 23.333h9.167v-3.667h-9.167v3.667zM23.333 17.833h3.667v-9.167h-1.833v5.5h-1.833v3.667zM8.667 23.333h1.833v-3.667h-1.833v3.667zM23.333 23.333h3.667v-3.667h-3.667v3.667zM16 8.667h-1.833v3.667h1.833v-3.667zM6.833 14.167h-1.833v3.667h1.833v-3.667zM6.833 19.667h-1.833v3.667h1.833v-3.667zM1.333 5v22h29.333v-22h-29.333zM28.833 25.167h-25.667v-18.333h25.667v18.333zM12.333 17.833h1.833v-3.667h-1.833v3.667zM8.667 8.667h-3.667v3.667h3.667v-3.667zM12.333 8.667h-1.833v3.667h1.833v-3.667zM8.667 17.833h1.833v-3.667h-1.833v3.667z"></path>
</svg>
