<?xml version="1.0" encoding="utf-8"?>
<!-- Generated by IcoMoon.io -->
<!DOCTYPE svg PUBLIC "-//W3C//DTD SVG 1.1//EN" "http://www.w3.org/Graphics/SVG/1.1/DTD/svg11.dtd">
<svg version="1.1" xmlns="http://www.w3.org/2000/svg" xmlns:xlink="http://www.w3.org/1999/xlink" width="32" height="32" viewBox="0 0 32 32">
<path d="M16.062 7.107c1.052-0.031 1.887-0.866 1.918-1.918 0.031-1.144-0.897-2.072-2.042-2.042-1.052 0.031-1.887 0.866-1.918 1.918-0.031 1.144 0.897 2.072 2.042 2.042zM30.415 18.985h-0.557l-3.928-7.609c0.557-0.062 1.114-0.278 1.608-0.495 0.742-0.34 0.897-1.33 0.34-1.918l-0.031-0.031c-0.34-0.34-0.866-0.464-1.33-0.247-0.433 0.186-1.052 0.402-1.639 0.402-1.732 0-2.506-1.98-8.878-1.98s-7.145 1.98-8.878 1.98c-0.619 0-1.206-0.186-1.639-0.402-0.464-0.186-0.99-0.093-1.33 0.247l-0.031 0.031c-0.557 0.588-0.402 1.547 0.34 1.918 0.495 0.247 1.052 0.433 1.609 0.495l-3.928 7.609h-0.557c-0.247 0-0.433 0.217-0.402 0.464 0.34 1.98 2.846 3.495 5.908 3.495s5.568-1.516 5.908-3.495c0.031-0.247-0.155-0.464-0.402-0.464h-0.557l-3.928-7.578c2.567-0.217 3.928-1.516 5.908-1.516v15.033c-1.083 0-1.98 0.897-1.98 1.98h-2.196c-0.866 0-1.763 0.897-1.763 1.98h15.837c0-1.083-0.897-1.98-2.196-1.98h-1.763c0-1.083-0.897-1.98-1.98-1.98v-15.033c1.98 0 3.341 1.299 5.908 1.516l-3.928 7.578h-0.557c-0.247 0-0.433 0.217-0.402 0.464 0.34 1.98 2.846 3.495 5.908 3.495s5.568-1.516 5.908-3.495c0.031-0.247-0.155-0.464-0.402-0.464zM10.061 18.985h-5.939l2.97-5.568 2.97 5.568zM21.939 18.985l2.97-5.568 2.97 5.568h-5.939z"></path>
</svg>
