<?xml version="1.0" encoding="utf-8"?>
<!-- Generated by IcoMoon.io -->
<!DOCTYPE svg PUBLIC "-//W3C//DTD SVG 1.1//EN" "http://www.w3.org/Graphics/SVG/1.1/DTD/svg11.dtd">
<svg version="1.1" xmlns="http://www.w3.org/2000/svg" xmlns:xlink="http://www.w3.org/1999/xlink" width="32" height="32" viewBox="0 0 32 32">
<path d="M16 1c-5.917 0-10.714 4.797-10.714 10.714 0 3.505 1.683 6.617 4.286 8.572v6.428c0 1.183 0.959 2.143 2.143 2.143 0 1.183 0.959 2.143 2.143 2.143h4.286c1.183 0 2.143-0.959 2.143-2.143 1.183 0 2.143-0.959 2.143-2.143v-6.428c2.602-1.955 4.286-5.067 4.286-8.572 0-5.917-4.797-10.714-10.714-10.714zM20.286 25.643c0 0.592-0.48 1.071-1.071 1.071h-6.429c-0.592 0-1.071-0.48-1.071-1.071v-1.071h8.571v1.071zM22.429 17.383c-1.113 1.106-2.143 1.419-2.143 4.153v0.892h-2.143v-4.286l4.286-4.286v-2.143l-2.143-2.143-2.143 2.143-2.143-2.143-2.143 2.143-2.143-2.143-2.143 2.143v2.143l4.286 4.286v4.286h-2.143v-0.892c0-2.734-1.030-3.047-2.143-4.153-1.333-1.511-2.143-3.495-2.143-5.669 0-4.734 3.838-8.571 8.571-8.571s8.571 3.838 8.571 8.571c0 2.174-0.809 4.158-2.143 5.669zM16 18.143l-4.286-4.286v-2.143l2.143 2.143 2.143-2.143 2.143 2.143 2.143-2.143v2.143l-4.286 4.286z"></path>
</svg>
