<?xml version="1.0" encoding="utf-8"?>
<!-- Generated by IcoMoon.io -->
<!DOCTYPE svg PUBLIC "-//W3C//DTD SVG 1.1//EN" "http://www.w3.org/Graphics/SVG/1.1/DTD/svg11.dtd">
<svg version="1.1" xmlns="http://www.w3.org/2000/svg" xmlns:xlink="http://www.w3.org/1999/xlink" width="32" height="32" viewBox="0 0 32 32">
<path d="M23 9h-3.773c1.313 0.875 2.543 2.434 2.926 3.5h0.82c1.777 0 3.5 1.75 3.5 3.5s-1.777 3.5-3.5 3.5h-5.25c-1.723 0-3.5-1.75-3.5-3.5 0-0.629 0.191-1.23 0.492-1.75h-3.746c-0.137 0.574-0.219 1.148-0.219 1.75 0 3.5 3.473 7 6.973 7s1.777 0 5.277 0 7-3.5 7-7-3.5-7-7-7zM9.848 19.5h-0.82c-1.777 0-3.5-1.75-3.5-3.5s1.777-3.5 3.5-3.5h5.25c1.723 0 3.5 1.75 3.5 3.5 0 0.629-0.191 1.23-0.492 1.75h3.746c0.137-0.574 0.219-1.148 0.219-1.75 0-3.5-3.473-7-6.973-7s-1.777 0-5.277 0-7 3.5-7 7 3.5 7 7 7h3.773c-1.313-0.875-2.543-2.434-2.926-3.5z"></path>
</svg>
