<?xml version="1.0" encoding="utf-8"?>
<!-- Generated by IcoMoon.io -->
<!DOCTYPE svg PUBLIC "-//W3C//DTD SVG 1.1//EN" "http://www.w3.org/Graphics/SVG/1.1/DTD/svg11.dtd">
<svg version="1.1" xmlns="http://www.w3.org/2000/svg" xmlns:xlink="http://www.w3.org/1999/xlink" width="32" height="32" viewBox="0 0 32 32">
<path d="M13.533 18.448h17.269v-4.934h-17.269v4.934zM13.533 28.316h17.269v-4.934h-17.269v4.934zM13.533 3.646v4.934h17.269v-4.934h-17.269zM4.243 13.514h3.007v-9.868h-1.388l-3.276 0.887v1.927l1.657-0.077v7.131zM8.483 21.454c0-1.388-0.463-3.007-3.7-3.007-1.272 0-2.467 0.231-3.199 0.617l0.039 2.544c0.809-0.385 1.619-0.578 2.583-0.578s1.234 0.424 1.234 1.079c0 1.002-1.156 2.236-4.24 4.317v1.927h7.401v-2.583l-3.508 0.077c1.889-1.156 3.354-2.544 3.354-4.356l0.039-0.039z"></path>
</svg>
