<?xml version="1.0" encoding="utf-8"?>
<!-- Generated by IcoMoon.io -->
<!DOCTYPE svg PUBLIC "-//W3C//DTD SVG 1.1//EN" "http://www.w3.org/Graphics/SVG/1.1/DTD/svg11.dtd">
<svg version="1.1" xmlns="http://www.w3.org/2000/svg" xmlns:xlink="http://www.w3.org/1999/xlink" width="32" height="32" viewBox="0 0 32 32">
<path d="M25.375 14.125c-0.938 0-1.875 0-1.875 0s0-1.875 0-5.625-3.75-7.5-7.5-7.5-7.5 3.75-7.5 7.5 0 5.625 0 5.625-0.938 0-1.875 0-1.875 0.938-1.875 1.875 0 12.188 0 13.125 0.938 1.875 1.875 1.875 17.813 0 18.75 0 1.875-0.938 1.875-1.875 0-12.188 0-13.125-0.938-1.875-1.875-1.875zM19.75 17.875h-11.25v1.875h11.25v1.875h-11.25v1.875h11.25v1.875h-11.25v1.875h11.25v1.875h-13.125v-13.125h13.125v1.875zM19.75 14.125h-7.5s0-3.75 0-5.625 1.875-3.75 3.75-3.75 3.75 1.875 3.75 3.75 0 5.625 0 5.625z"></path>
</svg>
