<?xml version="1.0" encoding="utf-8"?>
<!-- Generated by IcoMoon.io -->
<!DOCTYPE svg PUBLIC "-//W3C//DTD SVG 1.1//EN" "http://www.w3.org/Graphics/SVG/1.1/DTD/svg11.dtd">
<svg version="1.1" xmlns="http://www.w3.org/2000/svg" xmlns:xlink="http://www.w3.org/1999/xlink" width="32" height="32" viewBox="0 0 32 32">
<path d="M8.496 15.513h-2.101c-0.054 0-0.098 0.044-0.098 0.098v1.027c0 0.054 0.044 0.098 0.098 0.098h0.82v1.277c0 0-0.184 0.061-0.693 0.061-0.6 0-1.439-0.22-1.439-2.063s0.873-2.086 1.693-2.086c0.71 0 1.015 0.125 1.21 0.185 0.061 0.019 0.117-0.042 0.117-0.097l0.235-0.992c0-0.025-0.009-0.056-0.037-0.077-0.079-0.056-0.561-0.325-1.778-0.325-1.403 0-2.841 0.597-2.841 3.465s1.647 3.295 3.035 3.295c1.149 0 1.847-0.491 1.847-0.491 0.028-0.016 0.031-0.056 0.031-0.074v-3.204c-0-0.054-0.045-0.098-0.098-0.098zM19.122 12.865h-1.182c-0.054 0-0.098 0.044-0.098 0.098v2.286h-1.844v-2.286c0-0.054-0.044-0.098-0.097-0.098h-1.183c-0.053 0-0.097 0.044-0.097 0.098v6.189c0 0.055 0.044 0.099 0.097 0.099h1.183c0.054 0 0.097-0.044 0.097-0.099v-2.647h1.844l-0.004 2.647c0 0.055 0.044 0.098 0.097 0.098h1.184c0.054 0 0.097-0.044 0.097-0.098l0.004-6.19c0.001-0.054-0.043-0.098-0.097-0.098zM9.91 13.005c-0.421 0-0.763 0.345-0.763 0.77s0.342 0.77 0.763 0.77 0.762-0.345 0.762-0.77c0-0.425-0.341-0.77-0.762-0.77zM10.588 14.991c0-0.054-0.044-0.099-0.097-0.099h-1.18c-0.055 0-0.102 0.056-0.102 0.11 0 0 0 3.438 0 4.093 0 0.12 0.075 0.156 0.172 0.156 0 0 0.503 0 1.062 0 0.116 0 0.146-0.057 0.146-0.158-0.001-0.22-0.001-1.079-0.001-1.245-0.001-0.158-0.001-2.857-0.001-2.857zM23.7 14.901h-1.173c-0.054 0-0.097 0.044-0.097 0.099v3.034c0 0-0.298 0.22-0.723 0.22-0.423 0-0.536-0.192-0.536-0.607 0-0.414 0-2.647 0-2.647 0-0.054-0.044-0.099-0.097-0.099h-1.19c-0.054 0-0.097 0.044-0.097 0.099 0 0 0 1.616 0 2.847s0.686 1.532 1.629 1.532c0.774 0 1.399-0.428 1.399-0.428s0.029 0.224 0.044 0.251c0.012 0.027 0.047 0.054 0.086 0.054h0.754c0.054 0 0.097-0.044 0.097-0.099l0.003-4.158c-0.002-0.054-0.046-0.098-0.1-0.098zM26.915 14.762c-0.667 0-1.12 0.297-1.12 0.297v-2.096c0-0.054-0.044-0.098-0.097-0.098h-1.187c-0.053 0-0.097 0.044-0.097 0.098l-0.003 6.19c0 0.055 0.044 0.098 0.098 0.098 0 0 0.826 0 0.826 0 0.037 0 0.064-0.019 0.085-0.052s0.050-0.286 0.050-0.286 0.484 0.46 1.403 0.46c1.079 0 1.697-0.547 1.697-2.456 0-1.906-0.988-2.156-1.655-2.156zM26.452 18.25c-0.407-0.012-0.682-0.197-0.682-0.197v-1.961c0 0 0.273-0.167 0.607-0.197 0.423-0.038 0.831 0.090 0.831 1.099-0.002 1.063-0.186 1.273-0.756 1.256zM14.006 18.227c-0.052 0-0.185 0.021-0.321 0.021-0.435 0-0.583-0.203-0.583-0.465 0-0.263 0-1.741 0-1.741h0.888c0.054 0 0.097-0.044 0.097-0.099v-0.954c0.001-0.055-0.043-0.099-0.097-0.099h-0.888l-0.001-1.172c0-0.044-0.024-0.066-0.075-0.066h-1.209c-0.047 0-0.073 0.021-0.073 0.066v1.211c0 0-0.606 0.146-0.647 0.158s-0.070 0.050-0.070 0.094v0.761c0 0.054 0.044 0.099 0.097 0.099h0.62c0 0 0 0.796 0 1.831 0 1.36 0.954 1.494 1.598 1.494 0.294 0 0.645-0.096 0.704-0.116 0.036-0.012 0.056-0.049 0.056-0.088l0-0.837c0-0.055-0.046-0.099-0.097-0.099z"></path>
</svg>
