<?xml version="1.0" encoding="utf-8"?>
<!-- Generated by IcoMoon.io -->
<!DOCTYPE svg PUBLIC "-//W3C//DTD SVG 1.1//EN" "http://www.w3.org/Graphics/SVG/1.1/DTD/svg11.dtd">
<svg version="1.1" xmlns="http://www.w3.org/2000/svg" xmlns:xlink="http://www.w3.org/1999/xlink" width="32" height="32" viewBox="0 0 32 32">
<path d="M20 13h-10v2h10v-2zM14 9h-4v2h4v-2zM26 8.142v-3.142h-4.4l-5.6-4-5.6 4h-4.4v3.142l-4 2.858v20h28v-20l-4-2.858zM8 7h16v7.65l-8 6.6-8-6.6v-7.65zM4 15l7.876 5.988-7.876 6.012v-12zM6 29l7.938-6.445 2.063 1.57 2.059-1.566 7.941 6.441h-20zM28 27l-7.887-6.002 7.887-5.998v12z"></path>
</svg>
