<?xml version="1.0" encoding="utf-8"?>
<!-- Generated by IcoMoon.io -->
<!DOCTYPE svg PUBLIC "-//W3C//DTD SVG 1.1//EN" "http://www.w3.org/Graphics/SVG/1.1/DTD/svg11.dtd">
<svg version="1.1" xmlns="http://www.w3.org/2000/svg" xmlns:xlink="http://www.w3.org/1999/xlink" width="32" height="32" viewBox="0 0 32 32">
<path d="M16 1.331c-8.272 0-14.979 6.707-14.979 14.979 0 6.619 4.291 12.232 10.244 14.213 0.749 0.137 1.022-0.325 1.022-0.72 0-0.357-0.014-1.538-0.021-2.788-4.165 0.905-5.046-1.766-5.046-1.766-0.682-1.73-1.663-2.191-1.663-2.191-1.361-0.929 0.103-0.911 0.103-0.911 1.504 0.104 2.296 1.543 2.296 1.543 1.337 2.289 3.507 1.627 4.359 1.243 0.136-0.965 0.524-1.627 0.951-2-3.325-0.378-6.823-1.664-6.823-7.404 0-1.636 0.584-2.971 1.54-4.020-0.153-0.38-0.668-1.904 0.148-3.966 0 0 1.256-0.402 4.12 1.536 1.194-0.334 2.475-0.498 3.748-0.504 1.273 0.005 2.554 0.172 3.75 0.506 2.858-1.94 4.116-1.536 4.116-1.536 0.819 2.063 0.304 3.586 0.15 3.964 0.96 1.049 1.54 2.383 1.54 4.020 0 5.754-3.503 7.021-6.84 7.393 0.539 0.464 1.017 1.375 1.017 2.772 0 2.002-0.020 3.617-0.020 4.11 0 0.399 0.272 0.865 1.031 0.719 5.948-1.984 10.236-7.597 10.236-14.213 0-8.272-6.707-14.979-14.979-14.979z"></path>
</svg>
