<?xml version="1.0" encoding="utf-8"?>
<!-- Generated by IcoMoon.io -->
<!DOCTYPE svg PUBLIC "-//W3C//DTD SVG 1.1//EN" "http://www.w3.org/Graphics/SVG/1.1/DTD/svg11.dtd">
<svg version="1.1" xmlns="http://www.w3.org/2000/svg" xmlns:xlink="http://www.w3.org/1999/xlink" width="32" height="32" viewBox="0 0 32 32">
<path d="M28.323 7h-24.646c-1.145 0-2.077 0.932-2.077 2.077v13.846c0 1.145 0.932 2.077 2.077 2.077h24.646c1.145 0 2.077-0.932 2.077-2.077v-13.846c0-1.145-0.932-2.077-2.077-2.077zM17.8 21.396l-3.6 0.003v-5.4l-2.7 3.462-2.7-3.462v5.4h-3.6v-10.8h3.6l2.7 3.6 2.7-3.6 3.6-0.004v10.8zM23.174 22.296l-4.474-6.296h2.7v-5.4h3.6v5.4h2.7l-4.526 6.296z"></path>
</svg>
