<?xml version="1.0" encoding="utf-8"?>
<!-- Generated by IcoMoon.io -->
<!DOCTYPE svg PUBLIC "-//W3C//DTD SVG 1.1//EN" "http://www.w3.org/Graphics/SVG/1.1/DTD/svg11.dtd">
<svg version="1.1" xmlns="http://www.w3.org/2000/svg" xmlns:xlink="http://www.w3.org/1999/xlink" width="32" height="32" viewBox="0 0 32 32">
<path d="M25.333 2c-3.792 0-3.617 3.792-20.533 3.733-2.061 0-3.733 3.343-3.733 7.467s1.673 7.467 3.733 7.467c0.664 0 1.26 0.015 1.872 0.026l1.861 8.374 5.6 0.933 1.867-2.8-1.316-5.924c7.073 1.057 7.784 3.124 10.649 3.124 3.092 0 5.6-5.017 5.6-11.2s-2.508-11.2-5.6-11.2zM6.813 15.152c-1.143-0.043-2.397-0.066-3.721-0.077-0.1-0.575-0.159-1.208-0.159-1.876 0-2.578 0.837-5.6 1.867-5.6 1.138 0.004 2.188-0.013 3.179-0.041-0.798 1.37-1.313 3.375-1.313 5.641 0 0.68 0.060 1.325 0.146 1.952zM8.688 15.24c-0.093-0.649-0.155-1.329-0.155-2.040 0-2.319 0.538-4.36 1.368-5.723 4.525-0.242 7.347-0.83 9.305-1.464-0.826 1.951-1.34 4.435-1.34 7.187 0 1.167 0.113 2.275 0.277 3.334-2.105-0.545-5.037-1.042-9.455-1.294zM25.333 21.6c-0.354 0-0.691-0.148-1.015-0.354-0.445-1.963-2.434-12.202 3.425-14.414 0.802 1.54 1.323 3.806 1.323 6.367 0 4.637-1.673 8.4-3.733 8.4z"></path>
</svg>
