<?xml version="1.0" encoding="utf-8"?>
<!-- Generated by IcoMoon.io -->
<!DOCTYPE svg PUBLIC "-//W3C//DTD SVG 1.1//EN" "http://www.w3.org/Graphics/SVG/1.1/DTD/svg11.dtd">
<svg version="1.1" xmlns="http://www.w3.org/2000/svg" xmlns:xlink="http://www.w3.org/1999/xlink" width="32" height="32" viewBox="0 0 32 32">
<path d="M17.722 2.3c-7.747-0.951-14.798 4.558-15.749 12.304s4.558 14.798 12.304 15.749c2.426 0.297 4.93-0.031 7.247-1.017l-0.001-0.001c0.829-0.352 1.216-1.309 0.864-2.138s-1.309-1.216-2.138-0.864l-0-0c-1.783 0.759-3.708 1.012-5.575 0.784-5.959-0.732-10.196-6.155-9.465-12.114s6.155-10.197 12.114-9.465c5.959 0.732 10.197 6.155 9.465 12.114-0.146 1.192-0.732 1.893-2.093 1.893-1.444 0-2.174-1.559-2.174-2.759v-4.263c0-0.901-0.73-1.631-1.631-1.631-0.329 0-0.636 0.098-0.892 0.266-0.872-0.688-1.951-1.151-3.205-1.305-3.575-0.439-6.83 2.104-7.269 5.679s2.104 6.83 5.679 7.269c1.949 0.239 3.948-0.5 5.363-1.805 0.848 0.955 2.034 1.618 3.401 1.786 2.979 0.366 5.691-1.753 6.057-4.732 0.951-7.747-4.558-14.798-12.304-15.749zM19.237 16.724c-0.22 1.788-1.847 3.059-3.634 2.839s-3.059-1.847-2.839-3.634 1.847-3.059 3.634-2.839c1.788 0.22 3.059 1.847 2.84 3.634z"></path>
</svg>
