<?xml version="1.0" encoding="utf-8"?>
<!-- Generated by IcoMoon.io -->
<!DOCTYPE svg PUBLIC "-//W3C//DTD SVG 1.1//EN" "http://www.w3.org/Graphics/SVG/1.1/DTD/svg11.dtd">
<svg version="1.1" xmlns="http://www.w3.org/2000/svg" xmlns:xlink="http://www.w3.org/1999/xlink" width="32" height="32" viewBox="0 0 32 32">
<path d="M22.826 27.25c2.529-0.549 4.424-2.93 4.424-5.625 0-1.712-0.78-3.226-1.989-4.259 0.070-0.447 0.114-0.901 0.114-1.366 0-3.072-1.461-5.797-3.75-7.5l1.875-1.875v-1.875l1.875-1.875-1.875-1.875-1.875 1.875h-1.875l-7.5 7.5-3.75 1.875v3.75l1.875 1.875h3.75l1.875-3.75 2.813-2.813c1.626 0.979 2.813 2.65 2.813 4.688-3.107 0-5.625 2.518-5.625 5.625h-11.25v1.875h5.625c0.56 0.417 1.232 0.648 1.875 0.938v2.813h-3.75l-3.75 3.75h22.5l-3.75-3.75h-0.674zM19.75 21.625c0-1.036 0.839-1.875 1.875-1.875s1.875 0.839 1.875 1.875c0 1.035-0.839 1.875-1.875 1.875s-1.875-0.84-1.875-1.875z"></path>
</svg>
