<?xml version="1.0" encoding="utf-8"?>
<!-- Generated by IcoMoon.io -->
<!DOCTYPE svg PUBLIC "-//W3C//DTD SVG 1.1//EN" "http://www.w3.org/Graphics/SVG/1.1/DTD/svg11.dtd">
<svg version="1.1" xmlns="http://www.w3.org/2000/svg" xmlns:xlink="http://www.w3.org/1999/xlink" width="32" height="32" viewBox="0 0 32 32">
<path d="M15.692 18.197l-6.858-2.127s0 2.687 0 4.479 3.219 2.687 7.166 2.687 7.166-0.896 7.166-2.687 0-4.479 0-4.479l-6.858 2.127c-0.196 0.056-0.42 0.056-0.644 0h0.028zM16.196 6.749c-0.112-0.028-0.252-0.028-0.364 0l-13.688 4.255c-0.588 0.196-0.588 1.008 0 1.204l3.107 0.98v3.163c-0.532 0.308-0.896 0.896-0.896 1.54 0 0.336 0.084 0.644 0.252 0.896-0.14 0.252-0.252 0.56-0.252 0.896v4.619c0 0.98 3.583 0.98 3.583 0v-4.619c0-0.336-0.084-0.644-0.252-0.896 0.14-0.252 0.252-0.56 0.252-0.896 0-0.672-0.364-1.232-0.896-1.54v-2.603l8.761 2.743c0.112 0.028 0.252 0.028 0.364 0l13.688-4.255c0.588-0.196 0.588-1.008 0-1.204l-13.66-4.283zM16.028 12.487c-0.98 0-1.791-0.392-1.791-0.896s0.812-0.896 1.791-0.896 1.791 0.392 1.791 0.896-0.812 0.896-1.791 0.896z"></path>
</svg>
