<?xml version="1.0" encoding="utf-8"?>
<!-- Generated by IcoMoon.io -->
<!DOCTYPE svg PUBLIC "-//W3C//DTD SVG 1.1//EN" "http://www.w3.org/Graphics/SVG/1.1/DTD/svg11.dtd">
<svg version="1.1" xmlns="http://www.w3.org/2000/svg" xmlns:xlink="http://www.w3.org/1999/xlink" width="32" height="32" viewBox="0 0 32 32">
<path d="M26.286 10.857v3.429h-3.429v-3.429l-5.143 5.143 5.143 5.143v-3.429h5.143c0 0 1.714-0.010 1.714-1.714s0-5.143 0-5.143h-3.429zM8.286 10c-3.314 0-6 2.686-6 6s2.686 6 6 6 6-2.685 6-6c0-3.314-2.686-6-6-6zM4.857 16c0-1.893 1.536-3.429 3.429-3.429 0.502 0 0.975 0.113 1.405 0.309l-4.525 4.526c-0.196-0.432-0.309-0.904-0.309-1.406zM8.286 19.429c-0.502 0-0.975-0.114-1.405-0.308l4.525-4.526c0.196 0.43 0.309 0.903 0.309 1.405 0 1.892-1.536 3.429-3.429 3.429z"></path>
</svg>
