<?xml version="1.0" encoding="utf-8"?>
<!-- Generated by IcoMoon.io -->
<!DOCTYPE svg PUBLIC "-//W3C//DTD SVG 1.1//EN" "http://www.w3.org/Graphics/SVG/1.1/DTD/svg11.dtd">
<svg version="1.1" xmlns="http://www.w3.org/2000/svg" xmlns:xlink="http://www.w3.org/1999/xlink" width="32" height="32" viewBox="0 0 32 32">
<path d="M28.393 10.435c0.238-0.584 1.022-2.941-0.247-6.124 0 0-1.947-0.616-6.355 2.396-1.846-0.508-3.829-0.583-5.791-0.583s-3.943 0.076-5.795 0.585c-4.407-3.014-6.352-2.398-6.352-2.398-1.269 3.185-0.485 5.54-0.247 6.124-1.494 1.615-2.404 3.676-2.404 6.204 0 9.515 6.163 11.666 14.764 11.666 8.604 0 14.831-2.151 14.831-11.666 0-2.528-0.91-4.589-2.404-6.204zM16 26.484c-6.11 0-11.063-0.285-11.063-6.205 0-1.414 0.695-2.734 1.889-3.824 1.987-1.82 5.355-0.858 9.174-0.858 3.822 0 7.186-0.962 9.174 0.856 1.194 1.092 1.891 2.408 1.891 3.824-0 5.921-4.957 6.207-11.066 6.207zM11.351 17.22c-1.227 0-2.223 1.476-2.223 3.3s0.995 3.304 2.223 3.304c1.225 0 2.22-1.479 2.22-3.304s-0.995-3.3-2.22-3.3zM20.649 17.22c-1.225 0-2.222 1.476-2.222 3.3s0.997 3.304 2.222 3.304 2.22-1.479 2.22-3.304c0.002-1.824-0.993-3.3-2.22-3.3z"></path>
</svg>
