<?xml version="1.0" encoding="utf-8"?>
<!-- Generated by IcoMoon.io -->
<!DOCTYPE svg PUBLIC "-//W3C//DTD SVG 1.1//EN" "http://www.w3.org/Graphics/SVG/1.1/DTD/svg11.dtd">
<svg version="1.1" xmlns="http://www.w3.org/2000/svg" xmlns:xlink="http://www.w3.org/1999/xlink" width="32" height="32" viewBox="0 0 32 32">
<path d="M25.375 12.25h-18.75c-2.070 0-3.75 1.68-3.75 3.75v1.875c0 1.384 0.757 2.58 1.875 3.23v6.145h7.5v3.75h7.5v-3.75h7.5v-6.145c1.117-0.65 1.875-1.844 1.875-3.23v-1.875c0-2.070-1.681-3.75-3.75-3.75zM10.375 25.375h-3.75v-7.5h-1.875v-1.875c0-1.035 0.84-1.875 1.875-1.875h2.394c-0.322 0.553-0.519 1.188-0.519 1.875v3.75c0 1.384 0.757 2.58 1.875 3.23v2.395zM19.75 21.625v-3.75h-1.875v11.25h-3.75v-11.25h-1.875v3.75c-1.035 0-1.875-0.839-1.875-1.875v-3.75c0-1.035 0.84-1.875 1.875-1.875h7.5c1.036 0 1.875 0.84 1.875 1.875v3.75c0 1.036-0.839 1.875-1.875 1.875zM27.25 17.875h-1.875v7.5h-3.75v-2.395c1.117-0.65 1.875-1.844 1.875-3.23v-3.75c0-0.687-0.198-1.322-0.52-1.875h2.395c1.036 0 1.875 0.84 1.875 1.875v1.875zM11.772 10.298c1.031 1.187 2.533 1.952 4.228 1.952s3.197-0.765 4.228-1.952c0.639 1.159 1.857 1.952 3.272 1.952 2.069 0 3.75-1.68 3.75-3.75s-1.681-3.75-3.75-3.75c-0.751 0-1.447 0.225-2.032 0.606-0.579-2.494-2.8-4.356-5.468-4.356s-4.89 1.862-5.468 4.356c-0.587-0.381-1.283-0.606-2.032-0.606-2.070 0-3.75 1.68-3.75 3.75s1.68 3.75 3.75 3.75c1.415 0 2.632-0.793 3.272-1.952zM23.5 6.625c1.036 0 1.875 0.838 1.875 1.875s-0.839 1.875-1.875 1.875c-1.035 0-1.875-0.838-1.875-1.875s0.84-1.875 1.875-1.875zM16 2.875c2.069 0 3.75 1.68 3.75 3.75s-1.681 3.75-3.75 3.75c-2.070 0-3.75-1.68-3.75-3.75s1.68-3.75 3.75-3.75zM8.5 10.375c-1.035 0-1.875-0.838-1.875-1.875s0.84-1.875 1.875-1.875c1.037 0 1.875 0.838 1.875 1.875s-0.838 1.875-1.875 1.875z"></path>
</svg>
