<?xml version="1.0" encoding="utf-8"?>
<!-- Generated by IcoMoon.io -->
<!DOCTYPE svg PUBLIC "-//W3C//DTD SVG 1.1//EN" "http://www.w3.org/Graphics/SVG/1.1/DTD/svg11.dtd">
<svg version="1.1" xmlns="http://www.w3.org/2000/svg" xmlns:xlink="http://www.w3.org/1999/xlink" width="32" height="32" viewBox="0 0 32 32">
<path d="M16 3.133l-14.846 3.959v17.815l14.846 3.959 14.846-3.959v-17.815l-14.846-3.959zM3.129 23.452l-0.012-13.39 11.892 3.171 0 13.387-11.881-3.168zM3.118 8.082l4.957-1.322 12.874 3.437-4.949 1.32-12.882-3.435zM28.871 23.452l-11.881 3.168 0-13.387 3.959-1.056v4.825l3.959-1.056v-4.825l3.974-1.060-0.012 13.39zM24.908 9.142v-0.004l-12.875-3.433 3.967-1.058 12.882 3.435-3.974 1.060z"></path>
</svg>
