<?xml version="1.0" encoding="utf-8"?>
<!-- Generated by IcoMoon.io -->
<!DOCTYPE svg PUBLIC "-//W3C//DTD SVG 1.1//EN" "http://www.w3.org/Graphics/SVG/1.1/DTD/svg11.dtd">
<svg version="1.1" xmlns="http://www.w3.org/2000/svg" xmlns:xlink="http://www.w3.org/1999/xlink" width="32" height="32" viewBox="0 0 32 32">
<path d="M21.625 6.625c0-3.105-2.518-5.625-5.625-5.625s-5.625 2.52-5.625 5.625c0 3.107 2.518 5.625 5.625 5.625s5.625-2.518 5.625-5.625zM16 10.375c-2.070 0-3.75-1.68-3.75-3.75s1.68-3.75 3.75-3.75c2.069 0 3.75 1.68 3.75 3.75s-1.681 3.75-3.75 3.75zM19.75 12.25h-7.5c-2.070 0-3.75 1.68-3.75 3.75v3.75c0 2.069 1.68 3.75 3.75 3.75v7.5h7.5v-7.5c2.069 0 3.75-1.681 3.75-3.75v-3.75c0-2.070-1.681-3.75-3.75-3.75zM21.625 19.75c0 1.036-0.839 1.875-1.875 1.875v-3.75h-1.875v11.25h-3.75v-11.25h-1.875v3.75c-1.035 0-1.875-0.839-1.875-1.875v-3.75c0-1.035 0.84-1.875 1.875-1.875h7.5c1.036 0 1.875 0.84 1.875 1.875v3.75z"></path>
</svg>
