<?xml version="1.0" encoding="utf-8"?>
<!-- Generated by IcoMoon.io -->
<!DOCTYPE svg PUBLIC "-//W3C//DTD SVG 1.1//EN" "http://www.w3.org/Graphics/SVG/1.1/DTD/svg11.dtd">
<svg version="1.1" xmlns="http://www.w3.org/2000/svg" xmlns:xlink="http://www.w3.org/1999/xlink" width="32" height="32" viewBox="0 0 32 32">
<path d="M30.212 8.087l-0.026-0.026c-0.711-0.711-1.865-0.711-2.576 0l-1.314 1.314-2.602-2.602 1.314-1.314c0.711-0.711 0.711-1.865 0-2.576l-0.026-0.026c-0.711-0.711-1.865-0.711-2.576 0l-1.379 1.379c-1.786-1.183-4.216-0.988-5.79 0.585l-0.716 0.716c-3.134 3.134-3.506 7.984-1.117 11.526l-0.119 0.119c-1.794 1.794-1.797 4.701-0.008 6.498 0.357 0.358 0.364 0.958 0.003 1.313s-0.939 0.353-1.297-0.004l-2.571-2.571c-1.801-1.801-4.733-1.833-6.535-0.033-1.798 1.796-1.799 4.71-0.002 6.507l0.252 0.252c0.711 0.711 1.865 0.711 2.576 0l0.026-0.026c0.711-0.711 0.711-1.865 0-2.576l-0.238-0.238c-0.354-0.354-0.376-0.932-0.032-1.296 0.358-0.378 0.954-0.384 1.319-0.019l2.568 2.568c1.809 1.809 4.759 1.835 6.558 0.016 1.777-1.796 1.773-4.691-0.012-6.482-0.361-0.362-0.367-0.945-0.006-1.306l0.119-0.119c3.542 2.389 8.392 2.017 11.526-1.117l0.716-0.716c1.574-1.574 1.769-4.004 0.585-5.79l1.379-1.379c0.711-0.711 0.711-1.865 0-2.576zM26.946 16.531c-1.078 1.078-2.826 1.078-3.904 0l-6.506-6.506c-1.078-1.078-1.078-2.826 0-3.904 0.85-0.85 2.116-1.029 3.142-0.539l-1.203 1.203c-0.711 0.711-0.711 1.865 0 2.576l0.026 0.026c0.711 0.711 1.865 0.711 2.576 0l1.314-1.314 2.602 2.602-1.314 1.314c-0.711 0.711-0.711 1.865 0 2.576l0.026 0.026c0.711 0.711 1.865 0.711 2.576 0l1.203-1.203c0.49 1.026 0.31 2.292-0.539 3.142z"></path>
</svg>
