<?xml version="1.0" encoding="utf-8"?>
<!-- Generated by IcoMoon.io -->
<!DOCTYPE svg PUBLIC "-//W3C//DTD SVG 1.1//EN" "http://www.w3.org/Graphics/SVG/1.1/DTD/svg11.dtd">
<svg version="1.1" xmlns="http://www.w3.org/2000/svg" xmlns:xlink="http://www.w3.org/1999/xlink" width="32" height="32" viewBox="0 0 32 32">
<path d="M23.077 17.833c-0.405-0.289-0.828-0.482-1.262-0.578-0.257-0.049-0.524-0.068-0.8-0.053-0.261 0.015-0.51 0.049-0.746 0.102-0.177 0.049-0.355 0.113-0.533 0.191-0.528 0.233-0.984 0.526-1.359 0.881-0.355 0.375-0.648 0.831-0.881 1.359-0.078 0.178-0.142 0.355-0.191 0.532-0.053 0.236-0.088 0.485-0.102 0.746-0.015 0.276 0.003 0.544 0.053 0.8 0.097 0.434 0.289 0.857 0.578 1.262 0.113 0.158 0.235 0.302 0.365 0.432 0.582 0.582 1.331 0.891 2.19 0.99 0.259 0.030 0.526 0.049 0.77 0.13 0.149 0.049 0.266 0.118 0.351 0.204 0.193 0.192 0.222 0.467 0.073 0.791-0.091 0.199-0.224 0.391-0.376 0.547l-0.081 0.083c-0.114 0.114-0.186 0.186-0.205 0.204-0.091 0.092-0.177 0.179-0.263 0.266l-0.086 0.085c-0.305 0.307-0.612 0.613-0.919 0.919-0.661 0.663-1.323 1.323-1.985 1.985-0.218 0.218-0.436 0.436-0.653 0.653-0.1 0.1-0.205 0.185-0.313 0.255-0.052 0.035-0.101 0.065-0.15 0.092-0.569 0.287-1.203 0.172-1.72-0.345-0.157-0.157-0.308-0.308-0.46-0.46-0.878-0.878-1.756-1.757-2.636-2.634-0.249-0.249-0.497-0.496-0.746-0.743-0.178-0.177-0.368-0.344-0.568-0.495-0.166-0.126-0.337-0.22-0.507-0.282-0.614-0.213-1.202-0.058-1.587 0.385-0.111 0.139-0.203 0.304-0.273 0.492-0.1 0.269-0.134 0.565-0.171 0.852-0.142 1.090-0.749 1.987-1.625 2.4-0.217 0.106-0.45 0.183-0.694 0.226-0.231 0.041-0.463 0.050-0.692 0.030-0.773-0.039-1.437-0.38-1.989-0.946-0.049-0.049-0.061-0.061-0.073-0.073-0.566-0.552-0.906-1.217-0.946-1.989-0.020-0.229-0.011-0.462 0.030-0.692 0.043-0.244 0.12-0.477 0.226-0.694 0.413-0.876 1.31-1.483 2.4-1.625 0.287-0.037 0.584-0.072 0.852-0.171 0.202-0.074 0.376-0.176 0.522-0.297 0.422-0.382 0.569-0.947 0.373-1.52-0.081-0.213-0.174-0.384-0.3-0.55-0.151-0.2-0.319-0.39-0.495-0.568-0.247-0.248-0.494-0.496-0.742-0.744-0.782-0.783-1.563-1.564-2.345-2.345l-0.291-0.291c-0.152-0.152-0.303-0.303-0.443-0.443-0.534-0.534-0.649-1.168-0.362-1.737 0.027-0.049 0.056-0.098 0.089-0.147 0.072-0.111 0.157-0.216 0.258-0.317 0.217-0.218 0.435-0.436 0.653-0.653 0.661-0.662 1.322-1.325 1.985-1.985 0.306-0.307 0.611-0.614 0.919-0.919l0.085-0.086c0.087-0.086 0.174-0.172 0.261-0.258 0.023-0.024 0.095-0.096 0.209-0.21l0.083-0.081c0.157-0.153 0.348-0.285 0.547-0.376 0.323-0.149 0.599-0.12 0.791 0.073 0.085 0.085 0.154 0.202 0.204 0.351 0.081 0.244 0.1 0.511 0.13 0.77 0.099 0.859 0.409 1.607 0.99 2.19 0.13 0.13 0.274 0.252 0.432 0.365 0.405 0.289 0.828 0.482 1.262 0.578 0.257 0.049 0.524 0.068 0.8 0.053 0.261-0.015 0.51-0.049 0.746-0.102 0.177-0.049 0.355-0.113 0.533-0.191 0.528-0.233 0.984-0.526 1.359-0.881 0.355-0.375 0.648-0.831 0.881-1.359 0.078-0.178 0.142-0.355 0.191-0.533 0.053-0.236 0.088-0.485 0.102-0.746 0.015-0.276-0.004-0.544-0.053-0.8-0.097-0.434-0.289-0.857-0.578-1.262-0.113-0.158-0.235-0.302-0.365-0.432-0.582-0.582-1.331-0.891-2.19-0.99-0.259-0.030-0.526-0.049-0.77-0.13-0.149-0.049-0.266-0.118-0.351-0.204-0.193-0.192-0.222-0.467-0.073-0.791 0.091-0.199 0.224-0.391 0.376-0.547l0.081-0.083c0.114-0.114 0.186-0.186 0.205-0.204 0.091-0.092 0.177-0.179 0.263-0.266l0.086-0.085c0.305-0.307 0.612-0.613 0.919-0.919 0.661-0.663 1.323-1.323 1.985-1.985 0.218-0.218 0.436-0.436 0.653-0.653 0.1-0.1 0.205-0.185 0.313-0.255 0.052-0.035 0.101-0.065 0.15-0.092 0.569-0.287 1.203-0.172 1.72 0.345 0.157 0.157 0.308 0.308 0.46 0.46 0.878 0.878 1.756 1.757 2.636 2.634 0.249 0.249 0.497 0.496 0.746 0.743 0.178 0.177 0.368 0.344 0.568 0.495 0.166 0.126 0.337 0.22 0.507 0.282 0.614 0.213 1.202 0.058 1.587-0.385 0.111-0.139 0.203-0.304 0.273-0.492 0.1-0.269 0.134-0.565 0.171-0.852 0.142-1.090 0.749-1.987 1.625-2.4 0.217-0.106 0.45-0.182 0.694-0.226 0.231-0.041 0.463-0.050 0.692-0.030 0.773 0.039 1.437 0.38 1.989 0.946 0.049 0.049 0.061 0.061 0.073 0.073 0.566 0.552 0.906 1.217 0.946 1.989 0.020 0.229 0.011 0.462-0.030 0.692-0.043 0.244-0.12 0.477-0.226 0.694-0.413 0.876-1.31 1.483-2.4 1.625-0.287 0.037-0.584 0.072-0.852 0.171-0.201 0.074-0.376 0.176-0.522 0.297-0.422 0.382-0.569 0.947-0.373 1.52 0.081 0.213 0.174 0.384 0.3 0.55 0.151 0.2 0.319 0.39 0.495 0.568 0.247 0.248 0.494 0.496 0.742 0.744 0.879 0.881 1.758 1.758 2.636 2.637 0.152 0.152 0.303 0.303 0.443 0.443 0.534 0.534 0.649 1.168 0.362 1.737-0.027 0.049-0.056 0.098-0.089 0.147-0.072 0.111-0.157 0.216-0.258 0.317-0.217 0.218-0.435 0.436-0.653 0.653-0.661 0.662-1.322 1.325-1.985 1.985-0.306 0.307-0.611 0.614-0.919 0.919l-0.085 0.086c-0.087 0.086-0.174 0.172-0.261 0.258-0.023 0.024-0.095 0.096-0.209 0.21l-0.083 0.081c-0.157 0.153-0.348 0.285-0.547 0.376-0.323 0.149-0.599 0.12-0.791-0.073-0.085-0.085-0.154-0.202-0.204-0.351-0.081-0.244-0.1-0.511-0.13-0.77-0.099-0.859-0.409-1.607-0.99-2.19-0.13-0.13-0.274-0.252-0.432-0.365z"></path>
</svg>
