<?xml version="1.0" encoding="utf-8"?>
<!-- Generated by IcoMoon.io -->
<!DOCTYPE svg PUBLIC "-//W3C//DTD SVG 1.1//EN" "http://www.w3.org/Graphics/SVG/1.1/DTD/svg11.dtd">
<svg version="1.1" xmlns="http://www.w3.org/2000/svg" xmlns:xlink="http://www.w3.org/1999/xlink" width="32" height="32" viewBox="0 0 32 32">
<path d="M14.125 23.5h3.75v-3.75h-3.75v3.75zM16 8.5c-2.813 0-5.625 2.813-5.625 5.625h3.75c0-0.938 0.938-1.875 1.875-1.875s1.875 0.938 1.875 1.875c0 1.875-3.75 1.875-3.75 3.75h3.75c1.875-0.645 3.75-1.875 3.75-4.688s-2.813-4.688-5.625-4.688zM16 1c-8.291 0-15 6.709-15 15s6.709 15 15 15 15-6.709 15-15-6.709-15-15-15zM16 27.25c-6.211 0-11.25-5.039-11.25-11.25s5.039-11.25 11.25-11.25 11.25 5.039 11.25 11.25-5.039 11.25-11.25 11.25z"></path>
</svg>
