<?xml version="1.0" encoding="utf-8"?>
<!-- Generated by IcoMoon.io -->
<!DOCTYPE svg PUBLIC "-//W3C//DTD SVG 1.1//EN" "http://www.w3.org/Graphics/SVG/1.1/DTD/svg11.dtd">
<svg version="1.1" xmlns="http://www.w3.org/2000/svg" xmlns:xlink="http://www.w3.org/1999/xlink" width="32" height="32" viewBox="0 0 32 32">
<path d="M10.014 13.152c0.463-0.476 0.463-1.247 0-1.722-0.599-0.616-0.894-1.412-0.896-2.221 0.002-0.81 0.297-1.606 0.896-2.222 0.463-0.477 0.463-1.247 0-1.723-0.231-0.239-0.533-0.358-0.837-0.358-0.303 0-0.607 0.118-0.838 0.356-1.058 1.088-1.594 2.521-1.592 3.947-0.002 1.423 0.534 2.857 1.592 3.943 0.463 0.476 1.213 0.476 1.676 0zM5.412 2.72c-0.237-0.242-0.545-0.364-0.855-0.364-0.308 0-0.618 0.121-0.853 0.364-1.743 1.79-2.62 4.142-2.618 6.489-0.002 2.344 0.875 4.701 2.616 6.489 0.472 0.485 1.236 0.485 1.708 0 0.47-0.484 0.47-1.269 0-1.752-1.275-1.312-1.909-3.018-1.909-4.737s0.634-3.426 1.909-4.737c0.47-0.486 0.47-1.271 0.002-1.752zM16.029 12.251c1.673 0 3.033-1.359 3.033-3.033s-1.36-3.033-3.033-3.033c-1.674 0-3.033 1.359-3.033 3.033s1.359 3.033 3.033 3.033zM28.296 2.738c-0.472-0.485-1.236-0.485-1.706 0-0.472 0.484-0.472 1.269 0 1.752 1.274 1.31 1.908 3.018 1.908 4.737 0 1.717-0.636 3.424-1.91 4.735-0.47 0.485-0.47 1.271 0.002 1.752 0.235 0.242 0.543 0.364 0.853 0.364 0.308 0 0.618-0.121 0.853-0.364 1.742-1.788 2.619-4.145 2.615-6.489 0.004-2.342-0.873-4.699-2.615-6.487zM16.036 14.673v0c-0.773 0.002-1.547-0.189-2.249-0.567l-5.867 15.64h2.777l1.599-1.866h7.465l1.575 1.866h2.779l-5.866-15.637c-0.693 0.373-1.451 0.563-2.212 0.563zM16.018 15.567l1.877 6.715h-3.732l1.855-6.715zM12.297 26.014l1.866-1.866h3.732l1.866 1.866h-7.465zM21.985 5.284c-0.463 0.476-0.463 1.247 0 1.722 0.598 0.616 0.893 1.415 0.895 2.221-0.002 0.81-0.297 1.607-0.895 2.223-0.463 0.477-0.463 1.247 0 1.723 0.23 0.239 0.532 0.356 0.838 0.356 0.301 0 0.605-0.118 0.837-0.356 1.059-1.086 1.595-2.521 1.591-3.946 0.004-1.423-0.53-2.857-1.591-3.943-0.461-0.476-1.212-0.476-1.675 0z"></path>
</svg>
