<?xml version="1.0" encoding="utf-8"?>
<!-- Generated by IcoMoon.io -->
<!DOCTYPE svg PUBLIC "-//W3C//DTD SVG 1.1//EN" "http://www.w3.org/Graphics/SVG/1.1/DTD/svg11.dtd">
<svg version="1.1" xmlns="http://www.w3.org/2000/svg" xmlns:xlink="http://www.w3.org/1999/xlink" width="32" height="32" viewBox="0 0 32 32">
<path d="M17.875 10.375l-5.625 7.5h3.75v13.125h3.75v-13.125h3.75l-5.625-7.5zM12.25 10.375h1.875v-1.875h-1.875v1.875zM14.125 4.75h-1.875v1.875h1.875v-1.875zM25.375 1c-0.938 0-17.813 0-18.75 0s-1.875 0.938-1.875 1.875 0 21.563 0 22.5 0.938 1.875 1.875 1.875 3.75 0 3.75 0v3.75l3.75-3.75v-3.75h-3.75v1.875s-2.314 0-2.813 0-0.938-0.41-0.938-0.938 0-2.813 0-2.813h7.5v-1.875h-3.75v-16.875h15.029l-0.029 16.875h-3.75v1.875h3.75s0 2.314 0 2.813-0.439 0.938-0.938 0.938-2.813 0-2.813 0v1.875s2.813 0 3.75 0 1.875-0.938 1.875-1.875 0-21.563 0-22.5-0.938-1.875-1.875-1.875z"></path>
</svg>
