<?xml version="1.0" encoding="utf-8"?>
<!-- Generated by IcoMoon.io -->
<!DOCTYPE svg PUBLIC "-//W3C//DTD SVG 1.1//EN" "http://www.w3.org/Graphics/SVG/1.1/DTD/svg11.dtd">
<svg version="1.1" xmlns="http://www.w3.org/2000/svg" xmlns:xlink="http://www.w3.org/1999/xlink" width="32" height="32" viewBox="0 0 32 32">
<path d="M10.375 12.25h-1.875v1.875h1.875v-1.875zM6.625 2.875h7.5v-1.875s-10.313 0-11.25 0-1.875 0.938-1.875 1.875 0 21.563 0 22.5 0.938 1.875 1.875 1.875 3.75 0 3.75 0v3.75l2.813-2.813 2.813 2.813v-3.75s8.379 0 9.375 0 1.875-0.938 1.875-1.875 0-5.625 0-5.625h-16.875v-16.875zM21.625 21.625s0 2.314 0 2.813-0.41 0.938-0.938 0.938-8.438 0-8.438 0v-1.875h-5.625v1.875s-2.344 0-2.813 0-0.938-0.469-0.938-0.938 0-2.813 0-2.813h18.75zM10.375 8.5h-1.875v1.875h1.875v-1.875zM8.5 17.875h1.875v-1.875h-1.875v1.875zM29.125 1c-0.938 0-8.438 0-9.375 0s-1.875 0.938-1.875 1.875 0 10.313 0 11.25 0.938 1.875 1.875 1.875 1.875 0 1.875 0v1.875l0.938-0.938 0.938 0.938v-1.875s4.688 0 5.625 0 1.875-0.938 1.875-1.875 0-10.313 0-11.25-0.938-1.875-1.875-1.875zM21.625 14.125s-0.439 0-0.938 0-0.938-0.439-0.938-0.938 0-0.938 0-0.938h1.875v1.875zM29.125 13.188c0 0.469-0.439 0.938-0.938 0.938s-4.688 0-4.688 0v-1.875h5.625s0 0.469 0 0.938zM29.125 10.375h-7.5v-7.5h6.563s0.938 0 0.938 0.938 0 6.563 0 6.563zM10.375 4.75h-1.875v1.875h1.875v-1.875z"></path>
</svg>
