<?xml version="1.0" encoding="utf-8"?>
<!-- Generated by IcoMoon.io -->
<!DOCTYPE svg PUBLIC "-//W3C//DTD SVG 1.1//EN" "http://www.w3.org/Graphics/SVG/1.1/DTD/svg11.dtd">
<svg version="1.1" xmlns="http://www.w3.org/2000/svg" xmlns:xlink="http://www.w3.org/1999/xlink" width="32" height="32" viewBox="0 0 32 32">
<path d="M27.234 2.875c0-0.938-0.938-1.875-1.875-1.875s-17.813 0-18.75 0-1.875 0.938-1.875 1.875 0 22.5 0 22.5 0-0.938 0 0 0.938 1.875 1.875 1.875 3.75 0 3.75 0v3.75l3.75-3.75v-3.75h-3.75v1.875s-2.314 0-2.813 0-0.938-0.439-0.938-0.938 0-2.813 0-2.813h7.5v-1.875h-3.75v-16.875h15v16.875h-3.75v1.875h3.75s0 2.344 0 2.813-0.439 0.938-0.938 0.938-2.813 0-2.813 0v1.875s2.813 0 3.75 0 1.875-0.938 1.875-1.875 0-21.563 0-22.5zM19.266 12.25h4.219l-5.625-7.5-5.625 7.5h4.219l-4.219 5.625h3.75v13.125h3.75v-13.125h3.75l-4.219-5.625z"></path>
</svg>
