<?xml version="1.0" encoding="utf-8"?>
<!-- Generated by IcoMoon.io -->
<!DOCTYPE svg PUBLIC "-//W3C//DTD SVG 1.1//EN" "http://www.w3.org/Graphics/SVG/1.1/DTD/svg11.dtd">
<svg version="1.1" xmlns="http://www.w3.org/2000/svg" xmlns:xlink="http://www.w3.org/1999/xlink" width="32" height="32" viewBox="0 0 32 32">
<path d="M31 10.375l-5.625-5.625v3.75h-11.25v3.75h11.25v3.75l5.625-5.625zM21.625 19.75h-15v-16.875h15v3.75h1.875s0-2.813 0-3.75-0.938-1.875-1.875-1.875-17.813 0-18.75 0-1.875 0.938-1.875 1.875 0 21.563 0 22.5 0.938 1.875 1.875 1.875 3.75 0 3.75 0v3.75l2.813-2.813 2.813 2.813v-3.75s8.438 0 9.375 0 1.875-0.938 1.875-1.875 0-11.25 0-11.25h-1.875v5.625zM21.625 24.438c0 0.439-0.439 0.938-0.938 0.938s-8.438 0-8.438 0v-1.875h-5.625v1.875s-2.314 0-2.813 0-0.938-0.469-0.938-0.938 0-2.813 0-2.813h18.75s0 2.373 0 2.813zM10.375 8.5h-1.875v1.875h1.875v-1.875zM10.375 4.75h-1.875v1.875h1.875v-1.875zM10.375 12.25h-1.875v1.875h1.875v-1.875zM8.5 17.875h1.875v-1.875h-1.875v1.875z"></path>
</svg>
