<?xml version="1.0" encoding="utf-8"?>
<!-- Generated by IcoMoon.io -->
<!DOCTYPE svg PUBLIC "-//W3C//DTD SVG 1.1//EN" "http://www.w3.org/Graphics/SVG/1.1/DTD/svg11.dtd">
<svg version="1.1" xmlns="http://www.w3.org/2000/svg" xmlns:xlink="http://www.w3.org/1999/xlink" width="32" height="32" viewBox="0 0 32 32">
<path d="M27.239 4.746c0-2.078-1.668-3.746-3.746-3.746s-3.746 1.668-3.746 3.746c0 1.376 0.761 2.605 1.873 3.249v3.102l-5.62 6.205-5.62-6.205v-3.102c1.112-0.644 1.873-1.844 1.873-3.249 0-2.078-1.668-3.746-3.746-3.746s-3.746 1.668-3.746 3.746c0 1.376 0.761 2.605 1.873 3.249v4.566l7.493 8.254v3.19c-1.112 0.644-1.873 1.844-1.873 3.249 0 2.078 1.668 3.746 3.746 3.746s3.746-1.668 3.746-3.746c0-1.376-0.761-2.605-1.873-3.249v-3.19l7.493-8.254v-4.566c1.112-0.644 1.873-1.844 1.873-3.249zM8.507 2.902c0.995 0 1.815 0.82 1.815 1.815s-0.82 1.815-1.815 1.815-1.815-0.82-1.815-1.815 0.82-1.815 1.815-1.815zM16 28.98c-0.995 0-1.815-0.82-1.815-1.815s0.82-1.815 1.815-1.815 1.815 0.82 1.815 1.815-0.82 1.815-1.815 1.815zM23.493 2.902c0.995 0 1.815 0.82 1.815 1.815s-0.82 1.815-1.815 1.815-1.815-0.82-1.815-1.815 0.82-1.815 1.815-1.815z"></path>
</svg>
