<?xml version="1.0" encoding="utf-8"?>
<!-- Generated by IcoMoon.io -->
<!DOCTYPE svg PUBLIC "-//W3C//DTD SVG 1.1//EN" "http://www.w3.org/Graphics/SVG/1.1/DTD/svg11.dtd">
<svg version="1.1" xmlns="http://www.w3.org/2000/svg" xmlns:xlink="http://www.w3.org/1999/xlink" width="32" height="32" viewBox="0 0 32 32">
<path d="M21.998 4.634c-2.107 1.221-4.337 2.816-6.399 4.88-1.318 1.319-2.379 2.601-3.234 3.802l-5.226 0.966-6.137 6.142 5.473 0.17 3.854-3.854c-1.361 2.819-1.481 4.688-1.481 4.688l1.724 1.722c0 0 1.929-0.183 4.768-1.558l-3.937 3.932 0.172 5.475 6.14-6.138 0.969-5.252c1.213-0.85 2.496-1.906 3.8-3.209 2.063-2.064 3.657-4.293 4.88-6.4-1.347-0.274-2.582-0.835-3.557-1.807-0.975-0.978-1.539-2.213-1.81-3.559zM24.032 3.544c0.147 1.318 0.585 2.381 1.312 3.105 0.726 0.732 1.787 1.169 3.11 1.314 1.933-3.907 2.545-6.963 2.545-6.963s-3.056 0.611-6.967 2.544z"></path>
</svg>
