<?xml version="1.0" encoding="utf-8"?>
<!-- Generated by IcoMoon.io -->
<!DOCTYPE svg PUBLIC "-//W3C//DTD SVG 1.1//EN" "http://www.w3.org/Graphics/SVG/1.1/DTD/svg11.dtd">
<svg version="1.1" xmlns="http://www.w3.org/2000/svg" xmlns:xlink="http://www.w3.org/1999/xlink" width="32" height="32" viewBox="0 0 32 32">
<path d="M6 21c-2.76 0-5 2.241-5 5s2.24 5 5 5 5-2.241 5-5-2.24-5-5-5zM6 11c0 0-2.5 0.078-2.5 2.5s2.5 2.5 2.5 2.5c5.522 0 10 4.478 10 10 0 0 0 2.5 2.5 2.5s2.5-2.5 2.5-2.5c0-8.281-6.718-15-15-15zM6 1c0 0-2.5 0-2.5 2.5s2.5 2.5 2.5 2.5c11.045 0 20 8.955 20 20 0 0 0 2.5 2.5 2.5s2.5-2.5 2.5-2.5c0-13.805-11.191-25-25-25z"></path>
</svg>
