<?xml version="1.0" encoding="utf-8"?>
<!-- Generated by IcoMoon.io -->
<!DOCTYPE svg PUBLIC "-//W3C//DTD SVG 1.1//EN" "http://www.w3.org/Graphics/SVG/1.1/DTD/svg11.dtd">
<svg version="1.1" xmlns="http://www.w3.org/2000/svg" xmlns:xlink="http://www.w3.org/1999/xlink" width="32" height="32" viewBox="0 0 32 32">
<path d="M30.666 26.535l-7.646-7.646c1.091-1.782 1.753-3.858 1.753-6.104 0-6.507-5.279-11.785-11.785-11.785s-11.785 5.278-11.785 11.785c0 6.506 5.278 11.785 11.785 11.785 2.245 0 4.322-0.662 6.104-1.749l7.646 7.642c0.537 0.537 1.427 0.533 1.964 0l1.964-1.964c0.537-0.537 0.537-1.427 0-1.964zM12.988 20.642c-4.339 0-7.857-3.518-7.857-7.857s3.518-7.857 7.857-7.857 7.857 3.518 7.857 7.857-3.518 7.857-7.857 7.857z"></path>
</svg>
