<?xml version="1.0" encoding="utf-8"?>
<!-- Generated by IcoMoon.io -->
<!DOCTYPE svg PUBLIC "-//W3C//DTD SVG 1.1//EN" "http://www.w3.org/Graphics/SVG/1.1/DTD/svg11.dtd">
<svg version="1.1" xmlns="http://www.w3.org/2000/svg" xmlns:xlink="http://www.w3.org/1999/xlink" width="32" height="32" viewBox="0 0 32 32">
<path d="M26.714 11.714h-21.429c-1.172 0-2.143 1.071-2.143 2.143v4.286c0 1.071 1.071 2.143 2.143 2.143h21.429c1.071 0 2.143-1.071 2.143-2.143v-4.286c0-1.071-1.071-2.143-2.143-2.143zM7.429 18.143h-2.143v-4.286h2.143v4.286zM11.714 18.143h-2.143v-4.286h2.143v4.286zM16 18.143h-2.143v-4.286h2.143v4.286zM20.286 18.143h-2.143v-4.286h2.143v4.286zM26.714 22.429h-21.429c-1.172 0-2.143 1.071-2.143 2.143v4.286c0 1.071 1.071 2.143 2.143 2.143h21.429c1.071 0 2.143-1.071 2.143-2.143v-4.286c0-1.071-1.071-2.143-2.143-2.143zM7.429 28.857h-2.143v-4.286h2.143v4.286zM11.714 28.857h-2.143v-4.286h2.143v4.286zM16 28.857h-2.143v-4.286h2.143v4.286zM20.286 28.857h-2.143v-4.286h2.143v4.286zM26.714 1h-21.429c-1.172 0-2.143 1.071-2.143 2.143v4.286c0 1.071 1.071 2.143 2.143 2.143h21.429c1.071 0 2.143-1.071 2.143-2.143v-4.286c0-1.071-1.071-2.143-2.143-2.143zM7.429 7.429h-2.143v-4.286h2.143v4.286zM11.714 7.429h-2.143v-4.286h2.143v4.286zM16 7.429h-2.143v-4.286h2.143v4.286zM20.286 7.429h-2.143v-4.286h2.143v4.286zM26.714 5.286h-2.143v-2.143h2.143v2.143z"></path>
</svg>
