<?xml version="1.0" encoding="utf-8"?>
<!-- Generated by IcoMoon.io -->
<!DOCTYPE svg PUBLIC "-//W3C//DTD SVG 1.1//EN" "http://www.w3.org/Graphics/SVG/1.1/DTD/svg11.dtd">
<svg version="1.1" xmlns="http://www.w3.org/2000/svg" xmlns:xlink="http://www.w3.org/1999/xlink" width="32" height="32" viewBox="0 0 32 32">
<path d="M23.429 3c-4.103 0-7.429 2.43-7.429 5.423 0 3.595 0.929 5.633 0 11.292 0-8.357-5.136-11.775-7.429-11.775 0.095-0.934-0.898-1.225-0.898-1.225s-0.406 0.207-0.562 0.626c-0.5-0.582-1.049-0.509-1.049-0.509l-0.246 1.076c0 0-3.396 1.186-3.443 5.986 0.394 0.626 2.87 1.123 4.628 0.804 1.659 0.086 1.247 1.47 0.876 1.841-1.567 1.567-3.020-0.539-4.877-0.539s-1.857 1.857 0 1.857 1.857 1.857 5.571 1.857c-5.746 2.234 0 7.429 0 7.429h-1.857c-1.857 0-1.857 1.857-1.857 1.857s7.429 0 11.143 0c5.571 0 9.286-1.857 9.286-6.447 0-1.577-0.804-3.326-1.857-4.707-2.059-2.699 0.419-4.967 1.857-3.702s5.571 1.857 5.571-3.714c0-4.103-3.326-7.429-7.429-7.429zM5.786 12.286c-0.513 0-0.929-0.416-0.929-0.929s0.416-0.929 0.929-0.929c0.513 0 0.929 0.416 0.929 0.929s-0.416 0.929-0.929 0.929z"></path>
</svg>
