<?xml version="1.0" encoding="utf-8"?>
<!-- Generated by IcoMoon.io -->
<!DOCTYPE svg PUBLIC "-//W3C//DTD SVG 1.1//EN" "http://www.w3.org/Graphics/SVG/1.1/DTD/svg11.dtd">
<svg version="1.1" xmlns="http://www.w3.org/2000/svg" xmlns:xlink="http://www.w3.org/1999/xlink" width="32" height="32" viewBox="0 0 32 32">
<path d="M9.857 1c-2.515 0-4.554 3.358-4.554 7.5 0 2.305 0.57 4.749 1.138 8.523 0.445 2.956 1.529 5.406 3.415 5.406s3.15-1.634 3.15-4.62c0-1.017-0.836-2.637-0.873-4.019-0.068-2.493 1.672-3.488 1.672-5.792 0-4.142-1.434-6.998-3.949-6.998zM22.143 9.571c-2.515 0-3.949 2.856-3.949 6.998 0 2.305 1.739 3.299 1.672 5.792-0.037 1.382-0.873 3.002-0.873 4.019 0 2.986 1.264 4.62 3.15 4.62s2.97-2.45 3.415-5.406c0.569-3.773 1.138-6.218 1.138-8.523 0-4.142-2.039-7.5-4.554-7.5z"></path>
</svg>
