<?xml version="1.0" encoding="utf-8"?>
<!-- Generated by IcoMoon.io -->
<!DOCTYPE svg PUBLIC "-//W3C//DTD SVG 1.1//EN" "http://www.w3.org/Graphics/SVG/1.1/DTD/svg11.dtd">
<svg version="1.1" xmlns="http://www.w3.org/2000/svg" xmlns:xlink="http://www.w3.org/1999/xlink" width="32" height="32" viewBox="0 0 32 32">
<path d="M13.857 1h-8.571l-4.286 4.286v8.571l17.143 17.143 12.857-12.857-17.143-17.143zM3.143 12.786v-6.429l3.214-3.214h6.429l15 15-9.643 9.643-15-15zM16 9.571l-6.429 6.429 8.571 8.571 6.429-6.429-8.571-8.571zM12.786 16l3.214-3.214 5.357 5.357-3.214 3.214-5.357-5.357zM11.714 8.5c0-1.775-1.44-3.214-3.214-3.214s-3.214 1.44-3.214 3.214 1.44 3.214 3.214 3.214 3.214-1.44 3.214-3.214zM8.5 9.571c-0.591 0-1.071-0.48-1.071-1.071s0.48-1.071 1.071-1.071 1.071 0.48 1.071 1.071-0.48 1.071-1.071 1.071z"></path>
</svg>
