<?xml version="1.0" encoding="utf-8"?>
<!-- Generated by IcoMoon.io -->
<!DOCTYPE svg PUBLIC "-//W3C//DTD SVG 1.1//EN" "http://www.w3.org/Graphics/SVG/1.1/DTD/svg11.dtd">
<svg version="1.1" xmlns="http://www.w3.org/2000/svg" xmlns:xlink="http://www.w3.org/1999/xlink" width="32" height="32" viewBox="0 0 32 32">
<path d="M3.633 13.912c1.012-0.253 7.243-1.866 7.243-1.866-0.032 0.19-0.063 0.601-0.063 0.601 0 2.246 1.55 4.049 4.049 4.049s4.049-1.866 4.049-4.049c0-0.348-0.253-0.696-0.601-1.012l1.55 0.095s0.221-0.063 0.981-0.253c-1.613 0.443-3.416-0.981-3.985-3.131s0.253-4.27 1.898-4.713c-0.759 0.19-0.981 0.253-0.981 0.253l-5.314 3.479c-1.075 0.285-1.74 1.455-1.455 2.53 0.063 0.285 0.221 0.538 0.38 0.727-0.221 0.38-0.38 0.822-0.474 1.265-0.854-0.032-1.613-0.601-1.866-1.455-0.285-1.075 0.348-2.182 1.423-2.467l-7.749 2.056c-1.075 0.285-1.708 1.36-1.423 2.435s1.297 1.708 2.309 1.455zM16.885 18.752h-4.049v2.024l-10.121 10.121h4.049l6.073-4.049v4.049h4.049v-4.049l6.073 4.049h4.049l-10.121-10.121v-2.024zM30.454 4.582c-0.569-2.151-2.214-3.479-3.859-3.036-2.182 0.569-3.1 0.886-5.883 1.613-1.613 0.443-2.499 2.53-1.929 4.681s2.341 3.637 3.954 3.226c2.752-0.727 3.701-1.044 5.883-1.613 1.613-0.443 2.404-2.688 1.834-4.871zM28.24 7.428c-0.538 0.158-1.328-0.538-1.613-1.613s-0.127-2.088 0.411-2.214 1.328 0.538 1.613 1.613 0.127 2.088-0.411 2.214z"></path>
</svg>
