<?xml version="1.0" encoding="utf-8"?>
<!-- Generated by IcoMoon.io -->
<!DOCTYPE svg PUBLIC "-//W3C//DTD SVG 1.1//EN" "http://www.w3.org/Graphics/SVG/1.1/DTD/svg11.dtd">
<svg version="1.1" xmlns="http://www.w3.org/2000/svg" xmlns:xlink="http://www.w3.org/1999/xlink" width="32" height="32" viewBox="0 0 32 32">
<path d="M9.649 14.639c0.488 0.487 2.366 2.469 2.366 2.469l1.041-1.074-1.632-1.686 3.133-3.327c0 0-1.414-1.379-0.795-0.83 0.592-2.197 0.052-4.649-1.617-6.376-1.655-1.713-4.006-2.275-6.118-1.685l3.58 3.697-0.942 3.628-3.505 0.968-3.578-3.698c-0.571 2.184-0.028 4.613 1.63 6.327 1.74 1.798 4.245 2.327 6.437 1.588zM21.584 18.235l-4.317 4.265 7.12 7.377c0.581 0.602 1.346 0.903 2.11 0.903 0.76 0 1.523-0.3 2.108-0.903 1.165-1.205 1.165-3.155 0-4.36l-7.020-7.281zM30.989 5.862l-4.534-4.685-13.365 13.818 1.632 1.686-8 8.269-1.828 0.977-2.583 4.214 0.658 0.682 4.077-2.671 0.945-1.891 8-8.267 1.633 1.686 13.365-13.819z"></path>
</svg>
