<?xml version="1.0" encoding="utf-8"?>
<!-- Generated by IcoMoon.io -->
<!DOCTYPE svg PUBLIC "-//W3C//DTD SVG 1.1//EN" "http://www.w3.org/Graphics/SVG/1.1/DTD/svg11.dtd">
<svg version="1.1" xmlns="http://www.w3.org/2000/svg" xmlns:xlink="http://www.w3.org/1999/xlink" width="32" height="32" viewBox="0 0 32 32">
<path d="M25.643 3.143h-8.571c0 0 0-0.805 0-1.071 0-0.592-0.48-1.071-1.071-1.071s-1.071 0.48-1.071 1.071c0 0.592 0 1.071 0 1.071h-8.571c-1.183 0-2.143 0.959-2.143 2.143v2.143c0 1.183 0.959 2.143 2.143 2.143v19.286c0 1.183 0.959 2.143 2.143 2.143h15c1.183 0 2.143-0.959 2.143-2.143v-19.286c1.183 0 2.143-0.959 2.143-2.143v-2.143c0-1.183-0.959-2.143-2.143-2.143zM23.5 27.786c0 0.592-0.48 1.071-1.071 1.071h-12.857c-0.592 0-1.071-0.48-1.071-1.071v-18.214h2.143v16.071c0 0.592 0.48 1.071 1.071 1.071s1.071-0.48 1.071-1.071l0.013-16.071h2.13v16.071c0 0.592 0.48 1.071 1.071 1.071s1.071-0.48 1.071-1.071l0.013-16.071h2.143l-0.013 16.071c0 0.592 0.48 1.071 1.071 1.071s1.071-0.48 1.071-1.071v-16.071h2.143v18.214zM25.643 6.893c0 0.296-0.24 0.536-0.536 0.536h-18.214c-0.296 0-0.536-0.24-0.536-0.536v-1.071c0-0.296 0.24-0.536 0.536-0.536h18.214c0.296 0 0.536 0.24 0.536 0.536v1.071z"></path>
</svg>
