<?xml version="1.0" encoding="utf-8"?>
<!-- Generated by IcoMoon.io -->
<!DOCTYPE svg PUBLIC "-//W3C//DTD SVG 1.1//EN" "http://www.w3.org/Graphics/SVG/1.1/DTD/svg11.dtd">
<svg version="1.1" xmlns="http://www.w3.org/2000/svg" xmlns:xlink="http://www.w3.org/1999/xlink" width="32" height="32" viewBox="0 0 32 32">
<path d="M5.669 11.689h-4.311v8.622h4.311l8.622 6.466h2.155v-21.554h-2.155l-8.622 6.466zM19.495 12.952c-0.421-0.421-1.103-0.421-1.524 0s-0.421 1.103 0 1.524c0.842 0.842 0.842 2.206 0 3.048-0.421 0.421-0.421 1.103 0 1.524s1.103 0.421 1.524 0c1.683-1.684 1.683-4.413 0-6.096zM22.543 9.904c-0.421-0.421-1.103-0.421-1.524 0s-0.421 1.103 0 1.524c2.525 2.525 2.525 6.619 0 9.145-0.421 0.421-0.421 1.103 0 1.524s1.103 0.421 1.524 0c3.367-3.367 3.367-8.826 0-12.193zM25.591 6.855c-0.421-0.421-1.103-0.421-1.524 0s-0.421 1.103 0 1.524c4.209 4.209 4.209 11.032 0 15.241-0.421 0.421-0.421 1.103 0 1.524s1.103 0.421 1.524 0c5.050-5.050 5.050-13.239 0-18.289z"></path>
</svg>
