<?xml version="1.0" encoding="utf-8"?>
<!-- Generated by IcoMoon.io -->
<!DOCTYPE svg PUBLIC "-//W3C//DTD SVG 1.1//EN" "http://www.w3.org/Graphics/SVG/1.1/DTD/svg11.dtd">
<svg version="1.1" xmlns="http://www.w3.org/2000/svg" xmlns:xlink="http://www.w3.org/1999/xlink" width="32" height="32" viewBox="0 0 32 32">
<path d="M15.841 31c-2.168 0-4.337-0.825-5.992-2.473-3.3-3.307-3.3-8.684 0-11.984l7.457-7.296c0.424-0.427 0.668-1.013 0.668-1.641 0-0.625-0.244-1.213-0.682-1.659-0.912-0.912-2.398-0.908-3.317 0.004-0.905 0.912-0.905 2.398 0.006 3.311l-2.603 2.603c-2.344-2.348-2.344-6.164-0.003-8.513 2.355-2.352 6.168-2.348 8.514-0.004 1.142 1.138 1.767 2.653 1.767 4.262s-0.625 3.12-1.767 4.254l-7.455 7.292c-1.857 1.853-1.857 4.897 0.018 6.767 1.867 1.87 4.912 1.867 6.786 0 1.865-1.87 1.865-4.915 0-6.782l-1.307-1.3 3.998-3.996 2.599 2.599-1.537 1.537c2.083 3.274 1.702 7.683-1.156 10.541-1.653 1.652-3.827 2.477-5.995 2.477v0z"></path>
</svg>
