<?xml version="1.0" encoding="utf-8"?>
<!-- Generated by IcoMoon.io -->
<!DOCTYPE svg PUBLIC "-//W3C//DTD SVG 1.1//EN" "http://www.w3.org/Graphics/SVG/1.1/DTD/svg11.dtd">
<svg version="1.1" xmlns="http://www.w3.org/2000/svg" xmlns:xlink="http://www.w3.org/1999/xlink" width="32" height="32" viewBox="0 0 32 32">
<path d="M29.415 9.412l-9.35 9.35h10.657c0.169-0.902 0.278-1.817 0.278-2.762 0-2.375-0.601-4.592-1.585-6.588zM20.739 15.287l7.69-7.687c-1.831-2.699-4.541-4.707-7.69-5.762v13.448zM16.701 20.739l7.692 7.694c2.703-1.827 4.713-4.541 5.768-7.694h-13.46zM18.759 12.010v-10.732c-0.897-0.167-1.814-0.278-2.759-0.278-2.395 0-4.629 0.613-6.638 1.613l9.397 9.397zM13.241 20.080v10.642c0.897 0.168 1.814 0.277 2.759 0.277 2.373 0 4.585-0.601 6.581-1.582l-9.34-9.337zM11.259 16.725l-7.681 7.68c1.827 2.695 4.536 4.703 7.681 5.757v-13.437zM1.278 13.241c-0.167 0.897-0.278 1.814-0.278 2.759 0 2.38 0.605 4.599 1.589 6.595l9.355-9.355h-10.666zM7.559 3.607c-2.677 1.827-4.671 4.522-5.72 7.652h13.372l-7.653-7.652z"></path>
</svg>
