<?xml version="1.0" encoding="utf-8"?>
<!-- Generated by IcoMoon.io -->
<!DOCTYPE svg PUBLIC "-//W3C//DTD SVG 1.1//EN" "http://www.w3.org/Graphics/SVG/1.1/DTD/svg11.dtd">
<svg version="1.1" xmlns="http://www.w3.org/2000/svg" xmlns:xlink="http://www.w3.org/1999/xlink" width="32" height="32" viewBox="0 0 32 32">
<path d="M20.849 14.106l5.335-9.060c-2.677-2.492-6.236-4.046-10.184-4.046-0.936 0-1.842 0.112-2.73 0.275l7.579 12.832zM19.706 19.75h10.762c0.312-1.205 0.532-2.446 0.532-3.75 0-3.631-1.341-6.916-3.49-9.511l-7.804 13.261zM16.469 10.375l-5.070-8.58c-4.219 1.368-7.63 4.498-9.285 8.58h14.355zM15.656 21.625l5.054 8.547c4.171-1.391 7.537-4.501 9.177-8.547h-14.231zM12.348 12.25h-10.818c-0.313 1.205-0.531 2.446-0.531 3.75 0 3.648 1.355 6.947 3.521 9.551l7.827-13.301zM11.236 17.838l-5.385 9.148c2.675 2.468 6.22 4.013 10.149 4.013 0.976 0 1.927-0.11 2.849-0.286l-7.613-12.876z"></path>
</svg>
