<?xml version="1.0" encoding="utf-8"?>
<!-- Generated by IcoMoon.io -->
<!DOCTYPE svg PUBLIC "-//W3C//DTD SVG 1.1//EN" "http://www.w3.org/Graphics/SVG/1.1/DTD/svg11.dtd">
<svg version="1.1" xmlns="http://www.w3.org/2000/svg" xmlns:xlink="http://www.w3.org/1999/xlink" width="32" height="32" viewBox="0 0 32 32">
<path d="M28.979 23.5c1.285-2.208 2.021-4.761 2.021-7.5 0-8.284-6.716-15-15-15s-15 6.716-15 15 6.716 15 15 15c4.142 0 7.892-1.677 10.605-4.395l-2.655-2.655c-2.035 2.040-4.848 3.3-7.95 3.3-6.203 0-11.25-5.047-11.25-11.25s5.047-11.25 11.25-11.25 11.25 5.047 11.25 11.25c0 1.333-0.256 2.607-0.684 3.794l-0.030-0.044h-3.036v-11.21h-7.5c-4.142 0-7.5 3.358-7.5 7.5s3.358 7.5 7.5 7.5c1.721 0 3.289-0.605 4.555-1.579 0.682 0.908 1.721 1.538 2.945 1.538h5.479zM19.75 14.133v1.908c0 2.069-1.685 3.75-3.75 3.75s-3.75-1.681-3.75-3.75 1.685-3.75 3.75-3.75h3.75v1.842z"></path>
</svg>
