<?xml version="1.0" encoding="utf-8"?>
<!-- Generated by IcoMoon.io -->
<!DOCTYPE svg PUBLIC "-//W3C//DTD SVG 1.1//EN" "http://www.w3.org/Graphics/SVG/1.1/DTD/svg11.dtd">
<svg version="1.1" xmlns="http://www.w3.org/2000/svg" xmlns:xlink="http://www.w3.org/1999/xlink" width="32" height="32" viewBox="0 0 32 32">
<path d="M16 19.75c-1.322 0-2.571-0.271-3.75-0.688v11.938l3.75-3.75 3.75 3.75v-11.938c-1.179 0.417-2.428 0.688-3.75 0.688zM16 1c-4.142 0-7.5 3.358-7.5 7.5s3.358 7.5 7.5 7.5 7.5-3.358 7.5-7.5-3.358-7.5-7.5-7.5zM16 12.25c-2.073 0-3.75-1.679-3.75-3.75s1.677-3.75 3.75-3.75 3.75 1.679 3.75 3.75-1.677 3.75-3.75 3.75z"></path>
</svg>
