<?xml version="1.0" encoding="utf-8"?>
<!-- Generated by IcoMoon.io -->
<!DOCTYPE svg PUBLIC "-//W3C//DTD SVG 1.1//EN" "http://www.w3.org/Graphics/SVG/1.1/DTD/svg11.dtd">
<svg version="1.1" xmlns="http://www.w3.org/2000/svg" xmlns:xlink="http://www.w3.org/1999/xlink" width="32" height="32" viewBox="0 0 32 32">
<path d="M26.5 12.5v-1.75c0-0.963-0.788-1.75-1.75-1.75h-21c-0.962 0-1.75 0.787-1.75 1.75v3.5h5.555c0.722-2.038 2.66-3.5 4.945-3.5v1.75h3.5v1.75h-3.5v3.5h3.5v1.75h-3.5v1.75c-2.285 0-4.224-1.462-4.945-3.5h-5.555v3.5c0 0.962 0.788 1.75 1.75 1.75h21c0.962 0 1.75-0.788 1.75-1.75v-1.75h3.5v-7h-3.5z"></path>
</svg>
