<?xml version="1.0" encoding="utf-8"?>
<!-- Generated by IcoMoon.io -->
<!DOCTYPE svg PUBLIC "-//W3C//DTD SVG 1.1//EN" "http://www.w3.org/Graphics/SVG/1.1/DTD/svg11.dtd">
<svg version="1.1" xmlns="http://www.w3.org/2000/svg" xmlns:xlink="http://www.w3.org/1999/xlink" width="32" height="32" viewBox="0 0 32 32">
<path d="M21.625 1h-11.25c-1.036 0-1.875 0.839-1.875 1.875v20.625c0 4.142 3.358 7.5 7.5 7.5s7.5-3.358 7.5-7.5v-20.625c0-1.036-0.839-1.875-1.875-1.875zM17.875 23.5c-1.036 0-1.875-0.839-1.875-1.875s0.839-1.875 1.875-1.875 1.875 0.839 1.875 1.875-0.839 1.875-1.875 1.875zM19.75 16h-1.875c0-1.035-0.84-1.875-1.875-1.875s-1.875 0.84-1.875 1.875h-1.875v-11.25h7.5v11.25z"></path>
</svg>
