<?xml version="1.0" encoding="utf-8"?>
<!-- Generated by IcoMoon.io -->
<!DOCTYPE svg PUBLIC "-//W3C//DTD SVG 1.1//EN" "http://www.w3.org/Graphics/SVG/1.1/DTD/svg11.dtd">
<svg version="1.1" xmlns="http://www.w3.org/2000/svg" xmlns:xlink="http://www.w3.org/1999/xlink" width="32" height="32" viewBox="0 0 32 32">
<path d="M16 6.714c0 0-3.714-3.714-14.857-3.714v22.286c11.259 0 14.857 3.714 14.857 3.714s3.598-3.714 14.857-3.714v-22.286c-11.143 0-14.857 3.714-14.857 3.714zM4.857 6.714c4.721 0.396 7.617 1.488 9.286 2.372v14.958c-1.669-0.881-4.565-1.973-9.286-2.372v-14.958zM27.143 21.673c-4.723 0.399-7.617 1.489-9.286 2.372v-14.958c1.669-0.885 4.563-1.977 9.286-2.373v14.958z"></path>
</svg>
