<?xml version="1.0" encoding="utf-8"?>
<!-- Generated by IcoMoon.io -->
<!DOCTYPE svg PUBLIC "-//W3C//DTD SVG 1.1//EN" "http://www.w3.org/Graphics/SVG/1.1/DTD/svg11.dtd">
<svg version="1.1" xmlns="http://www.w3.org/2000/svg" xmlns:xlink="http://www.w3.org/1999/xlink" width="32" height="32" viewBox="0 0 32 32">
<path d="M12.092 23.575c0-2.044-1.657-3.697-3.697-3.697-2.044 0-3.697 1.654-3.697 3.697v0.007c0 2.733-1.487 5.116-3.697 6.394l0.015 0.011c1.083 0.624 2.339 0.982 3.683 0.982 4.084 0 7.395-3.311 7.395-7.395v0zM29.493 2.474c-1.444-1.444-3.784-1.444-5.228 0l-13.978 13.98c2.549 0.682 4.55 2.679 5.228 5.232l13.978-13.984c1.445-1.444 1.445-3.784 0-5.228z"></path>
</svg>
