<?xml version="1.0" encoding="utf-8"?>
<!-- Generated by IcoMoon.io -->
<!DOCTYPE svg PUBLIC "-//W3C//DTD SVG 1.1//EN" "http://www.w3.org/Graphics/SVG/1.1/DTD/svg11.dtd">
<svg version="1.1" xmlns="http://www.w3.org/2000/svg" xmlns:xlink="http://www.w3.org/1999/xlink" width="32" height="32" viewBox="0 0 32 32">
<path d="M29.493 2.474c-1.444-1.444-3.784-1.444-5.228 0l-10.537 10.535c2.441 0.87 4.362 2.791 5.228 5.232l10.537-10.539c1.445-1.444 1.445-3.784 0-5.228zM15.785 21.109c0-2.722-2.21-4.928-4.932-4.928s-4.928 2.206-4.928 4.928l0.004 0.004c-0.004 3.646-1.985 6.828-4.928 8.531l0.015 0.018c1.448 0.83 3.123 1.307 4.914 1.307 5.445 0 9.861-4.415 9.861-9.861h-0.004z"></path>
</svg>
