<?xml version="1.0" encoding="utf-8"?>
<!-- Generated by IcoMoon.io -->
<!DOCTYPE svg PUBLIC "-//W3C//DTD SVG 1.1//EN" "http://www.w3.org/Graphics/SVG/1.1/DTD/svg11.dtd">
<svg version="1.1" xmlns="http://www.w3.org/2000/svg" xmlns:xlink="http://www.w3.org/1999/xlink" width="32" height="32" viewBox="0 0 32 32">
<path d="M31 31h-30v-26.25h3.75v22.5h22.5v-22.5h3.75zM6.625 12.25h3.75v3.75h-3.75zM14.125 12.25h3.75v3.75h-3.75zM21.625 12.25h3.75v3.75h-3.75zM6.625 19.75h3.75v3.75h-3.75zM14.125 19.75h3.75v3.75h-3.75zM21.625 23.5v-3.75h3.75zM8.5 6.625v-3.75c0-1.036 0.839-1.875 1.875-1.875s1.875 0.839 1.875 1.875v3.75c0 1.036-0.839 1.875-1.875 1.875s-1.875-0.839-1.875-1.875zM19.75 6.625v-3.75c0-1.036 0.839-1.875 1.875-1.875s1.875 0.839 1.875 1.875v3.75c0 1.036-0.839 1.875-1.875 1.875s-1.875-0.839-1.875-1.875z"></path>
</svg>
