<?xml version="1.0" encoding="utf-8"?>
<!-- Generated by IcoMoon.io -->
<!DOCTYPE svg PUBLIC "-//W3C//DTD SVG 1.1//EN" "http://www.w3.org/Graphics/SVG/1.1/DTD/svg11.dtd">
<svg version="1.1" xmlns="http://www.w3.org/2000/svg" xmlns:xlink="http://www.w3.org/1999/xlink" width="32" height="32" viewBox="0 0 32 32">
<path d="M16 19.75c4.142 0 7.496-3.358 7.496-7.5v-3.75c0-5.176-3.746-7.5-7.496-7.5h-7.504c-3.746 0-7.496 1.992-7.496 7.5 0 5.391 3.75 7.5 7.496 7.5h3.754c2.069 0 3.75 1.681 3.75 3.75zM25.356 12.45c-0.11 5.074-4.258 9.175-9.356 9.175h-1.875v-1.875c0-1.035-0.842-1.875-1.875-1.875h-3.563c-0.113 0.56-0.182 1.159-0.187 1.806v3.892c0.039 4.108 3.383 7.428 7.5 7.428 0-2.073 1.681-3.75 3.75-3.75h3.746c3.754 0 7.504-2.109 7.504-7.5 0-4.587-2.611-6.713-5.644-7.3z"></path>
</svg>
