<?xml version="1.0" encoding="utf-8"?>
<!-- Generated by IcoMoon.io -->
<!DOCTYPE svg PUBLIC "-//W3C//DTD SVG 1.1//EN" "http://www.w3.org/Graphics/SVG/1.1/DTD/svg11.dtd">
<svg version="1.1" xmlns="http://www.w3.org/2000/svg" xmlns:xlink="http://www.w3.org/1999/xlink" width="32" height="32" viewBox="0 0 32 32">
<path d="M25.353 12.45c-0.025 1.3-0.315 2.527-0.828 3.646 2.703 0.45 2.724 2.651 2.724 3.654 0 0.93 0 3.75-3.746 3.75h-3.754c-2.442 0-4.629 1.179-5.998 3.003-0.908-0.688-1.502-1.779-1.502-3.003v-3.75c0-0.74 0.132-1.326 0.337-1.808-0.11-0.020-0.219-0.067-0.337-0.067h-3.56c-0.121 0.58-0.187 1.201-0.187 1.875v3.75c0 4.142 3.354 7.5 7.496 7.5 0-2.073 1.677-3.75 3.75-3.75h3.754c3.746 0 7.496-2.109 7.496-7.5 0-4.587-2.607-6.713-5.647-7.3zM16 4.75c1.399 0 3.75 0.487 3.75 3.75v3.75c0 1.227-0.593 2.317-1.502 3.001-1.369-1.82-3.552-3.001-5.998-3.001h-3.746c-3.754 0-3.754-2.822-3.754-3.75 0-1.12 0-3.75 3.754-3.75h7.496M16 1h-7.496c-3.754 0-7.504 1.992-7.504 7.5 0 5.391 3.75 7.5 7.504 7.5h3.746c2.073 0 3.75 1.681 3.75 3.75 4.142 0 7.504-3.358 7.504-7.5v-3.75c0-5.176-3.754-7.5-7.504-7.5v0z"></path>
</svg>
