<?xml version="1.0" encoding="utf-8"?>
<!-- Generated by IcoMoon.io -->
<!DOCTYPE svg PUBLIC "-//W3C//DTD SVG 1.1//EN" "http://www.w3.org/Graphics/SVG/1.1/DTD/svg11.dtd">
<svg version="1.1" xmlns="http://www.w3.org/2000/svg" xmlns:xlink="http://www.w3.org/1999/xlink" width="32" height="32" viewBox="0 0 32 32">
<path d="M16 4.75c6.203 0 11.25 5.047 11.25 11.25s-5.047 11.25-11.25 11.25-11.25-5.047-11.25-11.25 5.047-11.25 11.25-11.25M16 1c-8.284 0-15 6.716-15 15s6.716 15 15 15 15-6.716 15-15-6.716-15-15-15v0zM21.083 18.417l-3.208-3.212v-6.705h-3.772v7.492c0 0.564 0.26 1.051 0.652 1.399l3.677 3.677 2.651-2.651z"></path>
</svg>
