<?xml version="1.0" encoding="utf-8"?>
<!-- Generated by IcoMoon.io -->
<!DOCTYPE svg PUBLIC "-//W3C//DTD SVG 1.1//EN" "http://www.w3.org/Graphics/SVG/1.1/DTD/svg11.dtd">
<svg version="1.1" xmlns="http://www.w3.org/2000/svg" xmlns:xlink="http://www.w3.org/1999/xlink" width="32" height="32" viewBox="0 0 32 32">
<path d="M23.5 4.75c-0.352 0-0.692 0.055-1.033 0.106-1.307-2.314-3.724-3.856-6.467-3.856-2.801 0-5.22 1.564-6.507 3.842-0.33-0.044-0.658-0.092-0.993-0.092-4.136 0-7.5 3.366-7.5 7.5s3.364 7.5 7.5 7.5h5.625v5.625h-3.75l5.625 5.625 5.625-5.625h-3.75v-5.625h5.625c4.138 0 7.5-3.366 7.5-7.5s-3.362-7.5-7.5-7.5zM23.5 16h-15c-2.067 0-3.75-1.681-3.75-3.75 0-2.054 1.822-3.644 3.754-3.698 0.008 0.882 0.161 1.754 0.469 2.574l3.512-1.318c-0.156-0.414-0.234-0.858-0.234-1.308 0-2.069 1.683-3.75 3.75-3.75 1.214 0 2.309 0.601 3.003 1.535-1.812 1.37-3.003 3.523-3.003 5.965h3.75c0-2.069 1.685-3.75 3.75-3.75s3.75 1.681 3.75 3.75-1.685 3.75-3.75 3.75z"></path>
</svg>
