<?xml version="1.0" encoding="utf-8"?>
<!-- Generated by IcoMoon.io -->
<!DOCTYPE svg PUBLIC "-//W3C//DTD SVG 1.1//EN" "http://www.w3.org/Graphics/SVG/1.1/DTD/svg11.dtd">
<svg version="1.1" xmlns="http://www.w3.org/2000/svg" xmlns:xlink="http://www.w3.org/1999/xlink" width="32" height="32" viewBox="0 0 32 32">
<path d="M23.5 4.75c-0.352 0-0.692 0.058-1.033 0.102-1.307-2.307-3.724-3.852-6.467-3.852-2.801 0-5.22 1.56-6.507 3.846-0.33-0.044-0.658-0.096-0.993-0.096-4.136 0-7.5 3.362-7.5 7.5s3.364 7.5 7.5 7.5h15c4.138 0 7.5-3.362 7.5-7.5s-3.362-7.5-7.5-7.5zM23.5 16h-15c-2.067 0-3.75-1.685-3.75-3.75 0-2.058 1.822-3.64 3.754-3.698 0.008 0.886 0.161 1.75 0.469 2.571l3.512-1.311c-0.156-0.418-0.234-0.858-0.234-1.312 0-2.065 1.683-3.75 3.75-3.75 1.214 0 2.309 0.601 3.003 1.538-1.812 1.37-3.003 3.519-3.003 5.962h3.75c0-2.065 1.685-3.75 3.75-3.75s3.75 1.685 3.75 3.75-1.685 3.75-3.75 3.75zM16 19.75l-5.625 5.625h3.75v5.625h3.75v-5.625h3.75z"></path>
</svg>
