<?xml version="1.0" encoding="utf-8"?>
<!-- Generated by IcoMoon.io -->
<!DOCTYPE svg PUBLIC "-//W3C//DTD SVG 1.1//EN" "http://www.w3.org/Graphics/SVG/1.1/DTD/svg11.dtd">
<svg version="1.1" xmlns="http://www.w3.org/2000/svg" xmlns:xlink="http://www.w3.org/1999/xlink" width="32" height="32" viewBox="0 0 32 32">
<path d="M23.2 10.6c-0.341 0-0.664 0.055-0.992 0.1-1.255-2.219-3.575-3.7-6.208-3.7-2.689 0-5.009 1.499-6.247 3.69-0.317-0.042-0.634-0.090-0.953-0.090-3.969 0-7.2 3.229-7.2 7.2 0 3.973 3.231 7.2 7.2 7.2h14.4c3.969 0 7.2-3.227 7.2-7.2 0-3.971-3.231-7.2-7.2-7.2zM23.2 21.4h-14.4c-1.986 0-3.6-1.617-3.6-3.6 0-1.974 1.747-3.497 3.604-3.55 0.007 0.849 0.155 1.682 0.45 2.47l3.371-1.262c-0.151-0.4-0.225-0.823-0.225-1.257 0-1.985 1.614-3.6 3.6-3.6 1.164 0 2.219 0.577 2.879 1.475-1.736 1.315-2.879 3.38-2.879 5.725h3.6c0-1.985 1.614-3.6 3.6-3.6s3.6 1.615 3.6 3.6c0 1.983-1.614 3.6-3.6 3.6z"></path>
</svg>
