<?xml version="1.0" encoding="utf-8"?>
<!-- Generated by IcoMoon.io -->
<!DOCTYPE svg PUBLIC "-//W3C//DTD SVG 1.1//EN" "http://www.w3.org/Graphics/SVG/1.1/DTD/svg11.dtd">
<svg version="1.1" xmlns="http://www.w3.org/2000/svg" xmlns:xlink="http://www.w3.org/1999/xlink" width="32" height="32" viewBox="0 0 32 32">
<path d="M31 17.846v-3.75l-4.482-1.867c-0.125-0.352-0.256-0.692-0.417-1.026l1.809-4.505-2.652-2.651-4.464 1.838c-0.34-0.165-0.688-0.304-1.047-0.432l-1.9-4.453h-3.75l-1.853 4.438c-0.373 0.132-0.732 0.271-1.088 0.44l-4.457-1.791-2.651 2.651 1.817 4.417c-0.176 0.363-0.319 0.732-0.455 1.114l-4.409 1.885v3.75l4.413 1.838c0.136 0.381 0.282 0.751 0.457 1.114l-1.783 4.446 2.651 2.651 4.428-1.823c0.355 0.169 0.718 0.304 1.091 0.432l1.897 4.438h3.75l1.856-4.461c0.355-0.132 0.707-0.271 1.043-0.432l4.497 1.802 2.651-2.651-1.846-4.475c0.157-0.337 0.286-0.678 0.411-1.026l4.483-1.912zM15.971 21.625c-3.105 0-5.625-2.52-5.625-5.625s2.52-5.625 5.625-5.625 5.625 2.52 5.625 5.625-2.52 5.625-5.625 5.625z"></path>
</svg>
