<?xml version="1.0" encoding="utf-8"?>
<!-- Generated by IcoMoon.io -->
<!DOCTYPE svg PUBLIC "-//W3C//DTD SVG 1.1//EN" "http://www.w3.org/Graphics/SVG/1.1/DTD/svg11.dtd">
<svg version="1.1" xmlns="http://www.w3.org/2000/svg" xmlns:xlink="http://www.w3.org/1999/xlink" width="32" height="32" viewBox="0 0 32 32">
<path d="M16 1c-7.247 0-13.125 5.878-13.125 13.125 0 3.593 1.45 6.841 3.79 9.214l0.022 7.661 6.222-4.157c0.997 0.246 2.021 0.407 3.091 0.407 7.247 0 13.125-5.878 13.125-13.125s-5.878-13.125-13.125-13.125zM16 23.5c-0.663 0-1.381-0.098-2.194-0.296l-1.597-0.396-1.798 1.191 0.011-2.19-1.088-1.102c-1.748-1.773-2.71-4.109-2.71-6.581 0-5.171 4.204-9.375 9.375-9.375s9.375 4.204 9.375 9.375c0 5.171-4.204 9.375-9.375 9.375z"></path>
</svg>
