<?xml version="1.0" encoding="utf-8"?>
<!-- Generated by IcoMoon.io -->
<!DOCTYPE svg PUBLIC "-//W3C//DTD SVG 1.1//EN" "http://www.w3.org/Graphics/SVG/1.1/DTD/svg11.dtd">
<svg version="1.1" xmlns="http://www.w3.org/2000/svg" xmlns:xlink="http://www.w3.org/1999/xlink" width="32" height="32" viewBox="0 0 32 32">
<path d="M18.392 9.995c8.311 0 9.007 3.1 9.007 6.005 0 1.009-0.266 2.106-0.56 3.003h-9.946c-3.53 0-5.058 0.146-6.756 1.32-0.704-1.929-1.155-4.539-0.284-6.636 1.014-2.449 3.888-3.692 8.54-3.692M18.392 6.992c-16.793 0-12.004 15.013-9.005 18.016 3.003-3.003 3.003-3.003 7.504-3.003h11.962c0 0 1.549-3.003 1.549-6.005 0-7.507-6.003-9.008-12.009-9.008v0z"></path>
</svg>
