<?xml version="1.0" encoding="utf-8"?>
<!-- Generated by IcoMoon.io -->
<!DOCTYPE svg PUBLIC "-//W3C//DTD SVG 1.1//EN" "http://www.w3.org/Graphics/SVG/1.1/DTD/svg11.dtd">
<svg version="1.1" xmlns="http://www.w3.org/2000/svg" xmlns:xlink="http://www.w3.org/1999/xlink" width="32" height="32" viewBox="0 0 32 32">
<path d="M19.714 6.714c4.099 0 7.429 3.33 7.429 7.429s-3.33 7.429-7.429 7.429h-7.429c-2.423 0-4.582 1.168-5.938 2.974-0.903-0.682-1.49-1.762-1.49-2.974v-9.286c0-3.073 2.502-5.571 5.571-5.571h9.286M19.714 3h-9.286c-5.128 0-9.286 4.157-9.286 9.286v9.286c0 4.102 3.33 7.429 7.429 7.429 0-2.053 1.665-3.714 3.714-3.714h7.429c6.155 0 11.143-4.991 11.143-11.143s-4.987-11.143-11.143-11.143v0z"></path>
</svg>
