<?xml version="1.0" encoding="utf-8"?>
<!-- Generated by IcoMoon.io -->
<!DOCTYPE svg PUBLIC "-//W3C//DTD SVG 1.1//EN" "http://www.w3.org/Graphics/SVG/1.1/DTD/svg11.dtd">
<svg version="1.1" xmlns="http://www.w3.org/2000/svg" xmlns:xlink="http://www.w3.org/1999/xlink" width="32" height="32" viewBox="0 0 32 32">
<path d="M17.992 14.012c0.747 0.749 0.945 1.809 0.674 2.759l4.834-8.271-8.159 4.818c0.923-0.228 1.929-0.028 2.651 0.694zM14.015 17.988c-0.725-0.723-0.922-1.734-0.696-2.659l-4.82 8.17 8.28-4.837c-0.953 0.275-2.014 0.077-2.765-0.674zM16 4.75c6.203 0 11.25 5.047 11.25 11.25s-5.047 11.25-11.25 11.25-11.25-5.047-11.25-11.25 5.047-11.25 11.25-11.25M16 1c-8.284 0-15 6.716-15 15s6.716 15 15 15 15-6.716 15-15-6.716-15-15-15v0z"></path>
</svg>
