<?xml version="1.0" encoding="utf-8"?>
<!-- Generated by IcoMoon.io -->
<!DOCTYPE svg PUBLIC "-//W3C//DTD SVG 1.1//EN" "http://www.w3.org/Graphics/SVG/1.1/DTD/svg11.dtd">
<svg version="1.1" xmlns="http://www.w3.org/2000/svg" xmlns:xlink="http://www.w3.org/1999/xlink" width="32" height="32" viewBox="0 0 32 32">
<path d="M16 1c-8.284 0-15 6.716-15 15s6.716 15 15 15 15-6.716 15-15-6.716-15-15-15zM16 4.75c2.428 0 4.662 0.791 6.501 2.102l-15.652 15.645c-1.311-1.838-2.098-4.073-2.098-6.497 0-6.203 5.047-11.25 11.25-11.25zM16 27.25c-2.428 0-4.662-0.791-6.501-2.102l15.652-15.645c1.311 1.838 2.098 4.072 2.098 6.497 0 6.203-5.047 11.25-11.25 11.25z"></path>
</svg>
