<?xml version="1.0" encoding="utf-8"?>
<!-- Generated by IcoMoon.io -->
<!DOCTYPE svg PUBLIC "-//W3C//DTD SVG 1.1//EN" "http://www.w3.org/Graphics/SVG/1.1/DTD/svg11.dtd">
<svg version="1.1" xmlns="http://www.w3.org/2000/svg" xmlns:xlink="http://www.w3.org/1999/xlink" width="32" height="32" viewBox="0 0 32 32">
<path d="M12.313 16c-0-0.004-0-0.010-0-0.015 0-2.071 1.679-3.75 3.75-3.75 2.055 0 3.725 1.654 3.75 3.703 0 0.066 0 0.071 0 0.076 0 2.071-1.679 3.75-3.75 3.75-2.056 0-3.725-1.654-3.75-3.703zM27.833 6.7c-0.323 0.265-0.714 0.442-1.164 0.442-1.033 0-1.875-0.84-1.875-1.885 0-0.456 0.183-0.862 0.454-1.193-2.080-1.612-4.599-2.698-7.346-3.042-0.096 0.951-0.864 1.702-1.838 1.702s-1.754-0.759-1.838-1.723c-2.783 0.361-5.317 1.466-7.416 3.137 0.238 0.317 0.407 0.692 0.407 1.119 0 1.045-0.835 1.885-1.875 1.885-0.417 0-0.791-0.162-1.103-0.398-1.959 2.548-3.175 5.707-3.175 9.176 0 8.328 6.716 15.081 15 15.081s15-6.753 15-15.081c0-3.502-1.23-6.675-3.23-9.219zM16.062 23.419c-4.142 0-7.5-3.358-7.5-7.5 0-2.073 0.839-3.944 2.197-5.302l5.302-5.302 5.295 5.295c1.363 1.358 2.205 3.237 2.205 5.31 0 4.146-3.358 7.5-7.5 7.5z"></path>
</svg>
