<?xml version="1.0" encoding="utf-8"?>
<!-- Generated by IcoMoon.io -->
<!DOCTYPE svg PUBLIC "-//W3C//DTD SVG 1.1//EN" "http://www.w3.org/Graphics/SVG/1.1/DTD/svg11.dtd">
<svg version="1.1" xmlns="http://www.w3.org/2000/svg" xmlns:xlink="http://www.w3.org/1999/xlink" width="32" height="32" viewBox="0 0 32 32">
<path d="M21.64 1h-20.64v29.942l7.548-6.167 7.518 6.225 7.511-6.218 7.423 6.203v-20.61l-9.36-9.375zM27.269 23.442l-3.706-3.025-7.496 6.203-7.481-6.196-3.831 3.018c0 0 0-16.274 0-18.75 1.971 0 7.321 0 11.258 0v11.25h11.257c0 2.559 0 7.5 0 7.5zM19.765 12.192c0-1.447 0-5.544 0-7.5 1.516 1.516 6.002 5.998 7.504 7.5-1.919 0-6.047 0-7.504 0z"></path>
</svg>
