<?xml version="1.0" encoding="utf-8"?>
<!-- Generated by IcoMoon.io -->
<!DOCTYPE svg PUBLIC "-//W3C//DTD SVG 1.1//EN" "http://www.w3.org/Graphics/SVG/1.1/DTD/svg11.dtd">
<svg version="1.1" xmlns="http://www.w3.org/2000/svg" xmlns:xlink="http://www.w3.org/1999/xlink" width="32" height="32" viewBox="0 0 32 32">
<path d="M17.875 2.875c0-1.031-0.844-1.875-1.875-1.875s-1.875 0.844-1.875 1.875v16.875h-1.875v3.75h1.875v5.625c0 1.031 0.844 1.875 1.875 1.875s1.875-0.844 1.875-1.875v-5.625h1.875v-3.75h-1.875v-16.875zM6.625 2.875c0-1.031-0.844-1.875-1.875-1.875s-1.875 0.844-1.875 1.875v9.375h-1.875v3.75h1.875v13.125c0 1.031 0.844 1.875 1.875 1.875s1.875-0.844 1.875-1.875v-13.125h1.875v-3.75h-1.875v-9.375zM31 8.5h-1.875v-5.625c0-1.031-0.844-1.875-1.875-1.875s-1.875 0.844-1.875 1.875v5.625h-1.875v3.75h1.875v16.875c0 1.031 0.844 1.875 1.875 1.875s1.875-0.844 1.875-1.875v-16.875h1.875v-3.75z"></path>
</svg>
