<?xml version="1.0" encoding="utf-8"?>
<!-- Generated by IcoMoon.io -->
<!DOCTYPE svg PUBLIC "-//W3C//DTD SVG 1.1//EN" "http://www.w3.org/Graphics/SVG/1.1/DTD/svg11.dtd">
<svg version="1.1" xmlns="http://www.w3.org/2000/svg" xmlns:xlink="http://www.w3.org/1999/xlink" width="32" height="32" viewBox="0 0 32 32">
<path d="M16 5c-8.1 0-14.667 10.857-14.667 10.857s6.567 11.143 14.667 11.143 14.667-11.143 14.667-11.143-6.567-10.857-14.667-10.857zM16 23.333c-4.050 0-7.333-3.284-7.333-7.333s3.284-7.333 7.333-7.333 7.333 3.284 7.333 7.333-3.284 7.333-7.333 7.333zM12.333 16c0-2.025 1.642-3.667 3.667-3.667s3.667 1.642 3.667 3.667c0 2.025-1.642 3.667-3.667 3.667s-3.667-1.642-3.667-3.667z"></path>
</svg>
