<?xml version="1.0" encoding="utf-8"?>
<!-- Generated by IcoMoon.io -->
<!DOCTYPE svg PUBLIC "-//W3C//DTD SVG 1.1//EN" "http://www.w3.org/Graphics/SVG/1.1/DTD/svg11.dtd">
<svg version="1.1" xmlns="http://www.w3.org/2000/svg" xmlns:xlink="http://www.w3.org/1999/xlink" width="32" height="32" viewBox="0 0 32 32">
<path d="M28.067 13.888c2.846-2.844 2.846-7.46 0-10.302-1.422-1.422-3.287-2.134-5.151-2.134-1.861 0-3.728 0.712-5.149 2.134l-0.538 0.538-2.712-2.715-2.572 2.573 2.715 2.713-13.637 13.645v6.61l3.584 3.64h6.761l13.589-13.593 2.622 2.624 2.575-2.572-2.625-2.624 0.538-0.538zM10.435 26.366c0.043-1.382-0.435-2.768-1.486-3.819-0.966-0.968-2.226-1.443-3.495-1.486l11.781-11.785 5.146 5.142-11.947 11.947z"></path>
</svg>
