<?xml version="1.0" encoding="utf-8"?>
<!-- Generated by IcoMoon.io -->
<!DOCTYPE svg PUBLIC "-//W3C//DTD SVG 1.1//EN" "http://www.w3.org/Graphics/SVG/1.1/DTD/svg11.dtd">
<svg version="1.1" xmlns="http://www.w3.org/2000/svg" xmlns:xlink="http://www.w3.org/1999/xlink" width="32" height="32" viewBox="0 0 32 32">
<path d="M21.625 1v3.633c0 1.502-0.586 2.915-1.644 3.973l-10.609 10.551c-1.677 1.673-2.601 3.871-2.703 6.218h-3.794l5.625 5.625 5.625-5.625h-3.71c0.098-1.348 0.641-2.6 1.604-3.567l10.609-10.547c1.773-1.772 2.747-4.123 2.747-6.628v-3.633h-3.75zM25.331 25.375c-0.102-2.348-1.029-4.545-2.707-6.226l-2.091-2.077-2.659 2.645 2.102 2.091c0.967 0.963 1.508 2.219 1.608 3.567h-3.71l5.625 5.625 5.625-5.625h-3.794z"></path>
</svg>
