<?xml version="1.0" encoding="utf-8"?>
<!-- Generated by IcoMoon.io -->
<!DOCTYPE svg PUBLIC "-//W3C//DTD SVG 1.1//EN" "http://www.w3.org/Graphics/SVG/1.1/DTD/svg11.dtd">
<svg version="1.1" xmlns="http://www.w3.org/2000/svg" xmlns:xlink="http://www.w3.org/1999/xlink" width="32" height="32" viewBox="0 0 32 32">
<path d="M19.75 1h-7.5c-4.142 0-7.5 3.358-7.5 7.5v15c0 4.142 3.358 7.5 7.5 7.5h7.5c4.142 0 7.5-3.358 7.5-7.5v-15c0-4.142-3.358-7.5-7.5-7.5zM16 29.183c-1.068 0-1.933-0.864-1.933-1.933s0.866-1.933 1.933-1.933 1.933 0.864 1.933 1.933-0.865 1.933-1.933 1.933zM23.5 23.5h-15v-15c0-2.065 1.683-3.75 3.75-3.75h7.5c2.065 0 3.75 1.685 3.75 3.75v15z"></path>
</svg>
