<?xml version="1.0" encoding="utf-8"?>
<!-- Generated by IcoMoon.io -->
<!DOCTYPE svg PUBLIC "-//W3C//DTD SVG 1.1//EN" "http://www.w3.org/Graphics/SVG/1.1/DTD/svg11.dtd">
<svg version="1.1" xmlns="http://www.w3.org/2000/svg" xmlns:xlink="http://www.w3.org/1999/xlink" width="32" height="32" viewBox="0 0 32 32">
<path d="M21.625 1c-5.178 0-9.375 4.197-9.375 9.375 0 0.586 0.069 1.15 0.172 1.703l-11.422 11.422v7.5h11.25v-3.75h3.75v-3.75h3.75v-3.75l0.172-0.172c0.552 0.103 1.117 0.172 1.703 0.172 5.178 0 9.375-4.197 9.375-9.375s-4.197-9.375-9.375-9.375zM21.625 16c-0.293 0-0.615-0.037-1.018-0.11l-1.941-0.359-2.666 2.666v1.552h-3.75v3.75h-3.75v3.75h-3.75v-2.198l11.719-11.719-0.359-1.941c-0.075-0.403-0.11-0.726-0.11-1.018 0-3.102 2.523-5.625 5.625-5.625s5.625 2.523 5.625 5.625-2.523 5.625-5.625 5.625zM19.75 10.375c0-1.036 0.839-1.875 1.875-1.875s1.875 0.839 1.875 1.875c0 1.036-0.839 1.875-1.875 1.875s-1.875-0.839-1.875-1.875z"></path>
</svg>
