<?xml version="1.0" encoding="utf-8"?>
<!-- Generated by IcoMoon.io -->
<!DOCTYPE svg PUBLIC "-//W3C//DTD SVG 1.1//EN" "http://www.w3.org/Graphics/SVG/1.1/DTD/svg11.dtd">
<svg version="1.1" xmlns="http://www.w3.org/2000/svg" xmlns:xlink="http://www.w3.org/1999/xlink" width="32" height="32" viewBox="0 0 32 32">
<path d="M16 4.758c3.104 0 5.625 2.53 5.625 5.64 0 1.777-0.809 3.41-2.225 4.475-2.117 1.6-2.972 3.369-3.266 4.856h-0.268c-0.293-1.487-1.151-3.256-3.266-4.856-1.414-1.066-2.227-2.699-2.227-4.475 0-3.11 2.523-5.64 5.627-5.64M16 1c-5.178 0-9.375 4.207-9.375 9.397 0 3.077 1.448 5.765 3.721 7.478 1.045 0.791 1.908 1.809 1.908 3.216v2.395h7.494v-2.395c0-1.406 0.863-2.424 1.906-3.216 2.274-1.714 3.721-4.402 3.721-7.478 0-5.189-4.197-9.397-9.375-9.397v0zM12.25 27.25h7.5v3.75h-7.5z"></path>
</svg>
