<?xml version="1.0" encoding="utf-8"?>
<!-- Generated by IcoMoon.io -->
<!DOCTYPE svg PUBLIC "-//W3C//DTD SVG 1.1//EN" "http://www.w3.org/Graphics/SVG/1.1/DTD/svg11.dtd">
<svg version="1.1" xmlns="http://www.w3.org/2000/svg" xmlns:xlink="http://www.w3.org/1999/xlink" width="32" height="32" viewBox="0 0 32 32">
<path d="M30.271 1.819c-0.723-0.723-1.906-0.723-2.629 0l-3.768 3.772c-1.544-1.027-3.316-1.537-5.096-1.537-2.369 0-4.738 0.905-6.546 2.713l-5.555 5.555c-3.168 3.165-3.559 8.058-1.179 11.649l-3.768 3.772c-0.723 0.723-0.723 1.895 0 2.618 0.361 0.362 0.834 0.543 1.308 0.543s0.947-0.181 1.309-0.543l3.768-3.772c1.544 1.027 3.328 1.537 5.107 1.537 2.369 0 4.738-0.905 6.546-2.713l5.544-5.555c3.168-3.165 3.559-8.058 1.179-11.649l3.779-3.772c0.724-0.723 0.724-1.895 0.001-2.618zM24.321 13.313c0 1.483-0.579 2.879-1.628 3.928l-5.544 5.555c-1.049 1.049-2.444 1.628-3.928 1.628-0.839 0-1.642-0.206-2.379-0.557l2.763-2.763c0.723-0.723 0.723-1.895 0-2.618s-1.895-0.723-2.618 0l-2.763 2.763c-0.355-0.734-0.557-1.537-0.557-2.379 0-1.483 0.579-2.879 1.628-3.928l5.555-5.555c1.049-1.049 2.444-1.628 3.928-1.628 0.839 0 1.639 0.206 2.376 0.557l-2.817 2.821c-0.723 0.723-0.723 1.895 0 2.618 0.362 0.362 0.835 0.543 1.309 0.543 0.47 0 0.944-0.181 1.305-0.543l2.814-2.821c0.356 0.734 0.557 1.537 0.557 2.379z"></path>
</svg>
