<?xml version="1.0" encoding="utf-8"?>
<!-- Generated by IcoMoon.io -->
<!DOCTYPE svg PUBLIC "-//W3C//DTD SVG 1.1//EN" "http://www.w3.org/Graphics/SVG/1.1/DTD/svg11.dtd">
<svg version="1.1" xmlns="http://www.w3.org/2000/svg" xmlns:xlink="http://www.w3.org/1999/xlink" width="32" height="32" viewBox="0 0 32 32">
<path d="M1.143 5.021c0-1.011 0.819-1.83 1.83-1.83s1.83 0.819 1.83 1.83c0 1.011-0.819 1.83-1.83 1.83s-1.83-0.819-1.83-1.83zM8.462 3.191h21.958v3.66h-21.958zM8.462 12.34c0-1.011 0.819-1.83 1.83-1.83s1.83 0.819 1.83 1.83c0 1.011-0.819 1.83-1.83 1.83s-1.83-0.819-1.83-1.83zM15.781 10.511h14.639v3.66h-14.639zM8.462 26.979c0-1.011 0.819-1.83 1.83-1.83s1.83 0.819 1.83 1.83c0 1.011-0.819 1.83-1.83 1.83s-1.83-0.819-1.83-1.83zM15.781 25.149h14.639v3.66h-14.639zM15.781 19.66c0-1.011 0.819-1.83 1.83-1.83s1.83 0.819 1.83 1.83c0 1.011-0.819 1.83-1.83 1.83s-1.83-0.819-1.83-1.83zM23.101 17.83h7.319v3.66h-7.319z"></path>
</svg>
