<?xml version="1.0" encoding="utf-8"?>
<!-- Generated by IcoMoon.io -->
<!DOCTYPE svg PUBLIC "-//W3C//DTD SVG 1.1//EN" "http://www.w3.org/Graphics/SVG/1.1/DTD/svg11.dtd">
<svg version="1.1" xmlns="http://www.w3.org/2000/svg" xmlns:xlink="http://www.w3.org/1999/xlink" width="32" height="32" viewBox="0 0 32 32">
<path d="M1.143 5.020c0-1.011 0.819-1.83 1.83-1.83s1.83 0.819 1.83 1.83c0 1.011-0.819 1.83-1.83 1.83s-1.83-0.819-1.83-1.83zM1.143 12.34c0-1.011 0.819-1.83 1.83-1.83s1.83 0.819 1.83 1.83c0 1.011-0.819 1.83-1.83 1.83s-1.83-0.819-1.83-1.83zM1.143 19.66c0-1.011 0.819-1.83 1.83-1.83s1.83 0.819 1.83 1.83c0 1.011-0.819 1.83-1.83 1.83s-1.83-0.819-1.83-1.83zM1.143 26.98c0-1.011 0.819-1.83 1.83-1.83s1.83 0.819 1.83 1.83c0 1.011-0.819 1.83-1.83 1.83s-1.83-0.819-1.83-1.83zM8.463 3.19h21.957v3.66h-21.957zM8.463 10.51h21.957v3.66h-21.957zM8.463 17.83h21.957v3.66h-21.957zM8.463 25.15h21.957v3.66h-21.957z"></path>
</svg>
