<?xml version="1.0" encoding="utf-8"?>
<!-- Generated by IcoMoon.io -->
<!DOCTYPE svg PUBLIC "-//W3C//DTD SVG 1.1//EN" "http://www.w3.org/Graphics/SVG/1.1/DTD/svg11.dtd">
<svg version="1.1" xmlns="http://www.w3.org/2000/svg" xmlns:xlink="http://www.w3.org/1999/xlink" width="32" height="32" viewBox="0 0 32 32">
<path d="M17.879 1c-5.166 0-9.373 4.204-9.373 9.375v1.875h-3.756v13.125c0 3.098 2.527 5.625 5.623 5.625h11.252c3.106 0 5.625-2.527 5.625-5.625v-15c0-5.171-4.204-9.375-9.371-9.375zM12.256 10.375c0-3.105 2.525-5.625 5.623-5.625 3.102 0 5.621 2.52 5.621 5.625v1.875h-11.244v-1.875zM21.625 27.25h-11.252c-1.033 0-1.875-0.842-1.875-1.875v-9.375h15.002v9.375c0 1.033-0.835 1.875-1.875 1.875zM17.875 21.625c0 1.033-0.842 1.875-1.875 1.875-1.040 0-1.875-0.842-1.875-1.875 0-1.040 0.835-1.875 1.875-1.875 1.033 0 1.875 0.835 1.875 1.875z"></path>
</svg>
