<?xml version="1.0" encoding="utf-8"?>
<!-- Generated by IcoMoon.io -->
<!DOCTYPE svg PUBLIC "-//W3C//DTD SVG 1.1//EN" "http://www.w3.org/Graphics/SVG/1.1/DTD/svg11.dtd">
<svg version="1.1" xmlns="http://www.w3.org/2000/svg" xmlns:xlink="http://www.w3.org/1999/xlink" width="32" height="32" viewBox="0 0 32 32">
<path d="M12.286 10.429h-3.714v-1.857c0-1.023 0.834-1.857 1.857-1.857h11.143c1.023 0 1.857 0.834 1.857 1.857v1.857h3.714v-1.857c0-3.073-2.499-5.571-5.571-5.571h-11.143c-3.073 0-5.571 2.499-5.571 5.571v1.857h-3.714l5.571 7.429 5.571-7.429zM25.286 14.143l-5.571 7.429h3.714v1.857c0 1.023-0.834 1.857-1.857 1.857h-11.143c-1.023 0-1.857-0.834-1.857-1.857v-1.857h-3.714v1.857c0 3.073 2.499 5.571 5.571 5.571h11.143c3.073 0 5.571-2.499 5.571-5.571v-1.857h3.714l-5.571-7.429z"></path>
</svg>
