<?xml version="1.0" encoding="utf-8"?>
<!-- Generated by IcoMoon.io -->
<!DOCTYPE svg PUBLIC "-//W3C//DTD SVG 1.1//EN" "http://www.w3.org/Graphics/SVG/1.1/DTD/svg11.dtd">
<svg version="1.1" xmlns="http://www.w3.org/2000/svg" xmlns:xlink="http://www.w3.org/1999/xlink" width="32" height="32" viewBox="0 0 32 32">
<path d="M19.75 16v3.75h4.442l-5.035 5.035c-3.177 3.184-8.727 3.184-11.907 0l-2.653 2.648c2.298 2.301 5.358 3.567 8.61 3.567 3.254 0 6.307-1.267 8.602-3.567l5.442-5.438v5.255h3.75v-11.25h-11.25zM12.25 12.25h-4.442l5.035-5.035c3.177-3.184 8.727-3.184 11.907 0l2.653-2.647c-2.298-2.3-5.358-3.567-8.611-3.567s-6.307 1.268-8.602 3.567l-5.441 5.437v-5.255h-3.75v11.25h11.25v-3.75z"></path>
</svg>
