<?xml version="1.0" encoding="utf-8"?>
<!-- Generated by IcoMoon.io -->
<!DOCTYPE svg PUBLIC "-//W3C//DTD SVG 1.1//EN" "http://www.w3.org/Graphics/SVG/1.1/DTD/svg11.dtd">
<svg version="1.1" xmlns="http://www.w3.org/2000/svg" xmlns:xlink="http://www.w3.org/1999/xlink" width="32" height="32" viewBox="0 0 32 32">
<path d="M12.333 10.5h-3.667v-0.015c0-1.010 0.823-1.819 1.833-1.819h11c1.010 0 1.833 0.823 1.833 1.833v1.833h3.667v-1.833c0-3.033-2.467-5.5-5.5-5.5h-11c-3.033 0-5.5 2.467-5.5 5.5h-3.667l5.5 5.5 5.5-5.5zM25.167 16l-5.5 5.5h3.667v0.015c0 1.009-0.823 1.819-1.833 1.819h-11c-1.010 0-1.833-0.823-1.833-1.833v-1.833h-3.667v1.833c0 3.033 2.467 5.5 5.5 5.5h11c3.033 0 5.5-2.467 5.5-5.5h3.667l-5.5-5.5z"></path>
</svg>
