<?xml version="1.0" encoding="utf-8"?>
<!-- Generated by IcoMoon.io -->
<!DOCTYPE svg PUBLIC "-//W3C//DTD SVG 1.1//EN" "http://www.w3.org/Graphics/SVG/1.1/DTD/svg11.dtd">
<svg version="1.1" xmlns="http://www.w3.org/2000/svg" xmlns:xlink="http://www.w3.org/1999/xlink" width="32" height="32" viewBox="0 0 32 32">
<path d="M19.875 1c-6.13 0-11.119 4.987-11.119 11.122 0 1.468 0.3 2.86 0.817 4.142l-8.572 8.573 6.159 6.163 8.576-8.58c1.282 0.52 2.674 0.82 4.138 0.82 6.134 0 11.125-4.988 11.125-11.117 0.001-6.136-4.99-11.123-11.124-11.123zM19.875 19.494c-4.061 0-7.372-3.31-7.372-7.371 0-4.065 3.31-7.375 7.372-7.375 4.069 0 7.379 3.31 7.379 7.375 0 4.059-3.31 7.371-7.379 7.371z"></path>
</svg>
