<?xml version="1.0" encoding="utf-8"?>
<!-- Generated by IcoMoon.io -->
<!DOCTYPE svg PUBLIC "-//W3C//DTD SVG 1.1//EN" "http://www.w3.org/Graphics/SVG/1.1/DTD/svg11.dtd">
<svg version="1.1" xmlns="http://www.w3.org/2000/svg" xmlns:xlink="http://www.w3.org/1999/xlink" width="32" height="32" viewBox="0 0 32 32">
<path d="M16 4.75c1.502 0 2.915 0.586 3.977 1.65 1.062 1.060 1.648 2.473 1.648 3.975s-0.586 2.915-1.622 3.95c-0.157 0.156-2.098 2.086-4.003 5.101-1.897-3.010-3.831-4.933-3.977-5.076-1.062-1.060-1.648-2.473-1.648-3.975s0.586-2.915 1.648-3.977 2.475-1.648 3.977-1.648M16 1c-2.399 0-4.797 0.916-6.628 2.747-3.662 3.66-3.662 9.596 0 13.257 0-0.001 6.628 6.496 6.628 13.996 0-7.5 6.628-13.997 6.628-13.997 3.662-3.66 3.662-9.596 0-13.257-1.831-1.83-4.229-2.746-6.628-2.746v0zM14.125 10.375c0-1.036 0.839-1.875 1.875-1.875s1.875 0.839 1.875 1.875c0 1.036-0.839 1.875-1.875 1.875s-1.875-0.839-1.875-1.875z"></path>
</svg>
