<?xml version="1.0" encoding="utf-8"?>
<!-- Generated by IcoMoon.io -->
<!DOCTYPE svg PUBLIC "-//W3C//DTD SVG 1.1//EN" "http://www.w3.org/Graphics/SVG/1.1/DTD/svg11.dtd">
<svg version="1.1" xmlns="http://www.w3.org/2000/svg" xmlns:xlink="http://www.w3.org/1999/xlink" width="32" height="32" viewBox="0 0 32 32">
<path d="M16 16c2.073 0 3.75-1.679 3.75-3.75v-7.5c0-2.071-1.677-3.75-3.75-3.75s-3.75 1.679-3.75 3.75v7.5c0 2.071 1.677 3.75 3.75 3.75zM19.75 27.25h-1.875v-3.94c5.31-0.897 9.375-5.498 9.375-11.060v-1.817c0-1.036-0.839-1.875-1.875-1.875s-1.875 0.839-1.875 1.875v1.817c0 4.136-3.362 7.5-7.5 7.5s-7.5-3.364-7.5-7.5v-1.817c0-1.036-0.839-1.875-1.875-1.875s-1.875 0.839-1.875 1.875v1.817c0 5.561 4.065 10.163 9.375 11.060v3.94h-1.875c-2.073 0-3.75 1.677-3.75 3.75h15c0-2.073-1.677-3.75-3.75-3.75z"></path>
</svg>
