<?xml version="1.0" encoding="utf-8"?>
<!-- Generated by IcoMoon.io -->
<!DOCTYPE svg PUBLIC "-//W3C//DTD SVG 1.1//EN" "http://www.w3.org/Graphics/SVG/1.1/DTD/svg11.dtd">
<svg version="1.1" xmlns="http://www.w3.org/2000/svg" xmlns:xlink="http://www.w3.org/1999/xlink" width="32" height="32" viewBox="0 0 32 32">
<path d="M6.527 9.576c0.795 8.399 7.5 15.102 15.897 15.893-1.791 1.135-3.892 1.779-6.094 1.779-6.387 0.001-11.58-5.192-11.58-11.581 0-2.2 0.645-4.3 1.777-6.092M12.104 1c-6.397 1.846-11.104 7.677-11.104 14.668 0 8.469 6.862 15.332 15.33 15.332 6.991 0 12.825-4.709 14.67-11.104-2.044 1.179-4.38 1.904-6.907 1.904-7.676 0-13.894-6.224-13.894-13.896-0.001-2.527 0.725-4.863 1.904-6.905v0z"></path>
</svg>
