<?xml version="1.0" encoding="utf-8"?>
<!-- Generated by IcoMoon.io -->
<!DOCTYPE svg PUBLIC "-//W3C//DTD SVG 1.1//EN" "http://www.w3.org/Graphics/SVG/1.1/DTD/svg11.dtd">
<svg version="1.1" xmlns="http://www.w3.org/2000/svg" xmlns:xlink="http://www.w3.org/1999/xlink" width="32" height="32" viewBox="0 0 32 32">
<path d="M17.276 15.243l-2.507-2.507-3.544 3.544c-1.73 1.73-1.73 4.536 0 6.265s4.535 1.73 6.265 0l8.969-8.754c2.767-2.768 2.767-7.255 0-10.024-2.769-2.768-7.257-2.768-10.024 0l-9.854 9.641c-3.807 3.806-3.807 9.977 0 13.785s9.978 3.807 13.784 0l5.316-5.316-2.507-2.507-5.316 5.316c-2.422 2.421-6.35 2.421-8.772 0s-2.422-6.35 0-8.771l9.854-9.641c1.384-1.384 3.628-1.384 5.012 0 1.385 1.385 1.385 3.63 0 5.013l-8.968 8.754c-0.346 0.346-0.906 0.346-1.253 0s-0.346-0.906 0-1.253l3.544-3.544z"></path>
</svg>
