<?xml version="1.0" encoding="utf-8"?>
<!-- Generated by IcoMoon.io -->
<!DOCTYPE svg PUBLIC "-//W3C//DTD SVG 1.1//EN" "http://www.w3.org/Graphics/SVG/1.1/DTD/svg11.dtd">
<svg version="1.1" xmlns="http://www.w3.org/2000/svg" xmlns:xlink="http://www.w3.org/1999/xlink" width="32" height="32" viewBox="0 0 32 32">
<path d="M31 8.5c0-4.14-3.362-7.5-7.5-7.5-2.797 0-5.214 1.554-6.504 3.831 0-0.002 0.004-0.004 0.004-0.006-0.344-0.033-0.678-0.104-1.029-0.104-6.215 0-11.25 5.035-11.25 11.25 0 2.369 0.74 4.563 1.988 6.372l-5.708 8.657 8.708-5.683c1.791 1.201 3.944 1.904 6.262 1.904 6.215 0 11.25-5.035 11.25-11.25 0-0.324-0.066-0.628-0.096-0.945 2.3-1.282 3.875-3.708 3.875-6.526zM15.971 23.471c-4.138 0-7.5-3.362-7.5-7.5 0-4.136 3.362-7.5 7.5-7.5 0.011 0 0.022 0.004 0.029 0.004 0-0.008 0.004-0.013 0.004-0.019 0 0.015-0.004 0.029-0.004 0.044 0 0.652 0.11 1.27 0.263 1.873l-2.974 2.976c-1.464 1.464-1.464 3.838 0 5.303s3.838 1.464 5.303 0l2.945-2.945c0.619 0.169 1.26 0.286 1.93 0.29-0.015 4.127-3.369 7.475-7.496 7.475zM23.5 12.25c-2.065 0-3.75-1.683-3.75-3.75s1.685-3.75 3.75-3.75 3.75 1.683 3.75 3.75-1.685 3.75-3.75 3.75z"></path>
</svg>
