<?xml version="1.0" encoding="utf-8"?>
<!-- Generated by IcoMoon.io -->
<!DOCTYPE svg PUBLIC "-//W3C//DTD SVG 1.1//EN" "http://www.w3.org/Graphics/SVG/1.1/DTD/svg11.dtd">
<svg version="1.1" xmlns="http://www.w3.org/2000/svg" xmlns:xlink="http://www.w3.org/1999/xlink" width="32" height="32" viewBox="0 0 32 32">
<path d="M13.802 29.168c0-1.012 0.82-1.832 1.832-1.832s1.832 0.82 1.832 1.832c0 1.012-0.82 1.832-1.832 1.832s-1.832-0.82-1.832-1.832zM15.703 25.484c-1.224 0-2.372-0.476-3.238-1.342s-1.342-2.014-1.342-3.238 0.476-2.372 1.342-3.238l6.125-6.125c0.693-0.692 1.072-1.612 1.072-2.59s-0.379-1.898-1.073-2.59c-1.428-1.429-3.751-1.431-5.178 0-0.694 0.692-1.075 1.611-1.075 2.59h-3.663c0-1.957 0.764-3.798 2.15-5.183 2.766-2.769 7.588-2.767 10.358 0.002 1.384 1.382 2.146 3.222 2.146 5.181 0 1.957-0.762 3.796-2.147 5.18l-6.124 6.125c-0.356 0.358-0.356 0.937 0 1.295 0.358 0.358 0.937 0.358 1.295 0 0.233-0.233 0.268-0.508 0.268-0.648h3.663c0 1.224-0.476 2.372-1.342 3.238s-2.014 1.342-3.238 1.342v0z"></path>
</svg>
