<?xml version="1.0" encoding="utf-8"?>
<!-- Generated by IcoMoon.io -->
<!DOCTYPE svg PUBLIC "-//W3C//DTD SVG 1.1//EN" "http://www.w3.org/Graphics/SVG/1.1/DTD/svg11.dtd">
<svg version="1.1" xmlns="http://www.w3.org/2000/svg" xmlns:xlink="http://www.w3.org/1999/xlink" width="32" height="32" viewBox="0 0 32 32">
<path d="M23.425 6.7c-0.346 0-0.675 0.056-1.016 0.102-1.28-2.271-3.657-3.788-6.353-3.788-2.752 0-5.127 1.535-6.394 3.777-0.325-0.043-0.65-0.092-0.977-0.092-4.063 0-7.371 3.306-7.371 7.371s3.308 7.371 7.371 7.371h14.739c4.067 0 7.371-3.306 7.371-7.371s-3.304-7.371-7.371-7.371zM23.425 17.756h-14.739c-2.033 0-3.685-1.654-3.685-3.685 0-2.021 1.788-3.579 3.689-3.635 0.008 0.869 0.158 1.722 0.461 2.528l3.451-1.292c-0.155-0.409-0.23-0.843-0.23-1.287 0-2.032 1.652-3.685 3.685-3.685 1.191 0 2.271 0.591 2.947 1.51-1.776 1.346-2.947 3.461-2.947 5.861h3.685c0-2.032 1.654-3.685 3.683-3.685 2.037 0 3.685 1.654 3.685 3.685s-1.648 3.685-3.685 3.685zM4.338 28.294c-0.691 0.691-1.814 0.691-2.505 0s-0.691-1.814 0-2.505 5.010-2.505 5.010-2.505-1.814 4.319-2.505 5.010zM11.712 28.294c-0.691 0.691-1.81 0.691-2.505 0-0.691-0.691-0.691-1.814 0-2.505 0.695-0.691 5.010-2.505 5.010-2.505s-1.81 4.319-2.505 5.010zM19.078 28.294c-0.691 0.691-1.814 0.691-2.505 0s-0.691-1.814 0-2.505 5.009-2.505 5.009-2.505-1.813 4.319-2.504 5.010z"></path>
</svg>
