<?xml version="1.0" encoding="utf-8"?>
<!-- Generated by IcoMoon.io -->
<!DOCTYPE svg PUBLIC "-//W3C//DTD SVG 1.1//EN" "http://www.w3.org/Graphics/SVG/1.1/DTD/svg11.dtd">
<svg version="1.1" xmlns="http://www.w3.org/2000/svg" xmlns:xlink="http://www.w3.org/1999/xlink" width="32" height="32" viewBox="0 0 32 32">
<path d="M31 4.75h-30v-3.75h30zM19.75 12.25h-18.75v-3.75h18.75zM31 19.75h-30v-3.75h30zM1 29.125c0-1.036 0.839-1.875 1.875-1.875s1.875 0.839 1.875 1.875c0 1.036-0.839 1.875-1.875 1.875s-1.875-0.839-1.875-1.875zM16 29.125c0-1.036 0.839-1.875 1.875-1.875s1.875 0.839 1.875 1.875c0 1.036-0.839 1.875-1.875 1.875s-1.875-0.839-1.875-1.875zM8.5 29.125c0-1.036 0.839-1.875 1.875-1.875s1.875 0.839 1.875 1.875c0 1.036-0.839 1.875-1.875 1.875s-1.875-0.839-1.875-1.875z"></path>
</svg>
