<?xml version="1.0" encoding="utf-8"?>
<!-- Generated by IcoMoon.io -->
<!DOCTYPE svg PUBLIC "-//W3C//DTD SVG 1.1//EN" "http://www.w3.org/Graphics/SVG/1.1/DTD/svg11.dtd">
<svg version="1.1" xmlns="http://www.w3.org/2000/svg" xmlns:xlink="http://www.w3.org/1999/xlink" width="32" height="32" viewBox="0 0 32 32">
<path d="M31 31h-4.284c0-14.18-11.536-25.714-25.716-25.714v-4.286c16.538 0 30 13.458 30 30v0zM22.427 31h-4.284c0-9.452-7.694-17.142-17.142-17.142v-4.286c11.814 0 21.427 9.614 21.427 21.428v0zM13.858 31h-4.288c0-4.728-3.842-8.57-8.57-8.57v-4.288c7.089 0 12.858 5.768 12.858 12.858v0zM5.284 31c0-2.365-1.915-4.284-4.284-4.284v4.284h4.284z"></path>
</svg>
