<?xml version="1.0" encoding="utf-8"?>
<!-- Generated by IcoMoon.io -->
<!DOCTYPE svg PUBLIC "-//W3C//DTD SVG 1.1//EN" "http://www.w3.org/Graphics/SVG/1.1/DTD/svg11.dtd">
<svg version="1.1" xmlns="http://www.w3.org/2000/svg" xmlns:xlink="http://www.w3.org/1999/xlink" width="32" height="32" viewBox="0 0 32 32">
<path d="M1 27.25c0-2.071 1.679-3.75 3.75-3.75s3.75 1.679 3.75 3.75c0 2.071-1.679 3.75-3.75 3.75s-3.75-1.679-3.75-3.75zM6.625 1v3.75c11.389 0 20.625 9.235 20.625 20.625h3.75c0-13.461-10.915-24.375-24.375-24.375zM6.647 8.508c-0.008 0-0.014 0.001-0.022 0.001v3.75c0.008 0 0.014-0.001 0.022-0.001 7.246 0 13.121 5.873 13.125 13.117h3.75c-0.004-9.316-7.558-16.867-16.875-16.867zM6.647 16.008c-0.008 0-0.014 0.001-0.022 0.001v3.75c0.008 0 0.014-0.001 0.022-0.001 3.104 0 5.621 2.515 5.625 5.617h3.75c-0.004-5.174-4.2-9.367-9.375-9.367z"></path>
</svg>
