<?xml version="1.0" encoding="utf-8"?>
<!-- Generated by IcoMoon.io -->
<!DOCTYPE svg PUBLIC "-//W3C//DTD SVG 1.1//EN" "http://www.w3.org/Graphics/SVG/1.1/DTD/svg11.dtd">
<svg version="1.1" xmlns="http://www.w3.org/2000/svg" xmlns:xlink="http://www.w3.org/1999/xlink" width="32" height="32" viewBox="0 0 32 32">
<path d="M27.195 23.485c-0.907 0-1.71 0.366-2.361 0.903l-5.704-4.072c0.362-0.746 0.581-1.564 0.581-2.445 0-1.21-0.395-2.328-1.045-3.242l6.672-6.677c0.555 0.326 1.17 0.563 1.856 0.563 2.069 0 3.742-1.674 3.742-3.742s-1.674-3.742-3.742-3.742-3.742 1.674-3.742 3.742c0 0.69 0.241 1.301 0.563 1.856l-6.672 6.677c-0.922-0.658-2.032-1.049-3.246-1.049-2.142 0-3.984 1.217-4.931 2.986l-4.506-1.505c-0.182-0.84-0.895-1.48-1.791-1.48-1.034 0-1.871 0.837-1.871 1.871s0.837 1.871 1.871 1.871c0.472 0 0.892-0.19 1.221-0.479l4.481 1.495c-0.044 0.282-0.088 0.563-0.088 0.855 0 3.099 2.515 5.614 5.614 5.614 1.542 0 2.942-0.625 3.958-1.634l5.667 4.046c-0.161 0.416-0.27 0.859-0.27 1.33 0 2.065 1.674 3.742 3.742 3.742s3.742-1.678 3.742-3.742-1.674-3.742-3.742-3.742z"></path>
</svg>
