<?xml version="1.0" encoding="utf-8"?>
<!-- Generated by IcoMoon.io -->
<!DOCTYPE svg PUBLIC "-//W3C//DTD SVG 1.1//EN" "http://www.w3.org/Graphics/SVG/1.1/DTD/svg11.dtd">
<svg version="1.1" xmlns="http://www.w3.org/2000/svg" xmlns:xlink="http://www.w3.org/1999/xlink" width="32" height="32" viewBox="0 0 32 32">
<path d="M5.398 26.613c-2.838-2.834-4.398-6.599-4.398-10.613 0-8.269 6.728-15 15-15l1.875 1.875-1.875 1.875c-6.203 0-11.25 5.047-11.25 11.25 0 3.010 1.172 5.838 3.3 7.961l-2.303 0.3-0.349 2.351zM16 31l-1.875-1.867 1.875-1.883c6.203 0 11.25-5.047 11.25-11.25 0-3.003-1.172-5.83-3.303-7.957l2.307-0.304 0.344-2.348c2.838 2.834 4.402 6.603 4.402 10.609 0 8.269-6.731 15-15 15v0z"></path>
</svg>
