<?xml version="1.0" encoding="utf-8"?>
<!-- Generated by IcoMoon.io -->
<!DOCTYPE svg PUBLIC "-//W3C//DTD SVG 1.1//EN" "http://www.w3.org/Graphics/SVG/1.1/DTD/svg11.dtd">
<svg version="1.1" xmlns="http://www.w3.org/2000/svg" xmlns:xlink="http://www.w3.org/1999/xlink" width="32" height="32" viewBox="0 0 32 32">
<path d="M25.265 6.706l-2.644 2.655c1.772 1.773 2.753 4.131 2.753 6.639 0 5.171-4.204 9.375-9.375 9.375v-1.875l-3.75 3.75 3.75 3.75v-1.875c7.237 0 13.125-5.888 13.125-13.125 0-3.512-1.37-6.812-3.86-9.294zM19.75 4.75l-3.75-3.75v1.875c-7.237 0-13.125 5.888-13.125 13.125 0 3.512 1.37 6.812 3.86 9.294l2.644-2.655c-1.772-1.773-2.753-4.131-2.753-6.639 0-5.171 4.204-9.375 9.375-9.375v1.875l3.75-3.75z"></path>
</svg>
