<?xml version="1.0" encoding="utf-8"?>
<!-- Generated by IcoMoon.io -->
<!DOCTYPE svg PUBLIC "-//W3C//DTD SVG 1.1//EN" "http://www.w3.org/Graphics/SVG/1.1/DTD/svg11.dtd">
<svg version="1.1" xmlns="http://www.w3.org/2000/svg" xmlns:xlink="http://www.w3.org/1999/xlink" width="32" height="32" viewBox="0 0 32 32">
<path d="M16 1c-8.284 0-15 6.716-15 15s6.716 15 15 15 15-6.716 15-15-6.716-15-15-15zM16 4.75c4.882 0 9.005 3.144 10.562 7.5h-21.124c1.557-4.356 5.68-7.5 10.562-7.5zM16 17.875c-1.036 0-1.875-0.839-1.875-1.875s0.839-1.875 1.875-1.875 1.875 0.839 1.875 1.875-0.839 1.875-1.875 1.875zM4.75 16c5.123 0 9.273 4.937 9.36 11.060-5.303-0.908-9.36-5.504-9.36-11.060zM17.89 27.060c0.087-6.123 4.237-11.060 9.36-11.060 0 5.556-4.058 10.151-9.36 11.060z"></path>
</svg>
