<?xml version="1.0" encoding="utf-8"?>
<!-- Generated by IcoMoon.io -->
<!DOCTYPE svg PUBLIC "-//W3C//DTD SVG 1.1//EN" "http://www.w3.org/Graphics/SVG/1.1/DTD/svg11.dtd">
<svg version="1.1" xmlns="http://www.w3.org/2000/svg" xmlns:xlink="http://www.w3.org/1999/xlink" width="32" height="32" viewBox="0 0 32 32">
<path d="M15.97 12.258c2.061 0 3.742 1.679 3.742 3.742s-1.681 3.742-3.742 3.742-3.742-1.679-3.742-3.742 1.681-3.742 3.742-3.742M15.97 8.516c-4.133 0-7.484 3.351-7.484 7.484s3.351 7.484 7.484 7.484c4.133 0 7.483-3.351 7.483-7.484s-3.35-7.484-7.483-7.484v0zM14.098 2.902c0-1.033 0.838-1.871 1.871-1.871s1.871 0.838 1.871 1.871c0 1.033-0.838 1.871-1.871 1.871s-1.871-0.838-1.871-1.871zM4.742 6.644c0-1.033 0.838-1.871 1.871-1.871s1.871 0.838 1.871 1.871c0 1.033-0.838 1.871-1.871 1.871s-1.871-0.838-1.871-1.871zM2.871 14.129c1.034 0 1.871 0.837 1.871 1.871 0 1.036-0.837 1.871-1.871 1.871s-1.871-0.835-1.871-1.871c0-1.034 0.837-1.871 1.871-1.871zM4.742 25.356c0-1.033 0.838-1.871 1.871-1.871s1.871 0.838 1.871 1.871c0 1.033-0.838 1.871-1.871 1.871s-1.871-0.838-1.871-1.871zM14.098 29.098c0-1.038 0.837-1.871 1.871-1.871 1.037 0 1.871 0.834 1.871 1.871 0 1.031-0.834 1.871-1.871 1.871-1.034 0-1.871-0.84-1.871-1.871zM23.453 25.356c0-1.033 0.838-1.871 1.871-1.871s1.871 0.838 1.871 1.871c0 1.033-0.838 1.871-1.871 1.871s-1.871-0.838-1.871-1.871zM29.067 17.871c-1.033 0-1.871-0.838-1.871-1.871 0-1.036 0.838-1.871 1.871-1.871s1.871 0.835 1.871 1.871c0 1.033-0.838 1.871-1.871 1.871zM23.453 6.644c0-1.033 0.838-1.871 1.871-1.871s1.871 0.838 1.871 1.871c0 1.033-0.838 1.871-1.871 1.871s-1.871-0.838-1.871-1.871z"></path>
</svg>
