<?xml version="1.0" encoding="utf-8"?>
<!-- Generated by IcoMoon.io -->
<!DOCTYPE svg PUBLIC "-//W3C//DTD SVG 1.1//EN" "http://www.w3.org/Graphics/SVG/1.1/DTD/svg11.dtd">
<svg version="1.1" xmlns="http://www.w3.org/2000/svg" xmlns:xlink="http://www.w3.org/1999/xlink" width="32" height="32" viewBox="0 0 32 32">
<path d="M1 1v12.443l17.557 17.557c0 0 0-10.118 0-12.441 2.322 0 12.443 0 12.443 0l-17.557-17.559h-12.443zM12.060 4.339c0.725 0.722 7.387 7.39 10.877 10.88-2.908 0-7.719 0-7.719 0s0 4.812 0 7.713c-3.491-3.486-10.152-10.151-10.878-10.868 0-0.989 0-5.588 0-7.723 2.136-0.001 6.731-0.001 7.72-0.001zM11.968 9.075c0 1.597-1.297 2.893-2.889 2.893-1.597 0-2.893-1.297-2.893-2.893 0-1.593 1.297-2.886 2.893-2.886 1.593 0 2.889 1.293 2.889 2.886z"></path>
</svg>
