<?xml version="1.0" encoding="utf-8"?>
<!-- Generated by IcoMoon.io -->
<!DOCTYPE svg PUBLIC "-//W3C//DTD SVG 1.1//EN" "http://www.w3.org/Graphics/SVG/1.1/DTD/svg11.dtd">
<svg version="1.1" xmlns="http://www.w3.org/2000/svg" xmlns:xlink="http://www.w3.org/1999/xlink" width="32" height="32" viewBox="0 0 32 32">
<path d="M17.897 14.102h5.427c-0.688-2.659-2.768-4.741-5.427-5.427v5.427zM17.897 17.898v5.425c2.659-0.684 4.739-2.768 5.427-5.425h-5.427zM14.1 14.102v-5.427c-2.659 0.686-4.743 2.768-5.427 5.427h5.427zM14.1 17.898h-5.427c0.684 2.657 2.768 4.741 5.427 5.425v-5.425zM17.897 4.8c4.757 0.805 8.496 4.545 9.302 9.302h3.802c-0.868-6.854-6.247-12.235-13.103-13.102v3.8zM4.798 14.102c0.805-4.758 4.544-8.497 9.302-9.302v-3.8c-6.852 0.866-12.235 6.247-13.1 13.102h3.798zM14.1 27.198c-4.757-0.805-8.496-4.541-9.302-9.3h-3.798c0.864 6.854 6.247 12.237 13.1 13.102v-3.802zM27.198 17.898c-0.805 4.759-4.545 8.495-9.302 9.3v3.802c6.856-0.864 12.235-6.247 13.103-13.102h-3.802z"></path>
</svg>
