<?xml version="1.0" encoding="utf-8"?>
<!-- Generated by IcoMoon.io -->
<!DOCTYPE svg PUBLIC "-//W3C//DTD SVG 1.1//EN" "http://www.w3.org/Graphics/SVG/1.1/DTD/svg11.dtd">
<svg version="1.1" xmlns="http://www.w3.org/2000/svg" xmlns:xlink="http://www.w3.org/1999/xlink" width="32" height="32" viewBox="0 0 32 32">
<path d="M31 4.75h-7.5c0-2.073-1.677-3.75-3.75-3.75h-7.5c-2.073 0-3.75 1.677-3.75 3.75h-7.5v3.75h3.75v16.875c0 3.105 2.52 5.625 5.625 5.625h11.25c3.105 0 5.625-2.52 5.625-5.625v-16.875h3.75v-3.75zM23.5 25.375c0 1.033-0.842 1.875-1.875 1.875h-11.25c-1.033 0-1.875-0.842-1.875-1.875v-16.875h15v16.875zM10.375 21.625c0-1.036 0.839-1.875 1.875-1.875s1.875 0.839 1.875 1.875c0 1.036-0.839 1.875-1.875 1.875s-1.875-0.839-1.875-1.875zM10.375 14.125c0-1.036 0.839-1.875 1.875-1.875s1.875 0.839 1.875 1.875c0 1.036-0.839 1.875-1.875 1.875s-1.875-0.839-1.875-1.875zM17.875 21.625c0-1.036 0.839-1.875 1.875-1.875s1.875 0.839 1.875 1.875c0 1.036-0.839 1.875-1.875 1.875s-1.875-0.839-1.875-1.875zM17.875 14.125c0-1.036 0.839-1.875 1.875-1.875s1.875 0.839 1.875 1.875c0 1.036-0.839 1.875-1.875 1.875s-1.875-0.839-1.875-1.875z"></path>
</svg>
