<?xml version="1.0" encoding="utf-8"?>
<!-- Generated by IcoMoon.io -->
<!DOCTYPE svg PUBLIC "-//W3C//DTD SVG 1.1//EN" "http://www.w3.org/Graphics/SVG/1.1/DTD/svg11.dtd">
<svg version="1.1" xmlns="http://www.w3.org/2000/svg" xmlns:xlink="http://www.w3.org/1999/xlink" width="32" height="32" viewBox="0 0 32 32">
<path d="M15.97 1.030c-8.252 0-14.97 6.716-14.97 14.97h3.742c0-0.773 0.632-1.403 1.403-1.403 0.775 0 1.403 0.631 1.403 1.403h3.742c0-0.773 0.632-1.403 1.403-1.403 0.775 0 1.403 0.631 1.403 1.403v9.356c0 1.031-0.837 1.871-1.871 1.871-1.031 0-1.871-0.84-1.871-1.871h-3.742c0 3.096 2.521 5.614 5.614 5.614 3.099 0 5.614-2.518 5.614-5.614v-9.356c0-0.773 0.632-1.403 1.403-1.403 0.775 0 1.402 0.631 1.402 1.403h3.742c0-0.773 0.636-1.403 1.403-1.403 0.775 0 1.403 0.631 1.403 1.403h3.742c0-8.254-6.71-14.97-14.968-14.97z"></path>
</svg>
