<?xml version="1.0" encoding="utf-8"?>
<!-- Generated by IcoMoon.io -->
<!DOCTYPE svg PUBLIC "-//W3C//DTD SVG 1.1//EN" "http://www.w3.org/Graphics/SVG/1.1/DTD/svg11.dtd">
<svg version="1.1" xmlns="http://www.w3.org/2000/svg" xmlns:xlink="http://www.w3.org/1999/xlink" width="32" height="32" viewBox="0 0 32 32">
<path d="M26.939 5.476c-4.474-4.473-12.278-4.476-16.749 0l-5.051 5.055v-4.801h-3.61v10.83h10.83v-3.61l-4.533 0.003 4.921-4.921c3.109-3.113 8.531-3.113 11.64 0.004 1.555 1.555 2.411 3.621 2.411 5.82 0 2.202-0.856 4.269-2.411 5.828l-2.722 2.721 2.552 2.551 2.722-2.715c2.235-2.243 3.469-5.219 3.469-8.386 0-3.165-1.234-6.14-3.469-8.379zM18.179 31l-2.552-2.556 2.554-2.551 2.552 2.556z"></path>
</svg>
