<?xml version="1.0" encoding="utf-8"?>
<!-- Generated by IcoMoon.io -->
<!DOCTYPE svg PUBLIC "-//W3C//DTD SVG 1.1//EN" "http://www.w3.org/Graphics/SVG/1.1/DTD/svg11.dtd">
<svg version="1.1" xmlns="http://www.w3.org/2000/svg" xmlns:xlink="http://www.w3.org/1999/xlink" width="32" height="32" viewBox="0 0 32 32">
<path d="M17.879 1c-5.171 0-9.371 4.204-9.371 9.375h3.746c0-3.102 2.52-5.625 5.625-5.625 3.098 0 5.621 2.523 5.621 5.625v1.875h-18.75v13.125c0 3.102 2.527 5.625 5.625 5.625h11.25c3.098 0 5.625-2.523 5.625-5.625v-15c0-5.171-4.207-9.375-9.371-9.375zM16 23.5c-1.033 0-1.875-0.839-1.875-1.875s0.842-1.875 1.875-1.875c1.040 0 1.875 0.839 1.875 1.875s-0.835 1.875-1.875 1.875z"></path>
</svg>
