<?xml version="1.0" encoding="utf-8"?>
<!-- Generated by IcoMoon.io -->
<!DOCTYPE svg PUBLIC "-//W3C//DTD SVG 1.1//EN" "http://www.w3.org/Graphics/SVG/1.1/DTD/svg11.dtd">
<svg version="1.1" xmlns="http://www.w3.org/2000/svg" xmlns:xlink="http://www.w3.org/1999/xlink" width="32" height="32" viewBox="0 0 32 32">
<path d="M8.667 23.333c-4.050 0-7.333-3.284-7.333-7.333s3.284-7.333 7.333-7.333v14.667zM12.333 8.667l7.333-3.667v22l-7.333-3.667zM23.337 23.33v-3.667c0.304 0 0.612-0.039 0.92-0.115 1.608-0.408 2.743-1.869 2.743-3.548s-1.135-3.137-2.761-3.548c-0.29-0.072-0.598-0.111-0.902-0.111v-3.667c0.601 0 1.204 0.075 1.794 0.218 3.262 0.831 5.536 3.749 5.536 7.108 0 3.362-2.273 6.284-5.525 7.108-0.609 0.147-1.211 0.222-1.805 0.222v0z"></path>
</svg>
