<?xml version="1.0" encoding="utf-8"?>
<!-- Generated by IcoMoon.io -->
<!DOCTYPE svg PUBLIC "-//W3C//DTD SVG 1.1//EN" "http://www.w3.org/Graphics/SVG/1.1/DTD/svg11.dtd">
<svg version="1.1" xmlns="http://www.w3.org/2000/svg" xmlns:xlink="http://www.w3.org/1999/xlink" width="32" height="32" viewBox="0 0 32 32">
<path d="M30.572 6.31l-4.7 4.7h-4.912v-4.989l4.642-4.64c-0.687-0.207-1.396-0.351-2.149-0.351-4.132 0-7.483 3.353-7.483 7.485 0 1.153 0.282 2.231 0.749 3.209l-14.989 14.984c-0.449 0.454-0.731 1.075-0.731 1.769 0 1.374 1.114 2.492 2.496 2.492 0.69 0 1.315-0.278 1.762-0.731l14.991-14.987c0.974 0.464 2.056 0.748 3.204 0.748 4.137 0 7.485-3.353 7.485-7.485 0-0.773-0.146-1.504-0.366-2.205z"></path>
</svg>
