<?xml version="1.0" encoding="utf-8"?>
<!-- Generated by IcoMoon.io -->
<!DOCTYPE svg PUBLIC "-//W3C//DTD SVG 1.1//EN" "http://www.w3.org/Graphics/SVG/1.1/DTD/svg11.dtd">
<svg version="1.1" xmlns="http://www.w3.org/2000/svg" xmlns:xlink="http://www.w3.org/1999/xlink" width="32" height="32" viewBox="0 0 32 32">
<path d="M27.569 26.795l-0.099 0.099c-1.244 1.244-2.686 2.222-4.295 2.902-1.675 0.696-3.432 1.061-5.256 1.061s-3.598-0.365-5.256-1.061c-1.608-0.68-3.068-1.658-4.295-2.902-1.244-1.227-2.222-2.67-2.902-4.278-0.415-1.011-0.746-2.056-0.895-3.134v0c-0.066-0.464 0.58-0.564 0.796-0.597 0.514-0.083 0.862-0.050 0.929 0.332 0.017 0.017 0.017 0.033 0.017 0.066 0.066 0.332 0.232 1.327 0.763 2.636 0.547 1.36 1.393 2.62 2.52 3.747 1.078 1.078 2.338 1.923 3.747 2.52 1.443 0.614 2.985 0.929 4.577 0.929 1.575 0 3.117-0.315 4.577-0.929 1.393-0.597 2.653-1.443 3.731-2.52l0.099-0.099c0.116-0.116 0.249-0.149 0.415-0.099 0.149 0.033 0.332 0.166 0.547 0.365v0c0.531 0.547 0.415 0.813 0.282 0.962zM19.743 16.597l-1.094 1.094 1.045 1.045c0.116 0.116 0.332 0.365-0.116 0.813-0.182 0.182-0.365 0.282-0.531 0.282-0.116 0-0.216-0.050-0.315-0.166l-1.028-1.011-1.094 1.094c-0.033 0.033-0.116 0.083-0.249 0.083-0.149 0-0.332-0.083-0.514-0.265l-0.033-0.033c-0.116-0.099-0.298-0.282-0.298-0.481 0-0.099 0.050-0.182 0.133-0.282l1.094-1.078-1.094-1.094c-0.182-0.182-0.1-0.415 0.232-0.746 0.199-0.199 0.365-0.298 0.514-0.298 0.083 0 0.149 0.033 0.216 0.083l1.078 1.094 1.078-1.078c0.182-0.182 0.481-0.1 0.796 0.216 0.199 0.199 0.415 0.481 0.182 0.73zM27.553 17.542c0 1.31-0.265 2.587-0.763 3.781-0.497 1.161-1.194 2.189-2.089 3.084s-1.94 1.592-3.101 2.089c-1.194 0.514-2.471 0.763-3.781 0.763s-2.587-0.249-3.781-0.763c-1.161-0.497-2.205-1.194-3.101-2.089s-1.592-1.923-2.073-3.084c-0.1-0.216-0.249-0.63-0.249-0.663h-0.017c-0.149-0.464 0.514-0.663 0.713-0.73 0.481-0.149 0.846-0.216 0.995 0.199 0.398 1.061 1.011 2.089 1.608 2.769h0.017v-5.654c0.033-1.393 0.614-2.802 1.691-3.847 1.111-1.094 2.603-1.708 4.195-1.708 3.25 0 5.886 2.62 5.886 5.837 0 3.25-2.653 5.886-5.886 5.886-0.647 0-1.128-0.050-1.857-0.265-0.083-0.033-0.464-0.199-0.216-1.011 0.066-0.216 0.265-0.846 0.73-0.713 0.033 0 0.846 0.199 1.277 0.199 2.305 0 4.112-1.791 4.112-4.079 0-1.078-0.431-2.089-1.194-2.835-0.763-0.763-1.791-1.177-2.902-1.177-1.144 0-2.189 0.464-2.952 1.327-0.663 0.746-1.061 1.741-1.061 2.653v6.848c1.194 0.73 2.57 1.111 4.013 1.111 2.122 0 4.179-0.846 5.654-2.321 1.492-1.492 2.321-3.499 2.321-5.605 0-2.122-0.829-4.112-2.338-5.621-1.492-1.492-3.482-2.321-5.621-2.321s-4.145 0.829-5.638 2.321c-0.017 0.017-0.962 0.995-1.277 1.443l-0.033 0.033c-0.199 0.282-0.381 0.547-1.21 0.365-0.415-0.1-0.862-0.348-0.862-0.713v-11.276c0-0.298 0.232-0.63 0.63-0.63h14.542c0.497 0 0.497 0.696 0.497 0.912 0 0.232 0 0.912-0.497 0.912h-13.448v8.009h0.017c0.929-0.978 2.537-2.006 3.482-2.404 1.177-0.497 2.504-0.763 3.83-0.763 1.31 0 2.587 0.249 3.781 0.763 1.161 0.497 2.205 1.194 3.101 2.089s1.592 1.923 2.089 3.084c0.497 1.21 0.763 2.471 0.763 3.797zM27.039 7.908c0.315 0.282 0.099 0.58-0.216 0.945-0.199 0.199-0.415 0.431-0.647 0.431-0.099 0-0.182-0.033-0.265-0.116-1.194-1.028-2.272-1.724-3.432-2.205-1.443-0.63-2.985-0.929-4.577-0.929-1.409 0-2.952 0.282-4.344 0.813-0.431 0.166-0.663-0.398-0.746-0.614-0.1-0.265-0.149-0.481-0.133-0.63 0.033-0.166 0.116-0.282 0.265-0.332 1.36-0.597 3.217-0.945 4.958-0.945 1.807 0 3.582 0.365 5.24 1.061 1.526 0.647 2.769 1.443 3.897 2.52z"></path>
</svg>
