<?xml version="1.0" encoding="utf-8"?>
<!-- Generated by IcoMoon.io -->
<!DOCTYPE svg PUBLIC "-//W3C//DTD SVG 1.1//EN" "http://www.w3.org/Graphics/SVG/1.1/DTD/svg11.dtd">
<svg version="1.1" xmlns="http://www.w3.org/2000/svg" xmlns:xlink="http://www.w3.org/1999/xlink" width="32" height="32" viewBox="0 0 32 32">
<path d="M16 19.322c0-2.191-0.537-4.623-2.771-4.623-0.693 0.396-1.626 1.074-2.658 1.074s-1.965-0.679-2.658-1.074c-2.234 0-2.771 2.432-2.771 4.623 0 1.23 0.806 2.106 1.81 2.106h7.238c1.004 0 1.81-0.877 1.81-2.106zM13.78 11.971c0-1.767-1.442-3.209-3.209-3.209s-3.209 1.442-3.209 3.209c0 1.781 1.442 3.209 3.209 3.209s3.209-1.428 3.209-3.209zM26.857 19.167v-0.905c0-0.254-0.198-0.452-0.452-0.452h-8.143c-0.254 0-0.452 0.198-0.452 0.452v0.905c0 0.254 0.198 0.452 0.452 0.452h8.143c0.254 0 0.452-0.198 0.452-0.452zM26.857 15.491v-0.792c0-0.283-0.226-0.509-0.509-0.509h-8.030c-0.283 0-0.509 0.226-0.509 0.509v0.792c0 0.283 0.226 0.509 0.509 0.509h8.030c0.283 0 0.509-0.226 0.509-0.509zM26.857 11.929v-0.905c0-0.254-0.198-0.452-0.452-0.452h-8.143c-0.254 0-0.452 0.198-0.452 0.452v0.905c0 0.254 0.198 0.452 0.452 0.452h8.143c0.254 0 0.452-0.198 0.452-0.452zM30.476 7.405v17.19c0 1.244-1.018 2.262-2.262 2.262h-4.976v-1.357c0-0.254-0.198-0.452-0.452-0.452h-0.905c-0.254 0-0.452 0.198-0.452 0.452v1.357h-10.857v-1.357c0-0.254-0.198-0.452-0.452-0.452h-0.905c-0.254 0-0.452 0.198-0.452 0.452v1.357h-4.976c-1.244 0-2.262-1.018-2.262-2.262v-17.19c0-1.244 1.018-2.262 2.262-2.262h24.429c1.244 0 2.262 1.018 2.262 2.262z"></path>
</svg>
