<?xml version="1.0" encoding="utf-8"?>
<!-- Generated by IcoMoon.io -->
<!DOCTYPE svg PUBLIC "-//W3C//DTD SVG 1.1//EN" "http://www.w3.org/Graphics/SVG/1.1/DTD/svg11.dtd">
<svg version="1.1" xmlns="http://www.w3.org/2000/svg" xmlns:xlink="http://www.w3.org/1999/xlink" width="32" height="32" viewBox="0 0 32 32">
<path d="M19.25 11.821c0 2.371-1.94 4.295-4.311 4.295s-4.311-1.923-4.311-4.295c0-2.388 1.94-4.311 4.311-4.311s4.311 1.923 4.311 4.311zM18.454 15.469c3.167 0 3.665 3.764 3.665 6.202 0 1.393-0.879 2.819-2.404 2.819h-9.551c-1.525 0-2.404-1.426-2.404-2.819 0-2.338 0.497-6.202 3.582-6.202h0.083c1.094 0.647 2.205 1.443 3.515 1.443s2.421-0.796 3.515-1.443zM29.796 11.224c0 0.282-0.249 0.531-0.531 0.531h-1.592v2.122h1.592c0.282 0 0.531 0.249 0.531 0.531v3.184c0 0.282-0.249 0.531-0.531 0.531h-1.592v2.122h1.592c0.282 0 0.531 0.249 0.531 0.531v3.184c0 0.282-0.249 0.531-0.531 0.531h-1.592v3.714c0 1.459-1.194 2.653-2.653 2.653h-20.163c-1.459 0-2.653-1.194-2.653-2.653v-24.408c0-1.459 1.194-2.653 2.653-2.653h20.163c1.459 0 2.653 1.194 2.653 2.653v3.714h1.592c0.282 0 0.531 0.249 0.531 0.531v3.184zM25.551 28.204v-24.408c0-0.282-0.249-0.531-0.531-0.531h-20.163c-0.282 0-0.531 0.249-0.531 0.531v24.408c0 0.282 0.249 0.531 0.531 0.531h20.163c0.282 0 0.531-0.249 0.531-0.531z"></path>
</svg>
