<?xml version="1.0" encoding="utf-8"?>
<!-- Generated by IcoMoon.io -->
<!DOCTYPE svg PUBLIC "-//W3C//DTD SVG 1.1//EN" "http://www.w3.org/Graphics/SVG/1.1/DTD/svg11.dtd">
<svg version="1.1" xmlns="http://www.w3.org/2000/svg" xmlns:xlink="http://www.w3.org/1999/xlink" width="32" height="32" viewBox="0 0 32 32">
<path d="M30.545 24.312v2.078c0 0.568-0.471 1.039-1.039 1.039h-27.013c-0.568 0-1.039-0.471-1.039-1.039v-2.078c0-0.568 0.471-1.039 1.039-1.039h27.013c0.568 0 1.039 0.471 1.039 1.039zM30.545 18.078v2.078c0 0.568-0.471 1.039-1.039 1.039h-20.779c-0.568 0-1.039-0.471-1.039-1.039v-2.078c0-0.568 0.471-1.039 1.039-1.039h20.779c0.568 0 1.039 0.471 1.039 1.039zM30.545 11.844v2.078c0 0.568-0.471 1.039-1.039 1.039h-24.935c-0.568 0-1.039-0.471-1.039-1.039v-2.078c0-0.568 0.471-1.039 1.039-1.039h24.935c0.568 0 1.039 0.471 1.039 1.039zM30.545 5.61v2.078c0 0.568-0.471 1.039-1.039 1.039h-18.701c-0.568 0-1.039-0.471-1.039-1.039v-2.078c0-0.568 0.471-1.039 1.039-1.039h18.701c0.568 0 1.039 0.471 1.039 1.039z"></path>
</svg>
