<?xml version="1.0" encoding="utf-8"?>
<!-- Generated by IcoMoon.io -->
<!DOCTYPE svg PUBLIC "-//W3C//DTD SVG 1.1//EN" "http://www.w3.org/Graphics/SVG/1.1/DTD/svg11.dtd">
<svg version="1.1" xmlns="http://www.w3.org/2000/svg" xmlns:xlink="http://www.w3.org/1999/xlink" width="32" height="32" viewBox="0 0 32 32">
<path d="M26.653 25.162c0.488-0.244 0.862 0.13 0.358 0.781s-4.556 4.361-11.358 4.361-12.009-4.654-13.604-6.574c-0.439-0.504 0.065-0.732 0.358-0.537 4.768 2.897 12.221 7.665 24.247 1.969zM30.021 23.29c0.244 0.325 0 1.757-0.423 2.799-0.423 1.025-1.041 1.741-1.383 2.018-0.358 0.293-0.618 0.179-0.423-0.244s1.253-3.027 0.83-3.58c-0.423-0.537-2.408-0.277-3.124-0.212-0.7 0.065-0.846 0.13-0.911-0.016-0.146-0.374 1.416-1.009 2.441-1.139 1.025-0.114 2.669-0.049 2.994 0.374zM23.61 16.081c0 1.79 2.099 3.434 2.099 3.434l-3.694 3.645c-1.448-1.367-2.539-2.506-2.539-2.506-0.163-0.163-0.293-0.358-0.407-0.537-2.945 4.605-11.944 4.312-11.944-2.815 0-6.639 7.86-7.534 11.033-7.648v-2.067c0-0.439 0.163-2.441-2.311-2.441 0 0-2.473 0-3.531 3.222l-4.784-0.439c0-3.206 3.043-6.786 8.771-6.786 5.712 0 7.306 3.71 7.306 5.354v9.585zM12.674 16.423c0 3.303 5.484 4.084 5.484-1.123v-2.636c-2.197 0.065-5.484 0.683-5.484 3.759z"></path>
</svg>
