<?xml version="1.0" encoding="utf-8"?>
<!-- Generated by IcoMoon.io -->
<!DOCTYPE svg PUBLIC "-//W3C//DTD SVG 1.1//EN" "http://www.w3.org/Graphics/SVG/1.1/DTD/svg11.dtd">
<svg version="1.1" xmlns="http://www.w3.org/2000/svg" xmlns:xlink="http://www.w3.org/1999/xlink" width="32" height="32" viewBox="0 0 32 32">
<path d="M10.455 24.066c0-1.118-0.898-2.016-2.016-2.016s-2.016 0.898-2.016 2.016 0.898 2.016 2.016 2.016 2.016-0.898 2.016-2.016zM4.406 16h6.049v-4.033h-2.489c-0.095 0.016-0.268 0.079-0.347 0.142l-3.072 3.072c-0.047 0.079-0.126 0.252-0.142 0.347v0.473zM24.57 24.066c0-1.118-0.898-2.016-2.016-2.016s-2.016 0.898-2.016 2.016 0.898 2.016 2.016 2.016 2.016-0.898 2.016-2.016zM26.586 13.479v-3.025c0-0.284-0.221-0.504-0.504-0.504h-3.529v-3.529c0-0.284-0.221-0.504-0.504-0.504h-3.025c-0.284 0-0.504 0.221-0.504 0.504v3.529h-3.529c-0.284 0-0.504 0.221-0.504 0.504v3.025c0 0.284 0.221 0.504 0.504 0.504h3.529v3.529c0 0.284 0.221 0.504 0.504 0.504h3.025c0.284 0 0.504-0.221 0.504-0.504v-3.529h3.529c0.284 0 0.504-0.221 0.504-0.504zM30.619 4.91v18.148c0 0.551-0.457 1.008-1.008 1.008h-3.025c0 2.221-1.796 4.033-4.033 4.033-2.221 0-4.033-1.812-4.033-4.033h-6.049c0 2.221-1.796 4.033-4.033 4.033s-4.033-1.812-4.033-4.033h-2.016c-0.551 0-1.008-0.457-1.008-1.008s0.457-1.008 1.008-1.008v-6.553c0-0.551 0.315-1.323 0.709-1.717l3.119-3.119c0.394-0.394 1.166-0.709 1.717-0.709h2.521v-5.041c0-0.551 0.457-1.008 1.008-1.008h18.148c0.551 0 1.008 0.457 1.008 1.008z"></path>
</svg>
