<?xml version="1.0" encoding="utf-8"?>
<!-- Generated by IcoMoon.io -->
<!DOCTYPE svg PUBLIC "-//W3C//DTD SVG 1.1//EN" "http://www.w3.org/Graphics/SVG/1.1/DTD/svg11.dtd">
<svg version="1.1" xmlns="http://www.w3.org/2000/svg" xmlns:xlink="http://www.w3.org/1999/xlink" width="32" height="32" viewBox="0 0 32 32">
<path d="M14.497 16.877c-0.438-0.012-0.852-0.263-1.052-0.689-0.276-0.564-0.827-0.914-1.453-0.914-0.889 0-1.603 0.714-1.603 1.603 0 0.426 0.15 0.839 0.451 1.115l0.125 0.1c0.276 0.251 0.639 0.388 1.027 0.388 0.626 0 1.177-0.351 1.453-0.914 0.2-0.426 0.614-0.676 1.052-0.689zM21.612 15.274c0-0.426-0.15-0.839-0.451-1.115l-0.125-0.1c-0.276-0.251-0.639-0.388-1.027-0.388-0.626 0-1.177 0.351-1.453 0.914-0.2 0.426-0.614 0.676-1.052 0.689 0.438 0.012 0.852 0.263 1.052 0.689 0.276 0.564 0.827 0.914 1.453 0.914 0.889 0 1.603-0.714 1.603-1.603zM16.276 12.505c-0.288 0.589-1.015 0.839-1.603 0.551-0.526-0.263-1.090-0.388-1.678-0.388-0.438 0-0.852 0.075-1.24 0.213 0.075 0 0.163-0.012 0.238-0.012 1.541 0 2.956 0.902 3.62 2.292 0.288 0.601 0.025 1.315-0.576 1.603-0.15 0.075-0.313 0.113-0.489 0.113 0.175 0 0.338 0.038 0.489 0.113 0.601 0.288 0.864 1.002 0.576 1.603-0.664 1.39-2.079 2.292-3.62 2.292v0h-0.075c-0.188-0.025-0.363-0.038-0.551-0.050l-3.633-0.338-2.994 1.503c-0.125 0.063-0.238 0.088-0.363 0.088-0.288 0-0.576-0.163-0.714-0.438l-2.004-4.008c-0.188-0.388-0.050-0.852 0.313-1.065l2.618-1.491 1.854-3.344c0.288-2.58 1.566-4.948 3.595-6.614 0.514-0.426 1.278-0.351 1.691 0.163 0.426 0.514 0.351 1.265-0.163 1.691-0.564 0.476-1.065 1.015-1.466 1.603 0.977-0.664 2.104-1.115 3.344-1.265 0.664-0.088 1.265 0.376 1.34 1.040 0.088 0.664-0.376 1.265-1.040 1.34-0.726 0.088-1.403 0.338-1.992 0.689 0.401-0.088 0.814-0.125 1.24-0.125 0.952 0 1.879 0.213 2.731 0.626 0.601 0.301 0.852 1.015 0.551 1.616zM28.338 10.501l2.004 4.008c0.188 0.388 0.050 0.852-0.313 1.065l-2.618 1.491-1.854 3.344c-0.288 2.58-1.566 4.948-3.595 6.614-0.225 0.188-0.501 0.276-0.764 0.276-0.351 0-0.689-0.15-0.927-0.438-0.426-0.514-0.351-1.265 0.163-1.691 0.564-0.476 1.065-1.015 1.466-1.603-0.977 0.664-2.104 1.115-3.344 1.265-0.050 0.012-0.1 0.012-0.15 0.012-0.601 0-1.115-0.451-1.19-1.052-0.088-0.664 0.376-1.265 1.040-1.34 0.727-0.088 1.403-0.338 1.992-0.689-0.401 0.088-0.814 0.125-1.24 0.125-0.952 0-1.879-0.213-2.731-0.626-0.601-0.301-0.852-1.015-0.551-1.616 0.288-0.589 1.015-0.839 1.603-0.551 0.526 0.263 1.090 0.388 1.678 0.388 0.438 0 0.852-0.075 1.24-0.213-0.075 0-0.163 0.012-0.238 0.012-1.541 0-2.956-0.902-3.62-2.292-0.288-0.601-0.025-1.315 0.576-1.603 0.15-0.075 0.313-0.113 0.489-0.113-0.175 0-0.338-0.038-0.489-0.113-0.601-0.288-0.864-1.002-0.576-1.603 0.664-1.39 2.079-2.292 3.62-2.292v0h0.088c0.175 0.025 0.351 0.038 0.526 0.050l3.645 0.338 2.994-1.503c0.125-0.063 0.238-0.088 0.363-0.088 0.288 0 0.576 0.163 0.714 0.438z"></path>
</svg>
