<?xml version="1.0" encoding="utf-8"?>
<!-- Generated by IcoMoon.io -->
<!DOCTYPE svg PUBLIC "-//W3C//DTD SVG 1.1//EN" "http://www.w3.org/Graphics/SVG/1.1/DTD/svg11.dtd">
<svg version="1.1" xmlns="http://www.w3.org/2000/svg" xmlns:xlink="http://www.w3.org/1999/xlink" width="32" height="32" viewBox="0 0 32 32">
<path d="M17.061 5.528c0-0.58-0.481-1.060-1.060-1.060s-1.060 0.481-1.060 1.060 0.481 1.060 1.060 1.060 1.060-0.481 1.060-1.060zM30.847 20.905v5.833c0 0.215-0.133 0.414-0.331 0.497-0.066 0.017-0.133 0.033-0.199 0.033-0.133 0-0.265-0.050-0.381-0.149l-1.541-1.541c-2.602 3.132-7.274 5.137-12.394 5.137s-9.793-2.005-12.394-5.137l-1.541 1.541c-0.099 0.099-0.249 0.149-0.381 0.149-0.066 0-0.133-0.017-0.199-0.033-0.199-0.083-0.331-0.282-0.331-0.497v-5.833c0-0.298 0.232-0.53 0.53-0.53h5.833c0.215 0 0.414 0.133 0.497 0.331s0.033 0.414-0.116 0.58l-1.657 1.657c1.491 2.005 4.358 3.463 7.639 3.911v-10.721h-3.181c-0.58 0-1.060-0.481-1.060-1.060v-2.121c0-0.58 0.481-1.060 1.060-1.060h3.181v-2.701c-1.259-0.729-2.121-2.088-2.121-3.662 0-2.336 1.906-4.242 4.242-4.242s4.242 1.906 4.242 4.242c0 1.574-0.862 2.933-2.121 3.662v2.701h3.181c0.58 0 1.060 0.481 1.060 1.060v2.121c0 0.58-0.481 1.060-1.060 1.060h-3.181v10.721c3.281-0.447 6.148-1.906 7.639-3.911l-1.657-1.657c-0.149-0.166-0.199-0.381-0.116-0.58s0.282-0.331 0.497-0.331h5.833c0.298 0 0.53 0.232 0.53 0.53z"></path>
</svg>
