<?xml version="1.0" encoding="utf-8"?>
<!-- Generated by IcoMoon.io -->
<!DOCTYPE svg PUBLIC "-//W3C//DTD SVG 1.1//EN" "http://www.w3.org/Graphics/SVG/1.1/DTD/svg11.dtd">
<svg version="1.1" xmlns="http://www.w3.org/2000/svg" xmlns:xlink="http://www.w3.org/1999/xlink" width="32" height="32" viewBox="0 0 32 32">
<path d="M12.234 7.496c0.393 0 0.696-0.321 0.696-0.696s-0.303-0.696-0.696-0.696c-0.375 0-0.678 0.321-0.678 0.696s0.303 0.696 0.678 0.696zM19.766 7.496c0.375 0 0.678-0.321 0.678-0.696s-0.303-0.696-0.678-0.696c-0.393 0-0.696 0.321-0.696 0.696s0.303 0.696 0.696 0.696zM5.274 10.78c0.999 0 1.82 0.821 1.82 1.82v7.674c0 1.017-0.803 1.838-1.82 1.838s-1.838-0.821-1.838-1.838v-7.674c0-0.999 0.821-1.82 1.838-1.82zM24.192 11.119v11.886c0 1.089-0.874 1.963-1.945 1.963h-1.338v4.051c0 1.017-0.821 1.838-1.838 1.838s-1.838-0.821-1.838-1.838v-4.051h-2.463v4.051c0 1.017-0.821 1.838-1.838 1.838-0.999 0-1.82-0.821-1.82-1.838l-0.018-4.051h-1.321c-1.089 0-1.963-0.874-1.963-1.963v-11.886h16.383zM20.051 3.891c2.498 1.285 4.194 3.748 4.194 6.585h-16.508c0-2.838 1.695-5.3 4.212-6.585l-1.267-2.338c-0.071-0.125-0.036-0.286 0.089-0.357 0.125-0.054 0.286-0.018 0.357 0.107l1.285 2.356c1.089-0.482 2.302-0.75 3.587-0.75s2.498 0.268 3.587 0.75l1.285-2.356c0.071-0.125 0.232-0.161 0.357-0.107 0.125 0.071 0.161 0.232 0.089 0.357zM28.564 12.6v7.674c0 1.017-0.821 1.838-1.838 1.838-0.999 0-1.82-0.821-1.82-1.838v-7.674c0-1.017 0.821-1.82 1.82-1.82 1.017 0 1.838 0.803 1.838 1.82z"></path>
</svg>
