<?xml version="1.0" encoding="utf-8"?>
<!-- Generated by IcoMoon.io -->
<!DOCTYPE svg PUBLIC "-//W3C//DTD SVG 1.1//EN" "http://www.w3.org/Graphics/SVG/1.1/DTD/svg11.dtd">
<svg version="1.1" xmlns="http://www.w3.org/2000/svg" xmlns:xlink="http://www.w3.org/1999/xlink" width="32" height="32" viewBox="0 0 32 32">
<path d="M21.19 7.411l-1.89 5.439 1.94 0.348c0.497-1.36 2.736-7.478 2.736-8.589 0-0.415-0.133-0.929-0.63-0.929-0.929 0-1.923 3.018-2.156 3.731zM16.232 18.802c0.182 0.481 0.381 0.962 0.547 1.459 0.365-0.415 0.746-0.796 1.177-1.111-0.58-0.116-1.161-0.166-1.724-0.348zM11.39 3.945c0 1.691 2.006 6.964 2.636 8.639 0.232-0.133 0.531-0.166 0.813-0.166 0.398 0 0.846 0.050 1.244 0.083l-2.006-5.82c-0.216-0.63-1.177-3.648-2.040-3.648-0.448 0-0.647 0.531-0.647 0.912zM10.080 16.531c0 1.21 3.25 5.671 4.46 5.671 0.332 0 0.614-0.365 0.614-0.663 0-0.381-0.381-1.327-0.531-1.691-0.431-1.111-2.006-4.543-3.366-4.543-0.448 0-1.177 0.779-1.177 1.227zM7.46 22.085c0 0.597 0.199 1.177 0.415 1.724 1.31 3.233 4.261 5.124 7.71 5.124 2.52 0 4.643-0.962 6.334-2.819 1.791-1.99 2.52-4.444 2.52-7.080 0-0.929 0.017-2.404-0.713-3.068-1.393-1.227-6.119-1.691-7.992-1.691-0.232 0-0.63 0.017-0.813 0.182-0.199 0.083-0.199 0.398-0.199 0.58 0 2.537 5.356 2.305 6.964 2.305 0.315 0 0.464 0.083 0.663 0.315 0.216 0.265 0.282 0.58 0.315 0.912-0.431 0.431-1.028 0.68-1.592 0.895-0.547 0.199-1.078 0.415-1.542 0.763-1.277 0.929-2.537 2.52-2.537 4.162 0 1.028 0.614 1.907 0.614 2.918 0 0.017-0.116 0.381-0.116 0.431-1.89-0.133-2.355-2.006-2.421-3.582-0.199 0.050-0.464 0.033-0.68 0.033 0.033 0.116 0.033 0.232 0.033 0.348 0 1.21-1.078 2.089-2.239 2.089-1.791 0-4.162-2.106-4.162-3.93 0-0.497 0.216-0.779 0.547-1.111 0.332 0.415 0.68 0.829 0.995 1.26 0.481 0.647 1.31 1.724 2.205 1.724 0.232 0 0.68-0.199 0.68-0.481 0-0.746-2.719-4.245-3.383-4.245-1.045 0-1.608 1.376-1.608 2.239zM5.57 22.235c0-2.156 0.829-3.582 2.968-4.162-0.182-0.481-0.464-1.21-0.464-1.724 0-1.36 1.675-3.051 3.034-3.051 0.398 0 0.796 0.116 1.161 0.249-0.696-1.973-2.703-7.528-2.703-9.402 0-1.675 0.846-3.001 2.653-3.001 2.321 0 4.958 8.357 5.522 10.015 0.73-1.824 3.018-9.468 5.605-9.468 1.625 0 2.537 1.293 2.537 2.835 0 1.758-1.957 7.23-2.636 9.12 2.786 0.68 3.184 2.935 3.184 5.439 0 6.633-4.228 11.773-11.077 11.773-1.26 0-2.504-0.249-3.698-0.696-3.15-1.194-6.085-4.427-6.085-7.926z"></path>
</svg>
