<?xml version="1.0" encoding="utf-8"?>
<!-- Generated by IcoMoon.io -->
<!DOCTYPE svg PUBLIC "-//W3C//DTD SVG 1.1//EN" "http://www.w3.org/Graphics/SVG/1.1/DTD/svg11.dtd">
<svg version="1.1" xmlns="http://www.w3.org/2000/svg" xmlns:xlink="http://www.w3.org/1999/xlink" width="32" height="32" viewBox="0 0 32 32">
<path d="M30.040 10.148c0 0.225-0.113 0.478-0.281 0.647l-13.112 13.112c-0.169 0.169-0.422 0.281-0.647 0.281s-0.478-0.113-0.647-0.281l-13.112-13.112c-0.169-0.169-0.281-0.422-0.281-0.647s0.113-0.478 0.281-0.647l1.407-1.407c0.169-0.169 0.394-0.281 0.647-0.281 0.225 0 0.478 0.113 0.647 0.281l11.058 11.058 11.058-11.058c0.169-0.169 0.422-0.281 0.647-0.281s0.478 0.113 0.647 0.281l1.407 1.407c0.169 0.169 0.281 0.422 0.281 0.647z"></path>
</svg>
