<?xml version="1.0" encoding="utf-8"?>
<!-- Generated by IcoMoon.io -->
<!DOCTYPE svg PUBLIC "-//W3C//DTD SVG 1.1//EN" "http://www.w3.org/Graphics/SVG/1.1/DTD/svg11.dtd">
<svg version="1.1" xmlns="http://www.w3.org/2000/svg" xmlns:xlink="http://www.w3.org/1999/xlink" width="32" height="32" viewBox="0 0 32 32">
<path d="M30.819 27.879c0 0.238-0.119 0.505-0.297 0.683l-1.485 1.485c-0.178 0.178-0.416 0.297-0.683 0.297-0.238 0-0.505-0.119-0.683-0.297l-11.671-11.671-11.671 11.671c-0.178 0.178-0.445 0.297-0.683 0.297s-0.505-0.119-0.683-0.297l-1.485-1.485c-0.178-0.178-0.297-0.445-0.297-0.683s0.119-0.505 0.297-0.683l13.839-13.839c0.178-0.178 0.445-0.297 0.683-0.297s0.505 0.119 0.683 0.297l13.839 13.839c0.178 0.178 0.297 0.445 0.297 0.683zM30.819 16.475c0 0.238-0.119 0.505-0.297 0.683l-1.485 1.485c-0.178 0.178-0.416 0.297-0.683 0.297-0.238 0-0.505-0.119-0.683-0.297l-11.671-11.671-11.671 11.671c-0.178 0.178-0.445 0.297-0.683 0.297s-0.505-0.119-0.683-0.297l-1.485-1.485c-0.178-0.178-0.297-0.445-0.297-0.683s0.119-0.505 0.297-0.683l13.839-13.839c0.178-0.178 0.445-0.297 0.683-0.297s0.505 0.119 0.683 0.297l13.839 13.839c0.178 0.178 0.297 0.445 0.297 0.683z"></path>
</svg>
