<?xml version="1.0" encoding="utf-8"?>
<!-- Generated by IcoMoon.io -->
<!DOCTYPE svg PUBLIC "-//W3C//DTD SVG 1.1//EN" "http://www.w3.org/Graphics/SVG/1.1/DTD/svg11.dtd">
<svg version="1.1" xmlns="http://www.w3.org/2000/svg" xmlns:xlink="http://www.w3.org/1999/xlink" width="33" height="32" viewBox="0 0 33 32">
<path d="M19.233 16c0 0.238-0.119 0.506-0.298 0.685l-13.875 13.875c-0.179 0.179-0.447 0.298-0.685 0.298s-0.506-0.119-0.685-0.298l-1.489-1.489c-0.179-0.179-0.298-0.447-0.298-0.685s0.119-0.506 0.298-0.685l11.701-11.701-11.701-11.701c-0.179-0.179-0.298-0.447-0.298-0.685s0.119-0.506 0.298-0.685l1.489-1.489c0.179-0.179 0.447-0.298 0.685-0.298s0.506 0.119 0.685 0.298l13.875 13.875c0.179 0.179 0.298 0.447 0.298 0.685zM30.666 16c0 0.238-0.119 0.506-0.298 0.685l-13.875 13.875c-0.179 0.179-0.447 0.298-0.685 0.298s-0.506-0.119-0.685-0.298l-1.489-1.489c-0.179-0.179-0.298-0.447-0.298-0.685s0.119-0.506 0.298-0.685l11.701-11.701-11.701-11.701c-0.179-0.179-0.298-0.447-0.298-0.685s0.119-0.506 0.298-0.685l1.489-1.489c0.179-0.179 0.447-0.298 0.685-0.298s0.506 0.119 0.685 0.298l13.875 13.875c0.179 0.179 0.298 0.447 0.298 0.685z"></path>
</svg>
