<?xml version="1.0" encoding="utf-8"?>
<!-- Generated by IcoMoon.io -->
<!DOCTYPE svg PUBLIC "-//W3C//DTD SVG 1.1//EN" "http://www.w3.org/Graphics/SVG/1.1/DTD/svg11.dtd">
<svg version="1.1" xmlns="http://www.w3.org/2000/svg" xmlns:xlink="http://www.w3.org/1999/xlink" width="32" height="32" viewBox="0 0 32 32">
<path d="M19.407 14.864c0-0.621-0.515-1.136-1.136-1.136h-4.542c-0.621 0-1.136 0.515-1.136 1.136s0.515 1.136 1.136 1.136h4.542c0.621 0 1.136-0.515 1.136-1.136zM29.626 11.458v17.033c0 0.621-0.515 1.136-1.136 1.136h-24.982c-0.621 0-1.135-0.515-1.135-1.136v-17.033c0-0.621 0.515-1.136 1.135-1.136h24.982c0.621 0 1.136 0.515 1.136 1.136zM30.762 3.509v4.542c0 0.621-0.515 1.136-1.136 1.136h-27.253c-0.621 0-1.135-0.515-1.135-1.136v-4.542c0-0.621 0.515-1.135 1.135-1.135h27.253c0.621 0 1.136 0.515 1.136 1.135z"></path>
</svg>
