<?xml version="1.0" encoding="utf-8"?>
<!-- Generated by IcoMoon.io -->
<!DOCTYPE svg PUBLIC "-//W3C//DTD SVG 1.1//EN" "http://www.w3.org/Graphics/SVG/1.1/DTD/svg11.dtd">
<svg version="1.1" xmlns="http://www.w3.org/2000/svg" xmlns:xlink="http://www.w3.org/1999/xlink" width="32" height="32" viewBox="0 0 32 32">
<path d="M21.306 6.449c0 0.58-0.481 1.061-1.061 1.061h-2.122v16.98h2.122c0.58 0 1.061 0.481 1.061 1.061 0 0.282-0.116 0.547-0.315 0.746l-4.245 4.245c-0.199 0.199-0.464 0.315-0.746 0.315s-0.547-0.116-0.746-0.315l-4.245-4.245c-0.199-0.199-0.315-0.464-0.315-0.746 0-0.58 0.481-1.061 1.061-1.061h2.122v-16.98h-2.122c-0.58 0-1.061-0.481-1.061-1.061 0-0.282 0.116-0.547 0.315-0.746l4.245-4.245c0.199-0.199 0.464-0.315 0.746-0.315s0.547 0.116 0.746 0.315l4.245 4.245c0.199 0.199 0.315 0.464 0.315 0.746z"></path>
</svg>
