<?xml version="1.0" encoding="utf-8"?>
<!-- Generated by IcoMoon.io -->
<!DOCTYPE svg PUBLIC "-//W3C//DTD SVG 1.1//EN" "http://www.w3.org/Graphics/SVG/1.1/DTD/svg11.dtd">
<svg version="1.1" xmlns="http://www.w3.org/2000/svg" xmlns:xlink="http://www.w3.org/1999/xlink" width="32" height="32" viewBox="0 0 32 32">
<path d="M25.905 17.238v-2.476c0-0.677-0.561-1.238-1.238-1.238h-9.711l3.656-3.656c0.232-0.232 0.368-0.542 0.368-0.871s-0.135-0.638-0.368-0.871l-1.76-1.76c-0.232-0.232-0.542-0.348-0.871-0.348s-0.638 0.116-0.871 0.348l-8.763 8.763c-0.232 0.232-0.348 0.542-0.348 0.871s0.116 0.638 0.348 0.871l8.763 8.763c0.232 0.232 0.542 0.348 0.871 0.348s0.638-0.116 0.871-0.348l1.76-1.76c0.232-0.232 0.348-0.542 0.348-0.871s-0.116-0.638-0.348-0.871l-3.656-3.656h9.711c0.677 0 1.238-0.561 1.238-1.238zM30.857 16c0 8.202-6.655 14.857-14.857 14.857s-14.857-6.655-14.857-14.857 6.655-14.857 14.857-14.857 14.857 6.655 14.857 14.857z"></path>
</svg>
