<?xml version="1.0" encoding="utf-8"?>
<!-- Generated by IcoMoon.io -->
<!DOCTYPE svg PUBLIC "-//W3C//DTD SVG 1.1//EN" "http://www.w3.org/Graphics/SVG/1.1/DTD/svg11.dtd">
<svg version="1.1" xmlns="http://www.w3.org/2000/svg" xmlns:xlink="http://www.w3.org/1999/xlink" width="32" height="32" viewBox="0 0 32 32">
<path d="M22.771 15.613c-0.097 0.232-0.329 0.387-0.58 0.387h-3.714v6.81c0 0.348-0.271 0.619-0.619 0.619h-3.714c-0.348 0-0.619-0.271-0.619-0.619v-6.81h-3.714c-0.348 0-0.619-0.271-0.619-0.619 0-0.174 0.077-0.329 0.193-0.464l6.171-6.171c0.135-0.116 0.29-0.174 0.445-0.174s0.31 0.058 0.445 0.174l6.19 6.19c0.174 0.193 0.232 0.445 0.135 0.677zM16 5.476c-5.804 0-10.524 4.72-10.524 10.524s4.72 10.524 10.524 10.524 10.524-4.72 10.524-10.524-4.72-10.524-10.524-10.524zM30.857 16c0 8.202-6.655 14.857-14.857 14.857s-14.857-6.655-14.857-14.857 6.655-14.857 14.857-14.857v0c8.202 0 14.857 6.655 14.857 14.857z"></path>
</svg>
