<?xml version="1.0" encoding="utf-8"?>
<!-- Generated by IcoMoon.io -->
<!DOCTYPE svg PUBLIC "-//W3C//DTD SVG 1.1//EN" "http://www.w3.org/Graphics/SVG/1.1/DTD/svg11.dtd">
<svg version="1.1" xmlns="http://www.w3.org/2000/svg" xmlns:xlink="http://www.w3.org/1999/xlink" width="32" height="32" viewBox="0 0 32 32">
<path d="M30.037 16c0 0.648-0.248 1.278-0.706 1.736l-12.416 12.416c-0.458 0.439-1.087 0.706-1.736 0.706s-1.259-0.267-1.716-0.706l-1.43-1.43c-0.458-0.458-0.725-1.087-0.725-1.736s0.267-1.278 0.725-1.736l5.588-5.588h-13.427c-1.373 0-2.231-1.144-2.231-2.441v-2.441c0-1.297 0.858-2.441 2.231-2.441h13.427l-5.588-5.607c-0.458-0.439-0.725-1.068-0.725-1.716s0.267-1.278 0.725-1.716l1.43-1.43c0.458-0.458 1.068-0.725 1.716-0.725s1.278 0.267 1.736 0.725l12.416 12.416c0.458 0.439 0.706 1.068 0.706 1.716z"></path>
</svg>
