<?xml version="1.0" encoding="utf-8"?>
<!-- Generated by IcoMoon.io -->
<!DOCTYPE svg PUBLIC "-//W3C//DTD SVG 1.1//EN" "http://www.w3.org/Graphics/SVG/1.1/DTD/svg11.dtd">
<svg version="1.1" xmlns="http://www.w3.org/2000/svg" xmlns:xlink="http://www.w3.org/1999/xlink" width="32" height="32" viewBox="0 0 32 32">
<path d="M23.429 14.143v3.714c0 0.329-0.29 0.619-0.619 0.619h-6.81v3.714c0 0.348-0.271 0.619-0.619 0.619-0.174 0-0.329-0.077-0.464-0.193l-6.171-6.171c-0.116-0.116-0.174-0.29-0.174-0.445s0.058-0.329 0.174-0.445l6.19-6.19c0.116-0.116 0.29-0.174 0.445-0.174 0.329 0 0.619 0.29 0.619 0.619v3.714h6.81c0.329 0 0.619 0.29 0.619 0.619zM26.524 16c0-5.804-4.72-10.524-10.524-10.524s-10.524 4.72-10.524 10.524 4.72 10.524 10.524 10.524 10.524-4.72 10.524-10.524zM30.857 16c0 8.202-6.655 14.857-14.857 14.857s-14.857-6.655-14.857-14.857 6.655-14.857 14.857-14.857 14.857 6.655 14.857 14.857z"></path>
</svg>
