<?xml version="1.0" encoding="utf-8"?>
<!-- Generated by IcoMoon.io -->
<!DOCTYPE svg PUBLIC "-//W3C//DTD SVG 1.1//EN" "http://www.w3.org/Graphics/SVG/1.1/DTD/svg11.dtd">
<svg version="1.1" xmlns="http://www.w3.org/2000/svg" xmlns:xlink="http://www.w3.org/1999/xlink" width="32" height="32" viewBox="0 0 32 32">
<path d="M22.81 16.619c0 0.174-0.077 0.329-0.193 0.464l-6.171 6.171c-0.135 0.116-0.29 0.174-0.445 0.174s-0.31-0.058-0.445-0.174l-6.19-6.19c-0.174-0.193-0.232-0.445-0.135-0.677s0.329-0.387 0.58-0.387h3.714v-6.81c0-0.348 0.271-0.619 0.619-0.619h3.714c0.348 0 0.619 0.271 0.619 0.619v6.81h3.714c0.348 0 0.619 0.271 0.619 0.619zM16 5.476c-5.804 0-10.524 4.72-10.524 10.524s4.72 10.524 10.524 10.524 10.524-4.72 10.524-10.524-4.72-10.524-10.524-10.524zM30.857 16c0 8.202-6.655 14.857-14.857 14.857s-14.857-6.655-14.857-14.857 6.655-14.857 14.857-14.857v0c8.202 0 14.857 6.655 14.857 14.857z"></path>
</svg>
