<?xml version="1.0" encoding="utf-8"?>
<!-- Generated by IcoMoon.io -->
<!DOCTYPE svg PUBLIC "-//W3C//DTD SVG 1.1//EN" "http://www.w3.org/Graphics/SVG/1.1/DTD/svg11.dtd">
<svg version="1.1" xmlns="http://www.w3.org/2000/svg" xmlns:xlink="http://www.w3.org/1999/xlink" width="32" height="32" viewBox="0 0 32 32">
<path d="M30.799 15.288c0 0.646-0.266 1.273-0.703 1.71l-12.368 12.387c-0.456 0.437-1.083 0.703-1.729 0.703s-1.273-0.266-1.71-0.703l-12.368-12.387c-0.456-0.437-0.722-1.064-0.722-1.71s0.266-1.273 0.722-1.729l1.406-1.425c0.456-0.437 1.083-0.703 1.729-0.703s1.273 0.266 1.71 0.703l5.585 5.585v-13.374c0-1.33 1.102-2.432 2.432-2.432h2.432c1.33 0 2.432 1.102 2.432 2.432v13.374l5.585-5.585c0.437-0.437 1.064-0.703 1.71-0.703s1.273 0.266 1.729 0.703l1.425 1.425c0.437 0.456 0.703 1.083 0.703 1.729z"></path>
</svg>
