<?xml version="1.0" encoding="utf-8"?>
<!-- Generated by IcoMoon.io -->
<!DOCTYPE svg PUBLIC "-//W3C//DTD SVG 1.1//EN" "http://www.w3.org/Graphics/SVG/1.1/DTD/svg11.dtd">
<svg version="1.1" xmlns="http://www.w3.org/2000/svg" xmlns:xlink="http://www.w3.org/1999/xlink" width="32" height="32" viewBox="0 0 32 32">
<path d="M30.79 16.816c0 0.646-0.266 1.253-0.703 1.709l-1.424 1.424c-0.456 0.456-1.082 0.721-1.728 0.721s-1.272-0.266-1.709-0.721l-5.582-5.563v13.366c0 1.367-1.139 2.221-2.43 2.221h-2.43c-1.291 0-2.43-0.854-2.43-2.221v-13.366l-5.582 5.563c-0.437 0.456-1.063 0.721-1.709 0.721s-1.272-0.266-1.709-0.721l-1.424-1.424c-0.456-0.456-0.721-1.063-0.721-1.709s0.266-1.272 0.721-1.728l12.36-12.36c0.437-0.456 1.063-0.703 1.709-0.703s1.272 0.247 1.728 0.703l12.36 12.36c0.437 0.456 0.703 1.082 0.703 1.728z"></path>
</svg>
