<?xml version="1.0" encoding="utf-8"?>
<!-- Generated by IcoMoon.io -->
<!DOCTYPE svg PUBLIC "-//W3C//DTD SVG 1.1//EN" "http://www.w3.org/Graphics/SVG/1.1/DTD/svg11.dtd">
<svg version="1.1" xmlns="http://www.w3.org/2000/svg" xmlns:xlink="http://www.w3.org/1999/xlink" width="32" height="32" viewBox="0 0 32 32">
<path d="M25.963 9.132l-6.868 6.868 6.868 6.868 2.786-2.786c0.348-0.368 0.89-0.464 1.354-0.271 0.445 0.193 0.754 0.638 0.754 1.141v8.667c0 0.677-0.561 1.238-1.238 1.238h-8.667c-0.503 0-0.948-0.31-1.141-0.774-0.193-0.445-0.097-0.987 0.271-1.335l2.786-2.786-6.868-6.868-6.868 6.868 2.786 2.786c0.368 0.348 0.464 0.89 0.271 1.335-0.193 0.464-0.638 0.774-1.141 0.774h-8.667c-0.677 0-1.238-0.561-1.238-1.238v-8.667c0-0.503 0.31-0.948 0.774-1.141 0.445-0.193 0.987-0.097 1.335 0.271l2.786 2.786 6.868-6.868-6.868-6.868-2.786 2.786c-0.232 0.232-0.542 0.368-0.871 0.368-0.155 0-0.329-0.039-0.464-0.097-0.464-0.193-0.774-0.638-0.774-1.141v-8.667c0-0.677 0.561-1.238 1.238-1.238h8.667c0.503 0 0.948 0.31 1.141 0.774 0.193 0.445 0.097 0.987-0.271 1.335l-2.786 2.786 6.868 6.868 6.868-6.868-2.786-2.786c-0.368-0.348-0.464-0.89-0.271-1.335 0.193-0.464 0.638-0.774 1.141-0.774h8.667c0.677 0 1.238 0.561 1.238 1.238v8.667c0 0.503-0.31 0.948-0.754 1.141-0.155 0.058-0.329 0.097-0.484 0.097-0.329 0-0.638-0.135-0.871-0.368z"></path>
</svg>
