<?xml version="1.0" encoding="utf-8"?>
<!-- Generated by IcoMoon.io -->
<!DOCTYPE svg PUBLIC "-//W3C//DTD SVG 1.1//EN" "http://www.w3.org/Graphics/SVG/1.1/DTD/svg11.dtd">
<svg version="1.1" xmlns="http://www.w3.org/2000/svg" xmlns:xlink="http://www.w3.org/1999/xlink" width="32" height="32" viewBox="0 0 32 32">
<path d="M3.328 29.801c0 0.578-0.479 1.056-1.056 1.056s-1.056-0.479-1.056-1.056 0.479-1.056 1.056-1.056 1.056 0.479 1.056 1.056zM6.497 26.631c0 0.578-0.479 1.056-1.056 1.056s-1.056-0.479-1.056-1.056 0.479-1.056 1.056-1.056 1.056 0.479 1.056 1.056zM7.24 20.606l4.226 4.226-1.486 1.486-4.226-4.226zM12.836 20.292c0 0.578-0.479 1.056-1.056 1.056s-1.056-0.479-1.056-1.056 0.479-1.056 1.056-1.056 1.056 0.479 1.056 1.056zM24.508 15.009c0 2.74-1.288 4.21-2.41 5.514-1.040 1.189-1.865 2.13-1.865 3.995 0 3.5-2.839 6.339-6.339 6.339-0.578 0-1.056-0.479-1.056-1.056s0.479-1.056 1.056-1.056c2.328 0 4.226-1.898 4.226-4.226 0-2.658 1.271-4.11 2.377-5.382 1.024-1.172 1.898-2.179 1.898-4.127 0-4.077-3.318-7.396-7.396-7.396s-7.396 3.318-7.396 7.396c0 0.578-0.479 1.056-1.056 1.056s-1.056-0.479-1.056-1.056c0-5.25 4.259-9.509 9.509-9.509s9.509 4.259 9.509 9.509zM16.006 17.122c0 0.578-0.479 1.056-1.056 1.056s-1.056-0.479-1.056-1.056 0.479-1.056 1.056-1.056 1.056 0.479 1.056 1.056zM20.76 15.009c0 0.578-0.479 1.056-1.056 1.056s-1.056-0.479-1.056-1.056c0-2.047-1.651-3.698-3.698-3.698-2.030 0-3.698 1.651-3.698 3.698 0 0.578-0.479 1.056-1.056 1.056s-1.056-0.479-1.056-1.056c0-3.203 2.608-5.811 5.811-5.811s5.811 2.608 5.811 5.811zM27.264 10.239c0.215 0.545-0.066 1.156-0.611 1.37-0.116 0.050-0.248 0.066-0.38 0.066-0.413 0-0.825-0.248-0.974-0.677-0.743-1.931-2.030-3.615-3.698-4.87-0.462-0.347-0.561-1.007-0.215-1.469 0.363-0.462 1.024-0.561 1.486-0.215 1.981 1.486 3.5 3.5 4.391 5.794zM30.731 8.902c0.198 0.545-0.066 1.156-0.611 1.37-0.132 0.050-0.248 0.066-0.38 0.066-0.429 0-0.825-0.248-0.991-0.677-0.991-2.575-2.691-4.82-4.903-6.488-0.479-0.347-0.561-1.007-0.215-1.469 0.347-0.479 1.007-0.561 1.469-0.215 2.542 1.898 4.49 4.474 5.629 7.412z"></path>
</svg>
