<?xml version="1.0" encoding="utf-8"?>
<!-- Generated by IcoMoon.io -->
<!DOCTYPE svg PUBLIC "-//W3C//DTD SVG 1.1//EN" "http://www.w3.org/Graphics/SVG/1.1/DTD/svg11.dtd">
<svg version="1.1" xmlns="http://www.w3.org/2000/svg" xmlns:xlink="http://www.w3.org/1999/xlink" width="32" height="32" viewBox="0 0 32 32">
<path d="M28.574 18.979c1.18 0.677 1.586 2.205 0.909 3.385l-1.238 2.128c-0.677 1.18-2.205 1.586-3.385 0.909l-5.146-2.96v5.939c0 1.354-1.122 2.476-2.476 2.476h-2.476c-1.354 0-2.476-1.122-2.476-2.476v-5.939l-5.146 2.96c-1.18 0.677-2.708 0.271-3.385-0.909l-1.238-2.128c-0.677-1.18-0.271-2.708 0.909-3.385l5.146-2.979-5.146-2.979c-1.18-0.677-1.586-2.205-0.909-3.385l1.238-2.128c0.677-1.18 2.205-1.586 3.385-0.909l5.146 2.96v-5.939c0-1.354 1.122-2.476 2.476-2.476h2.476c1.354 0 2.476 1.122 2.476 2.476v5.939l5.146-2.96c1.18-0.677 2.708-0.271 3.385 0.909l1.238 2.128c0.677 1.18 0.271 2.708-0.909 3.385l-5.146 2.979z"></path>
</svg>
