<?xml version="1.0" encoding="utf-8"?>
<!-- Generated by IcoMoon.io -->
<!DOCTYPE svg PUBLIC "-//W3C//DTD SVG 1.1//EN" "http://www.w3.org/Graphics/SVG/1.1/DTD/svg11.dtd">
<svg version="1.1" xmlns="http://www.w3.org/2000/svg" xmlns:xlink="http://www.w3.org/1999/xlink" width="32" height="32" viewBox="0 0 32 32">
<path d="M19.946 13.659c0-2.786-1.451-4.449-3.888-4.449-3.211 0-6.655 3.192-6.655 8.357 0 2.882 1.432 4.527 3.946 4.527 3.888 0 6.597-4.449 6.597-8.435zM30.857 16c0 6.016-4.295 8.28-7.97 8.396-0.252 0-0.348 0.019-0.619 0.019-1.199 0-2.147-0.348-2.747-1.025-0.368-0.426-0.58-0.967-0.638-1.606-1.199 1.509-3.289 2.979-5.9 2.979-4.159 0-6.539-2.573-6.539-7.061 0-6.171 4.275-11.182 9.498-11.182 2.263 0 4.082 0.967 5.049 2.612l0.039-0.368 0.213-1.083c0.019-0.155 0.155-0.348 0.29-0.348h2.283c0.097 0 0.193 0.135 0.252 0.213 0.058 0.058 0.077 0.213 0.058 0.31l-2.321 11.878c-0.077 0.368-0.097 0.658-0.097 0.929 0 1.045 0.31 1.257 1.103 1.257 1.315-0.039 5.571-0.58 5.571-5.92 0-7.525-4.856-12.381-12.381-12.381-6.829 0-12.381 5.552-12.381 12.381s5.552 12.381 12.381 12.381c2.844 0 5.629-0.987 7.835-2.786 0.271-0.232 0.658-0.193 0.871 0.077l0.793 0.948c0.097 0.135 0.155 0.29 0.135 0.464-0.019 0.155-0.097 0.31-0.232 0.426-2.631 2.147-5.978 3.347-9.402 3.347-8.183 0-14.857-6.674-14.857-14.857s6.674-14.857 14.857-14.857c8.879 0 14.857 5.978 14.857 14.857z"></path>
</svg>
