<?xml version="1.0" encoding="utf-8"?>
<!-- Generated by IcoMoon.io -->
<!DOCTYPE svg PUBLIC "-//W3C//DTD SVG 1.1//EN" "http://www.w3.org/Graphics/SVG/1.1/DTD/svg11.dtd">
<svg version="1.1" xmlns="http://www.w3.org/2000/svg" xmlns:xlink="http://www.w3.org/1999/xlink" width="32" height="32" viewBox="0 0 32 32">
<path d="M8.859 17.071h1.879l-0.011-2.912zM20.133 15.984c0-1.22-0.703-2.121-2.165-2.121h-0.593v4.263h0.571c1.374 0 2.187-1 2.187-2.143zM13.826 11.841l0.011 8.307c0 0.209-0.165 0.374-0.363 0.374h-2.373c-0.198 0-0.363-0.165-0.363-0.374v-0.681h-3.198l-0.604 0.89c-0.066 0.099-0.187 0.165-0.308 0.165h-2.934c-0.308 0-0.483-0.341-0.297-0.582l6.109-8.318c0.066-0.099 0.176-0.154 0.297-0.154h3.648c0.209 0 0.374 0.165 0.374 0.374zM22.913 15.984c0 2.89-2.11 4.538-4.945 4.538h-2.967c-0.209 0-0.374-0.165-0.374-0.374v-8.307c0-0.209 0.165-0.374 0.374-0.374h2.945c2.857 0 4.967 1.626 4.967 4.516zM24.627 15.995c0 0 0.044 2.857-1.626 4.538h-0.56c1.494-1.78 1.527-4.549 1.527-4.549s0.022-2.176-1.483-4.505h0.473c1.626 1.857 1.67 4.516 1.67 4.516zM26.649 15.995c0 0 0.044 2.857-1.637 4.538h-0.56c1.494-1.78 1.527-4.549 1.527-4.549s0.022-2.176-1.472-4.505h0.473c1.626 1.857 1.67 4.516 1.67 4.516zM28.638 15.995c0 0 0.044 2.857-1.626 4.538h-0.56c1.483-1.78 1.516-4.549 1.516-4.549s0.022-2.176-1.472-4.505h0.473c1.626 1.857 1.67 4.516 1.67 4.516z"></path>
</svg>
