<?xml version="1.0" encoding="utf-8"?>
<!-- Generated by IcoMoon.io -->
<!DOCTYPE svg PUBLIC "-//W3C//DTD SVG 1.1//EN" "http://www.w3.org/Graphics/SVG/1.1/DTD/svg11.dtd">
<svg version="1.1" xmlns="http://www.w3.org/2000/svg" xmlns:xlink="http://www.w3.org/1999/xlink" width="32" height="32" viewBox="0 0 32 32">
<path d="M8.277 18.271c0-1.249-1.022-2.271-2.271-2.271s-2.271 1.022-2.271 2.271 1.022 2.271 2.271 2.271 2.271-1.022 2.271-2.271zM8.788 13.729h14.424l-1.263-5.068c-0.043-0.156-0.327-0.383-0.497-0.383h-10.903c-0.17 0-0.454 0.227-0.497 0.383zM28.266 18.271c0-1.249-1.022-2.271-2.271-2.271s-2.271 1.022-2.271 2.271 1.022 2.271 2.271 2.271 2.271-1.022 2.271-2.271zM30.537 16.909v5.451c0 0.256-0.199 0.454-0.454 0.454h-1.363v1.817c0 1.505-1.221 2.726-2.726 2.726s-2.726-1.221-2.726-2.726v-1.817h-14.537v1.817c0 1.505-1.221 2.726-2.726 2.726s-2.726-1.221-2.726-2.726v-1.817h-1.363c-0.256 0-0.454-0.199-0.454-0.454v-5.451c0-1.76 1.42-3.18 3.18-3.18h0.397l1.491-5.948c0.44-1.789 2.172-3.137 4.018-3.137h10.903c1.846 0 3.578 1.349 4.018 3.137l1.491 5.948h0.398c1.76 0 3.18 1.42 3.18 3.18z"></path>
</svg>
