<?xml version="1.0" encoding="utf-8"?>
<!-- Generated by IcoMoon.io -->
<!DOCTYPE svg PUBLIC "-//W3C//DTD SVG 1.1//EN" "http://www.w3.org/Graphics/SVG/1.1/DTD/svg11.dtd">
<svg version="1.1" xmlns="http://www.w3.org/2000/svg" xmlns:xlink="http://www.w3.org/1999/xlink" width="32" height="32" viewBox="0 0 32 32">
<path d="M24.595 9.983l-5.157 9.455h10.315zM7.405 9.983l-5.157 9.455h10.315zM18.431 7.405c-0.255 0.725-0.846 1.316-1.571 1.571v17.339h8.166c0.242 0 0.43 0.188 0.43 0.43v0.86c0 0.242-0.188 0.43-0.43 0.43h-18.050c-0.242 0-0.43-0.188-0.43-0.43v-0.86c0-0.242 0.188-0.43 0.43-0.43h8.166v-17.339c-0.725-0.255-1.316-0.846-1.571-1.571h-6.594c-0.242 0-0.43-0.188-0.43-0.43v-0.86c0-0.242 0.188-0.43 0.43-0.43h6.594c0.363-1.007 1.303-1.719 2.431-1.719s2.068 0.712 2.431 1.719h6.594c0.242 0 0.43 0.188 0.43 0.43v0.86c0 0.242-0.188 0.43-0.43 0.43h-6.594zM16 7.619c0.591 0 1.074-0.484 1.074-1.074s-0.483-1.074-1.074-1.074-1.074 0.484-1.074 1.074 0.483 1.074 1.074 1.074zM30.612 19.438c0 2.767-3.828 3.868-6.017 3.868s-6.017-1.101-6.017-3.868v0c0-0.524 4.687-8.824 5.265-9.871 0.148-0.269 0.443-0.443 0.752-0.443s0.604 0.175 0.752 0.443c0.578 1.048 5.265 9.348 5.265 9.871v0zM13.421 19.438c0 2.767-3.828 3.868-6.017 3.868s-6.017-1.101-6.017-3.868v0c0-0.524 4.687-8.824 5.265-9.871 0.148-0.269 0.443-0.443 0.752-0.443s0.604 0.175 0.752 0.443c0.578 1.048 5.265 9.348 5.265 9.871z"></path>
</svg>
