<?xml version="1.0" encoding="utf-8"?>
<!-- Generated by IcoMoon.io -->
<!DOCTYPE svg PUBLIC "-//W3C//DTD SVG 1.1//EN" "http://www.w3.org/Graphics/SVG/1.1/DTD/svg11.dtd">
<svg version="1.1" xmlns="http://www.w3.org/2000/svg" xmlns:xlink="http://www.w3.org/1999/xlink" width="32" height="32" viewBox="0 0 32 32">
<path d="M26.49 15.99c0-2.102-0.617-4.049-1.678-5.688l-14.539 14.52c1.658 1.080 3.625 1.716 5.727 1.716 5.785 0 10.49-4.724 10.49-10.547zM7.226 21.756l14.558-14.539c-1.658-1.118-3.644-1.755-5.785-1.755-5.785 0-10.49 4.724-10.49 10.528 0 2.14 0.636 4.107 1.716 5.765zM30.809 15.99c0 8.214-6.633 14.867-14.809 14.867s-14.809-6.652-14.809-14.867c0-8.195 6.633-14.848 14.809-14.848s14.809 6.652 14.809 14.848z"></path>
</svg>
