<?xml version="1.0" encoding="utf-8"?>
<!-- Generated by IcoMoon.io -->
<!DOCTYPE svg PUBLIC "-//W3C//DTD SVG 1.1//EN" "http://www.w3.org/Graphics/SVG/1.1/DTD/svg11.dtd">
<svg version="1.1" xmlns="http://www.w3.org/2000/svg" xmlns:xlink="http://www.w3.org/1999/xlink" width="32" height="32" viewBox="0 0 32 32">
<path d="M16 2.21l14.775 5.91v1.97h-1.97c0 0.539-0.477 0.985-1.062 0.985h-23.487c-0.585 0-1.062-0.446-1.062-0.985h-1.97v-1.97zM5.165 12.060h3.94v11.82h1.97v-11.82h3.94v11.82h1.97v-11.82h3.94v11.82h1.97v-11.82h3.94v11.82h0.908c0.585 0 1.062 0.446 1.062 0.985v0.985h-25.611v-0.985c0-0.539 0.477-0.985 1.062-0.985h0.908v-11.82zM29.714 26.835c0.585 0 1.062 0.446 1.062 0.985v1.97h-29.551v-1.97c0-0.539 0.477-0.985 1.062-0.985h27.427z"></path>
</svg>
