<?xml version="1.0" encoding="utf-8"?>
<!-- Generated by IcoMoon.io -->
<!DOCTYPE svg PUBLIC "-//W3C//DTD SVG 1.1//EN" "http://www.w3.org/Graphics/SVG/1.1/DTD/svg11.dtd">
<svg version="1.1" xmlns="http://www.w3.org/2000/svg" xmlns:xlink="http://www.w3.org/1999/xlink" width="32" height="32" viewBox="0 0 32 32">
<path d="M2.477 27.429h-1.023v-22.857h1.023v22.857zM3.5 27.412h-0.519v-22.841h0.519v22.841zM5.026 27.412h-0.503v-22.841h0.503v22.841zM7.575 27.412h-0.503v-22.841h0.503v22.841zM10.123 27.412h-1.006v-22.841h1.006v22.841zM12.169 27.412h-0.503v-22.841h0.503v22.841zM13.192 27.412h-0.503v-22.841h0.503v22.841zM14.214 27.412h-0.503v-22.841h0.503v22.841zM16.763 27.412h-1.023v-22.841h1.023v22.841zM19.312 27.412h-1.023v-22.841h1.023v22.841zM21.357 27.412h-1.023v-22.841h1.023v22.841zM23.403 27.412h-1.023v-22.841h1.023v22.841zM24.929 27.412h-1.023v-22.841h1.023v22.841zM27.997 27.412h-1.526v-22.841h1.526v22.841zM29.019 27.412h-0.52v-22.841h0.52v22.841zM30.545 27.429h-1.023v-22.857h1.023v22.857z"></path>
</svg>
