<?xml version="1.0" encoding="utf-8"?>
<!-- Generated by IcoMoon.io -->
<!DOCTYPE svg PUBLIC "-//W3C//DTD SVG 1.1//EN" "http://www.w3.org/Graphics/SVG/1.1/DTD/svg11.dtd">
<svg version="1.1" xmlns="http://www.w3.org/2000/svg" xmlns:xlink="http://www.w3.org/1999/xlink" width="32" height="32" viewBox="0 0 32 32">
<path d="M30.629 24.533v2.438c0 0.667-0.552 1.219-1.219 1.219h-26.819c-0.667 0-1.219-0.552-1.219-1.219v-2.438c0-0.667 0.552-1.219 1.219-1.219h26.819c0.667 0 1.219 0.552 1.219 1.219zM30.629 14.781v2.438c0 0.667-0.552 1.219-1.219 1.219h-26.819c-0.667 0-1.219-0.552-1.219-1.219v-2.438c0-0.667 0.552-1.219 1.219-1.219h26.819c0.667 0 1.219 0.552 1.219 1.219zM30.629 5.029v2.438c0 0.667-0.552 1.219-1.219 1.219h-26.819c-0.667 0-1.219-0.552-1.219-1.219v-2.438c0-0.667 0.552-1.219 1.219-1.219h26.819c0.667 0 1.219 0.552 1.219 1.219z"></path>
</svg>
