<?xml version="1.0" encoding="utf-8"?>
<!-- Generated by IcoMoon.io -->
<!DOCTYPE svg PUBLIC "-//W3C//DTD SVG 1.1//EN" "http://www.w3.org/Graphics/SVG/1.1/DTD/svg11.dtd">
<svg version="1.1" xmlns="http://www.w3.org/2000/svg" xmlns:xlink="http://www.w3.org/1999/xlink" width="32" height="32" viewBox="0 0 32 32">
<path d="M28.735 19.184v3.184c0 1.89-0.829 3.565-2.122 4.742v3.217c0 0.298-0.232 0.531-0.531 0.531h-1.061c-0.298 0-0.531-0.232-0.531-0.531v-1.957c-0.663 0.232-1.376 0.365-2.122 0.365h-12.735c-0.746 0-1.459-0.133-2.122-0.365v1.824c0 0.365-0.232 0.663-0.531 0.663h-1.061c-0.298 0-0.531-0.298-0.531-0.663v-3.084c-1.293-1.177-2.122-2.852-2.122-4.742v-3.184h25.469zM12.816 12.286c0 0.298-0.232 0.531-0.531 0.531s-0.531-0.232-0.531-0.531 0.232-0.531 0.531-0.531 0.531 0.232 0.531 0.531zM13.878 11.225c0 0.298-0.232 0.531-0.531 0.531s-0.531-0.232-0.531-0.531 0.232-0.531 0.531-0.531 0.531 0.232 0.531 0.531zM12.816 10.163c0 0.298-0.232 0.531-0.531 0.531s-0.531-0.232-0.531-0.531 0.232-0.531 0.531-0.531 0.531 0.232 0.531 0.531zM14.939 10.163c0 0.298-0.232 0.531-0.531 0.531s-0.531-0.232-0.531-0.531 0.232-0.531 0.531-0.531 0.531 0.232 0.531 0.531zM13.878 9.102c0 0.298-0.232 0.531-0.531 0.531s-0.531-0.232-0.531-0.531 0.232-0.531 0.531-0.531 0.531 0.232 0.531 0.531zM12.816 8.041c0 0.298-0.232 0.531-0.531 0.531s-0.531-0.232-0.531-0.531 0.232-0.531 0.531-0.531 0.531 0.232 0.531 0.531zM30.857 16.531v1.061c0 0.298-0.232 0.531-0.531 0.531h-28.653c-0.298 0-0.531-0.232-0.531-0.531v-1.061c0-0.298 0.232-0.531 0.531-0.531h1.592v-10.612c0-2.338 1.907-4.245 4.245-4.245 1.194 0 2.272 0.497 3.051 1.293 1.028-0.415 2.255-0.265 3.167 0.448l0.365-0.365c0.1-0.099 0.265-0.099 0.365 0l0.696 0.696c0.1 0.099 0.1 0.265 0 0.365l-5.207 5.207c-0.1 0.1-0.265 0.1-0.365 0l-0.696-0.696c-0.1-0.099-0.1-0.265 0-0.365l0.365-0.365c-0.796-1.011-0.895-2.404-0.282-3.515-0.381-0.365-0.895-0.58-1.459-0.58-1.177 0-2.122 0.945-2.122 2.122v10.612h24.939c0.298 0 0.531 0.232 0.531 0.531zM16 9.102c0 0.298-0.232 0.531-0.531 0.531s-0.531-0.232-0.531-0.531 0.232-0.531 0.531-0.531 0.531 0.232 0.531 0.531zM14.939 8.041c0 0.298-0.232 0.531-0.531 0.531s-0.531-0.232-0.531-0.531 0.232-0.531 0.531-0.531 0.531 0.232 0.531 0.531zM13.878 6.98c0 0.298-0.232 0.531-0.531 0.531s-0.531-0.232-0.531-0.531 0.232-0.531 0.531-0.531 0.531 0.232 0.531 0.531zM17.061 8.041c0 0.298-0.232 0.531-0.531 0.531s-0.531-0.232-0.531-0.531 0.232-0.531 0.531-0.531 0.531 0.232 0.531 0.531zM16 6.98c0 0.298-0.232 0.531-0.531 0.531s-0.531-0.232-0.531-0.531 0.232-0.531 0.531-0.531 0.531 0.232 0.531 0.531zM14.939 5.918c0 0.298-0.232 0.531-0.531 0.531s-0.531-0.232-0.531-0.531 0.232-0.531 0.531-0.531 0.531 0.232 0.531 0.531zM18.122 6.98c0 0.298-0.232 0.531-0.531 0.531s-0.531-0.232-0.531-0.531 0.232-0.531 0.531-0.531 0.531 0.232 0.531 0.531zM17.061 5.918c0 0.298-0.232 0.531-0.531 0.531s-0.531-0.232-0.531-0.531 0.232-0.531 0.531-0.531 0.531 0.232 0.531 0.531zM19.184 5.918c0 0.298-0.232 0.531-0.531 0.531s-0.531-0.232-0.531-0.531 0.232-0.531 0.531-0.531 0.531 0.232 0.531 0.531z"></path>
</svg>
