<?xml version="1.0" encoding="utf-8"?>
<!-- Generated by IcoMoon.io -->
<!DOCTYPE svg PUBLIC "-//W3C//DTD SVG 1.1//EN" "http://www.w3.org/Graphics/SVG/1.1/DTD/svg11.dtd">
<svg version="1.1" xmlns="http://www.w3.org/2000/svg" xmlns:xlink="http://www.w3.org/1999/xlink" width="32" height="32" viewBox="0 0 32 32">
<path d="M28.394 12.127c0.859 0 1.549 0.69 1.549 1.549v4.648c0 0.859-0.69 1.549-1.549 1.549v1.936c0 1.065-0.871 1.936-1.936 1.936h-22.463c-1.065 0-1.937-0.871-1.937-1.936v-11.619c0-1.065 0.871-1.937 1.937-1.937h22.463c1.065 0 1.936 0.871 1.936 1.937v1.937zM28.394 18.324v-4.648h-1.549v-3.486c0-0.218-0.169-0.387-0.387-0.387h-22.463c-0.218 0-0.387 0.169-0.387 0.387v11.619c0 0.218 0.169 0.387 0.387 0.387h22.463c0.218 0 0.387-0.169 0.387-0.387v-3.486h1.549z"></path>
</svg>
