<?xml version="1.0" encoding="utf-8"?>
<!-- Generated by IcoMoon.io -->
<!DOCTYPE svg PUBLIC "-//W3C//DTD SVG 1.1//EN" "http://www.w3.org/Graphics/SVG/1.1/DTD/svg11.dtd">
<svg version="1.1" xmlns="http://www.w3.org/2000/svg" xmlns:xlink="http://www.w3.org/1999/xlink" width="32" height="32" viewBox="0 0 32 32">
<path d="M5.371 17.771h23.914c0.484 0 0.886 0.401 0.886 0.886v6.2h-3.543v-3.543h-21.257v3.543h-3.543v-16.829c0-0.484 0.401-0.886 0.886-0.886h1.771c0.484 0 0.886 0.401 0.886 0.886v9.743zM13.343 13.343c0-1.951-1.592-3.543-3.543-3.543s-3.543 1.592-3.543 3.543 1.592 3.543 3.543 3.543 3.543-1.592 3.543-3.543zM30.171 16.886v-0.886c0-2.934-2.38-5.314-5.314-5.314h-9.743c-0.484 0-0.886 0.401-0.886 0.886v5.314h15.943z"></path>
</svg>
