<?xml version="1.0" encoding="utf-8"?>
<!-- Generated by IcoMoon.io -->
<!DOCTYPE svg PUBLIC "-//W3C//DTD SVG 1.1//EN" "http://www.w3.org/Graphics/SVG/1.1/DTD/svg11.dtd">
<svg version="1.1" xmlns="http://www.w3.org/2000/svg" xmlns:xlink="http://www.w3.org/1999/xlink" width="32" height="32" viewBox="0 0 32 32">
<path d="M27.408 8.288h-7.075v1.717h7.075v-1.717zM23.919 14.186c-1.661 0-2.769 1.038-2.88 2.7h5.649c-0.152-1.675-1.025-2.7-2.769-2.7zM24.141 22.286c1.052 0 2.409-0.568 2.741-1.648h3.060c-0.941 2.894-2.894 4.25-5.912 4.25-3.987 0-6.466-2.7-6.466-6.632 0-3.793 2.617-6.687 6.466-6.687 3.96 0 6.147 3.115 6.147 6.853 0 0.222-0.014 0.443-0.028 0.651h-9.11c0 2.021 1.066 3.212 3.101 3.212zM5.658 21.593h4.098c1.564 0 2.838-0.554 2.838-2.312 0-1.786-1.066-2.492-2.755-2.492h-4.181v4.804zM5.658 14.159h3.89c1.371 0 2.34-0.595 2.34-2.077 0-1.606-1.246-1.994-2.631-1.994h-3.6v4.070zM1.823 7.112h8.224c2.991 0 5.579 0.845 5.579 4.32 0 1.758-0.817 2.894-2.381 3.641 2.146 0.609 3.184 2.229 3.184 4.416 0 3.544-2.977 5.067-6.147 5.067h-8.459v-17.445z"></path>
</svg>
