<?xml version="1.0" encoding="utf-8"?>
<!-- Generated by IcoMoon.io -->
<!DOCTYPE svg PUBLIC "-//W3C//DTD SVG 1.1//EN" "http://www.w3.org/Graphics/SVG/1.1/DTD/svg11.dtd">
<svg version="1.1" xmlns="http://www.w3.org/2000/svg" xmlns:xlink="http://www.w3.org/1999/xlink" width="32" height="32" viewBox="0 0 32 32">
<path d="M16.265 29.265c0-0.149-0.116-0.265-0.265-0.265-1.31 0-2.388-1.078-2.388-2.388 0-0.149-0.116-0.265-0.265-0.265s-0.265 0.116-0.265 0.265c0 1.608 1.31 2.918 2.918 2.918 0.149 0 0.265-0.116 0.265-0.265zM29.796 24.49c0 1.161-0.962 2.122-2.122 2.122h-7.429c0 2.338-1.907 4.245-4.245 4.245s-4.245-1.907-4.245-4.245h-7.429c-1.161 0-2.122-0.962-2.122-2.122 2.454-2.073 5.306-5.787 5.306-13.796 0-3.184 2.636-6.666 7.031-7.313-0.083-0.199-0.133-0.415-0.133-0.647 0-0.879 0.713-1.592 1.592-1.592s1.592 0.713 1.592 1.592c0 0.232-0.050 0.448-0.133 0.647 4.394 0.647 7.031 4.129 7.031 7.313 0 8.009 2.852 11.723 5.306 13.796z"></path>
</svg>
