<?xml version="1.0" encoding="utf-8"?>
<!-- Generated by IcoMoon.io -->
<!DOCTYPE svg PUBLIC "-//W3C//DTD SVG 1.1//EN" "http://www.w3.org/Graphics/SVG/1.1/DTD/svg11.dtd">
<svg version="1.1" xmlns="http://www.w3.org/2000/svg" xmlns:xlink="http://www.w3.org/1999/xlink" width="32" height="32" viewBox="0 0 32 32">
<path d="M16.232 27.615c0-0.131-0.102-0.232-0.232-0.232-1.147 0-2.091-0.944-2.091-2.091 0-0.131-0.102-0.232-0.232-0.232s-0.232 0.102-0.232 0.232c0 1.408 1.147 2.555 2.555 2.555 0.131 0 0.232-0.102 0.232-0.232zM8.435 20.719l12.733-11.035c-0.726-1.524-2.41-2.976-5.169-2.976-3.804 0-5.575 2.773-5.575 4.646 0 3.717-0.653 6.824-1.989 9.365zM28.080 23.434c0 1.016-0.842 1.858-1.858 1.858h-6.505c0 2.047-1.67 3.717-3.717 3.717s-3.702-1.655-3.717-3.702l2.163-1.873h10.991c-1.612-1.815-2.701-4.022-3.296-6.664l1.612-1.408c0.74 4.327 2.642 6.65 4.327 8.073zM29.329 3.223l1.22 1.394c0.16 0.203 0.145 0.494-0.044 0.668l-27.18 23.55c-0.189 0.16-0.494 0.145-0.653-0.058l-1.22-1.394c-0.16-0.203-0.145-0.494 0.044-0.653l2.701-2.338c-0.174-0.29-0.276-0.61-0.276-0.958 2.149-1.815 4.646-5.067 4.646-12.080 0-2.788 2.309-5.837 6.156-6.403-0.073-0.174-0.116-0.363-0.116-0.566 0-0.77 0.624-1.394 1.394-1.394s1.394 0.624 1.394 1.394c0 0.203-0.044 0.392-0.116 0.566 2.497 0.363 4.341 1.771 5.328 3.485l6.069-5.27c0.189-0.16 0.494-0.145 0.653 0.058z"></path>
</svg>
