<?xml version="1.0" encoding="utf-8"?>
<!-- Generated by IcoMoon.io -->
<!DOCTYPE svg PUBLIC "-//W3C//DTD SVG 1.1//EN" "http://www.w3.org/Graphics/SVG/1.1/DTD/svg11.dtd">
<svg version="1.1" xmlns="http://www.w3.org/2000/svg" xmlns:xlink="http://www.w3.org/1999/xlink" width="32" height="32" viewBox="0 0 32 32">
<path d="M11.28 19.098h-3.8c-0.641 0-1.005-0.726-0.617-1.235l2.275-3.038c-0.508-0.242-1.065-0.375-1.658-0.375-2.13 0-3.873 1.743-3.873 3.873s1.743 3.873 3.873 3.873c1.876 0 3.437-1.331 3.8-3.098zM9.029 17.549h2.251c-0.145-0.678-0.46-1.295-0.908-1.791zM14.838 17.549l3.486-4.648h-5.809l-1.198 1.598c0.811 0.799 1.356 1.864 1.525 3.050h1.997zM28.394 18.324c0-2.13-1.743-3.873-3.873-3.873-0.52 0-1.005 0.109-1.465 0.29l2.106 3.147c0.242 0.363 0.145 0.847-0.206 1.077-0.133 0.097-0.29 0.133-0.436 0.133-0.254 0-0.496-0.121-0.641-0.351l-2.106-3.147c-0.69 0.702-1.126 1.658-1.126 2.723 0 2.13 1.743 3.873 3.873 3.873s3.873-1.743 3.873-3.873zM29.943 18.324c0 2.989-2.433 5.422-5.422 5.422s-5.422-2.433-5.422-5.422c0-1.598 0.702-3.038 1.803-4.030l-0.787-1.186-4.272 5.676c-0.145 0.206-0.375 0.315-0.617 0.315h-2.384c-0.375 2.626-2.626 4.648-5.362 4.648-2.989 0-5.422-2.433-5.422-5.422s2.433-5.422 5.422-5.422c0.944 0 1.828 0.242 2.602 0.666l1.658-2.215h-2.711c-0.424 0-0.775-0.351-0.775-0.775s0.351-0.775 0.775-0.775h4.648v1.549h5.265l-1.029-1.549h-2.687c-0.424 0-0.775-0.351-0.775-0.775s0.351-0.775 0.775-0.775h3.098c0.254 0 0.496 0.133 0.641 0.339l3.232 4.841c0.702-0.339 1.489-0.533 2.324-0.533 2.989 0 5.422 2.433 5.422 5.422z"></path>
</svg>
