<?xml version="1.0" encoding="utf-8"?>
<!-- Generated by IcoMoon.io -->
<!DOCTYPE svg PUBLIC "-//W3C//DTD SVG 1.1//EN" "http://www.w3.org/Graphics/SVG/1.1/DTD/svg11.dtd">
<svg version="1.1" xmlns="http://www.w3.org/2000/svg" xmlns:xlink="http://www.w3.org/1999/xlink" width="32" height="32" viewBox="0 0 32 32">
<path d="M12.816 6.449v12.735c0 0.58-0.481 1.061-1.061 1.061v0 9.551c0 0.58-0.481 1.061-1.061 1.061h-8.49c-0.58 0-1.061-0.481-1.061-1.061v-8.49l4.129-14.476c0.066-0.232 0.282-0.381 0.514-0.381h7.031zM18.122 6.449v11.674h-4.245v-11.674h4.245zM30.857 21.306v8.49c0 0.58-0.481 1.061-1.061 1.061h-8.49c-0.58 0-1.061-0.481-1.061-1.061v-9.551c-0.58 0-1.061-0.481-1.061-1.061v-12.735h7.031c0.232 0 0.448 0.149 0.514 0.381zM13.347 1.673v3.714h-5.837v-3.714c0-0.298 0.232-0.531 0.531-0.531h4.775c0.298 0 0.531 0.232 0.531 0.531zM24.49 1.673v3.714h-5.837v-3.714c0-0.298 0.232-0.531 0.531-0.531h4.776c0.298 0 0.531 0.232 0.531 0.531z"></path>
</svg>
