<?xml version="1.0" encoding="utf-8"?>
<!-- Generated by IcoMoon.io -->
<!DOCTYPE svg PUBLIC "-//W3C//DTD SVG 1.1//EN" "http://www.w3.org/Graphics/SVG/1.1/DTD/svg11.dtd">
<svg version="1.1" xmlns="http://www.w3.org/2000/svg" xmlns:xlink="http://www.w3.org/1999/xlink" width="32" height="32" viewBox="0 0 32 32">
<path d="M30.857 24.49v6.367h-29.714v-6.367c1.625 0 2.487-0.73 3.167-1.31 0.564-0.497 0.945-0.813 1.791-0.813s1.21 0.315 1.791 0.813c0.68 0.58 1.526 1.31 3.167 1.31 1.625 0 2.471-0.73 3.167-1.31 0.564-0.497 0.929-0.813 1.774-0.813s1.227 0.315 1.791 0.813c0.68 0.58 1.542 1.31 3.167 1.31s2.487-0.73 3.167-1.31c0.564-0.497 0.945-0.813 1.791-0.813 0.829 0 1.21 0.315 1.774 0.813 0.68 0.58 1.542 1.31 3.167 1.31zM30.857 19.184v3.184c-0.846 0-1.21-0.315-1.791-0.813-0.68-0.58-1.526-1.31-3.151-1.31-1.642 0-2.487 0.73-3.167 1.31-0.58 0.497-0.945 0.813-1.791 0.813s-1.227-0.315-1.791-0.813c-0.68-0.58-1.526-1.31-3.167-1.31-1.625 0-2.471 0.73-3.167 1.31-0.564 0.497-0.929 0.813-1.774 0.813s-1.227-0.315-1.791-0.813c-0.68-0.58-1.542-1.31-3.167-1.31-1.642 0-2.487 0.73-3.167 1.31-0.564 0.497-0.945 0.813-1.791 0.813v-3.184c0-1.758 1.426-3.184 3.184-3.184h1.061v-7.429h4.245v7.429h4.245v-7.429h4.245v7.429h4.245v-7.429h4.245v7.429h1.061c1.758 0 3.184 1.426 3.184 3.184zM9.633 4.857c0 1.758-0.945 2.653-2.122 2.653s-2.122-0.945-2.122-2.122c0-2.056 2.122-1.526 2.122-4.245 0.796 0 2.122 1.957 2.122 3.714zM18.122 4.857c0 1.758-0.945 2.653-2.122 2.653s-2.122-0.945-2.122-2.122c0-2.056 2.122-1.526 2.122-4.245 0.796 0 2.122 1.957 2.122 3.714zM26.612 4.857c0 1.758-0.945 2.653-2.122 2.653s-2.122-0.945-2.122-2.122c0-2.056 2.122-1.526 2.122-4.245 0.796 0 2.122 1.957 2.122 3.714z"></path>
</svg>
