<?xml version="1.0" encoding="utf-8"?>
<!-- Generated by IcoMoon.io -->
<!DOCTYPE svg PUBLIC "-//W3C//DTD SVG 1.1//EN" "http://www.w3.org/Graphics/SVG/1.1/DTD/svg11.dtd">
<svg version="1.1" xmlns="http://www.w3.org/2000/svg" xmlns:xlink="http://www.w3.org/1999/xlink" width="32" height="32" viewBox="0 0 32 32">
<path d="M17.548 15.497c0-1.103-1.354-1.857-2.283-1.296-1.103 0.522-1.103 2.302 0.019 2.766 1.006 0.6 2.418-0.31 2.263-1.47zM19.095 15.188c0.213 1.702-1.122 3.366-2.824 3.521s-3.308-1.238-3.385-2.96c-0.058-1.277 0.735-2.515 1.896-3.037 1.818-0.813 4.063 0.503 4.314 2.476zM22.423 7.624c-0.851 0.871-2.147 0.987-3.289 1.122-2.070 0.271-4.179 0.252-6.268 0-1.141-0.155-2.399-0.29-3.289-1.122 0.542-0.774 1.509-0.929 2.379-1.064 2.612-0.464 5.281-0.445 7.893-0.019 0.929 0.135 1.973 0.29 2.573 1.083zM23.235 22.055c0-0.464 0.484-1.257-0.174-1.451-4.159 2.747-9.963 2.747-14.141 0l-0.232 0.116-0.097 0.232c0.232 1.354 0.445 2.728 0.793 4.063 0.793 1.373 2.496 1.838 3.946 2.089 2.747 0.503 5.784 0.348 8.28-1.025 1.451-0.813 1.219-2.65 1.625-4.024zM25.75 8.649c0.077-0.464 0.174-1.025-0.155-1.451-0.735-0.929-1.896-1.373-2.998-1.702-3.057-0.89-6.287-1.006-9.421-0.696-1.49 0.135-2.979 0.387-4.372 0.89-1.045 0.406-2.457 0.948-2.631 2.186 0.348 2.902 0.909 5.746 1.393 8.628 0.155 0.813 0.155 1.78 0.89 2.36 1.567 1.199 3.56 1.722 5.494 1.935 2.863 0.31 5.9 0.097 8.512-1.219 0.735-0.387 1.586-0.89 1.741-1.78 0.542-3.037 1.064-6.074 1.548-9.15zM30.857 6.714v18.571c0 3.076-2.496 5.571-5.571 5.571h-18.571c-3.076 0-5.571-2.496-5.571-5.571v-18.571c0-3.076 2.496-5.571 5.571-5.571h18.571c3.076 0 5.571 2.496 5.571 5.571z"></path>
</svg>
