<?xml version="1.0" encoding="utf-8"?>
<!-- Generated by IcoMoon.io -->
<!DOCTYPE svg PUBLIC "-//W3C//DTD SVG 1.1//EN" "http://www.w3.org/Graphics/SVG/1.1/DTD/svg11.dtd">
<svg version="1.1" xmlns="http://www.w3.org/2000/svg" xmlns:xlink="http://www.w3.org/1999/xlink" width="32" height="32" viewBox="0 0 32 32">
<path d="M17.99 15.274c0.197 1.506-1.632 2.69-2.905 1.919-1.435-0.628-1.435-2.905-0.036-3.551 1.201-0.735 2.941 0.233 2.941 1.632zM19.98 14.897c-0.323-2.546-3.21-4.232-5.559-3.174-1.488 0.664-2.493 2.242-2.421 3.909 0.090 2.188 2.17 3.981 4.358 3.784s3.891-2.331 3.622-4.519zM24.266 5.178c-0.789-1.040-2.134-1.219-3.318-1.417-3.353-0.538-6.796-0.556-10.15 0.036-1.112 0.179-2.367 0.377-3.066 1.381 1.148 1.076 2.78 1.237 4.25 1.417 2.654 0.341 5.38 0.359 8.034 0.018 1.488-0.179 3.138-0.323 4.25-1.435zM25.288 23.738c-0.502 1.757-0.215 4.125-2.080 5.147-3.21 1.775-7.101 1.973-10.634 1.345-1.865-0.341-4.053-0.933-5.075-2.69-0.448-1.721-0.735-3.479-1.022-5.236l0.108-0.287 0.323-0.161c5.344 3.533 12.822 3.533 18.184 0 0.843 0.251 0.215 1.273 0.197 1.883zM28.534 6.505c-0.61 3.927-1.309 7.837-1.991 11.746-0.197 1.148-1.309 1.793-2.242 2.277-3.353 1.686-7.263 1.973-10.939 1.578-2.493-0.269-5.039-0.933-7.065-2.493-0.95-0.735-0.95-1.991-1.13-3.049-0.628-3.676-1.345-7.352-1.793-11.064 0.215-1.614 2.026-2.313 3.371-2.815 1.793-0.664 3.712-0.968 5.613-1.148 4.053-0.395 8.195-0.251 12.122 0.897 1.399 0.412 2.905 0.986 3.855 2.188 0.43 0.556 0.287 1.255 0.197 1.883z"></path>
</svg>
