<?xml version="1.0" encoding="utf-8"?>
<!-- Generated by IcoMoon.io -->
<!DOCTYPE svg PUBLIC "-//W3C//DTD SVG 1.1//EN" "http://www.w3.org/Graphics/SVG/1.1/DTD/svg11.dtd">
<svg version="1.1" xmlns="http://www.w3.org/2000/svg" xmlns:xlink="http://www.w3.org/1999/xlink" width="32" height="32" viewBox="0 0 32 32">
<path d="M10.473 6.234c-1.408 0-2.554-1.146-2.554-2.554 0-1.392 1.146-2.538 2.554-2.538s2.538 1.146 2.538 2.538c0 1.408-1.13 2.554-2.538 2.554zM19.494 16.745c0 1.768-1.883 1.375-2.308 0.655l-6.008-7.171c-0.262-0.426-0.458-0.229-0.458-0.229s-0.115 0.131 0.066 0.344l1.997 2.276 0.016 5.796c-1.408 4.093-2.636 7.482-2.636 7.482-0.769 2.194-1.408 4.093-1.965 4.355-0.671 0.344-1.162 0.262-1.686 0.016-0.688-0.311-0.884-1.146-0.835-1.637 0 0 0.033-0.262 3.225-10.118l0.082-6.811-1.392 2.685 0.573 3.634c0.213 1.375-0.95 1.555-0.95 1.555-1.113 0.18-1.342-1.113-1.342-1.146l-0.753-4.895c3.438-6.205 3.454-6.238 3.454-6.238v0c0.262-0.393 0.851-0.557 1.85-0.557 0.884 0 1.441 0.262 1.752 0.655v0l6.942 8.53c0.098 0.066 0.164 0.164 0.229 0.278l0.049 0.049-0.016 0.016c0.082 0.147 0.115 0.311 0.115 0.475zM12.896 19.201c1.572 4.175 2.98 7.334 2.98 7.334 0.475 1.212 1.293 2.947 0.098 3.634-1.179 0.688-2.128-0.115-2.39-0.671v0h-0.016c-0.049-0.131-0.098-0.262-0.131-0.409l-2.030-5.746zM26.386 28.893c0.344 0.54 0.639 0.933 0.458 1.048-0.311 0.196-0.409-0.377-0.753-0.933 0 0-1.85-2.8-6.925-10.822 0.098 0.033 0.278-0.115 0.278-0.115s0.18-0.147 0.18-0.278c5.042 8.235 6.761 11.1 6.761 11.1z"></path>
</svg>
