<?xml version="1.0" encoding="utf-8"?>
<!-- Generated by IcoMoon.io -->
<!DOCTYPE svg PUBLIC "-//W3C//DTD SVG 1.1//EN" "http://www.w3.org/Graphics/SVG/1.1/DTD/svg11.dtd">
<svg version="1.1" xmlns="http://www.w3.org/2000/svg" xmlns:xlink="http://www.w3.org/1999/xlink" width="32" height="32" viewBox="0 0 32 32">
<path d="M17.21 18.603l2.454 2.454-2.471 2.471zM17.194 8.472l2.471 2.471-2.454 2.454-0.017-4.925zM15.038 28.768l7.694-7.694-5.074-5.074 5.074-5.074-7.694-7.694v10.131l-4.228-4.228-1.542 1.542 5.306 5.323-5.306 5.323 1.542 1.542 4.228-4.228v10.131zM26.96 16c0 11.773-4.477 14.857-10.96 14.857v0c-6.483 0-10.96-3.084-10.96-14.857s4.477-14.857 10.96-14.857 10.96 3.084 10.96 14.857z"></path>
</svg>
