<?xml version="1.0" encoding="utf-8"?>
<!-- Generated by IcoMoon.io -->
<!DOCTYPE svg PUBLIC "-//W3C//DTD SVG 1.1//EN" "http://www.w3.org/Graphics/SVG/1.1/DTD/svg11.dtd">
<svg version="1.1" xmlns="http://www.w3.org/2000/svg" xmlns:xlink="http://www.w3.org/1999/xlink" width="32" height="32" viewBox="0 0 32 32">
<path d="M13.118 28.091c0.851 0.368 1.78 0.619 2.708 0.619 4.411 0 7.274-1.76 7.274-6.481 0-1.199-0.155-2.457-0.793-3.482-1.799-2.902-4.391-3.057-7.506-3.057-0.58 0-1.412 0-1.954 0.193 0 2.051-0.019 4.101-0.019 6.132 0 1.335-0.174 4.952 0.29 6.074zM12.847 13.659c0.696 0.116 1.412 0.135 2.109 0.135 3.985 0 6.829-1.122 6.829-5.591 0-3.772-3.347-5.068-6.577-5.068-0.851 0-1.683 0.116-2.515 0.252 0 1.954 0.155 3.908 0.155 5.862 0 1.025-0.019 2.051-0.019 3.076 0 0.445 0 0.89 0.019 1.335zM2.381 30.857l0.039-1.818c1.238-0.31 2.496-0.329 3.695-0.832 0.677-1.141 0.58-3.153 0.58-4.449 0-0.426 0.039-18.92-0.426-19.829-0.29-0.561-3.134-0.696-3.772-0.774l-0.077-1.606c4.604-0.077 9.208-0.406 13.793-0.406 0.871 0 1.76 0.019 2.631 0.019 4.372 0 9.189 2.089 9.189 7.119 0 3.463-2.631 4.759-5.359 5.997 3.676 0.832 6.945 3.327 6.945 7.39 0 6.655-6.055 8.86-11.723 8.86-1.702 0-3.405-0.116-5.107-0.116-3.463 0-6.964 0.31-10.408 0.445z"></path>
</svg>
