<?xml version="1.0" encoding="utf-8"?>
<!-- Generated by IcoMoon.io -->
<!DOCTYPE svg PUBLIC "-//W3C//DTD SVG 1.1//EN" "http://www.w3.org/Graphics/SVG/1.1/DTD/svg11.dtd">
<svg version="1.1" xmlns="http://www.w3.org/2000/svg" xmlns:xlink="http://www.w3.org/1999/xlink" width="32" height="32" viewBox="0 0 32 32">
<path d="M10.611 10.909c-0.216-0.547-0.829-0.796-1.376-0.58-2.388 0.962-4.311 2.885-5.273 5.273-0.216 0.547 0.033 1.161 0.58 1.376 0.133 0.050 0.265 0.083 0.398 0.083 0.431 0 0.813-0.249 0.995-0.663 0.746-1.857 2.239-3.349 4.096-4.096 0.547-0.232 0.813-0.846 0.58-1.393zM26.231 5.006l0.763 0.763-4.046 4.029 1.128 1.128c0.415 0.415 0.415 1.094 0 1.509l-1.061 1.061c0.929 1.675 1.476 3.615 1.476 5.688 0 6.45-5.223 11.673-11.673 11.673s-11.673-5.223-11.673-11.673 5.223-11.673 11.673-11.673c2.073 0 4.013 0.547 5.687 1.476l1.061-1.061c0.415-0.415 1.094-0.415 1.509 0l1.128 1.128zM26.364 4.078c-0.099 0.099-0.232 0.166-0.365 0.166-0.149 0-0.282-0.066-0.381-0.166l-1.509-1.492c-0.199-0.216-0.199-0.547 0-0.763 0.216-0.199 0.547-0.199 0.763 0l1.492 1.509c0.216 0.199 0.216 0.547 0 0.746zM30.177 7.892c-0.116 0.099-0.249 0.149-0.381 0.149s-0.265-0.050-0.381-0.149l-1.492-1.509c-0.216-0.199-0.216-0.547 0-0.746 0.199-0.216 0.547-0.216 0.746 0l1.509 1.492c0.199 0.216 0.199 0.547 0 0.763zM30.857 4.857c0 0.298-0.232 0.531-0.531 0.531h-1.592c-0.298 0-0.531-0.232-0.531-0.531s0.232-0.531 0.531-0.531h1.592c0.298 0 0.531 0.232 0.531 0.531zM27.674 1.673v1.592c0 0.298-0.232 0.531-0.531 0.531s-0.531-0.232-0.531-0.531v-1.592c0-0.298 0.232-0.531 0.531-0.531s0.531 0.232 0.531 0.531zM30.177 2.585l-1.509 1.492c-0.099 0.099-0.232 0.166-0.365 0.166-0.149 0-0.282-0.066-0.381-0.166-0.216-0.199-0.216-0.547 0-0.746l1.492-1.509c0.216-0.199 0.547-0.199 0.763 0 0.199 0.216 0.199 0.547 0 0.763z"></path>
</svg>
