<?xml version="1.0" encoding="utf-8"?>
<!-- Generated by IcoMoon.io -->
<!DOCTYPE svg PUBLIC "-//W3C//DTD SVG 1.1//EN" "http://www.w3.org/Graphics/SVG/1.1/DTD/svg11.dtd">
<svg version="1.1" xmlns="http://www.w3.org/2000/svg" xmlns:xlink="http://www.w3.org/1999/xlink" width="32" height="32" viewBox="0 0 32 32">
<path d="M26.055 3.657h-20.111v24.392l10.055-9.643 1.748 1.669 8.307 7.974v-24.392zM26.291 1.143c0.295 0 0.589 0.059 0.864 0.177 0.864 0.334 1.414 1.139 1.414 2.023v25.315c0 0.884-0.55 1.689-1.414 2.023-0.275 0.118-0.57 0.157-0.864 0.157-0.609 0-1.178-0.216-1.63-0.628l-8.661-8.327-8.661 8.327c-0.452 0.412-1.021 0.648-1.63 0.648-0.295 0-0.589-0.059-0.864-0.177-0.864-0.334-1.414-1.139-1.414-2.023v-25.315c0-0.884 0.55-1.689 1.414-2.023 0.275-0.118 0.57-0.177 0.864-0.177h20.582z"></path>
</svg>
