<?xml version="1.0" encoding="utf-8"?>
<!-- Generated by IcoMoon.io -->
<!DOCTYPE svg PUBLIC "-//W3C//DTD SVG 1.1//EN" "http://www.w3.org/Graphics/SVG/1.1/DTD/svg11.dtd">
<svg version="1.1" xmlns="http://www.w3.org/2000/svg" xmlns:xlink="http://www.w3.org/1999/xlink" width="32" height="32" viewBox="0 0 32 32">
<path d="M4.278 20.605c-1.151 0-2.093 0.942-2.093 2.093s0.942 2.093 2.093 2.093 2.093-0.942 2.093-2.093-0.942-2.093-2.093-2.093zM10.976 20.605c-1.151 0-2.093 0.942-2.093 2.093s0.942 2.093 2.093 2.093 2.093-0.942 2.093-2.093-0.942-2.093-2.093-2.093zM10.976 13.907c-1.151 0-2.093 0.942-2.093 2.093s0.942 2.093 2.093 2.093 2.093-0.942 2.093-2.093-0.942-2.093-2.093-2.093zM21.024 20.605c-1.151 0-2.093 0.942-2.093 2.093s0.942 2.093 2.093 2.093 2.093-0.942 2.093-2.093-0.942-2.093-2.093-2.093zM27.722 20.605c-1.151 0-2.093 0.942-2.093 2.093s0.942 2.093 2.093 2.093 2.093-0.942 2.093-2.093-0.942-2.093-2.093-2.093zM21.024 13.907c-1.151 0-2.093 0.942-2.093 2.093s0.942 2.093 2.093 2.093 2.093-0.942 2.093-2.093-0.942-2.093-2.093-2.093zM27.722 13.907c-1.151 0-2.093 0.942-2.093 2.093s0.942 2.093 2.093 2.093 2.093-0.942 2.093-2.093-0.942-2.093-2.093-2.093zM27.722 7.209c-1.151 0-2.093 0.942-2.093 2.093s0.942 2.093 2.093 2.093 2.093-0.942 2.093-2.093-0.942-2.093-2.093-2.093zM6.79 22.698c0 1.387-1.125 2.512-2.512 2.512s-2.512-1.125-2.512-2.512 1.125-2.512 2.512-2.512v0c1.387 0 2.512 1.125 2.512 2.512zM13.488 22.698c0 1.387-1.125 2.512-2.512 2.512s-2.512-1.125-2.512-2.512 1.125-2.512 2.512-2.512v0c1.387 0 2.512 1.125 2.512 2.512zM6.79 16c0 1.387-1.125 2.512-2.512 2.512s-2.512-1.125-2.512-2.512 1.125-2.512 2.512-2.512 2.512 1.125 2.512 2.512zM13.488 16c0 1.387-1.125 2.512-2.512 2.512s-2.512-1.125-2.512-2.512 1.125-2.512 2.512-2.512v0c1.387 0 2.512 1.125 2.512 2.512zM6.79 9.302c0 1.387-1.125 2.512-2.512 2.512s-2.512-1.125-2.512-2.512 1.125-2.512 2.512-2.512 2.512 1.125 2.512 2.512zM23.535 22.698c0 1.387-1.125 2.512-2.512 2.512s-2.512-1.125-2.512-2.512 1.125-2.512 2.512-2.512v0c1.387 0 2.512 1.125 2.512 2.512zM13.488 9.302c0 1.387-1.125 2.512-2.512 2.512s-2.512-1.125-2.512-2.512 1.125-2.512 2.512-2.512 2.512 1.125 2.512 2.512zM30.234 22.698c0 1.387-1.125 2.512-2.512 2.512s-2.512-1.125-2.512-2.512 1.125-2.512 2.512-2.512v0c1.387 0 2.512 1.125 2.512 2.512zM23.535 16c0 1.387-1.125 2.512-2.512 2.512s-2.512-1.125-2.512-2.512 1.125-2.512 2.512-2.512v0c1.387 0 2.512 1.125 2.512 2.512zM30.234 16c0 1.387-1.125 2.512-2.512 2.512s-2.512-1.125-2.512-2.512 1.125-2.512 2.512-2.512v0c1.387 0 2.512 1.125 2.512 2.512zM23.535 9.302c0 1.387-1.125 2.512-2.512 2.512s-2.512-1.125-2.512-2.512 1.125-2.512 2.512-2.512 2.512 1.125 2.512 2.512zM30.234 9.302c0 1.387-1.125 2.512-2.512 2.512s-2.512-1.125-2.512-2.512 1.125-2.512 2.512-2.512v0c1.387 0 2.512 1.125 2.512 2.512z"></path>
</svg>
