<?xml version="1.0" encoding="utf-8"?>
<!-- Generated by IcoMoon.io -->
<!DOCTYPE svg PUBLIC "-//W3C//DTD SVG 1.1//EN" "http://www.w3.org/Graphics/SVG/1.1/DTD/svg11.dtd">
<svg version="1.1" xmlns="http://www.w3.org/2000/svg" xmlns:xlink="http://www.w3.org/1999/xlink" width="32" height="32" viewBox="0 0 32 32">
<path d="M11.809 7.619h8.381v-2.095h-8.381v2.095zM30.667 18.095v7.857c0 1.441-1.179 2.619-2.619 2.619h-24.095c-1.441 0-2.619-1.179-2.619-2.619v-7.857h11v2.619c0 0.573 0.475 1.048 1.048 1.048h5.238c0.573 0 1.048-0.475 1.048-1.048v-2.619h11zM18.095 18.095v2.095h-4.191v-2.095h4.191zM30.667 10.238v6.286h-29.333v-6.286c0-1.441 1.179-2.619 2.619-2.619h5.762v-2.619c0-0.868 0.704-1.571 1.571-1.571h9.429c0.868 0 1.571 0.704 1.571 1.571v2.619h5.762c1.441 0 2.619 1.179 2.619 2.619z"></path>
</svg>
