<?xml version="1.0" encoding="utf-8"?>
<!-- Generated by IcoMoon.io -->
<!DOCTYPE svg PUBLIC "-//W3C//DTD SVG 1.1//EN" "http://www.w3.org/Graphics/SVG/1.1/DTD/svg11.dtd">
<svg version="1.1" xmlns="http://www.w3.org/2000/svg" xmlns:xlink="http://www.w3.org/1999/xlink" width="32" height="32" viewBox="0 0 32 32">
<path d="M30.834 18.077c0 0.649-0.538 1.187-1.187 1.187h-4.153c0 2.318-0.501 4.061-1.242 5.377l3.857 3.875c0.464 0.464 0.464 1.205 0 1.669-0.223 0.241-0.538 0.352-0.834 0.352s-0.612-0.111-0.834-0.352l-3.671-3.653s-2.429 2.225-5.581 2.225v-16.614h-2.373v16.614c-3.356 0-5.804-2.448-5.804-2.448l-3.393 3.838c-0.241 0.26-0.556 0.389-0.89 0.389-0.278 0-0.556-0.093-0.797-0.297-0.482-0.445-0.519-1.187-0.093-1.687l3.746-4.209c-0.649-1.279-1.075-2.93-1.075-5.081h-4.153c-0.649 0-1.187-0.538-1.187-1.187s0.538-1.187 1.187-1.187h4.153v-5.451l-3.208-3.208c-0.464-0.464-0.464-1.205 0-1.669s1.205-0.464 1.669 0l3.208 3.208h15.65l3.208-3.208c0.464-0.464 1.205-0.464 1.669 0s0.464 1.205 0 1.669l-3.208 3.208v5.451h4.153c0.649 0 1.187 0.538 1.187 1.187zM21.933 7.396h-11.867c0-3.282 2.652-5.934 5.934-5.934s5.934 2.652 5.934 5.934z"></path>
</svg>
