<?xml version="1.0" encoding="utf-8"?>
<!-- Generated by IcoMoon.io -->
<!DOCTYPE svg PUBLIC "-//W3C//DTD SVG 1.1//EN" "http://www.w3.org/Graphics/SVG/1.1/DTD/svg11.dtd">
<svg version="1.1" xmlns="http://www.w3.org/2000/svg" xmlns:xlink="http://www.w3.org/1999/xlink" width="32" height="32" viewBox="0 0 32 32">
<path d="M26.612 1.143c0.58 0 1.061 0.481 1.061 1.061v27.592c0 0.58-0.481 1.061-1.061 1.061h-21.225c-0.58 0-1.061-0.481-1.061-1.061v-27.592c0-0.58 0.481-1.061 1.061-1.061h21.225zM12.816 5.918v1.061c0 0.298 0.232 0.531 0.531 0.531h1.061c0.298 0 0.531-0.232 0.531-0.531v-1.061c0-0.298-0.232-0.531-0.531-0.531h-1.061c-0.298 0-0.531 0.232-0.531 0.531zM12.816 10.163v1.061c0 0.298 0.232 0.531 0.531 0.531h1.061c0.298 0 0.531-0.232 0.531-0.531v-1.061c0-0.298-0.232-0.531-0.531-0.531h-1.061c-0.298 0-0.531 0.232-0.531 0.531zM12.816 14.408v1.061c0 0.298 0.232 0.531 0.531 0.531h1.061c0.298 0 0.531-0.232 0.531-0.531v-1.061c0-0.298-0.232-0.531-0.531-0.531h-1.061c-0.298 0-0.531 0.232-0.531 0.531zM12.816 18.653v1.061c0 0.298 0.232 0.531 0.531 0.531h1.061c0.298 0 0.531-0.232 0.531-0.531v-1.061c0-0.298-0.232-0.531-0.531-0.531h-1.061c-0.298 0-0.531 0.232-0.531 0.531zM10.694 23.959v-1.061c0-0.298-0.232-0.531-0.531-0.531h-1.061c-0.298 0-0.531 0.232-0.531 0.531v1.061c0 0.298 0.232 0.531 0.531 0.531h1.061c0.298 0 0.531-0.232 0.531-0.531zM10.694 19.714v-1.061c0-0.298-0.232-0.531-0.531-0.531h-1.061c-0.298 0-0.531 0.232-0.531 0.531v1.061c0 0.298 0.232 0.531 0.531 0.531h1.061c0.298 0 0.531-0.232 0.531-0.531zM10.694 15.469v-1.061c0-0.298-0.232-0.531-0.531-0.531h-1.061c-0.298 0-0.531 0.232-0.531 0.531v1.061c0 0.298 0.232 0.531 0.531 0.531h1.061c0.298 0 0.531-0.232 0.531-0.531zM10.694 11.225v-1.061c0-0.298-0.232-0.531-0.531-0.531h-1.061c-0.298 0-0.531 0.232-0.531 0.531v1.061c0 0.298 0.232 0.531 0.531 0.531h1.061c0.298 0 0.531-0.232 0.531-0.531zM10.694 6.98v-1.061c0-0.298-0.232-0.531-0.531-0.531h-1.061c-0.298 0-0.531 0.232-0.531 0.531v1.061c0 0.298 0.232 0.531 0.531 0.531h1.061c0.298 0 0.531-0.232 0.531-0.531zM19.184 28.204v-3.184c0-0.298-0.232-0.531-0.531-0.531h-5.306c-0.298 0-0.531 0.232-0.531 0.531v3.184c0 0.298 0.232 0.531 0.531 0.531h5.306c0.298 0 0.531-0.232 0.531-0.531zM19.184 19.714v-1.061c0-0.298-0.232-0.531-0.531-0.531h-1.061c-0.298 0-0.531 0.232-0.531 0.531v1.061c0 0.298 0.232 0.531 0.531 0.531h1.061c0.298 0 0.531-0.232 0.531-0.531zM19.184 15.469v-1.061c0-0.298-0.232-0.531-0.531-0.531h-1.061c-0.298 0-0.531 0.232-0.531 0.531v1.061c0 0.298 0.232 0.531 0.531 0.531h1.061c0.298 0 0.531-0.232 0.531-0.531zM19.184 11.225v-1.061c0-0.298-0.232-0.531-0.531-0.531h-1.061c-0.298 0-0.531 0.232-0.531 0.531v1.061c0 0.298 0.232 0.531 0.531 0.531h1.061c0.298 0 0.531-0.232 0.531-0.531zM19.184 6.98v-1.061c0-0.298-0.232-0.531-0.531-0.531h-1.061c-0.298 0-0.531 0.232-0.531 0.531v1.061c0 0.298 0.232 0.531 0.531 0.531h1.061c0.298 0 0.531-0.232 0.531-0.531zM23.429 23.959v-1.061c0-0.298-0.232-0.531-0.531-0.531h-1.061c-0.298 0-0.531 0.232-0.531 0.531v1.061c0 0.298 0.232 0.531 0.531 0.531h1.061c0.298 0 0.531-0.232 0.531-0.531zM23.429 19.714v-1.061c0-0.298-0.232-0.531-0.531-0.531h-1.061c-0.298 0-0.531 0.232-0.531 0.531v1.061c0 0.298 0.232 0.531 0.531 0.531h1.061c0.298 0 0.531-0.232 0.531-0.531zM23.429 15.469v-1.061c0-0.298-0.232-0.531-0.531-0.531h-1.061c-0.298 0-0.531 0.232-0.531 0.531v1.061c0 0.298 0.232 0.531 0.531 0.531h1.061c0.298 0 0.531-0.232 0.531-0.531zM23.429 11.225v-1.061c0-0.298-0.232-0.531-0.531-0.531h-1.061c-0.298 0-0.531 0.232-0.531 0.531v1.061c0 0.298 0.232 0.531 0.531 0.531h1.061c0.298 0 0.531-0.232 0.531-0.531zM23.429 6.98v-1.061c0-0.298-0.232-0.531-0.531-0.531h-1.061c-0.298 0-0.531 0.232-0.531 0.531v1.061c0 0.298 0.232 0.531 0.531 0.531h1.061c0.298 0 0.531-0.232 0.531-0.531z"></path>
</svg>
