<?xml version="1.0" encoding="utf-8"?>
<!-- Generated by IcoMoon.io -->
<!DOCTYPE svg PUBLIC "-//W3C//DTD SVG 1.1//EN" "http://www.w3.org/Graphics/SVG/1.1/DTD/svg11.dtd">
<svg version="1.1" xmlns="http://www.w3.org/2000/svg" xmlns:xlink="http://www.w3.org/1999/xlink" width="32" height="32" viewBox="0 0 32 32">
<path d="M28.59 11.59c1.164 0 2.098 0.934 2.098 2.098s-0.934 2.098-2.098 2.098v6.295c0 1.148-0.951 2.098-2.098 2.098-2.918-2.426-7.623-5.754-13.312-6.23-1.951 0.656-2.623 2.934-1.344 4.246-1.148 1.885 0.328 3.213 2.066 4.574-1.016 2-5.246 2.033-6.754 0.639-0.951-2.918-2.361-5.836-1.213-9.525h-2c-1.443 0-2.623-1.18-2.623-2.623v-3.148c0-1.443 1.18-2.623 2.623-2.623h7.869c6.295 0 11.541-3.672 14.689-6.295 1.148 0 2.098 0.951 2.098 2.098v6.295zM26.492 21.492v-15.64c-4.279 3.279-8.426 5.164-12.59 5.623v4.426c4.164 0.459 8.312 2.312 12.59 5.59z"></path>
</svg>
