<?xml version="1.0" encoding="utf-8"?>
<!-- Generated by IcoMoon.io -->
<!DOCTYPE svg PUBLIC "-//W3C//DTD SVG 1.1//EN" "http://www.w3.org/Graphics/SVG/1.1/DTD/svg11.dtd">
<svg version="1.1" xmlns="http://www.w3.org/2000/svg" xmlns:xlink="http://www.w3.org/1999/xlink" width="32" height="32" viewBox="0 0 32 32">
<path d="M9.633 21.306c0-1.177-0.945-2.122-2.122-2.122s-2.122 0.945-2.122 2.122 0.945 2.122 2.122 2.122 2.122-0.945 2.122-2.122zM26.612 21.306c0-1.177-0.945-2.122-2.122-2.122s-2.122 0.945-2.122 2.122 0.945 2.122 2.122 2.122 2.122-0.945 2.122-2.122zM25.85 14.74l-1.194-6.367c-0.099-0.497-0.531-0.862-1.045-0.862h-15.222c-0.514 0-0.945 0.365-1.045 0.862l-1.194 6.367c-0.116 0.663 0.381 1.26 1.045 1.26h17.61c0.663 0 1.161-0.597 1.045-1.26zM22.102 4.592c0-0.448-0.348-0.796-0.796-0.796h-10.612c-0.431 0-0.796 0.348-0.796 0.796s0.365 0.796 0.796 0.796h10.612c0.448 0 0.796-0.348 0.796-0.796zM28.735 16.614v9.999h-2.122v2.122c0 1.177-0.945 2.122-2.122 2.122s-2.122-0.945-2.122-2.122v-2.122h-12.735v2.122c0 1.177-0.945 2.122-2.122 2.122s-2.122-0.945-2.122-2.122v-2.122h-2.122v-9.999c0-1.36 0.116-2.371 0.415-3.698l1.708-7.528c0.315-2.653 4.958-4.245 10.612-4.245s10.297 1.592 10.612 4.245l1.741 7.528c0.298 1.327 0.381 2.338 0.381 3.698z"></path>
</svg>
