<?xml version="1.0" encoding="utf-8"?>
<!-- Generated by IcoMoon.io -->
<!DOCTYPE svg PUBLIC "-//W3C//DTD SVG 1.1//EN" "http://www.w3.org/Graphics/SVG/1.1/DTD/svg11.dtd">
<svg version="1.1" xmlns="http://www.w3.org/2000/svg" xmlns:xlink="http://www.w3.org/1999/xlink" width="32" height="32" viewBox="0 0 32 32">
<path d="M27.48 16c1.779 0 3.214 1.435 3.214 3.214v5.51c0 0.258-0.201 0.459-0.459 0.459h-1.378v0.918c0 1.521-1.234 2.755-2.755 2.755s-2.755-1.234-2.755-2.755v-0.918h-14.694v0.918c0 1.521-1.234 2.755-2.755 2.755s-2.755-1.234-2.755-2.755v-0.918h-1.378c-0.258 0-0.459-0.201-0.459-0.459v-5.51c0-1.779 1.435-3.214 3.214-3.214h0.402l1.507-6.012c0.445-1.808 2.195-3.171 4.061-3.171h1.837v-3.214c0-0.258 0.201-0.459 0.459-0.459h6.429c0.258 0 0.459 0.201 0.459 0.459v3.214h1.837c1.865 0 3.616 1.363 4.061 3.171l1.507 6.012h0.402zM5.898 22.888c1.263 0 2.296-1.033 2.296-2.296s-1.033-2.296-2.296-2.296-2.296 1.033-2.296 2.296 1.033 2.296 2.296 2.296zM8.71 16h14.579l-1.277-5.123c-0.043-0.158-0.33-0.387-0.502-0.387h-11.020c-0.172 0-0.459 0.23-0.502 0.387zM26.102 22.888c1.263 0 2.296-1.033 2.296-2.296s-1.033-2.296-2.296-2.296-2.296 1.033-2.296 2.296 1.033 2.296 2.296 2.296z"></path>
</svg>
