<?xml version="1.0" encoding="utf-8"?>
<!-- Generated by IcoMoon.io -->
<!DOCTYPE svg PUBLIC "-//W3C//DTD SVG 1.1//EN" "http://www.w3.org/Graphics/SVG/1.1/DTD/svg11.dtd">
<svg version="1.1" xmlns="http://www.w3.org/2000/svg" xmlns:xlink="http://www.w3.org/1999/xlink" width="32" height="32" viewBox="0 0 32 32">
<path d="M8.571 26.612c0-1.177-0.945-2.122-2.122-2.122s-2.122 0.945-2.122 2.122 0.945 2.122 2.122 2.122 2.122-0.945 2.122-2.122zM14.939 26.612c0-1.177-0.945-2.122-2.122-2.122s-2.122 0.945-2.122 2.122 0.945 2.122 2.122 2.122 2.122-0.945 2.122-2.122zM8.571 20.245c0-1.177-0.945-2.122-2.122-2.122s-2.122 0.945-2.122 2.122 0.945 2.122 2.122 2.122 2.122-0.945 2.122-2.122zM21.306 26.612c0-1.177-0.945-2.122-2.122-2.122s-2.122 0.945-2.122 2.122 0.945 2.122 2.122 2.122 2.122-0.945 2.122-2.122zM14.939 20.245c0-1.177-0.945-2.122-2.122-2.122s-2.122 0.945-2.122 2.122 0.945 2.122 2.122 2.122 2.122-0.945 2.122-2.122zM8.571 13.878c0-1.177-0.945-2.122-2.122-2.122s-2.122 0.945-2.122 2.122 0.945 2.122 2.122 2.122 2.122-0.945 2.122-2.122zM21.306 20.245c0-1.177-0.945-2.122-2.122-2.122s-2.122 0.945-2.122 2.122 0.945 2.122 2.122 2.122 2.122-0.945 2.122-2.122zM14.939 13.878c0-1.177-0.945-2.122-2.122-2.122s-2.122 0.945-2.122 2.122 0.945 2.122 2.122 2.122 2.122-0.945 2.122-2.122zM27.673 26.612v-6.367c0-1.161-0.962-2.122-2.122-2.122v0c-1.161 0-2.122 0.962-2.122 2.122v6.367c0 1.161 0.962 2.122 2.122 2.122v0c1.161 0 2.122-0.962 2.122-2.122zM21.306 13.878c0-1.177-0.945-2.122-2.122-2.122s-2.122 0.945-2.122 2.122 0.945 2.122 2.122 2.122 2.122-0.945 2.122-2.122zM27.673 8.571v-4.245c0-0.58-0.481-1.061-1.061-1.061h-21.224c-0.58 0-1.061 0.481-1.061 1.061v4.245c0 0.58 0.481 1.061 1.061 1.061h21.224c0.58 0 1.061-0.481 1.061-1.061zM27.673 13.878c0-1.177-0.945-2.122-2.122-2.122s-2.122 0.945-2.122 2.122 0.945 2.122 2.122 2.122 2.122-0.945 2.122-2.122zM29.796 3.265v25.469c0 1.161-0.962 2.122-2.122 2.122h-23.347c-1.161 0-2.122-0.962-2.122-2.122v-25.469c0-1.161 0.962-2.122 2.122-2.122h23.347c1.161 0 2.122 0.962 2.122 2.122z"></path>
</svg>
