<?xml version="1.0" encoding="utf-8"?>
<!-- Generated by IcoMoon.io -->
<!DOCTYPE svg PUBLIC "-//W3C//DTD SVG 1.1//EN" "http://www.w3.org/Graphics/SVG/1.1/DTD/svg11.dtd">
<svg version="1.1" xmlns="http://www.w3.org/2000/svg" xmlns:xlink="http://www.w3.org/1999/xlink" width="32" height="32" viewBox="0 0 32 32">
<path d="M4.327 28.735h4.776v-4.776h-4.776v4.776zM10.163 28.735h5.306v-4.776h-5.306v4.776zM4.327 22.898h4.776v-5.306h-4.776v5.306zM10.163 22.898h5.306v-5.306h-5.306v5.306zM4.327 16.531h4.776v-4.776h-4.776v4.776zM16.531 28.735h5.306v-4.776h-5.306v4.776zM10.163 16.531h5.306v-4.776h-5.306v4.776zM22.898 28.735h4.776v-4.776h-4.776v4.776zM16.531 22.898h5.306v-5.306h-5.306v5.306zM10.694 8.571v-4.776c0-0.282-0.249-0.531-0.531-0.531h-1.061c-0.282 0-0.531 0.249-0.531 0.531v4.776c0 0.282 0.249 0.531 0.531 0.531h1.061c0.282 0 0.531-0.249 0.531-0.531zM22.898 22.898h4.776v-5.306h-4.776v5.306zM16.531 16.531h5.306v-4.776h-5.306v4.776zM22.898 16.531h4.776v-4.776h-4.776v4.776zM23.429 8.571v-4.776c0-0.282-0.249-0.531-0.531-0.531h-1.061c-0.282 0-0.531 0.249-0.531 0.531v4.776c0 0.282 0.249 0.531 0.531 0.531h1.061c0.282 0 0.531-0.249 0.531-0.531zM29.796 7.51v21.224c0 1.161-0.962 2.122-2.122 2.122h-23.347c-1.161 0-2.122-0.962-2.122-2.122v-21.224c0-1.161 0.962-2.122 2.122-2.122h2.122v-1.592c0-1.459 1.194-2.653 2.653-2.653h1.061c1.459 0 2.653 1.194 2.653 2.653v1.592h6.367v-1.592c0-1.459 1.194-2.653 2.653-2.653h1.061c1.459 0 2.653 1.194 2.653 2.653v1.592h2.122c1.161 0 2.122 0.962 2.122 2.122z"></path>
</svg>
