<?xml version="1.0" encoding="utf-8"?>
<!-- Generated by IcoMoon.io -->
<!DOCTYPE svg PUBLIC "-//W3C//DTD SVG 1.1//EN" "http://www.w3.org/Graphics/SVG/1.1/DTD/svg11.dtd">
<svg version="1.1" xmlns="http://www.w3.org/2000/svg" xmlns:xlink="http://www.w3.org/1999/xlink" width="32" height="32" viewBox="0 0 32 32">
<path d="M27.673 5.388c1.161 0 2.122 0.962 2.122 2.122v21.224c0 1.161-0.962 2.122-2.122 2.122h-23.347c-1.161 0-2.122-0.962-2.122-2.122v-21.224c0-1.161 0.962-2.122 2.122-2.122h2.122v-1.592c0-1.459 1.194-2.653 2.653-2.653h1.061c1.459 0 2.653 1.194 2.653 2.653v1.592h6.367v-1.592c0-1.459 1.194-2.653 2.653-2.653h1.061c1.459 0 2.653 1.194 2.653 2.653v1.592h2.122zM21.306 3.796v4.776c0 0.298 0.232 0.531 0.531 0.531h1.061c0.298 0 0.531-0.232 0.531-0.531v-4.776c0-0.298-0.232-0.531-0.531-0.531h-1.061c-0.298 0-0.531 0.232-0.531 0.531zM8.571 3.796v4.776c0 0.298 0.232 0.531 0.531 0.531h1.061c0.298 0 0.531-0.232 0.531-0.531v-4.776c0-0.298-0.232-0.531-0.531-0.531h-1.061c-0.298 0-0.531 0.232-0.531 0.531zM27.673 28.735v-16.98h-23.347v16.98h23.347zM17.061 19.184h3.714c0.298 0 0.531 0.232 0.531 0.531v1.061c0 0.298-0.232 0.531-0.531 0.531h-3.714v3.714c0 0.298-0.232 0.531-0.531 0.531h-1.061c-0.298 0-0.531-0.232-0.531-0.531v-3.714h-3.714c-0.298 0-0.531-0.232-0.531-0.531v-1.061c0-0.298 0.232-0.531 0.531-0.531h3.714v-3.714c0-0.298 0.232-0.531 0.531-0.531h1.061c0.298 0 0.531 0.232 0.531 0.531v3.714z"></path>
</svg>
