<?xml version="1.0" encoding="utf-8"?>
<!-- Generated by IcoMoon.io -->
<!DOCTYPE svg PUBLIC "-//W3C//DTD SVG 1.1//EN" "http://www.w3.org/Graphics/SVG/1.1/DTD/svg11.dtd">
<svg version="1.1" xmlns="http://www.w3.org/2000/svg" xmlns:xlink="http://www.w3.org/1999/xlink" width="32" height="32" viewBox="0 0 32 32">
<path d="M16 13.553c2.432 0 4.404 1.973 4.404 4.404s-1.973 4.404-4.404 4.404-4.404-1.973-4.404-4.404 1.973-4.404 4.404-4.404zM26.766 7.191c2.156 0 3.915 1.759 3.915 3.915v13.703c0 2.156-1.759 3.915-3.915 3.915h-21.533c-2.156 0-3.915-1.759-3.915-3.915v-13.703c0-2.156 1.759-3.915 3.915-3.915h3.426l0.78-2.080c0.382-1.009 1.575-1.835 2.646-1.835h7.83c1.070 0 2.263 0.826 2.646 1.835l0.78 2.080h3.426zM16 24.809c3.777 0 6.851-3.074 6.851-6.851s-3.074-6.851-6.851-6.851-6.851 3.074-6.851 6.851 3.074 6.851 6.851 6.851z"></path>
</svg>
