<?xml version="1.0" encoding="utf-8"?>
<!-- Generated by IcoMoon.io -->
<!DOCTYPE svg PUBLIC "-//W3C//DTD SVG 1.1//EN" "http://www.w3.org/Graphics/SVG/1.1/DTD/svg11.dtd">
<svg version="1.1" xmlns="http://www.w3.org/2000/svg" xmlns:xlink="http://www.w3.org/1999/xlink" width="32" height="32" viewBox="0 0 32 32">
<path d="M16.524 14.952c0-0.295-0.229-0.524-0.524-0.524-1.441 0-2.619 1.179-2.619 2.619 0 0.295 0.229 0.524 0.524 0.524s0.524-0.229 0.524-0.524c0-0.868 0.704-1.571 1.571-1.571 0.295 0 0.524-0.229 0.524-0.524zM20.191 17.080c0 2.308-1.882 4.191-4.191 4.191s-4.191-1.882-4.191-4.191 1.882-4.191 4.191-4.191 4.191 1.882 4.191 4.191zM3.429 26.476h25.143v-2.095h-25.143v2.095zM22.286 17.080c0-3.47-2.816-6.286-6.286-6.286s-6.286 2.816-6.286 6.286 2.816 6.286 6.286 6.286 6.286-2.816 6.286-6.286zM5.524 6.571h6.286v-2.095h-6.286v2.095zM3.429 9.714h25.143v-4.191h-13.554l-1.048 2.095h-10.542v2.095zM30.667 5.524v20.952c0 1.162-0.933 2.095-2.095 2.095h-25.143c-1.162 0-2.095-0.933-2.095-2.095v-20.952c0-1.162 0.933-2.095 2.095-2.095h25.143c1.162 0 2.095 0.933 2.095 2.095z"></path>
</svg>
