<?xml version="1.0" encoding="utf-8"?>
<!-- Generated by IcoMoon.io -->
<!DOCTYPE svg PUBLIC "-//W3C//DTD SVG 1.1//EN" "http://www.w3.org/Graphics/SVG/1.1/DTD/svg11.dtd">
<svg version="1.1" xmlns="http://www.w3.org/2000/svg" xmlns:xlink="http://www.w3.org/1999/xlink" width="32" height="32" viewBox="0 0 32 32">
<path d="M22.19 16c0 0.406-0.193 0.774-0.522 1.006l-8.667 6.19c-0.368 0.271-0.871 0.31-1.277 0.097-0.426-0.213-0.677-0.638-0.677-1.103v-12.381c0-0.464 0.252-0.89 0.677-1.103 0.406-0.213 0.909-0.174 1.277 0.097l8.667 6.19c0.329 0.232 0.522 0.6 0.522 1.006zM25.905 25.286v-18.571c0-0.348-0.271-0.619-0.619-0.619h-18.571c-0.348 0-0.619 0.271-0.619 0.619v18.571c0 0.348 0.271 0.619 0.619 0.619h18.571c0.348 0 0.619-0.271 0.619-0.619zM30.857 6.714v18.571c0 3.076-2.496 5.571-5.571 5.571h-18.571c-3.076 0-5.571-2.496-5.571-5.571v-18.571c0-3.076 2.496-5.571 5.571-5.571h18.571c3.076 0 5.571 2.496 5.571 5.571z"></path>
</svg>
