<?xml version="1.0" encoding="utf-8"?>
<!-- Generated by IcoMoon.io -->
<!DOCTYPE svg PUBLIC "-//W3C//DTD SVG 1.1//EN" "http://www.w3.org/Graphics/SVG/1.1/DTD/svg11.dtd">
<svg version="1.1" xmlns="http://www.w3.org/2000/svg" xmlns:xlink="http://www.w3.org/1999/xlink" width="32" height="32" viewBox="0 0 32 32">
<path d="M20.952 9.81v12.381c0 0.677-0.561 1.238-1.238 1.238-0.252 0-0.503-0.077-0.716-0.232l-8.667-6.19c-0.329-0.232-0.522-0.6-0.522-1.006 0-0.387 0.193-0.774 0.522-1.006l8.667-6.19c0.213-0.155 0.464-0.232 0.716-0.232 0.677 0 1.238 0.561 1.238 1.238zM25.905 25.286v-18.571c0-0.329-0.29-0.619-0.619-0.619h-18.571c-0.329 0-0.619 0.29-0.619 0.619v18.571c0 0.329 0.29 0.619 0.619 0.619h18.571c0.329 0 0.619-0.29 0.619-0.619zM30.857 6.714v18.571c0 3.076-2.496 5.571-5.571 5.571h-18.571c-3.076 0-5.571-2.496-5.571-5.571v-18.571c0-3.076 2.496-5.571 5.571-5.571h18.571c3.076 0 5.571 2.496 5.571 5.571z"></path>
</svg>
