<?xml version="1.0" encoding="utf-8"?>
<!-- Generated by IcoMoon.io -->
<!DOCTYPE svg PUBLIC "-//W3C//DTD SVG 1.1//EN" "http://www.w3.org/Graphics/SVG/1.1/DTD/svg11.dtd">
<svg version="1.1" xmlns="http://www.w3.org/2000/svg" xmlns:xlink="http://www.w3.org/1999/xlink" width="32" height="32" viewBox="0 0 32 32">
<path d="M23.293 11.725c0.213 0.406 0.174 0.909-0.097 1.277l-6.19 8.667c-0.232 0.329-0.6 0.522-1.006 0.522s-0.774-0.193-1.006-0.522l-6.19-8.667c-0.271-0.368-0.31-0.871-0.097-1.277 0.213-0.426 0.638-0.677 1.103-0.677h12.381c0.464 0 0.89 0.252 1.103 0.677zM25.905 25.286v-18.571c0-0.329-0.29-0.619-0.619-0.619h-18.571c-0.329 0-0.619 0.29-0.619 0.619v18.571c0 0.329 0.29 0.619 0.619 0.619h18.571c0.329 0 0.619-0.29 0.619-0.619zM30.857 6.714v18.571c0 3.076-2.496 5.571-5.571 5.571h-18.571c-3.076 0-5.571-2.496-5.571-5.571v-18.571c0-3.076 2.496-5.571 5.571-5.571h18.571c3.076 0 5.571 2.496 5.571 5.571z"></path>
</svg>
