<?xml version="1.0" encoding="utf-8"?>
<!-- Generated by IcoMoon.io -->
<!DOCTYPE svg PUBLIC "-//W3C//DTD SVG 1.1//EN" "http://www.w3.org/Graphics/SVG/1.1/DTD/svg11.dtd">
<svg version="1.1" xmlns="http://www.w3.org/2000/svg" xmlns:xlink="http://www.w3.org/1999/xlink" width="32" height="32" viewBox="0 0 32 32">
<path d="M23.888 11.493c0-0.616-0.511-1.127-1.127-1.127-0.299 0-0.581 0.123-0.792 0.335l-2.588 2.571v-5.159c0-0.616-0.511-1.127-1.127-1.127s-1.127 0.511-1.127 1.127v5.159l-2.588-2.571c-0.211-0.211-0.493-0.335-0.792-0.335-0.616 0-1.127 0.511-1.127 1.127 0 0.299 0.123 0.581 0.335 0.792l4.508 4.508c0.211 0.211 0.493 0.335 0.792 0.335s0.581-0.123 0.792-0.335l4.508-4.508c0.211-0.211 0.335-0.493 0.335-0.792zM12.619 26.142c0 1.25-1.004 2.254-2.254 2.254s-2.254-1.004-2.254-2.254 1.004-2.254 2.254-2.254 2.254 1.004 2.254 2.254zM28.396 26.142c0 1.25-1.004 2.254-2.254 2.254s-2.254-1.004-2.254-2.254 1.004-2.254 2.254-2.254 2.254 1.004 2.254 2.254zM30.649 6.985v9.015c0 0.563-0.423 1.056-1.004 1.127l-18.382 2.148c0.070 0.387 0.229 0.828 0.229 1.233s-0.246 0.775-0.423 1.127h16.199c0.616 0 1.127 0.511 1.127 1.127s-0.511 1.127-1.127 1.127h-18.030c-0.616 0-1.127-0.511-1.127-1.127 0-0.546 0.828-1.902 1.074-2.412l-3.117-14.491h-3.592c-0.616 0-1.127-0.511-1.127-1.127s0.511-1.127 1.127-1.127h4.508c1.197 0 1.215 1.409 1.391 2.254h21.146c0.616 0 1.127 0.511 1.127 1.127z"></path>
</svg>
