<?xml version="1.0" encoding="utf-8"?>
<!-- Generated by IcoMoon.io -->
<!DOCTYPE svg PUBLIC "-//W3C//DTD SVG 1.1//EN" "http://www.w3.org/Graphics/SVG/1.1/DTD/svg11.dtd">
<svg version="1.1" xmlns="http://www.w3.org/2000/svg" xmlns:xlink="http://www.w3.org/1999/xlink" width="32" height="32" viewBox="0 0 32 32">
<path d="M3.19 13.346h1.104l-0.558-1.339zM10.891 19.869l0.918-0.98-0.868-0.98h-2.021v0.608h1.761v0.682h-1.761v0.67h1.972zM12.85 18.902l1.228 1.364v-2.691zM16.422 18.319c0-0.298-0.223-0.409-0.496-0.409h-1.042v0.856h1.029c0.285 0 0.508-0.136 0.508-0.446zM20.005 18.269c0-0.31-0.273-0.36-0.521-0.36h-1.017v0.756h1.005c0.273 0 0.533-0.062 0.533-0.397zM16.558 12.491c0-0.31-0.273-0.36-0.521-0.36h-1.017v0.744h1.005c0.273 0 0.533-0.062 0.533-0.384zM22.25 13.346h1.104l-0.546-1.339zM10.382 11.424v3.361h-0.818v-2.629l-1.166 2.629h-0.707l-1.166-2.629v2.629h-1.637l-0.31-0.744h-1.674l-0.31 0.744h-0.868l1.438-3.361h1.191l1.364 3.187v-3.187h1.314l1.054 2.282 0.955-2.282h1.339zM17.277 18.319c0 1.352-1.476 1.129-2.393 1.129v1.129h-1.563l-0.992-1.116-1.029 1.116h-3.175v-3.361h3.224l0.992 1.104 1.017-1.104h2.567c0.756 0 1.352 0.26 1.352 1.104zM13.669 14.090v0.694h-2.691v-3.361h2.691v0.707h-1.885v0.608h1.835v0.682h-1.835v0.67h1.885zM30.286 21.022v2.84c0 0.905-0.732 1.662-1.637 1.662h-25.298c-0.905 0-1.637-0.756-1.637-1.662v-8.408h1.376l0.31-0.756h0.682l0.31 0.756h2.703v-0.57l0.236 0.57h1.401l0.248-0.583v0.583h6.709v-1.228l0.124-0.012c0.112 0 0.124 0.087 0.124 0.174v1.066h3.46v-0.285c0.806 0.422 1.91 0.285 2.753 0.285l0.31-0.756h0.694l0.31 0.756h2.815v-0.719l0.422 0.719h2.257v-4.688h-2.232v0.546l-0.31-0.546h-2.294v0.546l-0.285-0.546h-3.088c-0.459 0-0.942 0.050-1.352 0.273v-0.273h-2.133v0.273c-0.248-0.223-0.583-0.273-0.905-0.273h-7.788l-0.533 1.203-0.533-1.203h-2.455v0.546l-0.273-0.546h-2.096l-0.967 2.22v-4.849c0-0.905 0.732-1.662 1.637-1.662h25.298c0.905 0 1.637 0.756 1.637 1.662v8.408h-1.488c-0.347 0-0.719 0.062-1.005 0.273v-0.273h-2.195c-0.31 0-0.732 0.050-0.967 0.273v-0.273h-3.919v0.273c-0.298-0.211-0.732-0.273-1.079-0.273h-2.592v0.273c-0.26-0.248-0.794-0.273-1.129-0.273h-2.902l-0.67 0.719-0.62-0.719h-4.328v4.688h4.254l0.682-0.732 0.645 0.732h2.617v-1.104h0.26c0.372 0 0.756-0.012 1.116-0.161v1.265h2.158v-1.228h0.099c0.124 0 0.149 0.012 0.149 0.149v1.079h6.56c0.36 0 0.806-0.074 1.091-0.298v0.298h2.083c0.397 0 0.818-0.037 1.178-0.211zM20.886 18.121c0 0.372-0.198 0.744-0.57 0.893 0.446 0.161 0.533 0.459 0.533 0.893v0.67h-0.806v-0.558c0-0.57-0.186-0.67-0.719-0.67h-0.856v1.228h-0.806v-3.361h1.91c0.632 0 1.314 0.112 1.314 0.905zM17.451 12.329c0 0.384-0.211 0.756-0.57 0.905 0.459 0.161 0.533 0.446 0.533 0.893v0.657h-0.806c-0.012-0.719 0.174-1.215-0.719-1.215h-0.868v1.215h-0.794v-3.361l1.897 0.012c0.645 0 1.327 0.099 1.327 0.893zM24.011 19.881v0.694h-2.679v-3.361h2.679v0.694h-1.873v0.608h1.835v0.682h-1.835v0.67zM18.728 11.424v3.361h-0.818v-3.361h0.818zM27.322 19.509c0 0.794-0.546 1.067-1.265 1.067h-1.563v-0.719h1.563c0.198 0 0.422-0.050 0.422-0.31 0-0.719-2.071 0.273-2.071-1.327 0-0.682 0.521-1.005 1.141-1.005h1.612v0.707h-1.476c-0.211 0-0.446 0.037-0.446 0.31 0 0.732 2.083-0.335 2.083 1.277zM30.286 18.89v1.252c-0.236 0.347-0.694 0.434-1.091 0.434h-1.55v-0.719h1.55c0.198 0 0.409-0.062 0.409-0.31 0-0.707-2.071 0.273-2.071-1.327 0-0.682 0.533-1.005 1.153-1.005h1.6v0.707h-1.463c-0.223 0-0.446 0.037-0.446 0.31 0 0.595 1.401-0.012 1.91 0.657zM28.24 11.437v3.348h-1.141l-1.513-2.517v2.517h-1.637l-0.322-0.744h-1.662l-0.31 0.744h-0.93c-1.104 0-1.6-0.57-1.6-1.649 0-1.129 0.508-1.711 1.649-1.711h0.781v0.732c-0.843-0.012-1.612-0.198-1.612 0.955 0 0.57 0.136 0.967 0.781 0.967h0.36l1.141-2.641h1.203l1.352 3.175v-3.175h1.228l1.414 2.331v-2.331h0.818z"></path>
</svg>
