<?xml version="1.0" encoding="utf-8"?>
<!-- Generated by IcoMoon.io -->
<!DOCTYPE svg PUBLIC "-//W3C//DTD SVG 1.1//EN" "http://www.w3.org/Graphics/SVG/1.1/DTD/svg11.dtd">
<svg version="1.1" xmlns="http://www.w3.org/2000/svg" xmlns:xlink="http://www.w3.org/1999/xlink" width="32" height="32" viewBox="0 0 32 32">
<path d="M5.596 14.524c0 0.397-0.161 0.781-0.446 1.042-0.248 0.223-0.583 0.322-1.104 0.322h-0.211v-2.728h0.211c0.521 0 0.843 0.087 1.104 0.335 0.285 0.248 0.446 0.632 0.446 1.029zM27.62 13.718c0 0.422-0.273 0.645-0.794 0.645h-0.236v-1.252h0.248c0.508 0 0.781 0.211 0.781 0.608zM6.427 14.524c0-1.215-0.905-2.071-2.22-2.071h-1.178v4.13h1.178c0.62 0 1.079-0.136 1.476-0.471 0.471-0.397 0.744-0.98 0.744-1.587zM6.799 16.583h0.806v-4.13h-0.806v4.13zM10.767 15.33c0-0.657-0.273-0.955-1.191-1.29-0.484-0.174-0.62-0.298-0.62-0.521 0-0.26 0.248-0.459 0.595-0.459 0.248 0 0.446 0.099 0.657 0.335l0.422-0.546c-0.347-0.31-0.769-0.459-1.215-0.459-0.732 0-1.29 0.508-1.29 1.178 0 0.57 0.26 0.868 1.017 1.141 0.31 0.112 0.471 0.174 0.558 0.236 0.161 0.099 0.236 0.248 0.236 0.422 0 0.335-0.26 0.583-0.62 0.583-0.384 0-0.694-0.186-0.88-0.546l-0.521 0.496c0.372 0.546 0.818 0.794 1.426 0.794 0.843 0 1.426-0.558 1.426-1.364zM14.214 16.446v-0.955c-0.322 0.322-0.608 0.459-0.967 0.459-0.818 0-1.389-0.595-1.389-1.426 0-0.794 0.595-1.426 1.352-1.426 0.384 0 0.67 0.136 1.005 0.471v-0.955c-0.347-0.174-0.645-0.248-0.992-0.248-1.215 0-2.195 0.955-2.195 2.158 0 1.215 0.955 2.158 2.183 2.158 0.347 0 0.645-0.062 1.005-0.236zM29.492 23.936v-6.535c-1.984 1.24-8.966 5.208-20.251 7.329h19.457c0.434 0 0.794-0.36 0.794-0.794zM18.939 14.549c0-1.24-1.005-2.245-2.245-2.245s-2.245 1.005-2.245 2.245 1.005 2.245 2.245 2.245 2.245-1.005 2.245-2.245zM20.824 16.694l1.786-4.241h-0.88l-1.116 2.778-1.104-2.778h-0.88l1.761 4.241h0.434zM22.969 16.583h2.282v-0.694h-1.476v-1.116h1.426v-0.694h-1.426v-0.918h1.476v-0.707h-2.282v4.13zM27.818 16.583h0.992l-1.302-1.736c0.608-0.124 0.942-0.533 0.942-1.166 0-0.781-0.533-1.228-1.463-1.228h-1.203v4.13h0.806v-1.649h0.112zM30.286 8.138v15.724c0 0.918-0.732 1.662-1.637 1.662h-25.298c-0.905 0-1.637-0.744-1.637-1.662v-15.724c0-0.918 0.732-1.662 1.637-1.662h25.298c0.905 0 1.637 0.744 1.637 1.662z"></path>
</svg>
