<?xml version="1.0" encoding="utf-8"?>
<!-- Generated by IcoMoon.io -->
<!DOCTYPE svg PUBLIC "-//W3C//DTD SVG 1.1//EN" "http://www.w3.org/Graphics/SVG/1.1/DTD/svg11.dtd">
<svg version="1.1" xmlns="http://www.w3.org/2000/svg" xmlns:xlink="http://www.w3.org/1999/xlink" width="32" height="32" viewBox="0 0 32 32">
<path d="M12.354 20.278v-8.594c-1.724 0.67-2.951 2.344-2.951 4.303s1.228 3.633 2.951 4.291zM18.604 15.988c0-1.959-1.228-3.633-2.951-4.303v8.606c1.724-0.67 2.951-2.344 2.951-4.303zM21.27 15.988c0 4.005-3.249 7.267-7.267 7.267-4.005 0-7.267-3.261-7.267-7.267 0-4.018 3.261-7.267 7.267-7.267 4.018 0 7.267 3.249 7.267 7.267zM26.020 16.074c0-4.737-3.956-8.011-8.296-8.011h-3.733c-4.39 0-8.011 3.274-8.011 8.011 0 4.328 3.621 7.862 8.011 7.862h3.733c4.34 0 8.296-3.534 8.296-7.862zM30.286 8.063v15.873c0 0.868-0.719 1.587-1.587 1.587h-25.397c-0.868 0-1.587-0.719-1.587-1.587v-15.873c0-0.868 0.719-1.587 1.587-1.587h25.397c0.868 0 1.587 0.719 1.587 1.587z"></path>
</svg>
