<?xml version="1.0" encoding="utf-8"?>
<!-- Generated by IcoMoon.io -->
<!DOCTYPE svg PUBLIC "-//W3C//DTD SVG 1.1//EN" "http://www.w3.org/Graphics/SVG/1.1/DTD/svg11.dtd">
<svg version="1.1" xmlns="http://www.w3.org/2000/svg" xmlns:xlink="http://www.w3.org/1999/xlink" width="32" height="32" viewBox="0 0 32 32">
<path d="M25.908 17.265c0 0.446-0.298 0.769-0.67 0.843-0.050 0.012-0.161 0.025-0.223 0.025h-1.897v-1.736h1.897c0.062 0 0.174 0.012 0.223 0.025 0.372 0.074 0.67 0.409 0.67 0.843zM25.685 14.623c0 0.434-0.298 0.719-0.657 0.781-0.037 0.012-0.124 0.012-0.186 0.012h-1.724v-1.6h1.724c0.062 0 0.149 0.012 0.186 0.012 0.36 0.062 0.657 0.36 0.657 0.794zM10.742 16.657v-3.819h-2.827v3.819c0 0.93-0.632 1.625-1.773 1.625-0.967 0-1.922-0.285-2.84-0.732v1.389c1.488 0.409 3.373 0.409 3.373 0.409 3.15 0 4.067-1.203 4.067-2.691zM19.596 18.939v-1.401c-0.645 0.335-1.463 0.657-2.48 0.732-1.786 0.136-2.852-0.732-2.852-2.269s1.066-2.406 2.852-2.269c1.017 0.074 1.823 0.384 2.48 0.719v-1.389c-1.327-0.335-2.579-0.384-2.579-0.384-4.365-0.198-5.605 1.525-5.605 3.323s1.24 3.522 5.605 3.323c0 0 1.252-0.050 2.579-0.384zM28.698 17.513c0-0.918-0.818-1.513-1.885-1.587v-0.037c0.967-0.136 1.5-0.769 1.5-1.501 0-0.942-0.781-1.488-1.835-1.538-0.074 0-0.211-0.012-0.322-0.012h-5.642v6.324h6.089c1.203 0 2.096-0.645 2.096-1.649zM30.286 8.063v15.873c0 0.868-0.719 1.587-1.587 1.587h-25.397c-0.868 0-1.587-0.719-1.587-1.587v-15.873c0-0.868 0.719-1.587 1.587-1.587h25.397c0.868 0 1.587 0.719 1.587 1.587z"></path>
</svg>
