<?xml version="1.0" encoding="utf-8"?>
<!-- Generated by IcoMoon.io -->
<!DOCTYPE svg PUBLIC "-//W3C//DTD SVG 1.1//EN" "http://www.w3.org/Graphics/SVG/1.1/DTD/svg11.dtd">
<svg version="1.1" xmlns="http://www.w3.org/2000/svg" xmlns:xlink="http://www.w3.org/1999/xlink" width="32" height="32" viewBox="0 0 32 32">
<path d="M15.591 9.118c-1.029-0.682-2.245-1.054-3.485-1.054-3.485 0-6.312 2.827-6.312 6.3 0 3.485 2.827 6.312 6.312 6.312 1.24 0 2.455-0.372 3.485-1.054-3.323-2.703-3.299-7.8 0-10.504zM16 9.415c-3.199 2.517-3.212 7.403 0 9.908 3.212-2.505 3.199-7.391 0-9.908zM16.409 9.118c3.286 2.703 3.336 7.812 0 10.504 1.029 0.682 2.257 1.054 3.485 1.054 3.485 0 6.312-2.827 6.312-6.312 0-3.472-2.827-6.3-6.312-6.3-1.24 0-2.455 0.372-3.485 1.054zM25.598 18.071h0.087v-0.037h-0.211v0.037h0.087v0.211h0.037v-0.211zM25.958 18.282h0.050v-0.248h-0.062l-0.074 0.161-0.074-0.161h-0.062v0.248h0.037v-0.186l0.074 0.161h0.050l0.062-0.161v0.186zM25.859 23.738v0.025h-0.062v-0.037h0.062v0.012zM25.859 23.85h0.037l-0.050-0.062c0.025 0 0.025-0.012 0.037-0.012 0.012-0.012 0.012-0.025 0.012-0.037s0-0.025-0.012-0.037c-0.012 0-0.025-0.012-0.050-0.012h-0.074v0.161h0.037v-0.062h0.012zM10.209 23.006c0-0.298 0.186-0.533 0.508-0.533 0.298 0 0.496 0.236 0.496 0.533 0 0.31-0.198 0.533-0.496 0.533-0.322 0-0.508-0.236-0.508-0.533zM16.074 22.461c0.236 0 0.397 0.136 0.434 0.397h-0.868c0.037-0.236 0.186-0.397 0.434-0.397zM20.489 23.006c0-0.298 0.186-0.533 0.496-0.533s0.508 0.236 0.508 0.533c0 0.31-0.198 0.533-0.508 0.533s-0.496-0.236-0.496-0.533zM23.862 23.006c0-0.298 0.198-0.533 0.508-0.533 0.298 0 0.508 0.236 0.508 0.533 0 0.31-0.211 0.533-0.508 0.533-0.31 0-0.508-0.236-0.508-0.533zM25.822 23.899c-0.012 0-0.025 0-0.050-0.012-0.012 0-0.025-0.012-0.037-0.025s-0.025-0.025-0.025-0.037-0.012-0.037-0.012-0.050 0-0.037 0.012-0.050c0-0.025 0.012-0.037 0.025-0.050s0.025-0.012 0.037-0.025 0.037-0.012 0.050-0.012 0.037 0 0.050 0.012 0.037 0.012 0.050 0.025 0.012 0.025 0.025 0.050c0 0.012 0.012 0.025 0.012 0.050 0 0.012-0.012 0.025-0.012 0.050-0.012 0.012-0.012 0.025-0.025 0.037s-0.025 0.025-0.050 0.025c-0.012 0.012-0.025 0.012-0.050 0.012zM9.142 23.85h0.372v-1.054c0-0.397-0.26-0.657-0.67-0.67-0.211 0-0.434 0.062-0.583 0.298-0.112-0.186-0.298-0.298-0.558-0.298-0.174 0-0.347 0.062-0.484 0.248v-0.198h-0.372v1.674h0.372v-0.93c0-0.298 0.161-0.446 0.409-0.446s0.372 0.161 0.372 0.446v0.93h0.36v-0.93c0-0.298 0.174-0.446 0.409-0.446 0.248 0 0.372 0.161 0.372 0.446v0.93zM11.201 23.85h0.36v-1.674h-0.36v0.198c-0.124-0.149-0.298-0.248-0.533-0.248-0.471 0-0.831 0.372-0.831 0.88s0.36 0.88 0.831 0.88c0.236 0 0.409-0.087 0.533-0.248v0.211zM13.408 23.341c0-0.298-0.223-0.446-0.583-0.496l-0.174-0.025c-0.161-0.025-0.285-0.062-0.285-0.174s0.112-0.186 0.31-0.186c0.223 0 0.422 0.074 0.533 0.136l0.149-0.298c-0.174-0.112-0.409-0.174-0.682-0.174-0.422 0-0.694 0.211-0.694 0.546 0 0.273 0.198 0.434 0.583 0.484l0.161 0.025c0.211 0.037 0.298 0.087 0.298 0.174 0 0.136-0.136 0.211-0.384 0.211s-0.434-0.087-0.558-0.174l-0.161 0.285c0.198 0.136 0.446 0.211 0.719 0.211 0.484 0 0.769-0.223 0.769-0.546zM15.020 23.763l-0.099-0.31c-0.112 0.062-0.223 0.087-0.322 0.087-0.186 0-0.236-0.112-0.236-0.273v-0.756h0.595v-0.335h-0.595v-0.508h-0.372v0.508h-0.347v0.335h0.347v0.756c0 0.384 0.149 0.62 0.583 0.62 0.149 0 0.335-0.050 0.446-0.124zM16.087 22.126c-0.484 0-0.831 0.36-0.831 0.88 0 0.533 0.36 0.88 0.856 0.88 0.248 0 0.484-0.062 0.682-0.236l-0.174-0.273c-0.136 0.112-0.322 0.186-0.484 0.186-0.236 0-0.446-0.112-0.508-0.409h1.252v-0.149c0-0.521-0.322-0.88-0.794-0.88zM18.059 22.126c-0.211 0-0.347 0.099-0.434 0.248v-0.198h-0.372v1.674h0.372v-0.942c0-0.273 0.112-0.434 0.36-0.434 0.074 0 0.149 0.012 0.223 0.050l0.112-0.347c-0.087-0.037-0.186-0.050-0.26-0.050zM18.431 23.006c0 0.508 0.347 0.88 0.893 0.88 0.248 0 0.422-0.050 0.595-0.198l-0.174-0.298c-0.136 0.099-0.273 0.161-0.434 0.149-0.298 0-0.508-0.211-0.508-0.533s0.211-0.533 0.508-0.533c0.161 0 0.298 0.050 0.434 0.149l0.174-0.298c-0.174-0.136-0.347-0.198-0.595-0.198-0.546 0-0.893 0.372-0.893 0.88zM21.469 23.85h0.372v-1.674h-0.372v0.198c-0.112-0.149-0.285-0.248-0.521-0.248-0.471 0-0.843 0.372-0.843 0.88s0.372 0.88 0.843 0.88c0.236 0 0.409-0.087 0.521-0.248v0.211zM23.118 22.126c-0.211 0-0.347 0.099-0.434 0.248v-0.198h-0.36v1.674h0.36v-0.942c0-0.273 0.124-0.434 0.36-0.434 0.074 0 0.149 0.012 0.223 0.050l0.112-0.347c-0.074-0.037-0.186-0.050-0.26-0.050zM24.854 23.85h0.36v-2.356h-0.36v0.88c-0.112-0.149-0.285-0.248-0.533-0.248-0.459 0-0.831 0.372-0.831 0.88s0.372 0.88 0.831 0.88c0.248 0 0.422-0.087 0.533-0.248v0.211zM25.822 23.602c-0.012 0-0.037 0.012-0.062 0.012-0.025 0.012-0.037 0.025-0.050 0.037-0.025 0.012-0.037 0.037-0.037 0.050-0.012 0.025-0.012 0.050-0.012 0.074 0 0.012 0 0.037 0.012 0.062 0 0.012 0.012 0.037 0.037 0.050 0.012 0.012 0.025 0.025 0.050 0.037s0.050 0.012 0.062 0.012c0.025 0 0.050 0 0.074-0.012 0.012-0.012 0.037-0.025 0.050-0.037s0.025-0.037 0.037-0.050c0.012-0.025 0.012-0.050 0.012-0.062 0-0.025 0-0.050-0.012-0.074-0.012-0.012-0.025-0.037-0.037-0.050s-0.037-0.025-0.050-0.037c-0.025 0-0.050-0.012-0.074-0.012zM30.286 8.063v15.873c0 0.868-0.719 1.587-1.587 1.587h-25.397c-0.868 0-1.587-0.719-1.587-1.587v-15.873c0-0.868 0.719-1.587 1.587-1.587h25.397c0.868 0 1.587 0.719 1.587 1.587z"></path>
</svg>
