<?xml version="1.0" encoding="utf-8"?>
<!-- Generated by IcoMoon.io -->
<!DOCTYPE svg PUBLIC "-//W3C//DTD SVG 1.1//EN" "http://www.w3.org/Graphics/SVG/1.1/DTD/svg11.dtd">
<svg version="1.1" xmlns="http://www.w3.org/2000/svg" xmlns:xlink="http://www.w3.org/1999/xlink" width="32" height="32" viewBox="0 0 32 32">
<path d="M10.953 16.124c0 0.608-0.484 1.067-1.091 1.067-0.459 0-0.794-0.26-0.794-0.744 0-0.608 0.471-1.091 1.079-1.091 0.459 0 0.806 0.285 0.806 0.769zM20.688 14.276c0 0.744-0.446 0.893-1.091 0.893l-0.397 0.012 0.211-1.327c0.012-0.087 0.074-0.136 0.161-0.136h0.223c0.422 0 0.893 0.025 0.893 0.558zM25.040 16.124c0 0.608-0.484 1.067-1.079 1.067-0.459 0-0.806-0.26-0.806-0.744 0-0.608 0.471-1.091 1.079-1.091 0.459 0 0.806 0.285 0.806 0.769zM8.076 14.004c0-1.042-0.806-1.389-1.724-1.389h-1.984c-0.124 0-0.248 0.099-0.26 0.236l-0.806 5.060c-0.012 0.099 0.062 0.198 0.161 0.198h0.942c0.136 0 0.26-0.099 0.273-0.236l0.223-1.364c0.050-0.36 0.657-0.236 0.893-0.236 1.414 0 2.282-0.843 2.282-2.269zM11.908 17.873l0.508-3.237c0.012-0.099-0.062-0.198-0.161-0.198h-0.942c-0.186 0-0.198 0.273-0.211 0.409-0.285-0.422-0.707-0.496-1.178-0.496-1.215 0-2.145 1.066-2.145 2.245 0 0.967 0.608 1.6 1.575 1.6 0.446 0 1.005-0.198 1.314-0.546-0.025 0.074-0.050 0.186-0.050 0.26 0 0.112 0.050 0.198 0.161 0.198h0.856c0.136 0 0.248-0.099 0.273-0.236zM17.451 14.611c0-0.087-0.074-0.174-0.161-0.174h-0.955c-0.087 0-0.174 0.050-0.223 0.124l-1.314 1.935-0.546-1.86c-0.037-0.112-0.149-0.198-0.273-0.198h-0.93c-0.087 0-0.161 0.087-0.161 0.174 0 0.062 0.967 2.865 1.054 3.125-0.136 0.186-1.017 1.339-1.017 1.488 0 0.087 0.074 0.161 0.161 0.161h0.955c0.087 0 0.174-0.050 0.223-0.124l3.162-4.563c0.025-0.025 0.025-0.050 0.025-0.087zM22.163 14.004c0-1.042-0.806-1.389-1.724-1.389h-1.972c-0.136 0-0.26 0.099-0.273 0.236l-0.806 5.060c-0.012 0.099 0.062 0.198 0.161 0.198h1.017c0.099 0 0.174-0.074 0.198-0.161l0.223-1.438c0.050-0.36 0.657-0.236 0.893-0.236 1.414 0 2.282-0.843 2.282-2.269zM25.995 17.873l0.509-3.237c0.012-0.099-0.062-0.198-0.161-0.198h-0.942c-0.186 0-0.198 0.273-0.211 0.409-0.273-0.422-0.694-0.496-1.178-0.496-1.215 0-2.145 1.066-2.145 2.245 0 0.967 0.608 1.6 1.575 1.6 0.459 0 1.017-0.198 1.314-0.546-0.012 0.074-0.050 0.186-0.050 0.26 0 0.112 0.050 0.198 0.161 0.198h0.856c0.136 0 0.248-0.099 0.273-0.236zM28.698 12.801v-0.012c0-0.099-0.074-0.174-0.161-0.174h-0.918c-0.074 0-0.149 0.062-0.161 0.136l-0.806 5.159-0.012 0.025c0 0.087 0.074 0.174 0.174 0.174h0.818c0.124 0 0.248-0.099 0.26-0.236zM6.575 14.462c-0.099 0.632-0.521 0.707-1.066 0.707l-0.409 0.012 0.211-1.327c0.012-0.087 0.087-0.136 0.161-0.136h0.236c0.558 0 0.98 0.074 0.868 0.744zM30.286 8.063v15.873c0 0.868-0.719 1.587-1.587 1.587h-25.397c-0.868 0-1.587-0.719-1.587-1.587v-15.873c0-0.868 0.719-1.587 1.587-1.587h25.397c0.868 0 1.587 0.719 1.587 1.587z"></path>
</svg>
