<?xml version="1.0" encoding="utf-8"?>
<!-- Generated by IcoMoon.io -->
<!DOCTYPE svg PUBLIC "-//W3C//DTD SVG 1.1//EN" "http://www.w3.org/Graphics/SVG/1.1/DTD/svg11.dtd">
<svg version="1.1" xmlns="http://www.w3.org/2000/svg" xmlns:xlink="http://www.w3.org/1999/xlink" width="32" height="32" viewBox="0 0 32 32">
<path d="M21.518 16.087c0 0.57-0.087 1.005-0.26 1.314-0.149 0.273-0.384 0.434-0.645 0.434-0.186 0-0.36-0.037-0.508-0.112v-2.778c0.322-0.335 0.608-0.372 0.707-0.372 0.471 0 0.707 0.521 0.707 1.513zM26.95 15.64h-1.364c0.050-0.831 0.273-1.215 0.694-1.215s0.645 0.397 0.67 1.215zM7.617 17.314c0-1.042-0.632-1.476-1.662-1.848v0c-0.546-0.198-0.843-0.36-0.843-0.608 0-0.211 0.174-0.322 0.471-0.322 0.57 0 1.141 0.211 1.538 0.409l0.223-1.389c-0.31-0.149-0.955-0.397-1.848-0.397-0.632 0-1.153 0.161-1.525 0.471-0.397 0.322-0.595 0.794-0.595 1.352 0 1.017 0.62 1.463 1.637 1.823 0.645 0.236 0.868 0.397 0.868 0.657 0 0.248-0.211 0.384-0.595 0.384-0.471 0-1.252-0.236-1.761-0.533l-0.223 1.401c0.434 0.248 1.24 0.508 2.083 0.508 0.67 0 1.215-0.161 1.6-0.459 0.422-0.335 0.632-0.818 0.632-1.451zM11.275 14.648l0.236-1.376h-1.191v-1.674l-1.6 0.26-0.223 1.414-0.57 0.099-0.211 1.277h0.769v2.716c0 0.707 0.186 1.191 0.546 1.488 0.31 0.248 0.756 0.372 1.376 0.372 0.484 0 0.769-0.087 0.98-0.136v-1.463c-0.112 0.025-0.372 0.087-0.546 0.087-0.36 0-0.521-0.198-0.521-0.62v-2.443h0.955zM15.194 14.958v-1.724c-0.124-0.025-0.236-0.037-0.347-0.037-0.521 0-0.942 0.273-1.104 0.769l-0.124-0.694h-1.624v5.841h1.86v-3.795c0.236-0.285 0.57-0.384 1.017-0.384 0.099 0 0.198 0 0.322 0.025zM15.653 19.113h1.86v-5.841h-1.86v5.841zM23.366 16.025c0-0.992-0.186-1.749-0.558-2.22-0.335-0.434-0.794-0.645-1.376-0.645-0.533 0-1.005 0.223-1.451 0.694l-0.099-0.583h-1.637v7.998l1.86-0.31v-1.873c0.285 0.087 0.583 0.136 0.843 0.136 0.459 0 1.141-0.124 1.662-0.694 0.508-0.546 0.756-1.389 0.756-2.505zM17.563 11.709c0-0.546-0.434-0.98-0.98-0.98s-0.98 0.434-0.98 0.98 0.434 0.992 0.98 0.992 0.98-0.446 0.98-0.992zM28.698 16.136c0-0.93-0.198-1.662-0.595-2.183-0.409-0.521-1.017-0.794-1.786-0.794-1.587 0-2.567 1.166-2.567 3.051 0 1.042 0.26 1.835 0.781 2.331 0.459 0.459 1.128 0.682 1.997 0.682 0.794 0 1.525-0.186 1.984-0.496l-0.198-1.277c-0.459 0.248-0.992 0.384-1.587 0.384-0.36 0-0.608-0.074-0.781-0.236-0.198-0.161-0.31-0.434-0.347-0.818h3.075c0.012-0.087 0.025-0.508 0.025-0.645zM30.286 8.063v15.873c0 0.868-0.719 1.587-1.587 1.587h-25.397c-0.868 0-1.587-0.719-1.587-1.587v-15.873c0-0.868 0.719-1.587 1.587-1.587h25.397c0.868 0 1.587 0.719 1.587 1.587z"></path>
</svg>
