<?xml version="1.0" encoding="utf-8"?>
<!-- Generated by IcoMoon.io -->
<!DOCTYPE svg PUBLIC "-//W3C//DTD SVG 1.1//EN" "http://www.w3.org/Graphics/SVG/1.1/DTD/svg11.dtd">
<svg version="1.1" xmlns="http://www.w3.org/2000/svg" xmlns:xlink="http://www.w3.org/1999/xlink" width="32" height="32" viewBox="0 0 32 32">
<path d="M26.206 17.166h-1.711c0 0 0.174-0.459 0.818-2.22-0.012 0.012 0.174-0.459 0.273-0.756l0.149 0.682c0.384 1.897 0.471 2.294 0.471 2.294zM8.299 16.36l-0.719-3.658c-0.099-0.508-0.484-0.67-0.93-0.67h-3.323l-0.025 0.161c2.282 0.583 4.154 1.823 4.998 4.167zM10.519 12.032l-2.009 5.432-0.211-1.104c-0.434-1.153-1.488-2.22-2.679-2.703l1.674 6.324h2.17l3.237-7.949h-2.183zM12.243 19.993h2.059l1.29-7.961h-2.059zM21.766 12.23c-0.409-0.161-1.054-0.335-1.848-0.335-2.034 0-3.46 1.079-3.472 2.629-0.012 1.141 1.017 1.773 1.798 2.158 0.806 0.384 1.066 0.645 1.066 0.992 0 0.533-0.645 0.769-1.228 0.769-0.831 0-1.277-0.099-1.934-0.409l-0.273-0.136-0.285 1.786c0.484 0.223 1.364 0.422 2.294 0.422 2.158 0.012 3.559-1.066 3.584-2.716 0-0.905-0.558-1.587-1.736-2.158-0.719-0.36-1.153-0.62-1.153-0.992 0-0.335 0.372-0.682 1.178-0.682 0.67-0.012 1.166 0.124 1.538 0.298l0.186 0.099zM27.037 12.032h-1.587c-0.496 0-0.868 0.149-1.079 0.67l-3.051 7.292h2.158c0.347-0.98 0.434-1.191 0.434-1.191h2.629c0 0 0.062 0.273 0.248 1.191h1.91zM30.286 8.063v15.873c0 0.868-0.719 1.587-1.587 1.587h-25.397c-0.868 0-1.587-0.719-1.587-1.587v-15.873c0-0.868 0.719-1.587 1.587-1.587h25.397c0.868 0 1.587 0.719 1.587 1.587z"></path>
</svg>
