<?xml version="1.0" encoding="utf-8"?>
<!-- Generated by IcoMoon.io -->
<!DOCTYPE svg PUBLIC "-//W3C//DTD SVG 1.1//EN" "http://www.w3.org/Graphics/SVG/1.1/DTD/svg11.dtd">
<svg version="1.1" xmlns="http://www.w3.org/2000/svg" xmlns:xlink="http://www.w3.org/1999/xlink" width="32" height="32" viewBox="0 0 32 32">
<path d="M12.621 17.583h2.926c-0.269 2.983-1.979 4.792-4.425 4.792-3.054 0-4.905-2.347-4.905-6.107 0-3.732 2.036-6.065 4.609-6.065 2.827 0 4.411 1.753 4.651 4.722h-2.87c-0.099-1.202-0.693-1.894-1.654-1.894-1.060 0-1.696 1.131-1.696 3.365 0 1.626 0.283 3.153 1.824 3.153 0.975 0 1.428-0.848 1.541-1.965zM22.687 17.583h2.912c-0.269 2.983-1.965 4.792-4.411 4.792-3.054 0-4.905-2.347-4.905-6.107 0-3.732 2.036-6.065 4.609-6.065 2.827 0 4.411 1.753 4.651 4.722h-2.884c-0.085-1.202-0.693-1.894-1.64-1.894-1.060 0-1.696 1.131-1.696 3.365 0 1.626 0.269 3.153 1.81 3.153 0.975 0 1.442-0.848 1.555-1.965zM27.762 15.901c0-3.789-0.198-5.429-1.074-6.616-0.184-0.24-0.481-0.396-0.721-0.565-0.891-0.65-5.033-0.891-9.853-0.891s-9.161 0.24-10.037 0.891c-0.254 0.184-0.565 0.325-0.749 0.565-0.877 1.173-1.060 2.827-1.060 6.616 0 3.803 0.198 5.443 1.060 6.616 0.198 0.269 0.495 0.382 0.749 0.58 0.877 0.65 5.217 0.919 10.037 0.919s8.963-0.254 9.853-0.919c0.24-0.184 0.551-0.297 0.721-0.58 0.891-1.159 1.074-2.813 1.074-6.616zM30.476 5.143v21.714h-28.952v-21.714h28.952z"></path>
</svg>
