<?xml version="1.0" encoding="utf-8"?>
<!-- Generated by IcoMoon.io -->
<!DOCTYPE svg PUBLIC "-//W3C//DTD SVG 1.1//EN" "http://www.w3.org/Graphics/SVG/1.1/DTD/svg11.dtd">
<svg version="1.1" xmlns="http://www.w3.org/2000/svg" xmlns:xlink="http://www.w3.org/1999/xlink" width="32" height="32" viewBox="0 0 32 32">
<path d="M27.701 16l2.656 2.598c0.366 0.346 0.5 0.866 0.385 1.347-0.135 0.481-0.52 0.866-1.001 0.982l-3.618 0.924 1.020 3.58c0.135 0.481 0 1.001-0.366 1.347-0.346 0.366-0.866 0.5-1.347 0.366l-3.58-1.020-0.924 3.618c-0.116 0.481-0.5 0.866-0.982 1.001-0.116 0.019-0.25 0.038-0.366 0.038-0.366 0-0.731-0.154-0.982-0.423l-2.598-2.656-2.598 2.656c-0.346 0.366-0.866 0.5-1.347 0.385-0.5-0.135-0.866-0.52-0.982-1.001l-0.924-3.618-3.58 1.020c-0.481 0.135-1.001 0-1.347-0.366-0.366-0.346-0.5-0.866-0.366-1.347l1.020-3.58-3.618-0.924c-0.481-0.116-0.866-0.5-1.001-0.982-0.115-0.481 0.019-1.001 0.385-1.347l2.656-2.598-2.656-2.598c-0.366-0.346-0.5-0.866-0.385-1.347 0.135-0.481 0.52-0.866 1.001-0.982l3.618-0.924-1.020-3.58c-0.135-0.481 0-1.001 0.366-1.347 0.346-0.366 0.866-0.5 1.347-0.366l3.58 1.020 0.924-3.618c0.116-0.481 0.5-0.866 0.982-0.982 0.481-0.135 1.001 0 1.347 0.366l2.598 2.675 2.598-2.675c0.346-0.366 0.847-0.5 1.347-0.366 0.481 0.115 0.866 0.5 0.982 0.981l0.924 3.618 3.58-1.020c0.481-0.135 1.001 0 1.347 0.366 0.366 0.346 0.5 0.866 0.366 1.347l-1.020 3.58 3.618 0.924c0.481 0.116 0.866 0.5 1.001 0.982 0.116 0.481-0.019 1.001-0.385 1.347z"></path>
</svg>
