<?xml version="1.0" encoding="utf-8"?>
<!-- Generated by IcoMoon.io -->
<!DOCTYPE svg PUBLIC "-//W3C//DTD SVG 1.1//EN" "http://www.w3.org/Graphics/SVG/1.1/DTD/svg11.dtd">
<svg version="1.1" xmlns="http://www.w3.org/2000/svg" xmlns:xlink="http://www.w3.org/1999/xlink" width="32" height="32" viewBox="0 0 32 32">
<path d="M27.361 22.992c0-0.473-0.182-0.91-0.51-1.238l-3.787-3.787c-0.328-0.328-0.783-0.51-1.238-0.51-0.528 0-0.947 0.2-1.311 0.583 0.601 0.601 1.311 1.111 1.311 2.039 0 0.965-0.783 1.748-1.748 1.748-0.929 0-1.438-0.71-2.039-1.311-0.382 0.364-0.601 0.783-0.601 1.329 0 0.455 0.182 0.91 0.51 1.238l3.751 3.769c0.328 0.328 0.783 0.492 1.238 0.492s0.91-0.164 1.238-0.473l2.676-2.658c0.328-0.328 0.51-0.765 0.51-1.22zM14.562 10.155c0-0.455-0.182-0.91-0.51-1.238l-3.751-3.769c-0.328-0.328-0.783-0.51-1.238-0.51s-0.91 0.182-1.238 0.492l-2.676 2.658c-0.328 0.328-0.51 0.765-0.51 1.22 0 0.473 0.182 0.91 0.51 1.238l3.787 3.787c0.328 0.328 0.783 0.492 1.238 0.492 0.528 0 0.947-0.182 1.311-0.564-0.601-0.601-1.311-1.111-1.311-2.039 0-0.965 0.783-1.748 1.748-1.748 0.929 0 1.438 0.71 2.039 1.311 0.382-0.364 0.601-0.783 0.601-1.329zM30.857 22.992c0 1.384-0.564 2.731-1.548 3.696l-2.676 2.658c-0.983 0.983-2.312 1.511-3.696 1.511-1.402 0-2.731-0.546-3.714-1.548l-3.751-3.769c-0.983-0.983-1.511-2.312-1.511-3.696 0-1.438 0.583-2.804 1.602-3.805l-1.602-1.602c-1.001 1.020-2.349 1.602-3.787 1.602-1.384 0-2.731-0.546-3.714-1.529l-3.787-3.787c-1.001-1.001-1.529-2.312-1.529-3.714 0-1.384 0.564-2.731 1.548-3.696l2.676-2.658c0.983-0.983 2.312-1.511 3.696-1.511 1.402 0 2.731 0.546 3.714 1.548l3.751 3.769c0.983 0.983 1.511 2.312 1.511 3.696 0 1.438-0.583 2.804-1.602 3.805l1.602 1.602c1.001-1.020 2.349-1.602 3.787-1.602 1.384 0 2.731 0.546 3.714 1.529l3.787 3.787c1.001 1.001 1.529 2.312 1.529 3.714z"></path>
</svg>
