<?xml version="1.0" encoding="utf-8"?>
<!-- Generated by IcoMoon.io -->
<!DOCTYPE svg PUBLIC "-//W3C//DTD SVG 1.1//EN" "http://www.w3.org/Graphics/SVG/1.1/DTD/svg11.dtd">
<svg version="1.1" xmlns="http://www.w3.org/2000/svg" xmlns:xlink="http://www.w3.org/1999/xlink" width="32" height="32" viewBox="0 0 32 32">
<path d="M23.796 14.394l-8.164 8.164c-0.484 0.484-1.257 0.484-1.741 0l-5.688-5.688c-0.484-0.484-0.484-1.257 0-1.741l1.973-1.973c0.484-0.484 1.257-0.484 1.741 0l2.844 2.844 5.32-5.32c0.484-0.484 1.257-0.484 1.741 0l1.973 1.973c0.484 0.484 0.484 1.257 0 1.741zM26.524 16c0-5.804-4.72-10.524-10.524-10.524s-10.524 4.72-10.524 10.524 4.72 10.524 10.524 10.524 10.524-4.72 10.524-10.524zM30.857 16c0 8.202-6.655 14.857-14.857 14.857s-14.857-6.655-14.857-14.857 6.655-14.857 14.857-14.857 14.857 6.655 14.857 14.857z"></path>
</svg>
