<?xml version="1.0" encoding="utf-8"?>
<!-- Generated by IcoMoon.io -->
<!DOCTYPE svg PUBLIC "-//W3C//DTD SVG 1.1//EN" "http://www.w3.org/Graphics/SVG/1.1/DTD/svg11.dtd">
<svg version="1.1" xmlns="http://www.w3.org/2000/svg" xmlns:xlink="http://www.w3.org/1999/xlink" width="32" height="32" viewBox="0 0 32 32">
<path d="M30.509 9.223c0 0.468-0.187 0.936-0.524 1.273l-16.1 16.1c-0.337 0.337-0.805 0.524-1.273 0.524s-0.936-0.187-1.273-0.524l-9.323-9.323c-0.337-0.337-0.524-0.805-0.524-1.273s0.187-0.936 0.524-1.273l2.546-2.546c0.337-0.337 0.805-0.524 1.273-0.524s0.936 0.187 1.273 0.524l5.504 5.523 12.281-12.3c0.337-0.337 0.805-0.524 1.273-0.524s0.936 0.187 1.273 0.524l2.546 2.546c0.337 0.337 0.524 0.805 0.524 1.273z"></path>
</svg>
