<?xml version="1.0" encoding="utf-8"?>
<!-- Generated by IcoMoon.io -->
<!DOCTYPE svg PUBLIC "-//W3C//DTD SVG 1.1//EN" "http://www.w3.org/Graphics/SVG/1.1/DTD/svg11.dtd">
<svg version="1.1" xmlns="http://www.w3.org/2000/svg" xmlns:xlink="http://www.w3.org/1999/xlink" width="32" height="32" viewBox="0 0 32 32">
<path d="M14.394 23.796l11.878-11.878c0.484-0.484 0.484-1.257 0-1.741l-1.973-1.973c-0.484-0.484-1.257-0.484-1.741 0l-9.034 9.034-4.082-4.082c-0.484-0.484-1.257-0.484-1.741 0l-1.973 1.973c-0.484 0.484-0.484 1.257 0 1.741l6.926 6.926c0.484 0.484 1.257 0.484 1.741 0zM30.857 6.714v18.571c0 3.076-2.496 5.571-5.571 5.571h-18.571c-3.076 0-5.571-2.496-5.571-5.571v-18.571c0-3.076 2.496-5.571 5.571-5.571h18.571c3.076 0 5.571 2.496 5.571 5.571z"></path>
</svg>
