<?xml version="1.0" encoding="utf-8"?>
<!-- Generated by IcoMoon.io -->
<!DOCTYPE svg PUBLIC "-//W3C//DTD SVG 1.1//EN" "http://www.w3.org/Graphics/SVG/1.1/DTD/svg11.dtd">
<svg version="1.1" xmlns="http://www.w3.org/2000/svg" xmlns:xlink="http://www.w3.org/1999/xlink" width="32" height="32" viewBox="0 0 32 32">
<path d="M16.871 23.796l8.783-8.783c0.484-0.484 0.484-1.257 0-1.741l-1.973-1.973c-0.484-0.484-1.257-0.484-1.741 0l-5.939 5.939-5.939-5.939c-0.484-0.484-1.257-0.484-1.741 0l-1.973 1.973c-0.484 0.484-0.484 1.257 0 1.741l8.783 8.783c0.484 0.484 1.257 0.484 1.741 0zM30.857 16c0 8.202-6.655 14.857-14.857 14.857s-14.857-6.655-14.857-14.857 6.655-14.857 14.857-14.857 14.857 6.655 14.857 14.857z"></path>
</svg>
