<?xml version="1.0" encoding="utf-8"?>
<!-- Generated by IcoMoon.io -->
<!DOCTYPE svg PUBLIC "-//W3C//DTD SVG 1.1//EN" "http://www.w3.org/Graphics/SVG/1.1/DTD/svg11.dtd">
<svg version="1.1" xmlns="http://www.w3.org/2000/svg" xmlns:xlink="http://www.w3.org/1999/xlink" width="32" height="32" viewBox="0 0 32 32">
<path d="M26.076 8.277l-5.369 5.369v15.151c0 1.14-0.919 2.059-2.059 2.059s-2.059-0.919-2.059-2.059v-7.061h-1.177v7.061c0 1.14-0.919 2.059-2.059 2.059s-2.059-0.919-2.059-2.059v-15.151l-5.369-5.369c-0.68-0.699-0.68-1.802 0-2.501 0.699-0.68 1.802-0.68 2.501 0l4.192 4.192h6.767l4.192-4.192c0.699-0.68 1.802-0.68 2.501 0 0.68 0.699 0.68 1.802 0 2.501zM20.119 5.262c0 2.28-1.839 4.119-4.119 4.119s-4.119-1.839-4.119-4.119 1.839-4.119 4.119-4.119 4.119 1.839 4.119 4.119z"></path>
</svg>
