<?xml version="1.0" encoding="utf-8"?>
<!-- Generated by IcoMoon.io -->
<!DOCTYPE svg PUBLIC "-//W3C//DTD SVG 1.1//EN" "http://www.w3.org/Graphics/SVG/1.1/DTD/svg11.dtd">
<svg version="1.1" xmlns="http://www.w3.org/2000/svg" xmlns:xlink="http://www.w3.org/1999/xlink" width="31" height="32" viewBox="0 0 31 32">
<path d="M14.931 2.167c2.353-0.015 4.752 0.584 6.936 1.845 2.414 1.399 4.244 3.414 5.413 5.721l-11.411-0.6c-3.229-0.185-6.305 1.63-7.366 4.675l-4.244-6.52c2.645-3.291 6.613-5.106 10.672-5.121zM3.444 8.395l5.182 10.196c1.461 2.876 4.552 4.629 7.751 4.029l-3.537 6.936c-6.597-1.015-11.641-6.72-11.641-13.61 0-2.783 0.83-5.382 2.245-7.551zM27.834 10.994c2.414 6.213 0 13.441-5.967 16.885-2.414 1.399-5.075 1.968-7.658 1.83l6.228-9.581c1.768-2.722 1.738-6.274-0.369-8.735zM14.978 11.302c2.568 0 4.644 2.076 4.644 4.644s-2.076 4.644-4.644 4.644-4.644-2.076-4.644-4.644 2.076-4.644 4.644-4.644z"></path>
</svg>
