<?xml version="1.0" encoding="utf-8"?>
<!-- Generated by IcoMoon.io -->
<!DOCTYPE svg PUBLIC "-//W3C//DTD SVG 1.1//EN" "http://www.w3.org/Graphics/SVG/1.1/DTD/svg11.dtd">
<svg version="1.1" xmlns="http://www.w3.org/2000/svg" xmlns:xlink="http://www.w3.org/1999/xlink" width="32" height="32" viewBox="0 0 32 32">
<path d="M13.878 28.735h14.857v-10.612h-6.898c-0.879 0-1.592-0.713-1.592-1.592v-6.898h-6.367v19.102zM18.122 4.857v-1.061c0-0.282-0.249-0.531-0.531-0.531h-11.673c-0.282 0-0.531 0.249-0.531 0.531v1.061c0 0.282 0.249 0.531 0.531 0.531h11.673c0.282 0 0.531-0.249 0.531-0.531zM22.367 16h4.958l-4.958-4.958v4.958zM30.857 18.122v11.143c0 0.879-0.713 1.592-1.592 1.592h-15.918c-0.879 0-1.592-0.713-1.592-1.592v-2.653h-9.020c-0.879 0-1.592-0.713-1.592-1.592v-22.286c0-0.879 0.713-1.592 1.592-1.592h18.041c0.879 0 1.592 0.713 1.592 1.592v5.439c0.216 0.133 0.415 0.282 0.597 0.464l6.765 6.765c0.63 0.63 1.128 1.841 1.128 2.719z"></path>
</svg>
