<?xml version="1.0" encoding="utf-8"?>
<!-- Generated by IcoMoon.io -->
<!DOCTYPE svg PUBLIC "-//W3C//DTD SVG 1.1//EN" "http://www.w3.org/Graphics/SVG/1.1/DTD/svg11.dtd">
<svg version="1.1" xmlns="http://www.w3.org/2000/svg" xmlns:xlink="http://www.w3.org/1999/xlink" width="32" height="32" viewBox="0 0 32 32">
<path d="M18.476 9.19v8.667c0 0.348-0.271 0.619-0.619 0.619h-6.19c-0.348 0-0.619-0.271-0.619-0.619v-1.238c0-0.348 0.271-0.619 0.619-0.619h4.333v-6.81c0-0.348 0.271-0.619 0.619-0.619h1.238c0.348 0 0.619 0.271 0.619 0.619zM26.524 16c0-5.804-4.72-10.524-10.524-10.524s-10.524 4.72-10.524 10.524 4.72 10.524 10.524 10.524 10.524-4.72 10.524-10.524zM30.857 16c0 8.202-6.655 14.857-14.857 14.857s-14.857-6.655-14.857-14.857 6.655-14.857 14.857-14.857 14.857 6.655 14.857 14.857z"></path>
</svg>
