<?xml version="1.0" encoding="utf-8"?>
<!-- Generated by IcoMoon.io -->
<!DOCTYPE svg PUBLIC "-//W3C//DTD SVG 1.1//EN" "http://www.w3.org/Graphics/SVG/1.1/DTD/svg11.dtd">
<svg version="1.1" xmlns="http://www.w3.org/2000/svg" xmlns:xlink="http://www.w3.org/1999/xlink" width="32" height="32" viewBox="0 0 32 32">
<path d="M28.735 28.204v-18.041c0-0.282-0.249-0.531-0.531-0.531h-18.041c-0.282 0-0.531 0.249-0.531 0.531v18.041c0 0.282 0.249 0.531 0.531 0.531h18.041c0.282 0 0.531-0.249 0.531-0.531zM30.857 10.163v18.041c0 1.459-1.194 2.653-2.653 2.653h-18.041c-1.459 0-2.653-1.194-2.653-2.653v-18.041c0-1.459 1.194-2.653 2.653-2.653h18.041c1.459 0 2.653 1.194 2.653 2.653zM24.49 3.796v2.653h-2.122v-2.653c0-0.282-0.249-0.531-0.531-0.531h-18.041c-0.282 0-0.531 0.249-0.531 0.531v18.041c0 0.282 0.249 0.531 0.531 0.531h2.653v2.122h-2.653c-1.459 0-2.653-1.194-2.653-2.653v-18.041c0-1.459 1.194-2.653 2.653-2.653h18.041c1.459 0 2.653 1.194 2.653 2.653z"></path>
</svg>
