<?xml version="1.0" encoding="utf-8"?>
<!-- Generated by IcoMoon.io -->
<!DOCTYPE svg PUBLIC "-//W3C//DTD SVG 1.1//EN" "http://www.w3.org/Graphics/SVG/1.1/DTD/svg11.dtd">
<svg version="1.1" xmlns="http://www.w3.org/2000/svg" xmlns:xlink="http://www.w3.org/1999/xlink" width="32" height="32" viewBox="0 0 32 32">
<path d="M30.857 25.054c0 0.625-0.25 1.251-0.7 1.701l-3.402 3.402c-0.45 0.45-1.076 0.7-1.701 0.7s-1.251-0.25-1.701-0.7l-7.354-7.354-7.354 7.354c-0.45 0.45-1.075 0.7-1.701 0.7s-1.251-0.25-1.701-0.7l-3.402-3.402c-0.45-0.45-0.7-1.076-0.7-1.701s0.25-1.251 0.7-1.701l7.354-7.354-7.354-7.354c-0.45-0.45-0.7-1.075-0.7-1.701s0.25-1.251 0.7-1.701l3.402-3.402c0.45-0.45 1.075-0.7 1.701-0.7s1.251 0.25 1.701 0.7l7.354 7.354 7.354-7.354c0.45-0.45 1.076-0.7 1.701-0.7s1.251 0.25 1.701 0.7l3.402 3.402c0.45 0.45 0.7 1.075 0.7 1.701s-0.25 1.251-0.7 1.701l-7.354 7.354 7.354 7.354c0.45 0.45 0.7 1.076 0.7 1.701z"></path>
</svg>
