<?xml version="1.0" encoding="utf-8"?>
<!-- Generated by IcoMoon.io -->
<!DOCTYPE svg PUBLIC "-//W3C//DTD SVG 1.1//EN" "http://www.w3.org/Graphics/SVG/1.1/DTD/svg11.dtd">
<svg version="1.1" xmlns="http://www.w3.org/2000/svg" xmlns:xlink="http://www.w3.org/1999/xlink" width="32" height="32" viewBox="0 0 32 32">
<path d="M30.442 20.814c0 3.189-2.587 5.777-5.777 5.777h-16.367c-3.716 0-6.739-3.024-6.739-6.739 0-2.693 1.595-5.024 3.881-6.093-0.015-0.211-0.030-0.436-0.030-0.647 0-4.257 3.445-7.702 7.702-7.702 3.219 0 5.972 1.971 7.131 4.784 0.662-0.587 1.534-0.933 2.497-0.933 2.121 0 3.851 1.73 3.851 3.851 0 0.767-0.226 1.474-0.617 2.076 2.557 0.602 4.468 2.888 4.468 5.626z"></path>
</svg>
