<?xml version="1.0" encoding="utf-8"?>
<!-- Generated by IcoMoon.io -->
<!DOCTYPE svg PUBLIC "-//W3C//DTD SVG 1.1//EN" "http://www.w3.org/Graphics/SVG/1.1/DTD/svg11.dtd">
<svg version="1.1" xmlns="http://www.w3.org/2000/svg" xmlns:xlink="http://www.w3.org/1999/xlink" width="32" height="32" viewBox="0 0 32 32">
<path d="M20.814 17.444c0-0.271-0.211-0.481-0.481-0.481h-3.37v-5.295c0-0.256-0.226-0.481-0.481-0.481h-2.888c-0.256 0-0.481 0.226-0.481 0.481v5.295h-3.37c-0.271 0-0.481 0.226-0.481 0.481 0 0.12 0.045 0.256 0.135 0.346l5.295 5.295c0.090 0.090 0.211 0.135 0.346 0.135 0.12 0 0.256-0.045 0.346-0.135l5.28-5.28c0.090-0.105 0.15-0.226 0.15-0.361zM30.442 20.814c0 3.189-2.587 5.777-5.777 5.777h-16.367c-3.716 0-6.739-3.024-6.739-6.739 0-2.618 1.519-4.994 3.881-6.093-0.015-0.226-0.030-0.436-0.030-0.647 0-4.257 3.445-7.702 7.702-7.702 3.129 0 5.942 1.895 7.131 4.784 0.692-0.602 1.58-0.933 2.497-0.933 2.121 0 3.851 1.73 3.851 3.851 0 0.737-0.211 1.459-0.617 2.076 2.618 0.617 4.468 2.948 4.468 5.626z"></path>
</svg>
