<?xml version="1.0" encoding="utf-8"?>
<!-- Generated by IcoMoon.io -->
<!DOCTYPE svg PUBLIC "-//W3C//DTD SVG 1.1//EN" "http://www.w3.org/Graphics/SVG/1.1/DTD/svg11.dtd">
<svg version="1.1" xmlns="http://www.w3.org/2000/svg" xmlns:xlink="http://www.w3.org/1999/xlink" width="32" height="32" viewBox="0 0 32 32">
<path d="M4.724 20.527l9.999 6.666v-5.953l-5.538-3.698zM3.696 18.139l3.2-2.139-3.2-2.139v4.278zM17.277 27.193l9.999-6.666-4.46-2.985-5.538 3.698v5.953zM16 19.018l4.51-3.018-4.51-3.018-4.51 3.018zM9.185 14.458l5.538-3.698v-5.953l-9.999 6.666zM25.103 16l3.2 2.139v-4.278zM22.815 14.458l4.46-2.985-9.999-6.666v5.953zM30.857 11.473v9.054c0 0.415-0.216 0.829-0.564 1.061l-13.58 9.054c-0.216 0.133-0.464 0.216-0.713 0.216s-0.497-0.083-0.713-0.216l-13.58-9.054c-0.348-0.232-0.564-0.647-0.564-1.061v-9.054c0-0.415 0.216-0.829 0.564-1.061l13.58-9.054c0.216-0.133 0.464-0.216 0.713-0.216s0.497 0.083 0.713 0.216l13.58 9.054c0.348 0.232 0.564 0.647 0.564 1.061z"></path>
</svg>
