<?xml version="1.0" encoding="utf-8"?>
<!-- Generated by IcoMoon.io -->
<!DOCTYPE svg PUBLIC "-//W3C//DTD SVG 1.1//EN" "http://www.w3.org/Graphics/SVG/1.1/DTD/svg11.dtd">
<svg version="1.1" xmlns="http://www.w3.org/2000/svg" xmlns:xlink="http://www.w3.org/1999/xlink" width="32" height="32" viewBox="0 0 32 32">
<path d="M10.59 22.924l-0.789 0.789c-0.205 0.205-0.521 0.205-0.726 0l-7.35-7.35c-0.205-0.205-0.205-0.521 0-0.726l7.35-7.35c0.205-0.205 0.521-0.205 0.726 0l0.789 0.789c0.205 0.205 0.205 0.521 0 0.726l-6.199 6.199 6.199 6.199c0.205 0.205 0.205 0.52 0 0.726zM19.912 6.095l-5.883 20.363c-0.079 0.268-0.363 0.426-0.615 0.347l-0.978-0.268c-0.268-0.079-0.426-0.363-0.347-0.631l5.883-20.363c0.079-0.268 0.363-0.426 0.615-0.347l0.978 0.268c0.268 0.079 0.426 0.363 0.347 0.631zM30.274 16.363l-7.35 7.35c-0.205 0.205-0.52 0.205-0.726 0l-0.789-0.789c-0.205-0.205-0.205-0.52 0-0.726l6.199-6.199-6.199-6.199c-0.205-0.205-0.205-0.521 0-0.726l0.789-0.789c0.205-0.205 0.52-0.205 0.726 0l7.35 7.35c0.205 0.205 0.205 0.52 0 0.726z"></path>
</svg>
