<?xml version="1.0" encoding="utf-8"?>
<!-- Generated by IcoMoon.io -->
<!DOCTYPE svg PUBLIC "-//W3C//DTD SVG 1.1//EN" "http://www.w3.org/Graphics/SVG/1.1/DTD/svg11.dtd">
<svg version="1.1" xmlns="http://www.w3.org/2000/svg" xmlns:xlink="http://www.w3.org/1999/xlink" width="32" height="32" viewBox="0 0 32 32">
<path d="M11.667 27.143c0-1.025-0.832-1.857-1.857-1.857s-1.857 0.832-1.857 1.857 0.832 1.857 1.857 1.857 1.857-0.832 1.857-1.857zM11.667 4.857c0-1.025-0.832-1.857-1.857-1.857s-1.857 0.832-1.857 1.857 0.832 1.857 1.857 1.857 1.857-0.832 1.857-1.857zM24.048 7.333c0-1.025-0.832-1.857-1.857-1.857s-1.857 0.832-1.857 1.857 0.832 1.857 1.857 1.857 1.857-0.832 1.857-1.857zM25.905 7.333c0 1.374-0.754 2.573-1.857 3.211-0.058 6.984-5.010 8.531-8.299 9.576-3.076 0.967-4.082 1.432-4.082 3.308v0.503c1.103 0.638 1.857 1.838 1.857 3.211 0 2.051-1.664 3.714-3.714 3.714s-3.714-1.664-3.714-3.714c0-1.373 0.754-2.573 1.857-3.211v-15.863c-1.103-0.638-1.857-1.838-1.857-3.211 0-2.051 1.664-3.714 3.714-3.714s3.714 1.664 3.714 3.714c0 1.373-0.754 2.573-1.857 3.211v9.615c0.987-0.484 2.031-0.813 2.979-1.103 3.598-1.141 5.649-1.993 5.688-6.036-1.103-0.638-1.857-1.838-1.857-3.211 0-2.051 1.664-3.714 3.714-3.714s3.714 1.664 3.714 3.714z"></path>
</svg>
