<?xml version="1.0" encoding="utf-8"?>
<!-- Generated by IcoMoon.io -->
<!DOCTYPE svg PUBLIC "-//W3C//DTD SVG 1.1//EN" "http://www.w3.org/Graphics/SVG/1.1/DTD/svg11.dtd">
<svg version="1.1" xmlns="http://www.w3.org/2000/svg" xmlns:xlink="http://www.w3.org/1999/xlink" width="32" height="32" viewBox="0 0 32 32">
<path d="M27.936 22.533l-3.615-1.841c-1.625 2.653-4.51 4.278-7.628 4.278-4.941 0-8.938-3.996-8.938-8.921 0-4.941 3.996-8.938 8.938-8.938 2.902 0 5.621 1.409 7.296 3.797l3.565-2.073c-2.438-3.747-6.566-5.986-11.027-5.986-7.263 0-13.149 5.886-13.149 13.149s5.886 13.149 13.149 13.149c4.709 0 9.070-2.52 11.408-6.616zM18.749 15.95l11.491 5.837c-2.52 5.505-7.578 9.070-13.713 9.070-8.208 0-14.857-6.649-14.857-14.857s6.649-14.857 14.857-14.857c5.837 0 10.645 3.217 13.365 8.291zM27.256 16h-0.647v2.653h-1.592v-5.837h2.255c1.841 0 2.006 3.184-0.017 3.184z"></path>
</svg>
