<?xml version="1.0" encoding="utf-8"?>
<!-- Generated by IcoMoon.io -->
<!DOCTYPE svg PUBLIC "-//W3C//DTD SVG 1.1//EN" "http://www.w3.org/Graphics/SVG/1.1/DTD/svg11.dtd">
<svg version="1.1" xmlns="http://www.w3.org/2000/svg" xmlns:xlink="http://www.w3.org/1999/xlink" width="32" height="32" viewBox="0 0 32 32">
<path d="M27.495 11.002c0-1.655-1.343-2.999-2.999-2.999h-1v5.997h1c1.655 0 2.999-1.343 2.999-2.999zM1.507 22.997h27.987c0 2.202-1.796 3.998-3.998 3.998h-19.991c-2.202 0-3.998-1.796-3.998-3.998zM30.494 11.002c0 3.311-2.686 5.997-5.997 5.997h-1v0.5c0 1.921-1.577 3.498-3.498 3.498h-10.995c-1.921 0-3.498-1.577-3.498-3.498v-11.495c0-0.547 0.453-1 1-1h17.992c3.311 0 5.997 2.686 5.997 5.997z"></path>
</svg>
