<?xml version="1.0" encoding="utf-8"?>
<!-- Generated by IcoMoon.io -->
<!DOCTYPE svg PUBLIC "-//W3C//DTD SVG 1.1//EN" "http://www.w3.org/Graphics/SVG/1.1/DTD/svg11.dtd">
<svg version="1.1" xmlns="http://www.w3.org/2000/svg" xmlns:xlink="http://www.w3.org/1999/xlink" width="32" height="32" viewBox="0 0 32 32">
<path d="M20.952 16c0-2.728-2.225-4.952-4.952-4.952s-4.952 2.225-4.952 4.952 2.225 4.952 4.952 4.952 4.952-2.225 4.952-4.952zM30.857 13.891v4.295c0 0.29-0.232 0.638-0.542 0.696l-3.579 0.542c-0.213 0.619-0.445 1.199-0.754 1.76 0.658 0.948 1.354 1.799 2.070 2.67 0.116 0.135 0.193 0.31 0.193 0.484s-0.058 0.31-0.174 0.445c-0.464 0.619-3.076 3.463-3.734 3.463-0.174 0-0.348-0.077-0.503-0.174l-2.67-2.089c-0.561 0.29-1.161 0.542-1.76 0.735-0.135 1.18-0.252 2.438-0.561 3.598-0.077 0.31-0.348 0.542-0.696 0.542h-4.295c-0.348 0-0.658-0.252-0.696-0.58l-0.542-3.56c-0.6-0.193-1.18-0.426-1.741-0.716l-2.728 2.070c-0.135 0.116-0.31 0.174-0.484 0.174s-0.348-0.077-0.484-0.213c-1.025-0.929-2.379-2.128-3.192-3.25-0.097-0.135-0.135-0.29-0.135-0.445 0-0.174 0.058-0.31 0.155-0.445 0.658-0.89 1.373-1.741 2.031-2.65-0.329-0.619-0.6-1.257-0.793-1.915l-3.54-0.522c-0.329-0.058-0.561-0.368-0.561-0.696v-4.295c0-0.29 0.232-0.638 0.522-0.696l3.598-0.542c0.193-0.619 0.445-1.199 0.754-1.78-0.658-0.929-1.354-1.799-2.070-2.67-0.116-0.135-0.193-0.29-0.193-0.464s0.077-0.31 0.174-0.445c0.464-0.638 3.076-3.463 3.734-3.463 0.174 0 0.348 0.077 0.503 0.193l2.67 2.070c0.561-0.29 1.161-0.542 1.76-0.735 0.135-1.18 0.252-2.438 0.561-3.598 0.077-0.31 0.348-0.542 0.696-0.542h4.295c0.348 0 0.658 0.252 0.696 0.58l0.542 3.56c0.6 0.193 1.18 0.426 1.741 0.716l2.747-2.070c0.116-0.116 0.29-0.174 0.464-0.174s0.348 0.077 0.484 0.193c1.025 0.948 2.379 2.147 3.192 3.289 0.097 0.116 0.135 0.271 0.135 0.426 0 0.174-0.058 0.31-0.155 0.445-0.658 0.89-1.373 1.741-2.031 2.65 0.329 0.619 0.6 1.257 0.793 1.896l3.54 0.542c0.329 0.058 0.561 0.368 0.561 0.696z"></path>
</svg>
