<?xml version="1.0" encoding="utf-8"?>
<!-- Generated by IcoMoon.io -->
<!DOCTYPE svg PUBLIC "-//W3C//DTD SVG 1.1//EN" "http://www.w3.org/Graphics/SVG/1.1/DTD/svg11.dtd">
<svg version="1.1" xmlns="http://www.w3.org/2000/svg" xmlns:xlink="http://www.w3.org/1999/xlink" width="32" height="32" viewBox="0 0 32 32">
<path d="M15.016 15.992c0-2.167-1.767-3.934-3.934-3.934s-3.934 1.767-3.934 3.934 1.767 3.934 3.934 3.934 3.934-1.767 3.934-3.934zM26.82 23.861c0-1.076-0.891-1.967-1.967-1.967s-1.967 0.891-1.967 1.967c0 1.091 0.891 1.967 1.967 1.967 1.091 0 1.967-0.891 1.967-1.967zM26.82 8.124c0-1.076-0.891-1.967-1.967-1.967s-1.967 0.891-1.967 1.967c0 1.091 0.891 1.967 1.967 1.967 1.091 0 1.967-0.891 1.967-1.967zM20.918 14.594v2.843c0 0.2-0.154 0.43-0.354 0.461l-2.382 0.369c-0.123 0.4-0.292 0.784-0.492 1.168 0.43 0.615 0.891 1.183 1.383 1.767 0.061 0.092 0.108 0.184 0.108 0.307 0 0.108-0.031 0.215-0.108 0.292-0.307 0.415-2.029 2.29-2.474 2.29-0.123 0-0.231-0.046-0.323-0.108l-1.767-1.383c-0.384 0.2-0.768 0.354-1.183 0.476-0.077 0.784-0.154 1.629-0.354 2.382-0.062 0.215-0.246 0.369-0.461 0.369h-2.859c-0.215 0-0.43-0.169-0.461-0.384l-0.354-2.351c-0.4-0.123-0.784-0.292-1.153-0.476l-1.814 1.368c-0.077 0.077-0.2 0.108-0.307 0.108-0.123 0-0.231-0.046-0.323-0.123-0.4-0.369-2.213-2.013-2.213-2.459 0-0.108 0.046-0.2 0.108-0.292 0.446-0.584 0.907-1.153 1.352-1.752-0.215-0.415-0.4-0.83-0.538-1.26l-2.336-0.369c-0.215-0.031-0.369-0.231-0.369-0.446v-2.843c0-0.2 0.154-0.43 0.353-0.461l2.382-0.369c0.123-0.4 0.292-0.784 0.492-1.168-0.43-0.615-0.891-1.183-1.383-1.767-0.062-0.092-0.108-0.2-0.108-0.307s0.031-0.215 0.108-0.307c0.307-0.415 2.029-2.275 2.474-2.275 0.123 0 0.231 0.046 0.323 0.108l1.767 1.383c0.384-0.2 0.768-0.354 1.183-0.492 0.077-0.768 0.154-1.614 0.354-2.367 0.062-0.215 0.246-0.369 0.461-0.369h2.859c0.215 0 0.43 0.169 0.461 0.384l0.354 2.351c0.4 0.123 0.784 0.292 1.153 0.476l1.814-1.368c0.092-0.077 0.2-0.108 0.307-0.108 0.123 0 0.231 0.046 0.323 0.123 0.4 0.369 2.213 2.029 2.213 2.459 0 0.108-0.046 0.2-0.108 0.292-0.446 0.599-0.907 1.153-1.337 1.752 0.2 0.415 0.384 0.83 0.523 1.26l2.336 0.354c0.215 0.046 0.369 0.246 0.369 0.461zM30.754 22.785v2.152c0 0.231-1.983 0.446-2.29 0.476-0.123 0.292-0.277 0.553-0.461 0.799 0.138 0.307 0.784 1.844 0.784 2.121 0 0.046-0.015 0.077-0.061 0.108-0.184 0.108-1.829 1.091-1.906 1.091-0.2 0-1.352-1.537-1.506-1.767-0.154 0.015-0.307 0.031-0.461 0.031s-0.307-0.015-0.461-0.031c-0.154 0.231-1.306 1.767-1.506 1.767-0.077 0-1.721-0.984-1.906-1.091-0.046-0.031-0.061-0.077-0.061-0.108 0-0.261 0.645-1.814 0.784-2.121-0.184-0.246-0.338-0.507-0.461-0.799-0.307-0.031-2.29-0.246-2.29-0.476v-2.152c0-0.231 1.983-0.446 2.29-0.476 0.123-0.277 0.277-0.553 0.461-0.799-0.138-0.307-0.784-1.86-0.784-2.121 0-0.031 0.015-0.077 0.061-0.108 0.184-0.092 1.829-1.076 1.906-1.076 0.2 0 1.352 1.521 1.506 1.752 0.154-0.015 0.307-0.031 0.461-0.031s0.307 0.015 0.461 0.031c0.43-0.599 0.891-1.199 1.414-1.721l0.092-0.031c0.077 0 1.721 0.968 1.906 1.076 0.046 0.031 0.061 0.077 0.061 0.108 0 0.277-0.645 1.814-0.784 2.121 0.184 0.246 0.338 0.523 0.461 0.799 0.307 0.031 2.29 0.246 2.29 0.476zM30.754 7.048v2.152c0 0.231-1.983 0.446-2.29 0.476-0.123 0.292-0.277 0.553-0.461 0.799 0.138 0.307 0.784 1.844 0.784 2.121 0 0.046-0.015 0.077-0.061 0.108-0.184 0.108-1.829 1.091-1.906 1.091-0.2 0-1.352-1.537-1.506-1.767-0.154 0.015-0.307 0.031-0.461 0.031s-0.307-0.015-0.461-0.031c-0.154 0.231-1.306 1.767-1.506 1.767-0.077 0-1.721-0.984-1.906-1.091-0.046-0.031-0.061-0.077-0.061-0.108 0-0.261 0.645-1.814 0.784-2.121-0.184-0.246-0.338-0.507-0.461-0.799-0.307-0.031-2.29-0.246-2.29-0.476v-2.152c0-0.231 1.983-0.446 2.29-0.476 0.123-0.277 0.277-0.553 0.461-0.799-0.138-0.307-0.784-1.86-0.784-2.121 0-0.031 0.015-0.077 0.061-0.108 0.184-0.092 1.829-1.076 1.906-1.076 0.2 0 1.352 1.522 1.506 1.752 0.154-0.015 0.307-0.031 0.461-0.031s0.307 0.015 0.461 0.031c0.43-0.599 0.891-1.199 1.414-1.721l0.092-0.031c0.077 0 1.721 0.968 1.906 1.076 0.046 0.031 0.061 0.077 0.061 0.108 0 0.277-0.645 1.814-0.784 2.121 0.184 0.246 0.338 0.523 0.461 0.799 0.307 0.031 2.29 0.246 2.29 0.476z"></path>
</svg>
