<?xml version="1.0" encoding="utf-8"?>
<!-- Generated by IcoMoon.io -->
<!DOCTYPE svg PUBLIC "-//W3C//DTD SVG 1.1//EN" "http://www.w3.org/Graphics/SVG/1.1/DTD/svg11.dtd">
<svg version="1.1" xmlns="http://www.w3.org/2000/svg" xmlns:xlink="http://www.w3.org/1999/xlink" width="32" height="32" viewBox="0 0 32 32">
<path d="M11.817 14.154c0-1.16-0.931-2.091-2.091-2.091s-2.091 0.931-2.091 2.091 0.931 2.091 2.091 2.091 2.091-0.931 2.091-2.091zM18.091 14.154c0-1.16-0.931-2.091-2.091-2.091s-2.091 0.931-2.091 2.091 0.931 2.091 2.091 2.091 2.091-0.931 2.091-2.091zM24.366 14.154c0-1.16-0.931-2.091-2.091-2.091s-2.091 0.931-2.091 2.091 0.931 2.091 2.091 2.091 2.091-0.931 2.091-2.091zM30.64 14.154c0 5.784-6.552 10.457-14.64 10.457-1.193 0-2.353-0.098-3.448-0.294-1.863 1.863-4.297 3.137-7.108 3.742-0.441 0.082-0.915 0.163-1.405 0.212-0.261 0.033-0.506-0.147-0.572-0.392v0c-0.065-0.261 0.131-0.425 0.327-0.605 1.029-0.964 2.255-1.732 2.68-5.18-3.121-1.912-5.114-4.755-5.114-7.941 0-5.784 6.552-10.457 14.64-10.457s14.64 4.673 14.64 10.457z"></path>
</svg>
