<?xml version="1.0" encoding="utf-8"?>
<!-- Generated by IcoMoon.io -->
<!DOCTYPE svg PUBLIC "-//W3C//DTD SVG 1.1//EN" "http://www.w3.org/Graphics/SVG/1.1/DTD/svg11.dtd">
<svg version="1.1" xmlns="http://www.w3.org/2000/svg" xmlns:xlink="http://www.w3.org/1999/xlink" width="32" height="32" viewBox="0 0 32 32">
<path d="M11.809 13.905c0 1.162-0.933 2.095-2.095 2.095s-2.095-0.933-2.095-2.095 0.933-2.095 2.095-2.095 2.095 0.933 2.095 2.095zM18.095 13.905c0 1.162-0.933 2.095-2.095 2.095s-2.095-0.933-2.095-2.095 0.933-2.095 2.095-2.095 2.095 0.933 2.095 2.095zM24.381 13.905c0 1.162-0.933 2.095-2.095 2.095s-2.095-0.933-2.095-2.095 0.933-2.095 2.095-2.095 2.095 0.933 2.095 2.095zM16 5.524c-6.809 0-12.571 3.83-12.571 8.381 0 2.439 1.637 4.763 4.469 6.368l1.424 0.818-0.442 1.571c-0.311 1.162-0.72 2.063-1.146 2.815 1.653-0.688 3.159-1.621 4.501-2.799l0.704-0.622 0.933 0.098c0.704 0.082 1.424 0.131 2.128 0.131 6.809 0 12.571-3.83 12.571-8.381s-5.762-8.381-12.571-8.381zM30.667 13.905c0 5.795-6.564 10.476-14.667 10.476-0.802 0-1.604-0.049-2.373-0.131-2.144 1.899-4.698 3.241-7.53 3.961-0.589 0.164-1.228 0.278-1.866 0.36h-0.082c-0.327 0-0.622-0.262-0.704-0.622v-0.016c-0.082-0.409 0.196-0.655 0.442-0.949 1.031-1.162 2.21-2.144 2.979-4.878-3.372-1.915-5.533-4.878-5.533-8.201 0-5.778 6.564-10.476 14.667-10.476v0c8.103 0 14.667 4.698 14.667 10.476z"></path>
</svg>
