<?xml version="1.0" encoding="utf-8"?>
<!-- Generated by IcoMoon.io -->
<!DOCTYPE svg PUBLIC "-//W3C//DTD SVG 1.1//EN" "http://www.w3.org/Graphics/SVG/1.1/DTD/svg11.dtd">
<svg version="1.1" xmlns="http://www.w3.org/2000/svg" xmlns:xlink="http://www.w3.org/1999/xlink" width="32" height="32" viewBox="0 0 32 32">
<path d="M24.313 12.866c0 4.595-5.114 8.313-11.43 8.313-0.99 0-1.948-0.097-2.858-0.26-1.348 0.958-2.874 1.656-4.514 2.078-0.438 0.114-0.909 0.195-1.396 0.26h-0.049c-0.244 0-0.471-0.195-0.52-0.471v0c-0.065-0.308 0.146-0.503 0.325-0.714 0.633-0.714 1.348-1.348 1.9-2.695-2.63-1.526-4.319-3.88-4.319-6.511 0-4.595 5.114-8.313 11.43-8.313s11.43 3.718 11.43 8.313zM30.547 17.023c0 2.646-1.689 4.985-4.319 6.511 0.552 1.348 1.266 1.981 1.9 2.695 0.179 0.211 0.39 0.406 0.325 0.714v0c-0.065 0.292-0.308 0.503-0.568 0.471-0.487-0.065-0.958-0.146-1.396-0.26-1.64-0.422-3.166-1.12-4.514-2.078-0.909 0.162-1.867 0.26-2.858 0.26-2.939 0-5.634-0.812-7.663-2.143 0.471 0.032 0.958 0.065 1.429 0.065 3.491 0 6.787-1.007 9.303-2.825 2.711-1.981 4.205-4.66 4.205-7.566 0-0.844-0.13-1.672-0.373-2.468 2.744 1.51 4.53 3.913 4.53 6.624z"></path>
</svg>
