<?xml version="1.0" encoding="utf-8"?>
<!-- Generated by IcoMoon.io -->
<!DOCTYPE svg PUBLIC "-//W3C//DTD SVG 1.1//EN" "http://www.w3.org/Graphics/SVG/1.1/DTD/svg11.dtd">
<svg version="1.1" xmlns="http://www.w3.org/2000/svg" xmlns:xlink="http://www.w3.org/1999/xlink" width="32" height="32" viewBox="0 0 32 32">
<path d="M16 17.259v8.816c0 0.689-0.571 1.259-1.259 1.259-0.335 0-0.649-0.138-0.886-0.374l-2.834-2.834-6.533 6.533c-0.118 0.118-0.295 0.197-0.453 0.197s-0.335-0.079-0.453-0.197l-2.243-2.243c-0.118-0.118-0.197-0.295-0.197-0.453s0.079-0.335 0.197-0.453l6.533-6.533-2.834-2.834c-0.236-0.236-0.374-0.551-0.374-0.886 0-0.689 0.571-1.259 1.259-1.259h8.816c0.689 0 1.259 0.571 1.259 1.259zM30.857 4.036c0 0.157-0.079 0.335-0.197 0.453l-6.533 6.533 2.834 2.834c0.236 0.236 0.374 0.551 0.374 0.886 0 0.689-0.571 1.259-1.259 1.259h-8.816c-0.689 0-1.259-0.571-1.259-1.259v-8.816c0-0.689 0.571-1.259 1.259-1.259 0.335 0 0.649 0.138 0.886 0.374l2.834 2.834 6.533-6.533c0.118-0.118 0.295-0.197 0.453-0.197s0.335 0.079 0.453 0.197l2.243 2.243c0.118 0.118 0.197 0.295 0.197 0.453z"></path>
</svg>
