<?xml version="1.0" encoding="utf-8"?>
<!-- Generated by IcoMoon.io -->
<!DOCTYPE svg PUBLIC "-//W3C//DTD SVG 1.1//EN" "http://www.w3.org/Graphics/SVG/1.1/DTD/svg11.dtd">
<svg version="1.1" xmlns="http://www.w3.org/2000/svg" xmlns:xlink="http://www.w3.org/1999/xlink" width="32" height="32" viewBox="0 0 32 32">
<path d="M30.694 15.986c0 0.402-0.287 0.732-0.66 0.804l-2.942 5.108c0.029 0.086 0.043 0.172 0.043 0.258 0 0.387-0.273 0.717-0.646 0.789l-2.769 4.836c0.029 0.072 0.043 0.143 0.043 0.23 0 0.445-0.359 0.818-0.818 0.818-0.23 0-0.445-0.1-0.588-0.258h-5.74c-0.143 0.172-0.373 0.287-0.617 0.287s-0.474-0.115-0.617-0.287h-5.725c-0.143 0.172-0.359 0.287-0.617 0.287-0.445 0-0.818-0.359-0.818-0.818 0-0.1 0.029-0.201 0.057-0.287l-2.769-4.807c-0.373-0.072-0.646-0.402-0.646-0.789 0-0.1 0.014-0.172 0.043-0.258l-2.956-5.108c-0.373-0.086-0.646-0.416-0.646-0.804 0-0.402 0.287-0.732 0.674-0.804l2.856-4.936c0-0.029-0.014-0.057-0.014-0.086 0-0.33 0.201-0.603 0.488-0.732l2.999-5.209c-0.029-0.072-0.057-0.172-0.057-0.258 0-0.459 0.373-0.818 0.818-0.818 0.258 0 0.474 0.115 0.631 0.301h5.682c0.143-0.187 0.359-0.301 0.617-0.301s0.474 0.115 0.617 0.301h5.711c0.158-0.187 0.373-0.301 0.631-0.301 0.445 0 0.818 0.359 0.818 0.818 0 0.086-0.029 0.172-0.057 0.258l2.97 5.137c0.43 0.014 0.789 0.373 0.789 0.804 0 0.143-0.043 0.273-0.1 0.387l2.683 4.649c0.359 0.072 0.631 0.402 0.631 0.789zM16.56 27.451h5.582l-4.908-5.080h-2.052l-4.908 5.080h5.166c0.143-0.129 0.344-0.23 0.56-0.23s0.416 0.1 0.56 0.23zM2.913 15.799c0.014 0.057 0.014 0.115 0.014 0.187s0 0.144-0.029 0.215l2.985 5.166c0.072 0.014 0.144 0.057 0.215 0.086l2.698-2.856v-4.979l-2.683-2.784c-0.129 0.086-0.273 0.129-0.416 0.143zM15.455 4.549h-5.568l2.726 2.87 7.95-2.87h-4.018c-0.143 0.144-0.33 0.23-0.545 0.23s-0.402-0.086-0.545-0.23zM25.542 21.941c0.014-0.057 0.043-0.115 0.072-0.158l-0.918-0.976-0.244 1.134h1.091zM24.021 21.941l0.316-1.507-3.616-3.817-4.247 4.405 0.904 0.918h6.644zM22.759 27.221l0.23-0.402 0.933-4.448h-6.127l4.778 4.922c0.057-0.029 0.115-0.057 0.187-0.072zM9.6 27.451h0.072l4.908-5.080h-5.352v4.807l0.057 0.086c0.129 0.043 0.23 0.1 0.316 0.187zM9.227 21.941h5.768l0.918-0.947-4.434-4.606-2.253 2.382v3.171zM6.458 21.941h2.339v-2.712l-2.411 2.54c0.029 0.057 0.057 0.115 0.072 0.172zM6.443 10.102c0 0.014 0.014 0.043 0.014 0.057 0 0.158-0.043 0.301-0.115 0.416l2.454 2.54v-3.86zM9.227 9.098v4.463l2.195 2.253 4.262-4.506-3.2-3.386zM9.284 4.736l-0.057 0.115v3.788l2.942-1.062-2.741-2.884c-0.043 0.014-0.086 0.029-0.143 0.043zM22.070 4.549h-0.23l-8.911 3.214 3.056 3.229zM15.986 11.609l-4.262 4.52 4.463 4.578 4.247-4.405zM11.178 16.086l-1.952-2.023v4.075zM16.201 21.309l-0.603 0.631h1.22zM21.022 16.316l3.415 3.602 1.894-8.954-0.043-0.072-0.014-0.014zM25.959 10.576c-0.072-0.115-0.115-0.258-0.115-0.416v-0.029l-3.099-5.395c-0.072-0.014-0.129-0.043-0.187-0.072l-6.271 6.644 4.448 4.692zM8.796 8.797v-3.2l-2.339 4.047zM8.796 22.371h-2.339l2.339 4.061v-4.061zM24.366 22.371l-0.689 3.257 1.865-3.257h-1.177zM26.116 21.367l2.97-5.18c-0.014-0.072-0.029-0.129-0.029-0.201 0-0.086 0.029-0.158 0.043-0.23l-2.454-4.247-1.851 8.782 1.105 1.177c0.072-0.043 0.143-0.072 0.215-0.1z"></path>
</svg>
