<?xml version="1.0" encoding="utf-8"?>
<!-- Generated by IcoMoon.io -->
<!DOCTYPE svg PUBLIC "-//W3C//DTD SVG 1.1//EN" "http://www.w3.org/Graphics/SVG/1.1/DTD/svg11.dtd">
<svg version="1.1" xmlns="http://www.w3.org/2000/svg" xmlns:xlink="http://www.w3.org/1999/xlink" width="32" height="32" viewBox="0 0 32 32">
<path d="M3.252 3.083h3.313c-0.79 0.723-1.497 1.564-2.119 2.506-2.607 4.020-1.547 8.426-0.538 13.169 0.824 3.851 1.514 7.518 3.919 10.158h-4.575c-1.076 0-1.951-0.875-1.951-1.951v-21.931c0-1.076 0.875-1.951 1.951-1.951zM23.568 3.083h5.18c1.076 0 1.951 0.875 1.951 1.951v21.931c0 1.076-0.875 1.951-1.951 1.951h-2.994c2.22-2.203 3.481-5.399 3.296-9.502l-7.888 1.699c-0.101 1.867-0.74 3.666-3.296 4.205-1.43 0.303-2.607-0.034-3.347-0.673-0.908-0.774-1.631-1.783-2.842-7.535-1.228-5.769-0.975-6.98-0.471-8.056 0.42-0.875 1.362-1.682 2.775-1.985 2.573-0.538 3.885 0.858 4.743 2.523l7.871-1.682c-0.774-1.985-1.8-3.599-3.027-4.827z"></path>
</svg>
