<?xml version="1.0" encoding="utf-8"?>
<!-- Generated by IcoMoon.io -->
<!DOCTYPE svg PUBLIC "-//W3C//DTD SVG 1.1//EN" "http://www.w3.org/Graphics/SVG/1.1/DTD/svg11.dtd">
<svg version="1.1" xmlns="http://www.w3.org/2000/svg" xmlns:xlink="http://www.w3.org/1999/xlink" width="32" height="32" viewBox="0 0 32 32">
<path d="M23.39 19.443v2.109c0 2.728-4.353 3.734-7.080 3.734-5.301 0-9.286-4.043-9.286-9.382 0-5.243 3.946-9.189 9.189-9.189 1.915 0 6.926 0.677 6.926 3.753v2.109c0 0.174-0.135 0.31-0.31 0.31h-2.283c-0.174 0-0.31-0.135-0.31-0.31v-1.354c0-1.219-2.341-1.78-3.927-1.78-3.618 0-6.132 2.612-6.132 6.365 0 3.888 2.631 6.732 6.287 6.732 1.393 0 4.024-0.522 4.024-1.741v-1.354c0-0.174 0.135-0.31 0.29-0.31h2.302c0.155 0 0.31 0.135 0.31 0.31zM16 3.619c-6.829 0-12.381 5.552-12.381 12.381s5.552 12.381 12.381 12.381 12.381-5.552 12.381-12.381-5.552-12.381-12.381-12.381zM30.857 16c0 8.202-6.655 14.857-14.857 14.857s-14.857-6.655-14.857-14.857 6.655-14.857 14.857-14.857v0c8.202 0 14.857 6.655 14.857 14.857z"></path>
</svg>
