<?xml version="1.0" encoding="utf-8"?>
<!-- Generated by IcoMoon.io -->
<!DOCTYPE svg PUBLIC "-//W3C//DTD SVG 1.1//EN" "http://www.w3.org/Graphics/SVG/1.1/DTD/svg11.dtd">
<svg version="1.1" xmlns="http://www.w3.org/2000/svg" xmlns:xlink="http://www.w3.org/1999/xlink" width="32" height="32" viewBox="0 0 32 32">
<path d="M29.265 7.51c0.879 0 1.592 0.713 1.592 1.592v20.163c0 0.879-0.713 1.592-1.592 1.592h-15.918c-0.879 0-1.592-0.713-1.592-1.592v-4.776h-9.020c-0.879 0-1.592-0.713-1.592-1.592v-11.143c0-0.879 0.514-2.106 1.128-2.719l6.765-6.765c0.614-0.614 1.841-1.128 2.719-1.128h6.898c0.879 0 1.592 0.713 1.592 1.592v5.439c0.647-0.381 1.476-0.663 2.122-0.663h6.898zM20.245 11.042l-4.958 4.958h4.958v-4.958zM9.633 4.675l-4.958 4.958h4.958v-4.958zM12.883 15.403l5.24-5.24v-6.898h-6.367v6.898c0 0.879-0.713 1.592-1.592 1.592h-6.898v10.612h8.49v-4.245c0-0.879 0.514-2.106 1.128-2.719zM28.735 28.735v-19.102h-6.367v6.898c0 0.879-0.713 1.592-1.592 1.592h-6.898v10.612h14.857z"></path>
</svg>
