<?xml version="1.0" encoding="utf-8"?>
<!-- Generated by IcoMoon.io -->
<!DOCTYPE svg PUBLIC "-//W3C//DTD SVG 1.1//EN" "http://www.w3.org/Graphics/SVG/1.1/DTD/svg11.dtd">
<svg version="1.1" xmlns="http://www.w3.org/2000/svg" xmlns:xlink="http://www.w3.org/1999/xlink" width="32" height="32" viewBox="0 0 32 32">
<path d="M11.175 21.588c2.719 0 4.195-1.658 4.261-1.724 0.133-0.166 0.166-0.415 0.050-0.597l-0.746-1.36c-0.066-0.149-0.232-0.249-0.398-0.282-0.166-0.017-0.332 0.050-0.448 0.182-0.017 0-1.061 1.111-2.587 1.111-1.675 0-2.885-1.227-2.885-2.935 0-1.691 1.177-2.902 2.819-2.902 1.376 0 2.288 0.929 2.288 0.929 0.116 0.116 0.265 0.182 0.431 0.166s0.315-0.1 0.398-0.232l0.879-1.293c0.133-0.199 0.116-0.464-0.033-0.647-0.050-0.066-1.393-1.592-4.029-1.592-3.267 0-5.704 2.404-5.704 5.588 0 3.233 2.388 5.588 5.704 5.588zM21.621 21.588c2.736 0 4.195-1.658 4.261-1.724 0.133-0.166 0.166-0.415 0.066-0.597l-0.746-1.36c-0.083-0.149-0.232-0.249-0.415-0.282-0.166-0.017-0.332 0.050-0.448 0.182-0.017 0-1.061 1.111-2.587 1.111-1.675 0-2.885-1.227-2.885-2.935 0-1.691 1.177-2.902 2.819-2.902 1.393 0 2.288 0.929 2.288 0.929 0.116 0.116 0.265 0.182 0.431 0.166s0.315-0.1 0.398-0.232l0.879-1.293c0.133-0.199 0.116-0.464-0.033-0.647-0.050-0.066-1.393-1.592-4.029-1.592-3.25 0-5.704 2.404-5.704 5.588 0 3.233 2.388 5.588 5.704 5.588zM16 3.796c-6.732 0-12.204 5.472-12.204 12.204s5.472 12.204 12.204 12.204 12.204-5.472 12.204-12.204-5.472-12.204-12.204-12.204zM16 1.143c8.208 0 14.857 6.649 14.857 14.857s-6.649 14.857-14.857 14.857-14.857-6.649-14.857-14.857 6.649-14.857 14.857-14.857z"></path>
</svg>
