<?xml version="1.0" encoding="utf-8"?>
<!-- Generated by IcoMoon.io -->
<!DOCTYPE svg PUBLIC "-//W3C//DTD SVG 1.1//EN" "http://www.w3.org/Graphics/SVG/1.1/DTD/svg11.dtd">
<svg version="1.1" xmlns="http://www.w3.org/2000/svg" xmlns:xlink="http://www.w3.org/1999/xlink" width="32" height="32" viewBox="0 0 32 32">
<path d="M28.143 4.343c1.336 0 2.429 1.093 2.429 2.429v18.457c0 1.336-1.093 2.429-2.429 2.429h-24.286c-1.336 0-2.429-1.093-2.429-2.429v-18.457c0-1.336 1.093-2.429 2.429-2.429h24.286zM3.857 6.286c-0.258 0-0.486 0.228-0.486 0.486v3.4h25.257v-3.4c0-0.258-0.228-0.486-0.486-0.486h-24.286zM28.143 25.714c0.258 0 0.486-0.228 0.486-0.486v-9.229h-25.257v9.229c0 0.258 0.228 0.486 0.486 0.486h24.286zM5.314 23.771v-1.943h3.886v1.943h-3.886zM11.143 23.771v-1.943h5.829v1.943h-5.829z"></path>
</svg>
