<?xml version="1.0" encoding="utf-8"?>
<!-- Generated by IcoMoon.io -->
<!DOCTYPE svg PUBLIC "-//W3C//DTD SVG 1.1//EN" "http://www.w3.org/Graphics/SVG/1.1/DTD/svg11.dtd">
<svg version="1.1" xmlns="http://www.w3.org/2000/svg" xmlns:xlink="http://www.w3.org/1999/xlink" width="32" height="32" viewBox="0 0 32 32">
<path d="M11.098 21.731h10.606v-10.606zM10.296 20.929l10.606-10.606h-10.606v10.606zM30.83 22.301v3.422c0 0.321-0.25 0.57-0.57 0.57h-3.993v3.993c0 0.321-0.25 0.57-0.57 0.57h-3.422c-0.321 0-0.57-0.25-0.57-0.57v-3.993h-15.401c-0.321 0-0.57-0.25-0.57-0.57v-15.401h-3.993c-0.321 0-0.57-0.25-0.57-0.57v-3.422c0-0.321 0.25-0.57 0.57-0.57h3.993v-3.993c0-0.321 0.25-0.57 0.57-0.57h3.422c0.321 0 0.57 0.25 0.57 0.57v3.993h15.169l4.385-4.403c0.232-0.214 0.588-0.214 0.82 0 0.214 0.232 0.214 0.588 0 0.82l-4.403 4.385v15.169h3.993c0.321 0 0.57 0.25 0.57 0.57z"></path>
</svg>
