<?xml version="1.0" encoding="utf-8"?>
<!-- Generated by IcoMoon.io -->
<!DOCTYPE svg PUBLIC "-//W3C//DTD SVG 1.1//EN" "http://www.w3.org/Graphics/SVG/1.1/DTD/svg11.dtd">
<svg version="1.1" xmlns="http://www.w3.org/2000/svg" xmlns:xlink="http://www.w3.org/1999/xlink" width="32" height="32" viewBox="0 0 32 32">
<path d="M24.299 18.476h-2.109c-0.677 0-1.238-0.561-1.238-1.238v-2.476c0-0.677 0.561-1.238 1.238-1.238h2.109c-0.832-2.786-3.037-4.991-5.823-5.823v2.109c0 0.677-0.561 1.238-1.238 1.238h-2.476c-0.677 0-1.238-0.561-1.238-1.238v-2.109c-2.786 0.832-4.991 3.037-5.823 5.823h2.109c0.677 0 1.238 0.561 1.238 1.238v2.476c0 0.677-0.561 1.238-1.238 1.238h-2.109c0.832 2.786 3.037 4.991 5.823 5.823v-2.109c0-0.677 0.561-1.238 1.238-1.238h2.476c0.677 0 1.238 0.561 1.238 1.238v2.109c2.786-0.832 4.991-3.037 5.823-5.823zM30.857 14.762v2.476c0 0.677-0.561 1.238-1.238 1.238h-2.766c-0.948 4.159-4.217 7.429-8.377 8.377v2.766c0 0.677-0.561 1.238-1.238 1.238h-2.476c-0.677 0-1.238-0.561-1.238-1.238v-2.766c-4.159-0.948-7.429-4.217-8.377-8.377h-2.766c-0.677 0-1.238-0.561-1.238-1.238v-2.476c0-0.677 0.561-1.238 1.238-1.238h2.766c0.948-4.159 4.217-7.429 8.377-8.377v-2.766c0-0.677 0.561-1.238 1.238-1.238h2.476c0.677 0 1.238 0.561 1.238 1.238v2.766c4.159 0.948 7.429 4.217 8.377 8.377h2.766c0.677 0 1.238 0.561 1.238 1.238z"></path>
</svg>
