<?xml version="1.0" encoding="utf-8"?>
<!-- Generated by IcoMoon.io -->
<!DOCTYPE svg PUBLIC "-//W3C//DTD SVG 1.1//EN" "http://www.w3.org/Graphics/SVG/1.1/DTD/svg11.dtd">
<svg version="1.1" xmlns="http://www.w3.org/2000/svg" xmlns:xlink="http://www.w3.org/1999/xlink" width="32" height="32" viewBox="0 0 32 32">
<path d="M9.983 25.885l5.157-2.579v-4.217l-5.157 2.203v4.593zM9.124 19.787l5.426-2.323-5.426-2.323-5.426 2.323zM23.736 25.885l5.157-2.579v-4.217l-5.157 2.203v4.593zM22.876 19.787l5.426-2.323-5.426-2.323-5.426 2.323zM16.86 15.852l5.157-2.216v-3.572l-5.157 2.203v3.586zM16 10.762l5.923-2.538-5.923-2.538-5.923 2.538zM30.612 17.719v5.587c0 0.645-0.363 1.249-0.954 1.531l-6.017 3.008c-0.242 0.134-0.497 0.188-0.766 0.188s-0.524-0.054-0.766-0.188l-6.017-3.008c-0.040-0.013-0.067-0.027-0.094-0.054-0.027 0.027-0.054 0.040-0.094 0.054l-6.017 3.008c-0.242 0.134-0.497 0.188-0.766 0.188s-0.524-0.054-0.766-0.188l-6.017-3.008c-0.591-0.282-0.954-0.886-0.954-1.531v-5.587c0-0.685 0.416-1.303 1.048-1.585l5.829-2.498v-5.372c0-0.685 0.416-1.303 1.048-1.585l6.017-2.579c0.215-0.094 0.443-0.134 0.671-0.134s0.457 0.040 0.672 0.134l6.017 2.579c0.631 0.282 1.048 0.9 1.048 1.585v5.372l5.829 2.498c0.645 0.282 1.048 0.9 1.048 1.585z"></path>
</svg>
