<?xml version="1.0" encoding="utf-8"?>
<!-- Generated by IcoMoon.io -->
<!DOCTYPE svg PUBLIC "-//W3C//DTD SVG 1.1//EN" "http://www.w3.org/Graphics/SVG/1.1/DTD/svg11.dtd">
<svg version="1.1" xmlns="http://www.w3.org/2000/svg" xmlns:xlink="http://www.w3.org/1999/xlink" width="32" height="32" viewBox="0 0 32 32">
<path d="M17.028 14.969c0.564 0 1.031 0.467 1.031 1.031s-0.467 1.031-1.031 1.031-1.031-0.467-1.031-1.031 0.467-1.031 1.031-1.031zM21.863 16l8.171 6.414c0.29 0.21 0.435 0.564 0.403 0.902-0.048 0.355-0.258 0.661-0.564 0.822l-2.063 1.031c-0.145 0.081-0.306 0.113-0.467 0.113-0.177 0-0.355-0.048-0.5-0.129l-11.12-6.237-1.773 1.064c-0.064 0.032-0.129 0.064-0.193 0.081 0.145 0.5 0.21 1.031 0.161 1.563-0.145 1.66-1.257 3.239-3.030 4.367-1.37 0.87-2.949 1.354-4.464 1.354-1.45 0-2.675-0.435-3.578-1.257-0.919-0.854-1.386-2.079-1.273-3.336 0.145-1.644 1.257-3.239 3.014-4.367 1.37-0.87 2.965-1.354 4.48-1.354 0.902 0 1.724 0.177 2.433 0.5 0.097-0.145 0.21-0.258 0.355-0.355l1.966-1.176-1.966-1.176c-0.145-0.097-0.258-0.21-0.355-0.355-0.709 0.322-1.531 0.5-2.433 0.5-1.515 0-3.11-0.483-4.48-1.354-1.757-1.128-2.869-2.723-3.014-4.367-0.113-1.257 0.355-2.482 1.273-3.32 0.902-0.838 2.127-1.273 3.578-1.273 1.515 0 3.094 0.483 4.464 1.354 1.773 1.112 2.885 2.707 3.030 4.367 0.048 0.532-0.016 1.064-0.161 1.563 0.064 0.016 0.129 0.048 0.193 0.081l1.773 1.064 11.12-6.237c0.145-0.081 0.322-0.129 0.5-0.129 0.161 0 0.322 0.032 0.467 0.113l2.063 1.031c0.306 0.161 0.516 0.467 0.564 0.822 0.032 0.338-0.113 0.693-0.403 0.902zM10.888 11.81c0.983-0.902 0.371-2.53-1.37-3.626-0.983-0.628-2.127-0.951-3.094-0.951-0.741 0-1.402 0.193-1.821 0.58-0.983 0.902-0.371 2.53 1.37 3.626 0.983 0.629 2.111 0.951 3.094 0.951 0.741 0 1.402-0.193 1.821-0.58zM9.518 23.816c1.74-1.096 2.353-2.724 1.37-3.626-0.419-0.387-1.080-0.58-1.821-0.58-0.983 0-2.111 0.322-3.094 0.951-1.74 1.096-2.353 2.724-1.37 3.626 0.419 0.387 1.080 0.58 1.821 0.58 0.967 0 2.111-0.322 3.094-0.951zM12.387 13.937l1.547 0.935v-0.177c0-0.371 0.21-0.709 0.532-0.902l0.226-0.129-1.273-0.757-0.419 0.419c-0.129 0.129-0.226 0.258-0.355 0.371-0.048 0.048-0.081 0.064-0.113 0.097zM15.997 17.547l1.547 0.516 11.861-9.283-2.063-1.031-12.377 6.946v1.821l-2.578 1.547 0.145 0.129c0.032 0.048 0.064 0.064 0.113 0.097 0.129 0.129 0.226 0.258 0.355 0.387l0.419 0.419zM27.342 24.251l2.063-1.031-8.38-6.575-2.852 2.224c-0.048 0.064-0.129 0.081-0.21 0.113z"></path>
</svg>
