<?xml version="1.0" encoding="utf-8"?>
<!-- Generated by IcoMoon.io -->
<!DOCTYPE svg PUBLIC "-//W3C//DTD SVG 1.1//EN" "http://www.w3.org/Graphics/SVG/1.1/DTD/svg11.dtd">
<svg version="1.1" xmlns="http://www.w3.org/2000/svg" xmlns:xlink="http://www.w3.org/1999/xlink" width="32" height="32" viewBox="0 0 32 32">
<path d="M14.939 2.204v10.612c0 1.343-0.862 2.554-2.122 3.001v12.917c0 1.161-0.962 2.122-2.122 2.122h-2.122c-1.161 0-2.122-0.962-2.122-2.122v-12.917c-1.26-0.448-2.122-1.658-2.122-3.001v-10.612c0-0.58 0.481-1.061 1.061-1.061s1.061 0.481 1.061 1.061v6.898c0 0.58 0.481 1.061 1.061 1.061s1.061-0.481 1.061-1.061v-6.898c0-0.58 0.481-1.061 1.061-1.061s1.061 0.481 1.061 1.061v6.898c0 0.58 0.481 1.061 1.061 1.061s1.061-0.481 1.061-1.061v-6.898c0-0.58 0.481-1.061 1.061-1.061s1.061 0.481 1.061 1.061zM27.673 2.204v26.531c0 1.161-0.962 2.122-2.122 2.122h-2.122c-1.161 0-2.122-0.962-2.122-2.122v-8.49h-3.714c-0.282 0-0.531-0.249-0.531-0.531v-13.265c0-2.918 2.388-5.306 5.306-5.306h4.245c0.58 0 1.061 0.481 1.061 1.061z"></path>
</svg>
