<?xml version="1.0" encoding="utf-8"?>
<!-- Generated by IcoMoon.io -->
<!DOCTYPE svg PUBLIC "-//W3C//DTD SVG 1.1//EN" "http://www.w3.org/Graphics/SVG/1.1/DTD/svg11.dtd">
<svg version="1.1" xmlns="http://www.w3.org/2000/svg" xmlns:xlink="http://www.w3.org/1999/xlink" width="32" height="32" viewBox="0 0 32 32">
<path d="M7.688 19.117c0-1.153-0.925-2.078-2.078-2.078s-2.078 0.925-2.078 2.078 0.925 2.078 2.078 2.078 2.078-0.925 2.078-2.078zM10.805 11.844c0-1.153-0.925-2.078-2.078-2.078s-2.078 0.925-2.078 2.078 0.925 2.078 2.078 2.078 2.078-0.925 2.078-2.078zM17.753 19.653l1.64-6.201c0.13-0.552-0.195-1.12-0.747-1.266v0c-0.552-0.146-1.12 0.195-1.266 0.747l-1.64 6.201c-1.282 0.097-2.403 0.99-2.76 2.305-0.438 1.672 0.568 3.377 2.224 3.815 1.672 0.438 3.377-0.568 3.815-2.224 0.341-1.315-0.211-2.646-1.266-3.377zM28.468 19.117c0-1.153-0.925-2.078-2.078-2.078s-2.078 0.925-2.078 2.078 0.925 2.078 2.078 2.078 2.078-0.925 2.078-2.078zM18.078 8.727c0-1.153-0.925-2.078-2.078-2.078s-2.078 0.925-2.078 2.078 0.925 2.078 2.078 2.078 2.078-0.925 2.078-2.078zM25.351 11.844c0-1.153-0.925-2.078-2.078-2.078s-2.078 0.925-2.078 2.078 0.925 2.078 2.078 2.078 2.078-0.925 2.078-2.078zM30.545 19.117c0 2.792-0.795 5.487-2.289 7.841-0.195 0.292-0.52 0.471-0.877 0.471h-22.76c-0.357 0-0.682-0.179-0.877-0.471-1.494-2.338-2.289-5.049-2.289-7.841 0-8.020 6.526-14.545 14.545-14.545s14.545 6.526 14.545 14.545z"></path>
</svg>
