<?xml version="1.0" encoding="utf-8"?>
<!-- Generated by IcoMoon.io -->
<!DOCTYPE svg PUBLIC "-//W3C//DTD SVG 1.1//EN" "http://www.w3.org/Graphics/SVG/1.1/DTD/svg11.dtd">
<svg version="1.1" xmlns="http://www.w3.org/2000/svg" xmlns:xlink="http://www.w3.org/1999/xlink" width="32" height="32" viewBox="0 0 32 32">
<path d="M16 13.878c4.991 0 9.999-0.895 12.735-2.819v2.819c0 2.338-5.704 4.245-12.735 4.245s-12.735-1.907-12.735-4.245v-2.819c2.736 1.923 7.744 2.819 12.735 2.819zM16 26.612c4.991 0 9.999-0.895 12.735-2.819v2.819c0 2.338-5.704 4.245-12.735 4.245s-12.735-1.907-12.735-4.245v-2.819c2.736 1.923 7.744 2.819 12.735 2.819zM16 20.245c4.991 0 9.999-0.895 12.735-2.819v2.819c0 2.338-5.704 4.245-12.735 4.245s-12.735-1.907-12.735-4.245v-2.819c2.736 1.923 7.744 2.819 12.735 2.819zM16 1.143c7.031 0 12.735 1.907 12.735 4.245v2.122c0 2.338-5.704 4.245-12.735 4.245s-12.735-1.907-12.735-4.245v-2.122c0-2.338 5.704-4.245 12.735-4.245z"></path>
</svg>
