<?xml version="1.0" encoding="utf-8"?>
<!-- Generated by IcoMoon.io -->
<!DOCTYPE svg PUBLIC "-//W3C//DTD SVG 1.1//EN" "http://www.w3.org/Graphics/SVG/1.1/DTD/svg11.dtd">
<svg version="1.1" xmlns="http://www.w3.org/2000/svg" xmlns:xlink="http://www.w3.org/1999/xlink" width="32" height="32" viewBox="0 0 32 32">
<path d="M18.641 14.944c0 0.578 0.479 1.056 1.056 1.056s1.056-0.479 1.056-1.056c0-3.203-2.608-5.811-5.811-5.811s-5.811 2.608-5.811 5.811c0 0.578 0.479 1.056 1.056 1.056s1.056-0.479 1.056-1.056c0-2.047 1.667-3.698 3.698-3.698s3.698 1.651 3.698 3.698zM14.993 5.435c-5.249 0-9.509 4.259-9.509 9.509 0 0.578 0.479 1.056 1.056 1.056s1.056-0.479 1.056-1.056c0-4.077 3.318-7.396 7.396-7.396s7.396 3.318 7.396 7.396c0 1.948-0.875 2.955-1.898 4.127-1.106 1.271-2.377 2.724-2.377 5.382 0 2.328-1.898 4.226-4.226 4.226-0.578 0-1.056 0.479-1.056 1.056s0.479 1.056 1.056 1.056c3.5 0 6.339-2.839 6.339-6.339 0-1.865 0.825-2.806 1.865-3.995 1.123-1.304 2.41-2.773 2.41-5.514 0-5.25-4.259-9.509-9.509-9.509zM10.965 17.304l3.731 3.731-9.558 9.558c-0.264 0.264-0.693 0.264-0.957 0l-2.773-2.773c-0.264-0.264-0.264-0.693 0-0.957zM27.82 1.407l2.773 2.773c0.264 0.264 0.264 0.693 0 0.974l-3.846 3.846-0.429 0.413-1.172 1.172c-0.71-1.651-1.799-3.104-3.219-4.259l4.919-4.919c0.281-0.264 0.71-0.264 0.974 0z"></path>
</svg>
