<?xml version="1.0" encoding="utf-8"?>
<!-- Generated by IcoMoon.io -->
<!DOCTYPE svg PUBLIC "-//W3C//DTD SVG 1.1//EN" "http://www.w3.org/Graphics/SVG/1.1/DTD/svg11.dtd">
<svg version="1.1" xmlns="http://www.w3.org/2000/svg" xmlns:xlink="http://www.w3.org/1999/xlink" width="32" height="32" viewBox="0 0 32 32">
<path d="M28.724 18.447v-12.724c0-0.26-0.229-0.489-0.489-0.489h-24.469c-0.26 0-0.489 0.229-0.489 0.489v12.724c0 0.26 0.229 0.489 0.489 0.489h24.469c0.26 0 0.489-0.229 0.489-0.489zM30.681 5.723v16.639c0 1.346-1.101 2.447-2.447 2.447h-8.319c0 1.3 0.979 2.401 0.979 2.936s-0.443 0.979-0.979 0.979h-7.83c-0.535 0-0.979-0.443-0.979-0.979 0-0.566 0.979-1.606 0.979-2.936h-8.319c-1.346 0-2.447-1.101-2.447-2.447v-16.639c0-1.346 1.101-2.447 2.447-2.447h24.469c1.346 0 2.447 1.101 2.447 2.447z"></path>
</svg>
