<?xml version="1.0" encoding="utf-8"?>
<!-- Generated by IcoMoon.io -->
<!DOCTYPE svg PUBLIC "-//W3C//DTD SVG 1.1//EN" "http://www.w3.org/Graphics/SVG/1.1/DTD/svg11.dtd">
<svg version="1.1" xmlns="http://www.w3.org/2000/svg" xmlns:xlink="http://www.w3.org/1999/xlink" width="32" height="32" viewBox="0 0 32 32">
<path d="M4.502 13.281l8.822 9.417-4.248-9.417h-4.574zM16 24.213l4.942-10.932h-9.884zM9.118 11.469l2.889-5.438h-3.71l-4.078 5.438h4.899zM18.676 22.698l8.822-9.417h-4.574zM11.171 11.469h9.657l-2.889-5.438h-3.88zM22.882 11.469h4.899l-4.078-5.438h-3.71zM24.879 4.587l5.438 7.25c0.269 0.34 0.241 0.835-0.057 1.161l-13.594 14.5c-0.17 0.184-0.411 0.283-0.666 0.283s-0.496-0.099-0.666-0.283l-13.594-14.5c-0.297-0.326-0.326-0.821-0.057-1.161l5.438-7.25c0.17-0.241 0.439-0.368 0.722-0.368h16.313c0.283 0 0.552 0.127 0.722 0.368z"></path>
</svg>
