<?xml version="1.0" encoding="utf-8"?>
<!-- Generated by IcoMoon.io -->
<!DOCTYPE svg PUBLIC "-//W3C//DTD SVG 1.1//EN" "http://www.w3.org/Graphics/SVG/1.1/DTD/svg11.dtd">
<svg version="1.1" xmlns="http://www.w3.org/2000/svg" xmlns:xlink="http://www.w3.org/1999/xlink" width="32" height="32" viewBox="0 0 32 32">
<path d="M6.42 7.549h2.808v13.53h-7.322v-9.593h4.514v-3.936zM6.42 18.822v-5.079h-1.693v5.079h1.693zM10.357 11.486v9.593h2.822v-9.593h-2.822zM10.357 7.549v2.808h2.822v-2.808h-2.822zM14.307 11.486h7.336v12.965h-7.336v-2.243h4.514v-1.129h-4.514v-9.593zM18.822 18.822v-5.079h-1.693v5.079h1.693zM22.772 11.486h7.322v12.965h-7.322v-2.243h4.501v-1.129h-4.501v-9.593zM27.272 18.822v-5.079h-1.693v5.079h1.693z"></path>
</svg>
