<?xml version="1.0" encoding="utf-8"?>
<!-- Generated by IcoMoon.io -->
<!DOCTYPE svg PUBLIC "-//W3C//DTD SVG 1.1//EN" "http://www.w3.org/Graphics/SVG/1.1/DTD/svg11.dtd">
<svg version="1.1" xmlns="http://www.w3.org/2000/svg" xmlns:xlink="http://www.w3.org/1999/xlink" width="32" height="32" viewBox="0 0 32 32">
<path d="M23.726 20.792c0 3.383-2.421 6.052-5.936 6.633v2.902c0 0.298-0.232 0.531-0.531 0.531h-2.239c-0.282 0-0.531-0.232-0.531-0.531v-2.902c-3.88-0.547-6.003-2.869-6.085-2.968-0.166-0.199-0.182-0.481-0.033-0.68l1.708-2.239c0.083-0.116 0.232-0.182 0.381-0.199s0.298 0.033 0.398 0.149c0.033 0.017 2.355 2.239 5.29 2.239 1.625 0 3.383-0.862 3.383-2.736 0-1.592-1.957-2.371-4.195-3.267-2.985-1.177-6.699-2.67-6.699-6.832 0-3.051 2.388-5.571 5.853-6.235v-2.985c0-0.298 0.249-0.531 0.531-0.531h2.239c0.298 0 0.531 0.232 0.531 0.531v2.918c3.366 0.381 5.157 2.205 5.223 2.272 0.166 0.182 0.199 0.431 0.083 0.63l-1.343 2.421c-0.083 0.149-0.216 0.249-0.381 0.265-0.166 0.033-0.315-0.017-0.448-0.116-0.017-0.017-2.023-1.791-4.51-1.791-2.106 0-3.565 1.045-3.565 2.554 0 1.758 2.023 2.537 4.378 3.449 3.051 1.177 6.5 2.52 6.5 6.517z"></path>
</svg>
