<?xml version="1.0" encoding="utf-8"?>
<!-- Generated by IcoMoon.io -->
<!DOCTYPE svg PUBLIC "-//W3C//DTD SVG 1.1//EN" "http://www.w3.org/Graphics/SVG/1.1/DTD/svg11.dtd">
<svg version="1.1" xmlns="http://www.w3.org/2000/svg" xmlns:xlink="http://www.w3.org/1999/xlink" width="32" height="32" viewBox="0 0 32 32">
<path d="M20.952 16c0 2.728-2.225 4.952-4.952 4.952s-4.952-2.225-4.952-4.952 2.225-4.952 4.952-4.952 4.952 2.225 4.952 4.952zM16 5.476c-5.804 0-10.524 4.72-10.524 10.524s4.72 10.524 10.524 10.524 10.524-4.72 10.524-10.524-4.72-10.524-10.524-10.524zM30.857 16c0 8.202-6.655 14.857-14.857 14.857s-14.857-6.655-14.857-14.857 6.655-14.857 14.857-14.857v0c8.202 0 14.857 6.655 14.857 14.857z"></path>
</svg>
