<?xml version="1.0" encoding="utf-8"?>
<!-- Generated by IcoMoon.io -->
<!DOCTYPE svg PUBLIC "-//W3C//DTD SVG 1.1//EN" "http://www.w3.org/Graphics/SVG/1.1/DTD/svg11.dtd">
<svg version="1.1" xmlns="http://www.w3.org/2000/svg" xmlns:xlink="http://www.w3.org/1999/xlink" width="32" height="32" viewBox="0 0 32 32">
<path d="M20.952 27.685c-0.193-1.122-0.929-4.991-2.708-9.634-0.019 0-0.058 0.019-0.077 0.019 0 0-7.525 2.631-9.963 7.932-0.116-0.097-0.29-0.213-0.29-0.213 2.205 1.799 5.010 2.902 8.086 2.902 1.76 0 3.424-0.368 4.952-1.006zM17.374 15.942c-0.31-0.716-0.658-1.432-1.025-2.147-6.539 1.954-12.807 1.799-13.019 1.799-0.019 0.135-0.019 0.271-0.019 0.406 0 3.25 1.238 6.229 3.25 8.473v0c3.463-6.171 10.311-8.377 10.311-8.377 0.174-0.058 0.348-0.097 0.503-0.155zM15.304 11.841c-2.205-3.908-4.546-7.080-4.72-7.313-3.54 1.664-6.171 4.933-7.003 8.86 0.329 0 5.629 0.058 11.723-1.548zM28.536 18.012c-0.271-0.077-3.811-1.199-7.912-0.561 1.664 4.585 2.341 8.318 2.476 9.073 2.844-1.915 4.856-4.972 5.436-8.512zM12.963 3.677c-0.019 0-0.019 0-0.039 0.019 0 0 0.019-0.019 0.039-0.019zM24.377 6.482c-2.225-1.973-5.165-3.173-8.377-3.173-1.025 0-2.031 0.135-2.998 0.368 0.193 0.252 2.592 3.405 4.759 7.39 4.778-1.78 6.577-4.527 6.616-4.585zM28.69 15.865c-0.039-2.998-1.103-5.765-2.882-7.932-0.039 0.039-2.070 2.979-7.080 5.030 0.29 0.6 0.58 1.219 0.851 1.838 0.097 0.213 0.174 0.445 0.271 0.658 4.372-0.561 8.686 0.387 8.841 0.406zM30.857 16c0 8.202-6.655 14.857-14.857 14.857s-14.857-6.655-14.857-14.857 6.655-14.857 14.857-14.857 14.857 6.655 14.857 14.857z"></path>
</svg>
