<?xml version="1.0" encoding="utf-8"?>
<!-- Generated by IcoMoon.io -->
<!DOCTYPE svg PUBLIC "-//W3C//DTD SVG 1.1//EN" "http://www.w3.org/Graphics/SVG/1.1/DTD/svg11.dtd">
<svg version="1.1" xmlns="http://www.w3.org/2000/svg" xmlns:xlink="http://www.w3.org/1999/xlink" width="32" height="32" viewBox="0 0 32 32">
<path d="M14.19 20.467c0 1.032-0.679 1.866-1.513 1.866h-6.022c-0.834 0-1.513-0.834-1.513-1.866 0-1.866 0.452-4.015 2.318-4.015 0.565 0.565 1.343 0.905 2.205 0.905s1.64-0.339 2.205-0.905c1.866 0 2.318 2.149 2.318 4.015zM12.381 14.19c0 1.498-1.216 2.714-2.714 2.714s-2.714-1.216-2.714-2.714 1.216-2.714 2.714-2.714 2.714 1.216 2.714 2.714zM26.857 20.071v0.905c0 0.254-0.198 0.452-0.452 0.452h-9.952c-0.254 0-0.452-0.198-0.452-0.452v-0.905c0-0.254 0.198-0.452 0.452-0.452h9.952c0.254 0 0.452 0.198 0.452 0.452zM21.429 16.452v0.905c0 0.254-0.198 0.452-0.452 0.452h-4.524c-0.254 0-0.452-0.198-0.452-0.452v-0.905c0-0.254 0.198-0.452 0.452-0.452h4.524c0.254 0 0.452 0.198 0.452 0.452zM26.857 16.452v0.905c0 0.254-0.198 0.452-0.452 0.452h-2.714c-0.254 0-0.452-0.198-0.452-0.452v-0.905c0-0.254 0.198-0.452 0.452-0.452h2.714c0.254 0 0.452 0.198 0.452 0.452zM26.857 12.833v0.905c0 0.254-0.198 0.452-0.452 0.452h-9.952c-0.254 0-0.452-0.198-0.452-0.452v-0.905c0-0.254 0.198-0.452 0.452-0.452h9.952c0.254 0 0.452 0.198 0.452 0.452zM28.667 24.595v-15.833h-25.333v15.833c0 0.24 0.212 0.452 0.452 0.452h24.429c0.24 0 0.452-0.212 0.452-0.452zM30.476 7.405v17.19c0 1.244-1.018 2.262-2.262 2.262h-24.429c-1.244 0-2.262-1.018-2.262-2.262v-17.19c0-1.244 1.018-2.262 2.262-2.262h24.429c1.244 0 2.262 1.018 2.262 2.262z"></path>
</svg>
