<?xml version="1.0" encoding="utf-8"?>
<!-- Generated by IcoMoon.io -->
<!DOCTYPE svg PUBLIC "-//W3C//DTD SVG 1.1//EN" "http://www.w3.org/Graphics/SVG/1.1/DTD/svg11.dtd">
<svg version="1.1" xmlns="http://www.w3.org/2000/svg" xmlns:xlink="http://www.w3.org/1999/xlink" width="32" height="32" viewBox="0 0 32 32">
<path d="M7.23 12.734l8.77 5.414-6.071 5.059-8.699-5.663zM24.734 22.586v1.917l-8.699 5.201v0.018l-0.018-0.018-0.018 0.018v-0.018l-8.681-5.201v-1.917l2.61 1.704 6.071-5.042v-0.035l0.018 0.018 0.018-0.018v0.035l6.089 5.042zM9.929 2.277l6.071 5.059-8.77 5.397-6-4.793zM24.77 12.734l6 4.811-8.681 5.663-6.089-5.059zM22.089 2.277l8.681 5.663-6 4.793-8.77-5.397z"></path>
</svg>
