<?xml version="1.0" encoding="utf-8"?>
<!-- Generated by IcoMoon.io -->
<!DOCTYPE svg PUBLIC "-//W3C//DTD SVG 1.1//EN" "http://www.w3.org/Graphics/SVG/1.1/DTD/svg11.dtd">
<svg version="1.1" xmlns="http://www.w3.org/2000/svg" xmlns:xlink="http://www.w3.org/1999/xlink" width="32" height="32" viewBox="0 0 32 32">
<path d="M22.752 27.676c-0.034-0.118-0.135-0.288-0.406-0.085-0.575 0.423-1.861 0.948-3.689 0.948s-2.691-0.389-3.266-0.829c-0.085-0.068-0.051-0.068-0.22-0.068-0.186 0-0.288 0.085-0.44 0.203-0.135 0.118-0.203 0.406 0 0.609 1.252 1.151 3.35 1.049 4.89 0.914 1.557-0.152 2.877-1.066 3.012-1.201 0.203-0.203 0.152-0.372 0.118-0.491zM22.092 25.73c-0.118-0.288-0.322-0.795-0.66-1.032-0.338-0.22-0.829-0.254-1.286-0.254s-0.711-0.034-1.201 0.169-0.998 0.66-1.32 0.948-0.372 0.508-0.203 0.745c0.169 0.22 0.355 0.085 0.829-0.322 0.491-0.389 0.812-0.745 1.811-0.745s1.168 0.372 1.371 0.745 0.22 0.423 0.423 0.322c0.237-0.118 0.355-0.288 0.237-0.575zM28.099 20.975c0-0.88-0.389-2.369-1.828-2.369-1.354 0-4.095 2.809-5.533 2.826-1.675 0.034-3.994-3.317-7.344-3.283-2.64 0.017-4.721 2.115-4.755 4.349-0.017 1.252 0.389 2.183 1.252 2.775 0.575 0.389 1.1 0.626 2.809 0.626 2.843 0 6.447-3.52 8.105-3.469 1.32 0.051 3.367 3.283 4.4 3.35 0.812 0.068 1.235-0.305 1.929-1.303 0.677-1.015 0.965-2.606 0.965-3.503zM28.996 18.267c0 7.581-5.99 12.59-12.877 12.59-6.904 0-13.114-5.432-13.114-12.827 0-7.378 5.753-10.796 6.819-11.354 1.269-0.677 2.183-1.032 3.621-2.183 0.711-0.558 1.303-1.371 1.489-3.35 1.032 1.235 2.267 2.674 3.147 3.266 1.438 0.948 2.877 1.32 4.383 2.267 0.914 0.558 6.532 3.994 6.532 11.591z"></path>
</svg>
