<?xml version="1.0" encoding="utf-8"?>
<!-- Generated by IcoMoon.io -->
<!DOCTYPE svg PUBLIC "-//W3C//DTD SVG 1.1//EN" "http://www.w3.org/Graphics/SVG/1.1/DTD/svg11.dtd">
<svg version="1.1" xmlns="http://www.w3.org/2000/svg" xmlns:xlink="http://www.w3.org/1999/xlink" width="32" height="32" viewBox="0 0 32 32">
<path d="M2.738 13.907h0.016c0.834-6.639 5.372-12.764 13.486-12.748 4.923 0 8.98 2.309 11.353 6.559 1.219 2.197 1.668 4.538 1.668 7.088v3.015h-18.040c0.080 7.441 10.936 7.184 15.619 3.913v6.046c-2.742 1.652-8.932 3.079-13.759 1.235-4.089-1.572-6.944-5.821-6.992-9.958-0.064-5.34 2.646-8.884 6.992-10.904-0.914 1.155-1.62 2.405-1.988 4.57h10.183c0.593-6.078-5.757-6.078-5.757-6.078-5.997 0.208-10.327 3.704-12.78 7.264z"></path>
</svg>
