<?xml version="1.0" encoding="utf-8"?>
<!-- Generated by IcoMoon.io -->
<!DOCTYPE svg PUBLIC "-//W3C//DTD SVG 1.1//EN" "http://www.w3.org/Graphics/SVG/1.1/DTD/svg11.dtd">
<svg version="1.1" xmlns="http://www.w3.org/2000/svg" xmlns:xlink="http://www.w3.org/1999/xlink" width="32" height="32" viewBox="0 0 32 32">
<path d="M15.871 21.723l1.883-1.883-2.468-2.468-1.883 1.883v0.909h1.559v1.559h0.909zM23.015 10.034c-0.146-0.146-0.39-0.13-0.536 0.016l-5.682 5.682c-0.146 0.146-0.162 0.39-0.016 0.536s0.39 0.13 0.536-0.016l5.682-5.682c0.146-0.146 0.162-0.39 0.016-0.536zM24.313 19.677v3.085c0 2.581-2.094 4.676-4.676 4.676h-13.507c-2.581 0-4.676-2.094-4.676-4.676v-13.507c0-2.581 2.094-4.676 4.676-4.676h13.507c0.649 0 1.299 0.13 1.899 0.406 0.146 0.065 0.26 0.211 0.292 0.373 0.032 0.179-0.016 0.341-0.146 0.471l-0.796 0.795c-0.146 0.146-0.341 0.195-0.52 0.13-0.244-0.065-0.487-0.097-0.731-0.097h-13.507c-1.429 0-2.598 1.169-2.598 2.598v13.507c0 1.429 1.169 2.598 2.598 2.598h13.507c1.429 0 2.598-1.169 2.598-2.598v-2.046c0-0.13 0.049-0.26 0.146-0.357l1.039-1.039c0.162-0.162 0.373-0.195 0.568-0.114s0.325 0.26 0.325 0.471zM22.755 7.696l4.676 4.676-10.91 10.91h-4.676v-4.676zM29.963 9.839l-1.494 1.494-4.676-4.676 1.494-1.494c0.601-0.601 1.607-0.601 2.208 0l2.468 2.468c0.601 0.601 0.601 1.607 0 2.208z"></path>
</svg>
