<?xml version="1.0" encoding="utf-8"?>
<!-- Generated by IcoMoon.io -->
<!DOCTYPE svg PUBLIC "-//W3C//DTD SVG 1.1//EN" "http://www.w3.org/Graphics/SVG/1.1/DTD/svg11.dtd">
<svg version="1.1" xmlns="http://www.w3.org/2000/svg" xmlns:xlink="http://www.w3.org/1999/xlink" width="32" height="32" viewBox="0 0 32 32">
<path d="M21.768 15.454c0.424-0.655-0.073-2.316-1.552-3.299-1.468-0.982-3.347-0.91-3.784-0.255-0.424 0.643 0.485 0.23 2.147 0.849 2.741 1.019 2.765 3.36 3.19 2.705zM26.17 22.416c-3.432 8.441-18.896 6.307-18.568-4.645 0.036-1.395 0.425-2.329 0.825-3.663-2.559 10.479 11.716 16.579 17.574 8.308 0.218-0.303 0.279-0.279 0.17 0zM23.272 16.97c0 3.432-2.765 6.222-6.173 6.222s-6.173-2.79-6.173-6.222 2.765-6.222 6.173-6.222 6.173 2.79 6.173 6.222zM26.753 13.477c-4.318-9.8-22.146-6.185-20.169 7.144-4.099-13.353 12.795-19.478 19.041-9.969 0.509 0.776 1.092 2.135 1.128 2.826zM26.001 17.625c0.206-4.099-2.632-6.901-6.464-7.956-0.061 0-0.327-0.109 0.17-0.158 9.363 0.315 9.703 15.282-0.497 15.451 3.323-0.922 6.586-3.226 6.792-7.338z"></path>
</svg>
