<?xml version="1.0" encoding="utf-8"?>
<!-- Generated by IcoMoon.io -->
<!DOCTYPE svg PUBLIC "-//W3C//DTD SVG 1.1//EN" "http://www.w3.org/Graphics/SVG/1.1/DTD/svg11.dtd">
<svg version="1.1" xmlns="http://www.w3.org/2000/svg" xmlns:xlink="http://www.w3.org/1999/xlink" width="32" height="32" viewBox="0 0 32 32">
<path d="M20.052 24.779v4.052c0 1.119-0.907 2.026-2.026 2.026h-4.052c-1.119 0-2.026-0.907-2.026-2.026v-4.052c0-1.119 0.907-2.026 2.026-2.026h4.052c1.119 0 2.026 0.907 2.026 2.026zM20.052 13.974v4.052c0 1.119-0.907 2.026-2.026 2.026h-4.052c-1.119 0-2.026-0.907-2.026-2.026v-4.052c0-1.119 0.907-2.026 2.026-2.026h4.052c1.119 0 2.026 0.907 2.026 2.026zM20.052 3.169v4.052c0 1.119-0.907 2.026-2.026 2.026h-4.052c-1.119 0-2.026-0.907-2.026-2.026v-4.052c0-1.119 0.907-2.026 2.026-2.026h4.052c1.119 0 2.026 0.907 2.026 2.026z"></path>
</svg>
