<?xml version="1.0" encoding="utf-8"?>
<!-- Generated by IcoMoon.io -->
<!DOCTYPE svg PUBLIC "-//W3C//DTD SVG 1.1//EN" "http://www.w3.org/Graphics/SVG/1.1/DTD/svg11.dtd">
<svg version="1.1" xmlns="http://www.w3.org/2000/svg" xmlns:xlink="http://www.w3.org/1999/xlink" width="32" height="32" viewBox="0 0 32 32">
<path d="M10.632 14.39v3.221c0 0.889-0.721 1.61-1.61 1.61h-3.221c-0.889 0-1.61-0.721-1.61-1.61v-3.221c0-0.889 0.721-1.61 1.61-1.61h3.221c0.889 0 1.61 0.721 1.61 1.61zM19.221 14.39v3.221c0 0.889-0.721 1.61-1.61 1.61h-3.221c-0.889 0-1.61-0.721-1.61-1.61v-3.221c0-0.889 0.721-1.61 1.61-1.61h3.221c0.889 0 1.61 0.721 1.61 1.61zM27.809 14.39v3.221c0 0.889-0.721 1.61-1.61 1.61h-3.221c-0.889 0-1.61-0.721-1.61-1.61v-3.221c0-0.889 0.721-1.61 1.61-1.61h3.221c0.889 0 1.61 0.721 1.61 1.61z"></path>
</svg>
