<?xml version="1.0" encoding="utf-8"?>
<!-- Generated by IcoMoon.io -->
<!DOCTYPE svg PUBLIC "-//W3C//DTD SVG 1.1//EN" "http://www.w3.org/Graphics/SVG/1.1/DTD/svg11.dtd">
<svg version="1.1" xmlns="http://www.w3.org/2000/svg" xmlns:xlink="http://www.w3.org/1999/xlink" width="32" height="32" viewBox="0 0 32 32">
<path d="M15.635 28.304v1.094c-4.676-0.133-8.772-2.653-11.077-6.384l0.962-0.564c0.348 0.58 0.763 1.128 1.21 1.642l1.078-0.945c1.559 1.774 3.681 3.034 6.102 3.515l-0.282 1.426c0.647 0.116 1.327 0.199 2.006 0.216zM5.719 19.515l-1.376 0.464c0.232 0.647 0.497 1.26 0.813 1.857l-0.945 0.547c-1.028-1.89-1.625-4.079-1.625-6.384s0.597-4.494 1.625-6.384l0.945 0.547c-0.315 0.58-0.597 1.21-0.813 1.857l1.36 0.464c-0.381 1.094-0.58 2.288-0.58 3.515s0.216 2.421 0.597 3.515zM26.48 22.45l0.962 0.564c-2.305 3.731-6.401 6.251-11.077 6.384v-1.094c0.68-0.017 1.36-0.099 2.006-0.216l-0.282-1.426c2.421-0.481 4.543-1.741 6.102-3.515l1.078 0.945c0.448-0.514 0.862-1.061 1.21-1.642zM23.976 13.264l-3.864 1.327c0.149 0.448 0.232 0.912 0.232 1.409s-0.083 0.962-0.232 1.409l3.847 1.327c-0.348 1.045-0.912 1.99-1.625 2.802l-3.068-2.686c-0.614 0.713-1.459 1.21-2.438 1.409l0.796 3.996c-0.514 0.099-1.061 0.166-1.625 0.166s-1.111-0.066-1.625-0.166l0.796-3.996c-0.978-0.199-1.824-0.696-2.438-1.409l-3.068 2.686c-0.713-0.813-1.277-1.758-1.625-2.802l3.847-1.327c-0.149-0.448-0.232-0.912-0.232-1.409s0.083-0.962 0.232-1.409l-3.864-1.327c0.365-1.045 0.929-1.99 1.642-2.802l3.068 2.686c0.614-0.713 1.459-1.227 2.438-1.426l-0.796-3.98c0.514-0.116 1.061-0.166 1.625-0.166s1.111 0.050 1.625 0.166l-0.796 3.98c0.978 0.199 1.824 0.713 2.438 1.426l3.068-2.686c0.713 0.813 1.277 1.758 1.642 2.802zM15.635 2.602v1.094c-0.68 0.017-1.36 0.083-2.006 0.216l0.282 1.426c-2.421 0.464-4.543 1.724-6.102 3.499l-1.078-0.929c-0.448 0.497-0.846 1.045-1.21 1.625l-0.945-0.547c2.305-3.747 6.384-6.251 11.060-6.384v0zM29.415 16c0 2.305-0.597 4.494-1.625 6.384l-0.945-0.547c0.315-0.597 0.58-1.21 0.813-1.857l-1.376-0.464c0.381-1.094 0.597-2.288 0.597-3.515s-0.199-2.421-0.58-3.515l1.36-0.464c-0.216-0.647-0.497-1.277-0.813-1.857l0.945-0.547c1.028 1.89 1.625 4.079 1.625 6.384zM27.425 8.986l-0.945 0.547c-0.365-0.58-0.763-1.128-1.21-1.625l-1.078 0.929c-1.559-1.774-3.681-3.034-6.102-3.499l0.282-1.426c-0.647-0.133-1.327-0.199-2.006-0.216v-1.094c4.676 0.133 8.755 2.636 11.060 6.384zM30.128 16c0-7.793-6.334-14.128-14.128-14.128v0c-7.793 0-14.128 6.334-14.128 14.128s6.334 14.128 14.128 14.128 14.128-6.334 14.128-14.128zM30.857 16c0 8.208-6.649 14.857-14.857 14.857s-14.857-6.649-14.857-14.857 6.649-14.857 14.857-14.857v0c8.208 0 14.857 6.649 14.857 14.857z"></path>
</svg>
