<?xml version="1.0" encoding="utf-8"?>
<!-- Generated by IcoMoon.io -->
<!DOCTYPE svg PUBLIC "-//W3C//DTD SVG 1.1//EN" "http://www.w3.org/Graphics/SVG/1.1/DTD/svg11.dtd">
<svg version="1.1" xmlns="http://www.w3.org/2000/svg" xmlns:xlink="http://www.w3.org/1999/xlink" width="32" height="32" viewBox="0 0 32 32">
<path d="M25.286 1.143c3.076 0 5.571 2.496 5.571 5.571v18.571c0 3.076-2.496 5.571-5.571 5.571h-18.571c-3.076 0-5.571-2.496-5.571-5.571v-18.571c0-3.076 2.496-5.571 5.571-5.571h18.571zM25.905 21.571v-8.435c-0.368 0.406-0.774 0.774-1.238 1.064-1.818 1.199-3.695 2.321-5.494 3.56-0.909 0.638-2.031 1.335-3.173 1.335v0 0 0 0c-1.141 0-2.263-0.696-3.173-1.335-1.799-1.238-3.695-2.341-5.494-3.579-0.445-0.29-0.793-0.716-1.238-1.045v8.435c0 1.025 0.832 1.857 1.857 1.857h16.095c1.025 0 1.857-0.832 1.857-1.857zM25.905 10.487c0-1.045-0.774-1.915-1.857-1.915h-16.095c-1.025 0-1.857 0.832-1.857 1.857 0 1.045 1.083 2.186 1.896 2.728 1.702 1.141 3.463 2.205 5.165 3.327 0.735 0.484 1.954 1.373 2.844 1.373s2.109-0.89 2.844-1.373c1.722-1.122 3.443-2.225 5.165-3.366 0.754-0.503 1.896-1.664 1.896-2.631z"></path>
</svg>
