<?xml version="1.0" encoding="utf-8"?>
<!-- Generated by IcoMoon.io -->
<!DOCTYPE svg PUBLIC "-//W3C//DTD SVG 1.1//EN" "http://www.w3.org/Graphics/SVG/1.1/DTD/svg11.dtd">
<svg version="1.1" xmlns="http://www.w3.org/2000/svg" xmlns:xlink="http://www.w3.org/1999/xlink" width="32" height="32" viewBox="0 0 32 32">
<path d="M30.545 11.942v12.89c0 1.429-1.169 2.597-2.597 2.597h-23.896c-1.429 0-2.597-1.169-2.597-2.597v-12.89c0.487 0.536 1.039 1.006 1.64 1.412 2.695 1.834 5.422 3.669 8.068 5.601 1.364 1.006 3.052 2.24 4.821 2.24h0.032c1.77 0 3.458-1.234 4.821-2.24 2.646-1.916 5.373-3.766 8.084-5.601 0.584-0.406 1.136-0.877 1.623-1.412zM30.545 7.169c0 1.818-1.347 3.458-2.776 4.448-2.532 1.753-5.081 3.506-7.597 5.276-1.055 0.73-2.841 2.224-4.156 2.224h-0.032c-1.315 0-3.101-1.494-4.156-2.224-2.516-1.77-5.065-3.523-7.581-5.276-1.153-0.779-2.792-2.614-2.792-4.091 0-1.591 0.86-2.955 2.597-2.955h23.896c1.412 0 2.597 1.169 2.597 2.597z"></path>
</svg>
