<?xml version="1.0" encoding="utf-8"?>
<!-- Generated by IcoMoon.io -->
<!DOCTYPE svg PUBLIC "-//W3C//DTD SVG 1.1//EN" "http://www.w3.org/Graphics/SVG/1.1/DTD/svg11.dtd">
<svg version="1.1" xmlns="http://www.w3.org/2000/svg" xmlns:xlink="http://www.w3.org/1999/xlink" width="32" height="32" viewBox="0 0 32 32">
<path d="M25.584 16.282l0.647 0.846c0.182 0.232 0.133 0.547-0.083 0.73-1.658 1.293-5.472 4.228-5.638 4.361-1.177 0.962-2.769 2.288-4.494 2.272h-0.033c-1.725 0-3.316-1.31-4.494-2.272-0.182-0.149-3.864-2.985-5.489-4.245-0.232-0.182-0.282-0.497-0.099-0.73l0.614-0.862c0.182-0.249 0.531-0.298 0.763-0.099 1.128 0.879 2.719 2.106 5.074 3.913 0.829 0.63 2.471 2.172 3.631 2.172h0.033c1.161 0 2.802-1.542 3.631-2.172 2.438-1.874 4.063-3.117 5.19-4.013 0.232-0.182 0.564-0.133 0.746 0.099zM28.735 28.204v-15.388c-1.658-1.542-1.409-1.409-9.087-7.346-0.829-0.647-2.471-2.205-3.631-2.205h-0.033c-1.161 0-2.802 1.559-3.631 2.205-7.677 5.936-7.429 5.804-9.087 7.346v15.388c0 0.282 0.249 0.531 0.531 0.531h24.408c0.282 0 0.531-0.249 0.531-0.531zM30.857 12.816v15.388c0 1.459-1.194 2.653-2.653 2.653h-24.408c-1.459 0-2.653-1.194-2.653-2.653v-15.388c0-0.597 0.249-1.161 0.68-1.559 3.399-3.151 7.312-5.886 9.667-7.827 1.161-0.962 2.769-2.288 4.494-2.288h0.033c1.724 0 3.333 1.327 4.494 2.288 2.189 1.807 6.351 4.742 9.667 7.827 0.431 0.398 0.68 0.962 0.68 1.559z"></path>
</svg>
