<?xml version="1.0" encoding="utf-8"?>
<!-- Generated by IcoMoon.io -->
<!DOCTYPE svg PUBLIC "-//W3C//DTD SVG 1.1//EN" "http://www.w3.org/Graphics/SVG/1.1/DTD/svg11.dtd">
<svg version="1.1" xmlns="http://www.w3.org/2000/svg" xmlns:xlink="http://www.w3.org/1999/xlink" width="32" height="32" viewBox="0 0 32 32">
<path d="M28.468 25.87v-12.468c-0.341 0.39-0.714 0.747-1.12 1.071-2.321 1.786-4.659 3.604-6.916 5.487-1.218 1.023-2.727 2.273-4.416 2.273h-0.032c-1.688 0-3.198-1.25-4.416-2.273-2.256-1.883-4.594-3.701-6.916-5.487-0.406-0.325-0.779-0.682-1.12-1.071v12.468c0 0.276 0.244 0.52 0.519 0.52h23.896c0.276 0 0.52-0.244 0.52-0.52zM28.468 8.808c0-0.406 0.097-1.12-0.52-1.12h-23.896c-0.276 0-0.519 0.244-0.519 0.519 0 1.851 0.925 3.458 2.386 4.61 2.175 1.705 4.351 3.425 6.51 5.146 0.86 0.698 2.419 2.192 3.555 2.192h0.032c1.136 0 2.695-1.494 3.555-2.192 2.159-1.721 4.334-3.442 6.51-5.146 1.055-0.828 2.386-2.63 2.386-4.010zM30.545 8.208v17.662c0 1.429-1.169 2.597-2.597 2.597h-23.896c-1.429 0-2.597-1.169-2.597-2.597v-17.662c0-1.429 1.169-2.597 2.597-2.597h23.896c1.429 0 2.597 1.169 2.597 2.597z"></path>
</svg>
