<?xml version="1.0" encoding="utf-8"?>
<!-- Generated by IcoMoon.io -->
<!DOCTYPE svg PUBLIC "-//W3C//DTD SVG 1.1//EN" "http://www.w3.org/Graphics/SVG/1.1/DTD/svg11.dtd">
<svg version="1.1" xmlns="http://www.w3.org/2000/svg" xmlns:xlink="http://www.w3.org/1999/xlink" width="32" height="32" viewBox="0 0 32 32">
<path d="M30.857 11.987v16.217c0 1.459-1.194 2.653-2.653 2.653h-24.408c-1.459 0-2.653-1.194-2.653-2.653v-16.217c0-0.149 0.066-0.298 0.182-0.398 1.741-1.525 1.758-1.708 10.413-8.025 1.045-0.763 2.885-2.421 4.261-2.421s3.233 1.675 4.261 2.421c8.656 6.318 8.672 6.5 10.413 8.025 0.116 0.1 0.182 0.249 0.182 0.398zM21.505 21.688c2.587-1.874 4.394-3.184 5.721-4.179 0.232-0.166 0.282-0.497 0.099-0.73l-0.63-0.862c-0.182-0.232-0.514-0.282-0.746-0.1-1.31 0.962-3.101 2.288-5.688 4.145-1.028 0.746-2.885 2.404-4.261 2.404s-3.233-1.658-4.261-2.404c-2.587-1.874-4.378-3.184-5.688-4.145-0.232-0.182-0.564-0.133-0.746 0.1l-0.63 0.862c-0.182 0.232-0.133 0.564 0.099 0.73 1.327 0.995 3.134 2.305 5.721 4.179 1.293 0.929 3.333 2.802 5.505 2.802 2.189 0 4.278-1.907 5.505-2.802z"></path>
</svg>
