<?xml version="1.0" encoding="utf-8"?>
<!-- Generated by IcoMoon.io -->
<!DOCTYPE svg PUBLIC "-//W3C//DTD SVG 1.1//EN" "http://www.w3.org/Graphics/SVG/1.1/DTD/svg11.dtd">
<svg version="1.1" xmlns="http://www.w3.org/2000/svg" xmlns:xlink="http://www.w3.org/1999/xlink" width="32" height="32" viewBox="0 0 32 32">
<path d="M15.005 14.769c-1.954-3.693-3.754-7.293-8.878-9.724-3.062-1.446-0.323 0.569-0.323 0.569 2.785 1.923 4.062 4.524 5.554 7.37 1.939 3.708 4.862 8.601 8.878 10.324 4 1.723 2.108 0.769 0.369-0.523-1.739-1.308-4.2-5.354-5.601-8.016zM9.666 23.124c-5.554-4.4-5.247-9.662-8.447-20.91 29.403 0 22.571 19.525 22.602 22.541l4.97 5.031h-1.6l-4.323-4.385c-2.4 0.262-7.662 2.123-13.201-2.277z"></path>
</svg>
