<?xml version="1.0" encoding="utf-8"?>
<!-- Generated by IcoMoon.io -->
<!DOCTYPE svg PUBLIC "-//W3C//DTD SVG 1.1//EN" "http://www.w3.org/Graphics/SVG/1.1/DTD/svg11.dtd">
<svg version="1.1" xmlns="http://www.w3.org/2000/svg" xmlns:xlink="http://www.w3.org/1999/xlink" width="32" height="32" viewBox="0 0 32 32">
<path d="M11.855 4.177v10.861c3.847 0.033 5.87-0.166 5.87-0.166 1.559-0.050 1.791-0.448 2.156-1.973l0.547-2.355h1.708l-0.232 5.339 0.116 5.29h-1.708l-0.481-2.106c-0.348-1.575-1.028-1.957-2.139-1.973 0 0-1.426-0.133-5.837-0.133v9.219c0 1.724 0.945 2.537 2.935 2.537h5.92c1.99 0 3.781-0.199 5.008-3.034l1.542-3.582h1.476c-0.116 0.713-0.912 7.296-1.028 8.755-5.455-0.199-7.793-0.199-7.793-0.199h-10.413l-6.235 0.199v-1.691l2.106-0.415c1.476-0.282 1.923-0.713 1.94-1.923 0.099-4.013 0.133-10.662 0.133-10.662s0.050-6.666-0.133-10.695c-0.050-1.376-0.464-1.708-1.94-1.99l-2.106-0.398v-1.691l6.235 0.199h11.64s2.305 0 6.202-0.448c-0.232 2.537-0.514 8.39-0.514 8.39h-1.542l-0.531-2.056c-0.647-2.57-1.509-3.946-3.101-3.946h-9.087c-0.68 0-0.713 0.232-0.713 0.647z"></path>
</svg>
