<?xml version="1.0" encoding="utf-8"?>
<!-- Generated by IcoMoon.io -->
<!DOCTYPE svg PUBLIC "-//W3C//DTD SVG 1.1//EN" "http://www.w3.org/Graphics/SVG/1.1/DTD/svg11.dtd">
<svg version="1.1" xmlns="http://www.w3.org/2000/svg" xmlns:xlink="http://www.w3.org/1999/xlink" width="32" height="32" viewBox="0 0 32 32">
<path d="M25.807 26.024l0.739 3.355c0.084 0.338-0.105 0.675-0.422 0.781-0.084 0.021-2.047 0.696-4.58 0.696-6.584 0-11.881-3.968-13.654-10.172h-2.005c-0.38 0-0.675-0.317-0.675-0.675v-2.385c0-0.359 0.295-0.675 0.675-0.675h1.393c-0.021-0.675-0.021-1.477 0.021-2.216h-1.414c-0.38 0-0.675-0.295-0.675-0.675v-2.406c0-0.38 0.295-0.675 0.675-0.675h2.068c1.878-5.909 7.281-9.834 13.591-9.834 2.195 0 4.010 0.464 4.094 0.485 0.169 0.042 0.317 0.169 0.422 0.317 0.084 0.148 0.105 0.338 0.063 0.506l-0.907 3.356c-0.084 0.359-0.443 0.57-0.802 0.464-0.021 0-1.456-0.359-2.955-0.359-3.545 0-6.521 1.92-7.935 5.065h9.877c0.211 0 0.401 0.084 0.528 0.253 0.127 0.148 0.19 0.359 0.148 0.549l-0.506 2.406c-0.063 0.317-0.338 0.549-0.675 0.549h-10.299c-0.063 0.675-0.042 1.393 0 2.216h9.687c0.211 0 0.401 0.105 0.528 0.253 0.127 0.169 0.169 0.38 0.127 0.57l-0.506 2.364c-0.063 0.317-0.338 0.549-0.654 0.549h-8.167c1.351 3.292 4.39 5.36 7.977 5.36 1.836 0 3.334-0.506 3.355-0.506 0.169-0.063 0.38-0.042 0.549 0.042 0.169 0.105 0.274 0.274 0.317 0.443z"></path>
</svg>
