<?xml version="1.0" encoding="utf-8"?>
<!-- Generated by IcoMoon.io -->
<!DOCTYPE svg PUBLIC "-//W3C//DTD SVG 1.1//EN" "http://www.w3.org/Graphics/SVG/1.1/DTD/svg11.dtd">
<svg version="1.1" xmlns="http://www.w3.org/2000/svg" xmlns:xlink="http://www.w3.org/1999/xlink" width="32" height="32" viewBox="0 0 32 32">
<path d="M30.476 19.619v3.102c0 0.275-0.242 0.517-0.517 0.517h-22.231v3.102c0 0.275-0.226 0.517-0.517 0.517-0.145 0-0.275-0.065-0.388-0.162l-5.154-5.17c-0.097-0.097-0.145-0.226-0.145-0.355 0-0.145 0.048-0.275 0.145-0.372l5.17-5.17c0.097-0.097 0.242-0.145 0.372-0.145 0.275 0 0.517 0.226 0.517 0.517v3.102h22.231c0.275 0 0.517 0.226 0.517 0.517zM30.476 10.83c0 0.129-0.048 0.275-0.145 0.372l-5.17 5.17c-0.097 0.097-0.242 0.145-0.372 0.145-0.275 0-0.517-0.242-0.517-0.517v-3.102h-22.231c-0.275 0-0.517-0.242-0.517-0.517v-3.102c0-0.275 0.242-0.517 0.517-0.517h22.231v-3.102c0-0.291 0.226-0.517 0.517-0.517 0.145 0 0.275 0.065 0.388 0.162l5.154 5.154c0.097 0.097 0.145 0.242 0.145 0.372z"></path>
</svg>
