<?xml version="1.0" encoding="utf-8"?>
<!-- Generated by IcoMoon.io -->
<!DOCTYPE svg PUBLIC "-//W3C//DTD SVG 1.1//EN" "http://www.w3.org/Graphics/SVG/1.1/DTD/svg11.dtd">
<svg version="1.1" xmlns="http://www.w3.org/2000/svg" xmlns:xlink="http://www.w3.org/1999/xlink" width="32" height="32" viewBox="0 0 32 32">
<path d="M16 1.143c8.202 0 14.857 6.655 14.857 14.857s-6.655 14.857-14.857 14.857-14.857-6.655-14.857-14.857 6.655-14.857 14.857-14.857zM18.476 25.266v-3.676c0-0.348-0.271-0.638-0.6-0.638h-3.714c-0.348 0-0.638 0.29-0.638 0.638v3.676c0 0.348 0.29 0.638 0.638 0.638h3.714c0.329 0 0.6-0.29 0.6-0.638zM18.438 18.612l0.348-12.013c0-0.135-0.058-0.271-0.193-0.348-0.116-0.097-0.29-0.155-0.464-0.155h-4.256c-0.174 0-0.348 0.058-0.464 0.155-0.135 0.077-0.193 0.213-0.193 0.348l0.329 12.013c0 0.271 0.29 0.484 0.658 0.484h3.579c0.348 0 0.638-0.213 0.658-0.484z"></path>
</svg>
