<?xml version="1.0" encoding="utf-8"?>
<!-- Generated by IcoMoon.io -->
<!DOCTYPE svg PUBLIC "-//W3C//DTD SVG 1.1//EN" "http://www.w3.org/Graphics/SVG/1.1/DTD/svg11.dtd">
<svg version="1.1" xmlns="http://www.w3.org/2000/svg" xmlns:xlink="http://www.w3.org/1999/xlink" width="32" height="32" viewBox="0 0 32 32">
<path d="M18.11 24.951v-3.132c0-0.297-0.231-0.544-0.527-0.544h-3.165c-0.297 0-0.527 0.247-0.527 0.544v3.132c0 0.297 0.231 0.544 0.527 0.544h3.165c0.297 0 0.527-0.247 0.527-0.544zM18.077 18.786l0.297-7.566c0-0.099-0.049-0.231-0.165-0.313-0.099-0.082-0.247-0.181-0.396-0.181h-3.626c-0.148 0-0.297 0.099-0.396 0.181-0.115 0.082-0.165 0.247-0.165 0.346l0.28 7.533c0 0.214 0.247 0.379 0.56 0.379h3.049c0.297 0 0.544-0.165 0.56-0.379zM17.846 3.39l12.659 23.209c0.363 0.643 0.346 1.434-0.033 2.077s-1.071 1.038-1.813 1.038h-25.319c-0.742 0-1.434-0.396-1.813-1.038s-0.396-1.434-0.033-2.077l12.659-23.209c0.363-0.676 1.071-1.104 1.846-1.104s1.484 0.429 1.846 1.104z"></path>
</svg>
