<?xml version="1.0" encoding="utf-8"?>
<!-- Generated by IcoMoon.io -->
<!DOCTYPE svg PUBLIC "-//W3C//DTD SVG 1.1//EN" "http://www.w3.org/Graphics/SVG/1.1/DTD/svg11.dtd">
<svg version="1.1" xmlns="http://www.w3.org/2000/svg" xmlns:xlink="http://www.w3.org/1999/xlink" width="32" height="32" viewBox="0 0 32 32">
<path d="M20.052 24.779v4.727c0 0.739-0.612 1.351-1.351 1.351h-5.403c-0.739 0-1.351-0.612-1.351-1.351v-4.727c0-0.739 0.612-1.351 1.351-1.351h5.403c0.739 0 1.351 0.612 1.351 1.351zM20.685 2.493l-0.591 16.208c-0.021 0.739-0.654 1.351-1.393 1.351h-5.403c-0.739 0-1.372-0.612-1.393-1.351l-0.591-16.208c-0.021-0.739 0.57-1.351 1.308-1.351h6.753c0.739 0 1.33 0.612 1.308 1.351z"></path>
</svg>
