<?xml version="1.0" encoding="utf-8"?>
<!-- Generated by IcoMoon.io -->
<!DOCTYPE svg PUBLIC "-//W3C//DTD SVG 1.1//EN" "http://www.w3.org/Graphics/SVG/1.1/DTD/svg11.dtd">
<svg version="1.1" xmlns="http://www.w3.org/2000/svg" xmlns:xlink="http://www.w3.org/1999/xlink" width="32" height="32" viewBox="0 0 32 32">
<path d="M15.748 19.095c0 0.155-0.077 0.329-0.193 0.445l-6.423 6.423 2.786 2.786c0.232 0.232 0.368 0.542 0.368 0.871 0 0.677-0.561 1.238-1.238 1.238h-8.667c-0.677 0-1.238-0.561-1.238-1.238v-8.667c0-0.677 0.561-1.238 1.238-1.238 0.329 0 0.638 0.135 0.871 0.368l2.786 2.786 6.423-6.423c0.116-0.116 0.29-0.193 0.445-0.193s0.329 0.077 0.445 0.193l2.205 2.205c0.116 0.116 0.193 0.29 0.193 0.445zM30.857 2.381v8.667c0 0.677-0.561 1.238-1.238 1.238-0.329 0-0.638-0.135-0.871-0.368l-2.786-2.786-6.423 6.423c-0.116 0.116-0.29 0.193-0.445 0.193s-0.329-0.077-0.445-0.193l-2.205-2.205c-0.116-0.116-0.193-0.29-0.193-0.445s0.077-0.329 0.193-0.445l6.423-6.423-2.786-2.786c-0.232-0.232-0.368-0.542-0.368-0.871 0-0.677 0.561-1.238 1.238-1.238h8.667c0.677 0 1.238 0.561 1.238 1.238z"></path>
</svg>
