<?xml version="1.0" encoding="utf-8"?>
<!-- Generated by IcoMoon.io -->
<!DOCTYPE svg PUBLIC "-//W3C//DTD SVG 1.1//EN" "http://www.w3.org/Graphics/SVG/1.1/DTD/svg11.dtd">
<svg version="1.1" xmlns="http://www.w3.org/2000/svg" xmlns:xlink="http://www.w3.org/1999/xlink" width="32" height="32" viewBox="0 0 32 32">
<path d="M16 2.204c-7.611 0-13.796 6.185-13.796 13.796s6.185 13.796 13.796 13.796 13.796-6.185 13.796-13.796-6.185-13.796-13.796-13.796zM16 1.143c8.208 0 14.857 6.649 14.857 14.857s-6.649 14.857-14.857 14.857-14.857-6.649-14.857-14.857 6.649-14.857 14.857-14.857zM9.367 14.939c0.149 0 0.265 0.116 0.265 0.265v7.959c0 0.149-0.116 0.265-0.265 0.265h-0.531c-0.149 0-0.265-0.116-0.265-0.265v-7.959c0-0.149 0.116-0.265 0.265-0.265h0.531zM16 16c1.177 0 2.122 0.945 2.122 2.122 0 0.779-0.431 1.459-1.061 1.824v1.89c0 0.298-0.232 0.531-0.531 0.531h-1.061c-0.298 0-0.531-0.232-0.531-0.531v-1.89c-0.63-0.365-1.061-1.045-1.061-1.824 0-1.177 0.945-2.122 2.122-2.122zM16 3.265c7.031 0 12.735 5.704 12.735 12.735s-5.704 12.735-12.735 12.735-12.735-5.704-12.735-12.735 5.704-12.735 12.735-12.735zM10.163 11.225v1.592c0 0.298 0.232 0.531 0.531 0.531h1.061c0.298 0 0.531-0.232 0.531-0.531v-1.592c0-2.056 1.658-3.714 3.714-3.714s3.714 1.658 3.714 3.714v1.592c0 0.298 0.232 0.531 0.531 0.531h1.061c0.298 0 0.531-0.232 0.531-0.531v-1.592c0-3.217-2.62-5.837-5.837-5.837s-5.837 2.62-5.837 5.837zM24.49 23.429v-8.49c0-0.58-0.481-1.061-1.061-1.061h-14.857c-0.58 0-1.061 0.481-1.061 1.061v8.49c0 0.58 0.481 1.061 1.061 1.061h14.857c0.58 0 1.061-0.481 1.061-1.061z"></path>
</svg>
