<?xml version="1.0" encoding="utf-8"?>
<!-- Generated by IcoMoon.io -->
<!DOCTYPE svg PUBLIC "-//W3C//DTD SVG 1.1//EN" "http://www.w3.org/Graphics/SVG/1.1/DTD/svg11.dtd">
<svg version="1.1" xmlns="http://www.w3.org/2000/svg" xmlns:xlink="http://www.w3.org/1999/xlink" width="32" height="32" viewBox="0 0 32 32">
<path d="M24.381 18.619v5.238c0 2.603-2.112 4.714-4.714 4.714h-13.619c-2.603 0-4.714-2.112-4.714-4.714v-13.619c0-2.603 2.112-4.714 4.714-4.714h11.524c0.295 0 0.524 0.229 0.524 0.524v1.048c0 0.295-0.229 0.524-0.524 0.524h-11.524c-1.44 0-2.619 1.179-2.619 2.619v13.619c0 1.44 1.179 2.619 2.619 2.619h13.619c1.44 0 2.619-1.179 2.619-2.619v-5.238c0-0.295 0.229-0.524 0.524-0.524h1.048c0.295 0 0.524 0.229 0.524 0.524zM30.667 4.476v8.381c0 0.573-0.475 1.048-1.048 1.048-0.278 0-0.54-0.115-0.737-0.311l-2.881-2.881-10.673 10.673c-0.098 0.098-0.246 0.164-0.377 0.164s-0.278-0.065-0.377-0.164l-1.866-1.866c-0.098-0.098-0.164-0.246-0.164-0.377s0.065-0.278 0.164-0.377l10.673-10.673-2.881-2.881c-0.196-0.196-0.311-0.458-0.311-0.737 0-0.573 0.475-1.048 1.048-1.048h8.381c0.573 0 1.048 0.475 1.048 1.048z"></path>
</svg>
