<?xml version="1.0" encoding="utf-8"?>
<!-- Generated by IcoMoon.io -->
<!DOCTYPE svg PUBLIC "-//W3C//DTD SVG 1.1//EN" "http://www.w3.org/Graphics/SVG/1.1/DTD/svg11.dtd">
<svg version="1.1" xmlns="http://www.w3.org/2000/svg" xmlns:xlink="http://www.w3.org/1999/xlink" width="32" height="32" viewBox="0 0 32 32">
<path d="M25.905 16.619v-9.286c0-0.677-0.561-1.238-1.238-1.238h-9.286c-0.503 0-0.948 0.31-1.141 0.754-0.193 0.464-0.097 1.006 0.271 1.354l2.786 2.786-10.33 10.33c-0.484 0.484-0.484 1.257 0 1.741l1.973 1.973c0.484 0.484 1.257 0.484 1.741 0l10.33-10.33 2.786 2.786c0.232 0.252 0.542 0.368 0.871 0.368 0.155 0 0.329-0.039 0.484-0.097 0.445-0.193 0.754-0.638 0.754-1.141zM30.857 6.714v18.571c0 3.076-2.496 5.571-5.571 5.571h-18.571c-3.076 0-5.571-2.496-5.571-5.571v-18.571c0-3.076 2.496-5.571 5.571-5.571h18.571c3.076 0 5.571 2.496 5.571 5.571z"></path>
</svg>
