<?xml version="1.0" encoding="utf-8"?>
<!-- Generated by IcoMoon.io -->
<!DOCTYPE svg PUBLIC "-//W3C//DTD SVG 1.1//EN" "http://www.w3.org/Graphics/SVG/1.1/DTD/svg11.dtd">
<svg version="1.1" xmlns="http://www.w3.org/2000/svg" xmlns:xlink="http://www.w3.org/1999/xlink" width="32" height="32" viewBox="0 0 32 32">
<path d="M10.491 22.059l1.26-2.278c-1.874-1.357-2.989-3.538-2.989-5.849 0-1.276 0.339-2.537 0.986-3.635-2.52 1.293-4.621 3.328-6.156 5.703 1.68 2.601 4.055 4.782 6.899 6.059zM16.776 9.796c0-0.42-0.355-0.776-0.776-0.776-2.698 0-4.912 2.213-4.912 4.912 0 0.42 0.355 0.776 0.776 0.776s0.776-0.355 0.776-0.776c0-1.858 1.519-3.361 3.361-3.361 0.42 0 0.776-0.355 0.776-0.776zM22.64 6.71c0 0.032 0 0.113-0.016 0.145-3.409 6.091-6.786 12.214-10.195 18.305l-0.792 1.438c-0.097 0.162-0.275 0.259-0.452 0.259-0.291 0-1.826-0.937-2.165-1.131-0.162-0.097-0.258-0.259-0.258-0.452 0-0.259 0.549-1.131 0.711-1.406-3.134-1.422-5.768-3.845-7.626-6.753-0.21-0.323-0.323-0.711-0.323-1.115 0-0.388 0.113-0.792 0.323-1.115 3.199-4.912 8.191-8.191 14.153-8.191 0.969 0 1.955 0.097 2.908 0.275l0.872-1.567c0.097-0.162 0.259-0.258 0.452-0.258 0.291 0 1.81 0.937 2.149 1.131 0.162 0.097 0.259 0.258 0.259 0.436zM23.238 13.932c0 3.005-1.858 5.687-4.653 6.753l4.524-8.111c0.081 0.452 0.129 0.905 0.129 1.357zM30.476 16c0 0.42-0.113 0.759-0.323 1.115-0.501 0.824-1.131 1.616-1.761 2.343-3.167 3.635-7.529 5.849-12.392 5.849l1.196-2.133c4.702-0.404 8.692-3.264 11.213-7.173-1.196-1.858-2.73-3.49-4.556-4.75l1.018-1.81c2.003 1.341 4.023 3.361 5.283 5.445 0.21 0.355 0.323 0.695 0.323 1.115z"></path>
</svg>
