<?xml version="1.0" encoding="utf-8"?>
<!-- Generated by IcoMoon.io -->
<!DOCTYPE svg PUBLIC "-//W3C//DTD SVG 1.1//EN" "http://www.w3.org/Graphics/SVG/1.1/DTD/svg11.dtd">
<svg version="1.1" xmlns="http://www.w3.org/2000/svg" xmlns:xlink="http://www.w3.org/1999/xlink" width="32" height="32" viewBox="0 0 32 32">
<path d="M28.19 16c-1.508-2.333-3.571-4.333-6.048-5.603 0.635 1.079 0.968 2.317 0.968 3.571 0 3.921-3.19 7.111-7.111 7.111s-7.111-3.19-7.111-7.111c0-1.254 0.333-2.492 0.968-3.571-2.476 1.27-4.54 3.27-6.048 5.603 2.714 4.19 7.095 7.111 12.19 7.111s9.476-2.921 12.19-7.111zM16.762 9.905c0-0.413-0.349-0.762-0.762-0.762-2.651 0-4.825 2.175-4.825 4.825 0 0.413 0.349 0.762 0.762 0.762s0.762-0.349 0.762-0.762c0-1.81 1.492-3.302 3.302-3.302 0.413 0 0.762-0.349 0.762-0.762zM30.222 16c0 0.397-0.127 0.762-0.317 1.095-2.921 4.81-8.27 8.048-13.905 8.048s-10.984-3.254-13.905-8.048c-0.19-0.333-0.317-0.698-0.317-1.095s0.127-0.762 0.317-1.095c2.921-4.794 8.27-8.048 13.905-8.048s10.984 3.254 13.905 8.048c0.19 0.333 0.317 0.698 0.317 1.095z"></path>
</svg>
