<?xml version="1.0" encoding="utf-8"?>
<!-- Generated by IcoMoon.io -->
<!DOCTYPE svg PUBLIC "-//W3C//DTD SVG 1.1//EN" "http://www.w3.org/Graphics/SVG/1.1/DTD/svg11.dtd">
<svg version="1.1" xmlns="http://www.w3.org/2000/svg" xmlns:xlink="http://www.w3.org/1999/xlink" width="33" height="32" viewBox="0 0 33 32">
<path d="M29.090 3.195c2.036 2.036 2.053 5.343 0 7.363l-3.665 3.633 1.694 1.694c0.212 0.212 0.212 0.538 0 0.749l-3.421 3.421c-0.212 0.212-0.538 0.212-0.749 0l-1.711-1.71-9.823 9.823c-0.391 0.391-0.912 0.603-1.466 0.603h-3.307l-4.17 2.085-1.043-1.043 2.085-4.17v-3.307c0-0.554 0.212-1.075 0.603-1.466l9.823-9.823-1.71-1.711c-0.212-0.212-0.212-0.538 0-0.749l3.421-3.421c0.212-0.212 0.538-0.212 0.749 0l1.694 1.694 3.633-3.665c2.020-2.053 5.327-2.036 7.363 0zM9.769 25.644l9.383-9.383-3.128-3.128-9.383 9.383v3.128h3.128z"></path>
</svg>
