<?xml version="1.0" encoding="utf-8"?>
<!-- Generated by IcoMoon.io -->
<!DOCTYPE svg PUBLIC "-//W3C//DTD SVG 1.1//EN" "http://www.w3.org/Graphics/SVG/1.1/DTD/svg11.dtd">
<svg version="1.1" xmlns="http://www.w3.org/2000/svg" xmlns:xlink="http://www.w3.org/1999/xlink" width="32" height="32" viewBox="0 0 32 32">
<path d="M28.187 9.633v13.912c0 0.514-0.332 0.895-0.813 1.028-1.774 0.531-3.764 0.862-5.605 0.862-2.487 0-4.593-0.978-7.346-0.978-2.040 0-4.145 0.332-6.135 0.796v5.605h-2.653v-22.684c-1.393-0.547-2.305-1.907-2.305-3.399 0-2.006 1.625-3.631 3.631-3.631s3.631 1.625 3.631 3.631c0 1.492-0.912 2.852-2.305 3.399v1.128c1.857-0.431 3.781-0.73 5.688-0.73 1.094 0 2.189 0.083 3.283 0.249 1.426 0.216 2.869 0.713 4.328 0.713 0.912 0 1.841-0.116 2.736-0.298 0.68-0.133 2.239-0.663 2.802-0.663 0.58 0 1.061 0.481 1.061 1.061z"></path>
</svg>
