<?xml version="1.0" encoding="utf-8"?>
<!-- Generated by IcoMoon.io -->
<!DOCTYPE svg PUBLIC "-//W3C//DTD SVG 1.1//EN" "http://www.w3.org/Graphics/SVG/1.1/DTD/svg11.dtd">
<svg version="1.1" xmlns="http://www.w3.org/2000/svg" xmlns:xlink="http://www.w3.org/1999/xlink" width="32" height="32" viewBox="0 0 32 32">
<path d="M25.286 1.143c3.076 0 5.571 2.496 5.571 5.571v18.571c0 3.076-2.496 5.571-5.571 5.571h-3.637v-11.51h3.85l0.58-4.488h-4.43v-2.863c0-1.296 0.348-2.167 2.225-2.167l2.36-0.019v-4.004c-0.406-0.058-1.818-0.174-3.443-0.174-3.424 0-5.784 2.089-5.784 5.92v3.308h-3.869v4.488h3.869v11.51h-10.292c-3.076 0-5.571-2.496-5.571-5.571v-18.571c0-3.076 2.496-5.571 5.571-5.571h18.571z"></path>
</svg>
