<?xml version="1.0" encoding="utf-8"?>
<!-- Generated by IcoMoon.io -->
<!DOCTYPE svg PUBLIC "-//W3C//DTD SVG 1.1//EN" "http://www.w3.org/Graphics/SVG/1.1/DTD/svg11.dtd">
<svg version="1.1" xmlns="http://www.w3.org/2000/svg" xmlns:xlink="http://www.w3.org/1999/xlink" width="32" height="32" viewBox="0 0 32 32">
<path d="M29.95 3.624c0.41-0.41 0.738-0.262 0.738 0.311v24.129c0 0.574-0.328 0.721-0.738 0.311l-11.638-11.638c-0.098-0.098-0.164-0.197-0.213-0.311v11.638c0 0.574-0.328 0.721-0.738 0.311l-11.638-11.638c-0.098-0.098-0.164-0.197-0.213-0.311v11.114c0 0.574-0.475 1.049-1.049 1.049h-2.098c-0.574 0-1.049-0.475-1.049-1.049v-23.080c0-0.574 0.475-1.049 1.049-1.049h2.098c0.574 0 1.049 0.475 1.049 1.049v11.114c0.049-0.115 0.115-0.213 0.213-0.311l11.638-11.638c0.41-0.41 0.738-0.262 0.738 0.311v11.638c0.049-0.115 0.115-0.213 0.213-0.311z"></path>
</svg>
