<?xml version="1.0" encoding="utf-8"?>
<!-- Generated by IcoMoon.io -->
<!DOCTYPE svg PUBLIC "-//W3C//DTD SVG 1.1//EN" "http://www.w3.org/Graphics/SVG/1.1/DTD/svg11.dtd">
<svg version="1.1" xmlns="http://www.w3.org/2000/svg" xmlns:xlink="http://www.w3.org/1999/xlink" width="32" height="32" viewBox="0 0 32 32">
<path d="M5.918 7.51c1.459 0 2.653 1.194 2.653 2.653v18.041c0 1.459-1.194 2.653-2.653 2.653h-2.122c-1.459 0-2.653-1.194-2.653-2.653v-18.041c0-1.459 1.194-2.653 2.653-2.653h2.122zM28.735 10.213c1.26 0.73 2.122 2.106 2.122 3.665v12.735c0 2.338-1.907 4.245-4.245 4.245h-14.327c-1.459 0-2.653-1.194-2.653-2.653v-25.469c0-0.879 0.713-1.592 1.592-1.592h11.143c0.879 0 2.106 0.514 2.719 1.128l2.52 2.52c0.614 0.614 1.128 1.841 1.128 2.719v2.703zM16.531 26.612v-2.122c0-0.298-0.232-0.531-0.531-0.531h-2.122c-0.298 0-0.531 0.232-0.531 0.531v2.122c0 0.298 0.232 0.531 0.531 0.531h2.122c0.298 0 0.531-0.232 0.531-0.531zM16.531 22.367v-2.122c0-0.298-0.232-0.531-0.531-0.531h-2.122c-0.298 0-0.531 0.232-0.531 0.531v2.122c0 0.298 0.232 0.531 0.531 0.531h2.122c0.298 0 0.531-0.232 0.531-0.531zM16.531 18.122v-2.122c0-0.298-0.232-0.531-0.531-0.531h-2.122c-0.298 0-0.531 0.232-0.531 0.531v2.122c0 0.298 0.232 0.531 0.531 0.531h2.122c0.298 0 0.531-0.232 0.531-0.531zM20.776 26.612v-2.122c0-0.298-0.232-0.531-0.531-0.531h-2.122c-0.298 0-0.531 0.232-0.531 0.531v2.122c0 0.298 0.232 0.531 0.531 0.531h2.122c0.298 0 0.531-0.232 0.531-0.531zM20.776 22.367v-2.122c0-0.298-0.232-0.531-0.531-0.531h-2.122c-0.298 0-0.531 0.232-0.531 0.531v2.122c0 0.298 0.232 0.531 0.531 0.531h2.122c0.298 0 0.531-0.232 0.531-0.531zM20.776 18.122v-2.122c0-0.298-0.232-0.531-0.531-0.531h-2.122c-0.298 0-0.531 0.232-0.531 0.531v2.122c0 0.298 0.232 0.531 0.531 0.531h2.122c0.298 0 0.531-0.232 0.531-0.531zM25.020 26.612v-2.122c0-0.298-0.232-0.531-0.531-0.531h-2.122c-0.298 0-0.531 0.232-0.531 0.531v2.122c0 0.298 0.232 0.531 0.531 0.531h2.122c0.298 0 0.531-0.232 0.531-0.531zM25.020 22.367v-2.122c0-0.298-0.232-0.531-0.531-0.531h-2.122c-0.298 0-0.531 0.232-0.531 0.531v2.122c0 0.298 0.232 0.531 0.531 0.531h2.122c0.298 0 0.531-0.232 0.531-0.531zM25.020 18.122v-2.122c0-0.298-0.232-0.531-0.531-0.531h-2.122c-0.298 0-0.531 0.232-0.531 0.531v2.122c0 0.298 0.232 0.531 0.531 0.531h2.122c0.298 0 0.531-0.232 0.531-0.531zM26.612 11.755v-4.245h-2.653c-0.879 0-1.592-0.713-1.592-1.592v-2.653h-10.612v8.49h14.857z"></path>
</svg>
