<?xml version="1.0" encoding="utf-8"?>
<!-- Generated by IcoMoon.io -->
<!DOCTYPE svg PUBLIC "-//W3C//DTD SVG 1.1//EN" "http://www.w3.org/Graphics/SVG/1.1/DTD/svg11.dtd">
<svg version="1.1" xmlns="http://www.w3.org/2000/svg" xmlns:xlink="http://www.w3.org/1999/xlink" width="31" height="32" viewBox="0 0 31 32">
<path d="M8.935 26.388c0 2.151-1.745 3.896-3.896 3.896s-3.896-1.745-3.896-3.896 1.745-3.896 3.896-3.896 3.896 1.745 3.896 3.896zM19.323 28.884c0.020 0.365-0.101 0.71-0.345 0.974-0.243 0.284-0.588 0.426-0.954 0.426h-2.739c-0.67 0-1.217-0.507-1.278-1.177-0.588-6.188-5.498-11.098-11.687-11.687-0.67-0.061-1.177-0.609-1.177-1.278v-2.739c0-0.365 0.142-0.71 0.426-0.954 0.223-0.223 0.548-0.345 0.872-0.345h0.101c4.322 0.345 8.4 2.232 11.464 5.316 3.084 3.064 4.971 7.142 5.316 11.464zM29.712 28.925c0.020 0.345-0.101 0.69-0.365 0.954-0.243 0.264-0.568 0.406-0.933 0.406h-2.901c-0.69 0-1.258-0.527-1.299-1.217-0.67-11.788-10.064-21.182-21.852-21.872-0.69-0.041-1.217-0.609-1.217-1.278v-2.901c0-0.365 0.142-0.69 0.406-0.933 0.243-0.243 0.568-0.365 0.893-0.365h0.061c7.101 0.365 13.777 3.348 18.808 8.4 5.052 5.032 8.035 11.707 8.4 18.808z"></path>
</svg>
