<?xml version="1.0" encoding="utf-8"?>
<!-- Generated by IcoMoon.io -->
<!DOCTYPE svg PUBLIC "-//W3C//DTD SVG 1.1//EN" "http://www.w3.org/Graphics/SVG/1.1/DTD/svg11.dtd">
<svg version="1.1" xmlns="http://www.w3.org/2000/svg" xmlns:xlink="http://www.w3.org/1999/xlink" width="32" height="32" viewBox="0 0 32 32">
<path d="M26.805 18.431c0 0.895-0.726 1.621-1.621 1.621-0.54 0-1.047-0.27-1.351-0.726l-3.832-5.757h-0.76v2.229l4.17 6.939c0.101 0.169 0.152 0.355 0.152 0.557 0 0.591-0.49 1.081-1.081 1.081h-3.242v4.592c0 1.047-0.844 1.891-1.891 1.891h-2.701c-1.030 0-1.891-0.844-1.891-1.891v-4.592h-3.242c-0.591 0-1.081-0.49-1.081-1.081 0-0.203 0.051-0.388 0.152-0.557l4.17-6.939v-2.229h-0.76l-3.832 5.757c-0.304 0.456-0.81 0.726-1.351 0.726-0.895 0-1.621-0.726-1.621-1.621 0-0.321 0.101-0.642 0.27-0.895l4.322-6.483c0.675-0.996 1.722-1.806 2.971-1.806h6.483c1.249 0 2.296 0.81 2.971 1.806l4.322 6.483c0.169 0.253 0.27 0.574 0.27 0.895zM19.782 4.925c0 2.093-1.688 3.782-3.782 3.782s-3.782-1.688-3.782-3.782 1.688-3.782 3.782-3.782 3.782 1.688 3.782 3.782z"></path>
</svg>
