<?xml version="1.0" encoding="utf-8"?>
<!-- Generated by IcoMoon.io -->
<!DOCTYPE svg PUBLIC "-//W3C//DTD SVG 1.1//EN" "http://www.w3.org/Graphics/SVG/1.1/DTD/svg11.dtd">
<svg version="1.1" xmlns="http://www.w3.org/2000/svg" xmlns:xlink="http://www.w3.org/1999/xlink" width="32" height="32" viewBox="0 0 32 32">
<path d="M30.095 16c0 0 0 0.47-4.229 1.41l-5.168 0.47-3.289 0.94h-0.94l-4.302 5.168h1.013c0.514 0 0.94 0.103 0.94 0.235s-0.426 0.235-0.94 0.235h-4.698v-0.47h0.94v-6.108h-2.349l-2.819 3.289h-1.41l-0.47-0.47v-2.819h0.47v-0.47h1.879v-0.117l-2.819-0.352v-1.879l2.819-0.352v-0.117h-1.879v-0.47h-0.47v-2.819l0.47-0.47h1.41l2.819 3.289h2.349v-6.108h-0.94v-0.47h4.698c0.514 0 0.94 0.103 0.94 0.235s-0.426 0.235-0.94 0.235h-1.013l4.302 5.168h0.94l3.289 0.94 5.168 0.47c4.229 0.94 4.229 1.41 4.229 1.41z"></path>
</svg>
