<?xml version="1.0" encoding="utf-8"?>
<!-- Generated by IcoMoon.io -->
<!DOCTYPE svg PUBLIC "-//W3C//DTD SVG 1.1//EN" "http://www.w3.org/Graphics/SVG/1.1/DTD/svg11.dtd">
<svg version="1.1" xmlns="http://www.w3.org/2000/svg" xmlns:xlink="http://www.w3.org/1999/xlink" width="32" height="32" viewBox="0 0 32 32">
<path d="M27.607 7.444c0.614 0.614 1.128 1.841 1.128 2.719v19.102c0 0.879-0.713 1.592-1.592 1.592h-22.286c-0.879 0-1.592-0.713-1.592-1.592v-26.531c0-0.879 0.713-1.592 1.592-1.592h14.857c0.879 0 2.106 0.514 2.719 1.128zM20.245 3.398v6.235h6.235c-0.099-0.282-0.249-0.564-0.365-0.68l-5.19-5.19c-0.116-0.116-0.398-0.265-0.68-0.365zM26.612 28.735v-16.98h-6.898c-0.879 0-1.592-0.713-1.592-1.592v-6.898h-12.735v25.469h21.224zM13.546 15.237c0.199 0.083 0.332 0.282 0.332 0.497v9.020c0 0.216-0.133 0.415-0.332 0.497-0.066 0.017-0.133 0.033-0.199 0.033-0.133 0-0.265-0.050-0.381-0.149l-2.753-2.769h-2.172c-0.298 0-0.531-0.232-0.531-0.531v-3.184c0-0.298 0.232-0.531 0.531-0.531h2.172l2.753-2.769c0.166-0.149 0.381-0.199 0.58-0.116zM20.46 26.662c0.315 0 0.614-0.133 0.829-0.398 1.376-1.691 2.139-3.83 2.139-6.019s-0.763-4.328-2.139-6.019c-0.365-0.464-1.045-0.531-1.492-0.166-0.464 0.381-0.531 1.045-0.149 1.509 1.078 1.327 1.658 2.952 1.658 4.676s-0.58 3.349-1.658 4.676c-0.381 0.464-0.315 1.128 0.149 1.492 0.199 0.166 0.431 0.249 0.663 0.249zM16.962 24.208c0.282 0 0.564-0.116 0.779-0.332 0.929-0.995 1.443-2.272 1.443-3.631s-0.514-2.636-1.443-3.631c-0.398-0.431-1.078-0.448-1.509-0.050-0.415 0.398-0.448 1.078-0.033 1.509 0.547 0.597 0.862 1.36 0.862 2.172s-0.315 1.575-0.862 2.172c-0.415 0.431-0.381 1.111 0.033 1.509 0.216 0.182 0.481 0.282 0.73 0.282z"></path>
</svg>
