<?xml version="1.0" encoding="utf-8"?>
<!-- Generated by IcoMoon.io -->
<!DOCTYPE svg PUBLIC "-//W3C//DTD SVG 1.1//EN" "http://www.w3.org/Graphics/SVG/1.1/DTD/svg11.dtd">
<svg version="1.1" xmlns="http://www.w3.org/2000/svg" xmlns:xlink="http://www.w3.org/1999/xlink" width="32" height="32" viewBox="0 0 32 32">
<path d="M13.878 7.51v-2.122h-2.122v2.122h2.122zM16 9.633v-2.122h-2.122v2.122h2.122zM13.878 11.755v-2.122h-2.122v2.122h2.122zM16 13.878v-2.122h-2.122v2.122h2.122zM27.607 7.444c0.614 0.614 1.128 1.841 1.128 2.719v19.102c0 0.879-0.713 1.592-1.592 1.592h-22.286c-0.879 0-1.592-0.713-1.592-1.592v-26.531c0-0.879 0.713-1.592 1.592-1.592h14.857c0.879 0 2.106 0.514 2.719 1.128zM20.245 3.398v6.235h6.235c-0.099-0.282-0.249-0.564-0.365-0.68l-5.19-5.19c-0.116-0.116-0.398-0.265-0.68-0.365zM26.612 28.735v-16.98h-6.898c-0.879 0-1.592-0.713-1.592-1.592v-6.898h-2.122v2.122h-2.122v-2.122h-8.49v25.469h21.224zM16.216 16.779c1.409 4.759 1.774 5.787 1.774 5.787 0.083 0.282 0.133 0.564 0.133 0.862 0 1.841-1.791 3.184-4.245 3.184s-4.245-1.343-4.245-3.184c0-0.298 0.050-0.58 0.133-0.862 0 0 0.348-1.028 1.99-6.566v-2.122h2.122v2.122h1.31c0.481 0 0.895 0.315 1.028 0.779zM13.878 24.49c1.177 0 2.122-0.481 2.122-1.061s-0.945-1.061-2.122-1.061-2.122 0.481-2.122 1.061 0.945 1.061 2.122 1.061z"></path>
</svg>
