<?xml version="1.0" encoding="utf-8"?>
<!-- Generated by IcoMoon.io -->
<!DOCTYPE svg PUBLIC "-//W3C//DTD SVG 1.1//EN" "http://www.w3.org/Graphics/SVG/1.1/DTD/svg11.dtd">
<svg version="1.1" xmlns="http://www.w3.org/2000/svg" xmlns:xlink="http://www.w3.org/1999/xlink" width="32" height="32" viewBox="0 0 32 32">
<path d="M27.607 7.444c0.614 0.614 1.128 1.841 1.128 2.719v19.102c0 0.879-0.713 1.592-1.592 1.592h-22.286c-0.879 0-1.592-0.713-1.592-1.592v-26.531c0-0.879 0.713-1.592 1.592-1.592h14.857c0.879 0 2.106 0.514 2.719 1.128zM20.245 3.398v6.235h6.235c-0.099-0.282-0.249-0.564-0.365-0.68l-5.19-5.19c-0.116-0.116-0.398-0.265-0.68-0.365zM26.612 28.735v-16.98h-6.898c-0.879 0-1.592-0.713-1.592-1.592v-6.898h-12.735v25.469h21.224zM11.225 13.878c0.182-0.232 0.514-0.282 0.746-0.1l0.846 0.63c0.232 0.182 0.282 0.514 0.1 0.746l-3.018 4.029 3.018 4.029c0.182 0.232 0.133 0.564-0.1 0.746l-0.846 0.63c-0.232 0.182-0.564 0.133-0.746-0.099l-3.747-4.991c-0.133-0.182-0.133-0.448 0-0.63zM24.523 18.869c0.133 0.182 0.133 0.448 0 0.63l-3.747 4.991c-0.182 0.232-0.514 0.282-0.746 0.099l-0.846-0.63c-0.232-0.182-0.282-0.514-0.099-0.746l3.018-4.029-3.018-4.029c-0.182-0.232-0.133-0.564 0.099-0.746l0.846-0.63c0.232-0.182 0.564-0.133 0.746 0.1zM14.242 26.513c-0.298-0.050-0.481-0.332-0.431-0.614l2.288-13.779c0.050-0.298 0.332-0.481 0.614-0.431l1.045 0.166c0.298 0.050 0.481 0.332 0.431 0.614l-2.288 13.779c-0.050 0.298-0.332 0.481-0.614 0.431z"></path>
</svg>
