<?xml version="1.0" encoding="utf-8"?>
<!-- Generated by IcoMoon.io -->
<!DOCTYPE svg PUBLIC "-//W3C//DTD SVG 1.1//EN" "http://www.w3.org/Graphics/SVG/1.1/DTD/svg11.dtd">
<svg version="1.1" xmlns="http://www.w3.org/2000/svg" xmlns:xlink="http://www.w3.org/1999/xlink" width="32" height="32" viewBox="0 0 32 32">
<path d="M27.607 7.444c0.614 0.614 1.128 1.841 1.128 2.719v19.102c0 0.879-0.713 1.592-1.592 1.592h-22.286c-0.879 0-1.592-0.713-1.592-1.592v-26.531c0-0.879 0.713-1.592 1.592-1.592h14.857c0.879 0 2.106 0.514 2.719 1.128zM20.245 3.398v6.235h6.235c-0.099-0.282-0.249-0.564-0.365-0.68l-5.19-5.19c-0.116-0.116-0.398-0.265-0.68-0.365zM26.612 28.735v-16.98h-6.898c-0.879 0-1.592-0.713-1.592-1.592v-6.898h-12.735v25.469h21.224zM7.129 13.878v1.774h1.161l2.719 10.96h2.636l2.122-8.042c0.083-0.249 0.133-0.497 0.166-0.763 0.017-0.133 0.033-0.265 0.033-0.398h0.066l0.050 0.398c0.050 0.232 0.066 0.497 0.149 0.763l2.122 8.042h2.636l2.719-10.96h1.161v-1.774h-4.974v1.774h1.492l-1.642 7.263c-0.066 0.265-0.099 0.547-0.116 0.763l-0.033 0.348h-0.066c0-0.099-0.033-0.232-0.050-0.348-0.050-0.216-0.083-0.497-0.149-0.763l-2.388-9.037h-1.89l-2.388 9.037c-0.066 0.265-0.083 0.547-0.133 0.763l-0.066 0.348h-0.066l-0.033-0.348c-0.017-0.216-0.050-0.497-0.116-0.763l-1.642-7.263h1.492v-1.774h-4.974z"></path>
</svg>
