<?xml version="1.0" encoding="utf-8"?>
<!-- Generated by IcoMoon.io -->
<!DOCTYPE svg PUBLIC "-//W3C//DTD SVG 1.1//EN" "http://www.w3.org/Graphics/SVG/1.1/DTD/svg11.dtd">
<svg version="1.1" xmlns="http://www.w3.org/2000/svg" xmlns:xlink="http://www.w3.org/1999/xlink" width="32" height="32" viewBox="0 0 32 32">
<path d="M27.607 7.444c0.614 0.614 1.128 1.841 1.128 2.719v19.102c0 0.879-0.713 1.592-1.592 1.592h-22.286c-0.879 0-1.592-0.713-1.592-1.592v-26.531c0-0.879 0.713-1.592 1.592-1.592h14.857c0.879 0 2.106 0.514 2.719 1.128zM20.245 3.398v6.235h6.235c-0.099-0.282-0.249-0.564-0.365-0.68l-5.19-5.19c-0.116-0.116-0.398-0.265-0.68-0.365zM26.612 28.735v-16.98h-6.898c-0.879 0-1.592-0.713-1.592-1.592v-6.898h-12.735v25.469h21.224zM18.089 18.902c0.415 0.332 0.879 0.63 1.393 0.929 0.696-0.083 1.343-0.116 1.94-0.116 1.111 0 2.52 0.133 2.935 0.813 0.116 0.166 0.216 0.464 0.033 0.862-0.017 0.017-0.033 0.050-0.050 0.066v0.017c-0.050 0.298-0.298 0.63-1.177 0.63-1.061 0-2.67-0.481-4.063-1.21-2.305 0.249-4.726 0.763-6.5 1.376-1.708 2.918-3.018 4.344-4.013 4.344-0.166 0-0.315-0.033-0.464-0.116l-0.398-0.199c-0.050-0.017-0.066-0.050-0.099-0.083-0.083-0.083-0.149-0.265-0.099-0.597 0.166-0.763 1.061-2.040 3.117-3.117 0.133-0.083 0.298-0.033 0.381 0.099 0.017 0.017 0.033 0.050 0.033 0.066 0.514-0.846 1.111-1.923 1.774-3.267 0.746-1.492 1.327-2.952 1.725-4.344-0.531-1.807-0.696-3.665-0.398-4.759 0.116-0.415 0.365-0.663 0.696-0.663h0.365c0.249 0 0.448 0.083 0.58 0.249 0.199 0.232 0.249 0.597 0.149 1.128-0.017 0.050-0.033 0.1-0.066 0.133 0.017 0.050 0.017 0.083 0.017 0.133v0.497c-0.017 1.045-0.033 2.040-0.232 3.184 0.58 1.741 1.443 3.151 2.421 3.946zM8.538 25.717c0.497-0.232 1.21-0.945 2.272-2.62-1.244 0.962-2.023 2.056-2.272 2.62zM15.138 10.462c-0.166 0.464-0.166 1.26-0.033 2.189 0.050-0.265 0.083-0.514 0.116-0.73 0.033-0.282 0.083-0.514 0.116-0.713 0.017-0.050 0.033-0.083 0.066-0.133-0.017-0.017-0.017-0.050-0.033-0.083-0.017-0.298-0.116-0.481-0.216-0.597 0 0.033-0.017 0.050-0.017 0.066zM13.082 21.422c1.459-0.58 3.084-1.045 4.709-1.343-0.166-0.133-0.332-0.249-0.481-0.381-0.813-0.713-1.542-1.708-2.106-2.918-0.315 1.011-0.779 2.089-1.376 3.267-0.249 0.464-0.497 0.929-0.746 1.376zM23.793 21.157c-0.083-0.083-0.514-0.398-2.321-0.398 0.813 0.298 1.559 0.464 2.056 0.464 0.149 0 0.232 0 0.298-0.017 0-0.017-0.017-0.033-0.033-0.050z"></path>
</svg>
