<?xml version="1.0" encoding="utf-8"?>
<!-- Generated by IcoMoon.io -->
<!DOCTYPE svg PUBLIC "-//W3C//DTD SVG 1.1//EN" "http://www.w3.org/Graphics/SVG/1.1/DTD/svg11.dtd">
<svg version="1.1" xmlns="http://www.w3.org/2000/svg" xmlns:xlink="http://www.w3.org/1999/xlink" width="32" height="32" viewBox="0 0 32 32">
<path d="M27.607 7.444c0.614 0.614 1.128 1.841 1.128 2.719v19.102c0 0.879-0.713 1.592-1.592 1.592h-22.286c-0.879 0-1.592-0.713-1.592-1.592v-26.531c0-0.879 0.713-1.592 1.592-1.592h14.857c0.879 0 2.106 0.514 2.719 1.128zM20.245 3.398v6.235h6.235c-0.099-0.282-0.249-0.564-0.365-0.68l-5.19-5.19c-0.116-0.116-0.398-0.265-0.68-0.365zM26.612 28.735v-16.98h-6.898c-0.879 0-1.592-0.713-1.592-1.592v-6.898h-12.735v25.469h21.224zM10.379 24.855v1.758h4.659v-1.758h-1.244l1.708-2.67c0.199-0.315 0.298-0.564 0.348-0.564h0.033c0.017 0.066 0.050 0.116 0.083 0.166 0.066 0.133 0.166 0.232 0.282 0.398l1.774 2.67h-1.26v1.758h4.825v-1.758h-1.128l-3.184-4.527 3.233-4.676h1.111v-1.774h-4.626v1.774h1.227l-1.708 2.636c-0.199 0.315-0.348 0.564-0.348 0.547h-0.033c-0.017-0.066-0.050-0.116-0.083-0.166-0.066-0.116-0.149-0.232-0.282-0.381l-1.758-2.636h1.26v-1.774h-4.809v1.774h1.128l3.134 4.51-3.217 4.693h-1.128z"></path>
</svg>
