<?xml version="1.0" encoding="utf-8"?>
<!-- Generated by IcoMoon.io -->
<!DOCTYPE svg PUBLIC "-//W3C//DTD SVG 1.1//EN" "http://www.w3.org/Graphics/SVG/1.1/DTD/svg11.dtd">
<svg version="1.1" xmlns="http://www.w3.org/2000/svg" xmlns:xlink="http://www.w3.org/1999/xlink" width="32" height="32" viewBox="0 0 32 32">
<path d="M27.607 7.444c0.614 0.614 1.128 1.841 1.128 2.719v19.102c0 0.879-0.713 1.592-1.592 1.592h-22.286c-0.879 0-1.592-0.713-1.592-1.592v-26.531c0-0.879 0.713-1.592 1.592-1.592h14.857c0.879 0 2.106 0.514 2.719 1.128zM20.245 3.398v6.235h6.235c-0.099-0.282-0.249-0.564-0.365-0.68l-5.19-5.19c-0.116-0.116-0.398-0.265-0.68-0.365zM26.612 28.735v-16.98h-6.898c-0.879 0-1.592-0.713-1.592-1.592v-6.898h-12.735v25.469h21.224zM10.163 24.855v1.758h5.422v-1.758h-1.542v-2.769h2.272c0.713 0 1.36-0.033 1.957-0.249 1.492-0.514 2.421-2.056 2.421-3.864s-0.895-3.2-2.272-3.781c-0.63-0.249-1.393-0.315-2.156-0.315h-6.102v1.774h1.526v9.203h-1.526zM16.017 20.212h-1.973v-4.444h1.99c0.58 0 1.028 0.1 1.376 0.298 0.597 0.348 0.929 1.028 0.929 1.907 0 0.929-0.332 1.642-1.028 1.99-0.348 0.166-0.779 0.249-1.293 0.249z"></path>
</svg>
