<?xml version="1.0" encoding="utf-8"?>
<!-- Generated by IcoMoon.io -->
<!DOCTYPE svg PUBLIC "-//W3C//DTD SVG 1.1//EN" "http://www.w3.org/Graphics/SVG/1.1/DTD/svg11.dtd">
<svg version="1.1" xmlns="http://www.w3.org/2000/svg" xmlns:xlink="http://www.w3.org/1999/xlink" width="32" height="32" viewBox="0 0 32 32">
<path d="M27.607 9.036c0.166 0.166 0.315 0.365 0.464 0.597h-7.827v-7.827c0.232 0.149 0.431 0.298 0.597 0.464zM19.714 11.755h9.020v17.51c0 0.879-0.713 1.592-1.592 1.592h-22.286c-0.879 0-1.592-0.713-1.592-1.592v-26.531c0-0.879 0.713-1.592 1.592-1.592h13.265v9.020c0 0.879 0.713 1.592 1.592 1.592zM22.367 23.959v-1.061c0-0.298-0.232-0.531-0.531-0.531h-11.673c-0.298 0-0.531 0.232-0.531 0.531v1.061c0 0.298 0.232 0.531 0.531 0.531h11.673c0.298 0 0.531-0.232 0.531-0.531zM22.367 19.714v-1.061c0-0.298-0.232-0.531-0.531-0.531h-11.673c-0.298 0-0.531 0.232-0.531 0.531v1.061c0 0.298 0.232 0.531 0.531 0.531h11.673c0.298 0 0.531-0.232 0.531-0.531zM22.367 15.469v-1.061c0-0.298-0.232-0.531-0.531-0.531h-11.673c-0.298 0-0.531 0.232-0.531 0.531v1.061c0 0.298 0.232 0.531 0.531 0.531h11.673c0.298 0 0.531-0.232 0.531-0.531z"></path>
</svg>
