<?xml version="1.0" encoding="utf-8"?>
<!-- Generated by IcoMoon.io -->
<!DOCTYPE svg PUBLIC "-//W3C//DTD SVG 1.1//EN" "http://www.w3.org/Graphics/SVG/1.1/DTD/svg11.dtd">
<svg version="1.1" xmlns="http://www.w3.org/2000/svg" xmlns:xlink="http://www.w3.org/1999/xlink" width="32" height="32" viewBox="0 0 32 32">
<path d="M27.607 7.444c0.614 0.614 1.128 1.841 1.128 2.719v19.102c0 0.879-0.713 1.592-1.592 1.592h-22.286c-0.879 0-1.592-0.713-1.592-1.592v-26.531c0-0.879 0.713-1.592 1.592-1.592h14.857c0.879 0 2.106 0.514 2.719 1.128zM20.245 3.398v6.235h6.235c-0.099-0.282-0.249-0.564-0.365-0.68l-5.19-5.19c-0.116-0.116-0.398-0.265-0.68-0.365zM26.612 28.735v-16.98h-6.898c-0.879 0-1.592-0.713-1.592-1.592v-6.898h-12.735v25.469h21.224zM16 13.878c1.161 0 2.122 0.962 2.122 2.122v6.367c0 1.161-0.962 2.122-2.122 2.122h-6.367c-1.161 0-2.122-0.962-2.122-2.122v-6.367c0-1.161 0.962-2.122 2.122-2.122h6.367zM24.158 13.911c0.199 0.083 0.332 0.282 0.332 0.497v9.551c0 0.216-0.133 0.415-0.332 0.497-0.066 0.017-0.133 0.033-0.199 0.033-0.133 0-0.282-0.050-0.381-0.149l-4.394-4.411v-1.492l4.394-4.411c0.099-0.1 0.249-0.149 0.381-0.149 0.066 0 0.133 0.017 0.199 0.033z"></path>
</svg>
