<?xml version="1.0" encoding="utf-8"?>
<!-- Generated by IcoMoon.io -->
<!DOCTYPE svg PUBLIC "-//W3C//DTD SVG 1.1//EN" "http://www.w3.org/Graphics/SVG/1.1/DTD/svg11.dtd">
<svg version="1.1" xmlns="http://www.w3.org/2000/svg" xmlns:xlink="http://www.w3.org/1999/xlink" width="32" height="32" viewBox="0 0 32 32">
<path d="M7.191 25.788v-1.958c0-0.535-0.443-0.979-0.979-0.979h-1.958c-0.535 0-0.979 0.443-0.979 0.979v1.958c0 0.535 0.443 0.979 0.979 0.979h1.958c0.535 0 0.979-0.443 0.979-0.979zM7.191 19.915v-1.958c0-0.535-0.443-0.979-0.979-0.979h-1.958c-0.535 0-0.979 0.443-0.979 0.979v1.958c0 0.535 0.443 0.979 0.979 0.979h1.958c0.535 0 0.979-0.443 0.979-0.979zM7.191 14.043v-1.958c0-0.535-0.443-0.979-0.979-0.979h-1.958c-0.535 0-0.979 0.443-0.979 0.979v1.958c0 0.535 0.443 0.979 0.979 0.979h1.958c0.535 0 0.979-0.443 0.979-0.979zM22.851 25.788v-7.83c0-0.535-0.443-0.979-0.979-0.979h-11.745c-0.535 0-0.979 0.443-0.979 0.979v7.83c0 0.535 0.443 0.979 0.979 0.979h11.745c0.535 0 0.979-0.443 0.979-0.979zM7.191 8.17v-1.958c0-0.535-0.443-0.979-0.979-0.979h-1.958c-0.535 0-0.979 0.443-0.979 0.979v1.958c0 0.535 0.443 0.979 0.979 0.979h1.958c0.535 0 0.979-0.443 0.979-0.979zM28.724 25.788v-1.958c0-0.535-0.443-0.979-0.979-0.979h-1.958c-0.535 0-0.979 0.443-0.979 0.979v1.958c0 0.535 0.443 0.979 0.979 0.979h1.958c0.535 0 0.979-0.443 0.979-0.979zM22.851 14.043v-7.83c0-0.535-0.443-0.979-0.979-0.979h-11.745c-0.535 0-0.979 0.443-0.979 0.979v7.83c0 0.535 0.443 0.979 0.979 0.979h11.745c0.535 0 0.979-0.443 0.979-0.979zM28.724 19.915v-1.958c0-0.535-0.443-0.979-0.979-0.979h-1.958c-0.535 0-0.979 0.443-0.979 0.979v1.958c0 0.535 0.443 0.979 0.979 0.979h1.958c0.535 0 0.979-0.443 0.979-0.979zM28.724 14.043v-1.958c0-0.535-0.443-0.979-0.979-0.979h-1.958c-0.535 0-0.979 0.443-0.979 0.979v1.958c0 0.535 0.443 0.979 0.979 0.979h1.958c0.535 0 0.979-0.443 0.979-0.979zM28.724 8.17v-1.958c0-0.535-0.443-0.979-0.979-0.979h-1.958c-0.535 0-0.979 0.443-0.979 0.979v1.958c0 0.535 0.443 0.979 0.979 0.979h1.958c0.535 0 0.979-0.443 0.979-0.979zM30.681 5.723v20.554c0 1.346-1.101 2.447-2.447 2.447h-24.469c-1.346 0-2.447-1.101-2.447-2.447v-20.554c0-1.346 1.101-2.447 2.447-2.447h24.469c1.346 0 2.447 1.101 2.447 2.447z"></path>
</svg>
