<?xml version="1.0" encoding="utf-8"?>
<!-- Generated by IcoMoon.io -->
<!DOCTYPE svg PUBLIC "-//W3C//DTD SVG 1.1//EN" "http://www.w3.org/Graphics/SVG/1.1/DTD/svg11.dtd">
<svg version="1.1" xmlns="http://www.w3.org/2000/svg" xmlns:xlink="http://www.w3.org/1999/xlink" width="32" height="32" viewBox="0 0 32 32">
<path d="M30.64 2.072c0.209 0.503 0.105 1.089-0.293 1.466l-10.325 10.325v15.54c0 0.545-0.335 1.026-0.817 1.236-0.168 0.063-0.356 0.105-0.524 0.105-0.356 0-0.691-0.126-0.942-0.398l-5.362-5.362c-0.251-0.251-0.398-0.586-0.398-0.942v-10.179l-10.325-10.325c-0.398-0.377-0.503-0.963-0.293-1.466 0.209-0.482 0.691-0.817 1.236-0.817h26.808c0.545 0 1.026 0.335 1.236 0.817z"></path>
</svg>
