<?xml version="1.0" encoding="utf-8"?>
<!-- Generated by IcoMoon.io -->
<!DOCTYPE svg PUBLIC "-//W3C//DTD SVG 1.1//EN" "http://www.w3.org/Graphics/SVG/1.1/DTD/svg11.dtd">
<svg version="1.1" xmlns="http://www.w3.org/2000/svg" xmlns:xlink="http://www.w3.org/1999/xlink" width="32" height="32" viewBox="0 0 32 32">
<path d="M12.506 4.056c0-0.637-0.528-1.165-1.165-1.165s-1.165 0.528-1.165 1.165 0.528 1.165 1.165 1.165 1.165-0.528 1.165-1.165zM28.82 3.473v5.826c0 0.182-0.073 0.346-0.218 0.455-0.109 0.091-0.237 0.127-0.364 0.127-0.036 0-0.073 0-0.127-0.018l-8.157-1.748c-0.255-0.055-0.455-0.291-0.455-0.564h-4.661v1.857c2.658 0.546 4.661 2.895 4.661 5.717v14.566c0 0.637-0.528 1.165-1.165 1.165h-9.322c-0.637 0-1.165-0.528-1.165-1.165v-14.566c0-2.604 1.711-4.825 4.078-5.553v-2.021h-0.583c-3.86 0-5.936 3.987-5.954 4.024-0.2 0.401-0.619 0.637-1.038 0.637-0.182 0-0.364-0.036-0.528-0.127-0.564-0.291-0.801-0.983-0.51-1.566 0.091-0.182 1.912-3.714 5.571-4.898-0.273-0.455-0.455-0.983-0.455-1.566 0-1.602 1.311-2.913 2.913-2.913s2.913 1.311 2.913 2.913c0 0.419-0.091 0.801-0.255 1.165h5.499c0-0.273 0.2-0.51 0.455-0.564l8.157-1.748c0.055-0.018 0.091-0.018 0.127-0.018 0.127 0 0.255 0.036 0.364 0.127 0.146 0.109 0.218 0.273 0.218 0.455z"></path>
</svg>
