<?xml version="1.0" encoding="utf-8"?>
<!-- Generated by IcoMoon.io -->
<!DOCTYPE svg PUBLIC "-//W3C//DTD SVG 1.1//EN" "http://www.w3.org/Graphics/SVG/1.1/DTD/svg11.dtd">
<svg version="1.1" xmlns="http://www.w3.org/2000/svg" xmlns:xlink="http://www.w3.org/1999/xlink" width="32" height="32" viewBox="0 0 32 32">
<path d="M27.673 29.265v1.061c0 0.282-0.249 0.531-0.531 0.531h-22.286c-0.282 0-0.531-0.249-0.531-0.531v-1.061c0-0.282 0.249-0.531 0.531-0.531h22.286c0.282 0 0.531 0.249 0.531 0.531zM23.429 11.755c0 6.351-7.429 6.915-7.429 11.143 0 1.161 0.58 2.703 1.111 3.714l-0.066-0.017 0.017 0.017c-4.577-2.106-8.49-5.008-8.49-10.612 0-6.351 7.429-6.915 7.429-11.143 0-1.161-0.58-2.703-1.094-3.714l0.050 0.017-0.017-0.017c4.577 2.106 8.49 5.008 8.49 10.612z"></path>
</svg>
