<?xml version="1.0" encoding="utf-8"?>
<!-- Generated by IcoMoon.io -->
<!DOCTYPE svg PUBLIC "-//W3C//DTD SVG 1.1//EN" "http://www.w3.org/Graphics/SVG/1.1/DTD/svg11.dtd">
<svg version="1.1" xmlns="http://www.w3.org/2000/svg" xmlns:xlink="http://www.w3.org/1999/xlink" width="32" height="32" viewBox="0 0 32 32">
<path d="M16.581 29.43c-5.969 0-10.716-3.495-12.896-8.489-2.443-5.551-0.495-14.443 3.85-18.37l-0.17 4.345c0.216-0.278 1.871-0.356 2.134 0 0.897-1.716 3.788-3 6.108-3.046-0.881 0.742-2.922 3.448-2.752 4.825 1.129 0.356 2.861 0.371 3.773 0.433 0.278 0.155 0.232 1.098-0.325 1.871 0 0-0.727 1.005-2.691 1.361l0.232 2.922-2.149-1.036c-0.696 1.763 0.974 3.325 2.706 3.031 1.917-0.325 2.598-1.577 3.943-1.5 1.33 0.077 1.856 0.82 1.685 1.515 0 0-0.216 0.835-1.655 0.696-1.222 1.933-2.845 2.783-5.474 2.551 3.99 3.309 9.371 0.309 10.731-2.397 1.361-2.691 0.17-6.696-1.191-7.824 1.608 0.696 2.721 1.407 3.309 2.969 0.309-3.464-1.283-7.391-4.129-9.695 5.35 1.562 8.613 5.706 8.706 12.324s-5.861 13.515-13.747 13.515z"></path>
</svg>
