<?xml version="1.0" encoding="utf-8"?>
<!-- Generated by IcoMoon.io -->
<!DOCTYPE svg PUBLIC "-//W3C//DTD SVG 1.1//EN" "http://www.w3.org/Graphics/SVG/1.1/DTD/svg11.dtd">
<svg version="1.1" xmlns="http://www.w3.org/2000/svg" xmlns:xlink="http://www.w3.org/1999/xlink" width="32" height="32" viewBox="0 0 32 32">
<path d="M25.186 16c0 0.431-0.017 0.846-0.083 1.26l-3.913-0.232 3.714 1.293c-0.216 0.846-0.547 1.625-0.962 2.338l-3.548-1.708 2.935 2.62c-0.497 0.68-1.094 1.277-1.774 1.791l-2.603-2.952 1.708 3.565c-0.713 0.431-1.492 0.746-2.321 0.978l-1.31-3.781 0.232 3.98c-0.415 0.066-0.829 0.099-1.26 0.099-0.415 0-0.846-0.033-1.26-0.099l0.232-3.946-1.293 3.747c-0.829-0.216-1.608-0.547-2.321-0.978l1.708-3.565-2.603 2.952c-0.68-0.497-1.277-1.111-1.791-1.791l2.952-2.62-3.548 1.724c-0.415-0.73-0.746-1.509-0.962-2.338l3.714-1.31-3.93 0.232c-0.050-0.415-0.083-0.829-0.083-1.26s0.033-0.862 0.083-1.277l3.946 0.232-3.731-1.31c0.216-0.829 0.547-1.608 0.962-2.321l3.548 1.725-2.935-2.636c0.514-0.68 1.111-1.277 1.774-1.791l2.62 2.952-1.708-3.565c0.713-0.415 1.492-0.746 2.321-0.962l1.277 3.714-0.216-3.913c0.398-0.066 0.829-0.099 1.244-0.099 0.431 0 0.846 0.033 1.26 0.099l-0.232 3.93 1.293-3.731c0.829 0.216 1.608 0.547 2.321 0.978l-1.708 3.548 2.62-2.952c0.663 0.514 1.26 1.111 1.774 1.791l-2.935 2.636 3.532-1.725c0.431 0.713 0.746 1.509 0.962 2.338l-3.714 1.293 3.93-0.232c0.066 0.415 0.083 0.846 0.083 1.277zM25.684 16c0-5.389-4.344-9.75-9.684-9.75-5.356 0-9.684 4.361-9.684 9.75 0 5.372 4.328 9.733 9.684 9.733 5.339 0 9.684-4.361 9.684-9.733zM26.894 9.649v12.702l-10.894 6.351-10.894-6.351v-12.702l10.894-6.351zM16 29.647l11.74-6.832v-13.647l-11.74-6.815-11.74 6.815v13.647zM28.735 8.571v14.857l-12.735 7.429-12.735-7.429v-14.857l12.735-7.429z"></path>
</svg>
