<?xml version="1.0" encoding="utf-8"?>
<!-- Generated by IcoMoon.io -->
<!DOCTYPE svg PUBLIC "-//W3C//DTD SVG 1.1//EN" "http://www.w3.org/Graphics/SVG/1.1/DTD/svg11.dtd">
<svg version="1.1" xmlns="http://www.w3.org/2000/svg" xmlns:xlink="http://www.w3.org/1999/xlink" width="32" height="32" viewBox="0 0 32 32">
<path d="M14.365 17.771v-3.27c-2.078 0.187-4.581 1.022-6.54 1.993v3.151c1.976-0.92 4.428-1.703 6.54-1.873zM14.365 10.652v-3.355c-2.146 0.102-4.666 1.107-6.54 2.146v3.219c2.010-1.039 4.428-1.924 6.54-2.010zM28.534 18.538v-3.134c-1.55 0.766-4.258 1.907-6.54 1.209v-3.815c-0.221-0.068-0.443-0.153-0.664-0.255-1.959-0.988-3.559-1.907-6.131-1.907-0.273 0-0.545 0.017-0.835 0.051v3.781h0.324c2.572 0 4.683 0.92 6.642 1.89 0.221 0.102 0.443 0.187 0.664 0.255v3.202c0.46 0.187 0.971 0.29 1.55 0.29 1.89 0 3.934-1.005 4.99-1.567zM28.534 11.266v-3.219c-1.362 0.732-3.27 1.55-5.211 1.55v0c-0.46 0-0.903-0.034-1.328-0.136v3.338c2.282 0.647 4.99-0.664 6.54-1.533zM5.645 5.101c0 0.8-0.443 1.499-1.090 1.873v21.561c0 0.307-0.238 0.545-0.545 0.545h-1.090c-0.307 0-0.545-0.238-0.545-0.545v-21.561c-0.647-0.375-1.090-1.073-1.090-1.873 0-1.209 0.971-2.18 2.18-2.18s2.18 0.971 2.18 2.18zM30.714 6.19v12.994c0 0.409-0.238 0.783-0.596 0.971-0.068 0.034-0.17 0.085-0.29 0.153-1.090 0.579-3.662 1.976-6.284 1.976-1.005 0-1.907-0.204-2.691-0.596l-0.477-0.238c-1.72-0.869-3.083-1.55-5.177-1.55-2.452 0-5.91 1.277-7.902 2.486-0.17 0.102-0.375 0.153-0.562 0.153s-0.375-0.051-0.545-0.136c-0.341-0.204-0.545-0.562-0.545-0.954v-12.637c0-0.375 0.204-0.732 0.528-0.937 1.090-0.647 4.939-2.776 8.515-2.776 2.844 0 5.16 1.039 7.119 1.993 0.443 0.221 0.954 0.324 1.516 0.324 2.010 0 4.224-1.277 5.279-1.907 0.221-0.119 0.409-0.221 0.528-0.29 0.341-0.17 0.732-0.153 1.056 0.034 0.324 0.204 0.528 0.562 0.528 0.937z"></path>
</svg>
