<?xml version="1.0" encoding="utf-8"?>
<!-- Generated by IcoMoon.io -->
<!DOCTYPE svg PUBLIC "-//W3C//DTD SVG 1.1//EN" "http://www.w3.org/Graphics/SVG/1.1/DTD/svg11.dtd">
<svg version="1.1" xmlns="http://www.w3.org/2000/svg" xmlns:xlink="http://www.w3.org/1999/xlink" width="32" height="32" viewBox="0 0 32 32">
<path d="M28.534 18.538v-10.491c-1.362 0.732-3.27 1.55-5.211 1.55v0c-0.903 0-1.737-0.17-2.469-0.545-1.822-0.903-3.798-1.771-6.165-1.771-2.197 0-4.888 1.073-6.863 2.163v10.201c2.248-1.039 5.109-1.924 7.374-1.924 2.623 0 4.326 0.869 6.148 1.771l0.477 0.238c0.477 0.238 1.056 0.375 1.72 0.375 1.89 0 3.934-1.005 4.99-1.567zM5.645 5.101c0 0.8-0.443 1.499-1.090 1.873v21.561c0 0.307-0.238 0.545-0.545 0.545h-1.090c-0.307 0-0.545-0.238-0.545-0.545v-21.561c-0.647-0.375-1.090-1.073-1.090-1.873 0-1.209 0.971-2.18 2.18-2.18s2.18 0.971 2.18 2.18zM30.714 6.19v12.994c0 0.409-0.238 0.783-0.596 0.971-0.068 0.034-0.17 0.085-0.29 0.153-1.090 0.579-3.662 1.976-6.284 1.976-1.005 0-1.907-0.204-2.691-0.596l-0.477-0.238c-1.72-0.869-3.083-1.55-5.177-1.55-2.452 0-5.91 1.277-7.902 2.486-0.17 0.102-0.375 0.153-0.562 0.153s-0.375-0.051-0.545-0.136c-0.341-0.204-0.545-0.562-0.545-0.954v-12.637c0-0.375 0.204-0.732 0.528-0.937 1.090-0.647 4.939-2.776 8.515-2.776 2.844 0 5.16 1.039 7.119 1.993 0.443 0.221 0.954 0.324 1.516 0.324 2.010 0 4.224-1.277 5.279-1.907 0.221-0.119 0.409-0.221 0.528-0.29 0.341-0.17 0.732-0.153 1.056 0.034 0.324 0.204 0.528 0.562 0.528 0.937z"></path>
</svg>
