<?xml version="1.0" encoding="utf-8"?>
<!-- Generated by IcoMoon.io -->
<!DOCTYPE svg PUBLIC "-//W3C//DTD SVG 1.1//EN" "http://www.w3.org/Graphics/SVG/1.1/DTD/svg11.dtd">
<svg version="1.1" xmlns="http://www.w3.org/2000/svg" xmlns:xlink="http://www.w3.org/1999/xlink" width="32" height="32" viewBox="0 0 32 32">
<path d="M25.286 1.143c3.076 0 5.571 2.496 5.571 5.571v18.571c0 3.076-2.496 5.571-5.571 5.571h-18.571c-3.076 0-5.571-2.496-5.571-5.571v-18.571c0-3.076 2.496-5.571 5.571-5.571h18.571zM14.646 16c0-2.263-1.838-4.101-4.101-4.101s-4.101 1.838-4.101 4.101 1.838 4.101 4.101 4.101 4.101-1.838 4.101-4.101zM25.557 16c0-2.263-1.838-4.101-4.101-4.101s-4.101 1.838-4.101 4.101 1.838 4.101 4.101 4.101 4.101-1.838 4.101-4.101z"></path>
</svg>
