<?xml version="1.0" encoding="utf-8"?>
<!-- Generated by IcoMoon.io -->
<!DOCTYPE svg PUBLIC "-//W3C//DTD SVG 1.1//EN" "http://www.w3.org/Graphics/SVG/1.1/DTD/svg11.dtd">
<svg version="1.1" xmlns="http://www.w3.org/2000/svg" xmlns:xlink="http://www.w3.org/1999/xlink" width="32" height="32" viewBox="0 0 32 32">
<path d="M8.571 28.381h14.857v-7.429h-14.857v7.429zM25.905 28.381h2.476v-17.333c0-0.368-0.329-1.161-0.58-1.412l-5.436-5.436c-0.271-0.271-1.025-0.58-1.412-0.58v8.048c0 1.025-0.832 1.857-1.857 1.857h-11.143c-1.025 0-1.857-0.832-1.857-1.857v-8.048h-2.476v24.762h2.476v-8.048c0-1.025 0.832-1.857 1.857-1.857h16.095c1.025 0 1.857 0.832 1.857 1.857v8.048zM18.476 10.429v-6.19c0-0.329-0.29-0.619-0.619-0.619h-3.714c-0.329 0-0.619 0.29-0.619 0.619v6.19c0 0.329 0.29 0.619 0.619 0.619h3.714c0.329 0 0.619-0.29 0.619-0.619zM30.857 11.048v17.952c0 1.025-0.832 1.857-1.857 1.857h-26c-1.025 0-1.857-0.832-1.857-1.857v-26c0-1.025 0.832-1.857 1.857-1.857h17.952c1.025 0 2.438 0.58 3.173 1.315l5.417 5.417c0.735 0.735 1.315 2.147 1.315 3.173z"></path>
</svg>
