<?xml version="1.0" encoding="utf-8"?>
<!-- Generated by IcoMoon.io -->
<!DOCTYPE svg PUBLIC "-//W3C//DTD SVG 1.1//EN" "http://www.w3.org/Graphics/SVG/1.1/DTD/svg11.dtd">
<svg version="1.1" xmlns="http://www.w3.org/2000/svg" xmlns:xlink="http://www.w3.org/1999/xlink" width="32" height="32" viewBox="0 0 32 32">
<path d="M28.329 17.489c0-0.421-0.466-0.526-0.797-0.526h-16.36c-0.797 0-1.849 0.496-2.361 1.113l-4.421 5.458c-0.135 0.18-0.271 0.376-0.271 0.601 0 0.421 0.466 0.526 0.797 0.526h16.36c0.797 0 1.849-0.496 2.361-1.128l4.421-5.458c0.135-0.165 0.271-0.361 0.271-0.586zM11.173 15.038h11.548v-2.406c0-0.797-0.647-1.444-1.444-1.444h-8.661c-0.797 0-1.444-0.647-1.444-1.444v-0.962c0-0.797-0.647-1.444-1.444-1.444h-4.812c-0.797 0-1.444 0.647-1.444 1.444v12.826l3.849-4.736c0.872-1.068 2.481-1.834 3.849-1.834zM30.254 17.489c0 0.662-0.286 1.293-0.692 1.804l-4.436 5.458c-0.857 1.053-2.496 1.834-3.849 1.834h-16.36c-1.849 0-3.368-1.519-3.368-3.368v-14.435c0-1.849 1.519-3.368 3.368-3.368h4.812c1.849 0 3.368 1.519 3.368 3.368v0.481h8.18c1.849 0 3.368 1.519 3.368 3.368v2.406h2.887c1.022 0 2.045 0.466 2.496 1.428 0.15 0.316 0.226 0.662 0.226 1.022z"></path>
</svg>
