<?xml version="1.0" encoding="utf-8"?>
<!-- Generated by IcoMoon.io -->
<!DOCTYPE svg PUBLIC "-//W3C//DTD SVG 1.1//EN" "http://www.w3.org/Graphics/SVG/1.1/DTD/svg11.dtd">
<svg version="1.1" xmlns="http://www.w3.org/2000/svg" xmlns:xlink="http://www.w3.org/1999/xlink" width="32" height="32" viewBox="0 0 32 32">
<path d="M28.396 24.452v-12.396c0-0.933-0.757-1.69-1.69-1.69h-12.396c-0.933 0-1.69-0.757-1.69-1.69v-1.127c0-0.933-0.757-1.69-1.69-1.69h-5.634c-0.933 0-1.69 0.757-1.69 1.69v16.903c0 0.933 0.757 1.69 1.69 1.69h21.411c0.933 0 1.69-0.757 1.69-1.69zM30.649 12.056v12.396c0 2.166-1.778 3.944-3.944 3.944h-21.411c-2.166 0-3.944-1.778-3.944-3.944v-16.903c0-2.166 1.778-3.944 3.944-3.944h5.634c2.166 0 3.944 1.778 3.944 3.944v0.563h11.832c2.166 0 3.944 1.778 3.944 3.944z"></path>
</svg>
