<?xml version="1.0" encoding="utf-8"?>
<!-- Generated by IcoMoon.io -->
<!DOCTYPE svg PUBLIC "-//W3C//DTD SVG 1.1//EN" "http://www.w3.org/Graphics/SVG/1.1/DTD/svg11.dtd">
<svg version="1.1" xmlns="http://www.w3.org/2000/svg" xmlns:xlink="http://www.w3.org/1999/xlink" width="32" height="32" viewBox="0 0 32 32">
<path d="M1.143 1.143h29.714v29.714h-29.714v-29.714zM18.708 7.333l-0.232 0.638 1.451 1.606-0.6 2.205 0.484 0.484 2.070-1.103 2.070 1.103 0.484-0.484-0.6-2.205 1.451-1.606-0.232-0.638h-1.838l-1.025-1.857h-0.619l-1.025 1.857h-1.838zM13.543 10.487c0.793 0 1.103 0.29 1.083 1.528l3.366-0.406c0-2.96-2.031-3.502-4.295-3.502-3.366 0-5.127 1.354-5.127 4.643v1.393h-1.857v2.476h1.47c0.193 0 0.387 0 0.387 0.155v7.39c0 0.368-0.097 0.484-0.445 0.522l-1.412 0.135v1.702h8.667v-1.664l-2.882-0.271c-0.348-0.039-0.213-0.097-0.213-0.484v-7.487h3.695l0.735-2.476h-4.469c-0.193 0 0.039-0.135 0.039-0.29v-1.548c0-1.161 0.039-1.818 1.257-1.818zM25.286 26.524v-1.664l-1.045-0.174c-0.368-0.058-0.193-0.097-0.193-0.484v-10.060h-5.32l-0.445 1.954 1.606 0.426c0.252 0.077 0.445 0.252 0.445 0.522v7.158c0 0.368-0.155 0.445-0.503 0.484l-1.354 0.174v1.664h6.81z"></path>
</svg>
