<?xml version="1.0" encoding="utf-8"?>
<!-- Generated by IcoMoon.io -->
<!DOCTYPE svg PUBLIC "-//W3C//DTD SVG 1.1//EN" "http://www.w3.org/Graphics/SVG/1.1/DTD/svg11.dtd">
<svg version="1.1" xmlns="http://www.w3.org/2000/svg" xmlns:xlink="http://www.w3.org/1999/xlink" width="32" height="32" viewBox="0 0 32 32">
<path d="M14.102 10.021l-3.016 7.984c1.757 0.018 3.513 0.071 5.27 0.071 0.337 0 0.674-0.018 1.011-0.035-0.923-2.697-2.005-5.447-3.265-8.020zM1.238 29.626l0.036-1.402c1.668-0.515 3.478-0.16 4.223-2.076l4.205-10.929 4.968-12.846h2.271c0.071 0.124 0.142 0.248 0.195 0.373l3.637 8.516c1.331 3.14 2.555 6.316 3.903 9.439 0.798 1.845 1.419 3.744 2.307 5.553 0.124 0.284 0.373 0.816 0.621 1.011 0.585 0.461 2.218 0.568 3.052 0.887 0.053 0.337 0.106 0.674 0.106 1.011 0 0.16-0.018 0.302-0.018 0.461-2.253 0-4.507-0.284-6.76-0.284-2.324 0-4.649 0.195-6.973 0.266 0-0.461 0.018-0.923 0.071-1.384l2.324-0.497c0.479-0.106 1.419-0.231 1.419-0.887 0-0.639-2.289-5.908-2.573-6.636l-7.984-0.035c-0.461 1.029-2.253 5.678-2.253 6.352 0 1.366 2.608 1.419 3.62 1.561 0.018 0.337 0.018 0.674 0.018 1.029 0 0.16-0.018 0.319-0.036 0.479-2.058 0-4.134-0.355-6.192-0.355-0.248 0-0.603 0.106-0.852 0.142-1.118 0.195-2.218 0.248-3.336 0.248z"></path>
</svg>
