<?xml version="1.0" encoding="utf-8"?>
<!-- Generated by IcoMoon.io -->
<!DOCTYPE svg PUBLIC "-//W3C//DTD SVG 1.1//EN" "http://www.w3.org/Graphics/SVG/1.1/DTD/svg11.dtd">
<svg version="1.1" xmlns="http://www.w3.org/2000/svg" xmlns:xlink="http://www.w3.org/1999/xlink" width="32" height="32" viewBox="0 0 32 32">
<path d="M12.788 17.74v-3.748c0-0.151-0.117-0.268-0.268-0.268h-1.606c-0.151 0-0.268 0.117-0.268 0.268v3.748c0 0.151 0.117 0.268 0.268 0.268h1.606c0.151 0 0.268-0.117 0.268-0.268zM21.354 17.74v-3.748c0-0.151-0.117-0.268-0.268-0.268h-1.606c-0.151 0-0.268 0.117-0.268 0.268v3.748c0 0.151 0.117 0.268 0.268 0.268h1.606c0.151 0 0.268-0.117 0.268-0.268zM29.92 18.275v12.582h-10.708v-5.354c0-1.773-1.439-3.212-3.212-3.212s-3.212 1.439-3.212 3.212v5.354h-10.708v-12.582c0-0.151 0.117-0.268 0.268-0.268h1.606c0.151 0 0.268 0.117 0.268 0.268v1.874h2.142v-10.44c0-0.151 0.117-0.268 0.268-0.268h1.606c0.151 0 0.268 0.117 0.268 0.268v1.874h2.142v-1.874c0-0.151 0.117-0.268 0.268-0.268h1.606c0.151 0 0.268 0.117 0.268 0.268v1.874h2.142v-1.874c0-0.351 0.468-0.268 0.686-0.268v-6.542c-0.318-0.151-0.535-0.485-0.535-0.837 0-0.502 0.418-0.92 0.92-0.92s0.92 0.418 0.92 0.92c0 0.351-0.218 0.686-0.535 0.837v0.284c0.452-0.1 0.92-0.167 1.389-0.167 0.686 0 1.338 0.251 1.907 0.251 0.519 0 1.104-0.251 1.405-0.251 0.151 0 0.268 0.117 0.268 0.268v3.514c0 0.402-1.355 0.468-1.623 0.468-0.619 0-1.205-0.251-1.84-0.251-0.502 0-1.021 0.084-1.506 0.201v2.225c0.218 0 0.686-0.084 0.686 0.268v1.874h2.142v-1.874c0-0.151 0.117-0.268 0.268-0.268h1.606c0.151 0 0.268 0.117 0.268 0.268v1.874h2.142v-1.874c0-0.151 0.117-0.268 0.268-0.268h1.606c0.151 0 0.268 0.117 0.268 0.268v10.44h2.142v-1.874c0-0.151 0.117-0.268 0.268-0.268h1.606c0.151 0 0.268 0.117 0.268 0.268z"></path>
</svg>
