<?xml version="1.0" encoding="utf-8"?>
<!-- Generated by IcoMoon.io -->
<!DOCTYPE svg PUBLIC "-//W3C//DTD SVG 1.1//EN" "http://www.w3.org/Graphics/SVG/1.1/DTD/svg11.dtd">
<svg version="1.1" xmlns="http://www.w3.org/2000/svg" xmlns:xlink="http://www.w3.org/1999/xlink" width="32" height="32" viewBox="0 0 32 32">
<path d="M19.21 1.573c-8.181 3.114-14.621 9.65-17.676 17.85-0.251-1.122-0.387-2.263-0.387-3.404 0-8.181 6.614-14.814 14.795-14.814 1.102 0 2.205 0.135 3.268 0.367zM24.413 3.874c1.199 0.832 2.263 1.837 3.172 2.998-10.018 2.92-17.85 10.791-20.712 20.828-1.141-0.89-2.166-1.934-2.998-3.133 2.882-9.94 10.617-17.753 20.538-20.693zM10.237 29.673c2.978-9.186 10.172-16.419 19.32-19.455 0.522 1.199 0.87 2.475 1.044 3.771-7.542 3.094-13.538 9.128-16.613 16.69-1.296-0.174-2.553-0.503-3.752-1.006zM30.853 30.795c-2.398-0.619-4.777-1.354-7.098-2.224-1.702 1.064-3.616 1.779-5.608 2.069 2.824-5.28 7.175-9.65 12.435-12.493-0.271 1.934-0.948 3.829-1.953 5.492 0.87 2.34 1.605 4.738 2.224 7.156z"></path>
</svg>
