<?xml version="1.0" encoding="utf-8"?>
<!-- Generated by IcoMoon.io -->
<!DOCTYPE svg PUBLIC "-//W3C//DTD SVG 1.1//EN" "http://www.w3.org/Graphics/SVG/1.1/DTD/svg11.dtd">
<svg version="1.1" xmlns="http://www.w3.org/2000/svg" xmlns:xlink="http://www.w3.org/1999/xlink" width="32" height="32" viewBox="0 0 32 32">
<path d="M22.394 8.851l0.657-3.446c0.124-0.568-0.302-1.012-0.781-1.012h-12.646c-0.568 0-0.959 0.515-0.959 0.959v19.555c0 0.053 0.053 0.071 0.107 0.018 4.653-5.595 5.168-6.252 5.168-6.252 0.533-0.622 0.746-0.728 1.527-0.728h4.245c0.586 0 0.924-0.497 0.977-0.781s0.551-2.877 0.657-3.392-0.373-1.048-0.853-1.048h-5.222c-0.693 0-1.19-0.497-1.19-1.19v-0.746c0-0.693 0.497-1.172 1.19-1.172h6.145c0.426 0 0.906-0.391 0.977-0.764zM26.426 4.908c-0.657 3.197-2.629 13.303-2.806 14.031-0.213 0.835-0.533 2.291-2.558 2.291h-4.813c-0.195 0-0.213-0.018-0.391 0.178 0 0-0.124 0.142-7.566 8.774-0.586 0.675-1.545 0.551-1.9 0.409s-0.977-0.568-0.977-1.741v-25.043c0-1.030 0.639-2.664 2.806-2.664h15.772c2.309 0 2.931 1.314 2.433 3.765zM26.426 4.908l-2.806 14.031c0.178-0.728 2.149-10.834 2.806-14.031z"></path>
</svg>
