<?xml version="1.0" encoding="utf-8"?>
<!-- Generated by IcoMoon.io -->
<!DOCTYPE svg PUBLIC "-//W3C//DTD SVG 1.1//EN" "http://www.w3.org/Graphics/SVG/1.1/DTD/svg11.dtd">
<svg version="1.1" xmlns="http://www.w3.org/2000/svg" xmlns:xlink="http://www.w3.org/1999/xlink" width="32" height="32" viewBox="0 0 32 32">
<path d="M11.241 14.673l4.759-3.449 4.759 3.449-1.807 5.571h-5.886zM16 1.143c8.208 0 14.857 6.649 14.857 14.857s-6.649 14.857-14.857 14.857-14.857-6.649-14.857-14.857 6.649-14.857 14.857-14.857zM26.264 23.528c1.559-2.122 2.471-4.709 2.471-7.528v-0.050l-1.691 1.476-3.98-3.714 1.045-5.356 2.222 0.199c-1.575-2.172-3.83-3.847-6.45-4.676l0.879 2.056-4.759 2.636-4.759-2.636 0.879-2.056c-2.62 0.829-4.875 2.504-6.45 4.676l2.239-0.199 1.028 5.356-3.98 3.714-1.691-1.476v0.050c0 2.819 0.912 5.406 2.471 7.528l0.497-2.189 5.406 0.663 2.305 4.941-1.923 1.144c1.244 0.415 2.587 0.647 3.98 0.647s2.736-0.232 3.98-0.647l-1.923-1.144 2.305-4.941 5.406-0.663z"></path>
</svg>
