<?xml version="1.0" encoding="utf-8"?>
<!-- Generated by IcoMoon.io -->
<!DOCTYPE svg PUBLIC "-//W3C//DTD SVG 1.1//EN" "http://www.w3.org/Graphics/SVG/1.1/DTD/svg11.dtd">
<svg version="1.1" xmlns="http://www.w3.org/2000/svg" xmlns:xlink="http://www.w3.org/1999/xlink" width="32" height="32" viewBox="0 0 32 32">
<path d="M14.152 16.924v-1.848c0-0.26-0.202-0.462-0.462-0.462h-2.771v-2.771c0-0.26-0.202-0.462-0.462-0.462h-1.848c-0.26 0-0.462 0.202-0.462 0.462v2.771h-2.771c-0.26 0-0.462 0.202-0.462 0.462v1.848c0 0.26 0.202 0.462 0.462 0.462h2.771v2.771c0 0.26 0.202 0.462 0.462 0.462h1.848c0.26 0 0.462-0.202 0.462-0.462v-2.771h2.771c0.26 0 0.462-0.202 0.462-0.462zM22.467 17.848c0-1.025-0.823-1.848-1.848-1.848s-1.848 0.823-1.848 1.848 0.823 1.848 1.848 1.848 1.848-0.823 1.848-1.848zM26.162 14.152c0-1.025-0.823-1.848-1.848-1.848s-1.848 0.823-1.848 1.848 0.823 1.848 1.848 1.848 1.848-0.823 1.848-1.848zM29.857 16c0 4.085-3.305 7.39-7.39 7.39-1.877 0-3.58-0.707-4.879-1.848h-3.176c-1.299 1.14-3.002 1.848-4.879 1.848-4.085 0-7.39-3.305-7.39-7.39s3.306-7.39 7.39-7.39h12.933c4.085 0 7.39 3.306 7.39 7.39z"></path>
</svg>
