<?xml version="1.0" encoding="utf-8"?>
<!-- Generated by IcoMoon.io -->
<!DOCTYPE svg PUBLIC "-//W3C//DTD SVG 1.1//EN" "http://www.w3.org/Graphics/SVG/1.1/DTD/svg11.dtd">
<svg version="1.1" xmlns="http://www.w3.org/2000/svg" xmlns:xlink="http://www.w3.org/1999/xlink" width="32" height="32" viewBox="0 0 32 32">
<path d="M31.026 26.823c0 0.584-0.24 1.15-0.635 1.545l-1.837 1.854c-0.412 0.395-0.978 0.635-1.562 0.635s-1.15-0.24-1.545-0.635l-6.231-6.248c-0.412-0.395-0.652-0.961-0.652-1.545 0-0.652 0.275-1.184 0.738-1.648l-4.395-4.395-2.163 2.163c-0.155 0.154-0.361 0.24-0.584 0.24s-0.429-0.086-0.584-0.24c0.515 0.515 0.996 0.893 0.996 1.682 0 0.446-0.172 0.841-0.481 1.167-0.584 0.618-1.202 1.442-2.129 1.442-0.429 0-0.858-0.172-1.167-0.481l-7.004-7.004c-0.309-0.309-0.481-0.738-0.481-1.167 0-0.927 0.824-1.545 1.442-2.129 0.326-0.309 0.721-0.481 1.167-0.481 0.79 0 1.167 0.481 1.682 0.996-0.154-0.155-0.24-0.361-0.24-0.584s0.086-0.429 0.24-0.584l5.974-5.974c0.155-0.154 0.361-0.24 0.584-0.24s0.429 0.086 0.584 0.24c-0.515-0.515-0.996-0.893-0.996-1.682 0-0.446 0.172-0.841 0.481-1.167 0.584-0.618 1.202-1.442 2.129-1.442 0.429 0 0.858 0.172 1.167 0.481l7.004 7.004c0.309 0.309 0.481 0.738 0.481 1.167 0 0.927-0.824 1.545-1.442 2.129-0.326 0.309-0.721 0.481-1.167 0.481-0.79 0-1.167-0.481-1.682-0.996 0.154 0.155 0.24 0.361 0.24 0.584s-0.086 0.429-0.24 0.584l-2.163 2.163 4.395 4.395c0.463-0.463 0.996-0.738 1.648-0.738 0.584 0 1.15 0.24 1.562 0.635l6.231 6.231c0.395 0.412 0.635 0.978 0.635 1.562z"></path>
</svg>
