<?xml version="1.0" encoding="utf-8"?>
<!-- Generated by IcoMoon.io -->
<!DOCTYPE svg PUBLIC "-//W3C//DTD SVG 1.1//EN" "http://www.w3.org/Graphics/SVG/1.1/DTD/svg11.dtd">
<svg version="1.1" xmlns="http://www.w3.org/2000/svg" xmlns:xlink="http://www.w3.org/1999/xlink" width="32" height="32" viewBox="0 0 32 32">
<path d="M26.727 22.437v7.745c0 0.38-0.295 0.675-0.675 0.675h-20.175c-0.38 0-0.675-0.295-0.675-0.675v-3.166c0-0.359 0.295-0.675 0.675-0.675h2.047v-8.083h-2.005c-0.38 0-0.675-0.295-0.675-0.675v-2.765c0-0.38 0.295-0.675 0.675-0.675h2.005v-4.706c0-4.812 3.883-8.294 9.244-8.294 4.221 0 6.943 2.532 7.070 2.638 0.253 0.232 0.274 0.633 0.063 0.907l-2.174 2.68c-0.127 0.148-0.274 0.232-0.464 0.253-0.169 0.021-0.359-0.042-0.485-0.148-0.021-0.021-1.836-1.456-3.968-1.456-2.385 0-3.989 1.435-3.989 3.588v4.537h6.437c0.38 0 0.675 0.295 0.675 0.675v2.765c0 0.38-0.295 0.675-0.675 0.675h-6.437v7.998h8.737v-3.82c0-0.38 0.295-0.675 0.675-0.675h3.419c0.38 0 0.675 0.295 0.675 0.675z"></path>
</svg>
