<?xml version="1.0" encoding="utf-8"?>
<!-- Generated by IcoMoon.io -->
<!DOCTYPE svg PUBLIC "-//W3C//DTD SVG 1.1//EN" "http://www.w3.org/Graphics/SVG/1.1/DTD/svg11.dtd">
<svg version="1.1" xmlns="http://www.w3.org/2000/svg" xmlns:xlink="http://www.w3.org/1999/xlink" width="32" height="32" viewBox="0 0 32 32">
<path d="M27.936 2.918c1.482 0 2.64 1.192 2.64 2.657v8.84c0 8.159-6.524 14.666-14.632 14.666-8.142 0-14.666-6.507-14.666-14.666v-8.84c0-1.448 1.209-2.657 2.657-2.657h24zM15.945 21.042c0.511 0 1.022-0.204 1.397-0.562l6.881-6.609c0.392-0.375 0.63-0.903 0.63-1.448 0-1.107-0.903-2.010-2.010-2.010-0.528 0-1.022 0.204-1.397 0.562l-5.502 5.28-5.502-5.28c-0.375-0.358-0.869-0.562-1.38-0.562-1.107 0-2.010 0.903-2.010 2.010 0 0.545 0.221 1.073 0.613 1.448l6.898 6.609c0.358 0.358 0.869 0.562 1.38 0.562z"></path>
</svg>
