<?xml version="1.0" encoding="utf-8"?>
<!-- Generated by IcoMoon.io -->
<!DOCTYPE svg PUBLIC "-//W3C//DTD SVG 1.1//EN" "http://www.w3.org/Graphics/SVG/1.1/DTD/svg11.dtd">
<svg version="1.1" xmlns="http://www.w3.org/2000/svg" xmlns:xlink="http://www.w3.org/1999/xlink" width="32" height="32" viewBox="0 0 32 32">
<path d="M13.032 23.594l4.494-4.494-4.626-4.626-1.459 1.459 3.184 3.167-1.592 1.592-4.626-4.626 4.626-4.626 0.663 0.663 1.443-1.443-2.106-2.122-7.528 7.528zM18.968 23.462l7.528-7.528-7.528-7.528-4.494 4.494 4.626 4.626 1.459-1.459-3.184-3.167 1.592-1.592 4.626 4.626-4.626 4.626-0.663-0.663-1.443 1.459zM30.857 16c0 8.208-6.649 14.857-14.857 14.857s-14.857-6.649-14.857-14.857 6.649-14.857 14.857-14.857 14.857 6.649 14.857 14.857z"></path>
</svg>
