<?xml version="1.0" encoding="utf-8"?>
<!-- Generated by IcoMoon.io -->
<!DOCTYPE svg PUBLIC "-//W3C//DTD SVG 1.1//EN" "http://www.w3.org/Graphics/SVG/1.1/DTD/svg11.dtd">
<svg version="1.1" xmlns="http://www.w3.org/2000/svg" xmlns:xlink="http://www.w3.org/1999/xlink" width="32" height="32" viewBox="0 0 32 32">
<path d="M19.061 25.413v-13.699h-6.122v13.699c0 0.67 0.555 0.995 1.224 0.995h3.673c0.67 0 1.224-0.325 1.224-0.995zM10.337 9.265h3.731l-2.411-3.080c-0.21-0.249-0.67-0.593-1.32-0.593-1.014 0-1.837 0.823-1.837 1.837s0.823 1.837 1.837 1.837zM23.5 7.429c0-1.014-0.823-1.837-1.837-1.837-0.651 0-1.11 0.344-1.32 0.593l-2.392 3.080h3.712c1.014 0 1.837-0.823 1.837-1.837zM30.694 12.327v6.122c0 0.344-0.268 0.612-0.612 0.612h-1.837v7.959c0 1.014-0.823 1.837-1.837 1.837h-20.816c-1.014 0-1.837-0.823-1.837-1.837v-7.959h-1.837c-0.344 0-0.612-0.268-0.612-0.612v-6.122c0-0.344 0.268-0.612 0.612-0.612h8.418c-2.372 0-4.286-1.913-4.286-4.286s1.913-4.286 4.286-4.286c1.282 0 2.468 0.536 3.214 1.473l2.449 3.157 2.449-3.157c0.746-0.938 1.932-1.473 3.214-1.473 2.372 0 4.286 1.913 4.286 4.286s-1.913 4.286-4.286 4.286h8.418c0.344 0 0.612 0.268 0.612 0.612z"></path>
</svg>
