<?xml version="1.0" encoding="utf-8"?>
<!-- Generated by IcoMoon.io -->
<!DOCTYPE svg PUBLIC "-//W3C//DTD SVG 1.1//EN" "http://www.w3.org/Graphics/SVG/1.1/DTD/svg11.dtd">
<svg version="1.1" xmlns="http://www.w3.org/2000/svg" xmlns:xlink="http://www.w3.org/1999/xlink" width="32" height="32" viewBox="0 0 32 32">
<path d="M11.009 26.247c0-1.459-1.608-1.658-2.736-1.658-1.177 0-2.62 0.249-2.62 1.724 0 1.492 1.708 1.675 2.852 1.675 1.21 0 2.504-0.298 2.504-1.741zM10.031 13.728c0-1.244-0.597-2.371-1.973-2.371-1.526 0-2.056 1.011-2.056 2.404 0 1.376 0.597 2.239 2.056 2.239 1.443 0 1.973-0.929 1.973-2.272zM14.491 8.356v3.35c-0.431 0.149-0.862 0.265-1.31 0.365 0.166 0.448 0.265 0.912 0.265 1.393 0 2.802-1.725 4.941-4.477 5.455-0.829 0.166-1.31 0.514-1.31 1.409 0 2.537 6.699 0.813 6.699 5.489 0 3.797-2.57 5.041-6.019 5.041-2.835 0-6.069-0.945-6.069-4.361 0-1.99 1.21-3.134 3.018-3.731v-0.066c-0.763-0.464-1.111-1.194-1.111-2.089 0-0.846 0.182-1.89 1.045-2.272v-0.066c-1.675-0.564-2.769-2.869-2.769-4.543 0-3.101 2.404-5.372 5.472-5.372 1.028 0 2.056 0.265 2.952 0.779 1.244 0 2.471-0.332 3.615-0.779zM19.764 22.964h-3.681c0.066-0.746 0.066-1.476 0.066-2.222v-10.098c0-0.713 0.017-1.426-0.066-2.122h3.681c-0.083 0.68-0.066 1.376-0.066 2.056v10.165c0 0.746 0 1.476 0.066 2.222zM29.73 19.283v3.25c-0.879 0.481-1.89 0.647-2.885 0.647-3.548 0-3.963-2.802-3.963-5.688v-5.82h0.033v-0.066c-0.216 0-0.415-0.033-0.614-0.033-0.332 0-0.663 0.050-0.978 0.1v-3.15h1.592v-1.26c0-0.497-0.017-0.995-0.099-1.476h3.764c-0.133 0.912-0.099 1.824-0.099 2.736h2.835v3.151c-0.481 0-0.962-0.066-1.426-0.066h-1.409v6.052c0 0.978 0.216 2.172 1.443 2.172 0.647 0 1.277-0.182 1.807-0.547zM20.179 3.58c0 1.244-0.962 2.404-2.239 2.404-1.31 0-2.288-1.144-2.288-2.404 0-1.277 0.962-2.438 2.288-2.438 1.31 0 2.239 1.194 2.239 2.438z"></path>
</svg>
