<?xml version="1.0" encoding="utf-8"?>
<!-- Generated by IcoMoon.io -->
<!DOCTYPE svg PUBLIC "-//W3C//DTD SVG 1.1//EN" "http://www.w3.org/Graphics/SVG/1.1/DTD/svg11.dtd">
<svg version="1.1" xmlns="http://www.w3.org/2000/svg" xmlns:xlink="http://www.w3.org/1999/xlink" width="32" height="32" viewBox="0 0 32 32">
<path d="M12.619 20.507c0 1.285-0.669 3.381-2.254 3.381s-2.254-2.095-2.254-3.381 0.669-3.381 2.254-3.381 2.254 2.095 2.254 3.381zM23.888 20.507c0 1.285-0.669 3.381-2.254 3.381s-2.254-2.095-2.254-3.381 0.669-3.381 2.254-3.381 2.254 2.095 2.254 3.381zM26.705 20.507c0-2.694-1.637-5.071-4.508-5.071-1.162 0-2.271 0.211-3.433 0.37-0.916 0.141-1.831 0.194-2.764 0.194s-1.849-0.053-2.764-0.194c-1.144-0.158-2.271-0.37-3.433-0.37-2.87 0-4.508 2.377-4.508 5.071 0 5.388 4.93 6.215 9.226 6.215h2.958c4.296 0 9.226-0.828 9.226-6.215zM30.649 17.409c0 1.954-0.194 4.032-1.074 5.828-2.324 4.701-8.716 5.159-13.294 5.159-4.648 0-11.427-0.405-13.839-5.159-0.898-1.778-1.092-3.874-1.092-5.828 0-2.571 0.704-5 2.395-6.973-0.317-0.968-0.475-1.99-0.475-2.993 0-1.321 0.299-2.641 0.898-3.838 2.782 0 4.56 1.215 6.673 2.87 1.778-0.423 3.61-0.616 5.441-0.616 1.655 0 3.328 0.176 4.93 0.563 2.095-1.638 3.874-2.817 6.62-2.817 0.599 1.197 0.898 2.518 0.898 3.838 0 1.004-0.158 2.007-0.475 2.958 1.69 1.99 2.395 4.437 2.395 7.008z"></path>
</svg>
