<?xml version="1.0" encoding="utf-8"?>
<!-- Generated by IcoMoon.io -->
<!DOCTYPE svg PUBLIC "-//W3C//DTD SVG 1.1//EN" "http://www.w3.org/Graphics/SVG/1.1/DTD/svg11.dtd">
<svg version="1.1" xmlns="http://www.w3.org/2000/svg" xmlns:xlink="http://www.w3.org/1999/xlink" width="32" height="32" viewBox="0 0 32 32">
<path d="M16 1.476c8.189 0 14.833 6.644 14.833 14.833 0 6.547-4.249 12.11-10.14 14.080-0.753 0.135-1.024-0.328-1.024-0.715 0-0.483 0.019-2.086 0.019-4.075 0-1.391-0.464-2.279-1.004-2.743 3.303-0.367 6.779-1.622 6.779-7.32 0-1.622-0.579-2.936-1.526-3.979 0.154-0.386 0.657-1.893-0.154-3.94-1.236-0.386-4.075 1.526-4.075 1.526-1.178-0.328-2.453-0.502-3.708-0.502s-2.53 0.174-3.708 0.502c0 0-2.839-1.912-4.075-1.526-0.811 2.047-0.309 3.554-0.155 3.94-0.946 1.043-1.526 2.356-1.526 3.979 0 5.678 3.457 6.953 6.76 7.32-0.425 0.386-0.811 1.043-0.946 1.989-0.85 0.386-3.013 1.043-4.307-1.236-0.811-1.41-2.279-1.526-2.279-1.526-1.449-0.019-0.097 0.908-0.097 0.908 0.966 0.444 1.642 2.163 1.642 2.163 0.869 2.646 5.002 1.758 5.002 1.758 0 1.236 0.019 2.395 0.019 2.762 0 0.386-0.27 0.85-1.024 0.715-5.891-1.97-10.14-7.532-10.14-14.080 0-8.189 6.644-14.833 14.833-14.833zM6.787 22.779c0.039-0.077-0.019-0.174-0.135-0.232-0.116-0.039-0.212-0.019-0.251 0.039-0.039 0.077 0.019 0.174 0.135 0.232 0.097 0.058 0.212 0.039 0.251-0.039zM7.386 23.436c0.077-0.058 0.058-0.193-0.039-0.309-0.097-0.097-0.232-0.135-0.309-0.058-0.077 0.058-0.058 0.193 0.039 0.309 0.097 0.097 0.232 0.135 0.309 0.058zM7.966 24.305c0.097-0.077 0.097-0.232 0-0.367-0.077-0.135-0.232-0.193-0.328-0.116-0.097 0.058-0.097 0.212 0 0.348s0.251 0.193 0.328 0.135zM8.777 25.116c0.077-0.077 0.039-0.251-0.077-0.367-0.135-0.135-0.309-0.154-0.386-0.058-0.097 0.077-0.058 0.251 0.077 0.367 0.135 0.135 0.309 0.154 0.386 0.058zM9.878 25.599c0.039-0.116-0.077-0.251-0.251-0.309-0.155-0.039-0.328 0.019-0.367 0.135s0.077 0.251 0.251 0.29c0.155 0.058 0.328 0 0.367-0.116zM11.094 25.695c0-0.135-0.155-0.232-0.328-0.212-0.174 0-0.309 0.097-0.309 0.212 0 0.135 0.135 0.232 0.328 0.212 0.174 0 0.309-0.097 0.309-0.212zM12.215 25.502c-0.019-0.116-0.174-0.193-0.348-0.174-0.174 0.039-0.29 0.154-0.27 0.29 0.019 0.116 0.174 0.193 0.348 0.154s0.29-0.154 0.27-0.27z"></path>
</svg>
