<?xml version="1.0" encoding="utf-8"?>
<!-- Generated by IcoMoon.io -->
<!DOCTYPE svg PUBLIC "-//W3C//DTD SVG 1.1//EN" "http://www.w3.org/Graphics/SVG/1.1/DTD/svg11.dtd">
<svg version="1.1" xmlns="http://www.w3.org/2000/svg" xmlns:xlink="http://www.w3.org/1999/xlink" width="32" height="32" viewBox="0 0 32 32">
<path d="M11.183 21.881v0c0.039-0.058 0.019-0.174-0.058-0.252-0.097-0.077-0.213-0.097-0.271-0.039-0.039 0.058-0.019 0.174 0.058 0.252 0.097 0.077 0.213 0.097 0.271 0.039zM10.641 21.088c-0.058-0.077-0.155-0.116-0.232-0.077-0.058 0.039-0.058 0.155 0 0.232 0.077 0.097 0.174 0.135 0.232 0.097v0c0.058-0.039 0.058-0.155 0-0.252zM9.848 20.314v0c0.019-0.039-0.019-0.116-0.097-0.155-0.058-0.019-0.135-0.019-0.155 0.039-0.039 0.058 0 0.116 0.077 0.155 0.077 0.019 0.155 0.019 0.174-0.039zM10.254 20.759v0c0.039-0.039 0.039-0.135-0.039-0.193-0.058-0.077-0.155-0.097-0.193-0.058-0.058 0.058-0.039 0.135 0.019 0.213 0.058 0.058 0.155 0.097 0.213 0.039zM11.918 22.21v0c0.019-0.077-0.058-0.174-0.174-0.213s-0.213 0-0.252 0.077c-0.019 0.077 0.058 0.174 0.174 0.213s0.213 0 0.252-0.077zM12.731 22.268v0c0-0.077-0.097-0.155-0.232-0.155-0.116 0-0.193 0.077-0.193 0.155s0.097 0.155 0.213 0.155 0.213-0.077 0.213-0.155zM13.485 22.133v0c-0.019-0.077-0.135-0.116-0.252-0.097s-0.193 0.097-0.174 0.174 0.116 0.135 0.232 0.116 0.193-0.116 0.193-0.193zM25.905 16c0-5.475-4.43-9.905-9.905-9.905s-9.905 4.43-9.905 9.905c0 4.372 2.844 8.086 6.771 9.402 0.503 0.097 0.677-0.213 0.677-0.484 0-0.232 0-1.006-0.019-1.838 0 0-2.747 0.6-3.327-1.18 0 0-0.445-1.141-1.103-1.432 0 0-0.89-0.619 0.077-0.619 0 0 0.967 0.077 1.509 1.025 0.871 1.528 2.321 1.083 2.882 0.832 0.097-0.638 0.348-1.083 0.638-1.335-2.205-0.252-4.527-1.103-4.527-4.894 0-1.083 0.387-1.954 1.025-2.65-0.097-0.252-0.445-1.257 0.097-2.631 0.832-0.252 2.728 1.025 2.728 1.025 0.793-0.232 1.625-0.329 2.476-0.329s1.683 0.097 2.476 0.329c0 0 1.896-1.277 2.728-1.025 0.542 1.373 0.193 2.379 0.097 2.631 0.638 0.696 1.025 1.567 1.025 2.65 0 3.811-2.321 4.643-4.527 4.894 0.348 0.31 0.677 0.909 0.677 1.838 0 1.315-0.019 2.379-0.019 2.708 0 0.271 0.174 0.58 0.677 0.484 3.927-1.315 6.771-5.030 6.771-9.402zM30.857 6.714v18.571c0 3.076-2.496 5.571-5.571 5.571h-18.571c-3.076 0-5.571-2.496-5.571-5.571v-18.571c0-3.076 2.496-5.571 5.571-5.571h18.571c3.076 0 5.571 2.496 5.571 5.571z"></path>
</svg>
