<?xml version="1.0" encoding="utf-8"?>
<!-- Generated by IcoMoon.io -->
<!DOCTYPE svg PUBLIC "-//W3C//DTD SVG 1.1//EN" "http://www.w3.org/Graphics/SVG/1.1/DTD/svg11.dtd">
<svg version="1.1" xmlns="http://www.w3.org/2000/svg" xmlns:xlink="http://www.w3.org/1999/xlink" width="32" height="32" viewBox="0 0 32 32">
<path d="M16.097 23.854l6.771-9.15c0.522-0.716 1.141-3.018-0.832-4.314-1.664-1.083-3.25-0.252-4.082 0.716-0.31 0.348-0.851 0.774-1.857 0.774s-1.528-0.426-1.838-0.774c-0.832-0.967-2.418-1.799-4.101-0.716-1.954 1.296-1.335 3.598-0.813 4.314zM30.857 16c0 8.202-6.655 14.857-14.857 14.857s-14.857-6.655-14.857-14.857 6.655-14.857 14.857-14.857 14.857 6.655 14.857 14.857z"></path>
</svg>
