<?xml version="1.0" encoding="utf-8"?>
<!-- Generated by IcoMoon.io -->
<!DOCTYPE svg PUBLIC "-//W3C//DTD SVG 1.1//EN" "http://www.w3.org/Graphics/SVG/1.1/DTD/svg11.dtd">
<svg version="1.1" xmlns="http://www.w3.org/2000/svg" xmlns:xlink="http://www.w3.org/1999/xlink" width="32" height="32" viewBox="0 0 32 32">
<path d="M17.896 8.63c0 0.619-0.135 1.219-0.252 1.818-0.406 1.935-0.793 3.869-1.199 5.804-0.058 0.271-0.058 0.271-0.348 0.29-0.193 0.019-0.406 0.039-0.6 0.039-1.664 0-2.128-1.799-2.128-3.153 0-2.012 0.793-4.701 2.67-5.765 0.31-0.155 0.638-0.271 0.987-0.271 0.793 0 0.871 0.58 0.871 1.238zM27.298 16.832c0-0.348-1.432-2.612-1.76-2.747-0.155-0.058-0.484-0.155-0.658-0.155-1.586 0-3.018 0.716-4.372 1.49l-0.039-0.039c0.31-2.070 1.006-3.908 1.006-6.055 0-3.076-1.644-4.507-4.682-4.507-0.445 0-0.89 0.058-1.315 0.116-3.811 0.677-6.132 5.030-6.132 8.609 0 3.792 2.186 5.881 5.958 5.881 0.077 0 0.484-0.039 0.484 0.058 0 0.039 0 0.058-0.019 0.097-0.077 0.735-0.31 1.548-0.503 2.263-0.29 1.064-1.296 2.902-2.592 2.902-0.561 0-0.813-0.387-0.813-0.909 0-1.683 1.935-2.689 1.973-2.786 0-0.077-0.097-0.155-0.135-0.193-0.6-0.542-1.586-0.987-2.399-0.987-1.47 0-2.263 2.36-2.263 3.56 0 2.244 1.412 3.792 3.676 3.792 3.347 0 5.784-3.521 6.539-6.423 0.213-0.851 0.368-1.722 0.58-2.573 0.039-0.174 0.097-0.252 0.271-0.348 1.373-0.696 2.824-1.161 4.391-1.161 0.851 0 1.606 0.155 2.457 0.348 0.019 0.019 0.058 0.019 0.077 0.019 0.116 0 0.271-0.135 0.271-0.252zM30.857 6.714v18.571c0 3.076-2.496 5.571-5.571 5.571h-18.571c-3.076 0-5.571-2.496-5.571-5.571v-18.571c0-3.076 2.496-5.571 5.571-5.571h18.571c3.076 0 5.571 2.496 5.571 5.571z"></path>
</svg>
