<?xml version="1.0" encoding="utf-8"?>
<!-- Generated by IcoMoon.io -->
<!DOCTYPE svg PUBLIC "-//W3C//DTD SVG 1.1//EN" "http://www.w3.org/Graphics/SVG/1.1/DTD/svg11.dtd">
<svg version="1.1" xmlns="http://www.w3.org/2000/svg" xmlns:xlink="http://www.w3.org/1999/xlink" width="32" height="32" viewBox="0 0 32 32">
<path d="M15.601 6.186c0-0.879-0.083-1.643-1.145-1.643-0.448 0-0.896 0.149-1.294 0.382-2.505 1.377-3.534 4.944-3.534 7.632 0 1.792 0.614 4.181 2.804 4.181 0.498 0 1.128 0.133 1.261-0.448 0.531-2.555 1.062-5.127 1.593-7.682 0.166-0.796 0.315-1.609 0.315-2.422zM28.11 17.070c0 0.166-0.216 0.332-0.382 0.332l-0.1-0.017c-1.128-0.166-2.124-0.465-3.268-0.465-2.074 0-3.982 0.614-5.823 1.543-0.232 0.116-0.282 0.216-0.348 0.448-0.299 1.128-0.498 2.29-0.78 3.418-0.995 3.866-4.231 8.528-8.66 8.528-3.020 0-4.878-2.057-4.878-5.027 0-1.609 1.045-4.745 2.986-4.745 0.68 0 3.351 0.879 3.368 1.576-0.033 0.133-2.605 1.46-2.605 3.7 0 0.68 0.332 1.211 1.078 1.211 2.638 0 3.849-4.811 4.115-6.835v-0.149c0-0.133-0.531-0.066-0.63-0.066-4.994 0-7.914-2.787-7.914-7.814 0-4.745 3.086-10.535 8.146-11.415 0.581-0.1 1.161-0.149 1.759-0.149 4.015 0 6.205 1.875 6.205 5.973 0 2.771-0.946 5.326-1.344 8.030l0.050 0.050c1.792-1.012 3.683-1.974 5.807-1.974 0.216 0 0.68 0.133 0.879 0.216 0.431 0.166 2.339 3.169 2.339 3.633z"></path>
</svg>
