<?xml version="1.0" encoding="utf-8"?>
<!-- Generated by IcoMoon.io -->
<!DOCTYPE svg PUBLIC "-//W3C//DTD SVG 1.1//EN" "http://www.w3.org/Graphics/SVG/1.1/DTD/svg11.dtd">
<svg version="1.1" xmlns="http://www.w3.org/2000/svg" xmlns:xlink="http://www.w3.org/1999/xlink" width="32" height="32" viewBox="0 0 32 32">
<path d="M16 1.143c8.202 0 14.857 6.655 14.857 14.857s-6.655 14.857-14.857 14.857-14.857-6.655-14.857-14.857 6.655-14.857 14.857-14.857zM21.301 11.222c-0.155 0.116-0.252 0.329-0.445 0.368 0.097-0.019 0.193-0.368 0.252-0.445 0.116-0.135 0.271-0.213 0.426-0.29 0.329-0.135 0.658-0.174 1.006-0.232 0.329-0.077 0.735-0.077 0.987 0.213-0.058-0.058 0.406-0.464 0.464-0.484 0.174-0.097 0.464-0.058 0.58-0.232 0.039-0.058 0.039-0.426 0.039-0.426-0.329 0.039-0.445-0.271-0.464-0.542 0 0.019-0.039 0.077-0.116 0.155 0.019-0.29-0.348-0.077-0.484-0.116-0.445-0.116-0.387-0.426-0.522-0.754-0.077-0.174-0.29-0.232-0.368-0.406-0.077-0.116-0.116-0.368-0.29-0.387-0.116-0.019-0.329 0.406-0.368 0.387-0.174-0.097-0.252 0.039-0.387 0.116-0.116 0.077-0.213 0.039-0.329 0.097 0.348-0.116-0.155-0.31-0.329-0.271 0.271-0.077 0.135-0.368-0.019-0.503h0.097c-0.039-0.174-0.58-0.329-0.754-0.445s-1.103-0.31-1.296-0.193c-0.232 0.135 0.058 0.522 0.058 0.716 0.019 0.232-0.232 0.29-0.232 0.484 0 0.329 0.619 0.271 0.464 0.716-0.097 0.271-0.464 0.329-0.619 0.542-0.155 0.193 0.019 0.542 0.174 0.677 0.155 0.116-0.271 0.31-0.329 0.348-0.329 0.155-0.58-0.329-0.658-0.619-0.058-0.213-0.077-0.464-0.31-0.58-0.116-0.039-0.484-0.097-0.561 0.019-0.116-0.29-0.522-0.406-0.793-0.503-0.387-0.135-0.716-0.135-1.122-0.077 0.135-0.019-0.039-0.619-0.368-0.522 0.097-0.193 0.058-0.406 0.097-0.6 0.039-0.155 0.116-0.31 0.232-0.445 0.039-0.077 0.464-0.522 0.329-0.542 0.329 0.039 0.696 0.058 0.967-0.213 0.174-0.174 0.252-0.464 0.426-0.658 0.252-0.29 0.561 0.077 0.832 0.097 0.387 0.019 0.368-0.406 0.155-0.6 0.252 0.019 0.039-0.445-0.097-0.503-0.174-0.058-0.832 0.116-0.484 0.252-0.077-0.039-0.542 0.929-0.813 0.445-0.077-0.097-0.116-0.503-0.29-0.522-0.155 0-0.252 0.174-0.31 0.29 0.097-0.252-0.542-0.426-0.677-0.445 0.29-0.193 0.058-0.406-0.155-0.522-0.155-0.097-0.638-0.174-0.774-0.019-0.368 0.445 0.387 0.503 0.58 0.619 0.058 0.039 0.29 0.174 0.155 0.271-0.116 0.058-0.464 0.155-0.503 0.232-0.116 0.174 0.135 0.368-0.039 0.542-0.174-0.174-0.174-0.464-0.31-0.658 0.174 0.213-0.696 0.097-0.677 0.097-0.29 0-0.754 0.193-0.967-0.097-0.039-0.077-0.039-0.522 0.077-0.426-0.174-0.135-0.29-0.271-0.406-0.348-0.638 0.213-1.238 0.484-1.818 0.793 0.077 0.019 0.135 0.019 0.232-0.019 0.155-0.058 0.29-0.155 0.445-0.232 0.193-0.077 0.6-0.31 0.813-0.135 0.019-0.039 0.077-0.077 0.097-0.097 0.135 0.155 0.271 0.31 0.387 0.484-0.155-0.077-0.406-0.039-0.58-0.019-0.135 0.039-0.368 0.077-0.426 0.232 0.058 0.097 0.135 0.252 0.097 0.348-0.252-0.174-0.445-0.464-0.793-0.503-0.155 0-0.31 0-0.426 0.019-1.857 1.025-3.424 2.515-4.546 4.295 0.077 0.077 0.155 0.135 0.232 0.155 0.193 0.058 0 0.619 0.368 0.329 0.116 0.097 0.135 0.232 0.058 0.368 0.019-0.019 0.793 0.484 0.851 0.522 0.135 0.116 0.348 0.252 0.406 0.406 0.039 0.135-0.077 0.29-0.193 0.348-0.019-0.039-0.31-0.329-0.348-0.252-0.058 0.097 0 0.619 0.213 0.6-0.31 0.019-0.174 1.219-0.252 1.451 0 0.019 0.039 0.019 0.039 0.019-0.058 0.232 0.135 1.141 0.522 1.045-0.252 0.058 0.445 0.948 0.542 1.006 0.252 0.174 0.542 0.29 0.716 0.542 0.193 0.271 0.193 0.677 0.464 0.89-0.077 0.232 0.406 0.503 0.387 0.832-0.039 0.019-0.058 0.019-0.097 0.039 0.097 0.271 0.464 0.271 0.6 0.522 0.077 0.155 0 0.522 0.252 0.445 0.039-0.426-0.252-0.851-0.464-1.199-0.116-0.193-0.232-0.368-0.329-0.561-0.097-0.174-0.116-0.387-0.193-0.58 0.077 0.019 0.503 0.174 0.464 0.232-0.155 0.387 0.619 1.064 0.832 1.315 0.058 0.058 0.503 0.638 0.271 0.638 0.252 0 0.6 0.387 0.716 0.58 0.174 0.29 0.135 0.658 0.252 0.967 0.116 0.387 0.658 0.561 0.967 0.735 0.271 0.135 0.503 0.329 0.774 0.426 0.406 0.155 0.503 0.019 0.851-0.039 0.503-0.077 0.561 0.484 0.967 0.696 0.252 0.135 0.793 0.329 1.064 0.213-0.116 0.039 0.406 0.832 0.445 0.89 0.174 0.232 0.503 0.348 0.696 0.58 0.058-0.039 0.116-0.097 0.135-0.174-0.077 0.213 0.29 0.619 0.484 0.58 0.213-0.039 0.271-0.464 0.271-0.619-0.387 0.193-0.735 0.039-0.948-0.348-0.039-0.097-0.348-0.638-0.077-0.638 0.368 0 0.116-0.29 0.077-0.561s-0.31-0.445-0.445-0.677c-0.116 0.232-0.503 0.174-0.619-0.019 0 0.058-0.058 0.155-0.058 0.232-0.097 0-0.193 0.019-0.29-0.019 0.039-0.232 0.058-0.522 0.116-0.774 0.097-0.348 0.735-1.025-0.097-0.987-0.29 0.019-0.406 0.135-0.503 0.387-0.097 0.232-0.058 0.445-0.329 0.561-0.174 0.077-0.754 0.039-0.929-0.058-0.368-0.213-0.619-0.89-0.619-1.277-0.019-0.522 0.252-0.987 0-1.47 0.116-0.097 0.232-0.29 0.368-0.387 0.116-0.077 0.252 0.058 0.31-0.174-0.058-0.039-0.135-0.116-0.155-0.116 0.29 0.135 0.832-0.193 1.083 0 0.155 0.116 0.329 0.155 0.426-0.039 0.019-0.058-0.135-0.29-0.058-0.445 0.058 0.329 0.271 0.387 0.561 0.174 0.116 0.116 0.426 0.077 0.638 0.193 0.213 0.135 0.252 0.348 0.503 0.058 0.155 0.232 0.174 0.232 0.232 0.464 0.058 0.213 0.174 0.754 0.368 0.851 0.406 0.252 0.31-0.426 0.271-0.658-0.019-0.019-0.019-0.658-0.039-0.658-0.619-0.135-0.387-0.619-0.039-0.948 0.058-0.039 0.503-0.193 0.696-0.348 0.174-0.155 0.387-0.426 0.29-0.677 0.097 0 0.174-0.077 0.213-0.174-0.058-0.019-0.29-0.213-0.329-0.193 0.135-0.077 0.116-0.193 0.039-0.31 0.193-0.116 0.097-0.329 0.29-0.406 0.213 0.29 0.638-0.039 0.426-0.271 0.193-0.271 0.638-0.135 0.754-0.387 0.29 0.077 0.077-0.29 0.232-0.503 0.135-0.174 0.368-0.174 0.542-0.271 0 0.019 0.484-0.271 0.329-0.29 0.329 0.039 0.987-0.31 0.484-0.6 0.077-0.174-0.174-0.252-0.348-0.29 0.135-0.039 0.31 0.039 0.426-0.039 0.252-0.174 0.077-0.252-0.135-0.31-0.271-0.077-0.619 0.097-0.832 0.232zM18.147 28.188c2.65-0.464 5.010-1.78 6.79-3.656-0.116-0.116-0.329-0.077-0.484-0.155-0.155-0.058-0.271-0.116-0.464-0.155 0.039-0.387-0.387-0.522-0.658-0.716-0.252-0.193-0.406-0.406-0.774-0.329-0.039 0.019-0.426 0.155-0.348 0.232-0.252-0.213-0.368-0.329-0.696-0.426-0.31-0.097-0.522-0.484-0.832-0.135-0.155 0.155-0.077 0.387-0.155 0.542-0.252-0.213 0.232-0.464 0.039-0.696-0.232-0.271-0.638 0.174-0.832 0.29-0.116 0.097-0.252 0.135-0.329 0.252-0.097 0.135-0.135 0.31-0.213 0.445-0.058-0.155-0.387-0.116-0.406-0.232 0.077 0.464 0.077 0.948 0.174 1.412 0.058 0.271 0 0.716-0.232 0.929s-0.522 0.445-0.561 0.774c-0.039 0.232 0.019 0.445 0.232 0.503 0.019 0.29-0.31 0.503-0.29 0.813 0 0.019 0.019 0.213 0.039 0.31z"></path>
</svg>
