<?xml version="1.0" encoding="utf-8"?>
<!-- Generated by IcoMoon.io -->
<!DOCTYPE svg PUBLIC "-//W3C//DTD SVG 1.1//EN" "http://www.w3.org/Graphics/SVG/1.1/DTD/svg11.dtd">
<svg version="1.1" xmlns="http://www.w3.org/2000/svg" xmlns:xlink="http://www.w3.org/1999/xlink" width="32" height="32" viewBox="0 0 32 32">
<path d="M18.882 16.174c0-0.484-0.058-0.871-0.116-1.238h-7.003v2.554h4.198c-0.155 1.083-1.257 3.192-4.198 3.192-2.554 0-4.623-2.089-4.623-4.682s2.070-4.682 4.623-4.682c1.432 0 2.399 0.6 2.96 1.141l2.012-1.954c-1.296-1.199-2.979-1.935-4.972-1.935-4.121 0-7.429 3.327-7.429 7.429s3.308 7.429 7.429 7.429c4.275 0 7.119-3.018 7.119-7.255zM25.557 17.064h2.109v-2.128h-2.109v-2.128h-2.128v2.128h-2.128v2.128h2.128v2.128h2.128v-2.128zM30.857 6.714v18.571c0 3.076-2.496 5.571-5.571 5.571h-18.571c-3.076 0-5.571-2.496-5.571-5.571v-18.571c0-3.076 2.496-5.571 5.571-5.571h18.571c3.076 0 5.571 2.496 5.571 5.571z"></path>
</svg>
