<?xml version="1.0" encoding="utf-8"?>
<!-- Generated by IcoMoon.io -->
<!DOCTYPE svg PUBLIC "-//W3C//DTD SVG 1.1//EN" "http://www.w3.org/Graphics/SVG/1.1/DTD/svg11.dtd">
<svg version="1.1" xmlns="http://www.w3.org/2000/svg" xmlns:xlink="http://www.w3.org/1999/xlink" width="32" height="32" viewBox="0 0 32 32">
<path d="M18.882 16.174c0-0.426-0.039-0.832-0.116-1.238h-7.003v2.554h4.198c-0.31 2.051-2.244 3.192-4.198 3.192-2.573 0-4.623-2.128-4.623-4.682s2.051-4.682 4.623-4.682c1.083 0 2.167 0.368 2.96 1.141l2.012-1.954c-1.373-1.277-3.095-1.935-4.972-1.935-4.121 0-7.429 3.327-7.429 7.429s3.308 7.429 7.429 7.429c4.275 0 7.119-3.018 7.119-7.254zM25.557 17.064h2.109v-2.128h-2.109v-2.128h-2.128v2.128h-2.128v2.128h2.128v2.128h2.128v-2.128zM30.857 16c0 8.202-6.655 14.857-14.857 14.857s-14.857-6.655-14.857-14.857 6.655-14.857 14.857-14.857 14.857 6.655 14.857 14.857z"></path>
</svg>
