<?xml version="1.0" encoding="utf-8"?>
<!-- Generated by IcoMoon.io -->
<!DOCTYPE svg PUBLIC "-//W3C//DTD SVG 1.1//EN" "http://www.w3.org/Graphics/SVG/1.1/DTD/svg11.dtd">
<svg version="1.1" xmlns="http://www.w3.org/2000/svg" xmlns:xlink="http://www.w3.org/1999/xlink" width="32" height="32" viewBox="0 0 32 32">
<path d="M19.514 16.21c0 5.166-3.465 8.828-8.68 8.828-4.994 0-9.038-4.044-9.038-9.038s4.044-9.038 9.038-9.038c2.441 0 4.476 0.888 6.054 2.367l-2.454 2.355c-0.666-0.641-1.837-1.393-3.6-1.393-3.082 0-5.598 2.552-5.598 5.709s2.515 5.709 5.598 5.709c3.576 0 4.92-2.577 5.129-3.896h-5.129v-3.107h8.532c0.086 0.456 0.148 0.912 0.148 1.504zM30.204 14.705v2.589h-2.577v2.577h-2.589v-2.577h-2.577v-2.589h2.577v-2.577h2.589v2.577h2.577z"></path>
</svg>
