<?xml version="1.0" encoding="utf-8"?>
<!-- Generated by IcoMoon.io -->
<!DOCTYPE svg PUBLIC "-//W3C//DTD SVG 1.1//EN" "http://www.w3.org/Graphics/SVG/1.1/DTD/svg11.dtd">
<svg version="1.1" xmlns="http://www.w3.org/2000/svg" xmlns:xlink="http://www.w3.org/1999/xlink" width="32" height="32" viewBox="0 0 32 32">
<path d="M8.472 12.286c0.332 0 0.663 0.166 0.862 0.431 2.902 3.963 4.925 8.208 6.003 12.834h-7.395c-1.327-4.61-3.283-8.821-6.085-12.42-0.265-0.348 0-0.846 0.431-0.846h6.185zM17.741 18.205c-0.547 2.239-1.244 4.411-2.073 6.517-0.879-3.466-2.288-6.716-4.245-9.85 0.431-2.404 0.68-4.875 0.73-7.445 2.338 3.764 4.195 7.346 5.588 10.778zM19.383 6.449c4.958 6.832 8.639 15.255 9.435 24.408h-7.478c-0.547-8.855-4.626-17.245-9.17-24.408h7.213zM30.874 16c0 4.61-0.63 9.452-1.675 13.464-0.73-6.135-2.753-12.237-5.953-17.958-0.282-3.349-0.879-6.599-1.758-9.684-0.083-0.348 0.166-0.68 0.514-0.68h5.953c0.464 0 0.895 0.315 1.011 0.763 1.26 4.477 1.907 9.219 1.907 14.094z"></path>
</svg>
