<?xml version="1.0" encoding="utf-8"?>
<!-- Generated by IcoMoon.io -->
<!DOCTYPE svg PUBLIC "-//W3C//DTD SVG 1.1//EN" "http://www.w3.org/Graphics/SVG/1.1/DTD/svg11.dtd">
<svg version="1.1" xmlns="http://www.w3.org/2000/svg" xmlns:xlink="http://www.w3.org/1999/xlink" width="32" height="32" viewBox="0 0 32 32">
<path d="M23.713 15.256l0.223 3.919c0.099 1.748-3.559 3.175-7.937 3.175s-8.036-1.426-7.937-3.175l0.223-3.919 7.118 2.245c0.198 0.062 0.397 0.087 0.595 0.087s0.397-0.025 0.595-0.087zM30.286 11.238c0 0.174-0.112 0.322-0.273 0.384l-13.889 4.365c-0.050 0.012-0.087 0.012-0.124 0.012s-0.074 0-0.124-0.012l-8.085-2.555c-0.707 0.558-1.203 1.922-1.302 3.596 0.471 0.273 0.781 0.769 0.781 1.352 0 0.558-0.285 1.042-0.719 1.327l0.719 5.37c0.012 0.112-0.025 0.223-0.099 0.31s-0.186 0.136-0.298 0.136h-2.381c-0.112 0-0.223-0.050-0.298-0.136s-0.112-0.198-0.099-0.31l0.719-5.37c-0.434-0.285-0.719-0.769-0.719-1.327 0-0.595 0.335-1.104 0.806-1.377 0.074-1.451 0.446-3.013 1.215-4.092l-4.129-1.29c-0.161-0.062-0.273-0.211-0.273-0.384s0.112-0.322 0.273-0.384l13.889-4.365c0.050-0.012 0.087-0.012 0.124-0.012s0.074 0 0.124 0.012l13.889 4.365c0.161 0.062 0.273 0.211 0.273 0.384z"></path>
</svg>
