<?xml version="1.0" encoding="utf-8"?>
<!-- Generated by IcoMoon.io -->
<!DOCTYPE svg PUBLIC "-//W3C//DTD SVG 1.1//EN" "http://www.w3.org/Graphics/SVG/1.1/DTD/svg11.dtd">
<svg version="1.1" xmlns="http://www.w3.org/2000/svg" xmlns:xlink="http://www.w3.org/1999/xlink" width="32" height="32" viewBox="0 0 32 32">
<path d="M22.551 9.036c-0.531-0.597-1.393 0.415-0.929 0.962 0.448 0.547 1.923 0.149 0.929-0.962zM15.985 13.115c-0.182 0.182-0.464 0.182-0.63 0-0.182-0.166-0.182-0.448 0-0.614 0.166-0.182 0.448-0.182 0.63 0 0.166 0.166 0.166 0.448 0 0.614zM18.721 14.342l-0.58 0.58c-0.265 0.282-0.713 0.282-0.995 0l-0.63-0.63c-0.265-0.282-0.265-0.713 0-0.995l0.58-0.58c0.265-0.265 0.713-0.265 0.995 0l0.63 0.647c0.265 0.265 0.265 0.713 0 0.978zM16.914 12.186c-0.166 0.166-0.448 0.166-0.63 0-0.166-0.182-0.166-0.464 0-0.63 0.182-0.182 0.464-0.182 0.63 0 0.182 0.166 0.182 0.448 0 0.63zM23.596 10.561c-0.746 1.409-2.703 1.99-3.897 1.144-1.194-0.862-2.023-2.587-0.713-4.079 1.293-1.492 2.438-1.028 3.582 0.050 0.713 0.68 1.758 1.492 1.028 2.885zM26.929 18.554c0.149-0.962-1.227-0.995-1.526-1.542-0.813-1.443-1.658-2.205-3.267-1.824 0.696-0.481 1.409-0.365 1.409-0.365 0.017-0.381 0-0.779-0.564-1.492 0.232-0.746 0.017-1.343 0.017-1.343 0.929-0.514 1.608-1.459 1.741-2.587 0.216-1.857-1.128-3.548-2.985-3.764-1.327-0.149-2.62 0.464-3.25 1.542-1.393 2.404 0.083 4.245 1.343 4.875-0.862-0.083-2.056-0.713-2.404-2.056-0.398-1.542 0.166-2.985 0.531-3.681 0 0-0.265-0.348-0.481-0.531 0 0-0.829 0-1.476 0.315 0.713-0.912 1.509-0.862 1.509-0.862 0-0.381-0.033-0.895-0.216-1.293-0.332-0.68-1.492-0.779-1.94 0.249 0.017-0.050 0.033-0.083 0.066-0.116-0.298 0.713-0.066 3.349 1.011 5.223-0.149 0.083-0.547 0.365-0.779 0.597-1.293 0.58-3.366 3.615-3.366 3.615-1.691 0.647-4.643 3.051-4.245 4.776v0c0.017 0.182 0.083 0.332 0.182 0.448-0.166 0.133-0.332 0.298-0.497 0.497-0.713 0.829-0.315 2.106 1.061 1.459 0.945-0.431 1.791-1.21 2.189-1.824 0 0-0.348-0.298-0.995-0.265 1.658-0.398 2.073-0.564 2.786-0.547 0.481 0.232 0.481-2.056 0.481-2.056 0-0.879-0.133-1.857-0.663-2.487 0.746 0.73 1.741 1.957 1.675 3.631-0.050 1.094-0.912 1.376-0.912 1.376-0.547 0.995-2.587 3.946-1.824 6.351 0 0-0.58-0.895-0.614-1.327-1.045 1.161-2.802 3.134-1.492 3.864 1.592 0.879 6.533-5.306 7.578-8.523 2.073-1.244 3.316-2.835 3.83-3.897 1.327 2.636 5.737 5.688 6.085 3.565zM30.892 16c0 8.208-6.666 14.857-14.874 14.857s-14.874-6.649-14.874-14.857 6.666-14.857 14.874-14.857 14.874 6.649 14.874 14.857z"></path>
</svg>
