<?xml version="1.0" encoding="utf-8"?>
<!-- Generated by IcoMoon.io -->
<!DOCTYPE svg PUBLIC "-//W3C//DTD SVG 1.1//EN" "http://www.w3.org/Graphics/SVG/1.1/DTD/svg11.dtd">
<svg version="1.1" xmlns="http://www.w3.org/2000/svg" xmlns:xlink="http://www.w3.org/1999/xlink" width="32" height="32" viewBox="0 0 32 32">
<path d="M10.37 16c-1.595 0.046-3.037 0.736-4.065 1.963h-2.055c-1.534 0-2.976-0.736-2.976-2.439 0-1.242-0.046-5.415 1.902-5.415 0.322 0 1.917 1.304 3.988 1.304 0.706 0 1.381-0.123 2.040-0.353-0.046 0.337-0.077 0.675-0.077 1.012 0 1.396 0.445 2.776 1.242 3.927zM26.799 25.771c0 2.485-1.641 3.973-4.096 3.973h-13.406c-2.454 0-4.096-1.488-4.096-3.973 0-3.467 0.813-8.789 5.307-8.789 0.522 0 2.424 2.132 5.491 2.132s4.97-2.132 5.491-2.132c4.494 0 5.307 5.323 5.307 8.789zM11.091 6.183c0 2.163-1.764 3.927-3.927 3.927s-3.927-1.764-3.927-3.927 1.764-3.927 3.927-3.927 3.927 1.764 3.927 3.927zM21.89 12.073c0 3.252-2.638 5.89-5.89 5.89s-5.89-2.638-5.89-5.89 2.638-5.89 5.89-5.89 5.89 2.638 5.89 5.89zM30.726 15.524c0 1.703-1.442 2.439-2.976 2.439h-2.055c-1.028-1.227-2.47-1.917-4.065-1.963 0.798-1.15 1.242-2.531 1.242-3.927 0-0.337-0.031-0.675-0.077-1.012 0.66 0.23 1.334 0.353 2.040 0.353 2.071 0 3.666-1.304 3.988-1.304 1.948 0 1.902 4.172 1.902 5.415zM28.762 6.183c0 2.163-1.764 3.927-3.927 3.927s-3.927-1.764-3.927-3.927 1.764-3.927 3.927-3.927 3.927 1.764 3.927 3.927z"></path>
</svg>
