<?xml version="1.0" encoding="utf-8"?>
<!-- Generated by IcoMoon.io -->
<!DOCTYPE svg PUBLIC "-//W3C//DTD SVG 1.1//EN" "http://www.w3.org/Graphics/SVG/1.1/DTD/svg11.dtd">
<svg version="1.1" xmlns="http://www.w3.org/2000/svg" xmlns:xlink="http://www.w3.org/1999/xlink" width="32" height="32" viewBox="0 0 32 32">
<path d="M24.49 27.673c0-0.58-0.481-1.061-1.061-1.061s-1.061 0.481-1.061 1.061 0.481 1.061 1.061 1.061 1.061-0.481 1.061-1.061zM26.612 15.005c0-1.874-0.763-3.134-2.769-3.134-0.315 0-0.63 0.033-0.929 0.083-0.381-0.696-1.327-1.078-2.089-1.078-0.398 0-0.796 0.1-1.144 0.298-0.531-0.564-1.194-0.879-1.973-0.879-0.531 0-1.31 0.232-1.708 0.58v-5.489c0-1.144-0.978-2.122-2.122-2.122-1.128 0-2.122 1.011-2.122 2.122v9.551c-1.045 0-2.122-1.592-4.245-1.592-1.592 0-2.122 1.244-2.122 2.653 0 0.464 1.923 1.31 2.305 1.492 0.365 0.199 0.73 0.398 1.078 0.614 0.879 0.547 1.642 1.177 2.404 1.857 1.21 1.061 2.703 2.239 2.703 3.996v0.531h10.612v-0.531c0-2.902 2.122-5.737 2.122-8.954zM28.735 14.922c0 1.857-0.514 3.615-1.144 5.339-0.365 1.011-0.978 2.653-0.978 3.698v4.776c0 1.177-0.945 2.122-2.122 2.122h-10.612c-1.177 0-2.122-0.945-2.122-2.122v-4.776c0-0.796-1.426-1.923-1.973-2.404-0.68-0.597-1.36-1.161-2.139-1.658-1.542-0.962-4.378-1.675-4.378-3.897 0-2.636 1.443-4.775 4.245-4.775 0.73 0 1.443 0.116 2.122 0.365v-6.202c0-2.288 1.94-4.245 4.228-4.245 2.321 0 4.261 1.923 4.261 4.245v2.802c0.696 0.050 1.36 0.265 1.973 0.614 0.232-0.033 0.481-0.050 0.713-0.050 1.061 0 2.122 0.348 2.952 0.995 3.134-0.033 4.974 2.106 4.974 5.173z"></path>
</svg>
