<?xml version="1.0" encoding="utf-8"?>
<!-- Generated by IcoMoon.io -->
<!DOCTYPE svg PUBLIC "-//W3C//DTD SVG 1.1//EN" "http://www.w3.org/Graphics/SVG/1.1/DTD/svg11.dtd">
<svg version="1.1" xmlns="http://www.w3.org/2000/svg" xmlns:xlink="http://www.w3.org/1999/xlink" width="32" height="32" viewBox="0 0 32 32">
<path d="M16 4.935c-1.364 0-2.459 1.095-2.459 2.459v2.459h-0.615v-1.787c0-1.21-0.922-2.209-2.152-2.209-1.191 0-2.152 0.96-2.152 2.152v8.241l-0.615-0.576v-3.304c0-1.21-0.922-2.209-2.152-2.209-1.191 0-2.152 0.96-2.152 2.152v4.303c0 0.596 0.25 1.153 0.672 1.575l5.955 5.686c0.557 0.557 0.749 1.191 0.749 1.959 0 0.672 0.557 1.229 1.229 1.229h12.294c0.672 0 1.229-0.557 1.229-1.229v-0.48c0-0.499 0.058-0.999 0.192-1.479l2.075-8.376c0.134-0.48 0.192-0.98 0.192-1.479v-4.726c0-1.21-0.922-2.209-2.152-2.209-1.191 0-2.152 0.96-2.152 2.152v0.615h-0.615v-2.401c0-1.018-0.692-1.959-1.71-2.171-0.134-0.019-0.288-0.038-0.442-0.038-1.191 0-2.152 0.96-2.152 2.152v2.459h-0.615v-2.344c0-1.287-0.922-2.42-2.209-2.555-0.096-0.019-0.173-0.019-0.25-0.019zM16 2.476c1.037 0 2.036 0.327 2.862 0.961 0.711-0.423 1.537-0.653 2.363-0.653 1.518 0 2.92 0.73 3.784 1.979 0.365-0.096 0.749-0.134 1.133-0.134 2.574 0 4.61 2.113 4.61 4.668v4.726c0 0.692-0.096 1.402-0.25 2.075l-2.094 8.376c-0.115 0.461-0.115 0.903-0.115 1.364 0 2.036-1.652 3.688-3.688 3.688h-12.294c-2.19 0-3.688-1.748-3.688-3.861l-5.917-5.686c-0.903-0.864-1.46-2.094-1.46-3.362v-4.303c0-2.536 2.075-4.61 4.61-4.61 0.115 0 0.211 0 0.307 0.019 0.154-2.44 2.19-4.322 4.61-4.322 0.653 0 1.287 0.134 1.883 0.403 0.903-0.864 2.094-1.325 3.343-1.325z"></path>
</svg>
