<?xml version="1.0" encoding="utf-8"?>
<!-- Generated by IcoMoon.io -->
<!DOCTYPE svg PUBLIC "-//W3C//DTD SVG 1.1//EN" "http://www.w3.org/Graphics/SVG/1.1/DTD/svg11.dtd">
<svg version="1.1" xmlns="http://www.w3.org/2000/svg" xmlns:xlink="http://www.w3.org/1999/xlink" width="32" height="32" viewBox="0 0 32 32">
<path d="M4.122 17.757c1.039 0 1.039-1.584 0-1.584s-1.039 1.584 0 1.584zM22.347 17.039c-0.977-1.274-1.93-2.574-3.044-3.737l-1.547 1.732c-1.361 1.547-3.799 1.51-5.122-0.074-0.94-1.138-0.94-2.772 0.025-3.898l2.19-2.549c-0.767-0.396-1.695-0.26-2.524-0.26-0.73 0-1.435 0.297-1.955 0.817l-1.955 1.955h-1.918v6.731c0.544 0 1.039-0.074 1.472 0.346l3.675 3.613c0.755 0.73 1.732 1.373 2.809 1.373 0.557 0 1.151-0.186 1.547-0.582 0.928 0.322 2.004-0.198 2.289-1.151 0.594 0.049 1.138-0.136 1.571-0.544 0.285-0.26 0.656-0.779 0.619-1.188 0.111 0.111 0.384 0.124 0.532 0.124 1.472 0 2.24-1.547 1.336-2.71zM24.315 17.757h1.188v-6.335h-1.151l-1.943-2.227c-0.52-0.594-1.299-0.94-2.091-0.94h-2.066c-0.693 0-1.361 0.309-1.806 0.829l-2.586 3.007c-0.458 0.544-0.458 1.312-0.012 1.856 0.705 0.841 2.004 0.854 2.734 0.037l2.388-2.697c0.569-0.631 1.609-0.037 1.349 0.767 0.47 0.544 0.977 1.076 1.435 1.621 0.619 0.767 1.213 1.571 1.819 2.351 0.384 0.495 0.668 1.089 0.742 1.732zM27.878 17.757c1.039 0 1.039-1.584 0-1.584s-1.039 1.584 0 1.584zM30.254 10.63v7.919c0 0.433-0.359 0.792-0.792 0.792h-5.37c-0.445 1.076-1.423 1.794-2.561 1.955-0.532 0.779-1.349 1.373-2.264 1.571-0.681 0.866-1.782 1.386-2.883 1.312-2.042 1.151-4.343 0.148-5.865-1.349l-3.551-3.489h-4.43c-0.433 0-0.792-0.359-0.792-0.792v-8.315c0-0.433 0.359-0.792 0.792-0.792h5.209c1.435-1.435 2.425-2.772 4.578-2.772h1.448c0.804 0 1.584 0.247 2.24 0.693 0.656-0.445 1.435-0.693 2.24-0.693h2.066c2.351 0 3.328 1.534 4.751 3.168h4.392c0.433 0 0.792 0.359 0.792 0.792z"></path>
</svg>
