<?xml version="1.0" encoding="utf-8"?>
<!-- Generated by IcoMoon.io -->
<!DOCTYPE svg PUBLIC "-//W3C//DTD SVG 1.1//EN" "http://www.w3.org/Graphics/SVG/1.1/DTD/svg11.dtd">
<svg version="1.1" xmlns="http://www.w3.org/2000/svg" xmlns:xlink="http://www.w3.org/1999/xlink" width="32" height="32" viewBox="0 0 32 32">
<path d="M12.816 3.265c-1.177 0-2.122 0.945-2.122 2.122v14.857l-2.504-3.349c-0.415-0.547-1.078-0.895-1.774-0.895-1.161 0-2.089 0.978-2.089 2.122 0 0.464 0.149 0.912 0.431 1.277l6.367 8.49c0.398 0.531 1.028 0.846 1.691 0.846h11.906c0.481 0 0.912-0.332 1.028-0.796l1.526-6.102c0.265-1.061 0.398-2.139 0.398-3.217v-3.598c0-0.879-0.68-1.675-1.592-1.675-0.879 0-1.592 0.713-1.592 1.592h-0.531v-1.011c0-1.045-0.796-1.907-1.857-1.907-1.028 0-1.857 0.829-1.857 1.857v1.061h-0.531v-1.492c0-1.194-0.912-2.222-2.122-2.222-1.177 0-2.122 0.945-2.122 2.122v1.592h-0.531v-9.452c0-1.194-0.912-2.222-2.122-2.222zM12.816 1.143c2.371 0 4.245 1.99 4.245 4.344v3.648c0.182-0.017 0.348-0.033 0.531-0.033 1.078 0 2.089 0.415 2.869 1.144 0.514-0.232 1.078-0.348 1.642-0.348 1.194 0 2.305 0.531 3.051 1.443 0.315-0.083 0.614-0.116 0.929-0.116 2.089 0 3.714 1.741 3.714 3.797v3.598c0 1.244-0.149 2.504-0.464 3.731l-1.526 6.102c-0.348 1.409-1.625 2.404-3.084 2.404h-11.906c-1.327 0-2.603-0.647-3.399-1.691l-6.367-8.49c-0.547-0.73-0.846-1.642-0.846-2.554 0-2.321 1.89-4.245 4.212-4.245 0.763 0 1.509 0.199 2.156 0.58v-9.070c0-2.338 1.907-4.245 4.245-4.245zM14.939 24.49v-6.367h-0.531v6.367h0.531zM19.184 24.49v-6.367h-0.531v6.367h0.531zM23.429 24.49v-6.367h-0.531v6.367h0.531z"></path>
</svg>
