<?xml version="1.0" encoding="utf-8"?>
<!-- Generated by IcoMoon.io -->
<!DOCTYPE svg PUBLIC "-//W3C//DTD SVG 1.1//EN" "http://www.w3.org/Graphics/SVG/1.1/DTD/svg11.dtd">
<svg version="1.1" xmlns="http://www.w3.org/2000/svg" xmlns:xlink="http://www.w3.org/1999/xlink" width="32" height="32" viewBox="0 0 32 32">
<path d="M24.622 11.871c0.614 0 1.227 0.116 1.774 0.381 1.592 0.713 2.338 2.023 2.338 3.747v2.935c0 1.045-0.133 2.089-0.381 3.084l-1.409 5.621c-0.464 1.89-2.156 3.217-4.112 3.217h-11.077c-2.338 0-4.245-1.907-4.245-4.245v-6.649l-3.963-10.413c-0.182-0.481-0.282-0.995-0.282-1.509 0-2.338 1.907-4.245 4.245-4.245 1.758 0 3.35 1.094 3.963 2.736l0.282 0.73v-1.874c0-2.338 1.907-4.245 4.245-4.245s4.245 1.907 4.245 4.245v4.328c0.265-0.050 0.531-0.083 0.796-0.083 1.526 0 2.918 0.879 3.582 2.239zM21.041 11.755c-0.73 0-1.393 0.431-1.691 1.094l-1.227 2.703-1.177 2.57h0.912c1.111 0 2.089 0.779 2.321 1.857l2.554-5.605c0.116-0.232 0.166-0.497 0.166-0.763 0-1.028-0.829-1.857-1.857-1.857zM24.705 13.994c-1.26 0-1.658 1.011-2.106 2.006l-2.189 4.809c-0.116 0.232-0.166 0.497-0.166 0.763 0 1.028 0.829 1.857 1.857 1.857 0.73 0 1.393-0.431 1.691-1.094l2.653-5.837c0.083-0.166 0.149-0.431 0.149-0.63 0-1.111-0.796-1.874-1.89-1.874zM5.388 8.041c0 0.265 0.050 0.514 0.133 0.763l4.112 10.778v1.144l1.691-1.841c0.448-0.481 1.094-0.763 1.758-0.763h3.283l1.758-3.864v-8.871c0-1.177-0.945-2.122-2.122-2.122s-2.122 0.945-2.122 2.122v10.612h-1.061l-3.316-8.722c-0.315-0.813-1.111-1.36-1.99-1.36-1.177 0-2.122 0.962-2.122 2.122zM22.832 28.735c0.978 0 1.824-0.663 2.056-1.608l1.409-5.621c0.216-0.829 0.315-1.708 0.315-2.57v-1.509l-2.338 5.14c-0.381 0.846-1.244 1.393-2.172 1.393-1.161 0-2.172-0.846-2.355-2.006-0.448 0.58-1.144 0.945-1.89 0.945h-3.449v-0.531h3.449c1.011 0 1.923-0.829 1.923-1.857 0-1.011-0.763-1.857-1.791-1.857h-4.908c-0.514 0-1.011 0.216-1.36 0.597l-2.089 2.255v5.107c0 1.177 0.945 2.122 2.122 2.122h11.077z"></path>
</svg>
