<?xml version="1.0" encoding="utf-8"?>
<!-- Generated by IcoMoon.io -->
<!DOCTYPE svg PUBLIC "-//W3C//DTD SVG 1.1//EN" "http://www.w3.org/Graphics/SVG/1.1/DTD/svg11.dtd">
<svg version="1.1" xmlns="http://www.w3.org/2000/svg" xmlns:xlink="http://www.w3.org/1999/xlink" width="32" height="32" viewBox="0 0 32 32">
<path d="M17.822 3.143c1.162 0 2.282 0.56 2.97 1.507l8.208 11.207c1.105 1.492 1.693 3.286 1.693 5.151v5.094c0 1.521-1.234 2.755-2.755 2.755h-5.51c-1.521 0-2.755-1.234-2.755-2.755v-2.54l-4.104-2.052h-7.835c-1.521 0-2.755-1.234-2.755-2.755v-0.459c0-2.282 1.851-4.133 4.133-4.133h6.027l0.603-1.837h-9.844c-1.908 0-3.501-1.464-3.659-3.358-0.603-0.732-0.933-1.665-0.933-2.612v-0.459c0-1.521 1.234-2.755 2.755-2.755h13.761zM28.857 26.102v-5.094c0-1.449-0.474-2.899-1.334-4.075l-8.222-11.207c-0.344-0.459-0.89-0.746-1.478-0.746h-13.761c-0.502 0-0.918 0.416-0.918 0.918 0 0.761 0.014 1.291 0.517 1.908 0.187-0.588 0.717-0.99 1.32-0.99h11.939v0.459h-11.939c-0.502 0-0.918 0.416-0.918 0.918 0 0.273-0.014 0.56 0.043 0.832 0.158 0.847 0.933 1.464 1.794 1.464h10.489c0.761 0 1.378 0.617 1.378 1.378 0 0.143-0.029 0.301-0.072 0.431l-0.918 2.755c-0.187 0.56-0.717 0.947-1.306 0.947h-6.357c-1.263 0-2.296 1.033-2.296 2.296v0.459c0 0.502 0.416 0.918 0.918 0.918h8.050c0.143 0 0.287 0.029 0.416 0.1l4.549 2.267c0.459 0.244 0.761 0.717 0.761 1.234v2.827c0 0.502 0.416 0.918 0.918 0.918h5.51c0.502 0 0.918-0.416 0.918-0.918z"></path>
</svg>
