<?xml version="1.0" encoding="utf-8"?>
<!-- Generated by IcoMoon.io -->
<!DOCTYPE svg PUBLIC "-//W3C//DTD SVG 1.1//EN" "http://www.w3.org/Graphics/SVG/1.1/DTD/svg11.dtd">
<svg version="1.1" xmlns="http://www.w3.org/2000/svg" xmlns:xlink="http://www.w3.org/1999/xlink" width="32" height="32" viewBox="0 0 32 32">
<path d="M18.897 28.571h-2.897c-1.702 0-2.996-0.737-3.699-2.308-0.246-0.524-0.377-1.097-0.377-1.67v-0.082c-1.342-0.655-2.21-2.030-2.21-3.536 0-0.18 0-0.622 0.082-0.786h-4.272c-2.308 0-4.191-1.882-4.191-4.191s1.882-4.191 4.191-4.191h1.85l-0.72-0.278c-1.621-0.606-2.701-2.177-2.701-3.912 0-2.308 1.882-4.191 4.19-4.191 0.507 0 1.015 0.098 1.49 0.278l10.28 3.912h6.564c2.308 0 4.191 1.882 4.191 4.19v10.935c0 1.932-1.31 3.601-3.176 4.060l-5.549 1.391c-0.982 0.246-2.013 0.377-3.045 0.377zM18.095 16.933l-2.537 1.162-2.668 1.211c-0.655 0.295-1.080 0.949-1.080 1.67 0 1.015 0.818 1.833 1.833 1.833 0.262 0 0.524-0.049 0.753-0.164l5.533-2.521c-1.064-0.229-1.833-1.195-1.833-2.292v-0.9zM23.333 22.024c0-1.015-0.818-1.833-1.833-1.833-0.262 0-0.524 0.049-0.753 0.164l-4.747 2.161c-0.982 0.442-1.981 0.835-1.981 2.079 0 1.080 0.753 1.866 1.85 1.866 0.196 0 0.458-0.066 0.622-0.147l5.762-2.619c0.655-0.295 1.080-0.949 1.080-1.67zM19.536 9.714l-10.64-4.060c-0.246-0.082-0.491-0.131-0.753-0.131-1.146 0-2.095 0.933-2.095 2.095 0 0.868 0.54 1.653 1.342 1.964l8.61 3.274v1.048h-10.476c-1.162 0-2.095 0.933-2.095 2.095s0.933 2.095 2.095 2.095h8.757l3.814-1.735v-3.241c0-0.655 0.278-1.293 0.753-1.735l1.817-1.67h-1.129zM18.897 26.476c0.851 0 1.719-0.098 2.537-0.311l5.549-1.391c0.933-0.229 1.588-1.064 1.588-2.030v-10.935c0-1.162-0.933-2.095-2.095-2.095h-5.042l-2.226 2.063c-0.377 0.344-0.589 0.835-0.589 1.342v4.845c0 1.015 0.835 1.768 1.833 1.768 1.015 0 1.833-0.9 1.833-1.899v-3.405h0.524v3.405c0 0.737-0.36 1.424-0.933 1.866 1.146 0.18 1.981 1.179 1.981 2.324 0 0.917-0.54 1.768-1.375 2.144l-5.074 2.308h1.49z"></path>
</svg>
