<?xml version="1.0" encoding="utf-8"?>
<!-- Generated by IcoMoon.io -->
<!DOCTYPE svg PUBLIC "-//W3C//DTD SVG 1.1//EN" "http://www.w3.org/Graphics/SVG/1.1/DTD/svg11.dtd">
<svg version="1.1" xmlns="http://www.w3.org/2000/svg" xmlns:xlink="http://www.w3.org/1999/xlink" width="33" height="32" viewBox="0 0 33 32">
<path d="M17.347 3.265c-1.028 0-1.857 0.829-1.857 1.857v10.878h-0.531v-8.755c0-1.028-0.829-1.857-1.857-1.857s-1.857 0.829-1.857 1.857v13l-2.554-3.399c-0.398-0.531-1.028-0.846-1.691-0.846-1.177 0-2.122 0.962-2.122 2.122 0 0.464 0.149 0.912 0.431 1.277l6.367 8.49c0.398 0.531 1.028 0.846 1.691 0.846h11.408c0.763 0 1.426-0.547 1.575-1.293l1.26-6.716c0.050-0.315 0.083-0.647 0.083-0.978v-8.258c0-1.028-0.829-1.857-1.857-1.857s-1.857 0.829-1.857 1.857v4.51h-0.531v-8.755c0-1.028-0.829-1.857-1.857-1.857s-1.857 0.829-1.857 1.857v8.755h-0.531v-10.878c0-1.028-0.829-1.857-1.857-1.857zM17.347 1.143c1.492 0 2.869 0.846 3.548 2.189 0.232-0.050 0.464-0.066 0.696-0.066 2.189 0 3.98 1.791 3.98 3.98v0.282c2.305-0.133 4.245 1.642 4.245 3.963v8.258c0 0.464-0.050 0.929-0.133 1.376l-1.26 6.699c-0.315 1.758-1.857 3.034-3.648 3.034h-11.408c-1.327 0-2.603-0.647-3.399-1.691l-6.367-8.49c-0.547-0.73-0.846-1.642-0.846-2.554 0-2.338 1.89-4.245 4.245-4.245 0.696 0 1.542 0.166 2.122 0.564v-7.196c0-2.189 1.791-3.98 3.98-3.98 0.232 0 0.464 0.017 0.696 0.066 0.68-1.343 2.056-2.189 3.548-2.189z"></path>
</svg>
