<?xml version="1.0" encoding="utf-8"?>
<!-- Generated by IcoMoon.io -->
<!DOCTYPE svg PUBLIC "-//W3C//DTD SVG 1.1//EN" "http://www.w3.org/Graphics/SVG/1.1/DTD/svg11.dtd">
<svg version="1.1" xmlns="http://www.w3.org/2000/svg" xmlns:xlink="http://www.w3.org/1999/xlink" width="32" height="32" viewBox="0 0 32 32">
<path d="M8.289 29.791c-1.585 0-2.955-1.077-3.34-2.616l-1.554-6.172c-0.123-0.539-0.2-1.108-0.2-1.662 0-0.354 0-0.693-0.077-1.031l-1.785-7.342c-0.077-0.292-0.108-0.585-0.108-0.877 0-1.909 1.447-3.478 3.34-3.678 0.339-1.739 1.832-2.97 3.617-2.97 1.708 0 3.186 1.17 3.586 2.832l1.277 5.356 1.585-6.587c0.4-1.662 1.878-2.832 3.586-2.832 1.832 0 3.34 1.324 3.632 3.109 1.893 0.215 3.263 1.816 3.263 3.709 0 0.292-0.046 0.6-0.108 0.908l-1.893 7.88c1.231-0.923 2.124-1.816 3.74-1.816 2.139 0 3.925 1.739 3.925 3.894 0 1.293-0.631 2.493-1.647 3.263l-7.803 5.849c-0.677 0.508-1.508 0.785-2.355 0.785h-10.681zM18.216 4.18c-0.785 0-1.478 0.554-1.662 1.324l-2.524 10.497h-1.955l-2.232-9.265c-0.185-0.77-0.877-1.324-1.662-1.324-0.985 0-1.724 0.785-1.724 1.739 0 0.154 0.015 0.292 0.046 0.431l2.032 8.419h-0.4l-1.524-6.28c-0.185-0.754-0.877-1.354-1.678-1.354-0.954 0-1.739 0.77-1.739 1.724 0 0.139 0.015 0.277 0.046 0.4l1.785 7.357c0.215 0.893 0.062 1.785 0.292 2.678l1.539 6.172c0.169 0.662 0.754 1.124 1.431 1.124h10.681c0.416 0 0.831-0.139 1.17-0.4l7.803-5.833c0.523-0.4 0.862-1.031 0.862-1.693 0-1.077-0.893-1.924-1.955-1.924-0.431 0-0.847 0.139-1.185 0.4l-4.725 3.54v-3.494c0-0.123 1.985-8.28 2.139-8.942 0.031-0.139 0.062-0.292 0.062-0.446 0-0.954-0.723-1.77-1.708-1.77-0.8 0-1.493 0.554-1.678 1.324l-1.785 7.419h-0.4l2.309-9.604c0.031-0.139 0.046-0.292 0.046-0.431 0-0.97-0.708-1.785-1.708-1.785z"></path>
</svg>
