<?xml version="1.0" encoding="utf-8"?>
<!-- Generated by IcoMoon.io -->
<!DOCTYPE svg PUBLIC "-//W3C//DTD SVG 1.1//EN" "http://www.w3.org/Graphics/SVG/1.1/DTD/svg11.dtd">
<svg version="1.1" xmlns="http://www.w3.org/2000/svg" xmlns:xlink="http://www.w3.org/1999/xlink" width="32" height="32" viewBox="0 0 32 32">
<path d="M23.857 24.381h0.524v-10.476h-0.524c-1.735 0-2.897-1.473-3.945-2.668-0.671-0.753-1.293-1.506-1.833-2.373-0.229-0.36-0.426-0.737-0.622-1.113s-1.015-2.226-1.457-2.226c-1.391 0-2.619 0.524-2.619 2.095 0 2.095 1.571 3.159 1.571 4.19h-9.429c-1.097 0-2.095 0.982-2.095 2.095 0 1.129 0.966 2.095 2.095 2.095h5.418c-0.344 0.393-0.573 1.162-0.573 1.686 0 0.769 0.311 1.424 0.868 1.948-0.196 0.344-0.295 0.737-0.295 1.129 0 0.753 0.377 1.686 1.064 2.063-0.049 0.295-0.065 0.606-0.065 0.917 0 1.932 1.195 2.734 3.012 2.734 3.257 0 6.040-2.095 8.905-2.095zM28.571 23.333c0-0.573-0.475-1.048-1.048-1.048s-1.048 0.475-1.048 1.048 0.475 1.048 1.048 1.048 1.048-0.475 1.048-1.048zM30.667 13.905v10.476c0 1.162-0.933 2.095-2.095 2.095h-4.714c-1.031 0-2.652 0.606-3.65 0.966-1.67 0.606-3.388 1.129-5.189 1.129-3.012 0-5.205-1.702-5.189-4.829l0.016-0.082c-0.655-0.818-0.998-1.866-0.998-2.914 0-0.229 0.016-0.475 0.049-0.704-0.344-0.606-0.557-1.26-0.606-1.948h-2.766c-2.292 0-4.19-1.915-4.19-4.207 0-2.259 1.932-4.174 4.19-4.174h6.122c-0.246-0.671-0.36-1.375-0.36-2.095 0-2.766 2.112-4.19 4.714-4.19 2.193 0 2.897 2.799 3.847 4.321 0.491 0.769 1.048 1.44 1.637 2.112 0.475 0.54 1.588 1.948 2.373 1.948h4.714c1.162 0 2.095 0.933 2.095 2.095z"></path>
</svg>
