<?xml version="1.0" encoding="utf-8"?>
<!-- Generated by IcoMoon.io -->
<!DOCTYPE svg PUBLIC "-//W3C//DTD SVG 1.1//EN" "http://www.w3.org/Graphics/SVG/1.1/DTD/svg11.dtd">
<svg version="1.1" xmlns="http://www.w3.org/2000/svg" xmlns:xlink="http://www.w3.org/1999/xlink" width="32" height="32" viewBox="0 0 32 32">
<path d="M26.612 17.061c0-3.3-2.122-6.119-2.122-9.020v-0.531h-10.612v0.531c0 1.758-1.492 2.935-2.703 3.996-0.763 0.68-1.526 1.31-2.404 1.857-0.365 0.232-0.746 0.431-1.128 0.63s-2.255 1.028-2.255 1.476c0 1.409 0.531 2.653 2.122 2.653 2.122 0 3.2-1.592 4.245-1.592v9.551c0 1.111 0.995 2.122 2.122 2.122 1.144 0 2.122-0.978 2.122-2.122v-5.489c0.431 0.332 1.161 0.58 1.708 0.58 0.779 0 1.443-0.315 1.973-0.879 0.348 0.199 0.746 0.298 1.144 0.298 0.763 0 1.708-0.381 2.089-1.078 0.298 0.050 0.614 0.066 0.929 0.066 1.957 0 2.769-1.21 2.769-3.051zM24.49 4.327c0-0.58-0.481-1.061-1.061-1.061s-1.061 0.481-1.061 1.061 0.481 1.061 1.061 1.061 1.061-0.481 1.061-1.061zM28.735 16.995c0 3.051-1.724 5.273-4.892 5.256l-0.083-0.017c-0.829 0.663-1.89 1.011-2.952 1.011-0.232 0-0.481-0.017-0.713-0.050-0.564 0.315-1.327 0.547-1.973 0.614v2.802c0 2.321-1.94 4.245-4.261 4.245-2.288 0-4.228-1.957-4.228-4.245v-6.202c-0.647 0.265-1.426 0.365-2.122 0.365-2.786 0-4.245-2.139-4.245-4.776 0-2.222 2.835-2.935 4.378-3.897 0.779-0.497 1.459-1.061 2.139-1.658 0.547-0.481 1.973-1.608 1.973-2.404v-4.776c0-1.177 0.945-2.122 2.122-2.122h10.612c1.177 0 2.122 0.945 2.122 2.122v4.776c0 1.045 0.614 2.686 0.978 3.698 0.614 1.691 1.144 3.432 1.144 5.256z"></path>
</svg>
