<?xml version="1.0" encoding="utf-8"?>
<!-- Generated by IcoMoon.io -->
<!DOCTYPE svg PUBLIC "-//W3C//DTD SVG 1.1//EN" "http://www.w3.org/Graphics/SVG/1.1/DTD/svg11.dtd">
<svg version="1.1" xmlns="http://www.w3.org/2000/svg" xmlns:xlink="http://www.w3.org/1999/xlink" width="32" height="32" viewBox="0 0 32 32">
<path d="M5.524 23.333c0-0.573-0.475-1.048-1.048-1.048s-1.048 0.475-1.048 1.048 0.475 1.048 1.048 1.048 1.048-0.475 1.048-1.048zM28.571 13.905c0-1.113-0.998-2.095-2.095-2.095h-9.429c0-1.031 1.571-2.095 1.571-4.19 0-1.571-1.228-2.095-2.619-2.095-0.458 0-1.293 1.899-1.473 2.275-0.196 0.36-0.393 0.72-0.606 1.064-0.54 0.868-1.162 1.621-1.833 2.373-1.048 1.195-2.21 2.668-3.945 2.668h-0.524v10.476h0.524c2.865 0 5.664 2.095 8.839 2.095 1.833 0 3.094-0.769 3.094-2.734 0-0.311-0.033-0.622-0.082-0.917 0.688-0.377 1.064-1.309 1.064-2.063 0-0.393-0.098-0.786-0.295-1.129 0.557-0.524 0.868-1.179 0.868-1.948 0-0.524-0.229-1.293-0.573-1.686h5.418c1.129 0 2.095-0.966 2.095-2.095zM30.667 13.888c0 2.292-1.899 4.207-4.19 4.207h-2.766c-0.049 0.688-0.262 1.342-0.606 1.948 0.033 0.229 0.049 0.475 0.049 0.704 0 1.048-0.344 2.095-0.982 2.914 0.033 3.094-2.079 4.911-5.107 4.911-1.833 0-3.568-0.507-5.271-1.129-0.998-0.36-2.619-0.966-3.65-0.966h-4.714c-1.162 0-2.095-0.933-2.095-2.095v-10.476c0-1.162 0.933-2.095 2.095-2.095h4.714c0.786 0 1.899-1.408 2.373-1.948 0.589-0.671 1.146-1.342 1.637-2.112 0.949-1.522 1.653-4.321 3.847-4.321 2.603 0 4.714 1.424 4.714 4.19 0 0.72-0.115 1.424-0.36 2.095h6.122c2.259 0 4.19 1.915 4.19 4.174z"></path>
</svg>
