<?xml version="1.0" encoding="utf-8"?>
<!-- Generated by IcoMoon.io -->
<!DOCTYPE svg PUBLIC "-//W3C//DTD SVG 1.1//EN" "http://www.w3.org/Graphics/SVG/1.1/DTD/svg11.dtd">
<svg version="1.1" xmlns="http://www.w3.org/2000/svg" xmlns:xlink="http://www.w3.org/1999/xlink" width="32" height="32" viewBox="0 0 32 32">
<path d="M17.616 18.177l1.089-4.354h-4.32l-1.089 4.354h4.32zM30.679 9.605l-0.953 3.81c-0.068 0.238-0.272 0.408-0.527 0.408h-5.562l-1.089 4.354h5.29c0.17 0 0.323 0.085 0.425 0.204 0.102 0.136 0.153 0.306 0.102 0.476l-0.953 3.81c-0.051 0.238-0.272 0.408-0.527 0.408h-5.562l-1.378 5.579c-0.068 0.238-0.289 0.408-0.527 0.408h-3.81c-0.17 0-0.34-0.085-0.442-0.204-0.102-0.136-0.136-0.306-0.102-0.476l1.327-5.307h-4.32l-1.378 5.579c-0.068 0.238-0.289 0.408-0.527 0.408h-3.827c-0.153 0-0.323-0.085-0.425-0.204-0.102-0.136-0.136-0.306-0.102-0.476l1.327-5.307h-5.29c-0.17 0-0.323-0.085-0.425-0.204-0.102-0.136-0.136-0.306-0.102-0.476l0.952-3.81c0.068-0.238 0.272-0.408 0.527-0.408h5.562l1.089-4.354h-5.29c-0.17 0-0.323-0.085-0.425-0.204-0.102-0.136-0.153-0.306-0.102-0.476l0.953-3.81c0.051-0.238 0.272-0.408 0.527-0.408h5.562l1.378-5.579c0.068-0.238 0.289-0.408 0.544-0.408h3.81c0.153 0 0.323 0.085 0.425 0.204 0.102 0.136 0.136 0.306 0.102 0.476l-1.327 5.307h4.32l1.378-5.579c0.068-0.238 0.289-0.408 0.544-0.408h3.81c0.153 0 0.323 0.085 0.425 0.204 0.102 0.136 0.136 0.306 0.102 0.476l-1.327 5.307h5.29c0.17 0 0.323 0.085 0.425 0.204 0.102 0.136 0.136 0.306 0.102 0.476z"></path>
</svg>
