<?xml version="1.0" encoding="utf-8"?>
<!-- Generated by IcoMoon.io -->
<!DOCTYPE svg PUBLIC "-//W3C//DTD SVG 1.1//EN" "http://www.w3.org/Graphics/SVG/1.1/DTD/svg11.dtd">
<svg version="1.1" xmlns="http://www.w3.org/2000/svg" xmlns:xlink="http://www.w3.org/1999/xlink" width="32" height="32" viewBox="0 0 32 32">
<path d="M21.181 22.095c0 0.838-0.686 1.524-1.524 1.524s-1.524-0.686-1.524-1.524 0.686-1.524 1.524-1.524 1.524 0.686 1.524 1.524zM26.057 22.095c0 0.838-0.686 1.524-1.524 1.524s-1.524-0.686-1.524-1.524 0.686-1.524 1.524-1.524 1.524 0.686 1.524 1.524zM28.19 25.143v-6.095c0-0.324-0.286-0.61-0.61-0.61h-23.162c-0.324 0-0.61 0.286-0.61 0.61v6.095c0 0.324 0.286 0.61 0.61 0.61h23.162c0.324 0 0.61-0.286 0.61-0.61zM4.762 16h22.476l-2.99-9.181c-0.095-0.324-0.457-0.571-0.8-0.571h-14.895c-0.343 0-0.705 0.248-0.8 0.571zM30.629 19.048v6.095c0 1.676-1.371 3.048-3.048 3.048h-23.162c-1.676 0-3.048-1.371-3.048-3.048v-6.095c0-0.514 0.152-0.952 0.305-1.429l3.752-11.543c0.438-1.333 1.714-2.267 3.124-2.267h14.895c1.41 0 2.686 0.933 3.124 2.267l3.752 11.543c0.152 0.476 0.305 0.914 0.305 1.429z"></path>
</svg>
