<?xml version="1.0" encoding="utf-8"?>
<!-- Generated by IcoMoon.io -->
<!DOCTYPE svg PUBLIC "-//W3C//DTD SVG 1.1//EN" "http://www.w3.org/Graphics/SVG/1.1/DTD/svg11.dtd">
<svg version="1.1" xmlns="http://www.w3.org/2000/svg" xmlns:xlink="http://www.w3.org/1999/xlink" width="32" height="32" viewBox="0 0 32 32">
<path d="M29.909 29.591c-1.557 0-3.132-0.124-4.707-0.124-1.557 0-3.115 0.124-4.672 0.124-0.602 0-0.885-0.655-0.885-1.168 0-1.575 1.77-0.903 2.69-1.504 0.584-0.372 0.584-1.858 0.584-2.477l-0.018-6.919c0-0.195 0-0.372-0.018-0.549-0.283-0.088-0.602-0.071-0.885-0.071h-11.945c-0.301 0-0.619-0.018-0.903 0.071-0.018 0.177-0.018 0.354-0.018 0.549l-0.018 6.565c0 0.672 0 2.513 0.655 2.902 0.92 0.566 3.008-0.23 3.008 1.363 0 0.531-0.248 1.239-0.867 1.239-1.646 0-3.292-0.124-4.92-0.124-1.504 0-3.008 0.124-4.513 0.124-0.584 0-0.849-0.672-0.849-1.168 0-1.54 1.628-0.903 2.495-1.504 0.566-0.389 0.584-1.911 0.584-2.531l-0.018-1.009v-14.387c0-0.849 0.124-3.575-0.672-4.053-0.885-0.549-2.778 0.301-2.778-1.292 0-0.513 0.23-1.239 0.849-1.239 1.628 0 3.274 0.124 4.902 0.124 1.486 0 2.991-0.124 4.477-0.124 0.637 0 0.885 0.708 0.885 1.239 0 1.522-1.752 0.779-2.619 1.327-0.619 0.372-0.619 2.194-0.619 2.831l0.018 5.663c0 0.195 0 0.372 0.018 0.566 0.23 0.053 0.46 0.053 0.69 0.053h12.37c0.212 0 0.442 0 0.672-0.053 0.018-0.195 0.018-0.372 0.018-0.566l0.018-5.663c0-0.655 0-2.46-0.619-2.831-0.885-0.531-2.654 0.177-2.654-1.327 0-0.531 0.248-1.239 0.885-1.239 1.557 0 3.115 0.124 4.672 0.124 1.522 0 3.044-0.124 4.566-0.124 0.637 0 0.885 0.708 0.885 1.239 0 1.54-1.823 0.761-2.708 1.31-0.602 0.389-0.619 2.212-0.619 2.849l0.018 16.688c0 0.584 0.035 2.124 0.602 2.477 0.903 0.566 2.814-0.159 2.814 1.38 0 0.513-0.23 1.239-0.849 1.239z"></path>
</svg>
