<?xml version="1.0" encoding="utf-8"?>
<!-- Generated by IcoMoon.io -->
<!DOCTYPE svg PUBLIC "-//W3C//DTD SVG 1.1//EN" "http://www.w3.org/Graphics/SVG/1.1/DTD/svg11.dtd">
<svg version="1.1" xmlns="http://www.w3.org/2000/svg" xmlns:xlink="http://www.w3.org/1999/xlink" width="32" height="32" viewBox="0 0 32 32">
<path d="M30.649 16.951c0 1.919-0.352 3.786-1.056 5.529l-0.352 0.863-3.257 0.581c-0.511 1.919-2.254 3.345-4.349 3.345v0.563c0 0.317-0.247 0.563-0.563 0.563h-1.127c-0.317 0-0.563-0.247-0.563-0.563v-10.142c0-0.317 0.247-0.563 0.563-0.563h1.127c0.317 0 0.563 0.247 0.563 0.563v0.563c1.69 0 3.152 0.933 3.926 2.307l1.197-0.211c0.335-1.092 0.511-2.219 0.511-3.398 0-5.317-5.265-9.966-11.269-9.966s-11.269 4.648-11.269 9.966c0 1.18 0.176 2.307 0.511 3.398l1.197 0.211c0.775-1.373 2.236-2.307 3.926-2.307v-0.563c0-0.317 0.246-0.563 0.563-0.563h1.127c0.317 0 0.563 0.247 0.563 0.563v10.142c0 0.317-0.246 0.563-0.563 0.563h-1.127c-0.317 0-0.563-0.247-0.563-0.563v-0.563c-2.095 0-3.838-1.426-4.349-3.345l-3.257-0.581-0.352-0.863c-0.704-1.743-1.056-3.61-1.056-5.529 0-7.237 6.708-13.346 14.649-13.346s14.649 6.11 14.649 13.346z"></path>
</svg>
