<?xml version="1.0" encoding="utf-8"?>
<!-- Generated by IcoMoon.io -->
<!DOCTYPE svg PUBLIC "-//W3C//DTD SVG 1.1//EN" "http://www.w3.org/Graphics/SVG/1.1/DTD/svg11.dtd">
<svg version="1.1" xmlns="http://www.w3.org/2000/svg" xmlns:xlink="http://www.w3.org/1999/xlink" width="32" height="32" viewBox="0 0 32 32">
<path d="M22.286 18.095h4.993c-0.196 0.213-0.327 0.327-0.36 0.36l-10.198 9.821c-0.196 0.196-0.458 0.295-0.72 0.295s-0.524-0.098-0.72-0.295l-10.214-9.854c-0.033-0.016-0.164-0.131-0.344-0.327h6.040c0.475 0 0.9-0.327 1.015-0.786l1.146-4.6 3.11 10.918c0.131 0.442 0.54 0.753 1.015 0.753v0c0.458 0 0.868-0.311 0.998-0.753l2.39-7.939 0.917 1.833c0.18 0.344 0.54 0.573 0.933 0.573zM30.667 11.089c0 1.882-0.818 3.601-1.686 4.911h-6.040l-1.817-3.618c-0.18-0.377-0.606-0.606-1.015-0.573-0.442 0.049-0.802 0.327-0.917 0.753l-2.112 7.039-3.208-11.229c-0.131-0.442-0.54-0.753-1.031-0.753-0.475 0-0.884 0.327-0.998 0.786l-1.899 7.595h-6.924c-0.868-1.31-1.686-3.028-1.686-4.911 0-4.796 2.93-7.661 7.824-7.661 2.865 0 5.549 2.259 6.842 3.536 1.293-1.277 3.978-3.536 6.842-3.536 4.894 0 7.824 2.865 7.824 7.661z"></path>
</svg>
