<?xml version="1.0" encoding="utf-8"?>
<!-- Generated by IcoMoon.io -->
<!DOCTYPE svg PUBLIC "-//W3C//DTD SVG 1.1//EN" "http://www.w3.org/Graphics/SVG/1.1/DTD/svg11.dtd">
<svg version="1.1" xmlns="http://www.w3.org/2000/svg" xmlns:xlink="http://www.w3.org/1999/xlink" width="32" height="32" viewBox="0 0 32 32">
<path d="M28.571 11.089c0-4.6-3.11-5.566-5.729-5.566-2.439 0-5.189 2.635-6.040 3.65-0.393 0.475-1.211 0.475-1.604 0-0.851-1.015-3.601-3.65-6.040-3.65-2.619 0-5.729 0.966-5.729 5.566 0 2.996 3.028 5.778 3.061 5.811l9.51 9.167 9.494-9.15c0.049-0.049 3.077-2.832 3.077-5.827zM30.667 11.089c0 3.929-3.601 7.219-3.748 7.366l-10.198 9.821c-0.196 0.196-0.458 0.295-0.72 0.295s-0.524-0.098-0.72-0.295l-10.214-9.854c-0.131-0.115-3.732-3.405-3.732-7.333 0-4.796 2.93-7.661 7.824-7.661 2.865 0 5.549 2.259 6.842 3.536 1.293-1.277 3.978-3.536 6.842-3.536 4.894 0 7.824 2.865 7.824 7.661z"></path>
</svg>
