<?xml version="1.0" encoding="utf-8"?>
<!-- Generated by IcoMoon.io -->
<!DOCTYPE svg PUBLIC "-//W3C//DTD SVG 1.1//EN" "http://www.w3.org/Graphics/SVG/1.1/DTD/svg11.dtd">
<svg version="1.1" xmlns="http://www.w3.org/2000/svg" xmlns:xlink="http://www.w3.org/1999/xlink" width="32" height="32" viewBox="0 0 32 32">
<path d="M26.359 17.834v8.632c0 0.629-0.521 1.151-1.151 1.151h-6.906v-6.906h-4.604v6.906h-6.906c-0.629 0-1.151-0.521-1.151-1.151v-8.632c0-0.036 0.018-0.072 0.018-0.108l10.341-8.524 10.341 8.524c0.018 0.036 0.018 0.072 0.018 0.108zM30.369 16.593l-1.115 1.331c-0.090 0.108-0.234 0.18-0.378 0.198h-0.054c-0.144 0-0.27-0.036-0.378-0.126l-12.445-10.377-12.445 10.377c-0.126 0.090-0.27 0.144-0.432 0.126-0.144-0.018-0.288-0.090-0.378-0.198l-1.115-1.331c-0.198-0.234-0.162-0.611 0.072-0.809l12.93-10.772c0.755-0.629 1.978-0.629 2.734 0l4.388 3.669v-3.507c0-0.324 0.252-0.575 0.575-0.575h3.453c0.324 0 0.575 0.252 0.575 0.575v7.337l3.939 3.273c0.234 0.198 0.27 0.575 0.072 0.809z"></path>
</svg>
