<?xml version="1.0" encoding="utf-8"?>
<!-- Generated by IcoMoon.io -->
<!DOCTYPE svg PUBLIC "-//W3C//DTD SVG 1.1//EN" "http://www.w3.org/Graphics/SVG/1.1/DTD/svg11.dtd">
<svg version="1.1" xmlns="http://www.w3.org/2000/svg" xmlns:xlink="http://www.w3.org/1999/xlink" width="32" height="32" viewBox="0 0 32 32">
<path d="M10.694 22.898v1.061c0 0.282-0.249 0.531-0.531 0.531h-1.061c-0.282 0-0.531-0.249-0.531-0.531v-1.061c0-0.282 0.249-0.531 0.531-0.531h1.061c0.282 0 0.531 0.249 0.531 0.531zM10.694 18.653v1.061c0 0.282-0.249 0.531-0.531 0.531h-1.061c-0.282 0-0.531-0.249-0.531-0.531v-1.061c0-0.282 0.249-0.531 0.531-0.531h1.061c0.282 0 0.531 0.249 0.531 0.531zM14.939 18.653v1.061c0 0.282-0.249 0.531-0.531 0.531h-1.061c-0.282 0-0.531-0.249-0.531-0.531v-1.061c0-0.282 0.249-0.531 0.531-0.531h1.061c0.282 0 0.531 0.249 0.531 0.531zM10.694 14.408v1.061c0 0.282-0.249 0.531-0.531 0.531h-1.061c-0.282 0-0.531-0.249-0.531-0.531v-1.061c0-0.282 0.249-0.531 0.531-0.531h1.061c0.282 0 0.531 0.249 0.531 0.531zM23.429 22.898v1.061c0 0.282-0.249 0.531-0.531 0.531h-1.061c-0.282 0-0.531-0.249-0.531-0.531v-1.061c0-0.282 0.249-0.531 0.531-0.531h1.061c0.282 0 0.531 0.249 0.531 0.531zM19.184 18.653v1.061c0 0.282-0.249 0.531-0.531 0.531h-1.061c-0.282 0-0.531-0.249-0.531-0.531v-1.061c0-0.282 0.249-0.531 0.531-0.531h1.061c0.282 0 0.531 0.249 0.531 0.531zM14.939 14.408v1.061c0 0.282-0.249 0.531-0.531 0.531h-1.061c-0.282 0-0.531-0.249-0.531-0.531v-1.061c0-0.282 0.249-0.531 0.531-0.531h1.061c0.282 0 0.531 0.249 0.531 0.531zM23.429 18.653v1.061c0 0.282-0.249 0.531-0.531 0.531h-1.061c-0.282 0-0.531-0.249-0.531-0.531v-1.061c0-0.282 0.249-0.531 0.531-0.531h1.061c0.282 0 0.531 0.249 0.531 0.531zM19.184 14.408v1.061c0 0.282-0.249 0.531-0.531 0.531h-1.061c-0.282 0-0.531-0.249-0.531-0.531v-1.061c0-0.282 0.249-0.531 0.531-0.531h1.061c0.282 0 0.531 0.249 0.531 0.531zM23.429 14.408v1.061c0 0.282-0.249 0.531-0.531 0.531h-1.061c-0.282 0-0.531-0.249-0.531-0.531v-1.061c0-0.282 0.249-0.531 0.531-0.531h1.061c0.282 0 0.531 0.249 0.531 0.531zM19.184 28.735h6.367v-19.102h-4.245v0.531c0 0.879-0.713 1.592-1.592 1.592h-7.429c-0.879 0-1.592-0.713-1.592-1.592v-0.531h-4.245v19.102h6.367v-3.714c0-0.282 0.249-0.531 0.531-0.531h5.306c0.282 0 0.531 0.249 0.531 0.531v3.714zM19.184 9.102v-5.306c0-0.282-0.249-0.531-0.531-0.531h-1.061c-0.282 0-0.531 0.249-0.531 0.531v1.592h-2.122v-1.592c0-0.282-0.249-0.531-0.531-0.531h-1.061c-0.282 0-0.531 0.249-0.531 0.531v5.306c0 0.282 0.249 0.531 0.531 0.531h1.061c0.282 0 0.531-0.249 0.531-0.531v-1.592h2.122v1.592c0 0.282 0.249 0.531 0.531 0.531h1.061c0.282 0 0.531-0.249 0.531-0.531zM27.673 8.571v21.225c0 0.58-0.481 1.061-1.061 1.061h-21.225c-0.58 0-1.061-0.481-1.061-1.061v-21.225c0-0.58 0.481-1.061 1.061-1.061h5.306v-4.776c0-0.879 0.713-1.592 1.592-1.592h7.429c0.879 0 1.592 0.713 1.592 1.592v4.776h5.306c0.58 0 1.061 0.481 1.061 1.061z"></path>
</svg>
