<?xml version="1.0" encoding="utf-8"?>
<!-- Generated by IcoMoon.io -->
<!DOCTYPE svg PUBLIC "-//W3C//DTD SVG 1.1//EN" "http://www.w3.org/Graphics/SVG/1.1/DTD/svg11.dtd">
<svg version="1.1" xmlns="http://www.w3.org/2000/svg" xmlns:xlink="http://www.w3.org/1999/xlink" width="32" height="32" viewBox="0 0 32 32">
<path d="M26.612 3.265c0 6.135-2.935 10.579-6.185 12.735 3.25 2.156 6.185 6.599 6.185 12.735h1.592c0.298 0 0.531 0.232 0.531 0.531v1.061c0 0.298-0.232 0.531-0.531 0.531h-24.408c-0.298 0-0.531-0.232-0.531-0.531v-1.061c0-0.298 0.232-0.531 0.531-0.531h1.592c0-6.135 2.935-10.579 6.185-12.735-3.25-2.156-6.185-6.599-6.185-12.735h-1.592c-0.298 0-0.531-0.232-0.531-0.531v-1.061c0-0.298 0.232-0.531 0.531-0.531h24.408c0.298 0 0.531 0.232 0.531 0.531v1.061c0 0.298-0.232 0.531-0.531 0.531h-1.592zM17.758 15.005c3.349-1.26 6.732-5.688 6.732-11.74h-16.98c0 6.052 3.383 10.48 6.732 11.74 0.415 0.149 0.696 0.547 0.696 0.995s-0.282 0.846-0.696 0.995c-1.426 0.531-2.869 1.658-4.046 3.25h11.607c-1.177-1.592-2.62-2.719-4.046-3.25-0.415-0.149-0.696-0.547-0.696-0.995s0.282-0.846 0.696-0.995z"></path>
</svg>
