<?xml version="1.0" encoding="utf-8"?>
<!-- Generated by IcoMoon.io -->
<!DOCTYPE svg PUBLIC "-//W3C//DTD SVG 1.1//EN" "http://www.w3.org/Graphics/SVG/1.1/DTD/svg11.dtd">
<svg version="1.1" xmlns="http://www.w3.org/2000/svg" xmlns:xlink="http://www.w3.org/1999/xlink" width="32" height="32" viewBox="0 0 32 32">
<path d="M26.612 3.265c0 6.135-2.935 10.579-6.185 12.735 3.25 2.156 6.185 6.599 6.185 12.735h1.592c0.298 0 0.531 0.232 0.531 0.531v1.061c0 0.298-0.232 0.531-0.531 0.531h-24.408c-0.298 0-0.531-0.232-0.531-0.531v-1.061c0-0.298 0.232-0.531 0.531-0.531h1.592c0-6.135 2.935-10.579 6.185-12.735-3.25-2.156-6.185-6.599-6.185-12.735h-1.592c-0.298 0-0.531-0.232-0.531-0.531v-1.061c0-0.298 0.232-0.531 0.531-0.531h24.408c0.298 0 0.531 0.232 0.531 0.531v1.061c0 0.298-0.232 0.531-0.531 0.531h-1.592zM24.49 3.265h-16.98c0 2.421 0.547 4.56 1.409 6.367h14.161c0.862-1.807 1.409-3.946 1.409-6.367zM23.545 23.429c-1.227-3.2-3.432-5.472-5.638-6.367h-3.814c-2.205 0.895-4.411 3.167-5.638 6.367h15.089z"></path>
</svg>
