<?xml version="1.0" encoding="utf-8"?>
<!-- Generated by IcoMoon.io -->
<!DOCTYPE svg PUBLIC "-//W3C//DTD SVG 1.1//EN" "http://www.w3.org/Graphics/SVG/1.1/DTD/svg11.dtd">
<svg version="1.1" xmlns="http://www.w3.org/2000/svg" xmlns:xlink="http://www.w3.org/1999/xlink" width="32" height="32" viewBox="0 0 32 32">
<path d="M28.204 27.673c0.298 0 0.531 0.232 0.531 0.531v2.122c0 0.298-0.232 0.531-0.531 0.531h-24.408c-0.298 0-0.531-0.232-0.531-0.531v-2.122c0-0.298 0.232-0.531 0.531-0.531h24.408zM5.421 26.612c0.315-5.588 4.875-8.589 7.926-10.612-3.051-2.023-7.611-5.024-7.926-10.612h21.158c-0.315 5.588-4.875 8.589-7.926 10.612 3.051 2.023 7.611 5.024 7.926 10.612h-21.158zM28.204 1.143c0.298 0 0.531 0.232 0.531 0.531v2.122c0 0.298-0.232 0.531-0.531 0.531h-24.408c-0.298 0-0.531-0.232-0.531-0.531v-2.122c0-0.298 0.232-0.531 0.531-0.531h24.408z"></path>
</svg>
