<?xml version="1.0" encoding="utf-8"?>
<!-- Generated by IcoMoon.io -->
<!DOCTYPE svg PUBLIC "-//W3C//DTD SVG 1.1//EN" "http://www.w3.org/Graphics/SVG/1.1/DTD/svg11.dtd">
<svg version="1.1" xmlns="http://www.w3.org/2000/svg" xmlns:xlink="http://www.w3.org/1999/xlink" width="33" height="32" viewBox="0 0 33 32">
<path d="M22.701 11.61v10.468c0 0.38-0.295 0.675-0.675 0.675h-3.377c-0.38 0-0.675-0.295-0.675-0.675v-10.468c0-3.166-2.575-5.74-5.74-5.74h-5.74v24.312c0 0.38-0.295 0.675-0.675 0.675h-3.377c-0.38 0-0.675-0.295-0.675-0.675v-28.364c0-0.38 0.295-0.675 0.675-0.675h9.792c5.782 0 10.468 4.685 10.468 10.468zM30.805 1.818v18.571c0 5.782-4.685 10.468-10.468 10.468h-9.792c-0.38 0-0.675-0.295-0.675-0.675v-20.26c0-0.38 0.295-0.675 0.675-0.675h3.377c0.38 0 0.675 0.295 0.675 0.675v16.208h5.74c3.166 0 5.74-2.575 5.74-5.74v-18.571c0-0.38 0.295-0.675 0.675-0.675h3.377c0.38 0 0.675 0.295 0.675 0.675z"></path>
</svg>
