<?xml version="1.0" encoding="utf-8"?>
<!-- Generated by IcoMoon.io -->
<!DOCTYPE svg PUBLIC "-//W3C//DTD SVG 1.1//EN" "http://www.w3.org/Graphics/SVG/1.1/DTD/svg11.dtd">
<svg version="1.1" xmlns="http://www.w3.org/2000/svg" xmlns:xlink="http://www.w3.org/1999/xlink" width="32" height="32" viewBox="0 0 32 32">
<path d="M11.143 11.143c0 1.609-1.305 2.914-2.914 2.914s-2.914-1.305-2.914-2.914 1.305-2.914 2.914-2.914 2.914 1.305 2.914 2.914zM26.686 16.971v6.8h-21.371v-2.914l4.857-4.857 2.429 2.429 7.771-7.771zM28.143 6.286h-24.286c-0.258 0-0.486 0.228-0.486 0.486v18.457c0 0.258 0.228 0.486 0.486 0.486h24.286c0.258 0 0.486-0.228 0.486-0.486v-18.457c0-0.258-0.228-0.486-0.486-0.486zM30.571 6.771v18.457c0 1.336-1.093 2.429-2.429 2.429h-24.286c-1.336 0-2.429-1.093-2.429-2.429v-18.457c0-1.336 1.093-2.429 2.429-2.429h24.286c1.336 0 2.429 1.093 2.429 2.429z"></path>
</svg>
