<?xml version="1.0" encoding="utf-8"?>
<!-- Generated by IcoMoon.io -->
<!DOCTYPE svg PUBLIC "-//W3C//DTD SVG 1.1//EN" "http://www.w3.org/Graphics/SVG/1.1/DTD/svg11.dtd">
<svg version="1.1" xmlns="http://www.w3.org/2000/svg" xmlns:xlink="http://www.w3.org/1999/xlink" width="32" height="32" viewBox="0 0 32 32">
<path d="M18.979 14.085v3.521c0 0.696 0.135 1.335-0.735 1.315v-5.978c0.851 0 0.735 0.445 0.735 1.141zM25.092 15.942v2.341c0 0.387 0.116 1.025-0.445 1.025-0.116 0-0.213-0.058-0.271-0.174-0.155-0.368-0.077-3.153-0.077-3.192 0-0.271-0.077-0.909 0.348-0.909 0.522 0 0.445 0.522 0.445 0.909zM4.625 20.507h2.36v-9.131h-2.36v9.131zM13.021 20.507h2.051v-9.131h-3.076l-0.542 4.275c-0.193-1.432-0.387-2.863-0.619-4.275h-3.057v9.131h2.070v-6.036l0.871 6.036h1.47l0.832-6.171v6.171zM21.243 14.607c0-0.58 0.019-1.199-0.097-1.741-0.31-1.606-2.244-1.49-3.502-1.49h-1.76v9.131c6.152 0 5.359 0.426 5.359-5.9zM27.375 18.418v-2.573c0-1.238-0.058-2.147-1.586-2.147-0.638 0-1.064 0.193-1.49 0.658v-2.979h-2.263v9.131h2.128l0.135-0.58c0.406 0.484 0.851 0.696 1.49 0.696 1.412 0 1.586-1.083 1.586-2.205zM30.857 4.238v23.524c0 1.702-1.393 3.095-3.095 3.095h-23.524c-1.702 0-3.095-1.393-3.095-3.095v-23.524c0-1.702 1.393-3.095 3.095-3.095h23.524c1.702 0 3.095 1.393 3.095 3.095z"></path>
</svg>
