<?xml version="1.0" encoding="utf-8"?>
<!-- Generated by IcoMoon.io -->
<!DOCTYPE svg PUBLIC "-//W3C//DTD SVG 1.1//EN" "http://www.w3.org/Graphics/SVG/1.1/DTD/svg11.dtd">
<svg version="1.1" xmlns="http://www.w3.org/2000/svg" xmlns:xlink="http://www.w3.org/1999/xlink" width="32" height="32" viewBox="0 0 32 32">
<path d="M20.857 17.219h6.019c-0.038-0.095-0.057-0.21-0.095-0.305l-4.038-9.448h-13.486l-4.038 9.448c-0.038 0.095-0.057 0.21-0.095 0.305h6.019l1.81 3.657h6.095zM30.628 17.791v9.181c0 0.667-0.552 1.219-1.219 1.219h-26.819c-0.667 0-1.219-0.552-1.219-1.219v-9.181c0-0.686 0.21-1.695 0.476-2.343l4.533-10.514c0.267-0.629 1.029-1.124 1.695-1.124h15.848c0.667 0 1.429 0.495 1.695 1.124l4.533 10.514c0.267 0.648 0.476 1.657 0.476 2.343z"></path>
</svg>
