<?xml version="1.0" encoding="utf-8"?>
<!-- Generated by IcoMoon.io -->
<!DOCTYPE svg PUBLIC "-//W3C//DTD SVG 1.1//EN" "http://www.w3.org/Graphics/SVG/1.1/DTD/svg11.dtd">
<svg version="1.1" xmlns="http://www.w3.org/2000/svg" xmlns:xlink="http://www.w3.org/1999/xlink" width="32" height="32" viewBox="0 0 32 32">
<path d="M7.169 16c0 0.13-0.049 0.276-0.146 0.373l-4.675 4.675c-0.097 0.097-0.244 0.146-0.373 0.146-0.276 0-0.52-0.244-0.52-0.52v-9.351c0-0.276 0.244-0.52 0.519-0.52 0.13 0 0.276 0.049 0.373 0.146l4.675 4.675c0.097 0.097 0.146 0.243 0.146 0.373zM30.545 23.792v3.117c0 0.276-0.244 0.52-0.52 0.52h-28.052c-0.276 0-0.519-0.244-0.519-0.52v-3.117c0-0.276 0.244-0.52 0.519-0.52h28.052c0.276 0 0.52 0.244 0.52 0.52zM30.545 17.558v3.117c0 0.276-0.244 0.52-0.52 0.52h-17.662c-0.276 0-0.52-0.244-0.52-0.52v-3.117c0-0.276 0.243-0.52 0.52-0.52h17.662c0.276 0 0.52 0.244 0.52 0.52zM30.545 11.325v3.117c0 0.276-0.244 0.52-0.52 0.52h-17.662c-0.276 0-0.52-0.243-0.52-0.52v-3.117c0-0.276 0.243-0.52 0.52-0.52h17.662c0.276 0 0.52 0.243 0.52 0.52zM30.545 5.091v3.117c0 0.276-0.244 0.52-0.52 0.52h-28.052c-0.276 0-0.519-0.243-0.519-0.52v-3.117c0-0.276 0.244-0.519 0.519-0.519h28.052c0.276 0 0.52 0.244 0.52 0.519z"></path>
</svg>
