<?xml version="1.0" encoding="utf-8"?>
<!-- Generated by IcoMoon.io -->
<!DOCTYPE svg PUBLIC "-//W3C//DTD SVG 1.1//EN" "http://www.w3.org/Graphics/SVG/1.1/DTD/svg11.dtd">
<svg version="1.1" xmlns="http://www.w3.org/2000/svg" xmlns:xlink="http://www.w3.org/1999/xlink" width="32" height="32" viewBox="0 0 32 32">
<path d="M8.571 1.143c0.58 0 1.061 0.481 1.061 1.061v14.774l8.888-7.114c0.182-0.149 0.431-0.232 0.663-0.232 0.58 0 1.061 0.481 1.061 1.061v6.284l8.888-7.114c0.182-0.149 0.431-0.232 0.663-0.232 0.58 0 1.061 0.481 1.061 1.061v19.102c0 0.58-0.481 1.061-1.061 1.061h-27.592c-0.58 0-1.061-0.481-1.061-1.061v-27.592c0-0.58 0.481-1.061 1.061-1.061h6.367z"></path>
</svg>
