<?xml version="1.0" encoding="utf-8"?>
<!-- Generated by IcoMoon.io -->
<!DOCTYPE svg PUBLIC "-//W3C//DTD SVG 1.1//EN" "http://www.w3.org/Graphics/SVG/1.1/DTD/svg11.dtd">
<svg version="1.1" xmlns="http://www.w3.org/2000/svg" xmlns:xlink="http://www.w3.org/1999/xlink" width="32" height="32" viewBox="0 0 32 32">
<path d="M20.952 25.286v-3.095c0-0.348-0.271-0.619-0.619-0.619h-1.857v-9.905c0-0.348-0.271-0.619-0.619-0.619h-6.19c-0.348 0-0.619 0.271-0.619 0.619v3.095c0 0.348 0.271 0.619 0.619 0.619h1.857v6.19h-1.857c-0.348 0-0.619 0.271-0.619 0.619v3.095c0 0.348 0.271 0.619 0.619 0.619h8.667c0.348 0 0.619-0.271 0.619-0.619zM18.476 7.952v-3.095c0-0.348-0.271-0.619-0.619-0.619h-3.714c-0.348 0-0.619 0.271-0.619 0.619v3.095c0 0.348 0.271 0.619 0.619 0.619h3.714c0.348 0 0.619-0.271 0.619-0.619zM30.857 16c0 8.202-6.655 14.857-14.857 14.857s-14.857-6.655-14.857-14.857 6.655-14.857 14.857-14.857 14.857 6.655 14.857 14.857z"></path>
</svg>
