<?xml version="1.0" encoding="utf-8"?>
<!-- Generated by IcoMoon.io -->
<!DOCTYPE svg PUBLIC "-//W3C//DTD SVG 1.1//EN" "http://www.w3.org/Graphics/SVG/1.1/DTD/svg11.dtd">
<svg version="1.1" xmlns="http://www.w3.org/2000/svg" xmlns:xlink="http://www.w3.org/1999/xlink" width="32" height="32" viewBox="0 0 32 32">
<path d="M22.753 26.805v2.701c0 0.739-0.612 1.351-1.351 1.351h-10.805c-0.739 0-1.351-0.612-1.351-1.351v-2.701c0-0.739 0.612-1.351 1.351-1.351h1.351v-8.104h-1.351c-0.739 0-1.351-0.612-1.351-1.351v-2.701c0-0.739 0.612-1.351 1.351-1.351h8.104c0.739 0 1.351 0.612 1.351 1.351v12.156h1.351c0.739 0 1.351 0.612 1.351 1.351zM20.052 2.493v4.052c0 0.739-0.612 1.351-1.351 1.351h-5.403c-0.739 0-1.351-0.612-1.351-1.351v-4.052c0-0.739 0.612-1.351 1.351-1.351h5.403c0.739 0 1.351 0.612 1.351 1.351z"></path>
</svg>
