<?xml version="1.0" encoding="utf-8"?>
<!-- Generated by IcoMoon.io -->
<!DOCTYPE svg PUBLIC "-//W3C//DTD SVG 1.1//EN" "http://www.w3.org/Graphics/SVG/1.1/DTD/svg11.dtd">
<svg version="1.1" xmlns="http://www.w3.org/2000/svg" xmlns:xlink="http://www.w3.org/1999/xlink" width="32" height="32" viewBox="0 0 32 32">
<path d="M25.494 8.36v2.153c0 0.38-0.295 0.675-0.675 0.675h-3.545c-0.654 4.052-3.756 6.69-8.547 7.26 3.144 3.355 6.5 7.407 9.687 11.312 0.169 0.19 0.211 0.485 0.084 0.718-0.105 0.232-0.338 0.38-0.612 0.38h-4.115c-0.211 0-0.401-0.084-0.528-0.253-3.398-4.073-6.521-7.808-10.51-12.050-0.127-0.127-0.19-0.295-0.19-0.464v-2.68c0-0.359 0.295-0.675 0.675-0.675h2.364c3.714 0 6.036-1.245 6.648-3.545h-9.011c-0.38 0-0.675-0.295-0.675-0.675v-2.153c0-0.38 0.295-0.675 0.675-0.675h8.716c-0.802-1.583-2.701-2.385-5.656-2.385h-3.060c-0.38 0-0.675-0.317-0.675-0.675v-2.807c0-0.38 0.295-0.675 0.675-0.675h17.558c0.38 0 0.675 0.295 0.675 0.675v2.153c0 0.38-0.295 0.675-0.675 0.675h-4.917c0.675 0.865 1.119 1.878 1.351 3.039h3.609c0.38 0 0.675 0.295 0.675 0.675z"></path>
</svg>
