<?xml version="1.0" encoding="utf-8"?>
<!-- Generated by IcoMoon.io -->
<!DOCTYPE svg PUBLIC "-//W3C//DTD SVG 1.1//EN" "http://www.w3.org/Graphics/SVG/1.1/DTD/svg11.dtd">
<svg version="1.1" xmlns="http://www.w3.org/2000/svg" xmlns:xlink="http://www.w3.org/1999/xlink" width="32" height="32" viewBox="0 0 32 32">
<path d="M20.946 16c0-2.724-2.222-4.946-4.946-4.946s-4.946 2.222-4.946 4.946 2.222 4.946 4.946 4.946 4.946-2.222 4.946-4.946zM23.612 16c0 4.212-3.4 7.612-7.612 7.612s-7.612-3.4-7.612-7.612 3.4-7.612 7.612-7.612 7.612 3.4 7.612 7.612zM25.699 8.079c0 0.985-0.792 1.777-1.777 1.777s-1.777-0.792-1.777-1.777 0.792-1.777 1.777-1.777 1.777 0.792 1.777 1.777zM16 3.828c-2.164 0-6.801-0.174-8.752 0.599-0.676 0.27-1.179 0.599-1.7 1.121s-0.85 1.024-1.121 1.7c-0.773 1.951-0.599 6.588-0.599 8.752s-0.174 6.801 0.599 8.752c0.27 0.676 0.599 1.179 1.121 1.7s1.024 0.85 1.7 1.121c1.951 0.773 6.588 0.599 8.752 0.599s6.801 0.174 8.752-0.599c0.676-0.27 1.179-0.599 1.7-1.121s0.85-1.024 1.121-1.7c0.773-1.951 0.599-6.588 0.599-8.752s0.174-6.801-0.599-8.752c-0.27-0.676-0.599-1.179-1.121-1.7s-1.024-0.85-1.7-1.121c-1.951-0.773-6.588-0.599-8.752-0.599zM30.838 16c0 2.048 0.019 4.076-0.097 6.124-0.116 2.376-0.657 4.482-2.396 6.221s-3.845 2.28-6.221 2.396c-2.048 0.116-4.076 0.097-6.124 0.097s-4.076 0.019-6.124-0.097c-2.376-0.116-4.482-0.657-6.221-2.396s-2.28-3.845-2.396-6.221c-0.116-2.048-0.097-4.076-0.097-6.124s-0.019-4.076 0.097-6.124c0.116-2.376 0.657-4.482 2.396-6.221s3.845-2.28 6.221-2.396c2.048-0.116 4.076-0.097 6.124-0.097s4.076-0.019 6.124 0.097c2.376 0.116 4.482 0.657 6.221 2.396s2.28 3.845 2.396 6.221c0.116 2.048 0.097 4.076 0.097 6.124z"></path>
</svg>
