<?xml version="1.0" encoding="utf-8"?>
<!-- Generated by IcoMoon.io -->
<!DOCTYPE svg PUBLIC "-//W3C//DTD SVG 1.1//EN" "http://www.w3.org/Graphics/SVG/1.1/DTD/svg11.dtd">
<svg version="1.1" xmlns="http://www.w3.org/2000/svg" xmlns:xlink="http://www.w3.org/1999/xlink" width="32" height="32" viewBox="0 0 32 32">
<path d="M30.836 16.679c0 0.58-0.033 1.159-0.116 1.722h-19.059c0 3.295 2.898 5.68 6.077 5.68 2.153 0 4.222-1.060 5.332-2.931h7.004c-1.888 5.315-6.938 8.875-12.568 8.875-2.037 0-4.073-0.48-5.895-1.374-1.855 0.944-4.454 1.921-6.524 1.921-2.782 0-3.924-1.706-3.924-4.355 0-1.54 0.331-3.080 0.745-4.554 0.265-0.96 1.325-2.914 1.805-3.792 2.037-3.693 4.719-7.236 7.865-10.034-2.533 1.093-5.282 3.842-7.070 5.862 1.391-6.060 6.789-10.349 12.998-10.349 0.248 0 0.497 0 0.745 0.017 2.053-0.944 4.918-1.937 7.17-1.937 2.682 0 4.984 1.027 4.984 4.057 0 1.59-0.613 3.312-1.242 4.736 1.093 1.97 1.672 4.206 1.672 6.458zM29.677 6.082c0-1.855-1.325-2.997-3.146-2.997-1.391 0-2.964 0.563-4.206 1.159 2.682 1.043 4.984 2.964 6.507 5.415 0.414-1.093 0.845-2.418 0.845-3.577zM3.283 26.564c0 1.921 1.143 2.964 3.030 2.964 1.474 0 3.113-0.662 4.405-1.374-2.699-1.59-4.785-4.123-5.812-7.087-0.762 1.59-1.623 3.709-1.623 5.497zM11.629 14.758h12.055c-0.116-3.196-2.931-5.497-6.027-5.497-3.113 0-5.911 2.302-6.027 5.497z"></path>
</svg>
