<?xml version="1.0" encoding="utf-8"?>
<!-- Generated by IcoMoon.io -->
<!DOCTYPE svg PUBLIC "-//W3C//DTD SVG 1.1//EN" "http://www.w3.org/Graphics/SVG/1.1/DTD/svg11.dtd">
<svg version="1.1" xmlns="http://www.w3.org/2000/svg" xmlns:xlink="http://www.w3.org/1999/xlink" width="32" height="32" viewBox="0 0 32 32">
<path d="M21.291 1.673c0-0.298 0.232-0.531 0.531-0.531h4.776c0.58 0 1.061 0.481 1.061 1.061v4.776c0 0.298-0.232 0.531-0.531 0.531h-1.061c-0.298 0-0.531-0.232-0.531-0.531v-2.222l-4.212 4.228c1.293 1.625 2.089 3.698 2.089 5.953 0 4.908-3.714 8.954-8.49 9.485v2.189h1.592c0.298 0 0.531 0.232 0.531 0.531v1.061c0 0.298-0.232 0.531-0.531 0.531h-1.592v1.592c0 0.298-0.232 0.531-0.531 0.531h-1.061c-0.298 0-0.531-0.232-0.531-0.531v-1.592h-1.592c-0.298 0-0.531-0.232-0.531-0.531v-1.061c0-0.298 0.232-0.531 0.531-0.531h1.592v-2.189c-5.008-0.547-8.871-5.008-8.457-10.247 0.348-4.51 3.93-8.208 8.407-8.722 2.686-0.315 5.173 0.514 7.064 2.023l4.228-4.212h-2.222c-0.298 0-0.531-0.232-0.531-0.531v-1.061zM13.862 22.367c4.096 0 7.429-3.333 7.429-7.429s-3.333-7.429-7.429-7.429-7.429 3.333-7.429 7.429 3.333 7.429 7.429 7.429z"></path>
</svg>
