<?xml version="1.0" encoding="utf-8"?>
<!-- Generated by IcoMoon.io -->
<!DOCTYPE svg PUBLIC "-//W3C//DTD SVG 1.1//EN" "http://www.w3.org/Graphics/SVG/1.1/DTD/svg11.dtd">
<svg version="1.1" xmlns="http://www.w3.org/2000/svg" xmlns:xlink="http://www.w3.org/1999/xlink" width="32" height="32" viewBox="0 0 32 32">
<path d="M22.25 16c0 0.669-0.541 1.224-1.224 1.224h-9.995c-0.683 0-1.224-0.555-1.224-1.224s0.541-1.224 1.224-1.224h9.995c0.683 0 1.224 0.555 1.224 1.224zM25.297 16c0-0.84-0.114-1.637-0.327-2.42h-13.982c-0.683 0-1.224-0.541-1.224-1.21 0-0.683 0.541-1.224 1.224-1.224h12.928c-1.637-2.662-4.57-4.428-7.902-4.428-5.126 0-9.297 4.158-9.297 9.283 0 0.84 0.114 1.637 0.327 2.42h13.982c0.683 0 1.224 0.541 1.224 1.21 0 0.683-0.541 1.224-1.224 1.224h-12.928c1.637 2.663 4.57 4.428 7.916 4.428 5.111 0 9.283-4.157 9.283-9.283zM30.58 12.369c0 0.669-0.541 1.21-1.224 1.21h-1.865c0.157 0.783 0.242 1.595 0.242 2.42 0 6.464-5.254 11.732-11.718 11.732-4.741 0-8.828-2.819-10.678-6.877h-2.691c-0.683 0-1.224-0.541-1.224-1.224 0-0.669 0.541-1.21 1.224-1.21h1.879c-0.157-0.783-0.242-1.595-0.242-2.42 0-6.464 5.254-11.732 11.732-11.732 4.727 0 8.813 2.819 10.664 6.877h2.677c0.683 0 1.224 0.541 1.224 1.224z"></path>
</svg>
