<?xml version="1.0" encoding="utf-8"?>
<!-- Generated by IcoMoon.io -->
<!DOCTYPE svg PUBLIC "-//W3C//DTD SVG 1.1//EN" "http://www.w3.org/Graphics/SVG/1.1/DTD/svg11.dtd">
<svg version="1.1" xmlns="http://www.w3.org/2000/svg" xmlns:xlink="http://www.w3.org/1999/xlink" width="32" height="32" viewBox="0 0 32 32">
<path d="M6.095 30.818l0.329-1.644c1.238-0.387 2.573-0.542 3.734-1.141 0.445-0.561 0.658-1.277 0.793-1.954 0.252-1.315 4.469-20.293 4.411-21.841v-0.484c-1.064-0.58-2.36-0.426-3.521-0.619l0.368-1.993c2.496 0.116 5.030 0.31 7.545 0.31 2.051 0 4.101-0.193 6.152-0.31-0.077 0.58-0.213 1.161-0.368 1.722-1.335 0.464-2.747 0.677-4.063 1.199-0.426 1.045-0.522 2.186-0.716 3.289-0.929 5.010-2.167 10.021-3.192 14.993-0.193 0.929-1.141 4.778-1.064 5.591l0.019 0.348c1.18 0.271 2.379 0.406 3.579 0.6-0.039 0.638-0.155 1.277-0.31 1.915-0.426 0-0.832 0.058-1.257 0.058-1.103 0-2.244-0.368-3.347-0.387-1.335-0.019-2.67-0.039-3.985-0.039-1.722 0-3.405 0.29-5.107 0.387z"></path>
</svg>
