<?xml version="1.0" encoding="utf-8"?>
<!-- Generated by IcoMoon.io -->
<!DOCTYPE svg PUBLIC "-//W3C//DTD SVG 1.1//EN" "http://www.w3.org/Graphics/SVG/1.1/DTD/svg11.dtd">
<svg version="1.1" xmlns="http://www.w3.org/2000/svg" xmlns:xlink="http://www.w3.org/1999/xlink" width="32" height="32" viewBox="0 0 32 32">
<path d="M21.842 19.424l-3.095 3.095-2.921 2.94-0.58 0.58c-1.702 1.683-4.082 2.263-6.248 1.722-0.406 1.78-1.993 3.095-3.888 3.095-2.186 0-3.966-1.78-3.966-3.985 0-1.877 1.296-3.463 3.057-3.869-0.561-2.186 0.019-4.585 1.722-6.287l0.232-0.232 2.921 2.94-0.213 0.213c-0.967 0.948-0.948 2.496 0 3.463 0.948 0.948 2.496 0.948 3.443 0l0.58-0.58 2.921-2.94 3.115-3.095zM15.246 6.231l0.232 0.232-2.94 2.94-0.232-0.232c-0.948-0.948-2.496-0.948-3.443 0s-0.948 2.515 0 3.463l6.597 6.597-2.921 2.94-3.115-3.095-2.921-2.94-0.58-0.58c-1.78-1.76-2.321-4.295-1.644-6.558-1.78-0.387-3.095-1.973-3.095-3.869 0-2.205 1.78-3.985 3.966-3.985 1.993 0 3.618 1.451 3.927 3.327 2.147-0.503 4.488 0.097 6.171 1.76zM30.857 26.872c0 2.205-1.78 3.985-3.966 3.985-1.935 0-3.54-1.373-3.908-3.192v0c-2.244 0.696-4.817 0.155-6.597-1.625l-0.213-0.232 2.921-2.94 0.232 0.232c0.948 0.948 2.496 0.948 3.443 0s0.948-2.496 0-3.443l-6.616-6.616 2.94-2.94 6.036 6.036 0.561 0.58c1.683 1.683 2.283 4.063 1.741 6.229 1.935 0.271 3.424 1.915 3.424 3.927zM30.818 5.128c0 2.012-1.509 3.676-3.443 3.946 0.638 2.225 0.077 4.72-1.683 6.481l-0.232 0.232-2.921-2.94 0.232-0.232c0.948-0.948 0.948-2.496 0-3.443s-2.496-0.948-3.443 0l-6.616 6.616-2.94-2.94 3.115-3.095 2.94-2.94 0.561-0.58c1.76-1.76 4.275-2.321 6.519-1.664 0.271-1.935 1.935-3.424 3.946-3.424 2.186 0 3.966 1.78 3.966 3.985z"></path>
</svg>
