<?xml version="1.0" encoding="utf-8"?>
<!-- Generated by IcoMoon.io -->
<!DOCTYPE svg PUBLIC "-//W3C//DTD SVG 1.1//EN" "http://www.w3.org/Graphics/SVG/1.1/DTD/svg11.dtd">
<svg version="1.1" xmlns="http://www.w3.org/2000/svg" xmlns:xlink="http://www.w3.org/1999/xlink" width="32" height="32" viewBox="0 0 32 32">
<path d="M26.858 15.104c2.029 0.84 3.47 2.826 3.47 5.135 0 3.064-2.533 5.555-5.639 5.555-0.112 0-0.21-0.014-0.308-0.014h-17.029c-3.134-0.182-5.681-2.575-5.681-5.681 0-2.085 1.133-3.904 2.826-4.897-0.112-0.364-0.168-0.742-0.168-1.147 0-2.141 1.749-3.876 3.932-3.876 0.896 0 1.735 0.308 2.407 0.812 1.371-2.826 4.282-4.785 7.682-4.785 4.715 0 8.521 3.764 8.521 8.395 0 0.168-0.014 0.336-0.014 0.504zM8.22 18.826c0 2.365 1.861 3.694 4.086 3.694 1.371 0 2.365-0.434 3.358-1.385-0.406-0.504-0.854-0.993-1.273-1.497-0.574 0.56-1.203 0.91-2.015 0.91-0.993 0-1.847-0.658-1.847-1.693 0-1.021 0.854-1.693 1.819-1.693 3.078 0 3.736 5.373 8.213 5.373 2.183 0 4.030-1.371 4.030-3.666 0-2.323-1.861-3.68-4.072-3.68-1.371 0-2.393 0.392-3.372 1.357 0.448 0.49 0.868 1.007 1.301 1.511 0.56-0.546 1.189-0.895 1.987-0.895 0.924 0 1.847 0.658 1.847 1.637 0 1.077-0.784 1.763-1.833 1.763-2.98 0-3.778-5.373-8.144-5.373-2.169 0-4.086 1.329-4.086 3.638z"></path>
</svg>
