<?xml version="1.0" encoding="utf-8"?>
<!-- Generated by IcoMoon.io -->
<!DOCTYPE svg PUBLIC "-//W3C//DTD SVG 1.1//EN" "http://www.w3.org/Graphics/SVG/1.1/DTD/svg11.dtd">
<svg version="1.1" xmlns="http://www.w3.org/2000/svg" xmlns:xlink="http://www.w3.org/1999/xlink" width="32" height="32" viewBox="0 0 32 32">
<path d="M16 8.675c0-1.885-1.529-3.414-3.414-3.414s-3.414 1.529-3.414 3.414c0 0.516 0.124 1.013 0.338 1.476-0.462-0.213-0.96-0.338-1.476-0.338-1.885 0-3.414 1.529-3.414 3.414s1.529 3.414 3.414 3.414 3.414-1.529 3.414-3.414c0-0.516-0.124-1.013-0.338-1.476 0.462 0.213 0.96 0.338 1.476 0.338 1.885 0 3.414-1.529 3.414-3.414zM31.13 21.192c0 0.409-1.636 2.045-2.045 2.045-0.462 0-1.902-1.671-2.276-2.045l-1.707 1.707 3.911 3.911c0.32 0.32 0.498 0.764 0.498 1.209 0 0.996-1.138 2.133-2.133 2.133-0.444 0-0.889-0.178-1.209-0.498l-11.93-11.93c-1.867 1.387-4.143 2.329-6.489 2.329-3.876 0-6.543-2.685-6.543-6.543 0-5.832 5.832-11.663 11.663-11.663 3.858 0 6.543 2.667 6.543 6.543 0 2.347-0.942 4.623-2.329 6.489l6.312 6.312 1.707-1.707c-0.373-0.373-2.045-1.813-2.045-2.276 0-0.409 1.636-2.045 2.045-2.045 0.142 0 0.302 0.071 0.409 0.178 0.658 0.658 5.618 5.334 5.618 5.849z"></path>
</svg>
