<?xml version="1.0" encoding="utf-8"?>
<!-- Generated by IcoMoon.io -->
<!DOCTYPE svg PUBLIC "-//W3C//DTD SVG 1.1//EN" "http://www.w3.org/Graphics/SVG/1.1/DTD/svg11.dtd">
<svg version="1.1" xmlns="http://www.w3.org/2000/svg" xmlns:xlink="http://www.w3.org/1999/xlink" width="32" height="32" viewBox="0 0 32 32">
<path d="M7.543 19.054v1.41c0 0.132-0.103 0.235-0.235 0.235h-1.41c-0.132 0-0.235-0.103-0.235-0.235v-1.41c0-0.132 0.103-0.235 0.235-0.235h1.41c0.132 0 0.235 0.103 0.235 0.235zM9.422 15.295v1.41c0 0.132-0.103 0.235-0.235 0.235h-3.289c-0.132 0-0.235-0.103-0.235-0.235v-1.41c0-0.132 0.103-0.235 0.235-0.235h3.289c0.132 0 0.235 0.103 0.235 0.235zM7.543 11.537v1.41c0 0.132-0.103 0.235-0.235 0.235h-1.41c-0.132 0-0.235-0.103-0.235-0.235v-1.41c0-0.132 0.103-0.235 0.235-0.235h1.41c0.132 0 0.235 0.103 0.235 0.235zM22.578 19.054v1.41c0 0.132-0.103 0.235-0.235 0.235h-12.686c-0.132 0-0.235-0.103-0.235-0.235v-1.41c0-0.132 0.103-0.235 0.235-0.235h12.686c0.132 0 0.235 0.103 0.235 0.235zM13.181 15.295v1.41c0 0.132-0.103 0.235-0.235 0.235h-1.41c-0.132 0-0.235-0.103-0.235-0.235v-1.41c0-0.132 0.103-0.235 0.235-0.235h1.41c0.132 0 0.235 0.103 0.235 0.235zM11.302 11.537v1.41c0 0.132-0.103 0.235-0.235 0.235h-1.41c-0.132 0-0.235-0.103-0.235-0.235v-1.41c0-0.132 0.103-0.235 0.235-0.235h1.41c0.132 0 0.235 0.103 0.235 0.235zM16.94 15.295v1.41c0 0.132-0.103 0.235-0.235 0.235h-1.41c-0.132 0-0.235-0.103-0.235-0.235v-1.41c0-0.132 0.103-0.235 0.235-0.235h1.41c0.132 0 0.235 0.103 0.235 0.235zM15.060 11.537v1.41c0 0.132-0.103 0.235-0.235 0.235h-1.41c-0.132 0-0.235-0.103-0.235-0.235v-1.41c0-0.132 0.103-0.235 0.235-0.235h1.41c0.132 0 0.235 0.103 0.235 0.235zM20.698 15.295v1.41c0 0.132-0.103 0.235-0.235 0.235h-1.41c-0.132 0-0.235-0.103-0.235-0.235v-1.41c0-0.132 0.103-0.235 0.235-0.235h1.41c0.132 0 0.235 0.103 0.235 0.235zM26.337 19.054v1.41c0 0.132-0.103 0.235-0.235 0.235h-1.41c-0.132 0-0.235-0.103-0.235-0.235v-1.41c0-0.132 0.103-0.235 0.235-0.235h1.41c0.132 0 0.235 0.103 0.235 0.235zM18.819 11.537v1.41c0 0.132-0.103 0.235-0.235 0.235h-1.41c-0.132 0-0.235-0.103-0.235-0.235v-1.41c0-0.132 0.103-0.235 0.235-0.235h1.41c0.132 0 0.235 0.103 0.235 0.235zM22.578 11.537v1.41c0 0.132-0.103 0.235-0.235 0.235h-1.41c-0.132 0-0.235-0.103-0.235-0.235v-1.41c0-0.132 0.103-0.235 0.235-0.235h1.41c0.132 0 0.235 0.103 0.235 0.235zM26.337 11.537v5.168c0 0.132-0.103 0.235-0.235 0.235h-3.289c-0.132 0-0.235-0.103-0.235-0.235v-1.41c0-0.132 0.103-0.235 0.235-0.235h1.644v-3.524c0-0.132 0.103-0.235 0.235-0.235h1.41c0.132 0 0.235 0.103 0.235 0.235zM28.216 22.578v-13.156h-24.432v13.156h24.432zM30.095 9.422v13.156c0 1.042-0.837 1.879-1.879 1.879h-24.432c-1.042 0-1.879-0.837-1.879-1.879v-13.156c0-1.042 0.837-1.879 1.879-1.879h24.432c1.042 0 1.879 0.837 1.879 1.879z"></path>
</svg>
