<?xml version="1.0" encoding="utf-8"?>
<!-- Generated by IcoMoon.io -->
<!DOCTYPE svg PUBLIC "-//W3C//DTD SVG 1.1//EN" "http://www.w3.org/Graphics/SVG/1.1/DTD/svg11.dtd">
<svg version="1.1" xmlns="http://www.w3.org/2000/svg" xmlns:xlink="http://www.w3.org/1999/xlink" width="32" height="32" viewBox="0 0 32 32">
<path d="M9.799 21.893l1.315-4.854h-2.581l1.218 4.87c0.016 0.032 0.016 0.065 0.032 0.097 0-0.032 0.016-0.081 0.016-0.114zM11.682 14.961l0.568-2.078h-4.74l0.52 2.078h3.653zM14.799 14.961h2.256l-0.568-2.078h-1.136zM22.088 21.909l1.266-4.87h-2.63l1.315 4.854c0.016 0.049 0.016 0.081 0.032 0.114 0-0.032 0.016-0.065 0.016-0.097zM23.89 14.961l0.536-2.078h-4.821l0.552 2.078h3.734zM30.545 15.48v1.039c0 0.292-0.227 0.52-0.52 0.52h-3.458l-2.662 10c-0.065 0.227-0.276 0.39-0.503 0.39h-2.581c-0.227 0-0.438-0.162-0.503-0.39l-2.695-10h-3.393l-2.711 10c-0.065 0.227-0.26 0.39-0.503 0.39h-2.581c-0.227 0-0.438-0.162-0.487-0.39l-2.597-10h-3.377c-0.292 0-0.519-0.227-0.519-0.52v-1.039c0-0.292 0.227-0.52 0.519-0.52h2.841l-0.536-2.078h-2.305c-0.292 0-0.519-0.227-0.519-0.52v-1.039c0-0.292 0.227-0.52 0.519-0.52h1.77l-1.445-5.584c-0.049-0.162-0.016-0.325 0.081-0.455 0.097-0.114 0.26-0.195 0.422-0.195h2.224c0.244 0 0.455 0.162 0.503 0.39l1.461 5.844h5.828l1.575-5.844c0.065-0.227 0.276-0.39 0.503-0.39h2.045c0.244 0 0.438 0.162 0.503 0.39l1.591 5.844h5.925l1.51-5.844c0.049-0.227 0.26-0.39 0.503-0.39h2.224c0.162 0 0.325 0.081 0.422 0.195 0.097 0.13 0.13 0.308 0.081 0.455l-1.477 5.584h1.802c0.292 0 0.52 0.227 0.52 0.52v1.039c0 0.292-0.227 0.52-0.52 0.52h-2.354l-0.552 2.078h2.906c0.292 0 0.52 0.227 0.52 0.52z"></path>
</svg>
