<?xml version="1.0" encoding="utf-8"?>
<!-- Generated by IcoMoon.io -->
<!DOCTYPE svg PUBLIC "-//W3C//DTD SVG 1.1//EN" "http://www.w3.org/Graphics/SVG/1.1/DTD/svg11.dtd">
<svg version="1.1" xmlns="http://www.w3.org/2000/svg" xmlns:xlink="http://www.w3.org/1999/xlink" width="32" height="32" viewBox="0 0 32 32">
<path d="M14.11 19.018c-0.033 0.116-0.846-0.265-1.061-0.348-0.216-0.099-1.194-0.647-1.443-0.813s-1.194-0.945-1.31-0.995v0c-0.597 0.912-1.36 1.99-2.222 3.001-0.298 0.348-1.194 1.476-1.741 1.824-0.083 0.050-0.564 0.099-0.63 0.066 0.265-0.199 1.028-1.144 1.36-1.526 0.415-0.481 2.388-3.233 2.719-3.864 0.348-0.63 1.393-2.719 1.443-2.918-0.166-0.017-1.476 0.431-1.824 0.547-0.332 0.1-1.244 0.315-1.31 0.365-0.066 0.066-0.017 0.265-0.050 0.332s-0.332 0.216-0.514 0.249c-0.166 0.050-0.547 0.066-0.779 0-0.216-0.050-0.415-0.265-0.464-0.348 0 0-0.066-0.1-0.083-0.381 0.199-0.066 0.531-0.083 0.895-0.182s1.26-0.365 1.741-0.531 1.409-0.514 1.691-0.58c0.298-0.050 1.045-0.547 1.443-0.68s0.68-0.298 0.696-0.216 0 0.448-0.017 0.547c-0.017 0.083-0.813 1.642-0.929 1.89-0.066 0.133-0.531 1.011-1.277 2.172 0.265 0.116 0.829 0.348 1.061 0.464 0.282 0.133 2.255 0.962 2.355 0.995s0.282 0.796 0.249 0.929zM10.71 10.959c0.050 0.282-0.033 0.398-0.066 0.464-0.166 0.315-0.58 0.531-0.829 0.63s-0.663 0.199-0.995 0.199c-0.149-0.017-0.448-0.066-0.813-0.431-0.199-0.216-0.348-0.796-0.282-0.73s0.547 0.133 0.763 0.083 0.73-0.199 0.962-0.265c0.249-0.083 0.746-0.216 0.912-0.232 0.166 0 0.298 0.066 0.348 0.282zM22.284 13.098l1.045 3.764-2.305-0.696zM3.912 26.364l11.508-3.847v-17.112l-11.508 3.864v17.096zM24.49 21.107l1.691 0.514-3.001-10.894-1.658-0.514-3.582 8.888 1.691 0.514 0.746-1.824 3.499 1.078zM16.149 5.156l9.501 3.051v-6.301zM21.306 27.093l2.62 0.216-0.895 2.653-0.663-1.094c-1.343 0.862-3.001 1.526-4.577 1.791-0.481 0.099-1.028 0.199-1.509 0.199h-1.393c-1.758 0-4.958-1.045-6.351-2.056-0.1-0.083-0.133-0.149-0.133-0.265 0-0.182 0.133-0.315 0.298-0.315 0.149 0 0.929 0.481 1.144 0.58 1.492 0.746 3.582 1.426 5.256 1.426 2.073 0 3.482-0.265 5.372-1.078 0.547-0.249 1.028-0.564 1.542-0.846zM28.735 9.202v17.892c-12.818-4.079-12.834-4.079-12.834-4.079-0.265 0.116-12.154 4.129-12.32 4.129-0.133 0-0.249-0.083-0.298-0.216 0-0.017-0.017-0.033-0.017-0.050v-17.875c0.017-0.050 0.033-0.133 0.066-0.166 0.099-0.116 0.232-0.149 0.332-0.182 0.050-0.017 1.061-0.348 2.471-0.829v-6.367l9.253 3.283c0.116-0.033 10.43-3.598 10.579-3.598 0.182 0 0.332 0.133 0.332 0.348v6.931z"></path>
</svg>
