<?xml version="1.0" encoding="utf-8"?>
<!-- Generated by IcoMoon.io -->
<!DOCTYPE svg PUBLIC "-//W3C//DTD SVG 1.1//EN" "http://www.w3.org/Graphics/SVG/1.1/DTD/svg11.dtd">
<svg version="1.1" xmlns="http://www.w3.org/2000/svg" xmlns:xlink="http://www.w3.org/1999/xlink" width="32" height="32" viewBox="0 0 32 32">
<path d="M7.905 21.714c-1.31 0-2.381-1.071-2.381-2.381v-10.476c0-1.31 1.071-2.381 2.381-2.381h16.19c1.31 0 2.381 1.071 2.381 2.381v10.476c0 1.31-1.071 2.381-2.381 2.381h-16.19zM7.429 8.857v10.476c0 0.253 0.223 0.476 0.476 0.476h16.19c0.253 0 0.476-0.223 0.476-0.476v-10.476c0-0.253-0.223-0.476-0.476-0.476h-16.19c-0.253 0-0.476 0.223-0.476 0.476zM27.905 22.667h2.381v1.429c0 0.789-1.071 1.429-2.381 1.429h-23.81c-1.31 0-2.381-0.64-2.381-1.429v-1.429h26.19zM17.191 24.095c0.134 0 0.238-0.104 0.238-0.238s-0.104-0.238-0.238-0.238h-2.381c-0.134 0-0.238 0.104-0.238 0.238s0.104 0.238 0.238 0.238h2.381z"></path>
</svg>
