<?xml version="1.0" encoding="utf-8"?>
<!-- Generated by IcoMoon.io -->
<!DOCTYPE svg PUBLIC "-//W3C//DTD SVG 1.1//EN" "http://www.w3.org/Graphics/SVG/1.1/DTD/svg11.dtd">
<svg version="1.1" xmlns="http://www.w3.org/2000/svg" xmlns:xlink="http://www.w3.org/1999/xlink" width="32" height="32" viewBox="0 0 32 32">
<path d="M28.845 19.018c0-2.728-2.205-3.966-4.527-4.623-1.064-0.29-1.935-0.542-2.321-1.702-0.019-0.097-0.116-0.464-0.116-0.542 0-0.929 0.735-1.606 1.644-1.606 0.426 0 1.025-0.019 1.373 0.29h-0.019c0.368 0.271 0.542 0.58 0.754 0.987l1.799-1.373c-0.29-0.406-0.58-0.89-0.948-1.238v0c-0.909-0.813-1.76-0.948-2.96-0.948-2.031 0-3.946 1.664-3.946 3.772 0 0.155 0.019 0.29 0.039 0.445 0.426 2.631 1.76 3.443 4.121 4.121 1.161 0.329 2.805 0.851 2.824 2.283v0.097c0.019 1.548-1.277 2.476-2.728 2.476-1.586 0-2.612-1.509-3.231-2.786-2.244-4.623-2.592-10.408-9.247-10.408-4.005 0-7.603 3.695-7.467 7.661v0.019c0.135 4.14 2.979 7.796 7.351 7.796 2.070 0 4.005-0.484 5.397-2.128v0c0.232-0.31 0.445-0.638 0.6-0.987l-1.161-2.109c-1.083 2.051-2.418 2.94-4.74 2.94-3.057 0-5.165-2.708-5.165-5.63 0-2.689 2.476-5.281 5.185-5.281 3.095 0 4.217 1.606 5.301 4.372 1.296 3.327 2.689 8.821 7.177 8.821 2.689 0 5.010-1.954 5.010-4.72zM30.857 6.714v18.571c0 3.076-2.496 5.571-5.571 5.571h-18.571c-3.076 0-5.571-2.496-5.571-5.571v-18.571c0-3.076 2.496-5.571 5.571-5.571h18.571c3.076 0 5.571 2.496 5.571 5.571z"></path>
</svg>
