<?xml version="1.0" encoding="utf-8"?>
<!-- Generated by IcoMoon.io -->
<!DOCTYPE svg PUBLIC "-//W3C//DTD SVG 1.1//EN" "http://www.w3.org/Graphics/SVG/1.1/DTD/svg11.dtd">
<svg version="1.1" xmlns="http://www.w3.org/2000/svg" xmlns:xlink="http://www.w3.org/1999/xlink" width="32" height="32" viewBox="0 0 32 32">
<path d="M22.26 11.668c0 0.095 0.126 0.538 0.158 0.648 0.427 1.296 1.423 1.565 2.608 1.897 2.64 0.743 5.138 2.15 5.138 5.249 0 3.146-2.624 5.359-5.691 5.359-5.090 0-6.671-6.229-8.142-10.023-1.217-3.13-2.498-4.964-6.023-4.964-3.13 0-5.881 3.004-5.881 6.086 0 3.272 2.45 6.308 5.849 6.308 1.502 0 3.067-0.316 4.079-1.502v0c0.49-0.553 0.964-1.154 1.312-1.834l1.328 2.403c-0.174 0.395-0.427 0.775-0.696 1.107l0.016 0.016c-1.597 1.85-3.778 2.403-6.134 2.403-4.774 0-8.347-4.221-8.347-8.869 0-4.506 3.921-8.695 8.474-8.695 7.557 0 7.936 6.545 10.497 11.809 0.696 1.454 1.881 3.162 3.683 3.162 1.644 0 3.099-1.059 3.099-2.798 0-3.763-6.909-1.201-7.889-7.383-0.032-0.174-0.047-0.348-0.047-0.522 0-2.34 2.197-4.348 4.521-4.268 1.391 0.047 2.229 0.095 3.336 1.075h-0.016c0.427 0.395 0.743 0.933 1.075 1.391l-2.039 1.565c-0.237-0.443-0.458-0.806-0.854-1.107v-0.016c-0.379-0.348-1.059-0.332-1.534-0.332-1.028 0-1.881 0.775-1.881 1.834z"></path>
</svg>
