<?xml version="1.0" encoding="utf-8"?>
<!-- Generated by IcoMoon.io -->
<!DOCTYPE svg PUBLIC "-//W3C//DTD SVG 1.1//EN" "http://www.w3.org/Graphics/SVG/1.1/DTD/svg11.dtd">
<svg version="1.1" xmlns="http://www.w3.org/2000/svg" xmlns:xlink="http://www.w3.org/1999/xlink" width="32" height="32" viewBox="0 0 32 32">
<path d="M22.234 13.922c0-0.568-0.471-1.039-1.039-1.039-5.747 0-9.448 2.403-13.198 6.542-0.195 0.211-0.308 0.438-0.308 0.73 0 0.568 0.471 1.039 1.039 1.039 0.292 0 0.52-0.114 0.73-0.308 0.795-0.714 1.51-1.494 2.289-2.224 2.938-2.646 5.455-3.701 9.448-3.701 0.568 0 1.039-0.471 1.039-1.039zM30.545 10.708c0 1.039-0.114 2.094-0.325 3.133-1.039 5.049-4.286 8.328-8.799 10.568-2.192 1.104-4.643 1.753-7.11 1.753-1.558 0-3.166-0.26-4.643-0.763-0.779-0.26-2.338-1.282-2.987-1.282-0.812 0-1.786 3.312-3.198 3.312-1.023 0-1.331-0.503-1.77-1.25-0.146-0.276-0.26-0.373-0.26-0.714 0-1.688 3.214-3.003 3.214-3.945 0-0.146-0.422-1.006-0.487-1.331-0.097-0.552-0.146-1.12-0.146-1.688 0-5.162 4.107-8.847 8.718-10.373 3.328-1.104 10.406 0.179 12.662-1.964 0.893-0.828 1.331-1.591 2.695-1.591 1.834 0 2.435 4.756 2.435 6.136z"></path>
</svg>
