<?xml version="1.0" encoding="utf-8"?>
<!-- Generated by IcoMoon.io -->
<!DOCTYPE svg PUBLIC "-//W3C//DTD SVG 1.1//EN" "http://www.w3.org/Graphics/SVG/1.1/DTD/svg11.dtd">
<svg version="1.1" xmlns="http://www.w3.org/2000/svg" xmlns:xlink="http://www.w3.org/1999/xlink" width="32" height="32" viewBox="0 0 32 32">
<path d="M28.158 7.99l2.169 17.797c-1.301 0-2.42-0.266-3.596-0.797-1.749-0.797-3.568-1.273-5.499-1.273-1.987 0-3.82 0.658-5.233 2.071-1.413-1.413-3.246-2.071-5.233-2.071-1.931 0-3.75 0.476-5.499 1.273-1.133 0.504-2.281 0.797-3.526 0.797h-0.070l2.169-17.797c2.001-1.133 4.435-1.777 6.744-1.777 1.889 0 3.834 0.392 5.415 1.483 1.581-1.091 3.526-1.483 5.415-1.483 2.309 0 4.743 0.644 6.744 1.777zM21.233 21.799c2.658 0 4.477 0.714 6.884 1.707l-1.735-14.285c-1.567-0.714-3.428-1.091-5.149-1.091-1.959 0-3.792 0.616-5.233 1.973-1.441-1.357-3.274-1.973-5.233-1.973-1.721 0-3.582 0.378-5.149 1.091l-1.735 14.285c2.406-0.993 4.225-1.707 6.884-1.707 1.917 0 3.61 0.49 5.233 1.511 1.623-1.021 3.316-1.511 5.233-1.511zM21.792 21.324l-0.77-12.69c-2.015 0.042-3.61 0.728-5.023 2.169-1.469-1.497-3.134-2.169-5.233-2.169-1.567 0-3.246 0.322-4.701 0.923l-1.595 13.166c2.113-0.867 3.974-1.413 6.296-1.413 1.847 0 3.652 0.448 5.233 1.427 1.581-0.979 3.386-1.469 5.233-1.427z"></path>
</svg>
