<?xml version="1.0" encoding="utf-8"?>
<!-- Generated by IcoMoon.io -->
<!DOCTYPE svg PUBLIC "-//W3C//DTD SVG 1.1//EN" "http://www.w3.org/Graphics/SVG/1.1/DTD/svg11.dtd">
<svg version="1.1" xmlns="http://www.w3.org/2000/svg" xmlns:xlink="http://www.w3.org/1999/xlink" width="32" height="32" viewBox="0 0 32 32">
<path d="M28.362 14.646c0-0.909-0.174-3.289-0.484-4.063-0.368-0.929-0.58-1.451-0.58-2.496 0-0.89 0.193-1.76 0.193-2.631 0-0.368-0.019-0.754-0.193-1.064-0.077-0.019-0.174-0.019-0.252-0.019-0.754 0-1.509 0.174-2.263 0.174-2.302 0-4.488-0.929-6.79-0.929-1.799 0-3.54 0.677-5.204 1.335-1.315 0.522-2.766 1.141-3.908 1.993-3.908 2.96-5.262 8.377-5.262 13.039 0 1.567 0.484 3.095 0.484 4.662 0 0.89-0.426 1.702-0.426 2.554 0 0.542 0.31 0.987 0.89 0.987 0.948 0 1.857-0.426 2.824-0.426 2.205 0 4.353 0.6 6.558 0.6 1.722 0 3.888-0.135 5.494-0.696 5.088-1.799 8.918-7.68 8.918-13.019zM30.838 14.607c0 6.442-4.469 13.232-10.582 15.399-1.915 0.677-4.295 0.851-6.307 0.851-2.205 0-4.372-0.561-6.558-0.561-0.929 0-1.857 0.561-2.824 0.561-1.915 0-3.366-1.722-3.366-3.56 0-0.909 0.426-1.722 0.426-2.612 0-1.567-0.484-3.095-0.484-4.682 0-5.494 1.683-11.568 6.248-15.031 1.315-1.006 2.96-1.722 4.488-2.321 1.973-0.793 3.966-1.509 6.113-1.509 2.302 0 4.488 0.929 6.752 0.929 0.735 0 1.47-0.193 2.225-0.193 2.205 0 2.998 1.567 2.998 3.579 0 0.871-0.193 1.76-0.193 2.631 0 0.696 0.174 0.967 0.406 1.586 0.445 1.122 0.658 3.695 0.658 4.933z"></path>
</svg>
