<?xml version="1.0" encoding="utf-8"?>
<!-- Generated by IcoMoon.io -->
<!DOCTYPE svg PUBLIC "-//W3C//DTD SVG 1.1//EN" "http://www.w3.org/Graphics/SVG/1.1/DTD/svg11.dtd">
<svg version="1.1" xmlns="http://www.w3.org/2000/svg" xmlns:xlink="http://www.w3.org/1999/xlink" width="32" height="32" viewBox="0 0 32 32">
<path d="M5.915 1.143h14.784c0.378 0 0.672 0.315 0.672 0.693v18.123h4.032c0.525 0 0.987 0.315 1.218 0.777 0.231 0.483 0.147 1.050-0.189 1.449l-6.72 8.064c-0.504 0.609-1.554 0.609-2.058 0l-6.72-8.064c-0.336-0.399-0.399-0.966-0.189-1.449 0.231-0.462 0.693-0.777 1.218-0.777h4.032v-13.44h-6.72c-0.189 0-0.378-0.084-0.525-0.231l-3.36-4.032c-0.168-0.189-0.189-0.483-0.084-0.714s0.357-0.399 0.609-0.399z"></path>
</svg>
