<?xml version="1.0" encoding="utf-8"?>
<!-- Generated by IcoMoon.io -->
<!DOCTYPE svg PUBLIC "-//W3C//DTD SVG 1.1//EN" "http://www.w3.org/Graphics/SVG/1.1/DTD/svg11.dtd">
<svg version="1.1" xmlns="http://www.w3.org/2000/svg" xmlns:xlink="http://www.w3.org/1999/xlink" width="32" height="32" viewBox="0 0 32 32">
<path d="M26.628 11.251c-0.231 0.483-0.693 0.778-1.219 0.778h-4.035v18.156c0 0.378-0.294 0.672-0.672 0.672h-14.794c-0.252 0-0.504-0.147-0.609-0.378-0.105-0.252-0.084-0.525 0.084-0.736l3.362-4.035c0.126-0.147 0.336-0.231 0.525-0.231h6.725v-13.449h-4.035c-0.525 0-0.988-0.294-1.219-0.778-0.21-0.462-0.147-1.030 0.189-1.429l6.725-8.070c0.504-0.609 1.555-0.609 2.059 0l6.725 8.070c0.336 0.399 0.42 0.967 0.189 1.429z"></path>
</svg>
