<?xml version="1.0" encoding="utf-8"?>
<!-- Generated by IcoMoon.io -->
<!DOCTYPE svg PUBLIC "-//W3C//DTD SVG 1.1//EN" "http://www.w3.org/Graphics/SVG/1.1/DTD/svg11.dtd">
<svg version="1.1" xmlns="http://www.w3.org/2000/svg" xmlns:xlink="http://www.w3.org/1999/xlink" width="32" height="32" viewBox="0 0 32 32">
<path d="M16 1.143c8.208 0 14.857 6.649 14.857 14.857s-6.649 14.857-14.857 14.857-14.857-6.649-14.857-14.857 6.649-14.857 14.857-14.857zM16 3.265c-2.156 0-4.195 0.547-5.986 1.492l3.217 3.217c0.879-0.298 1.807-0.464 2.769-0.464 0.978 0 1.89 0.166 2.769 0.464l3.217-3.217c-1.791-0.945-3.83-1.492-5.986-1.492zM4.758 21.986l3.217-3.217c-0.298-0.879-0.464-1.807-0.464-2.769 0-0.978 0.166-1.89 0.464-2.769l-3.217-3.217c-0.945 1.791-1.492 3.83-1.492 5.986s0.547 4.195 1.492 5.986zM16 28.735c2.156 0 4.195-0.547 5.986-1.492l-3.217-3.217c-0.879 0.298-1.791 0.464-2.769 0.464-0.962 0-1.89-0.166-2.769-0.464l-3.217 3.217c1.791 0.945 3.83 1.492 5.986 1.492zM16 22.367c3.515 0 6.367-2.852 6.367-6.367s-2.852-6.367-6.367-6.367-6.367 2.852-6.367 6.367 2.852 6.367 6.367 6.367zM24.026 18.769l3.217 3.217c0.945-1.791 1.492-3.83 1.492-5.986s-0.547-4.195-1.492-5.986l-3.217 3.217c0.298 0.879 0.464 1.807 0.464 2.769s-0.166 1.89-0.464 2.769z"></path>
</svg>
