<?xml version="1.0" encoding="utf-8"?>
<!-- Generated by IcoMoon.io -->
<!DOCTYPE svg PUBLIC "-//W3C//DTD SVG 1.1//EN" "http://www.w3.org/Graphics/SVG/1.1/DTD/svg11.dtd">
<svg version="1.1" xmlns="http://www.w3.org/2000/svg" xmlns:xlink="http://www.w3.org/1999/xlink" width="32" height="32" viewBox="0 0 32 32">
<path d="M20.333 9.81c0 0.329-0.29 0.619-0.619 0.619s-0.619-0.29-0.619-0.619c0-1.335-2.070-1.857-3.095-1.857-0.329 0-0.619-0.29-0.619-0.619s0.29-0.619 0.619-0.619c1.799 0 4.333 0.948 4.333 3.095zM23.429 9.81c0-3.869-3.927-6.191-7.429-6.191s-7.429 2.321-7.429 6.191c0 1.238 0.503 2.534 1.315 3.482 0.368 0.426 0.793 0.832 1.18 1.277 1.373 1.644 2.534 3.579 2.728 5.765h4.411c0.193-2.186 1.354-4.121 2.728-5.765 0.387-0.445 0.813-0.851 1.18-1.277 0.813-0.948 1.315-2.244 1.315-3.482zM25.905 9.81c0 1.993-0.658 3.714-1.993 5.185s-3.095 3.54-3.25 5.61c0.561 0.329 0.909 0.948 0.909 1.586 0 0.464-0.174 0.909-0.484 1.238 0.31 0.329 0.484 0.774 0.484 1.238 0 0.638-0.329 1.219-0.871 1.567 0.155 0.271 0.252 0.6 0.252 0.909 0 1.257-0.987 1.857-2.109 1.857-0.503 1.122-1.625 1.857-2.844 1.857s-2.341-0.735-2.844-1.857c-1.122 0-2.109-0.6-2.109-1.857 0-0.31 0.097-0.638 0.252-0.909-0.542-0.348-0.871-0.929-0.871-1.567 0-0.464 0.174-0.909 0.484-1.238-0.31-0.329-0.484-0.774-0.484-1.238 0-0.638 0.348-1.257 0.909-1.586-0.155-2.070-1.915-4.14-3.25-5.61s-1.993-3.192-1.993-5.185c0-5.262 5.010-8.667 9.905-8.667s9.905 3.405 9.905 8.667z"></path>
</svg>
