<?xml version="1.0" encoding="utf-8"?>
<!-- Generated by IcoMoon.io -->
<!DOCTYPE svg PUBLIC "-//W3C//DTD SVG 1.1//EN" "http://www.w3.org/Graphics/SVG/1.1/DTD/svg11.dtd">
<svg version="1.1" xmlns="http://www.w3.org/2000/svg" xmlns:xlink="http://www.w3.org/1999/xlink" width="32" height="32" viewBox="0 0 32 32">
<path d="M30.476 25.048v1.81h-28.952v-21.714h1.81v19.905h27.143zM28.667 7.405v6.15c0 0.396-0.481 0.608-0.778 0.311l-1.711-1.711-8.949 8.949c-0.184 0.184-0.467 0.184-0.65 0l-3.294-3.294-5.881 5.881-2.714-2.714 8.27-8.27c0.184-0.184 0.467-0.184 0.65 0l3.294 3.294 6.56-6.56-1.711-1.711c-0.297-0.297-0.085-0.778 0.311-0.778h6.15c0.254 0 0.452 0.198 0.452 0.452z"></path>
</svg>
