<?xml version="1.0" encoding="utf-8"?>
<!-- Generated by IcoMoon.io -->
<!DOCTYPE svg PUBLIC "-//W3C//DTD SVG 1.1//EN" "http://www.w3.org/Graphics/SVG/1.1/DTD/svg11.dtd">
<svg version="1.1" xmlns="http://www.w3.org/2000/svg" xmlns:xlink="http://www.w3.org/1999/xlink" width="32" height="32" viewBox="0 0 32 32">
<path d="M7.923 11.046v19.103h-6.361v-19.103h6.361zM8.328 5.147c0.019 1.831-1.369 3.296-3.585 3.296v0h-0.039c-2.14 0-3.508-1.465-3.508-3.296 0-1.87 1.426-3.296 3.585-3.296 2.178 0 3.528 1.426 3.547 3.296zM30.804 19.2v10.949h-6.342v-10.216c0-2.564-0.925-4.318-3.219-4.318-1.754 0-2.795 1.176-3.258 2.313-0.154 0.424-0.212 0.983-0.212 1.561v10.66h-6.342c0.077-17.31 0-19.103 0-19.103h6.342v2.776h-0.039c0.829-1.311 2.332-3.219 5.764-3.219 4.183 0 7.306 2.737 7.306 8.597z"></path>
</svg>
