<?xml version="1.0" encoding="utf-8"?>
<!-- Generated by IcoMoon.io -->
<!DOCTYPE svg PUBLIC "-//W3C//DTD SVG 1.1//EN" "http://www.w3.org/Graphics/SVG/1.1/DTD/svg11.dtd">
<svg version="1.1" xmlns="http://www.w3.org/2000/svg" xmlns:xlink="http://www.w3.org/1999/xlink" width="32" height="32" viewBox="0 0 32 32">
<path d="M5.728 26.021h4.469v-13.426h-4.469v13.426zM10.487 8.455c-0.019-1.315-0.967-2.321-2.496-2.321s-2.534 1.006-2.534 2.321c0 1.277 0.967 2.321 2.476 2.321h0.019c1.567 0 2.534-1.045 2.534-2.321zM21.804 26.021h4.469v-7.699c0-4.121-2.205-6.036-5.146-6.036-2.399 0-3.463 1.335-4.043 2.263h0.039v-1.954h-4.469s0.058 1.257 0 13.426v0h4.469v-7.506c0-0.387 0.019-0.793 0.135-1.083 0.329-0.793 1.064-1.625 2.302-1.625 1.606 0 2.244 1.219 2.244 3.037v7.177zM30.857 6.714v18.571c0 3.076-2.496 5.571-5.571 5.571h-18.571c-3.076 0-5.571-2.496-5.571-5.571v-18.571c0-3.076 2.496-5.571 5.571-5.571h18.571c3.076 0 5.571 2.496 5.571 5.571z"></path>
</svg>
