<?xml version="1.0" encoding="utf-8"?>
<!-- Generated by IcoMoon.io -->
<!DOCTYPE svg PUBLIC "-//W3C//DTD SVG 1.1//EN" "http://www.w3.org/Graphics/SVG/1.1/DTD/svg11.dtd">
<svg version="1.1" xmlns="http://www.w3.org/2000/svg" xmlns:xlink="http://www.w3.org/1999/xlink" width="32" height="32" viewBox="0 0 32 32">
<path d="M8.738 26.596l3.35 3.548-0.564-3.913-3.582-3.532zM12.486 30.343l4.543-3.615-0.182-4.063-4.974 3.565zM7.329 19.764l3.764 3.532-0.796-5.422-4.063-3.383zM11.474 23.478l5.256-3.548-0.232-5.372-5.837 3.316zM17.244 23.661l1.575 1.327-0.033-3.963-1.708-1.31c0 0.133 0.066 0.365-0.066 0.464l-1.293 0.862 1.409 1.161c0.166 0.133 0.116 1.26 0.116 1.459zM5.554 11.191l4.245 3.316-1.128-7.71-4.626-2.869zM22.716 22.185l0.249-3.88-3.814 2.719 0.033 3.98zM10.181 14.64l6.185-3.217-0.315-7.313-7.014 2.703zM24.325 20.693l0.332-3.864-3.747-2.355-0.033 1.741 2.388 1.575c0.050 0.033 0.083 0.099 0.066 0.149l-0.116 1.973zM27.492 18.388l0.497-3.681-2.968 2.122-0.332 3.781zM24.375 21.157l-1.177-0.813-0.133 1.94c0 0.050-0.017 0.099-0.066 0.133l-3.88 3.101c-0.066 0.050-0.166 0.050-0.232 0l-1.625-1.376 0.116 2.67c0 0.050-0.017 0.099-0.066 0.133l-4.858 3.88c-0.033 0.017-0.066 0.033-0.1 0.033-0.050-0.017-0.1-0.017-0.133-0.050l-3.781-4.013c-0.083-0.083-0.895-4.179-0.978-4.593-0.017-0.066 0.033-0.149 0.083-0.182l1.011-0.614c-0.199-0.182-1.542-1.36-1.575-1.526l-1.194-5.82c-0.017-0.066 0.017-0.149 0.099-0.199l1.559-0.746c-0.265-0.199-2.189-1.592-2.239-1.791l-1.592-7.727c-0.017-0.099 0.033-0.182 0.116-0.216l7.18-2.239c0.033 0 0.083 0 0.133 0.017l5.256 2.537c0.050 0.033 0.099 0.099 0.099 0.149l0.332 7.677c0 0.066-0.033 0.133-0.099 0.166l-1.957 1.011 2.089 1.409c0.050 0.017 0.083 0.083 0.083 0.133l0.083 2.040 2.006-1.227c0.050-0.033 0.133-0.033 0.182 0l1.393 0.929 0.050-1.824c0-0.050 0.033-0.116 0.083-0.149l3.416-2.089c0.066-0.033 0.133-0.033 0.182 0l4.063 2.239c0.033 0.033 0.066 0.066 0.083 0.116 0.033 0.116-0.514 3.847-0.564 4.228 0 0.050-0.033 0.099-0.066 0.116l-3.167 2.537c-0.066 0.050-0.149 0.050-0.216 0z"></path>
</svg>
