<?xml version="1.0" encoding="utf-8"?>
<!-- Generated by IcoMoon.io -->
<!DOCTYPE svg PUBLIC "-//W3C//DTD SVG 1.1//EN" "http://www.w3.org/Graphics/SVG/1.1/DTD/svg11.dtd">
<svg version="1.1" xmlns="http://www.w3.org/2000/svg" xmlns:xlink="http://www.w3.org/1999/xlink" width="32" height="32" viewBox="0 0 32 32">
<path d="M13.744 7.933v0c-0.33 0.033-0.214 0.33-0.396 0.33-0.165 0.016-0.132-0.363 0.396-0.33zM15.178 8.164c-0.165 0.049-0.181-0.264-0.478-0.181v0c0.478-0.214 0.643 0.115 0.478 0.181zM9.393 15.201c-0.148-0.049-0.115 0.247-0.264 0.478-0.115 0.214-0.412 0.379-0.181 0.412v0c0.082 0.016 0.313-0.181 0.412-0.412 0.082-0.28 0.165-0.428 0.033-0.478zM23.484 21.117c0-0.297-0.643-0.577-0.906-0.692 0.445-1.483 0.247-2.077-0.049-3.477-0.231-1.055-1.203-2.489-1.961-2.934 0.198 0.165 0.56 0.643 0.939 1.368 0.659 1.236 1.318 3.065 0.89 4.582-0.165 0.593-0.56 0.676-0.824 0.692-1.154 0.132-0.478-1.384-0.956-3.444-0.544-2.307-1.104-2.472-1.236-2.653-0.676-2.999-1.417-2.703-1.632-3.823-0.181-1.005 0.873-1.829-0.56-2.11-0.445-0.082-1.071-0.527-1.318-0.56s-0.379-1.665 0.544-1.714c0.906-0.066 1.071 1.022 0.906 1.45-0.264 0.428 0.016 0.593 0.461 0.445 0.363-0.115 0.132-1.071 0.214-1.203-0.231-1.384-0.808-1.582-1.401-1.697-2.274 0.181-1.253 2.686-1.483 2.456-0.33-0.346-1.285-0.033-1.285-0.247 0.016-1.285-0.412-2.027-1.005-2.044-0.659-0.016-0.923 0.906-0.956 1.434-0.049 0.494 0.28 1.533 0.527 1.45 0.165-0.049 0.445-0.379 0.148-0.363-0.148 0-0.379-0.363-0.412-0.791-0.016-0.428 0.148-0.857 0.709-0.841 0.643 0.016 0.643 1.302 0.577 1.351-0.214 0.148-0.478 0.428-0.511 0.478-0.214 0.346-0.626 0.445-0.791 0.593-0.28 0.297-0.346 0.626-0.132 0.742 0.758 0.428 0.511 0.923 1.566 0.956 0.692 0.033 1.203-0.099 1.681-0.247 0.363-0.115 1.533-0.363 1.78-0.791 0.115-0.181 0.247-0.181 0.33-0.132 0.165 0.082 0.198 0.396-0.214 0.494-0.577 0.165-1.154 0.478-1.681 0.676-0.511 0.214-0.676 0.297-1.154 0.379-1.088 0.198-1.895-0.396-1.17 0.313 0.247 0.231 0.478 0.379 1.104 0.363 1.384-0.049 2.917-1.714 3.065-0.972 0.033 0.165-0.428 0.363-0.791 0.544-1.285 0.626-2.192 1.879-3.016 1.45-0.742-0.396-1.483-2.225-1.467-1.401 0.016 1.269-1.665 2.39-0.89 3.84-0.511 0.132-1.648 2.554-1.813 3.807-0.099 0.725 0.066 1.615-0.115 2.11-0.247 0.725-1.368-0.692-1.005-2.423 0.066-0.297 0-0.363-0.082-0.214-0.445 0.808-0.198 1.945 0.165 2.736 0.148 0.346 0.527 0.494 0.808 0.791 0.577 0.659 2.851 2.34 3.247 2.752 0.511 0.478 0.363 1.599-0.692 1.714v0c0.544 1.022 1.071 1.121 1.055 2.785 0.626-0.33 0.379-1.055 0.115-1.516-0.181-0.33-0.412-0.478-0.363-0.56 0.033-0.049 0.363-0.33 0.544-0.115 0.56 0.626 1.615 0.742 2.736 0.593 1.137-0.132 2.357-0.527 2.917-1.434 0.264-0.428 0.445-0.577 0.56-0.494 0.132 0.066 0.181 0.363 0.165 0.857-0.016 0.527-0.231 1.071-0.379 1.516-0.148 0.511-0.198 0.857 0.297 0.873 0.132-0.923 0.395-1.829 0.461-2.752 0.082-1.055-0.676-2.999 0.148-3.972 0.214-0.264 0.478-0.297 0.84-0.297 0.049-1.318 2.077-1.22 2.752-0.676zM13.134 7.488c0.066-0.412-0.132-0.709-0.231-0.742-0.198-0.049-0.165 0.247-0.066 0.214v0c0.066 0 0.148 0.099 0.115 0.247-0.033 0.198-0.016 0.33 0.132 0.33 0.016 0 0.049 0 0.049-0.049zM20.039 10.735c-0.066-0.313-0.297-0.198-0.56-0.363-0.313-0.198-0.379-0.527-0.494-0.412v0c-0.346 0.379 0.428 1.17 0.758 1.236 0.198 0.033 0.346-0.231 0.297-0.461zM17.106 7.224c0.016-0.396-0.33-0.593-0.412-0.577-0.214 0.016-0.148 0.115-0.049 0.148v0c0.132 0.033 0.264 0.264 0.297 0.511 0 0.033 0.165-0.033 0.165-0.082zM17.996 3.384c0.016-0.082-0.198-0.181-0.346-0.297-0.132-0.132-0.264-0.247-0.395-0.247-0.33 0.033-0.165 0.379-0.214 0.544v0c-0.066 0.181-0.313 0.33-0.148 0.461 0.148 0.115 0.247-0.181 0.56-0.297 0.082-0.033 0.461 0.016 0.544-0.165zM27.307 25.485c2.027 1.253-0.758 2.291-1.961 2.901-0.939 0.478-2.192 1.533-2.653 1.978-0.346 0.33-1.78 0.494-2.587 0.082-0.939-0.478-0.445-1.236-1.895-1.285-0.725-0.016-1.434-0.016-2.142-0.016-0.626 0.016-1.253 0.049-1.895 0.066-2.175 0.049-2.39 1.45-3.791 1.401-0.956-0.033-2.159-0.791-4.235-1.22-1.45-0.297-2.851-0.379-3.148-1.022s0.363-1.368 0.412-1.994c0.049-0.84-0.626-1.978-0.132-2.406 0.428-0.379 1.335-0.099 1.928-0.428 0.626-0.363 0.89-0.643 0.89-1.417 0.231 0.791-0.016 1.434-0.527 1.747-0.313 0.198-0.89 0.297-1.368 0.247-0.379-0.033-0.61 0.016-0.709 0.165-0.148 0.181-0.099 0.511 0.082 0.939s0.396 0.709 0.363 1.236c-0.016 0.527-0.61 1.154-0.511 1.599 0.033 0.165 0.198 0.313 0.61 0.428 0.659 0.181 1.862 0.363 3.032 0.643 1.302 0.33 2.653 0.923 3.494 0.808 2.505-0.346 1.071-3.032 0.676-3.675v0c-2.126-3.329-3.527-5.504-4.647-4.647-0.28 0.231-0.297-0.56-0.28-0.873 0.049-1.088 0.593-1.483 0.923-2.324 0.626-1.599 1.104-3.428 2.060-4.367 0.709-0.923 1.829-2.423 2.044-3.214-0.181-1.714-0.231-3.527-0.264-5.109-0.033-1.697 0.231-3.181 2.142-4.219 0.461-0.247 1.071-0.346 1.714-0.346 1.137-0.016 2.406 0.313 3.214 0.906 1.285 0.956 2.093 2.983 1.994 4.433-0.066 1.137 0.132 2.307 0.494 3.527 0.428 1.434 1.104 2.439 2.192 3.593 1.302 1.384 2.324 4.104 2.62 5.834 0.264 1.615-0.099 2.62-0.445 2.67-0.527 0.082-0.857 1.747-2.505 1.681-1.055-0.049-1.154-0.676-1.45-1.22-0.478-0.84-0.956-0.577-1.137 0.313-0.099 0.445-0.033 1.104 0.115 1.599 0.297 1.038 0.198 2.011 0.016 3.214-0.346 2.274 1.599 2.703 2.901 1.615 1.285-1.071 1.566-1.236 3.181-1.796 2.456-0.84 1.632-1.582 0.313-2.027-1.187-0.395-1.236-2.39-0.808-2.769 0.099 2.142 1.22 2.456 1.681 2.752z"></path>
</svg>
