<?xml version="1.0" encoding="utf-8"?>
<!-- Generated by IcoMoon.io -->
<!DOCTYPE svg PUBLIC "-//W3C//DTD SVG 1.1//EN" "http://www.w3.org/Graphics/SVG/1.1/DTD/svg11.dtd">
<svg version="1.1" xmlns="http://www.w3.org/2000/svg" xmlns:xlink="http://www.w3.org/1999/xlink" width="32" height="32" viewBox="0 0 32 32">
<path d="M7.426 27.991c0 1.833-1.433 2.866-3.166 2.866-1.050 0-2.116-0.35-2.866-1.1l0.95-1.467c0.45 0.417 1.133 0.75 1.767 0.75 0.583 0 1.2-0.283 1.2-0.95 0-0.933-1.067-0.983-1.75-0.933l-0.433-0.933c0.6-0.767 1.15-1.617 1.867-2.266v-0.017c-0.533 0-1.083 0.033-1.617 0.033v0.883h-1.767v-2.533h5.55v1.467l-1.583 1.916c1.117 0.267 1.85 1.133 1.85 2.283zM7.459 17.542v2.65h-6.033c-0.050-0.3-0.1-0.6-0.1-0.9 0-3.083 3.766-3.55 3.766-4.95 0-0.567-0.35-0.867-0.9-0.867-0.583 0-1.067 0.5-1.35 0.967l-1.417-0.983c0.55-1.15 1.683-1.8 2.95-1.8 1.55 0 2.883 0.917 2.883 2.566 0 2.467-3.616 3.016-3.666 4.316h2.116v-1h1.75zM30.941 22.858v3.2c0 0.283-0.25 0.533-0.533 0.533h-20.265c-0.3 0-0.533-0.25-0.533-0.533v-3.2c0-0.3 0.233-0.533 0.533-0.533h20.265c0.283 0 0.533 0.233 0.533 0.533zM7.476 7.876v1.65h-5.583v-1.65h1.783c0-1.35 0.017-2.7 0.017-4.050v-0.2h-0.033c-0.183 0.367-0.517 0.617-0.833 0.9l-1.183-1.267 2.266-2.116h1.767v6.733h1.8zM30.941 14.325v3.2c0 0.283-0.25 0.533-0.533 0.533h-20.265c-0.3 0-0.533-0.25-0.533-0.533v-3.2c0-0.3 0.233-0.533 0.533-0.533h20.265c0.283 0 0.533 0.233 0.533 0.533zM30.941 5.792v3.2c0 0.283-0.25 0.533-0.533 0.533h-20.265c-0.3 0-0.533-0.25-0.533-0.533v-3.2c0-0.283 0.233-0.533 0.533-0.533h20.265c0.283 0 0.533 0.25 0.533 0.533z"></path>
</svg>
