<?xml version="1.0" encoding="utf-8"?>
<!-- Generated by IcoMoon.io -->
<!DOCTYPE svg PUBLIC "-//W3C//DTD SVG 1.1//EN" "http://www.w3.org/Graphics/SVG/1.1/DTD/svg11.dtd">
<svg version="1.1" xmlns="http://www.w3.org/2000/svg" xmlns:xlink="http://www.w3.org/1999/xlink" width="32" height="32" viewBox="0 0 32 32">
<path d="M7.688 24.312c0 1.721-1.396 3.117-3.117 3.117s-3.117-1.396-3.117-3.117 1.396-3.117 3.117-3.117 3.117 1.396 3.117 3.117zM7.688 16c0 1.721-1.396 3.117-3.117 3.117s-3.117-1.396-3.117-3.117 1.396-3.117 3.117-3.117 3.117 1.396 3.117 3.117zM30.545 22.753v3.117c0 0.276-0.244 0.52-0.52 0.52h-19.74c-0.276 0-0.52-0.244-0.52-0.52v-3.117c0-0.276 0.243-0.52 0.52-0.52h19.74c0.276 0 0.52 0.244 0.52 0.52zM7.688 7.688c0 1.721-1.396 3.117-3.117 3.117s-3.117-1.396-3.117-3.117 1.396-3.117 3.117-3.117 3.117 1.396 3.117 3.117zM30.545 14.442v3.117c0 0.276-0.244 0.52-0.52 0.52h-19.74c-0.276 0-0.52-0.244-0.52-0.52v-3.117c0-0.276 0.243-0.52 0.52-0.52h19.74c0.276 0 0.52 0.243 0.52 0.52zM30.545 6.13v3.117c0 0.276-0.244 0.52-0.52 0.52h-19.74c-0.276 0-0.52-0.243-0.52-0.52v-3.117c0-0.276 0.243-0.519 0.52-0.519h19.74c0.276 0 0.52 0.244 0.52 0.519z"></path>
</svg>
