<?xml version="1.0" encoding="utf-8"?>
<!-- Generated by IcoMoon.io -->
<!DOCTYPE svg PUBLIC "-//W3C//DTD SVG 1.1//EN" "http://www.w3.org/Graphics/SVG/1.1/DTD/svg11.dtd">
<svg version="1.1" xmlns="http://www.w3.org/2000/svg" xmlns:xlink="http://www.w3.org/1999/xlink" width="32" height="32" viewBox="0 0 32 32">
<path d="M5.61 23.792v3.117c0 0.276-0.244 0.52-0.519 0.52h-3.117c-0.276 0-0.519-0.244-0.519-0.52v-3.117c0-0.276 0.244-0.52 0.519-0.52h3.117c0.276 0 0.519 0.244 0.519 0.52zM5.61 17.558v3.117c0 0.276-0.244 0.52-0.519 0.52h-3.117c-0.276 0-0.519-0.244-0.519-0.52v-3.117c0-0.276 0.244-0.52 0.519-0.52h3.117c0.276 0 0.519 0.244 0.519 0.52zM5.61 11.325v3.117c0 0.276-0.244 0.52-0.519 0.52h-3.117c-0.276 0-0.519-0.243-0.519-0.52v-3.117c0-0.276 0.244-0.52 0.519-0.52h3.117c0.276 0 0.519 0.243 0.519 0.52zM30.545 23.792v3.117c0 0.276-0.244 0.52-0.52 0.52h-21.818c-0.276 0-0.519-0.244-0.519-0.52v-3.117c0-0.276 0.244-0.52 0.519-0.52h21.818c0.276 0 0.52 0.244 0.52 0.52zM5.61 5.091v3.117c0 0.276-0.244 0.52-0.519 0.52h-3.117c-0.276 0-0.519-0.243-0.519-0.52v-3.117c0-0.276 0.244-0.519 0.519-0.519h3.117c0.276 0 0.519 0.244 0.519 0.519zM30.545 17.558v3.117c0 0.276-0.244 0.52-0.52 0.52h-21.818c-0.276 0-0.519-0.244-0.519-0.52v-3.117c0-0.276 0.244-0.52 0.519-0.52h21.818c0.276 0 0.52 0.244 0.52 0.52zM30.545 11.325v3.117c0 0.276-0.244 0.52-0.52 0.52h-21.818c-0.276 0-0.519-0.243-0.519-0.52v-3.117c0-0.276 0.244-0.52 0.519-0.52h21.818c0.276 0 0.52 0.243 0.52 0.52zM30.545 5.091v3.117c0 0.276-0.244 0.52-0.52 0.52h-21.818c-0.276 0-0.519-0.243-0.519-0.52v-3.117c0-0.276 0.244-0.519 0.519-0.519h21.818c0.276 0 0.52 0.244 0.52 0.519z"></path>
</svg>
