<?xml version="1.0" encoding="utf-8"?>
<!-- Generated by IcoMoon.io -->
<!DOCTYPE svg PUBLIC "-//W3C//DTD SVG 1.1//EN" "http://www.w3.org/Graphics/SVG/1.1/DTD/svg11.dtd">
<svg version="1.1" xmlns="http://www.w3.org/2000/svg" xmlns:xlink="http://www.w3.org/1999/xlink" width="32" height="32" viewBox="0 0 32 32">
<path d="M7.688 21.714v1.039c0 0.276-0.244 0.52-0.519 0.52h-1.039c-0.276 0-0.519-0.244-0.519-0.52v-1.039c0-0.276 0.244-0.52 0.519-0.52h1.039c0.276 0 0.519 0.244 0.519 0.52zM7.688 17.558v1.039c0 0.276-0.244 0.52-0.519 0.52h-1.039c-0.276 0-0.519-0.244-0.519-0.52v-1.039c0-0.276 0.244-0.52 0.519-0.52h1.039c0.276 0 0.519 0.244 0.519 0.52zM7.688 13.403v1.039c0 0.276-0.244 0.52-0.519 0.52h-1.039c-0.276 0-0.519-0.243-0.519-0.52v-1.039c0-0.276 0.244-0.52 0.519-0.52h1.039c0.276 0 0.519 0.243 0.519 0.52zM26.39 21.714v1.039c0 0.276-0.244 0.52-0.52 0.52h-15.584c-0.276 0-0.52-0.244-0.52-0.52v-1.039c0-0.276 0.243-0.52 0.52-0.52h15.584c0.276 0 0.52 0.244 0.52 0.52zM26.39 17.558v1.039c0 0.276-0.244 0.52-0.52 0.52h-15.584c-0.276 0-0.52-0.244-0.52-0.52v-1.039c0-0.276 0.243-0.52 0.52-0.52h15.584c0.276 0 0.52 0.244 0.52 0.52zM26.39 13.403v1.039c0 0.276-0.244 0.52-0.52 0.52h-15.584c-0.276 0-0.52-0.243-0.52-0.52v-1.039c0-0.276 0.243-0.52 0.52-0.52h15.584c0.276 0 0.52 0.243 0.52 0.52zM28.468 24.831v-13.507c0-0.276-0.244-0.52-0.52-0.52h-23.896c-0.276 0-0.519 0.243-0.519 0.52v13.507c0 0.276 0.244 0.52 0.519 0.52h23.896c0.276 0 0.52-0.244 0.52-0.52zM30.545 7.169v17.662c0 1.429-1.169 2.597-2.597 2.597h-23.896c-1.429 0-2.597-1.169-2.597-2.597v-17.662c0-1.429 1.169-2.597 2.597-2.597h23.896c1.429 0 2.597 1.169 2.597 2.597z"></path>
</svg>
