<?xml version="1.0" encoding="utf-8"?>
<!-- Generated by IcoMoon.io -->
<!DOCTYPE svg PUBLIC "-//W3C//DTD SVG 1.1//EN" "http://www.w3.org/Graphics/SVG/1.1/DTD/svg11.dtd">
<svg version="1.1" xmlns="http://www.w3.org/2000/svg" xmlns:xlink="http://www.w3.org/1999/xlink" width="32" height="32" viewBox="0 0 32 32">
<path d="M10.597 14.649h10.805v-4.052c0-2.976-2.427-5.403-5.403-5.403s-5.403 2.427-5.403 5.403v4.052zM28.156 16.675v12.156c0 1.119-0.907 2.026-2.026 2.026h-20.26c-1.119 0-2.026-0.907-2.026-2.026v-12.156c0-1.119 0.907-2.026 2.026-2.026h0.675v-4.052c0-5.192 4.263-9.455 9.455-9.455s9.455 4.263 9.455 9.455v4.052h0.675c1.119 0 2.026 0.907 2.026 2.026z"></path>
</svg>
