<?xml version="1.0" encoding="utf-8"?>
<!-- Generated by IcoMoon.io -->
<!DOCTYPE svg PUBLIC "-//W3C//DTD SVG 1.1//EN" "http://www.w3.org/Graphics/SVG/1.1/DTD/svg11.dtd">
<svg version="1.1" xmlns="http://www.w3.org/2000/svg" xmlns:xlink="http://www.w3.org/1999/xlink" width="32" height="32" viewBox="0 0 32 32">
<path d="M22.552 8.52c-0.086 0.189-0.275 0.327-0.499 0.327h-3.852v21.46c0 0.31-0.241 0.55-0.55 0.55h-3.302c-0.31 0-0.55-0.241-0.55-0.55v-21.46h-3.852c-0.224 0-0.413-0.12-0.499-0.327s-0.052-0.43 0.086-0.602l6.019-6.603c0.103-0.103 0.241-0.172 0.396-0.172v0c0.155 0 0.31 0.069 0.413 0.172l6.104 6.603c0.138 0.172 0.172 0.396 0.086 0.602z"></path>
</svg>
