<?xml version="1.0" encoding="utf-8"?>
<!-- Generated by IcoMoon.io -->
<!DOCTYPE svg PUBLIC "-//W3C//DTD SVG 1.1//EN" "http://www.w3.org/Graphics/SVG/1.1/DTD/svg11.dtd">
<svg version="1.1" xmlns="http://www.w3.org/2000/svg" xmlns:xlink="http://www.w3.org/1999/xlink" width="32" height="32" viewBox="0 0 32 32">
<path d="M22.552 23.48c0.086 0.206 0.052 0.43-0.086 0.602l-6.018 6.603c-0.103 0.103-0.241 0.172-0.395 0.172v0c-0.155 0-0.31-0.069-0.413-0.172l-6.104-6.603c-0.138-0.172-0.172-0.395-0.086-0.602 0.086-0.189 0.275-0.327 0.499-0.327h3.852v-21.46c0-0.31 0.241-0.55 0.55-0.55h3.302c0.31 0 0.55 0.241 0.55 0.55v21.46h3.852c0.224 0 0.413 0.12 0.499 0.327z"></path>
</svg>
