<?xml version="1.0" encoding="utf-8"?>
<!-- Generated by IcoMoon.io -->
<!DOCTYPE svg PUBLIC "-//W3C//DTD SVG 1.1//EN" "http://www.w3.org/Graphics/SVG/1.1/DTD/svg11.dtd">
<svg version="1.1" xmlns="http://www.w3.org/2000/svg" xmlns:xlink="http://www.w3.org/1999/xlink" width="32" height="32" viewBox="0 0 32 32">
<path d="M29.442 15.953c0 0.14-0.062 0.28-0.156 0.373l-5.974 5.507c-0.156 0.14-0.358 0.171-0.545 0.093-0.171-0.078-0.296-0.249-0.296-0.451v-3.485h-19.416c-0.28 0-0.498-0.218-0.498-0.498v-2.987c0-0.28 0.218-0.498 0.498-0.498h19.416v-3.485c0-0.202 0.109-0.373 0.296-0.451s0.389-0.047 0.545 0.078l5.974 5.445c0.093 0.093 0.156 0.218 0.156 0.358v0z"></path>
</svg>
