<?xml version="1.0" encoding="utf-8"?>
<!-- Generated by IcoMoon.io -->
<!DOCTYPE svg PUBLIC "-//W3C//DTD SVG 1.1//EN" "http://www.w3.org/Graphics/SVG/1.1/DTD/svg11.dtd">
<svg version="1.1" xmlns="http://www.w3.org/2000/svg" xmlns:xlink="http://www.w3.org/1999/xlink" width="32" height="32" viewBox="0 0 32 32">
<path d="M6.782 22.507c-0.033 0-0.066-0.016-0.099-0.033-1.923-1.282-3.845-3.385-5.061-5.34-0.23-0.329-0.345-0.723-0.345-1.134 0-0.854 0.592-1.545 1.068-2.185 1.906-2.596 4.453-4.732 7.427-5.998-0.246-0.444-1.808-3.171-1.808-3.467 0-0.197 0.115-0.378 0.279-0.477 0.329-0.181 1.808-1.052 2.103-1.052 0.181 0 0.361 0.099 0.46 0.263l2.038 3.763c1.035-0.214 2.103-0.312 3.155-0.312 5.948 0 11.24 3.369 14.395 8.331 0.214 0.329 0.329 0.723 0.329 1.134s-0.115 0.805-0.329 1.134c-1.955 3.073-4.815 5.62-8.167 7.049 0.246 0.444 1.808 3.171 1.808 3.467 0 0.197-0.099 0.378-0.279 0.477-0.329 0.181-1.808 1.052-2.087 1.052-0.197 0-0.378-0.099-0.477-0.263l-2.038-3.763-1.052-1.955-7.296-13.474 0.115-0.115c-0.559 0.23-1.101 0.477-1.627 0.772 0.197 0.378 8.035 14.772 8.035 14.887 0 0.082-0.066 0.131-0.148 0.148-0.361 0.082-0.822 0.049-1.183 0.049-0.181 0-0.92 0.033-0.986-0.115l-7.493-13.819c-0.477 0.345-0.92 0.723-1.347 1.117 0.362 0.641 6.639 12.193 6.639 12.291 0 0.131-0.082 0.164-0.181 0.164-0.279 0-2.465-0.674-2.547-0.822l-1.742-3.237-3.681-6.786c-0.46 0.559-0.887 1.134-1.282 1.742 0.214 0.312 0.493 0.641 0.674 0.969 0.23 0.427 2.892 5.275 2.892 5.373 0 0.082-0.082 0.164-0.164 0.164zM20.42 20.831l0.805 1.495c3.073-1.249 5.603-3.549 7.394-6.326-1.824-2.81-4.42-5.143-7.542-6.392 1.462 1.397 2.284 3.319 2.284 5.34 0 2.317-1.084 4.502-2.941 5.883zM15.211 10.742c0 0.427 0.361 0.789 0.789 0.789 0.904 0 1.775 0.361 2.416 1.002s1.002 1.512 1.002 2.416c0 0.427 0.361 0.789 0.789 0.789s0.789-0.361 0.789-0.789c0-2.761-2.235-4.995-4.995-4.995-0.427 0-0.789 0.361-0.789 0.789zM21.225 9.674l-0.148-0.066 0.115 0.115z"></path>
</svg>
