<?xml version="1.0" encoding="utf-8"?>
<!-- Generated by IcoMoon.io -->
<!DOCTYPE svg PUBLIC "-//W3C//DTD SVG 1.1//EN" "http://www.w3.org/Graphics/SVG/1.1/DTD/svg11.dtd">
<svg version="1.1" xmlns="http://www.w3.org/2000/svg" xmlns:xlink="http://www.w3.org/1999/xlink" width="32" height="32" viewBox="0 0 32 32">
<path d="M30.857 14.762v2.476c0 7.893-6.248 13.619-14.857 13.619s-14.857-5.726-14.857-13.619v-2.476c0-0.677 0.561-1.238 1.238-1.238h7.429c0.677 0 1.238 0.561 1.238 1.238v2.476c0 3.54 4.121 3.714 4.952 3.714s4.952-0.174 4.952-3.714v-2.476c0-0.677 0.561-1.238 1.238-1.238h7.429c0.677 0 1.238 0.561 1.238 1.238zM11.048 2.381v7.429c0 0.677-0.561 1.238-1.238 1.238h-7.429c-0.677 0-1.238-0.561-1.238-1.238v-7.429c0-0.677 0.561-1.238 1.238-1.238h7.429c0.677 0 1.238 0.561 1.238 1.238zM30.857 2.381v7.429c0 0.677-0.561 1.238-1.238 1.238h-7.429c-0.677 0-1.238-0.561-1.238-1.238v-7.429c0-0.677 0.561-1.238 1.238-1.238h7.429c0.677 0 1.238 0.561 1.238 1.238z"></path>
</svg>
