<?xml version="1.0" encoding="utf-8"?>
<!-- Generated by IcoMoon.io -->
<!DOCTYPE svg PUBLIC "-//W3C//DTD SVG 1.1//EN" "http://www.w3.org/Graphics/SVG/1.1/DTD/svg11.dtd">
<svg version="1.1" xmlns="http://www.w3.org/2000/svg" xmlns:xlink="http://www.w3.org/1999/xlink" width="32" height="32" viewBox="0 0 32 32">
<path d="M11.819 19.597v1.142c0 0.424-0.261 0.799-0.636 0.962-0.13 0.049-0.277 0.082-0.408 0.082-0.277 0-0.538-0.098-0.734-0.31l-8.353-8.353c-0.408-0.408-0.408-1.060 0-1.468l8.353-8.353c0.294-0.31 0.75-0.392 1.142-0.228 0.375 0.163 0.636 0.538 0.636 0.963v1.126l-6.477 6.493c-0.408 0.408-0.408 1.060 0 1.468zM30.612 20.217c0 3.393-2.561 8.385-2.675 8.597-0.082 0.179-0.261 0.277-0.457 0.277-0.049 0-0.098 0-0.147-0.016-0.245-0.082-0.392-0.31-0.375-0.555 0.473-4.454-0.082-7.39-1.729-9.217-1.387-1.55-3.638-2.382-7.145-2.659v4.095c0 0.424-0.261 0.799-0.636 0.962-0.13 0.049-0.277 0.082-0.408 0.082-0.277 0-0.538-0.098-0.734-0.31l-8.353-8.353c-0.408-0.408-0.408-1.060 0-1.468l8.353-8.353c0.294-0.31 0.75-0.392 1.142-0.228 0.375 0.163 0.636 0.538 0.636 0.963v4.274c4.503 0.31 7.716 1.501 9.772 3.605 2.463 2.529 2.757 5.955 2.757 8.304z"></path>
</svg>
