<?xml version="1.0" encoding="utf-8"?>
<!-- Generated by IcoMoon.io -->
<!DOCTYPE svg PUBLIC "-//W3C//DTD SVG 1.1//EN" "http://www.w3.org/Graphics/SVG/1.1/DTD/svg11.dtd">
<svg version="1.1" xmlns="http://www.w3.org/2000/svg" xmlns:xlink="http://www.w3.org/1999/xlink" width="32" height="32" viewBox="0 0 32 32">
<path d="M30.72 20.206c0 2.3-1.15 5.306-2.086 7.409-0.181 0.378-0.361 0.904-0.608 1.249-0.115 0.164-0.23 0.279-0.46 0.279-0.329 0-0.526-0.263-0.526-0.575 0-0.263 0.066-0.559 0.082-0.821 0.049-0.674 0.082-1.347 0.082-2.021 0-7.836-4.649-9.2-11.73-9.2h-3.68v4.206c0 0.575-0.476 1.051-1.051 1.051-0.279 0-0.542-0.115-0.739-0.312l-8.411-8.411c-0.197-0.197-0.312-0.46-0.312-0.739s0.115-0.542 0.312-0.739l8.411-8.411c0.197-0.197 0.46-0.312 0.739-0.312 0.575 0 1.051 0.476 1.051 1.051v4.206h3.68c5.389 0 12.091 0.953 14.375 6.621 0.69 1.741 0.871 3.631 0.871 5.471z"></path>
</svg>
