<?xml version="1.0" encoding="utf-8"?>
<!-- Generated by IcoMoon.io -->
<!DOCTYPE svg PUBLIC "-//W3C//DTD SVG 1.1//EN" "http://www.w3.org/Graphics/SVG/1.1/DTD/svg11.dtd">
<svg version="1.1" xmlns="http://www.w3.org/2000/svg" xmlns:xlink="http://www.w3.org/1999/xlink" width="32" height="32" viewBox="0 0 32 32">
<path d="M30.72 12.32c0 0.279-0.115 0.542-0.312 0.739l-8.411 8.411c-0.197 0.197-0.46 0.312-0.739 0.312-0.575 0-1.051-0.476-1.051-1.051v-4.206h-3.68c-7.081 0-11.73 1.364-11.73 9.2 0 0.674 0.033 1.347 0.082 2.021 0.016 0.263 0.082 0.559 0.082 0.821 0 0.312-0.197 0.575-0.526 0.575-0.23 0-0.345-0.115-0.46-0.279-0.246-0.345-0.427-0.871-0.608-1.249-0.936-2.103-2.086-5.109-2.086-7.409 0-1.84 0.181-3.729 0.871-5.471 2.284-5.668 8.986-6.621 14.375-6.621h3.68v-4.206c0-0.575 0.476-1.051 1.051-1.051 0.279 0 0.542 0.115 0.739 0.312l8.411 8.411c0.197 0.197 0.312 0.46 0.312 0.739z"></path>
</svg>
