<?xml version="1.0" encoding="utf-8"?>
<!-- Generated by IcoMoon.io -->
<!DOCTYPE svg PUBLIC "-//W3C//DTD SVG 1.1//EN" "http://www.w3.org/Graphics/SVG/1.1/DTD/svg11.dtd">
<svg version="1.1" xmlns="http://www.w3.org/2000/svg" xmlns:xlink="http://www.w3.org/1999/xlink" width="32" height="32" viewBox="0 0 32 32">
<path d="M24.644 12.488v7.023c0 0.895-0.726 1.621-1.621 1.621s-1.621-0.726-1.621-1.621v-5.943h-1.081v15.397c0 1.047-0.844 1.891-1.891 1.891s-1.891-0.844-1.891-1.891v-7.834h-1.081v7.834c0 1.047-0.844 1.891-1.891 1.891s-1.891-0.844-1.891-1.891v-15.397h-1.081v5.943c0 0.895-0.726 1.621-1.621 1.621s-1.621-0.726-1.621-1.621v-7.023c0-1.79 1.452-3.242 3.242-3.242h10.805c1.79 0 3.242 1.452 3.242 3.242zM19.782 4.925c0 2.094-1.688 3.782-3.782 3.782s-3.782-1.688-3.782-3.782 1.688-3.782 3.782-3.782 3.782 1.688 3.782 3.782z"></path>
</svg>
