<?xml version="1.0" encoding="utf-8"?>
<!-- Generated by IcoMoon.io -->
<!DOCTYPE svg PUBLIC "-//W3C//DTD SVG 1.1//EN" "http://www.w3.org/Graphics/SVG/1.1/DTD/svg11.dtd">
<svg version="1.1" xmlns="http://www.w3.org/2000/svg" xmlns:xlink="http://www.w3.org/1999/xlink" width="32" height="32" viewBox="0 0 32 32">
<path d="M16 19.184c0.73 0 1.443-0.083 2.122-0.249v10.861c0 0.58-0.481 1.061-1.061 1.061h-2.122c-0.58 0-1.061-0.481-1.061-1.061v-10.861c0.68 0.166 1.393 0.249 2.122 0.249zM16 1.143c4.693 0 8.49 3.797 8.49 8.49s-3.797 8.49-8.49 8.49-8.49-3.797-8.49-8.49 3.797-8.49 8.49-8.49zM16 4.857c0.298 0 0.531-0.232 0.531-0.531s-0.232-0.531-0.531-0.531c-3.217 0-5.837 2.62-5.837 5.837 0 0.298 0.232 0.531 0.531 0.531s0.531-0.232 0.531-0.531c0-2.636 2.139-4.776 4.775-4.776z"></path>
</svg>
