<?xml version="1.0" encoding="utf-8"?>
<!-- Generated by IcoMoon.io -->
<!DOCTYPE svg PUBLIC "-//W3C//DTD SVG 1.1//EN" "http://www.w3.org/Graphics/SVG/1.1/DTD/svg11.dtd">
<svg version="1.1" xmlns="http://www.w3.org/2000/svg" xmlns:xlink="http://www.w3.org/1999/xlink" width="32" height="32" viewBox="0 0 32 32">
<path d="M30.078 6.068c0.216 0.216 0.216 0.547 0 0.763l-2.338 2.338c-0.298 0.298-0.713 0.464-1.128 0.464h-22.286c-0.58 0-1.061-0.481-1.061-1.061v-4.245c0-0.58 0.481-1.061 1.061-1.061h9.551v-1.061c0-0.58 0.481-1.061 1.061-1.061h2.122c0.58 0 1.061 0.481 1.061 1.061v1.061h8.49c0.415 0 0.829 0.166 1.128 0.464zM13.878 21.306h4.245v8.49c0 0.58-0.481 1.061-1.061 1.061h-2.122c-0.58 0-1.061-0.481-1.061-1.061v-8.49zM27.673 13.878c0.58 0 1.061 0.481 1.061 1.061v4.245c0 0.58-0.481 1.061-1.061 1.061h-22.286c-0.415 0-0.829-0.166-1.128-0.464l-2.338-2.338c-0.216-0.216-0.216-0.547 0-0.763l2.338-2.338c0.298-0.298 0.713-0.464 1.128-0.464h8.49v-3.184h4.245v3.184h9.551z"></path>
</svg>
