<?xml version="1.0" encoding="utf-8"?>
<!-- Generated by IcoMoon.io -->
<!DOCTYPE svg PUBLIC "-//W3C//DTD SVG 1.1//EN" "http://www.w3.org/Graphics/SVG/1.1/DTD/svg11.dtd">
<svg version="1.1" xmlns="http://www.w3.org/2000/svg" xmlns:xlink="http://www.w3.org/1999/xlink" width="32" height="32" viewBox="0 0 32 32">
<path d="M30.296 3.305c0.244 0.172 0.402 0.459 0.402 0.761v20.209c0 0.373-0.23 0.718-0.574 0.847l-9.186 3.674c-0.23 0.1-0.459 0.1-0.689 0l-8.841-3.531-8.841 3.531c-0.115 0.057-0.23 0.072-0.344 0.072-0.187 0-0.359-0.057-0.517-0.158-0.244-0.172-0.402-0.459-0.402-0.761v-20.209c0-0.373 0.23-0.718 0.574-0.847l9.186-3.674c0.23-0.1 0.459-0.1 0.689 0l8.841 3.531 8.841-3.531c0.287-0.115 0.603-0.086 0.861 0.086zM11.866 5.242v18.228l8.267 3.301v-18.228zM3.14 8.357v18.228l7.808-3.115v-18.228zM28.86 23.657v-18.228l-7.808 3.115v18.228z"></path>
</svg>
