<?xml version="1.0" encoding="utf-8"?>
<!-- Generated by IcoMoon.io -->
<!DOCTYPE svg PUBLIC "-//W3C//DTD SVG 1.1//EN" "http://www.w3.org/Graphics/SVG/1.1/DTD/svg11.dtd">
<svg version="1.1" xmlns="http://www.w3.org/2000/svg" xmlns:xlink="http://www.w3.org/1999/xlink" width="32" height="32" viewBox="0 0 32 32">
<path d="M20.952 11.048c0-2.728-2.225-4.952-4.952-4.952s-4.952 2.225-4.952 4.952 2.225 4.952 4.952 4.952 4.952-2.225 4.952-4.952zM25.905 11.048c0 1.18-0.135 2.399-0.638 3.463l-7.042 14.973c-0.406 0.851-1.296 1.373-2.225 1.373s-1.818-0.522-2.205-1.373l-7.061-14.973c-0.503-1.064-0.638-2.283-0.638-3.463 0-5.475 4.43-9.905 9.905-9.905s9.905 4.43 9.905 9.905z"></path>
</svg>
