<?xml version="1.0" encoding="utf-8"?>
<!-- Generated by IcoMoon.io -->
<!DOCTYPE svg PUBLIC "-//W3C//DTD SVG 1.1//EN" "http://www.w3.org/Graphics/SVG/1.1/DTD/svg11.dtd">
<svg version="1.1" xmlns="http://www.w3.org/2000/svg" xmlns:xlink="http://www.w3.org/1999/xlink" width="32" height="32" viewBox="0 0 32 32">
<path d="M9.633 1.143c0.282 0 0.531 0.249 0.531 0.531v24.408c0 0.199-0.116 0.381-0.282 0.464l-7.959 4.245c-0.083 0.050-0.166 0.066-0.249 0.066-0.282 0-0.531-0.249-0.531-0.531v-24.408c0-0.199 0.116-0.381 0.282-0.464l7.959-4.245c0.083-0.050 0.166-0.066 0.249-0.066zM30.327 1.143c0.282 0 0.531 0.249 0.531 0.531v24.408c0 0.199-0.116 0.381-0.282 0.464l-7.959 4.245c-0.083 0.050-0.166 0.066-0.249 0.066-0.282 0-0.531-0.249-0.531-0.531v-24.408c0-0.199 0.116-0.381 0.282-0.464l7.959-4.245c0.083-0.050 0.166-0.066 0.249-0.066zM11.755 1.143c0.083 0 0.166 0.017 0.232 0.050l8.49 4.245c0.182 0.099 0.298 0.282 0.298 0.481v24.408c0 0.282-0.249 0.531-0.531 0.531-0.083 0-0.166-0.017-0.232-0.050l-8.49-4.245c-0.182-0.099-0.298-0.282-0.298-0.481v-24.408c0-0.282 0.249-0.531 0.531-0.531z"></path>
</svg>
