<?xml version="1.0" encoding="utf-8"?>
<!-- Generated by IcoMoon.io -->
<!DOCTYPE svg PUBLIC "-//W3C//DTD SVG 1.1//EN" "http://www.w3.org/Graphics/SVG/1.1/DTD/svg11.dtd">
<svg version="1.1" xmlns="http://www.w3.org/2000/svg" xmlns:xlink="http://www.w3.org/1999/xlink" width="32" height="32" viewBox="0 0 32 32">
<path d="M17.018 11.68c4.669 0.519 8.3 4.474 8.3 9.273 0 5.512-4.766 9.905-10.407 9.273-4.377-0.486-7.878-4.101-8.235-8.511-0.405-5.139 3.356-9.499 8.267-10.034v-2.14h-2.594c-0.292 0-0.519-0.227-0.519-0.519v-1.037c0-0.292 0.227-0.519 0.519-0.519h2.594v-2.675l-1.491 1.491c-0.211 0.195-0.535 0.195-0.729 0l-0.746-0.746c-0.195-0.195-0.195-0.519 0-0.729l3.275-3.258c0.405-0.405 1.054-0.405 1.459 0l3.275 3.258c0.195 0.211 0.195 0.535 0 0.729l-0.746 0.746c-0.195 0.195-0.519 0.195-0.729 0l-1.491-1.491v2.675h2.594c0.292 0 0.519 0.227 0.519 0.519v1.037c0 0.292-0.227 0.519-0.519 0.519h-2.594v2.14zM15.981 28.215c4.004 0 7.262-3.258 7.262-7.262s-3.258-7.262-7.262-7.262-7.262 3.258-7.262 7.262 3.258 7.262 7.262 7.262z"></path>
</svg>
