<?xml version="1.0" encoding="utf-8"?>
<!-- Generated by IcoMoon.io -->
<!DOCTYPE svg PUBLIC "-//W3C//DTD SVG 1.1//EN" "http://www.w3.org/Graphics/SVG/1.1/DTD/svg11.dtd">
<svg version="1.1" xmlns="http://www.w3.org/2000/svg" xmlns:xlink="http://www.w3.org/1999/xlink" width="32" height="32" viewBox="0 0 32 32">
<path d="M24.647 8.515c0-0.271 0.211-0.482 0.482-0.482h4.337c0.527 0 0.964 0.437 0.964 0.964v4.337c0 0.271-0.211 0.482-0.482 0.482h-0.964c-0.271 0-0.482-0.211-0.482-0.482v-2.018l-3.825 3.84c1.476 1.852 2.214 4.307 1.762 6.942-0.633 3.659-3.614 6.536-7.289 7.048-4.307 0.602-8.117-1.973-9.427-5.723-4.759-0.241-8.509-4.337-8.192-9.232 0.271-4.126 3.539-7.56 7.65-8.027 2.425-0.286 4.684 0.467 6.415 1.837l3.84-3.825h-2.018c-0.271 0-0.482-0.211-0.482-0.482v-0.964c0-0.271 0.211-0.482 0.482-0.482h4.337c0.527 0 0.964 0.437 0.964 0.964v4.337c0 0.271-0.211 0.482-0.482 0.482h-0.964c-0.271 0-0.482-0.211-0.482-0.482v-2.018l-3.825 3.84c0.602 0.753 1.069 1.611 1.401 2.545 1.867 0.090 3.569 0.783 4.94 1.867l3.84-3.825h-2.018c-0.271 0-0.482-0.211-0.482-0.482v-0.964zM16.936 14.78c0-0.301-0.030-0.587-0.060-0.873-3.238 0.497-5.723 3.283-5.723 6.656 0 0.301 0.030 0.587 0.060 0.873 3.238-0.497 5.723-3.283 5.723-6.656zM3.443 14.78c0 3.403 2.545 6.22 5.828 6.671-0.030-0.286-0.045-0.587-0.045-0.889 0-4.247 3.072-7.786 7.123-8.524-1.054-2.364-3.419-4.006-6.159-4.006-3.72 0-6.747 3.027-6.747 6.747zM17.9 27.31c3.72 0 6.747-3.027 6.747-6.747 0-3.403-2.545-6.22-5.828-6.671 0.030 0.286 0.045 0.587 0.045 0.889 0 4.247-3.072 7.786-7.123 8.524 1.054 2.364 3.419 4.006 6.159 4.006z"></path>
</svg>
