<?xml version="1.0" encoding="utf-8"?>
<!-- Generated by IcoMoon.io -->
<!DOCTYPE svg PUBLIC "-//W3C//DTD SVG 1.1//EN" "http://www.w3.org/Graphics/SVG/1.1/DTD/svg11.dtd">
<svg version="1.1" xmlns="http://www.w3.org/2000/svg" xmlns:xlink="http://www.w3.org/1999/xlink" width="31" height="32" viewBox="0 0 31 32">
<path d="M29.221 15.527c0.353 0.353 0.353 0.917 0 1.27l-4.148 4.148c-0.169 0.183-0.466 0.183-0.635 0l-0.635-0.635c-0.183-0.169-0.183-0.466 0-0.635l2.61-2.61h-4.148v3.16c0 0.254-0.198 0.451-0.451 0.451h-0.903c-0.254 0-0.451-0.198-0.451-0.451v-3.16h-1.862c-0.451 4.063-3.894 7.223-8.070 7.223-4.797 0-8.62-4.148-8.070-9.058 0.423-3.809 3.569-6.857 7.407-7.167 4.472-0.353 8.268 2.92 8.733 7.195h1.862v-3.16c0-0.254 0.198-0.451 0.451-0.451h0.903c0.254 0 0.451 0.198 0.451 0.451v3.16h4.148l-2.61-2.61c-0.183-0.169-0.183-0.466 0-0.635l0.635-0.635c0.169-0.183 0.466-0.183 0.635 0zM10.527 22.483c3.485 0 6.321-2.836 6.321-6.321s-2.836-6.321-6.321-6.321-6.321 2.836-6.321 6.321 2.836 6.321 6.321 6.321z"></path>
</svg>
