<?xml version="1.0" encoding="utf-8"?>
<!-- Generated by IcoMoon.io -->
<!DOCTYPE svg PUBLIC "-//W3C//DTD SVG 1.1//EN" "http://www.w3.org/Graphics/SVG/1.1/DTD/svg11.dtd">
<svg version="1.1" xmlns="http://www.w3.org/2000/svg" xmlns:xlink="http://www.w3.org/1999/xlink" width="32" height="32" viewBox="0 0 32 32">
<path d="M29.619 1.143c0.677 0 1.238 0.561 1.238 1.238v8.048c0 0.348-0.271 0.619-0.619 0.619h-1.238c-0.348 0-0.619-0.271-0.619-0.619v-5.068l-7.39 7.409c1.528 1.896 2.438 4.314 2.438 6.945 0 6.152-4.991 11.143-11.143 11.143s-11.143-4.991-11.143-11.143 4.991-11.143 11.143-11.143c2.631 0 5.049 0.909 6.945 2.438l7.39-7.39h-5.049c-0.348 0-0.619-0.271-0.619-0.619v-1.238c0-0.348 0.271-0.619 0.619-0.619h8.048zM12.286 28.381c4.778 0 8.667-3.888 8.667-8.667s-3.888-8.667-8.667-8.667-8.667 3.888-8.667 8.667 3.888 8.667 8.667 8.667z"></path>
</svg>
