<?xml version="1.0" encoding="utf-8"?>
<!-- Generated by IcoMoon.io -->
<!DOCTYPE svg PUBLIC "-//W3C//DTD SVG 1.1//EN" "http://www.w3.org/Graphics/SVG/1.1/DTD/svg11.dtd">
<svg version="1.1" xmlns="http://www.w3.org/2000/svg" xmlns:xlink="http://www.w3.org/1999/xlink" width="32" height="32" viewBox="0 0 32 32">
<path d="M26.504 14.955v2.205c0 0.619-0.368 1.006-0.987 1.006h-3.908c-0.619 0-1.006-0.387-1.006-1.006v-2.205c0-0.619 0.387-1.006 1.006-1.006h3.908c0.619 0 0.987 0.387 0.987 1.006zM17.025 19.405v-4.836c0-1.373-0.909-2.283-2.283-2.283h-2.573c-0.871 0-1.509 0.368-1.857 1.006-0.348-0.638-0.987-1.006-1.857-1.006h-2.515c-1.354 0-2.283 0.909-2.283 2.283v4.836c0 0.29 0.135 0.426 0.406 0.426h1.064c0.29 0 0.426-0.135 0.426-0.426v-4.449c0-0.619 0.368-1.006 1.006-1.006h1.818c0.619 0 1.006 0.387 1.006 1.006v4.449c0 0.29 0.116 0.426 0.406 0.426h1.045c0.29 0 0.426-0.135 0.426-0.426v-4.449c0-0.619 0.387-1.006 1.006-1.006h1.877c0.619 0 0.987 0.387 0.987 1.006v4.449c0 0.29 0.135 0.426 0.426 0.426h1.064c0.271 0 0.406-0.135 0.406-0.426zM28.42 17.548v-2.979c0-1.373-0.929-2.283-2.302-2.283h-5.107c-1.373 0-2.302 0.909-2.302 2.283v7.932c0 0.29 0.155 0.406 0.426 0.406h1.064c0.29 0 0.406-0.116 0.406-0.406v-3.482c0.368 0.503 0.948 0.813 1.818 0.813h3.695c1.373 0 2.302-0.929 2.302-2.283zM30.857 5.631v20.738c0 2.476-2.012 4.488-4.488 4.488h-20.738c-2.476 0-4.488-2.012-4.488-4.488v-20.738c0-2.476 2.012-4.488 4.488-4.488h20.738c2.476 0 4.488 2.012 4.488 4.488z"></path>
</svg>
