<?xml version="1.0" encoding="utf-8"?>
<!-- Generated by IcoMoon.io -->
<!DOCTYPE svg PUBLIC "-//W3C//DTD SVG 1.1//EN" "http://www.w3.org/Graphics/SVG/1.1/DTD/svg11.dtd">
<svg version="1.1" xmlns="http://www.w3.org/2000/svg" xmlns:xlink="http://www.w3.org/1999/xlink" width="32" height="32" viewBox="0 0 32 32">
<path d="M11.111 8.234v19.178c0 0.507-0.245 0.981-0.801 0.981-0.196 0-0.376-0.049-0.54-0.131l-7.602-3.809c-0.458-0.229-0.817-0.817-0.817-1.308v-18.638c0-0.409 0.196-0.785 0.638-0.785 0.262 0 0.49 0.131 0.719 0.245l8.355 4.185c0.016 0.016 0.049 0.065 0.049 0.082zM12.158 9.885l8.731 14.159-8.731-4.349v-9.81zM30.649 10.18v17.232c0 0.54-0.311 0.916-0.85 0.916-0.278 0-0.54-0.082-0.768-0.213l-7.21-3.597zM30.6 8.218c0 0.065-8.453 13.783-9.107 14.829l-6.376-10.366 5.297-8.616c0.18-0.294 0.507-0.458 0.85-0.458 0.147 0 0.294 0.033 0.425 0.098l8.845 4.414c0.033 0.016 0.065 0.049 0.065 0.098z"></path>
</svg>
