<?xml version="1.0" encoding="utf-8"?>
<!-- Generated by IcoMoon.io -->
<!DOCTYPE svg PUBLIC "-//W3C//DTD SVG 1.1//EN" "http://www.w3.org/Graphics/SVG/1.1/DTD/svg11.dtd">
<svg version="1.1" xmlns="http://www.w3.org/2000/svg" xmlns:xlink="http://www.w3.org/1999/xlink" width="32" height="32" viewBox="0 0 32 32">
<path d="M21.924 21.337c-0.174-1.142-2.268-0.254-2.395-1.507-0.174-1.776 2.427-5.614 2.22-7.105-0.19-1.332-1.078-1.618-1.856-1.634-0.745-0.016-0.936 0.111-1.189 0.254-0.159 0.095-0.365 0.27-0.65-0.016-0.349-0.333-0.619-0.65-1.078-0.714-0.682-0.111-0.983 0.111-1.475 0.539-0.19 0.159-0.666 0.714-1.11 0.508-0.19-0.095-0.856-0.428-1.332-0.634-0.904-0.396-2.22 0.254-2.696 1.11-0.714 1.269-2.109 6.281-2.316 6.947-0.476 1.475 0.603 2.696 2.046 2.617 0.619-0.032 1.015-0.254 1.412-0.967 0.222-0.412 2.316-5.979 2.474-6.249 0.111-0.19 0.492-0.444 0.809-0.286 0.317 0.174 0.381 0.523 0.333 0.841-0.063 0.539-1.554 3.933-1.602 4.314-0.19 1.269 1.491 1.475 2.141 0.222 0.206-0.396 2.538-5.139 2.744-5.456 0.238-0.349 0.412-0.46 0.65-0.444 0.174 0 0.46 0.048 0.396 0.603-0.079 0.523-1.951 4.013-2.157 4.869-0.254 1.142 0.365 2.3 1.38 2.807 0.634 0.317 3.473 0.872 3.251-0.619zM6.841 24.763c0.063 0.317-0.127 0.619-0.444 0.682-0.301 0.063-0.603-0.127-0.666-0.444-0.063-0.301 0.127-0.619 0.428-0.682s0.619 0.127 0.682 0.444zM15.882 28.934c0.254 0.365 0.159 0.856-0.19 1.11-0.365 0.254-0.856 0.159-1.11-0.206-0.238-0.365-0.143-0.856 0.206-1.11 0.365-0.254 0.856-0.159 1.094 0.206zM3.574 16.055c-0.381 0.571-1.142 0.714-1.697 0.317-0.555-0.381-0.698-1.158-0.317-1.713 0.381-0.571 1.142-0.714 1.697-0.333 0.555 0.396 0.698 1.158 0.317 1.729zM24.034 26.793c0.396 0.587 0.254 1.396-0.333 1.808-0.587 0.396-1.38 0.254-1.776-0.333s-0.254-1.396 0.317-1.808c0.587-0.412 1.38-0.254 1.792 0.333zM25.81 17.213c1.459 2.395 0.841 5.551-1.459 7.169-0.967 0.682-2.062 0.983-3.156 0.952-0.666 2.617-3.854 3.584-5.837 1.808-0.063 0.048-0.143 0.095-0.206 0.159-2.173 1.507-5.123 0.967-6.63-1.237-0.539-0.793-0.809-1.697-0.841-2.601-3.632-0.603-4.996-5.218-2.284-7.756-1.57-2.601 0.032-5.963 2.966-6.376 1.396-3.679 5.979-5.424 9.088-3.013 3.743-1.237 7.565 1.634 7.264 5.614 2.284 0.698 2.934 3.711 1.094 5.281zM7.983 6.746c0.285 0.428 0.19 1.015-0.238 1.316-0.412 0.286-0.999 0.19-1.285-0.238s-0.19-1.015 0.238-1.316c0.412-0.285 0.999-0.19 1.285 0.238zM10.505 2.289c0.079 0.349-0.143 0.698-0.492 0.777s-0.698-0.143-0.777-0.508c-0.063-0.349 0.159-0.698 0.508-0.777s0.698 0.143 0.761 0.508zM29.315 17.324c0.095 0.428-0.174 0.841-0.587 0.92-0.412 0.095-0.825-0.174-0.904-0.587-0.095-0.428 0.174-0.841 0.587-0.936 0.412-0.079 0.825 0.19 0.904 0.603zM18.784 3.161c0.333 0.571 0.159 1.332-0.428 1.681-0.571 0.349-1.316 0.159-1.649-0.412-0.349-0.587-0.159-1.348 0.412-1.697s1.316-0.159 1.665 0.428zM30.616 13.566c0.079 0.317-0.127 0.619-0.428 0.698-0.317 0.063-0.619-0.143-0.682-0.444-0.063-0.317 0.127-0.634 0.444-0.698 0.301-0.063 0.603 0.127 0.666 0.444zM27.586 9.743c0.317 0.476 0.206 1.126-0.254 1.459-0.476 0.317-1.126 0.206-1.443-0.27s-0.206-1.126 0.27-1.459c0.46-0.333 1.11-0.206 1.427 0.27z"></path>
</svg>
