<?xml version="1.0" encoding="utf-8"?>
<!-- Generated by IcoMoon.io -->
<!DOCTYPE svg PUBLIC "-//W3C//DTD SVG 1.1//EN" "http://www.w3.org/Graphics/SVG/1.1/DTD/svg11.dtd">
<svg version="1.1" xmlns="http://www.w3.org/2000/svg" xmlns:xlink="http://www.w3.org/1999/xlink" width="32" height="32" viewBox="0 0 32 32">
<path d="M23.429 19.714c0 0.677-0.561 1.238-1.238 1.238h-12.381c-0.677 0-1.238-0.561-1.238-1.238s0.561-1.238 1.238-1.238h12.381c0.677 0 1.238 0.561 1.238 1.238zM13.524 11.048c0 1.373-1.103 2.476-2.476 2.476s-2.476-1.103-2.476-2.476 1.103-2.476 2.476-2.476 2.476 1.103 2.476 2.476zM23.429 11.048c0 1.373-1.103 2.476-2.476 2.476s-2.476-1.103-2.476-2.476 1.103-2.476 2.476-2.476 2.476 1.103 2.476 2.476zM28.381 16c0-6.829-5.552-12.381-12.381-12.381s-12.381 5.552-12.381 12.381 5.552 12.381 12.381 12.381 12.381-5.552 12.381-12.381zM30.857 16c0 8.202-6.655 14.857-14.857 14.857s-14.857-6.655-14.857-14.857 6.655-14.857 14.857-14.857 14.857 6.655 14.857 14.857z"></path>
</svg>
