<?xml version="1.0" encoding="utf-8"?>
<!-- Generated by IcoMoon.io -->
<!DOCTYPE svg PUBLIC "-//W3C//DTD SVG 1.1//EN" "http://www.w3.org/Graphics/SVG/1.1/DTD/svg11.dtd">
<svg version="1.1" xmlns="http://www.w3.org/2000/svg" xmlns:xlink="http://www.w3.org/1999/xlink" width="32" height="32" viewBox="0 0 32 32">
<path d="M20.212 6.383c3.151 1.559 5.339 4.809 5.339 8.556 0 4.908-3.714 8.954-8.49 9.485v2.189h1.592c0.298 0 0.531 0.232 0.531 0.531v1.061c0 0.298-0.232 0.531-0.531 0.531h-1.592v1.592c0 0.298-0.232 0.531-0.531 0.531h-1.061c-0.298 0-0.531-0.232-0.531-0.531v-1.592h-1.592c-0.298 0-0.531-0.232-0.531-0.531v-1.061c0-0.298 0.232-0.531 0.531-0.531h1.592v-2.189c-4.775-0.531-8.49-4.577-8.49-9.485 0-3.747 2.189-6.997 5.339-8.556-1.741-1.011-3.101-2.603-3.781-4.527-0.133-0.348 0.133-0.713 0.497-0.713h1.144c0.216 0 0.398 0.133 0.481 0.332 0.962 2.305 3.233 3.913 5.87 3.913s4.908-1.608 5.87-3.913c0.083-0.199 0.265-0.332 0.614-0.332h1.011c0.365 0 0.63 0.365 0.497 0.713-0.68 1.923-2.040 3.515-3.781 4.527zM16 22.367c4.096 0 7.429-3.333 7.429-7.429s-3.333-7.429-7.429-7.429-7.429 3.333-7.429 7.429 3.333 7.429 7.429 7.429z"></path>
</svg>
