<?xml version="1.0" encoding="utf-8"?>
<!-- Generated by IcoMoon.io -->
<!DOCTYPE svg PUBLIC "-//W3C//DTD SVG 1.1//EN" "http://www.w3.org/Graphics/SVG/1.1/DTD/svg11.dtd">
<svg version="1.1" xmlns="http://www.w3.org/2000/svg" xmlns:xlink="http://www.w3.org/1999/xlink" width="32" height="32" viewBox="0 0 32 32">
<path d="M5.714 24v2.286h-2c-0.161 0-0.286-0.125-0.286-0.286v-0.286h-0.857c-0.161 0-0.286-0.125-0.286-0.286v-0.571c0-0.161 0.125-0.286 0.286-0.286h0.857v-0.286c0-0.161 0.125-0.286 0.286-0.286h2zM5.714 19.429v2.286h-2c-0.161 0-0.286-0.125-0.286-0.286v-0.286h-0.857c-0.161 0-0.286-0.125-0.286-0.286v-0.571c0-0.161 0.125-0.286 0.286-0.286h0.857v-0.286c0-0.161 0.125-0.286 0.286-0.286h2zM5.714 14.857v2.286h-2c-0.161 0-0.286-0.125-0.286-0.286v-0.286h-0.857c-0.161 0-0.286-0.125-0.286-0.286v-0.571c0-0.161 0.125-0.286 0.286-0.286h0.857v-0.286c0-0.161 0.125-0.286 0.286-0.286h2zM5.714 10.286v2.286h-2c-0.161 0-0.286-0.125-0.286-0.286v-0.286h-0.857c-0.161 0-0.286-0.125-0.286-0.286v-0.571c0-0.161 0.125-0.286 0.286-0.286h0.857v-0.286c0-0.161 0.125-0.286 0.286-0.286h2zM5.714 5.714v2.286h-2c-0.161 0-0.286-0.125-0.286-0.286v-0.286h-0.857c-0.161 0-0.286-0.125-0.286-0.286v-0.571c0-0.161 0.125-0.286 0.286-0.286h0.857v-0.286c0-0.161 0.125-0.286 0.286-0.286h2zM25.143 2.857v26.286c0 0.946-0.768 1.714-1.714 1.714h-14.857c-0.946 0-1.714-0.768-1.714-1.714v-26.286c0-0.946 0.768-1.714 1.714-1.714h14.857c0.946 0 1.714 0.768 1.714 1.714zM29.714 24.857v0.571c0 0.161-0.125 0.286-0.286 0.286h-0.857v0.286c0 0.161-0.125 0.286-0.286 0.286h-2v-2.286h2c0.161 0 0.286 0.125 0.286 0.286v0.286h0.857c0.161 0 0.286 0.125 0.286 0.286zM29.714 20.286v0.571c0 0.161-0.125 0.286-0.286 0.286h-0.857v0.286c0 0.161-0.125 0.286-0.286 0.286h-2v-2.286h2c0.161 0 0.286 0.125 0.286 0.286v0.286h0.857c0.161 0 0.286 0.125 0.286 0.286zM29.714 15.714v0.571c0 0.161-0.125 0.286-0.286 0.286h-0.857v0.286c0 0.161-0.125 0.286-0.286 0.286h-2v-2.286h2c0.161 0 0.286 0.125 0.286 0.286v0.286h0.857c0.161 0 0.286 0.125 0.286 0.286zM29.714 11.143v0.571c0 0.161-0.125 0.286-0.286 0.286h-0.857v0.286c0 0.161-0.125 0.286-0.286 0.286h-2v-2.286h2c0.161 0 0.286 0.125 0.286 0.286v0.286h0.857c0.161 0 0.286 0.125 0.286 0.286zM29.714 6.571v0.571c0 0.161-0.125 0.286-0.286 0.286h-0.857v0.286c0 0.161-0.125 0.286-0.286 0.286h-2v-2.286h2c0.161 0 0.286 0.125 0.286 0.286v0.286h0.857c0.161 0 0.286 0.125 0.286 0.286z"></path>
</svg>
