<?xml version="1.0" encoding="utf-8"?>
<!-- Generated by IcoMoon.io -->
<!DOCTYPE svg PUBLIC "-//W3C//DTD SVG 1.1//EN" "http://www.w3.org/Graphics/SVG/1.1/DTD/svg11.dtd">
<svg version="1.1" xmlns="http://www.w3.org/2000/svg" xmlns:xlink="http://www.w3.org/1999/xlink" width="32" height="32" viewBox="0 0 32 32">
<path d="M25.455 15.325v1.351c0 0.38-0.295 0.675-0.675 0.675h-17.558c-0.38 0-0.675-0.295-0.675-0.675v-1.351c0-0.38 0.295-0.675 0.675-0.675h17.558c0.38 0 0.675 0.295 0.675 0.675zM28.156 24.779v-17.558c0-1.857-1.52-3.377-3.377-3.377h-17.558c-1.857 0-3.377 1.52-3.377 3.377v17.558c0 1.857 1.52 3.377 3.377 3.377h17.558c1.857 0 3.377-1.52 3.377-3.377zM30.857 7.221v17.558c0 3.355-2.722 6.078-6.078 6.078h-17.558c-3.356 0-6.078-2.722-6.078-6.078v-17.558c0-3.356 2.722-6.078 6.078-6.078h17.558c3.355 0 6.078 2.722 6.078 6.078z"></path>
</svg>
