<?xml version="1.0" encoding="utf-8"?>
<!-- Generated by IcoMoon.io -->
<!DOCTYPE svg PUBLIC "-//W3C//DTD SVG 1.1//EN" "http://www.w3.org/Graphics/SVG/1.1/DTD/svg11.dtd">
<svg version="1.1" xmlns="http://www.w3.org/2000/svg" xmlns:xlink="http://www.w3.org/1999/xlink" width="32" height="32" viewBox="0 0 32 32">
<path d="M22.017 18.466c0-0.976-0.622-1.806-1.477-2.136-0.061 0.378-0.159 0.757-0.281 1.123-0.122 0.391-0.488 0.635-0.879 0.635-0.098 0-0.195-0.012-0.293-0.037-0.5-0.171-0.757-0.696-0.598-1.184 0.183-0.561 0.281-1.147 0.281-1.745 0-3.051-2.49-5.541-5.554-5.541-2.197 0-4.174 1.306-5.053 3.259 0.854 0.22 1.648 0.659 2.295 1.294 0.366 0.366 0.366 0.964 0 1.33s-0.964 0.366-1.33 0c-0.586-0.586-1.367-0.915-2.197-0.915-1.721 0-3.125 1.391-3.125 3.112s1.404 3.112 3.125 3.112h12.767c1.282 0 2.319-1.037 2.319-2.307zM23.885 18.466c0 2.307-1.88 4.174-4.187 4.174h-12.767c-2.758 0-4.992-2.234-4.992-4.98 0-2.502 1.855-4.565 4.26-4.919 1.013-2.978 3.833-5.029 7.018-5.029 3.845 0 7.018 2.942 7.384 6.689 1.867 0.403 3.283 2.075 3.283 4.064zM26.936 18.466c0 1.391-0.403 2.734-1.184 3.894-0.183 0.268-0.476 0.403-0.781 0.403v0c-0.183 0-0.366-0.049-0.525-0.159-0.427-0.281-0.537-0.867-0.244-1.294 0.574-0.842 0.867-1.819 0.867-2.844 0-1.013-0.293-2.002-0.867-2.844-0.293-0.427-0.183-1.001 0.244-1.294s1.013-0.171 1.306 0.256c0.781 1.147 1.184 2.49 1.184 3.881zM30.061 18.466c0 1.941-0.561 3.808-1.636 5.407-0.183 0.268-0.476 0.415-0.781 0.415v0c-0.171 0-0.354-0.049-0.513-0.159-0.427-0.293-0.549-0.867-0.256-1.294 0.854-1.294 1.318-2.807 1.318-4.37s-0.464-3.076-1.318-4.357c-0.293-0.427-0.171-1.013 0.256-1.294 0.427-0.293 1.001-0.183 1.294 0.256 1.074 1.587 1.636 3.454 1.636 5.395z"></path>
</svg>
