<?xml version="1.0" encoding="utf-8"?>
<!-- Generated by IcoMoon.io -->
<!DOCTYPE svg PUBLIC "-//W3C//DTD SVG 1.1//EN" "http://www.w3.org/Graphics/SVG/1.1/DTD/svg11.dtd">
<svg version="1.1" xmlns="http://www.w3.org/2000/svg" xmlns:xlink="http://www.w3.org/1999/xlink" width="32" height="32" viewBox="0 0 32 32">
<path d="M17.857 27.886c0-1.021-0.836-1.857-1.857-1.857s-1.857 0.836-1.857 1.857 0.836 1.857 1.857 1.857 1.857-0.836 1.857-1.857zM22.686 24.171v-16.343c0-0.395-0.348-0.743-0.743-0.743h-11.886c-0.395 0-0.743 0.348-0.743 0.743v16.343c0 0.395 0.348 0.743 0.743 0.743h11.886c0.395 0 0.743-0.348 0.743-0.743zM18.229 4.486c0-0.209-0.163-0.371-0.371-0.371h-3.714c-0.209 0-0.371 0.162-0.371 0.371s0.162 0.371 0.371 0.371h3.714c0.209 0 0.371-0.162 0.371-0.371zM24.914 4.114v23.771c0 1.625-1.346 2.971-2.971 2.971h-11.886c-1.625 0-2.971-1.346-2.971-2.971v-23.771c0-1.625 1.346-2.971 2.971-2.971h11.886c1.625 0 2.971 1.346 2.971 2.971z"></path>
</svg>
