<?xml version="1.0" encoding="utf-8"?>
<!-- Generated by IcoMoon.io -->
<!DOCTYPE svg PUBLIC "-//W3C//DTD SVG 1.1//EN" "http://www.w3.org/Graphics/SVG/1.1/DTD/svg11.dtd">
<svg version="1.1" xmlns="http://www.w3.org/2000/svg" xmlns:xlink="http://www.w3.org/1999/xlink" width="32" height="32" viewBox="0 0 32 32">
<path d="M13.143 19.81h5.714v-1.429h-1.905v-6.667h-1.696l-2.202 2.039 1.146 1.19c0.357-0.313 0.58-0.476 0.818-0.848h0.030v4.286h-1.905v1.429zM20.762 16c0 2.708-1.637 6.191-4.762 6.191s-4.762-3.482-4.762-6.191 1.637-6.191 4.762-6.191 4.762 3.482 4.762 6.191zM28.381 19.81v-7.619c-2.098 0-3.81-1.711-3.81-3.81h-17.143c0 2.098-1.711 3.81-3.81 3.81v7.619c2.098 0 3.81 1.711 3.81 3.81h17.143c0-2.098 1.711-3.81 3.81-3.81zM30.286 7.429v17.143c0 0.521-0.432 0.952-0.952 0.952h-26.667c-0.521 0-0.952-0.432-0.952-0.952v-17.143c0-0.521 0.432-0.952 0.952-0.952h26.667c0.521 0 0.952 0.432 0.952 0.952z"></path>
</svg>
