<?xml version="1.0" encoding="utf-8"?>
<!-- Generated by IcoMoon.io -->
<!DOCTYPE svg PUBLIC "-//W3C//DTD SVG 1.1//EN" "http://www.w3.org/Graphics/SVG/1.1/DTD/svg11.dtd">
<svg version="1.1" xmlns="http://www.w3.org/2000/svg" xmlns:xlink="http://www.w3.org/1999/xlink" width="32" height="32" viewBox="0 0 32 32">
<path d="M26.172 23.873c-0.696 0.116-1.412 0.174-2.128 0.174-7.177 0-13-5.823-13-13 0-2.457 0.716-4.856 2.012-6.906-5.146 1.528-8.821 6.248-8.821 11.859 0 6.829 5.552 12.381 12.381 12.381 3.734 0 7.235-1.702 9.557-4.507zM30.099 22.229c-2.418 5.243-7.719 8.628-13.484 8.628-8.183 0-14.857-6.674-14.857-14.857 0-8.028 6.287-14.548 14.296-14.838 0.542-0.019 0.987 0.29 1.18 0.754 0.213 0.484 0.077 1.045-0.29 1.393-2.205 2.012-3.424 4.759-3.424 7.738 0 5.804 4.72 10.524 10.524 10.524 1.528 0 2.998-0.329 4.411-0.987 0.484-0.213 1.025-0.116 1.393 0.252s0.464 0.929 0.252 1.393z"></path>
</svg>
