<?xml version="1.0" encoding="utf-8"?>
<!-- Generated by IcoMoon.io -->
<!DOCTYPE svg PUBLIC "-//W3C//DTD SVG 1.1//EN" "http://www.w3.org/Graphics/SVG/1.1/DTD/svg11.dtd">
<svg version="1.1" xmlns="http://www.w3.org/2000/svg" xmlns:xlink="http://www.w3.org/1999/xlink" width="33" height="32" viewBox="0 0 33 32">
<path d="M30.074 17.601c0.39 3.422-2.399 6.295-5.796 6.076-2.606-0.17-4.773-2.253-5.041-4.858-0.195-1.851 0.536-3.519 1.778-4.639l-0.864-1.303c-1.534 1.279-2.508 3.19-2.508 5.333 0 0.438-0.341 0.804-0.779 0.804h-3.957c-0.377 2.642-2.642 4.676-5.394 4.676-3.008 0-5.455-2.447-5.455-5.455s2.447-5.455 5.455-5.455c0.645 0 1.266 0.122 1.851 0.329l0.292-0.548c-0.938-0.84-2.167-1.339-3.702-1.339h-0.779c-0.426 0-0.779-0.353-0.779-0.779s0.353-0.779 0.779-0.779h1.559c2.728 0 4.116 1.12 4.676 1.559h7.635l-1.035-1.559h-2.703c-0.475 0-0.852-0.426-0.767-0.913 0.061-0.377 0.426-0.645 0.804-0.645h3.081c0.256 0 0.499 0.134 0.645 0.341l0.852 1.279 1.388-1.388c0.146-0.146 0.353-0.231 0.56-0.231h1.23c0.426 0 0.779 0.353 0.779 0.779v1.559c0 0.426-0.353 0.779-0.779 0.779h-2.18l1.4 2.094c0.986-0.475 2.131-0.67 3.349-0.438 2.326 0.426 4.14 2.374 4.408 4.724zM7.511 22.131c1.887 0 3.458-1.339 3.823-3.117h-3.823c-0.268 0-0.524-0.146-0.67-0.377-0.134-0.231-0.146-0.524-0.012-0.767l1.79-3.373c-0.353-0.097-0.718-0.158-1.108-0.158-2.143 0-3.896 1.753-3.896 3.896s1.753 3.896 3.896 3.896zM24.655 22.131c2.143 0 3.896-1.753 3.896-3.896s-1.753-3.896-3.896-3.896c-0.524 0-1.011 0.11-1.473 0.292l2.119 3.166c0.244 0.365 0.146 0.852-0.207 1.084-0.134 0.097-0.292 0.134-0.438 0.134-0.256 0-0.499-0.122-0.645-0.353l-2.119-3.166c-0.694 0.706-1.132 1.668-1.132 2.74 0 2.143 1.753 3.896 3.896 3.896z"></path>
</svg>
