<?xml version="1.0" encoding="utf-8"?>
<!-- Generated by IcoMoon.io -->
<!DOCTYPE svg PUBLIC "-//W3C//DTD SVG 1.1//EN" "http://www.w3.org/Graphics/SVG/1.1/DTD/svg11.dtd">
<svg version="1.1" xmlns="http://www.w3.org/2000/svg" xmlns:xlink="http://www.w3.org/1999/xlink" width="32" height="32" viewBox="0 0 32 32">
<path d="M25.193 18.351c0.313 0.297 0.396 0.759 0.231 1.138-0.165 0.396-0.544 0.66-0.973 0.66h-6.303l3.316 7.853c0.231 0.544-0.033 1.155-0.561 1.386l-2.92 1.237c-0.544 0.231-1.155-0.033-1.386-0.561l-3.151-7.457-5.148 5.148c-0.198 0.198-0.462 0.313-0.742 0.313-0.132 0-0.28-0.033-0.396-0.082-0.396-0.165-0.66-0.544-0.66-0.973v-24.814c0-0.429 0.264-0.808 0.66-0.973 0.115-0.049 0.264-0.083 0.396-0.083 0.28 0 0.544 0.099 0.742 0.313z"></path>
</svg>
