<?xml version="1.0" encoding="utf-8"?>
<!-- Generated by IcoMoon.io -->
<!DOCTYPE svg PUBLIC "-//W3C//DTD SVG 1.1//EN" "http://www.w3.org/Graphics/SVG/1.1/DTD/svg11.dtd">
<svg version="1.1" xmlns="http://www.w3.org/2000/svg" xmlns:xlink="http://www.w3.org/1999/xlink" width="32" height="32" viewBox="0 0 32 32">
<path d="M25.551 10.694c0 4.908-3.714 8.954-8.49 9.485v10.148c0 0.298-0.232 0.531-0.531 0.531h-1.061c-0.298 0-0.531-0.232-0.531-0.531v-10.148c-4.775-0.531-8.49-4.577-8.49-9.485 0-5.273 4.278-9.551 9.551-9.551s9.551 4.278 9.551 9.551zM16 18.122c4.096 0 7.429-3.333 7.429-7.429s-3.333-7.429-7.429-7.429-7.429 3.333-7.429 7.429 3.333 7.429 7.429 7.429z"></path>
</svg>
