<?xml version="1.0" encoding="utf-8"?>
<!-- Generated by IcoMoon.io -->
<!DOCTYPE svg PUBLIC "-//W3C//DTD SVG 1.1//EN" "http://www.w3.org/Graphics/SVG/1.1/DTD/svg11.dtd">
<svg version="1.1" xmlns="http://www.w3.org/2000/svg" xmlns:xlink="http://www.w3.org/1999/xlink" width="32" height="32" viewBox="0 0 32 32">
<path d="M30.694 8.653h-1.837v14.694h1.837v5.51h-5.51v-1.837h-18.367v1.837h-5.51v-5.51h1.837v-14.694h-1.837v-5.51h5.51v1.837h18.367v-1.837h5.51v5.51zM27.020 4.98v1.837h1.837v-1.837h-1.837zM3.143 4.98v1.837h1.837v-1.837h-1.837zM4.98 27.020v-1.837h-1.837v1.837h1.837zM25.184 25.184v-1.837h1.837v-14.694h-1.837v-1.837h-18.367v1.837h-1.837v14.694h1.837v1.837h18.367zM28.857 27.020v-1.837h-1.837v1.837h1.837zM19.673 12.327h5.51v11.020h-12.857v-3.673h-5.51v-11.020h12.857v3.673zM8.653 17.837h9.184v-7.347h-9.184v7.347zM23.347 21.51v-7.347h-3.673v5.51h-5.51v1.837h9.184z"></path>
</svg>
