<?xml version="1.0" encoding="utf-8"?>
<!-- Generated by IcoMoon.io -->
<!DOCTYPE svg PUBLIC "-//W3C//DTD SVG 1.1//EN" "http://www.w3.org/Graphics/SVG/1.1/DTD/svg11.dtd">
<svg version="1.1" xmlns="http://www.w3.org/2000/svg" xmlns:xlink="http://www.w3.org/1999/xlink" width="32" height="32" viewBox="0 0 32 32">
<path d="M30.531 14.385h-1.615v8.073h1.615v4.844h-4.844v-1.615h-11.302v1.615h-4.844v-4.844h1.615v-1.615h-4.844v1.615h-4.844v-4.844h1.615v-8.073h-1.615v-4.844h4.844v1.615h11.302v-1.615h4.844v4.844h-1.615v1.615h4.844v-1.615h4.844v4.844zM27.302 11.156v1.615h1.615v-1.615h-1.615zM19.229 6.313v1.615h1.615v-1.615h-1.615zM3.084 6.313v1.615h1.615v-1.615h-1.615zM4.698 20.844v-1.615h-1.615v1.615h1.615zM20.844 19.229h-1.615v1.615h1.615v-1.615zM6.313 19.229h11.302v-1.615h1.615v-8.073h-1.615v-1.615h-11.302v1.615h-1.615v8.073h1.615v1.615zM12.771 25.687v-1.615h-1.615v1.615h1.615zM28.916 25.687v-1.615h-1.615v1.615h1.615zM27.302 22.458v-8.073h-1.615v-1.615h-4.844v4.844h1.615v4.844h-4.844v-1.615h-4.844v1.615h1.615v1.615h11.302v-1.615h1.615z"></path>
</svg>
