<?xml version="1.0" encoding="utf-8"?>
<!-- Generated by IcoMoon.io -->
<!DOCTYPE svg PUBLIC "-//W3C//DTD SVG 1.1//EN" "http://www.w3.org/Graphics/SVG/1.1/DTD/svg11.dtd">
<svg version="1.1" xmlns="http://www.w3.org/2000/svg" xmlns:xlink="http://www.w3.org/1999/xlink" width="32" height="32" viewBox="0 0 32 32">
<path d="M19.076 9.887c0 1.702-1.373 3.076-3.076 3.076s-3.076-1.373-3.076-3.076 1.373-3.076 3.076-3.076 3.076 1.374 3.076 3.076zM23.216 16.909c-0.348-0.696-1.335-1.296-2.631-0.271 0 0-1.76 1.393-4.585 1.393s-4.585-1.393-4.585-1.393c-1.296-1.025-2.283-0.426-2.631 0.271-0.619 1.238 0.077 1.838 1.644 2.863 1.335 0.851 3.192 1.18 4.372 1.296l-0.987 1.006c-1.393 1.393-2.747 2.747-3.695 3.676-0.561 0.561-0.561 1.47 0 2.031l0.174 0.174c0.561 0.561 1.47 0.561 2.031 0l3.695-3.695c1.393 1.412 2.747 2.766 3.695 3.695 0.561 0.561 1.47 0.561 2.031 0l0.174-0.174c0.561-0.561 0.561-1.47 0-2.031l-3.695-3.676-1.006-1.006c1.199-0.116 3.018-0.445 4.353-1.296 1.567-1.025 2.263-1.625 1.644-2.863zM22.268 9.887c0-3.463-2.805-6.268-6.268-6.268s-6.268 2.805-6.268 6.268 2.805 6.268 6.268 6.268 6.268-2.805 6.268-6.268zM30.857 6.714v18.571c0 3.076-2.496 5.571-5.571 5.571h-18.571c-3.076 0-5.571-2.496-5.571-5.571v-18.571c0-3.076 2.496-5.571 5.571-5.571h18.571c3.076 0 5.571 2.496 5.571 5.571z"></path>
</svg>
