<?xml version="1.0" encoding="utf-8"?>
<!-- Generated by IcoMoon.io -->
<!DOCTYPE svg PUBLIC "-//W3C//DTD SVG 1.1//EN" "http://www.w3.org/Graphics/SVG/1.1/DTD/svg11.dtd">
<svg version="1.1" xmlns="http://www.w3.org/2000/svg" xmlns:xlink="http://www.w3.org/1999/xlink" width="32" height="32" viewBox="0 0 32 32">
<path d="M16 16.099c-4.122 0-7.486-3.347-7.486-7.47 0-4.139 3.364-7.486 7.486-7.486s7.486 3.347 7.486 7.486c0 4.122-3.364 7.47-7.486 7.47zM16 4.936c-2.028 0-3.677 1.649-3.677 3.694 0 2.028 1.649 3.677 3.677 3.677s3.677-1.649 3.677-3.677c0-2.045-1.649-3.694-3.677-3.694zM24.624 17.006c0.726 1.484-0.099 2.193-1.979 3.413-1.583 1.006-3.76 1.402-5.194 1.55l1.204 1.187 4.403 4.403c0.66 0.676 0.66 1.764 0 2.424l-0.198 0.214c-0.676 0.66-1.764 0.66-2.44 0-1.105-1.121-2.721-2.737-4.403-4.419l-4.403 4.419c-0.676 0.66-1.764 0.66-2.424 0l-0.198-0.214c-0.676-0.66-0.676-1.748 0-2.424 1.121-1.121 2.721-2.737 4.403-4.403l1.187-1.187c-1.418-0.148-3.628-0.528-5.227-1.55-1.88-1.22-2.704-1.929-1.979-3.413 0.429-0.841 1.6-1.55 3.149-0.33 0 0 2.094 1.665 5.475 1.665s5.475-1.665 5.475-1.665c1.55-1.22 2.721-0.511 3.149 0.33z"></path>
</svg>
