<?xml version="1.0" encoding="utf-8"?>
<!-- Generated by IcoMoon.io -->
<!DOCTYPE svg PUBLIC "-//W3C//DTD SVG 1.1//EN" "http://www.w3.org/Graphics/SVG/1.1/DTD/svg11.dtd">
<svg version="1.1" xmlns="http://www.w3.org/2000/svg" xmlns:xlink="http://www.w3.org/1999/xlink" width="32" height="32" viewBox="0 0 32 32">
<path d="M17.501 22.81c0 0.932-0.748 1.679-1.679 1.679s-1.69-0.748-1.69-1.679 0.758-1.69 1.69-1.69 1.679 0.758 1.679 1.69zM9.831 22.81c0 0.932-0.758 1.679-1.69 1.679s-1.679-0.748-1.679-1.679 0.748-1.69 1.679-1.69 1.69 0.758 1.69 1.69zM1.894 7.51c3.021 3.185 5.858 3.656 17 3.656s6.247 2.478-0.635 8.623c2.181-3.789 9.677-7.148-2.611-6.964-11.787 0.174-12.483-3.41-13.753-5.315z"></path>
</svg>
