<?xml version="1.0" encoding="utf-8"?>
<!-- Generated by IcoMoon.io -->
<!DOCTYPE svg PUBLIC "-//W3C//DTD SVG 1.1//EN" "http://www.w3.org/Graphics/SVG/1.1/DTD/svg11.dtd">
<svg version="1.1" xmlns="http://www.w3.org/2000/svg" xmlns:xlink="http://www.w3.org/1999/xlink" width="32" height="32" viewBox="0 0 32 32">
<path d="M25.899 4.923c-1.741-1.161-3.781-1.824-5.953-1.824-3.532 0-6.649 1.807-8.838 4.527-1.592 1.99-2.703 4.809-2.786 8.025v0.696c0.083 3.217 1.194 6.036 2.786 8.026 2.189 2.719 5.306 4.527 8.838 4.527 2.172 0 4.212-0.663 5.953-1.824-2.62 2.355-6.102 3.781-9.899 3.781-0.232 0-0.481 0-0.713-0.017-7.876-0.365-14.144-6.865-14.144-14.841 0-8.208 6.649-14.857 14.857-14.857h0.050c3.781 0.017 7.23 1.443 9.849 3.781zM30.857 16c0 4.328-1.857 8.208-4.809 10.927-1.128 0.68-2.371 1.045-3.681 1.045-1.526 0-2.968-0.497-4.228-1.393 3.366-1.227 5.853-5.489 5.853-10.579 0-5.074-2.471-9.335-5.837-10.579 1.26-0.879 2.686-1.376 4.212-1.376 1.343 0 2.603 0.381 3.747 1.078 2.918 2.719 4.742 6.583 4.742 10.878z"></path>
</svg>
