<?xml version="1.0" encoding="utf-8"?>
<!-- Generated by IcoMoon.io -->
<!DOCTYPE svg PUBLIC "-//W3C//DTD SVG 1.1//EN" "http://www.w3.org/Graphics/SVG/1.1/DTD/svg11.dtd">
<svg version="1.1" xmlns="http://www.w3.org/2000/svg" xmlns:xlink="http://www.w3.org/1999/xlink" width="32" height="32" viewBox="0 0 32 32">
<path d="M6.768 27.156c-0.137 0.287-0.533 0.684-0.875 0.82-0.479 0.164-1.066-0.15-1.094-0.479-0.027-0.424 1.025-1.189 1.476-1.271 0.438-0.082 0.643 0.574 0.492 0.93zM25.102 27.156c0.123 0.287 0.52 0.684 0.875 0.82 0.465 0.164 1.066-0.15 1.080-0.479 0.041-0.424-1.025-1.189-1.477-1.271-0.424-0.082-0.629 0.574-0.479 0.93zM25.758 25.666c0.246 0.492 1.217 1.217 1.832 1.381 0.834 0.232 1.627-0.164 1.627-0.752 0-0.902-1.709-2.105-2.502-2.187-0.752-0.096-1.244 0.971-0.957 1.559zM6.085 25.666c-0.246 0.492-1.203 1.217-1.818 1.381-0.834 0.232-1.627-0.164-1.627-0.752 0-0.902 1.709-2.105 2.502-2.187 0.752-0.096 1.244 0.971 0.943 1.559zM16.065 10.299h0.014c-0.369 0-0.725 0.068-1.039 0.205 0.479 0.15 0.834 0.588 0.834 1.094 0 0.643-0.561 1.162-1.258 1.162-0.465 0-0.875-0.246-1.094-0.588-0.041 0.191-0.068 0.369-0.068 0.574 0 1.353 1.162 2.447 2.611 2.447s2.625-1.094 2.625-2.447-1.176-2.447-2.625-2.447zM20.221 7.319c-1.805-1.982-4.115-2.42-6.371-1.189 1.271-2.844 6.179-2.461 6.371 1.189zM30.474 24.257c0.068 0.096-0.014 0.342-0.15 0.574 0.055 0.178 0.096 0.355 0.096 0.547 0.041 1.6-2.242 3.24-3.719 3.295-0.875 0.041-1.75-0.424-2.16-1.189-5.742 0.205-11.484 0.246-17.212 0-0.424 0.766-1.299 1.217-2.174 1.189-1.463-0.055-3.746-1.695-3.719-3.295 0.014-0.191 0.041-0.369 0.096-0.547-0.137-0.232-0.219-0.479-0.15-0.574 0.055-0.082 0.232-0.082 0.424-0.014 0.164-0.26 0.355-0.479 0.561-0.697-0.055-0.232-0.055-0.438 0.027-0.52 0.096-0.082 0.314-0.055 0.533 0.055 0.232-0.164 0.506-0.328 0.807-0.465 0-0.246 0.068-0.438 0.178-0.506 0.164-0.082 0.451-0.027 0.697 0.219 0.287-0.041 0.574-0.041 0.834 0.027 0.178 0.041 0.355 0.137 0.519 0.26v-0.998c-0.082 0-0.15 0-0.246-0.027-0.889-0.164-1.859-0.779-2.078-1.805-0.082-0.342-0.082-0.711 0-1.107 0.164-0.684 0.752-1.080 1.271-1.299 0.041-0.301 0.41-0.711 0.752-0.807 0.383-0.096 0.629 0.232 0.711 0.52h0.178c0.246 0.027 0.643 0.082 0.82 0.314 0.027 0.027 0.055 0.068 0.068 0.096 0.273-0.027 0.561-0.068 0.834-0.096-0.123-0.096-0.26-0.178-0.41-0.232-0.26-0.451-0.697-0.561-1.244-0.588 0-0.041 0-0.082 0.014-0.137-0.998-0.027-2.228-0.287-2.775-0.902-0.629-0.697-0.738-1.887-0.615-2.789 0.109-0.889 0.478-1.914 1.23-2.447 0.424-0.287 1.094-0.041 1.148 0.492 0.027 0.232 0.068 1.025 0.287 1.148 0.246 0.123 0.643 0.178 1.039 0.164 0.41-0.396 0.848-0.738 1.34-1.012-0.752-0.068-1.463 0.082-2.215 0.191l0.643-0.629c0.629-0.602 1.463-1.121 2.228-1.518 1.189-0.602 2.529-1.053 3.855-1.176-0.943-0.396-2.023-0.602-3.021-0.834 3.869-0.82 8.832-1.121 12.359 1.9 0.916 0.779 1.641 1.832 2.16 3.035 0.561 0.068 1.271 0.082 1.654-0.123h0.014c0.219-0.123 0.26-0.902 0.287-1.148 0.055-0.52 0.725-0.779 1.148-0.479 0.752 0.533 1.121 1.559 1.244 2.433 0.109 0.902 0.014 2.092-0.629 2.789-0.547 0.615-1.736 0.889-2.721 0.916v0.137c-0.561 0.014-1.025 0.123-1.299 0.588-0.15 0.055-0.287 0.137-0.424 0.232 0.287 0.027 0.574 0.068 0.848 0.096 0.014-0.041 0.041-0.082 0.068-0.109 0.191-0.219 0.588-0.287 0.82-0.314h0.178c0.082-0.273 0.342-0.602 0.711-0.52s0.711 0.506 0.752 0.807c0.547 0.219 1.121 0.615 1.271 1.299 0.096 0.41 0.082 0.766 0.014 1.107-0.232 1.025-1.203 1.654-2.092 1.805-0.068 0.014-0.164 0.027-0.232 0.027 0 0.342 0 0.67-0.014 0.998 0.164-0.123 0.328-0.219 0.52-0.26 0.26-0.068 0.547-0.068 0.834-0.027 0.246-0.246 0.547-0.301 0.697-0.219 0.109 0.068 0.191 0.26 0.191 0.506 0.287 0.137 0.574 0.301 0.807 0.465 0.219-0.109 0.424-0.137 0.52-0.055 0.082 0.082 0.096 0.287 0.027 0.52 0.205 0.219 0.41 0.451 0.561 0.697 0.191-0.068 0.355-0.068 0.424 0.014zM26.715 11.242c0 0.314-0.068 0.588-0.123 0.738 0.875 0.342 1.326 1.121 1.531 1.805 0.055-0.533-0.137-1.996-0.697-2.584-0.369-0.369-0.711-0.26-0.711 0.041zM25.648 12.61v0c0.656 0.793 0.861 2.105 0.643 3.185 0.547-0.109 1.039-0.314 1.326-0.615 0.096-0.109 0.191-0.246 0.246-0.383-0.055-1.080-0.52-2.16-1.504-2.475-0.164 0.164-0.465 0.246-0.711 0.287v0zM25.143 12.664c-0.191 0-0.41 0-0.602-0.014 0.383 1.039 0.629 2.16 0.725 3.267 0.178 0 0.383-0.014 0.588-0.041 0.301-1.23-0.014-2.611-0.711-3.213zM3.761 13.785c0.205-0.684 0.656-1.463 1.531-1.805-0.055-0.15-0.123-0.424-0.123-0.738 0-0.301-0.355-0.41-0.711-0.041-0.574 0.588-0.752 2.051-0.697 2.584zM4.253 15.18c0.287 0.314 0.779 0.506 1.326 0.615-0.219-1.080-0.014-2.392 0.643-3.185v0 0 0c-0.246-0.041-0.547-0.123-0.711-0.287-0.984 0.314-1.436 1.395-1.504 2.475 0.068 0.137 0.15 0.273 0.246 0.383zM6.673 15.918c0.123-1.121 0.465-2.215 0.998-3.213-0.26 0.055-0.506 0.15-0.752 0.246l-0.615 0.26v-0.014c-0.369 0.711-0.506 1.736-0.273 2.68 0.232 0.027 0.438 0.041 0.643 0.041zM19.838 16.451v0c0.178 0.902 0.246 1.805 0.383 2.707 0.055 0.314 0.15 0.383 0.451 0.232 0.807-0.41 1.148-1.982 1.162-2.885-0.656-0.041-1.326-0.041-1.996-0.055zM15.983 7.688c-2.119 0-3.855 1.723-3.855 3.842 0 2.133 1.736 3.855 3.855 3.855s3.855-1.723 3.855-3.855c0-2.119-1.736-3.842-3.855-3.842zM19.1 16.424c-0.957-0.014-1.928-0.014-2.885 0v-0.014c-0.014 0.26 0.014 1.928 0.219 2.078 0.561 0.273 1.996 0.232 2.584 0.055 0.273-0.082 0.123-1.873 0.082-2.119zM15.436 19.144c0.232-0.123 0.123-2.297 0.068-2.721v-0.014c-0.984 0.014-1.955 0.014-2.926 0.041-0.096 0.465-0.232 2.474 0.096 2.611 0.656 0.287 2.105 0.26 2.762 0.082zM10.049 16.561c-0.273 0.998 0.014 2.283 1.121 2.775 0.273 0.123 0.438 0.123 0.492-0.219 0.096-0.438 0.123-1.859 0.246-2.639v0c-0.615 0.014-1.244 0.041-1.859 0.082zM8.313 18.283c0.027 0.246-0.191 0.396-0.465 0.492 2.215 2.379 4.689 4.334 7.888 5.386 3.418-0.971 5.851-3.035 8.257-5.414-0.246-0.096-0.438-0.26-0.41-0.465 0.014-0.055 0.027-0.082 0.041-0.123v0 0c-0.451-0.041-0.902-0.096-1.34-0.137-0.479 1.668-1.818 2.68-2.365 1.6-0.137-0.26-0.178-0.588-0.232-0.848-0.191 0.424-0.67 0.41-1.244 0.451-0.67 0.055-1.6 0.068-2.228-0.15-0.15 0.656-0.561 0.656-1.353 0.725-0.711 0.068-2.461 0.205-2.775-0.547-0.055 1.449-1.777 0.506-2.283-0.355-0.164-0.287-0.273-0.574-0.355-0.889-0.396 0.041-0.793 0.082-1.189 0.137 0.027 0.041 0.041 0.096 0.055 0.137zM7.165 26.869c0.027-0.123 0.041-0.26 0.041-0.41-0.287-1.176-0.943-2.516-1.695-2.734-1.135-0.342-3.486 1.189-3.349 2.762 0.643 0.984 2.023 1.805 2.994 1.846 0.902 0.041 1.818-0.561 2.010-1.463zM7.206 24.531c0.164 0.451 0.328 1.053 0.369 1.627 1.695-0.984 3.5-1.805 5.359-2.379-1.955-1.039-3.445-2.42-4.922-3.896-0.109 0.068-0.26 0.123-0.396 0.178-0.014 0.041-0.014 0.082-0.027 0.123 0.232 0.137 0.396 0.301 0.301 0.506-0.109 0.205-0.438 0.383-0.766 0.465-0.109 0.137-0.26 0.246-0.396 0.328h-0.014c-0.014 0.684-0.014 1.367 0.014 2.051 0.191 0.342 0.355 0.697 0.479 0.998zM8.149 26.8c5.222 0.205 10.445 0.178 15.654 0-1.859-1.080-3.746-2.092-5.851-2.68-0.697 0.314-1.408 0.574-2.133 0.779-0.109 0.041-0.109 0.041-0.219 0-0.602-0.191-1.176-0.41-1.764-0.67-2.037 0.588-3.91 1.477-5.687 2.57h-0.014v0.014c0.014 0 0.014 0 0.014-0.014zM24.336 26.171c0.041-0.574 0.219-1.189 0.383-1.641 0.109-0.301 0.26-0.643 0.451-0.971l-0.014 0.014c0.027-0.697 0.041-1.395 0.041-2.092-0.15-0.082-0.287-0.205-0.41-0.342-0.328-0.068-0.656-0.26-0.766-0.451-0.096-0.205 0.068-0.383 0.301-0.52-0.014-0.027-0.027-0.082-0.027-0.123-0.15-0.041-0.273-0.096-0.383-0.164-1.6 1.49-3.308 2.871-5.236 3.883 1.969 0.588 3.842 1.422 5.66 2.406zM29.695 26.486c0.15-1.572-2.201-3.103-3.349-2.762-0.738 0.219-1.408 1.559-1.695 2.734 0 0.15 0.014 0.287 0.041 0.41 0.191 0.902 1.107 1.504 2.010 1.463 0.971-0.041 2.351-0.861 2.994-1.846z"></path>
</svg>
