<?xml version="1.0" encoding="utf-8"?>
<!-- Generated by IcoMoon.io -->
<!DOCTYPE svg PUBLIC "-//W3C//DTD SVG 1.1//EN" "http://www.w3.org/Graphics/SVG/1.1/DTD/svg11.dtd">
<svg version="1.1" xmlns="http://www.w3.org/2000/svg" xmlns:xlink="http://www.w3.org/1999/xlink" width="32" height="32" viewBox="0 0 32 32">
<path d="M27.57 19.432c-3.333 8.274-11.325 3.267-11.325 3.267-2.454 4.958-6.5 8.142-11.176 8.158-0.415 0-0.746-0.332-0.746-0.746s0.332-0.73 0.746-0.73c3.897-0.017 7.296-2.587 9.518-6.666-2.487 0.962-7.18 1.691-9.783-4.974 6.599-2.719 9.634 0.68 10.795 2.753 0.597-1.476 1.028-3.084 1.31-4.825 0 0-8.457 1.327-9.054-5.936 7.213-2.902 9.236 4.643 9.236 4.643 0.099-1.011 0.199-3.184 0.199-3.233 0 0-6.434-4.46-2.305-9.999 7.545 2.603 3.714 9.833 3.714 9.833 0.033 0.1 0.033 1.443 0 2.023 0 0 2.736-5.389 8.258-3.482-0.249 8.108-8.589 6.434-8.589 6.434-0.265 1.658-0.68 3.233-1.21 4.693 0 0 5.024-5.555 10.413-1.21z"></path>
</svg>
