<?xml version="1.0" encoding="utf-8"?>
<!-- Generated by IcoMoon.io -->
<!DOCTYPE svg PUBLIC "-//W3C//DTD SVG 1.1//EN" "http://www.w3.org/Graphics/SVG/1.1/DTD/svg11.dtd">
<svg version="1.1" xmlns="http://www.w3.org/2000/svg" xmlns:xlink="http://www.w3.org/1999/xlink" width="32" height="32" viewBox="0 0 32 32">
<path d="M27.92 1.143c1.509 0 2.902 1.128 2.902 2.703 0 0.879-0.348 1.724-0.746 2.504-1.293 2.454-5.638 10.562-7.71 12.469-1.011 0.945-2.205 1.509-3.615 1.509-2.802 0-5.090-2.388-5.090-5.173 0-1.326 0.547-2.62 1.525-3.515l10.579-9.601c0.58-0.531 1.343-0.895 2.156-0.895zM12.848 18.288c0.862 1.675 2.437 2.935 4.261 3.416l0.017 1.177c0.099 4.726-3.184 7.976-7.926 7.976-5.621 0-8.058-4.477-8.058-9.567 0.614 0.415 2.752 2.122 3.449 2.122 0.415 0 0.763-0.232 0.912-0.614 1.409-3.681 3.615-4.344 7.345-4.51z"></path>
</svg>
