<?xml version="1.0" encoding="utf-8"?>
<!-- Generated by IcoMoon.io -->
<!DOCTYPE svg PUBLIC "-//W3C//DTD SVG 1.1//EN" "http://www.w3.org/Graphics/SVG/1.1/DTD/svg11.dtd">
<svg version="1.1" xmlns="http://www.w3.org/2000/svg" xmlns:xlink="http://www.w3.org/1999/xlink" width="32" height="32" viewBox="0 0 32 32">
<path d="M30.362 1.391c0.347 0.248 0.513 0.645 0.447 1.059l-4.235 25.413c-0.050 0.314-0.248 0.579-0.529 0.744-0.149 0.083-0.331 0.132-0.513 0.132-0.132 0-0.265-0.033-0.397-0.083l-8.719-3.557-4.93 5.41c-0.199 0.232-0.48 0.347-0.778 0.347-0.132 0-0.265-0.017-0.381-0.066-0.414-0.165-0.678-0.563-0.678-0.993v-7.478l-7.809-3.193c-0.381-0.149-0.629-0.496-0.662-0.91-0.033-0.397 0.182-0.778 0.529-0.976l27.53-15.883c0.347-0.215 0.794-0.199 1.125 0.033zM24.703 26.192l3.656-21.889-23.725 13.682 5.559 2.267 14.278-10.572-7.908 13.186z"></path>
</svg>
