<?xml version="1.0" encoding="utf-8"?>
<!-- Generated by IcoMoon.io -->
<!DOCTYPE svg PUBLIC "-//W3C//DTD SVG 1.1//EN" "http://www.w3.org/Graphics/SVG/1.1/DTD/svg11.dtd">
<svg version="1.1" xmlns="http://www.w3.org/2000/svg" xmlns:xlink="http://www.w3.org/1999/xlink" width="32" height="32" viewBox="0 0 32 32">
<path d="M30.378 1.342c0.348 0.248 0.513 0.646 0.447 1.060l-4.24 25.44c-0.050 0.315-0.248 0.58-0.53 0.745-0.149 0.083-0.331 0.133-0.513 0.133-0.133 0-0.265-0.033-0.397-0.083l-7.503-3.064-4.008 4.886c-0.199 0.248-0.497 0.381-0.812 0.381-0.116 0-0.248-0.017-0.364-0.066-0.414-0.149-0.696-0.547-0.696-0.994v-5.78l14.31-17.54-17.706 15.32-6.542-2.683c-0.381-0.149-0.629-0.497-0.663-0.911-0.017-0.397 0.182-0.778 0.53-0.977l27.56-15.9c0.166-0.099 0.348-0.149 0.53-0.149 0.215 0 0.431 0.066 0.596 0.182z"></path>
</svg>
