<?xml version="1.0" encoding="utf-8"?>
<!-- Generated by IcoMoon.io -->
<!DOCTYPE svg PUBLIC "-//W3C//DTD SVG 1.1//EN" "http://www.w3.org/Graphics/SVG/1.1/DTD/svg11.dtd">
<svg version="1.1" xmlns="http://www.w3.org/2000/svg" xmlns:xlink="http://www.w3.org/1999/xlink" width="32" height="32" viewBox="0 0 32 32">
<path d="M29.613 25.509c0 3.034-2.314 5.348-5.348 5.348-1.711 0-3.364-0.739-4.57-1.945l-15.11-15.091c-1.381-1.4-2.197-3.306-2.197-5.27 0-4.123 3.248-7.409 7.37-7.409 1.984 0 3.889 0.797 5.309 2.197l11.765 11.785c0.117 0.117 0.194 0.272 0.194 0.428 0 0.408-1.089 1.497-1.497 1.497-0.175 0-0.331-0.078-0.447-0.194l-11.785-11.804c-0.933-0.914-2.197-1.497-3.52-1.497-2.761 0-4.901 2.236-4.901 4.978 0 1.322 0.545 2.586 1.478 3.52l15.091 15.11c0.739 0.739 1.77 1.225 2.82 1.225 1.653 0 2.878-1.225 2.878-2.878 0-1.070-0.486-2.081-1.225-2.82l-11.298-11.298c-0.311-0.292-0.739-0.467-1.167-0.467-0.739 0-1.303 0.544-1.303 1.303 0 0.428 0.194 0.836 0.486 1.147l7.973 7.973c0.117 0.117 0.194 0.272 0.194 0.428 0 0.408-1.108 1.517-1.517 1.517-0.156 0-0.311-0.078-0.428-0.194l-7.973-7.973c-0.778-0.758-1.225-1.828-1.225-2.898 0-2.139 1.672-3.812 3.812-3.812 1.089 0 2.139 0.447 2.898 1.225l11.298 11.298c1.225 1.206 1.945 2.859 1.945 4.57z"></path>
</svg>
