<?xml version="1.0" encoding="utf-8"?>
<!-- Generated by IcoMoon.io -->
<!DOCTYPE svg PUBLIC "-//W3C//DTD SVG 1.1//EN" "http://www.w3.org/Graphics/SVG/1.1/DTD/svg11.dtd">
<svg version="1.1" xmlns="http://www.w3.org/2000/svg" xmlns:xlink="http://www.w3.org/1999/xlink" width="32" height="32" viewBox="0 0 32 32">
<path d="M28.326 2.323v1.412c0 0.658-0.522 1.799-1.18 1.799-0.329 0-0.716-0.058-1.045 0.019-0.31 0.077-0.542 0.29-0.619 0.6-0.097 0.368-0.058 0.832-0.058 1.238v22.286c0 0.658-0.522 1.18-1.18 1.18h-2.089c-0.658 0-1.18-0.522-1.18-1.18v-23.562h-2.766v23.562c0 0.658-0.522 1.18-1.18 1.18h-2.089c-0.658 0-1.18-0.522-1.18-1.18v-9.595c-1.877-0.155-3.482-0.542-4.74-1.141-1.625-0.754-2.863-1.915-3.714-3.463-0.813-1.49-1.238-3.173-1.238-5.010 0-2.147 0.58-4.004 1.702-5.533 1.141-1.528 2.496-2.554 4.043-3.076 1.451-0.484 4.507-0.716 8.067-0.716h9.266c0.658 0 1.18 0.522 1.18 1.18z"></path>
</svg>
