<?xml version="1.0" encoding="utf-8"?>
<!-- Generated by IcoMoon.io -->
<!DOCTYPE svg PUBLIC "-//W3C//DTD SVG 1.1//EN" "http://www.w3.org/Graphics/SVG/1.1/DTD/svg11.dtd">
<svg version="1.1" xmlns="http://www.w3.org/2000/svg" xmlns:xlink="http://www.w3.org/1999/xlink" width="32" height="32" viewBox="0 0 32 32">
<path d="M30.857 2.381v27.238c0 0.677-0.561 1.238-1.238 1.238h-9.905c-0.677 0-1.238-0.561-1.238-1.238v-27.238c0-0.677 0.561-1.238 1.238-1.238h9.905c0.677 0 1.238 0.561 1.238 1.238zM13.524 2.381v27.238c0 0.677-0.561 1.238-1.238 1.238h-9.905c-0.677 0-1.238-0.561-1.238-1.238v-27.238c0-0.677 0.561-1.238 1.238-1.238h9.905c0.677 0 1.238 0.561 1.238 1.238z"></path>
</svg>
