<?xml version="1.0" encoding="utf-8"?>
<!-- Generated by IcoMoon.io -->
<!DOCTYPE svg PUBLIC "-//W3C//DTD SVG 1.1//EN" "http://www.w3.org/Graphics/SVG/1.1/DTD/svg11.dtd">
<svg version="1.1" xmlns="http://www.w3.org/2000/svg" xmlns:xlink="http://www.w3.org/1999/xlink" width="32" height="32" viewBox="0 0 32 32">
<path d="M15.077 8.477c0 1.987-1.029 4.347-3.318 4.347-2.874 0-4.613-3.62-4.613-6.103 0-1.987 1.029-4.347 3.318-4.347 2.892 0 4.613 3.62 4.613 6.103zM9.009 17.047c0 1.721-0.905 3.513-2.857 3.513-2.839 0-4.915-3.478-4.915-6.050 0-1.721 0.923-3.531 2.857-3.531 2.839 0 4.915 3.495 4.915 6.068zM16 16.568c4.347 0 10.22 6.263 10.22 10.45 0 2.253-1.845 2.608-3.655 2.608-2.378 0-4.294-1.597-6.565-1.597-2.377 0-4.4 1.579-6.973 1.579-1.721 0-3.247-0.586-3.247-2.59 0-4.205 5.873-10.45 10.22-10.45zM20.241 12.824c-2.289 0-3.318-2.36-3.318-4.347 0-2.484 1.721-6.103 4.613-6.103 2.289 0 3.318 2.36 3.318 4.347 0 2.484-1.739 6.103-4.613 6.103zM27.905 10.979c1.934 0 2.857 1.81 2.857 3.531 0 2.573-2.076 6.050-4.915 6.050-1.952 0-2.857-1.792-2.857-3.513 0-2.573 2.076-6.068 4.915-6.068z"></path>
</svg>
