<?xml version="1.0" encoding="utf-8"?>
<!-- Generated by IcoMoon.io -->
<!DOCTYPE svg PUBLIC "-//W3C//DTD SVG 1.1//EN" "http://www.w3.org/Graphics/SVG/1.1/DTD/svg11.dtd">
<svg version="1.1" xmlns="http://www.w3.org/2000/svg" xmlns:xlink="http://www.w3.org/1999/xlink" width="32" height="32" viewBox="0 0 32 32">
<path d="M28.454 11.855v0c0.216 0.995 0.166 2.139-0.066 3.383-1.078 5.472-4.709 7.362-9.369 7.362h-0.73c-0.564 0-1.028 0.415-1.128 0.978l-0.066 0.315-0.912 5.737-0.033 0.249c-0.116 0.564-0.58 0.978-1.144 0.978h-4.162c-0.464 0-0.763-0.381-0.696-0.846 0.298-1.857 0.58-3.714 0.879-5.571s0.597-3.698 0.895-5.555c0.050-0.398 0.315-0.614 0.713-0.614 0.663 0 1.327-0.017 2.172 0 1.194 0.017 2.57-0.050 3.913-0.348 1.791-0.398 3.416-1.128 4.759-2.388 1.21-1.128 2.023-2.52 2.57-4.079 0.249-0.73 0.448-1.459 0.58-2.205 0.033-0.199 0.083-0.166 0.199-0.083 0.912 0.68 1.426 1.592 1.625 2.686zM25.602 7.179c0 1.36-0.315 2.653-0.763 3.913-0.862 2.504-2.487 4.295-5.008 5.223-1.343 0.481-2.753 0.68-4.179 0.696-0.995 0.017-1.99 0-2.985 0-1.078 0-1.758 0.531-1.957 1.592-0.232 1.26-1.144 7.13-1.409 8.788-0.017 0.116-0.066 0.166-0.199 0.166h-4.892c-0.497 0-0.862-0.431-0.796-0.912l3.847-24.392c0.099-0.63 0.663-1.111 1.31-1.111h9.916c0.713 0 2.355 0.315 3.466 0.746 2.355 0.912 3.648 2.769 3.648 5.29z"></path>
</svg>
