<?xml version="1.0" encoding="utf-8"?>
<!-- Generated by IcoMoon.io -->
<!DOCTYPE svg PUBLIC "-//W3C//DTD SVG 1.1//EN" "http://www.w3.org/Graphics/SVG/1.1/DTD/svg11.dtd">
<svg version="1.1" xmlns="http://www.w3.org/2000/svg" xmlns:xlink="http://www.w3.org/1999/xlink" width="32" height="32" viewBox="0 0 32 32">
<path d="M8.958 20.101l2.94 2.94-1.006 1.006h-1.083v-1.857h-1.857v-1.083zM16.967 12.557c0.155 0.135 0.116 0.406-0.058 0.58l-5.63 5.63c-0.174 0.174-0.445 0.213-0.58 0.058-0.155-0.135-0.116-0.406 0.058-0.58l5.63-5.63c0.174-0.174 0.445-0.213 0.58-0.058zM11.667 25.905l10.524-10.524-5.571-5.571-10.524 10.524v5.571h5.571zM23.429 14.143l1.78-1.78c0.716-0.716 0.716-1.915 0-2.631l-2.94-2.94c-0.716-0.716-1.915-0.716-2.631 0l-1.78 1.78zM30.857 6.714v18.571c0 3.076-2.496 5.571-5.571 5.571h-18.571c-3.076 0-5.571-2.496-5.571-5.571v-18.571c0-3.076 2.496-5.571 5.571-5.571h18.571c3.076 0 5.571 2.496 5.571 5.571z"></path>
</svg>
