<?xml version="1.0" encoding="utf-8"?>
<!-- Generated by IcoMoon.io -->
<!DOCTYPE svg PUBLIC "-//W3C//DTD SVG 1.1//EN" "http://www.w3.org/Graphics/SVG/1.1/DTD/svg11.dtd">
<svg version="1.1" xmlns="http://www.w3.org/2000/svg" xmlns:xlink="http://www.w3.org/1999/xlink" width="33" height="32" viewBox="0 0 33 32">
<path d="M8.646 28.347l1.785-1.785-4.609-4.609-1.785 1.785v2.099h2.511v2.511h2.099zM18.904 10.145c0-0.255-0.177-0.431-0.431-0.431-0.118 0-0.235 0.039-0.333 0.137l-10.63 10.63c-0.098 0.098-0.137 0.216-0.137 0.333 0 0.255 0.176 0.431 0.431 0.431 0.118 0 0.235-0.039 0.333-0.137l10.63-10.63c0.098-0.098 0.137-0.216 0.137-0.333zM17.845 6.38l8.159 8.159-16.318 16.318h-8.159v-8.159zM31.241 8.262c0 0.667-0.275 1.314-0.726 1.765l-3.256 3.256-8.159-8.159 3.256-3.236c0.451-0.471 1.098-0.745 1.765-0.745s1.314 0.275 1.785 0.745l4.609 4.59c0.451 0.471 0.726 1.118 0.726 1.785z"></path>
</svg>
