<?xml version="1.0" encoding="utf-8"?>
<!-- Generated by IcoMoon.io -->
<!DOCTYPE svg PUBLIC "-//W3C//DTD SVG 1.1//EN" "http://www.w3.org/Graphics/SVG/1.1/DTD/svg11.dtd">
<svg version="1.1" xmlns="http://www.w3.org/2000/svg" xmlns:xlink="http://www.w3.org/1999/xlink" width="32" height="32" viewBox="0 0 32 32">
<path d="M25.905 23.429c0-1.354-1.122-2.476-2.476-2.476s-2.476 1.122-2.476 2.476 1.122 2.476 2.476 2.476 2.476-1.122 2.476-2.476zM11.048 8.571c0-1.354-1.122-2.476-2.476-2.476s-2.476 1.122-2.476 2.476 1.122 2.476 2.476 2.476 2.476-1.122 2.476-2.476zM30.857 23.429c0 4.101-3.327 7.429-7.429 7.429s-7.429-3.327-7.429-7.429 3.327-7.429 7.429-7.429 7.429 3.327 7.429 7.429zM29 2.381c0 0.271-0.097 0.522-0.252 0.735l-20.429 27.238c-0.232 0.31-0.6 0.503-0.987 0.503h-3.095c-0.677 0-1.238-0.561-1.238-1.238 0-0.271 0.097-0.522 0.252-0.735l20.429-27.238c0.232-0.31 0.6-0.503 0.987-0.503h3.095c0.677 0 1.238 0.561 1.238 1.238zM16 8.571c0 4.101-3.327 7.429-7.429 7.429s-7.429-3.327-7.429-7.429 3.327-7.429 7.429-7.429 7.429 3.327 7.429 7.429z"></path>
</svg>
