<?xml version="1.0" encoding="utf-8"?>
<!-- Generated by IcoMoon.io -->
<!DOCTYPE svg PUBLIC "-//W3C//DTD SVG 1.1//EN" "http://www.w3.org/Graphics/SVG/1.1/DTD/svg11.dtd">
<svg version="1.1" xmlns="http://www.w3.org/2000/svg" xmlns:xlink="http://www.w3.org/1999/xlink" width="32" height="32" viewBox="0 0 32 32">
<path d="M30.857 24.61c0 0.76-0.338 2.237-0.654 2.933-0.443 1.034-1.625 1.709-2.575 2.237-1.245 0.675-2.511 1.076-3.925 1.076-1.963 0-3.735-0.802-5.529-1.456-1.287-0.464-2.532-1.034-3.693-1.752-3.588-2.216-7.914-6.542-10.13-10.13-0.718-1.161-1.287-2.406-1.752-3.693-0.654-1.794-1.456-3.567-1.456-5.529 0-1.414 0.401-2.68 1.076-3.925 0.528-0.95 1.203-2.131 2.237-2.575 0.696-0.317 2.174-0.654 2.933-0.654 0.148 0 0.295 0 0.443 0.063 0.443 0.148 0.907 1.182 1.119 1.604 0.675 1.203 1.33 2.427 2.026 3.609 0.338 0.549 0.971 1.224 0.971 1.878 0 1.287-3.82 3.166-3.82 4.305 0 0.57 0.528 1.308 0.823 1.815 2.131 3.841 4.791 6.5 8.631 8.631 0.506 0.295 1.245 0.823 1.815 0.823 1.14 0 3.018-3.82 4.305-3.82 0.654 0 1.33 0.633 1.878 0.971 1.182 0.696 2.406 1.351 3.609 2.026 0.422 0.211 1.456 0.675 1.604 1.119 0.063 0.148 0.063 0.295 0.063 0.443z"></path>
</svg>
