<?xml version="1.0" encoding="utf-8"?>
<!-- Generated by IcoMoon.io -->
<!DOCTYPE svg PUBLIC "-//W3C//DTD SVG 1.1//EN" "http://www.w3.org/Graphics/SVG/1.1/DTD/svg11.dtd">
<svg version="1.1" xmlns="http://www.w3.org/2000/svg" xmlns:xlink="http://www.w3.org/1999/xlink" width="32" height="32" viewBox="0 0 32 32">
<path d="M25.905 21.746c0-0.097 0-0.213-0.039-0.31-0.116-0.348-2.94-1.78-3.482-2.089-0.368-0.213-0.813-0.638-1.257-0.638-0.851 0-2.109 2.534-2.863 2.534-0.387 0-0.871-0.348-1.219-0.542-2.554-1.432-4.314-3.192-5.746-5.746-0.193-0.348-0.542-0.832-0.542-1.219 0-0.754 2.534-2.012 2.534-2.863 0-0.445-0.426-0.89-0.638-1.257-0.31-0.542-1.741-3.366-2.089-3.482-0.097-0.039-0.213-0.039-0.31-0.039-0.503 0-1.49 0.232-1.954 0.426-1.277 0.58-2.205 3.018-2.205 4.353 0 1.296 0.522 2.476 0.967 3.676 1.548 4.237 6.152 8.841 10.388 10.388 1.199 0.445 2.379 0.967 3.676 0.967 1.335 0 3.772-0.929 4.353-2.205 0.193-0.464 0.426-1.451 0.426-1.954zM30.857 6.714v18.571c0 3.076-2.496 5.571-5.571 5.571h-18.571c-3.076 0-5.571-2.496-5.571-5.571v-18.571c0-3.076 2.496-5.571 5.571-5.571h18.571c3.076 0 5.571 2.496 5.571 5.571z"></path>
</svg>
