<?xml version="1.0" encoding="utf-8"?>
<!-- Generated by IcoMoon.io -->
<!DOCTYPE svg PUBLIC "-//W3C//DTD SVG 1.1//EN" "http://www.w3.org/Graphics/SVG/1.1/DTD/svg11.dtd">
<svg version="1.1" xmlns="http://www.w3.org/2000/svg" xmlns:xlink="http://www.w3.org/1999/xlink" width="32" height="32" viewBox="0 0 32 32">
<path d="M30.42 5.566c-3.643 2.416-4.031 4.168-4.344 4.707-0.3 0.551-0.526 2.716-1.051 3.768-0.526 1.064-2.441 1.903-2.979 2.253-0.526 0.35-1.277 1.715-1.89 2.892-2.766-0.113-5.508 0.563-7.886 1.978 0 0-1.152 0.663-3.793 2.241 1.327-0.438 1.953-0.751 1.953-0.751 3.305-1.264 4.181-1.865 6.847-2.303 2.053-0.338 4.707-0.063 5.821 0.088 0.050 0 0.088 0.025 0.125 0.038 0.175 0.1 0.238 0.313 0.138 0.488l-2.428 4.319c-0.113 0.213-0.35 0.325-0.588 0.275-0.601-0.113-1.978-0.3-4.431-0.3-3.555 0-6.447 1.089-9.939 1.139-2.942 0.038-4.093-1.164-4.381-1.552 0-0.012-0.012-0.025-0.012-0.038 0-0.050 0.025-0.075 0.075-0.075 0 0 1.727 0 4.644-0.689 3.317-6.321 6.271-8.537 9.488-8.537 0 0 3.23 0 4.081 2.791 1.026-1.79 1.277-2.216 1.277-2.216 0.238-0.426 1.577-3.48 3.893-6.372v0c2.328-2.892 4.081-3.605 5.383-4.143z"></path>
</svg>
