<?xml version="1.0" encoding="utf-8"?>
<!-- Generated by IcoMoon.io -->
<!DOCTYPE svg PUBLIC "-//W3C//DTD SVG 1.1//EN" "http://www.w3.org/Graphics/SVG/1.1/DTD/svg11.dtd">
<svg version="1.1" xmlns="http://www.w3.org/2000/svg" xmlns:xlink="http://www.w3.org/1999/xlink" width="32" height="32" viewBox="0 0 32 32">
<path d="M21.378 18.399c0 1.644-1.122 2.979-2.496 2.979-0.561 0-1.006-0.097-1.354-0.29v-5.359c0.348-0.213 0.793-0.329 1.354-0.329 1.373 0 2.496 1.335 2.496 2.998zM14.742 10.119c0 1.664-1.122 2.998-2.496 2.998-0.561 0-1.006-0.097-1.354-0.29v-5.359c0.348-0.213 0.793-0.329 1.354-0.329 1.373 0 2.496 1.335 2.496 2.979zM25.615 18.457c0-3.463-2.612-6.268-5.823-6.268-0.252 0-0.503 0.019-0.754 0.058-0.29 0.987-0.793 1.877-1.509 2.631-1.083 1.18-2.534 1.877-4.082 1.954v12.304l4.082-0.793v-3.985c0.677 0.252 1.432 0.368 2.263 0.368 3.211 0 5.823-2.805 5.823-6.268zM18.979 10.196c0-3.463-2.612-6.268-5.842-6.268-0.948 0-1.896 0.252-2.728 0.696h-3.598v16.25l4.082-0.793v-3.985c0.677 0.232 1.432 0.368 2.244 0.368 3.231 0 5.842-2.805 5.842-6.268zM30.857 6.714v18.571c0 3.076-2.496 5.571-5.571 5.571h-18.571c-3.076 0-5.571-2.496-5.571-5.571v-18.571c0-3.076 2.496-5.571 5.571-5.571h18.571c3.076 0 5.571 2.496 5.571 5.571z"></path>
</svg>
