<?xml version="1.0" encoding="utf-8"?>
<!-- Generated by IcoMoon.io -->
<!DOCTYPE svg PUBLIC "-//W3C//DTD SVG 1.1//EN" "http://www.w3.org/Graphics/SVG/1.1/DTD/svg11.dtd">
<svg version="1.1" xmlns="http://www.w3.org/2000/svg" xmlns:xlink="http://www.w3.org/1999/xlink" width="32" height="32" viewBox="0 0 32 32">
<path d="M18.953 16.562c3.897-0.15 6.055 3.057 7.823 6.025 1.049 1.783 2.278 2.833 3.792 4.166-1.619 1.004-3.672 1.679-5.41 2.458-2.878-2.413-1.199-11.99-5.815-11.99l-0.15 0.030-0.090 0.060c0.060 0.075 0.135 0.15 0.195 0.21 1.244 1.049 1.738 1.274 1.813 3.057l0.015 0.495c0.045 1.124-0.285 2.218-0.51 3.312-1.004-0.030-1.978 0.3-2.982 0.3-0.375 0-0.734-0.045-1.079-0.15-0.030-0.24-0.030-0.48-0.030-0.704 0-0.465-0.015-0.989 0.045-1.439 0.075-0.495 1.753-1.559 1.724-2.278-0.285-0.030-0.48 0.135-0.644 0.36-0.689 1.019-2.458 2.188-3.717 2.188-0.869 0-2.938-3.732-3.987-4.481-0.165-0.12-0.27-0.285-0.405-0.45-0.839 0.195-7.269 1.679-7.688 1.679-0.315 0-0.599-0.255-0.599-0.57 0-0.285 0.18-0.555 0.465-0.614l7.284-1.589c-0.495-0.899 0.644-0.914 1.124-1.049 0.165-0.045 0.33-0.21 0.495-0.21 0.33 0 0.614 0.465 0.719 0.734 0.33-0.075 2.383-0.555 2.578-0.555 0.33 0 0.629 0.24 0.629 0.584 0 0.285-0.18 0.54-0.48 0.599l-2.728 0.599-0.015 0.24c-0.015 0.525 2.368 3.132 2.788 3.132 0.944 0 2.863-2.173 2.863-3.132 0-1.604-2.233-0.659-2.233-1.753 0-0.18 0.060-0.345 0.15-0.51l-1.019-0.285c0.465-0.48 0.644-1.094 0.644-1.753 0-0.285-0.030-0.585-0.075-0.869 0.764-0.15 1.394-0.24 2.158-0.24 2.967 0 2.383 0.45 3.417 2.833l0.749-0.375c-0.12 1.783-1.888 0.914-1.828 1.619zM19.852 13.040c-0.584-0.674-0.839-1.004-1.184-1.154-0.36-0.165-0.824-0.12-1.903-0.12-1.124 0-2.233 0.165-3.252 0.644 0.33-0.614 0.689-0.884 1.349-1.139 1.424-0.54 2.098-1.589 3.072-2.668 0.51 0.36 0.734 1.259 1.469 1.214l0.18-0.015v1.139l0.33 0.015c1.948-0.749 3.897-1.574 5.56-2.848 2.518-1.918 2.758-2.608 4.241-5.215l0.105-0.135c-0.030 0.734-0.33 1.424-0.644 2.083-1.589 3.327-4.106 5.231-7.658 6.085-0.644 0.15-1.379 0.165-1.963 0.465 0.075 0.51 0.689 0.944 0.689 1.199 0 0.18-0.285 0.375-0.39 0.45zM16.54 26.843c0.824-0.54 3.177-1.034 4.166-1.034 0.495 0 1.469 2.353 1.724 2.878-1.169 0.435-2.398 0.674-3.657 0.674-0.629 0-1.259-0.060-1.873-0.165zM12.958 17.147l0.719-0.18 1.634 2.653-1.094 0.719zM20.467 24.895c0.015 0.075 0.045 0.165 0.045 0.24 0 0.39-2.578 0.659-3.042 0.734l-0.105-0.644c0.929-0.105 1.963-0.345 2.893-0.33h0.21zM13.618 15.483l-1.439 0.3-0.090-0.255c0.345-0.030 0.659-0.195 1.004-0.195 0.195 0 0.36 0.045 0.525 0.15zM16.54 24.985h0.465l0.15 1.244-0.614 0.18v-1.424zM29.864 2.654v0 0zM29.864 2.654l-0.015 0.075-0.030 0.030 0.015-0.045zM29.864 2.654l0.015-0.015z"></path>
</svg>
