<?xml version="1.0" encoding="utf-8"?>
<!-- Generated by IcoMoon.io -->
<!DOCTYPE svg PUBLIC "-//W3C//DTD SVG 1.1//EN" "http://www.w3.org/Graphics/SVG/1.1/DTD/svg11.dtd">
<svg version="1.1" xmlns="http://www.w3.org/2000/svg" xmlns:xlink="http://www.w3.org/1999/xlink" width="32" height="32" viewBox="0 0 32 32">
<path d="M30.857 16c0 8.202-6.655 14.857-14.857 14.857-1.47 0-2.863-0.213-4.217-0.619 0.561-0.89 1.199-2.031 1.509-3.173 0 0 0.174-0.658 1.045-4.082 0.503 0.987 2.012 1.857 3.618 1.857 4.778 0 8.028-4.353 8.028-10.195 0-4.391-3.734-8.512-9.421-8.512-7.042 0-10.601 5.068-10.601 9.286 0 2.554 0.967 4.836 3.037 5.688 0.329 0.135 0.638 0 0.735-0.387 0.077-0.252 0.232-0.909 0.31-1.18 0.097-0.387 0.058-0.503-0.213-0.832-0.6-0.716-0.987-1.625-0.987-2.921 0-3.753 2.805-7.119 7.312-7.119 3.985 0 6.19 2.438 6.19 5.707 0 4.275-1.896 7.893-4.72 7.893-1.548 0-2.708-1.277-2.341-2.863 0.445-1.877 1.315-3.908 1.315-5.262 0-1.219-0.658-2.244-2.012-2.244-1.586 0-2.863 1.644-2.863 3.85 0 0 0 1.412 0.484 2.36-1.625 6.887-1.915 8.086-1.915 8.086-0.271 1.122-0.29 2.379-0.252 3.424-5.243-2.302-8.899-7.525-8.899-13.619 0-8.202 6.655-14.857 14.857-14.857s14.857 6.655 14.857 14.857z"></path>
</svg>
