<?xml version="1.0" encoding="utf-8"?>
<!-- Generated by IcoMoon.io -->
<!DOCTYPE svg PUBLIC "-//W3C//DTD SVG 1.1//EN" "http://www.w3.org/Graphics/SVG/1.1/DTD/svg11.dtd">
<svg version="1.1" xmlns="http://www.w3.org/2000/svg" xmlns:xlink="http://www.w3.org/1999/xlink" width="32" height="32" viewBox="0 0 32 32">
<path d="M25.286 1.143c3.076 0 5.571 2.496 5.571 5.571v18.571c0 3.076-2.496 5.571-5.571 5.571h-14.025c0.638-0.909 1.683-2.476 2.089-4.063 0 0 0.174-0.658 1.025-4.043 0.522 0.987 2.012 1.838 3.598 1.838 4.72 0 7.932-4.314 7.932-10.079 0-4.353-3.695-8.415-9.305-8.415-6.984 0-10.504 5.010-10.504 9.189 0 2.515 0.967 4.759 3.018 5.61 0.329 0.135 0.638 0 0.735-0.368 0.058-0.252 0.213-0.909 0.29-1.18 0.097-0.368 0.058-0.503-0.213-0.813-0.58-0.716-0.967-1.606-0.967-2.902 0-3.714 2.786-7.022 7.235-7.022 3.946 0 6.113 2.399 6.113 5.629 0 4.237-1.877 7.815-4.662 7.815-1.528 0-2.689-1.277-2.321-2.844 0.445-1.857 1.296-3.869 1.296-5.204 0-1.199-0.638-2.205-1.973-2.205-1.567 0-2.824 1.625-2.824 3.792 0 0 0 1.393 0.464 2.341-1.606 6.81-1.896 8.009-1.896 8.009-0.426 1.78-0.252 3.85-0.135 4.914h-3.54c-3.076 0-5.571-2.496-5.571-5.571v-18.571c0-3.076 2.496-5.571 5.571-5.571h18.571z"></path>
</svg>
