<?xml version="1.0" encoding="utf-8"?>
<!-- Generated by IcoMoon.io -->
<!DOCTYPE svg PUBLIC "-//W3C//DTD SVG 1.1//EN" "http://www.w3.org/Graphics/SVG/1.1/DTD/svg11.dtd">
<svg version="1.1" xmlns="http://www.w3.org/2000/svg" xmlns:xlink="http://www.w3.org/1999/xlink" width="33" height="32" viewBox="0 0 33 32">
<path d="M29.823 2.464c1.321 1.321 0 4.622-1.981 6.603l-3.322 3.322 3.302 14.362c0.062 0.248-0.041 0.516-0.248 0.681l-2.641 1.981c-0.103 0.083-0.248 0.124-0.392 0.124-0.041 0-0.083 0-0.144-0.021-0.186-0.041-0.351-0.144-0.433-0.33l-5.757-10.483-5.344 5.344 1.094 4.003c0.062 0.227 0 0.454-0.165 0.64l-1.981 1.981c-0.124 0.124-0.309 0.186-0.475 0.186h-0.041c-0.206-0.021-0.371-0.103-0.495-0.268l-3.9-5.2-5.2-3.9c-0.165-0.103-0.248-0.289-0.268-0.475s0.062-0.371 0.186-0.516l1.981-2.002c0.124-0.124 0.309-0.186 0.475-0.186 0.062 0 0.124 0 0.165 0.021l4.003 1.094 5.344-5.344-10.483-5.757c-0.186-0.103-0.309-0.289-0.351-0.495-0.021-0.186 0.041-0.413 0.186-0.557l2.641-2.641c0.165-0.144 0.413-0.227 0.619-0.165l13.722 3.281 3.302-3.302c1.981-1.981 5.283-3.302 6.603-1.981z"></path>
</svg>
