<?xml version="1.0" encoding="utf-8"?>
<!-- Generated by IcoMoon.io -->
<!DOCTYPE svg PUBLIC "-//W3C//DTD SVG 1.1//EN" "http://www.w3.org/Graphics/SVG/1.1/DTD/svg11.dtd">
<svg version="1.1" xmlns="http://www.w3.org/2000/svg" xmlns:xlink="http://www.w3.org/1999/xlink" width="32" height="32" viewBox="0 0 32 32">
<path d="M24.048 16c0 0.445-0.232 0.851-0.619 1.064l-10.524 6.19c-0.193 0.116-0.406 0.174-0.619 0.174s-0.426-0.058-0.619-0.155c-0.387-0.232-0.619-0.638-0.619-1.083v-12.381c0-0.445 0.232-0.851 0.619-1.083 0.387-0.213 0.871-0.213 1.238 0.019l10.524 6.19c0.387 0.213 0.619 0.619 0.619 1.064zM26.524 16c0-5.804-4.72-10.524-10.524-10.524s-10.524 4.72-10.524 10.524 4.72 10.524 10.524 10.524 10.524-4.72 10.524-10.524zM30.857 16c0 8.202-6.655 14.857-14.857 14.857s-14.857-6.655-14.857-14.857 6.655-14.857 14.857-14.857 14.857 6.655 14.857 14.857z"></path>
</svg>
