<?xml version="1.0" encoding="utf-8"?>
<!-- Generated by IcoMoon.io -->
<!DOCTYPE svg PUBLIC "-//W3C//DTD SVG 1.1//EN" "http://www.w3.org/Graphics/SVG/1.1/DTD/svg11.dtd">
<svg version="1.1" xmlns="http://www.w3.org/2000/svg" xmlns:xlink="http://www.w3.org/1999/xlink" width="32" height="32" viewBox="0 0 32 32">
<path d="M16 1.143c8.202 0 14.857 6.655 14.857 14.857s-6.655 14.857-14.857 14.857-14.857-6.655-14.857-14.857 6.655-14.857 14.857-14.857zM23.429 17.064c0.387-0.213 0.619-0.619 0.619-1.064s-0.232-0.851-0.619-1.064l-10.524-6.19c-0.368-0.232-0.851-0.232-1.238-0.019-0.387 0.232-0.619 0.638-0.619 1.083v12.381c0 0.445 0.232 0.851 0.619 1.083 0.193 0.097 0.406 0.155 0.619 0.155s0.426-0.058 0.619-0.174z"></path>
</svg>
