<?xml version="1.0" encoding="utf-8"?>
<!-- Generated by IcoMoon.io -->
<!DOCTYPE svg PUBLIC "-//W3C//DTD SVG 1.1//EN" "http://www.w3.org/Graphics/SVG/1.1/DTD/svg11.dtd">
<svg version="1.1" xmlns="http://www.w3.org/2000/svg" xmlns:xlink="http://www.w3.org/1999/xlink" width="32" height="32" viewBox="0 0 32 32">
<path d="M30.157 8.802c0.807 0.824 0.807 2.158 0 2.981l-6.605 6.588 2.471 2.471-2.635 2.635c-3.607 3.607-9.109 4.118-13.194 1.417l-5.963 5.963h-2.981v-2.981l5.963-5.963c-2.701-4.085-2.191-9.586 1.417-13.194l2.635-2.635 2.471 2.471 6.588-6.605c0.824-0.807 2.158-0.807 2.981 0 0.824 0.824 0.824 2.174 0 2.981l-6.588 6.605 3.854 3.854 6.605-6.588c0.824-0.824 2.158-0.824 2.981 0z"></path>
</svg>
