<?xml version="1.0" encoding="utf-8"?>
<!-- Generated by IcoMoon.io -->
<!DOCTYPE svg PUBLIC "-//W3C//DTD SVG 1.1//EN" "http://www.w3.org/Graphics/SVG/1.1/DTD/svg11.dtd">
<svg version="1.1" xmlns="http://www.w3.org/2000/svg" xmlns:xlink="http://www.w3.org/1999/xlink" width="32" height="32" viewBox="0 0 32 32">
<path d="M29.714 14.13v3.74c0 1.032-0.838 1.87-1.87 1.87h-8.104v8.104c0 1.032-0.838 1.87-1.87 1.87h-3.74c-1.032 0-1.87-0.838-1.87-1.87v-8.104h-8.104c-1.032 0-1.87-0.838-1.87-1.87v-3.74c0-1.032 0.838-1.87 1.87-1.87h8.104v-8.104c0-1.032 0.838-1.87 1.87-1.87h3.74c1.032 0 1.87 0.838 1.87 1.87v8.104h8.104c1.032 0 1.87 0.838 1.87 1.87z"></path>
</svg>
