<?xml version="1.0" encoding="utf-8"?>
<!-- Generated by IcoMoon.io -->
<!DOCTYPE svg PUBLIC "-//W3C//DTD SVG 1.1//EN" "http://www.w3.org/Graphics/SVG/1.1/DTD/svg11.dtd">
<svg version="1.1" xmlns="http://www.w3.org/2000/svg" xmlns:xlink="http://www.w3.org/1999/xlink" width="32" height="32" viewBox="0 0 32 32">
<path d="M24.667 17.238v-2.476c0-0.677-0.561-1.238-1.238-1.238h-4.952v-4.952c0-0.677-0.561-1.238-1.238-1.238h-2.476c-0.677 0-1.238 0.561-1.238 1.238v4.952h-4.952c-0.677 0-1.238 0.561-1.238 1.238v2.476c0 0.677 0.561 1.238 1.238 1.238h4.952v4.952c0 0.677 0.561 1.238 1.238 1.238h2.476c0.677 0 1.238-0.561 1.238-1.238v-4.952h4.952c0.677 0 1.238-0.561 1.238-1.238zM30.857 16c0 8.202-6.655 14.857-14.857 14.857s-14.857-6.655-14.857-14.857 6.655-14.857 14.857-14.857 14.857 6.655 14.857 14.857z"></path>
</svg>
