<?xml version="1.0" encoding="utf-8"?>
<!-- Generated by IcoMoon.io -->
<!DOCTYPE svg PUBLIC "-//W3C//DTD SVG 1.1//EN" "http://www.w3.org/Graphics/SVG/1.1/DTD/svg11.dtd">
<svg version="1.1" xmlns="http://www.w3.org/2000/svg" xmlns:xlink="http://www.w3.org/1999/xlink" width="32" height="32" viewBox="0 0 32 32">
<path d="M19.682 21.050c0 1.079-0.114 2.157-0.278 3.22-0.245 1.7-0.49 3.449-0.899 5.116-0.294 1.193-1.406 1.471-2.484 1.471s-2.19-0.278-2.484-1.471c-0.409-1.667-0.654-3.416-0.899-5.116-0.163-1.062-0.278-2.141-0.278-3.22 0-2.207 1.782-2.746 3.661-2.746s3.661 0.539 3.661 2.746zM28.54 14.12c0 5.296-3.269 9.823-7.911 11.67-0.18 0.065-0.376-0.098-0.343-0.294 0.049-0.343 0.098-0.703 0.163-1.079 0.033-0.262 0.065-0.523 0.098-0.768 0.016-0.098 0.065-0.163 0.147-0.196 3.4-1.733 5.753-5.263 5.753-9.333 0-5.966-5.001-10.771-11.033-10.444-5.524 0.294-9.921 5.001-9.888 10.526 0.033 4.070 2.403 7.584 5.819 9.284 0.082 0.033 0.131 0.114 0.147 0.196 0.033 0.229 0.065 0.474 0.098 0.735 0.065 0.392 0.114 0.752 0.18 1.111 0.033 0.196-0.18 0.36-0.36 0.278-4.854-1.896-8.238-6.734-7.96-12.307 0.311-6.325 5.41-11.507 11.735-11.899 7.29-0.458 13.353 5.328 13.353 12.52zM19.682 13.597c0 2.027-1.634 3.661-3.661 3.661s-3.661-1.634-3.661-3.661 1.634-3.661 3.661-3.661 3.661 1.634 3.661 3.661zM24.389 14.12c0 2.697-1.291 5.116-3.269 6.636-0.163 0.131-0.392 0.016-0.425-0.196-0.049-0.458-0.18-0.997-0.474-1.504-0.065-0.098-0.049-0.229 0.049-0.327 1.242-1.144 2.027-2.779 2.027-4.609 0-3.694-3.22-6.652-6.995-6.244-2.893 0.327-5.247 2.713-5.524 5.622-0.213 2.059 0.605 3.955 1.994 5.23 0.098 0.098 0.114 0.229 0.049 0.327-0.294 0.507-0.425 1.046-0.474 1.52-0.033 0.196-0.261 0.311-0.425 0.18-2.027-1.569-3.318-4.037-3.269-6.816 0.098-4.348 3.628-7.976 7.96-8.172 4.805-0.229 8.777 3.596 8.777 8.352z"></path>
</svg>
