<?xml version="1.0" encoding="utf-8"?>
<!-- Generated by IcoMoon.io -->
<!DOCTYPE svg PUBLIC "-//W3C//DTD SVG 1.1//EN" "http://www.w3.org/Graphics/SVG/1.1/DTD/svg11.dtd">
<svg version="1.1" xmlns="http://www.w3.org/2000/svg" xmlns:xlink="http://www.w3.org/1999/xlink" width="32" height="32" viewBox="0 0 32 32">
<path d="M8.051 27.355h15.897v-4.542h-15.897v4.542zM8.051 16h15.897v-6.813h-2.839c-0.94 0-1.703-0.763-1.703-1.703v-2.839h-11.355v11.355zM28.491 17.136c0-0.621-0.515-1.136-1.136-1.136s-1.136 0.515-1.136 1.136 0.515 1.136 1.136 1.136 1.136-0.515 1.136-1.136zM30.762 17.136v7.381c0 0.302-0.266 0.568-0.568 0.568h-3.974v2.839c0 0.94-0.763 1.703-1.703 1.703h-17.033c-0.94 0-1.703-0.763-1.703-1.703v-2.839h-3.974c-0.302 0-0.568-0.266-0.568-0.568v-7.381c0-1.863 1.544-3.407 3.407-3.407h1.136v-9.652c0-0.94 0.763-1.703 1.703-1.703h11.923c0.94 0 2.236 0.532 2.91 1.207l2.697 2.697c0.674 0.674 1.206 1.969 1.206 2.91v4.542h1.136c1.863 0 3.407 1.544 3.407 3.407z"></path>
</svg>
