<?xml version="1.0" encoding="utf-8"?>
<!-- Generated by IcoMoon.io -->
<!DOCTYPE svg PUBLIC "-//W3C//DTD SVG 1.1//EN" "http://www.w3.org/Graphics/SVG/1.1/DTD/svg11.dtd">
<svg version="1.1" xmlns="http://www.w3.org/2000/svg" xmlns:xlink="http://www.w3.org/1999/xlink" width="32" height="32" viewBox="0 0 32 32">
<path d="M20.212 13.778c0 1.227-0.995 2.222-2.239 2.222v0h-4.195v-4.46h4.195c1.244 0 2.239 0.995 2.239 2.239zM23.18 13.778c0-2.885-2.321-5.207-5.207-5.207v0h-7.18v14.857h2.985v-4.46h4.195c2.885 0 5.207-2.321 5.207-5.19zM30.857 16c0 8.208-6.649 14.857-14.857 14.857s-14.857-6.649-14.857-14.857 6.649-14.857 14.857-14.857 14.857 6.649 14.857 14.857z"></path>
</svg>
