<?xml version="1.0" encoding="utf-8"?>
<!-- Generated by IcoMoon.io -->
<!DOCTYPE svg PUBLIC "-//W3C//DTD SVG 1.1//EN" "http://www.w3.org/Graphics/SVG/1.1/DTD/svg11.dtd">
<svg version="1.1" xmlns="http://www.w3.org/2000/svg" xmlns:xlink="http://www.w3.org/1999/xlink" width="32" height="32" viewBox="0 0 32 32">
<path d="M30.79 21.546c0 1.831-1.049 3.36-2.986 3.36-2.169 0-2.738-1.973-4.693-1.973-1.422 0-1.955 0.889-1.955 2.204 0 1.387 0.569 2.72 0.551 4.089v0.089c-0.196 0-0.391 0-0.587 0.018-1.831 0.178-3.68 0.533-5.529 0.533-1.262 0-2.578-0.498-2.578-1.955 0-1.955 1.973-2.524 1.973-4.693 0-1.938-1.529-2.986-3.36-2.986-1.867 0-3.591 1.031-3.591 3.075 0 2.258 1.724 3.235 1.724 4.462 0 0.622-0.391 1.173-0.818 1.582-0.551 0.516-1.333 0.622-2.080 0.622-1.458 0-2.915-0.196-4.355-0.427-0.32-0.053-0.658-0.089-0.978-0.142l-0.231-0.036c-0.036-0.018-0.089-0.018-0.089-0.036v-18.203c0.071 0.053 1.12 0.178 1.298 0.213 1.44 0.231 2.898 0.427 4.355 0.427 0.747 0 1.529-0.107 2.080-0.622 0.427-0.409 0.818-0.96 0.818-1.582 0-1.227-1.724-2.204-1.724-4.462 0-2.044 1.724-3.075 3.609-3.075 1.813 0 3.342 1.049 3.342 2.986 0 2.169-1.973 2.738-1.973 4.693 0 1.458 1.316 1.955 2.578 1.955 2.044 0 4.071-0.462 6.097-0.569v0.036c-0.053 0.071-0.178 1.12-0.213 1.298-0.231 1.44-0.427 2.898-0.427 4.355 0 0.747 0.107 1.529 0.622 2.080 0.409 0.427 0.96 0.818 1.582 0.818 1.227 0 2.204-1.724 4.462-1.724 2.044 0 3.075 1.724 3.075 3.591z"></path>
</svg>
