<?xml version="1.0" encoding="utf-8"?>
<!-- Generated by IcoMoon.io -->
<!DOCTYPE svg PUBLIC "-//W3C//DTD SVG 1.1//EN" "http://www.w3.org/Graphics/SVG/1.1/DTD/svg11.dtd">
<svg version="1.1" xmlns="http://www.w3.org/2000/svg" xmlns:xlink="http://www.w3.org/1999/xlink" width="32" height="32" viewBox="0 0 32 32">
<path d="M5.62 14.508c-0.116-0.282-0.133-0.564-0.133-0.862 0-0.464 0.298-1.21 0.58-1.559-0.017-0.431 0.166-1.31 0.497-1.592 0-3.068 2.371-6.931 5.14-8.258 1.708-0.813 3.499-1.094 5.372-1.094 1.459 0 3.051 0.348 4.411 0.912 3.897 1.642 4.776 4.693 5.605 8.589l0.017 0.083c0.481 0.73 0.912 1.592 0.912 2.487 0 0.448-0.298 0.895-0.298 1.293 0 0.033 0.099 0.166 0.116 0.199 1.426 2.106 2.719 4.394 2.719 7.014 0 0.58-0.315 2.603-1.244 2.603-0.647 0-1.36-1.575-1.592-2.006-0.017-0.017-0.033-0.017-0.050-0.017l-0.083 0.066c-0.531 1.376-1.111 2.67-2.189 3.698 0.945 0.912 2.471 0.829 2.753 2.404-0.083 0.182-0.050 0.381-0.182 0.564-0.945 1.426-3.482 1.608-5.008 1.608-2.023 0-3.665-0.531-5.571-1.094-0.398-0.116-0.995-0.050-1.426-0.099-1.011 1.111-3.482 1.409-4.908 1.409-1.26 0-6.135-0.083-6.135-2.239 0-0.929 0.199-1.194 0.846-1.791 0.514-0.099 0.895-0.381 1.492-0.415 0.083 0 0.149-0.017 0.232-0.033 0.017-0.017 0.033-0.017 0.033-0.066l-0.033-0.050c-1.144-0.265-2.753-3.151-3.001-4.344l-0.083-0.050c-0.116 0-0.166 0.249-0.199 0.332-0.365 0.846-1.227 1.758-2.189 1.857h-0.017c-0.133 0-0.083-0.133-0.182-0.166-0.232-0.547-0.381-1.045-0.381-1.658 0-3.316 1.592-5.77 4.179-7.727z"></path>
</svg>
