<?xml version="1.0" encoding="utf-8"?>
<!-- Generated by IcoMoon.io -->
<!DOCTYPE svg PUBLIC "-//W3C//DTD SVG 1.1//EN" "http://www.w3.org/Graphics/SVG/1.1/DTD/svg11.dtd">
<svg version="1.1" xmlns="http://www.w3.org/2000/svg" xmlns:xlink="http://www.w3.org/1999/xlink" width="32" height="32" viewBox="0 0 32 32">
<path d="M9.247 22.753v2.701h-2.701v-2.701h2.701zM9.247 6.545v2.701h-2.701v-2.701h2.701zM25.455 6.545v2.701h-2.701v-2.701h2.701zM3.844 28.135h8.104v-8.083h-8.104v8.083zM3.844 11.948h8.104v-8.104h-8.104v8.104zM20.052 11.948h8.104v-8.104h-8.104v8.104zM14.649 17.351v13.506h-13.506v-13.506h13.506zM25.455 28.156v2.701h-2.701v-2.701h2.701zM30.857 28.156v2.701h-2.701v-2.701h2.701zM30.857 17.351v8.104h-8.104v-2.701h-2.701v8.104h-2.701v-13.506h8.104v2.701h2.701v-2.701h2.701zM14.649 1.143v13.506h-13.506v-13.506h13.506zM30.857 1.143v13.506h-13.506v-13.506h13.506z"></path>
</svg>
