<?xml version="1.0" encoding="utf-8"?>
<!-- Generated by IcoMoon.io -->
<!DOCTYPE svg PUBLIC "-//W3C//DTD SVG 1.1//EN" "http://www.w3.org/Graphics/SVG/1.1/DTD/svg11.dtd">
<svg version="1.1" xmlns="http://www.w3.org/2000/svg" xmlns:xlink="http://www.w3.org/1999/xlink" width="32" height="32" viewBox="0 0 32 32">
<path d="M19.653 24.357v5.571c0 0.511-0.418 0.929-0.929 0.929h-5.571c-0.511 0-0.929-0.418-0.929-0.929v-5.571c0-0.511 0.418-0.929 0.929-0.929h5.571c0.511 0 0.929 0.418 0.929 0.929zM26.989 10.429c0 4.411-2.995 6.105-5.2 7.336-1.37 0.789-2.229 2.391-2.229 3.064v0c0 0.511-0.395 1.114-0.929 1.114h-5.571c-0.511 0-0.836-0.789-0.836-1.3v-1.045c0-2.809 2.786-5.223 4.829-6.152 1.788-0.813 2.53-1.579 2.53-3.064 0-1.3-1.695-2.461-3.575-2.461-1.045 0-1.996 0.325-2.507 0.673-0.557 0.395-1.114 0.952-2.484 2.67-0.186 0.232-0.464 0.371-0.72 0.371-0.209 0-0.395-0.070-0.58-0.186l-3.807-2.902c-0.395-0.302-0.487-0.813-0.232-1.23 2.507-4.155 6.036-6.175 10.771-6.175 4.968 0 10.539 3.97 10.539 9.286z"></path>
</svg>
