<?xml version="1.0" encoding="utf-8"?>
<!-- Generated by IcoMoon.io -->
<!DOCTYPE svg PUBLIC "-//W3C//DTD SVG 1.1//EN" "http://www.w3.org/Graphics/SVG/1.1/DTD/svg11.dtd">
<svg version="1.1" xmlns="http://www.w3.org/2000/svg" xmlns:xlink="http://www.w3.org/1999/xlink" width="32" height="32" viewBox="0 0 32 32">
<path d="M18.167 21.881v3.095c0 0.348-0.271 0.619-0.619 0.619h-3.095c-0.348 0-0.619-0.271-0.619-0.619v-3.095c0-0.348 0.271-0.619 0.619-0.619h3.095c0.348 0 0.619 0.271 0.619 0.619zM23.119 12.286c0 2.747-1.915 3.83-3.327 4.624-1.006 0.58-1.625 0.948-1.625 1.567v0.619c0 0.348-0.271 0.619-0.619 0.619h-3.095c-0.348 0-0.619-0.271-0.619-0.619v-1.315c0-2.379 1.702-3.134 3.076-3.753 1.161-0.542 1.877-0.909 1.877-1.78 0-1.122-1.412-1.954-2.689-1.954-0.677 0-1.393 0.213-1.838 0.522-0.426 0.29-0.832 0.716-1.548 1.606-0.116 0.155-0.29 0.232-0.484 0.232-0.135 0-0.271-0.039-0.368-0.116l-2.089-1.586c-0.252-0.193-0.31-0.561-0.135-0.832 1.586-2.496 3.811-3.714 6.752-3.714v0c3.173 0 6.732 2.515 6.732 5.881zM16 3.619c-6.829 0-12.381 5.552-12.381 12.381s5.552 12.381 12.381 12.381 12.381-5.552 12.381-12.381-5.552-12.381-12.381-12.381zM30.857 16c0 8.202-6.655 14.857-14.857 14.857s-14.857-6.655-14.857-14.857 6.655-14.857 14.857-14.857v0c8.202 0 14.857 6.655 14.857 14.857z"></path>
</svg>
