<?xml version="1.0" encoding="utf-8"?>
<!-- Generated by IcoMoon.io -->
<!DOCTYPE svg PUBLIC "-//W3C//DTD SVG 1.1//EN" "http://www.w3.org/Graphics/SVG/1.1/DTD/svg11.dtd">
<svg version="1.1" xmlns="http://www.w3.org/2000/svg" xmlns:xlink="http://www.w3.org/1999/xlink" width="32" height="32" viewBox="0 0 32 32">
<path d="M21.957 14.193c0-6.915-2.156-10.463-7.213-10.463-4.974 0-7.13 3.548-7.13 10.463 0 6.881 2.156 10.397 7.13 10.397 0.796 0 1.509-0.083 2.172-0.282v0c-1.028-2.023-2.239-4.063-4.593-4.063-0.448 0-0.895 0.066-1.31 0.265l-0.813-1.608c0.978-0.846 2.554-1.509 4.577-1.509 3.167 0 4.775 1.526 6.069 3.466 0.746-1.658 1.111-3.897 1.111-6.666zM28.424 24.672h1.94c0.116 1.194-0.481 6.185-5.903 6.185-3.283 0-5.008-1.907-6.318-4.129v0c-1.078 0.298-2.239 0.448-3.399 0.448-6.633 0-13.116-5.29-13.116-12.983 0-7.76 6.5-13.050 13.116-13.050 6.749 0 13.166 5.256 13.166 13.050 0 4.344-2.023 7.876-4.958 10.148 0.945 1.426 1.923 2.371 3.283 2.371 1.492 0 2.089-1.144 2.189-2.040z"></path>
</svg>
