<?xml version="1.0" encoding="utf-8"?>
<!-- Generated by IcoMoon.io -->
<!DOCTYPE svg PUBLIC "-//W3C//DTD SVG 1.1//EN" "http://www.w3.org/Graphics/SVG/1.1/DTD/svg11.dtd">
<svg version="1.1" xmlns="http://www.w3.org/2000/svg" xmlns:xlink="http://www.w3.org/1999/xlink" width="32" height="32" viewBox="0 0 32 32">
<path d="M14.873 18.254v6.761c0 1.866-1.514 3.381-3.381 3.381h-6.761c-1.866 0-3.381-1.514-3.381-3.381v-12.396c0-4.965 4.050-9.015 9.015-9.015h1.127c0.616 0 1.127 0.511 1.127 1.127v2.254c0 0.616-0.511 1.127-1.127 1.127h-1.127c-2.483 0-4.508 2.025-4.508 4.508v0.563c0 0.933 0.757 1.69 1.69 1.69h3.944c1.866 0 3.381 1.514 3.381 3.381zM30.649 18.254v6.761c0 1.866-1.514 3.381-3.381 3.381h-6.761c-1.866 0-3.381-1.514-3.381-3.381v-12.396c0-4.965 4.050-9.015 9.015-9.015h1.127c0.616 0 1.127 0.511 1.127 1.127v2.254c0 0.616-0.511 1.127-1.127 1.127h-1.127c-2.483 0-4.508 2.025-4.508 4.508v0.563c0 0.933 0.757 1.69 1.69 1.69h3.944c1.866 0 3.381 1.514 3.381 3.381z"></path>
</svg>
