<?xml version="1.0" encoding="utf-8"?>
<!-- Generated by IcoMoon.io -->
<!DOCTYPE svg PUBLIC "-//W3C//DTD SVG 1.1//EN" "http://www.w3.org/Graphics/SVG/1.1/DTD/svg11.dtd">
<svg version="1.1" xmlns="http://www.w3.org/2000/svg" xmlns:xlink="http://www.w3.org/1999/xlink" width="32" height="32" viewBox="0 0 32 32">
<path d="M1.453 15.635c0.166-4.742 2.587-9.12 6.981-12.005 0.017 0 0.116-0.033 0.066 0.050-0.348 0.332-6.666 7.777-0.846 13.564 2.985 2.968 5.389 0.149 5.389 0.149 2.305-3.001-0.033-7.545-0.033-7.545-0.597-1.492-2.736-2.404-2.736-2.404l1.724-1.907c1.459 0.63 2.587 2.321 2.587 2.321 0.050-1.774-1.31-3.681-1.31-3.681l2.67-3.034 2.653 3.001c-1.227 1.724-1.31 3.747-1.31 3.747 0.829-1.376 2.603-2.355 2.603-2.355l1.708 1.907c-1.642 0.531-2.719 2.388-2.719 2.388-0.945 1.708-1.625 5.356 0.033 7.628 1.94 2.67 5.256-0.166 5.256-0.166 6.152-5.505-0.63-13.481-0.63-13.481-0.365-0.332 0.050-0.166 0.050-0.166 3.001 2.189 6.865 5.057 6.964 12.27 0.116 8.722-5.986 14.94-14.525 14.94-8.341 0-14.824-6.964-14.575-15.222z"></path>
</svg>
