<?xml version="1.0" encoding="utf-8"?>
<!-- Generated by IcoMoon.io -->
<!DOCTYPE svg PUBLIC "-//W3C//DTD SVG 1.1//EN" "http://www.w3.org/Graphics/SVG/1.1/DTD/svg11.dtd">
<svg version="1.1" xmlns="http://www.w3.org/2000/svg" xmlns:xlink="http://www.w3.org/1999/xlink" width="32" height="32" viewBox="0 0 32 32">
<path d="M12.221 10.234c-0.92 1.413-1.594 2.941-2.251 4.485-0.953-1.988-2.004-3.976-4.485-3.976h-3.68c-0.296 0-0.526-0.23-0.526-0.526v-3.154c0-0.296 0.23-0.526 0.526-0.526h3.68c2.924 0 5.076 1.364 6.736 3.696zM30.72 23.36c0 0.131-0.049 0.279-0.148 0.378l-5.257 5.257c-0.099 0.099-0.246 0.148-0.378 0.148-0.279 0-0.526-0.246-0.526-0.526v-3.154c-4.879 0-7.886 0.575-10.925-3.696 0.904-1.413 1.577-2.941 2.234-4.485 0.953 1.988 2.004 3.976 4.485 3.976h4.206v-3.154c0-0.296 0.23-0.526 0.526-0.526 0.148 0 0.279 0.066 0.394 0.164l5.241 5.241c0.099 0.099 0.148 0.246 0.148 0.378zM30.72 8.64c0 0.131-0.049 0.279-0.148 0.378l-5.257 5.257c-0.099 0.099-0.246 0.148-0.378 0.148-0.279 0-0.526-0.23-0.526-0.526v-3.154h-4.206c-2.185 0-3.22 1.495-4.14 3.269-0.476 0.92-0.887 1.873-1.281 2.809-1.824 4.239-3.959 8.641-9.299 8.641h-3.68c-0.296 0-0.526-0.23-0.526-0.526v-3.154c0-0.296 0.23-0.526 0.526-0.526h3.68c2.185 0 3.22-1.495 4.14-3.269 0.476-0.92 0.887-1.873 1.281-2.809 1.824-4.239 3.959-8.641 9.299-8.641h4.206v-3.154c0-0.296 0.23-0.526 0.526-0.526 0.148 0 0.279 0.066 0.394 0.164l5.241 5.241c0.099 0.099 0.148 0.246 0.148 0.378z"></path>
</svg>
