<?xml version="1.0" encoding="utf-8"?>
<!-- Generated by IcoMoon.io -->
<!DOCTYPE svg PUBLIC "-//W3C//DTD SVG 1.1//EN" "http://www.w3.org/Graphics/SVG/1.1/DTD/svg11.dtd">
<svg version="1.1" xmlns="http://www.w3.org/2000/svg" xmlns:xlink="http://www.w3.org/1999/xlink" width="33" height="32" viewBox="0 0 33 32">
<path d="M16.835 28.254c-0.057-0.014-0.099-0.028-0.156-0.057 0 0-4.666-2.737-6.24-7.162-0.525-0.085-1.631-0.34-2.482-0.525v0c1.234 4.014 4.666 7.077 8.878 7.744zM7.744 19.659l2.383 0.397c-0.808-2.425-0.908-5.191-0.908-5.191-0.95 0.922-1.461 2.184-1.716 3.177v0c0.043 0.553 0.113 1.092 0.241 1.617zM9.304 11.022v0c-0.44 0.652-0.794 1.362-1.092 2.099 0.468-0.496 0.851-0.823 1.050-0.964-0.028-0.425 0.043-1.135 0.043-1.135zM29.684 17.177c0-6.184-4.992-11.204-11.119-11.204-2.837 0-5.418 1.078-7.389 2.851-0.298 0.582-0.496 1.319-0.638 2.269 3.021-2.567 8.41-1.929 8.41-1.929 1.347 0.057 1.191 1.248 1.177 1.617-4.907-0.411-7.318 0.993-9.701 3.021 0 0 0.468 4.538 1.546 6.382 6.212 0.284 10.935-3.092 10.935-3.092 0.596-0.425 1.12-0.468 1.234 0.269 0.085 0.596 0.128 1.404-0.553 1.716-2.071 0.964-4.354 1.574-6.623 1.9-1.475 0.213-2.298 0.269-4.496 0.227 2.099 4.879 7.347 6.212 7.347 6.212 1.645 0.269 2.893 0.057 3.73-0.213v0c3.631-1.844 6.141-5.645 6.141-10.027zM30.734 16.652c-0.099 0.964-0.255 2.085-0.567 3.007-1.276 3.787-3.049 6.255-7.091 8.51-0.369 0.255-0.766 0.496-1.163 0.624-0.723 0.255-1.503 0.312-2.312 0.227-0.34 0.028-0.681 0.043-1.035 0.043-5.404 0-9.97-3.687-11.346-8.722-0.043 0-0.085-0.014-0.128-0.014-0.326 2.553 1.56 5.999 1.56 5.999s0.113 0.17 0.766 1.163c-3.617-1.915-3.716-7.559-3.716-7.559-0.865-0.326-3.872-1.347-4.397-2.184 0 0 2.354 1.291 4.382 1.546-0.014-0.014 0.028-0.454 0.028-0.454 0.128-1.73 0.723-3.078 1.333-4.113 0.397-1.943 1.276-3.702 2.496-5.177 0.213-0.879 0.553-1.929 1.149-3.035 0.255-0.482 0.496-0.794 1.149-1.092 4.312-2.014 8.566-2.525 12.935-0.255v0c4.184 2.184 6.453 6.751 5.957 11.488z"></path>
</svg>
