<?xml version="1.0" encoding="utf-8"?>
<!-- Generated by IcoMoon.io -->
<!DOCTYPE svg PUBLIC "-//W3C//DTD SVG 1.1//EN" "http://www.w3.org/Graphics/SVG/1.1/DTD/svg11.dtd">
<svg version="1.1" xmlns="http://www.w3.org/2000/svg" xmlns:xlink="http://www.w3.org/1999/xlink" width="32" height="32" viewBox="0 0 32 32">
<path d="M15.002 21.298l-0.25 6.131-0.033 0.367-6.997-0.483c-0.866-0.067-1.583-0.883-1.899-1.616-0.666-1.549 0.2-3.382 0.7-4.865 0 0 1.283 0.2 8.48 0.466zM8.555 11.535l2.999 6.314-2.449-1.533c-3.749 4.282-4.099 7.464-4.099 7.464l-3.166-5.948c-0.65-0.966-0.067-2.016-0.067-2.016s0.583-1.050 1.899-3.132l-2.333-1.433zM29.064 20.149l-3.132 5.981c-0.433 1.083-1.633 1.183-1.633 1.183s-1.183 0.117-3.649 0.2l0.133 2.732-3.832-6.114 3.515-6.031 0.117 2.882c5.648 0.683 8.48-0.833 8.48-0.833zM15.985 4.754c0 0-0.783 1.033-4.415 7.247l-5.281-3.116-0.317-0.2 3.749-5.931c0.466-0.733 1.516-1 2.332-0.916 1.666 0.15 2.866 1.766 3.932 2.916zM26.898 9.869l3.532 6.048c0.45 0.75 0.183 1.799-0.25 2.499-0.9 1.399-2.899 1.733-4.398 2.149 0 0-0.567-1.183-4.415-7.264l5.215-3.249zM24.516 6.104l2.366-1.383-3.665 6.214-6.981-0.333 2.516-1.433c-1.999-5.315-4.648-7.147-4.648-7.147l6.748 0.017c1.166-0.1 1.799 0.9 1.799 0.9s0.65 1.016 1.866 3.165z"></path>
</svg>
