<?xml version="1.0" encoding="utf-8"?>
<!-- Generated by IcoMoon.io -->
<!DOCTYPE svg PUBLIC "-//W3C//DTD SVG 1.1//EN" "http://www.w3.org/Graphics/SVG/1.1/DTD/svg11.dtd">
<svg version="1.1" xmlns="http://www.w3.org/2000/svg" xmlns:xlink="http://www.w3.org/1999/xlink" width="32" height="32" viewBox="0 0 32 32">
<path d="M30.792 16.025c0 1.288-0.726 2.394-1.799 2.939 0.132 0.512 0.198 1.040 0.198 1.585 0 5.217-5.894 9.443-13.157 9.443-7.247 0-13.141-4.226-13.141-9.443 0-0.528 0.066-1.057 0.182-1.552-1.106-0.545-1.865-1.667-1.865-2.972 0-1.816 1.469-3.285 3.285-3.285 0.941 0 1.783 0.396 2.394 1.040 2.229-1.552 5.2-2.559 8.502-2.674l1.915-8.601c0.066-0.297 0.38-0.495 0.677-0.429l6.092 1.337c0.396-0.792 1.238-1.354 2.196-1.354 1.37 0 2.476 1.106 2.476 2.46 0 1.37-1.106 2.476-2.476 2.476-1.354 0-2.46-1.106-2.46-2.46l-5.514-1.222-1.717 7.792c3.318 0.099 6.323 1.090 8.568 2.641 0.594-0.627 1.436-1.007 2.361-1.007 1.816 0 3.285 1.469 3.285 3.285zM8.109 19.31c0 1.37 1.106 2.476 2.46 2.476 1.37 0 2.476-1.106 2.476-2.476 0-1.354-1.106-2.46-2.476-2.46-1.354 0-2.46 1.106-2.46 2.46zM21.481 25.171c0.248-0.248 0.248-0.611 0-0.858-0.231-0.231-0.611-0.231-0.842 0-0.991 1.007-3.12 1.354-4.639 1.354s-3.648-0.347-4.639-1.354c-0.231-0.231-0.611-0.231-0.842 0-0.248 0.231-0.248 0.611 0 0.858 1.568 1.568 4.589 1.684 5.481 1.684s3.913-0.116 5.481-1.684zM21.431 21.786c1.354 0 2.46-1.106 2.46-2.476 0-1.354-1.106-2.46-2.46-2.46-1.37 0-2.476 1.106-2.476 2.46 0 1.37 1.106 2.476 2.476 2.476z"></path>
</svg>
