<?xml version="1.0" encoding="utf-8"?>
<!-- Generated by IcoMoon.io -->
<!DOCTYPE svg PUBLIC "-//W3C//DTD SVG 1.1//EN" "http://www.w3.org/Graphics/SVG/1.1/DTD/svg11.dtd">
<svg version="1.1" xmlns="http://www.w3.org/2000/svg" xmlns:xlink="http://www.w3.org/1999/xlink" width="32" height="32" viewBox="0 0 32 32">
<path d="M19.3 20.494c0.149 0.149 0.149 0.381 0 0.514-0.945 0.945-2.769 1.028-3.3 1.028s-2.355-0.083-3.3-1.028c-0.149-0.133-0.149-0.365 0-0.514 0.133-0.133 0.365-0.133 0.497 0 0.597 0.614 1.89 0.813 2.802 0.813s2.189-0.199 2.802-0.813c0.133-0.133 0.365-0.133 0.497 0zM14.209 17.492c0 0.813-0.663 1.476-1.476 1.476-0.829 0-1.492-0.663-1.492-1.476 0-0.829 0.663-1.492 1.492-1.492 0.813 0 1.476 0.663 1.476 1.492zM20.759 17.492c0 0.813-0.663 1.476-1.492 1.476-0.813 0-1.476-0.663-1.476-1.476 0-0.829 0.663-1.492 1.476-1.492 0.829 0 1.492 0.663 1.492 1.492zM24.921 15.503c0-1.094-0.895-1.973-1.99-1.973-0.564 0-1.061 0.232-1.426 0.597-1.343-0.929-3.151-1.526-5.157-1.592l1.045-4.693 3.316 0.746c0 0.813 0.663 1.476 1.476 1.476 0.829 0 1.492-0.68 1.492-1.492s-0.663-1.492-1.492-1.492c-0.58 0-1.078 0.348-1.327 0.829l-3.665-0.813c-0.182-0.050-0.365 0.083-0.415 0.265l-1.144 5.173c-1.99 0.083-3.781 0.68-5.124 1.608-0.365-0.381-0.879-0.614-1.443-0.614-1.094 0-1.99 0.879-1.99 1.973 0 0.796 0.464 1.459 1.128 1.791-0.066 0.298-0.1 0.614-0.1 0.929 0 3.151 3.548 5.704 7.909 5.704 4.378 0 7.926-2.554 7.926-5.704 0-0.315-0.033-0.647-0.116-0.945 0.647-0.332 1.094-0.995 1.094-1.774zM30.857 16c0 8.208-6.649 14.857-14.857 14.857s-14.857-6.649-14.857-14.857 6.649-14.857 14.857-14.857 14.857 6.649 14.857 14.857z"></path>
</svg>
