<?xml version="1.0" encoding="utf-8"?>
<!-- Generated by IcoMoon.io -->
<!DOCTYPE svg PUBLIC "-//W3C//DTD SVG 1.1//EN" "http://www.w3.org/Graphics/SVG/1.1/DTD/svg11.dtd">
<svg version="1.1" xmlns="http://www.w3.org/2000/svg" xmlns:xlink="http://www.w3.org/1999/xlink" width="32" height="32" viewBox="0 0 32 32">
<path d="M19.308 20.508c0.135 0.135 0.135 0.368 0 0.503-0.948 0.948-2.766 1.025-3.308 1.025s-2.36-0.077-3.308-1.025c-0.135-0.135-0.135-0.368 0-0.503 0.135-0.155 0.368-0.155 0.503 0 0.6 0.6 1.896 0.813 2.805 0.813s2.205-0.213 2.805-0.813c0.135-0.155 0.368-0.155 0.503 0zM14.22 17.49c0 0.813-0.677 1.49-1.49 1.49s-1.49-0.677-1.49-1.49c0-0.832 0.677-1.49 1.49-1.49s1.49 0.658 1.49 1.49zM20.759 17.49c0 0.813-0.677 1.49-1.49 1.49s-1.49-0.677-1.49-1.49c0-0.832 0.677-1.49 1.49-1.49s1.49 0.658 1.49 1.49zM24.918 15.497c0-1.083-0.89-1.973-1.993-1.973-0.542 0-1.045 0.232-1.412 0.6-1.354-0.929-3.173-1.528-5.165-1.586l1.045-4.701 3.308 0.754c0.019 0.813 0.677 1.47 1.49 1.47s1.49-0.677 1.49-1.49-0.677-1.49-1.49-1.49c-0.58 0-1.083 0.329-1.335 0.832l-3.656-0.813c-0.193-0.058-0.368 0.077-0.406 0.252l-1.161 5.185c-1.993 0.077-3.792 0.677-5.127 1.606-0.368-0.387-0.871-0.619-1.432-0.619-1.103 0-1.993 0.89-1.993 1.973 0 0.793 0.464 1.47 1.122 1.799-0.058 0.29-0.097 0.619-0.097 0.929 0 3.153 3.54 5.707 7.912 5.707s7.932-2.554 7.932-5.707c0-0.329-0.039-0.638-0.116-0.948 0.638-0.329 1.083-1.006 1.083-1.78zM30.857 6.714v18.571c0 3.076-2.496 5.571-5.571 5.571h-18.571c-3.076 0-5.571-2.496-5.571-5.571v-18.571c0-3.076 2.496-5.571 5.571-5.571h18.571c3.076 0 5.571 2.496 5.571 5.571z"></path>
</svg>
