<?xml version="1.0" encoding="utf-8"?>
<!-- Generated by IcoMoon.io -->
<!DOCTYPE svg PUBLIC "-//W3C//DTD SVG 1.1//EN" "http://www.w3.org/Graphics/SVG/1.1/DTD/svg11.dtd">
<svg version="1.1" xmlns="http://www.w3.org/2000/svg" xmlns:xlink="http://www.w3.org/1999/xlink" width="32" height="32" viewBox="0 0 32 32">
<path d="M30.373 19.095c0 0.039 0 0.097-0.019 0.135-1.644 6.848-7.293 11.627-14.432 11.627-3.772 0-7.429-1.49-10.176-4.101l-2.496 2.496c-0.232 0.232-0.542 0.368-0.871 0.368-0.677 0-1.238-0.561-1.238-1.238v-8.667c0-0.677 0.561-1.238 1.238-1.238h8.667c0.677 0 1.238 0.561 1.238 1.238 0 0.329-0.135 0.638-0.368 0.871l-2.65 2.65c1.818 1.702 4.237 2.67 6.732 2.67 3.443 0 6.635-1.78 8.435-4.72 0.464-0.754 0.696-1.49 1.025-2.263 0.097-0.271 0.29-0.445 0.58-0.445h3.714c0.348 0 0.619 0.29 0.619 0.619zM30.857 3.619v8.667c0 0.677-0.561 1.238-1.238 1.238h-8.667c-0.677 0-1.238-0.561-1.238-1.238 0-0.329 0.135-0.638 0.368-0.871l2.67-2.67c-1.838-1.702-4.256-2.65-6.752-2.65-3.443 0-6.635 1.78-8.435 4.72-0.464 0.754-0.696 1.49-1.025 2.263-0.097 0.271-0.29 0.445-0.58 0.445h-3.85c-0.348 0-0.619-0.29-0.619-0.619v-0.135c1.664-6.868 7.371-11.627 14.509-11.627 3.792 0 7.487 1.509 10.234 4.101l2.515-2.496c0.232-0.232 0.542-0.368 0.871-0.368 0.677 0 1.238 0.561 1.238 1.238z"></path>
</svg>
