<?xml version="1.0" encoding="utf-8"?>
<!-- Generated by IcoMoon.io -->
<!DOCTYPE svg PUBLIC "-//W3C//DTD SVG 1.1//EN" "http://www.w3.org/Graphics/SVG/1.1/DTD/svg11.dtd">
<svg version="1.1" xmlns="http://www.w3.org/2000/svg" xmlns:xlink="http://www.w3.org/1999/xlink" width="32" height="32" viewBox="0 0 32 32">
<path d="M18.421 12.8c0-0.962-0.332-1.642-0.995-2.006-0.332-0.182-0.796-0.298-1.94-0.298h-2.040v4.659h2.686c1.459 0 2.288-0.862 2.288-2.355zM19.283 17.526l3.399 6.185c0.083 0.166 0.083 0.365-0.017 0.514-0.083 0.166-0.265 0.265-0.448 0.265h-2.52c-0.199 0-0.381-0.099-0.464-0.282l-3.217-6.052h-2.57v5.804c0 0.298-0.232 0.531-0.531 0.531h-2.222c-0.298 0-0.531-0.232-0.531-0.531v-15.918c0-0.298 0.232-0.531 0.531-0.531h4.875c1.741 0 2.504 0.149 3.151 0.398 1.874 0.696 3.034 2.537 3.034 4.792 0 2.040-1.011 3.764-2.62 4.56 0.050 0.083 0.099 0.166 0.149 0.265zM16 3.796c-6.732 0-12.204 5.472-12.204 12.204s5.472 12.204 12.204 12.204 12.204-5.472 12.204-12.204-5.472-12.204-12.204-12.204zM30.857 16c0 8.208-6.649 14.857-14.857 14.857s-14.857-6.649-14.857-14.857 6.649-14.857 14.857-14.857v0c8.208 0 14.857 6.649 14.857 14.857z"></path>
</svg>
