<?xml version="1.0" encoding="utf-8"?>
<!-- Generated by IcoMoon.io -->
<!DOCTYPE svg PUBLIC "-//W3C//DTD SVG 1.1//EN" "http://www.w3.org/Graphics/SVG/1.1/DTD/svg11.dtd">
<svg version="1.1" xmlns="http://www.w3.org/2000/svg" xmlns:xlink="http://www.w3.org/1999/xlink" width="32" height="32" viewBox="0 0 32 32">
<path d="M23.056 28.894c-2.107 1.16-4.524 1.817-7.114 1.817-2.571 0-4.988-0.657-7.095-1.817 3.422-2.165 6.186-5.432 7.095-9.26 0.928 3.828 3.692 7.095 7.114 9.26zM13.487 1.289v9.376c0 6.611-3.654 12.295-8.835 14.808-2.184-2.59-3.499-5.915-3.499-9.569 0-7.346 5.335-13.435 12.334-14.615zM30.847 15.903c0 3.654-1.315 6.979-3.499 9.569-5.181-2.513-8.835-8.197-8.835-14.808v-9.376c6.998 1.179 12.334 7.269 12.334 14.615z"></path>
</svg>
