<?xml version="1.0" encoding="utf-8"?>
<!-- Generated by IcoMoon.io -->
<!DOCTYPE svg PUBLIC "-//W3C//DTD SVG 1.1//EN" "http://www.w3.org/Graphics/SVG/1.1/DTD/svg11.dtd">
<svg version="1.1" xmlns="http://www.w3.org/2000/svg" xmlns:xlink="http://www.w3.org/1999/xlink" width="32" height="32" viewBox="0 0 32 32">
<path d="M30.857 3.619v8.667c0 0.677-0.561 1.238-1.238 1.238h-8.667c-0.503 0-0.948-0.31-1.141-0.774-0.193-0.445-0.097-0.987 0.271-1.335l2.67-2.67c-1.818-1.683-4.217-2.65-6.752-2.65-5.455 0-9.905 4.449-9.905 9.905s4.449 9.905 9.905 9.905c3.076 0 5.92-1.393 7.815-3.85 0.097-0.135 0.271-0.213 0.445-0.232 0.174 0 0.348 0.058 0.484 0.174l2.65 2.67c0.232 0.213 0.232 0.58 0.039 0.832-2.824 3.405-7.003 5.359-11.433 5.359-8.183 0-14.857-6.674-14.857-14.857s6.674-14.857 14.857-14.857c3.811 0 7.506 1.528 10.234 4.101l2.515-2.496c0.348-0.368 0.89-0.464 1.354-0.271 0.445 0.193 0.754 0.638 0.754 1.141z"></path>
</svg>
