<?xml version="1.0" encoding="utf-8"?>
<!-- Generated by IcoMoon.io -->
<!DOCTYPE svg PUBLIC "-//W3C//DTD SVG 1.1//EN" "http://www.w3.org/Graphics/SVG/1.1/DTD/svg11.dtd">
<svg version="1.1" xmlns="http://www.w3.org/2000/svg" xmlns:xlink="http://www.w3.org/1999/xlink" width="32" height="32" viewBox="0 0 32 32">
<path d="M20.698 23.987c0 0.25-0.22 0.47-0.47 0.47h-14.095c-0.543 0-0.47-0.573-0.47-0.94v-8.457h-2.819c-0.514 0-0.94-0.426-0.94-0.94 0-0.22 0.073-0.44 0.22-0.602l4.698-5.638c0.176-0.206 0.44-0.323 0.719-0.323s0.543 0.117 0.719 0.323l4.698 5.638c0.147 0.162 0.22 0.382 0.22 0.602 0 0.514-0.426 0.94-0.94 0.94h-2.819v5.638h8.457c0.132 0 0.279 0.059 0.367 0.162l2.349 2.819c0.059 0.088 0.103 0.206 0.103 0.308zM30.095 17.879c0 0.22-0.073 0.44-0.22 0.602l-4.698 5.638c-0.176 0.206-0.44 0.338-0.719 0.338s-0.543-0.132-0.719-0.338l-4.698-5.638c-0.147-0.162-0.22-0.382-0.22-0.602 0-0.514 0.426-0.94 0.94-0.94h2.819v-5.638h-8.457c-0.132 0-0.279-0.059-0.367-0.176l-2.349-2.819c-0.059-0.073-0.103-0.191-0.103-0.294 0-0.25 0.22-0.47 0.47-0.47h14.095c0.543 0 0.47 0.573 0.47 0.94v8.457h2.819c0.514 0 0.94 0.426 0.94 0.94z"></path>
</svg>
