<?xml version="1.0" encoding="utf-8"?>
<!-- Generated by IcoMoon.io -->
<!DOCTYPE svg PUBLIC "-//W3C//DTD SVG 1.1//EN" "http://www.w3.org/Graphics/SVG/1.1/DTD/svg11.dtd">
<svg version="1.1" xmlns="http://www.w3.org/2000/svg" xmlns:xlink="http://www.w3.org/1999/xlink" width="32" height="32" viewBox="0 0 32 32">
<path d="M18.385 17.58v-0.063l-0.379-5.055c-0.016-0.284-0.269-0.505-0.537-0.505h-2.938c-0.269 0-0.521 0.221-0.537 0.505l-0.379 5.055v0.063c-0.016 0.253 0.221 0.442 0.458 0.442h3.854c0.237 0 0.474-0.19 0.458-0.442zM30.375 24.957c0 0.458-0.126 1.153-0.727 1.153h-11.121c0.269 0 0.49-0.221 0.474-0.506l-0.316-4.044c-0.016-0.284-0.269-0.506-0.537-0.506h-4.297c-0.269 0-0.521 0.221-0.537 0.506l-0.316 4.044c-0.016 0.284 0.205 0.506 0.474 0.506h-11.121c-0.6 0-0.727-0.695-0.727-1.153 0-0.632 0.174-1.264 0.411-1.832l6.587-16.492c0.158-0.395 0.585-0.742 1.011-0.742h5.355c-0.269 0-0.521 0.221-0.537 0.505l-0.237 3.033c-0.016 0.284 0.19 0.505 0.474 0.505h2.622c0.284 0 0.49-0.221 0.474-0.505l-0.237-3.033c-0.016-0.284-0.269-0.505-0.537-0.505h5.355c0.427 0 0.853 0.348 1.011 0.742l6.587 16.492c0.237 0.569 0.411 1.201 0.411 1.832z"></path>
</svg>
