<?xml version="1.0" encoding="utf-8"?>
<!-- Generated by IcoMoon.io -->
<!DOCTYPE svg PUBLIC "-//W3C//DTD SVG 1.1//EN" "http://www.w3.org/Graphics/SVG/1.1/DTD/svg11.dtd">
<svg version="1.1" xmlns="http://www.w3.org/2000/svg" xmlns:xlink="http://www.w3.org/1999/xlink" width="33" height="32" viewBox="0 0 33 32">
<path d="M27.065 6.969c0-0.965-0.783-1.748-1.748-1.748s-1.748 0.783-1.748 1.748 0.783 1.748 1.748 1.748 1.748-0.783 1.748-1.748zM31.144 1.726c0 6.045-1.675 10.069-5.99 14.402-1.056 1.038-2.258 2.112-3.55 3.204l-0.364 6.901c-0.018 0.182-0.127 0.364-0.291 0.473l-6.992 4.078c-0.091 0.055-0.182 0.073-0.291 0.073-0.146 0-0.291-0.055-0.419-0.164l-1.165-1.165c-0.146-0.164-0.2-0.382-0.146-0.583l1.548-5.025-5.116-5.116-5.025 1.548c-0.055 0.018-0.109 0.018-0.164 0.018-0.146 0-0.309-0.055-0.419-0.164l-1.165-1.165c-0.182-0.2-0.218-0.492-0.091-0.71l4.078-6.992c0.109-0.164 0.291-0.273 0.473-0.291l6.901-0.364c1.092-1.293 2.167-2.494 3.204-3.55 4.552-4.534 8.029-5.99 14.366-5.99 0.328 0 0.619 0.255 0.619 0.583z"></path>
</svg>
