<?xml version="1.0" encoding="utf-8"?>
<!-- Generated by IcoMoon.io -->
<!DOCTYPE svg PUBLIC "-//W3C//DTD SVG 1.1//EN" "http://www.w3.org/Graphics/SVG/1.1/DTD/svg11.dtd">
<svg version="1.1" xmlns="http://www.w3.org/2000/svg" xmlns:xlink="http://www.w3.org/1999/xlink" width="32" height="32" viewBox="0 0 32 32">
<path d="M30.857 16c0 8.183-6.674 14.857-14.857 14.857-4.43 0-8.609-1.954-11.433-5.359-0.193-0.252-0.174-0.619 0.039-0.832l2.65-2.67c0.135-0.116 0.31-0.174 0.484-0.174 0.174 0.019 0.348 0.097 0.445 0.232 1.896 2.457 4.74 3.85 7.815 3.85 5.455 0 9.905-4.449 9.905-9.905s-4.449-9.905-9.905-9.905c-2.534 0-4.933 0.967-6.732 2.65l2.65 2.67c0.368 0.348 0.464 0.89 0.271 1.335-0.193 0.464-0.638 0.774-1.141 0.774h-8.667c-0.677 0-1.238-0.561-1.238-1.238v-8.667c0-0.503 0.31-0.948 0.774-1.141 0.445-0.193 0.987-0.097 1.335 0.271l2.515 2.496c2.728-2.573 6.423-4.101 10.234-4.101 8.183 0 14.857 6.674 14.857 14.857z"></path>
</svg>
