<?xml version="1.0" encoding="utf-8"?>
<!-- Generated by IcoMoon.io -->
<!DOCTYPE svg PUBLIC "-//W3C//DTD SVG 1.1//EN" "http://www.w3.org/Graphics/SVG/1.1/DTD/svg11.dtd">
<svg version="1.1" xmlns="http://www.w3.org/2000/svg" xmlns:xlink="http://www.w3.org/1999/xlink" width="32" height="32" viewBox="0 0 32 32">
<path d="M24.505 10.365c0-2.828-2.005-4.727-4.98-4.727h-6.753v9.454h6.753c2.976 0 4.98-1.899 4.98-4.727zM29.506 10.365c0 5.424-3.925 9.222-9.56 9.222h-7.175v2.49h10.657c0.38 0 0.675 0.295 0.675 0.675v2.701c0 0.38-0.295 0.675-0.675 0.675h-10.657v4.052c0 0.38-0.295 0.675-0.675 0.675h-3.524c-0.38 0-0.675-0.295-0.675-0.675v-4.052h-4.727c-0.38 0-0.675-0.295-0.675-0.675v-2.701c0-0.38 0.295-0.675 0.675-0.675h4.727v-2.49h-4.727c-0.38 0-0.675-0.295-0.675-0.675v-3.144c0-0.38 0.295-0.675 0.675-0.675h4.727v-13.274c0-0.38 0.295-0.675 0.675-0.675h11.375c5.635 0 9.56 3.799 9.56 9.222z"></path>
</svg>
