<?xml version="1.0" encoding="utf-8"?>
<!-- Generated by IcoMoon.io -->
<!DOCTYPE svg PUBLIC "-//W3C//DTD SVG 1.1//EN" "http://www.w3.org/Graphics/SVG/1.1/DTD/svg11.dtd">
<svg version="1.1" xmlns="http://www.w3.org/2000/svg" xmlns:xlink="http://www.w3.org/1999/xlink" width="32" height="32" viewBox="0 0 32 32">
<path d="M11.048 23.429c0-1.373-1.103-2.476-2.476-2.476s-2.476 1.103-2.476 2.476 1.103 2.476 2.476 2.476 2.476-1.103 2.476-2.476zM17.838 25.247c-0.329-5.997-5.088-10.756-11.085-11.085-0.174-0.019-0.348 0.058-0.464 0.174s-0.193 0.271-0.193 0.445v2.476c0 0.329 0.252 0.6 0.58 0.619 3.966 0.29 7.158 3.482 7.448 7.448 0.019 0.329 0.29 0.58 0.619 0.58h2.476c0.174 0 0.329-0.077 0.445-0.193s0.193-0.29 0.174-0.464zM25.266 25.266c-0.329-10.060-8.473-18.204-18.533-18.533-0.193-0.019-0.329 0.039-0.445 0.174-0.116 0.116-0.193 0.271-0.193 0.445v2.476c0 0.329 0.271 0.6 0.6 0.619 8.028 0.29 14.567 6.829 14.857 14.857 0.019 0.329 0.29 0.6 0.619 0.6h2.476c0.174 0 0.329-0.077 0.445-0.193 0.135-0.116 0.193-0.271 0.174-0.445zM30.857 6.714v18.571c0 3.076-2.496 5.571-5.571 5.571h-18.571c-3.076 0-5.571-2.496-5.571-5.571v-18.571c0-3.076 2.496-5.571 5.571-5.571h18.571c3.076 0 5.571 2.496 5.571 5.571z"></path>
</svg>
