<?xml version="1.0" encoding="utf-8"?>
<!-- Generated by IcoMoon.io -->
<!DOCTYPE svg PUBLIC "-//W3C//DTD SVG 1.1//EN" "http://www.w3.org/Graphics/SVG/1.1/DTD/svg11.dtd">
<svg version="1.1" xmlns="http://www.w3.org/2000/svg" xmlns:xlink="http://www.w3.org/1999/xlink" width="32" height="32" viewBox="0 0 32 32">
<path d="M16.879 15.95c0 0.547-0.381 1.061-0.962 1.061-0.547 0-1.061-0.398-1.061-0.962 0-0.547 0.398-1.061 0.978-1.061 0.531 0 1.045 0.381 1.045 0.962zM17.128 16.912l5.804-9.634c-0.779 0.73-8.042 7.412-8.241 7.76l-5.787 9.617c0.763-0.713 8.042-7.429 8.225-7.744zM27.856 16c0 2.172-0.597 4.311-1.724 6.152-0.166-0.083-0.862-0.58-0.995-0.58-0.116 0-0.216 0.099-0.216 0.216 0 0.216 0.779 0.614 0.978 0.73-1.642 2.487-4.179 4.278-7.064 4.991l-0.265-1.111c-0.017-0.149-0.116-0.166-0.249-0.166-0.116 0-0.182 0.166-0.166 0.249l0.265 1.128c-0.796 0.166-1.608 0.249-2.421 0.249-2.172 0-4.311-0.614-6.168-1.741 0.1-0.166 0.73-1.078 0.73-1.21 0-0.116-0.1-0.216-0.216-0.216-0.232 0-0.73 0.995-0.879 1.194-2.504-1.658-4.311-4.228-5.008-7.163l1.144-0.249c0.133-0.033 0.166-0.133 0.166-0.249s-0.166-0.182-0.265-0.166l-1.128 0.249c-0.149-0.763-0.232-1.526-0.232-2.305 0-2.222 0.63-4.411 1.807-6.284 0.166 0.1 0.962 0.647 1.094 0.647 0.116 0 0.216-0.083 0.216-0.199 0-0.232-0.879-0.68-1.078-0.813 1.691-2.471 4.261-4.245 7.18-4.908l0.249 1.111c0.033 0.133 0.133 0.166 0.249 0.166s0.182-0.166 0.166-0.265l-0.249-1.094c0.73-0.133 1.476-0.216 2.222-0.216v0c2.222 0 4.394 0.63 6.284 1.807-0.116 0.166-0.647 0.945-0.647 1.078 0 0.116 0.083 0.216 0.199 0.216 0.232 0 0.68-0.862 0.796-1.061 2.454 1.658 4.212 4.195 4.892 7.080l-0.929 0.199c-0.149 0.033-0.166 0.133-0.166 0.265 0 0.116 0.166 0.182 0.249 0.166l0.945-0.216c0.149 0.763 0.232 1.542 0.232 2.321zM29.265 16c0-7.329-5.936-13.265-13.265-13.265s-13.265 5.936-13.265 13.265 5.936 13.265 13.265 13.265 13.265-5.936 13.265-13.265zM30.857 16c0 8.208-6.649 14.857-14.857 14.857s-14.857-6.649-14.857-14.857 6.649-14.857 14.857-14.857 14.857 6.649 14.857 14.857z"></path>
</svg>
