<?xml version="1.0" encoding="utf-8"?>
<!-- Generated by IcoMoon.io -->
<!DOCTYPE svg PUBLIC "-//W3C//DTD SVG 1.1//EN" "http://www.w3.org/Graphics/SVG/1.1/DTD/svg11.dtd">
<svg version="1.1" xmlns="http://www.w3.org/2000/svg" xmlns:xlink="http://www.w3.org/1999/xlink" width="32" height="32" viewBox="0 0 32 32">
<path d="M28.138 26.828c0 1.973-1.592 3.582-3.582 3.582s-3.598-1.608-3.598-3.582c0-1.99 1.608-3.598 3.598-3.598s3.582 1.608 3.582 3.598zM24.274 22.168c-2.52 0.332-4.477 2.487-4.477 5.107 0 0.813 0.199 1.608 0.547 2.288-1.492 0.796-3.515 1.293-6.284 1.293-8.821 0-10.198-6.235-10.198-7.064 0-0.846 0.497-3.615 3.615-3.615s3.548 2.67 3.548 3.217c0 0 0 0.564-0.381 1.343 1.061 0.995 3.565 0.995 3.565 0.995 2.504 0 4.394-1.227 4.394-3.051 0-1.841-2.122-2.736-6.964-5.008-4.842-2.288-6.666-3.963-6.666-8.125 0-4.179 2.786-8.407 9.733-8.407s9.568 3.897 9.568 6.566-2.272 3.333-3.117 3.333c-0.829 0-3.897 0.282-3.897-4.328-0.547-0.614-2.935-0.614-2.935-0.614-2.404 0-3.466 1.824-3.466 2.935 0 1.128 0.448 2.52 5.455 4.179 7.677 2.554 7.959 5.886 7.959 8.954z"></path>
</svg>
