<?xml version="1.0" encoding="utf-8"?>
<!-- Generated by IcoMoon.io -->
<!DOCTYPE svg PUBLIC "-//W3C//DTD SVG 1.1//EN" "http://www.w3.org/Graphics/SVG/1.1/DTD/svg11.dtd">
<svg version="1.1" xmlns="http://www.w3.org/2000/svg" xmlns:xlink="http://www.w3.org/1999/xlink" width="32" height="32" viewBox="0 0 32 32">
<path d="M22.693 22.679v-10.307c0-0.394-0.323-0.717-0.703-0.717h-1.308c-0.38 0-0.703 0.323-0.703 0.717v10.307c0 0.38 0.323 0.703 0.703 0.703h1.308c0.38 0 0.703-0.323 0.703-0.703zM18.7 22.679v-7.467c0-0.38-0.323-0.703-0.703-0.703h-1.42c-0.38 0-0.703 0.323-0.703 0.703v7.467c0 0.38 0.323 0.703 0.703 0.703h1.42c0.38 0 0.703-0.323 0.703-0.703zM14.594 22.679v-6.032c0-0.38-0.323-0.703-0.703-0.703h-1.42c-0.38 0-0.703 0.323-0.703 0.703v6.032c0 0.38 0.323 0.703 0.703 0.703h1.42c0.38 0 0.703-0.323 0.703-0.703zM10.488 22.679v-5.090c0-0.38-0.323-0.703-0.703-0.703h-1.42c-0.38 0-0.703 0.323-0.703 0.703v5.090c0 0.38 0.323 0.703 0.703 0.703h1.42c0.38 0 0.703-0.323 0.703-0.703zM30.399 20.626c0 3.122-2.545 5.653-5.653 5.653h-17.493c-3.108 0-5.653-2.531-5.653-5.653 0-2.18 1.28-4.176 3.248-5.104-0.098-0.337-0.141-0.689-0.141-1.027 0-2.123 1.73-3.853 3.853-3.853 0.928 0 1.828 0.337 2.531 0.942 0.844-3.431 3.937-5.864 7.481-5.864 4.247 0 7.706 3.459 7.706 7.706 0 0.577-0.056 1.153-0.197 1.716 2.531 0.619 4.317 2.897 4.317 5.484z"></path>
</svg>
