<?xml version="1.0" encoding="utf-8"?>
<!-- Generated by IcoMoon.io -->
<!DOCTYPE svg PUBLIC "-//W3C//DTD SVG 1.1//EN" "http://www.w3.org/Graphics/SVG/1.1/DTD/svg11.dtd">
<svg version="1.1" xmlns="http://www.w3.org/2000/svg" xmlns:xlink="http://www.w3.org/1999/xlink" width="32" height="32" viewBox="0 0 32 32">
<path d="M3.532 25.351h16.623v-2.078h-16.623v2.078zM3.532 17.039h16.623v-2.078h-16.623v2.078zM28.987 24.312c0-0.86-0.698-1.558-1.558-1.558s-1.558 0.698-1.558 1.558 0.698 1.558 1.558 1.558 1.558-0.698 1.558-1.558zM3.532 8.727h16.623v-2.078h-16.623v2.078zM28.987 16c0-0.86-0.698-1.558-1.558-1.558s-1.558 0.698-1.558 1.558 0.698 1.558 1.558 1.558 1.558-0.698 1.558-1.558zM28.987 7.688c0-0.86-0.698-1.558-1.558-1.558s-1.558 0.698-1.558 1.558 0.698 1.558 1.558 1.558 1.558-0.698 1.558-1.558zM30.545 21.195v6.234h-29.091v-6.234h29.091zM30.545 12.883v6.234h-29.091v-6.234h29.091zM30.545 4.571v6.234h-29.091v-6.234h29.091z"></path>
</svg>
