<?xml version="1.0" encoding="utf-8"?>
<!-- Generated by IcoMoon.io -->
<!DOCTYPE svg PUBLIC "-//W3C//DTD SVG 1.1//EN" "http://www.w3.org/Graphics/SVG/1.1/DTD/svg11.dtd">
<svg version="1.1" xmlns="http://www.w3.org/2000/svg" xmlns:xlink="http://www.w3.org/1999/xlink" width="32" height="32" viewBox="0 0 32 32">
<path d="M20.585 19.966l6.81-6.81c0.484-0.484 0.484-1.257 0-1.741l-6.81-6.81c-0.348-0.368-0.89-0.464-1.335-0.271-0.464 0.193-0.774 0.638-0.774 1.141v3.095c-11.104 0-12.381 6.365-12.381 11.143 0 3.888 3.115 7.661 3.231 7.816 0.135 0.155 0.31 0.232 0.484 0.232 0.077 0 0.174-0.019 0.252-0.058 0.252-0.097 0.406-0.368 0.368-0.638-0.58-4.662-0.213-7.564 1.199-9.15 1.18-1.335 3.231-1.915 6.848-1.915v3.095c0 0.503 0.31 0.948 0.774 1.141 0.135 0.058 0.31 0.097 0.464 0.097 0.329 0 0.638-0.135 0.871-0.368zM30.857 6.714v18.571c0 3.076-2.496 5.571-5.571 5.571h-18.571c-3.076 0-5.571-2.496-5.571-5.571v-18.571c0-3.076 2.496-5.571 5.571-5.571h18.571c3.076 0 5.571 2.496 5.571 5.571z"></path>
</svg>
