<?xml version="1.0" encoding="utf-8"?>
<!-- Generated by IcoMoon.io -->
<!DOCTYPE svg PUBLIC "-//W3C//DTD SVG 1.1//EN" "http://www.w3.org/Graphics/SVG/1.1/DTD/svg11.dtd">
<svg version="1.1" xmlns="http://www.w3.org/2000/svg" xmlns:xlink="http://www.w3.org/1999/xlink" width="32" height="32" viewBox="0 0 32 32">
<path d="M25.905 21.784c0-2.283-1.857-4.14-4.121-4.14-1.083 0-2.070 0.426-2.805 1.122l-4.662-2.321c0.019-0.155 0.039-0.29 0.039-0.445s-0.019-0.29-0.039-0.445l4.662-2.321c0.735 0.696 1.722 1.122 2.805 1.122 2.263 0 4.121-1.857 4.121-4.14 0-2.263-1.857-4.121-4.121-4.121-2.283 0-4.14 1.857-4.14 4.121 0 0.155 0.019 0.29 0.039 0.445l-4.662 2.321c-0.735-0.677-1.722-1.103-2.805-1.103-2.263 0-4.121 1.838-4.121 4.121s1.857 4.121 4.121 4.121c1.083 0 2.070-0.426 2.805-1.103l4.662 2.321c-0.019 0.155-0.039 0.29-0.039 0.445 0 2.263 1.857 4.121 4.14 4.121 2.263 0 4.121-1.857 4.121-4.121zM30.857 6.714v18.571c0 3.076-2.496 5.571-5.571 5.571h-18.571c-3.076 0-5.571-2.496-5.571-5.571v-18.571c0-3.076 2.496-5.571 5.571-5.571h18.571c3.076 0 5.571 2.496 5.571 5.571z"></path>
</svg>
