<?xml version="1.0" encoding="utf-8"?>
<!-- Generated by IcoMoon.io -->
<!DOCTYPE svg PUBLIC "-//W3C//DTD SVG 1.1//EN" "http://www.w3.org/Graphics/SVG/1.1/DTD/svg11.dtd">
<svg version="1.1" xmlns="http://www.w3.org/2000/svg" xmlns:xlink="http://www.w3.org/1999/xlink" width="32" height="32" viewBox="0 0 32 32">
<path d="M24.667 18.476c3.424 0 6.19 2.766 6.19 6.19s-2.766 6.19-6.19 6.19-6.19-2.766-6.19-6.19c0-0.213 0.019-0.445 0.039-0.658l-6.964-3.482c-1.103 1.025-2.592 1.664-4.217 1.664-3.424 0-6.19-2.766-6.19-6.19s2.766-6.19 6.19-6.19c1.625 0 3.115 0.638 4.217 1.664l6.964-3.482c-0.019-0.213-0.039-0.445-0.039-0.658 0-3.424 2.766-6.19 6.19-6.19s6.19 2.766 6.19 6.19-2.766 6.19-6.19 6.19c-1.625 0-3.115-0.638-4.217-1.664l-6.964 3.482c0.019 0.213 0.039 0.445 0.039 0.658s-0.019 0.445-0.039 0.658l6.964 3.482c1.103-1.025 2.592-1.664 4.217-1.664z"></path>
</svg>
