<?xml version="1.0" encoding="utf-8"?>
<!-- Generated by IcoMoon.io -->
<!DOCTYPE svg PUBLIC "-//W3C//DTD SVG 1.1//EN" "http://www.w3.org/Graphics/SVG/1.1/DTD/svg11.dtd">
<svg version="1.1" xmlns="http://www.w3.org/2000/svg" xmlns:xlink="http://www.w3.org/1999/xlink" width="32" height="32" viewBox="0 0 32 32">
<path d="M27.529 25.61c0.366-0.366 0.952-0.366 1.318 0l1.875 1.875-1.318 1.318-1.216-1.216-1.216 1.216c-0.176 0.19-0.425 0.278-0.659 0.278s-0.483-0.088-0.659-0.278l-1.216-1.216-1.216 1.216c-0.366 0.366-0.952 0.366-1.318 0l-1.216-1.216-1.216 1.216c-0.366 0.366-0.952 0.366-1.318 0l-1.216-1.216-1.216 1.216c-0.366 0.366-0.952 0.366-1.318 0l-1.216-1.216-1.216 1.216c-0.366 0.366-0.952 0.366-1.318 0l-1.216-1.216-1.216 1.216c-0.366 0.366-0.952 0.366-1.318 0l-1.216-1.216-1.216 1.216c-0.366 0.366-0.952 0.366-1.318 0l-1.875-1.875 1.318-1.318 1.216 1.216 1.216-1.216c0.366-0.366 0.952-0.366 1.318 0l1.216 1.216 1.216-1.216c0.366-0.366 0.952-0.366 1.318 0l1.216 1.216 1.216-1.216c0.366-0.366 0.952-0.366 1.318 0l1.216 1.216 1.216-1.216c0.366-0.366 0.952-0.366 1.318 0l1.216 1.216 1.216-1.216c0.366-0.366 0.952-0.366 1.318 0l1.216 1.216 1.216-1.216c0.366-0.366 0.952-0.366 1.318 0l1.216 1.216zM4.471 25.053c-0.366 0.366-0.952 0.366-1.318 0l-1.875-1.875 1.318-1.318 1.216 1.201 1.216-1.201c0.366-0.366 0.952-0.366 1.318 0l1.216 1.201 0.938-0.938v-4.292l-3.076-4.6c-0.337-0.513-0.103-1.216 0.483-1.421l2.593-0.85v-4.38h1.875v-1.875h3.75v-1.875h3.75v1.875h3.75v1.875h1.875v4.38l2.593 0.85c0.586 0.205 0.82 0.908 0.483 1.421l-3.076 4.6v4.292l0.278-0.264c0.366-0.366 0.952-0.366 1.318 0l1.216 1.201 1.216-1.201c0.366-0.366 0.952-0.366 1.318 0l1.875 1.875-1.318 1.318-1.216-1.216-1.216 1.216c-0.176 0.19-0.425 0.278-0.659 0.278s-0.483-0.088-0.659-0.278l-1.216-1.216-1.216 1.216c-0.366 0.366-0.952 0.366-1.318 0l-1.216-1.216-1.216 1.216c-0.366 0.366-0.952 0.366-1.318 0l-1.216-1.216-1.216 1.216c-0.366 0.366-0.952 0.366-1.318 0l-1.216-1.216-1.216 1.216c-0.366 0.366-0.952 0.366-1.318 0l-1.216-1.216-1.216 1.216c-0.366 0.366-0.952 0.366-1.318 0l-1.216-1.216zM10.375 8.456v1.875l5.625-1.875 5.625 1.875v-1.875h-1.875v-1.875h-7.5v1.875h-1.875z"></path>
</svg>
