<?xml version="1.0" encoding="utf-8"?>
<!-- Generated by IcoMoon.io -->
<!DOCTYPE svg PUBLIC "-//W3C//DTD SVG 1.1//EN" "http://www.w3.org/Graphics/SVG/1.1/DTD/svg11.dtd">
<svg version="1.1" xmlns="http://www.w3.org/2000/svg" xmlns:xlink="http://www.w3.org/1999/xlink" width="32" height="32" viewBox="0 0 32 32">
<path d="M2.809 1.143h26.382v23.909l-13.328 5.805-13.054-5.805v-23.909zM27.474 23.935v-15.905h-22.947v15.905l11.353 5.050zM27.474 6.313v-3.452h-22.947v3.452h22.947zM5.918 11.431v1.975h-0.636v-1.975h0.636zM5.918 13.973v1.975h-0.636v-1.975h0.636zM5.918 16.515v1.975h-0.636v-1.975h0.636zM5.918 19.057v1.975h-0.636v-1.975h0.636zM5.918 21.599v1.975h-0.636v-1.975h0.636zM6.364 24.055l0.258-0.584 1.803 0.807-0.258 0.567zM8.7 25.086l0.258-0.584 1.803 0.79-0.258 0.584zM11.019 26.117l0.258-0.584 1.803 0.79-0.258 0.584zM13.355 27.13l0.258-0.567 1.786 0.79-0.258 0.584zM16.498 27.353l1.803-0.79 0.258 0.567-1.803 0.807zM18.817 26.323l1.803-0.79 0.258 0.584-1.803 0.79zM21.153 25.292l1.803-0.79 0.258 0.584-1.803 0.79zM23.472 24.279l1.803-0.807 0.258 0.584-1.803 0.79zM7.258 3.668v0.618h-1.958v-0.618h1.958zM10.040 3.668v0.618h-1.975v-0.618h1.975zM12.823 3.668v0.618h-1.975v-0.618h1.975zM15.588 3.668v0.618h-1.958v-0.618h1.958zM18.37 3.668v0.618h-1.958v-0.618h1.958zM21.153 3.668v0.618h-1.975v-0.618h1.975zM23.935 3.668v0.618h-1.975v-0.618h1.975zM26.701 3.668v0.618h-1.958v-0.618h1.958zM5.918 9.508v1.357h-0.636v-1.975h1.975v0.618h-1.34zM10.040 8.889v0.618h-1.975v-0.618h1.975zM12.823 8.889v0.618h-1.975v-0.618h1.975zM15.588 8.889v0.618h-1.958v-0.618h1.958zM18.37 8.889v0.618h-1.958v-0.618h1.958zM21.153 8.889v0.618h-1.975v-0.618h1.975zM23.935 8.889v0.618h-1.975v-0.618h1.975zM26.082 10.864v-1.357h-1.34v-0.618h1.975v1.975h-0.636zM26.082 13.406v-1.975h0.636v1.975h-0.636zM26.082 15.948v-1.975h0.636v1.975h-0.636zM26.082 18.491v-1.975h0.636v1.975h-0.636zM26.082 21.032v-1.975h0.636v1.975h-0.636zM26.082 23.575v-1.975h0.636v1.975h-0.636zM15.863 22.973c-2.954 0-5.376-2.405-5.376-5.376 0-2.954 2.422-5.376 5.376-5.376 2.971 0 5.376 2.422 5.376 5.376 0 2.971-2.405 5.376-5.376 5.376zM13.029 16.429c0 2.611 4.569 0.704 4.569 2.233 0 0.773-1.408 0.842-1.924 0.842-0.721 0-1.752-0.155-2.113-0.876h-0.052l-0.532 1.082c0.876 0.55 1.718 0.721 2.783 0.721 1.151 0 3.006-0.344 3.006-1.838 0-2.834-4.62-0.962-4.62-2.233 0-0.773 1.219-0.876 1.752-0.876 0.636 0 1.718 0.189 2.095 0.773h0.052l0.515-0.996c-0.893-0.361-1.615-0.704-2.611-0.704-1.185 0-2.92 0.378-2.92 1.872z"></path>
</svg>
