<?xml version="1.0" encoding="utf-8"?>
<!-- Generated by IcoMoon.io -->
<!DOCTYPE svg PUBLIC "-//W3C//DTD SVG 1.1//EN" "http://www.w3.org/Graphics/SVG/1.1/DTD/svg11.dtd">
<svg version="1.1" xmlns="http://www.w3.org/2000/svg" xmlns:xlink="http://www.w3.org/1999/xlink" width="32" height="32" viewBox="0 0 32 32">
<path d="M30.243 24.469l0.579 5.178c0.033 0.298-0.066 0.596-0.265 0.827-0.198 0.215-0.496 0.347-0.794 0.347h-27.526c-0.298 0-0.595-0.132-0.794-0.347-0.198-0.232-0.298-0.529-0.265-0.827l0.579-5.178h28.485zM28.704 10.591l1.423 12.82h-28.253l1.423-12.82c0.066-0.529 0.513-0.943 1.059-0.943h4.235v2.117c0 1.174 0.943 2.117 2.117 2.117s2.117-0.943 2.117-2.117v-2.117h6.352v2.117c0 1.174 0.943 2.117 2.117 2.117s2.117-0.943 2.117-2.117v-2.117h4.235c0.546 0 0.993 0.414 1.059 0.943zM22.352 7.531v4.235c0 0.579-0.48 1.059-1.059 1.059s-1.059-0.48-1.059-1.059v-4.235c0-2.332-1.902-4.235-4.235-4.235s-4.235 1.902-4.235 4.235v4.235c0 0.579-0.48 1.059-1.059 1.059s-1.059-0.48-1.059-1.059v-4.235c0-3.507 2.845-6.352 6.352-6.352s6.352 2.845 6.352 6.352z"></path>
</svg>
