<?xml version="1.0" encoding="utf-8"?>
<!-- Generated by IcoMoon.io -->
<!DOCTYPE svg PUBLIC "-//W3C//DTD SVG 1.1//EN" "http://www.w3.org/Graphics/SVG/1.1/DTD/svg11.dtd">
<svg version="1.1" xmlns="http://www.w3.org/2000/svg" xmlns:xlink="http://www.w3.org/1999/xlink" width="32" height="32" viewBox="0 0 32 32">
<path d="M23.28 6.042c0.2 0.2 0.2 0.508 0 0.708l-9.635 9.635c-0.2 0.2-0.508 0.2-0.708 0l-1.262-1.262c-0.2-0.2-0.2-0.508 0-0.708l0.677-0.677c-1.493-1.878-1.678-4.448-0.539-6.495-0.708-0.677-1.662-1.093-2.709-1.093-2.17 0-3.94 1.77-3.94 3.94v19.701h-3.94v-19.701c0-4.34 3.54-7.88 7.88-7.88 2.216 0 4.217 0.923 5.649 2.401 1.939-0.785 4.186-0.493 5.879 0.847l0.677-0.677c0.2-0.2 0.508-0.2 0.708 0zM21.91 10.090c0.539 0 0.985 0.446 0.985 0.985s-0.446 0.985-0.985 0.985-0.985-0.446-0.985-0.985 0.446-0.985 0.985-0.985zM25.85 12.060c-0.539 0-0.985-0.446-0.985-0.985s0.446-0.985 0.985-0.985 0.985 0.446 0.985 0.985-0.446 0.985-0.985 0.985zM29.791 10.090c0.539 0 0.985 0.446 0.985 0.985s-0.446 0.985-0.985 0.985-0.985-0.446-0.985-0.985 0.446-0.985 0.985-0.985zM19.94 12.060c0.539 0 0.985 0.446 0.985 0.985s-0.446 0.985-0.985 0.985-0.985-0.446-0.985-0.985 0.446-0.985 0.985-0.985zM22.895 13.045c0-0.539 0.446-0.985 0.985-0.985s0.985 0.446 0.985 0.985-0.446 0.985-0.985 0.985-0.985-0.446-0.985-0.985zM27.82 12.060c0.539 0 0.985 0.446 0.985 0.985s-0.446 0.985-0.985 0.985-0.985-0.446-0.985-0.985 0.446-0.985 0.985-0.985zM17.97 14.030c0.539 0 0.985 0.446 0.985 0.985s-0.446 0.985-0.985 0.985-0.985-0.446-0.985-0.985 0.446-0.985 0.985-0.985zM21.91 16c-0.539 0-0.985-0.446-0.985-0.985s0.446-0.985 0.985-0.985 0.985 0.446 0.985 0.985-0.446 0.985-0.985 0.985zM25.85 14.030c0.539 0 0.985 0.446 0.985 0.985s-0.446 0.985-0.985 0.985-0.985-0.446-0.985-0.985 0.446-0.985 0.985-0.985zM19.94 17.97c-0.539 0-0.985-0.446-0.985-0.985s0.446-0.985 0.985-0.985 0.985 0.446 0.985 0.985-0.446 0.985-0.985 0.985zM23.88 16c0.539 0 0.985 0.446 0.985 0.985s-0.446 0.985-0.985 0.985-0.985-0.446-0.985-0.985 0.446-0.985 0.985-0.985zM17.97 17.97c0.539 0 0.985 0.446 0.985 0.985s-0.446 0.985-0.985 0.985-0.985-0.446-0.985-0.985 0.446-0.985 0.985-0.985zM21.91 17.97c0.539 0 0.985 0.446 0.985 0.985s-0.446 0.985-0.985 0.985-0.985-0.446-0.985-0.985 0.446-0.985 0.985-0.985zM19.94 19.94c0.539 0 0.985 0.446 0.985 0.985s-0.446 0.985-0.985 0.985-0.985-0.446-0.985-0.985 0.446-0.985 0.985-0.985zM17.97 21.91c0.539 0 0.985 0.446 0.985 0.985s-0.446 0.985-0.985 0.985-0.985-0.446-0.985-0.985 0.446-0.985 0.985-0.985z"></path>
</svg>
