<?xml version="1.0" encoding="utf-8"?>
<!-- Generated by IcoMoon.io -->
<!DOCTYPE svg PUBLIC "-//W3C//DTD SVG 1.1//EN" "http://www.w3.org/Graphics/SVG/1.1/DTD/svg11.dtd">
<svg version="1.1" xmlns="http://www.w3.org/2000/svg" xmlns:xlink="http://www.w3.org/1999/xlink" width="32" height="32" viewBox="0 0 32 32">
<path d="M15.98 12.456c0.345 0 0.674 0.099 0.97 0.296l3.651 2.434c0.674 0.444 1.283 0.987 1.809 1.595l2.401 2.796c0.411 0.477 0.592 1.118 0.477 1.743l-1.184 6.791c-0.132 0.691-0.691 1.217-1.398 1.299l-8.666 0.921-5.788 0.526h-0.148c-0.855 0-1.579-0.691-1.579-1.579 0-0.822 0.691-1.48 1.513-1.579l4.275-0.526h-7.367c-0.904 0-1.628-0.756-1.579-1.661 0.049-0.855 0.806-1.496 1.661-1.496l7.268-0.016-8.567-1.052c-0.888-0.099-1.529-0.904-1.398-1.809 0.132-0.789 0.855-1.316 1.644-1.316h0.164l7.91 0.987-5.772-1.546c-0.822-0.214-1.447-0.97-1.316-1.809 0.132-0.789 0.806-1.332 1.562-1.332 0.115 0 0.214 0.016 0.329 0.033l7.367 1.579 3.568 0.608c0.033 0 0.066 0.016 0.099 0.016 0.493 0 0.74-0.674 0.296-0.97l-3.059-2.056c-0.756-0.51-0.937-1.529-0.395-2.253 0.296-0.411 0.773-0.625 1.25-0.625zM14.829 15.778l3.059 2.056-3.585-0.608-0.082-0.033-0.592-0.625-3.914-4.308c-0.033-0.033-0.049-0.082-0.082-0.115-0.51-0.674-0.395-1.661 0.312-2.203 0.658-0.51 1.595-0.345 2.171 0.263l2.335 2.417c-0.049 0.049-0.099 0.082-0.148 0.132-0.345 0.477-0.477 1.052-0.378 1.628 0.099 0.559 0.428 1.069 0.904 1.398zM29.415 8.312l0.247 4.374c0.049 0.806-0.016 1.628-0.181 2.417l-0.789 3.601c-0.132 0.625-0.526 1.135-1.102 1.431l-1.743 0.888c0.016-0.658-0.197-1.283-0.641-1.792l-2.401-2.796c-0.559-0.641-1.2-1.217-1.924-1.694l-3.651-2.434c-0.362-0.247-0.789-0.378-1.25-0.378-0.559 0-1.069 0.23-1.447 0.608l-3.864-5.131c-0.543-0.724-0.378-1.743 0.378-2.253 0.707-0.493 1.677-0.263 2.203 0.428l4.374 5.788-4.308-7.482c-0.46-0.773-0.197-1.776 0.608-2.203 0.756-0.395 1.71-0.082 2.138 0.658l3.963 6.906-2.236-5.542c-0.312-0.789-0.099-1.743 0.658-2.138 0.806-0.428 1.792-0.082 2.171 0.74l3.174 6.824 1.661 3.223c0.263 0.51 1.036 0.296 1.003-0.263l-0.197-3.683c-0.049-0.904 0.658-1.661 1.562-1.677 0.855 0 1.546 0.724 1.595 1.579z"></path>
</svg>
