<?xml version="1.0" encoding="utf-8"?>
<!-- Generated by IcoMoon.io -->
<!DOCTYPE svg PUBLIC "-//W3C//DTD SVG 1.1//EN" "http://www.w3.org/Graphics/SVG/1.1/DTD/svg11.dtd">
<svg version="1.1" xmlns="http://www.w3.org/2000/svg" xmlns:xlink="http://www.w3.org/1999/xlink" width="32" height="32" viewBox="0 0 32 32">
<path d="M5.524 24.905v3.143c0 0.295-0.229 0.524-0.524 0.524h-3.143c-0.295 0-0.524-0.229-0.524-0.524v-3.143c0-0.295 0.229-0.524 0.524-0.524h3.143c0.295 0 0.524 0.229 0.524 0.524zM11.809 22.81v5.238c0 0.295-0.229 0.524-0.524 0.524h-3.143c-0.295 0-0.524-0.229-0.524-0.524v-5.238c0-0.295 0.229-0.524 0.524-0.524h3.143c0.295 0 0.524 0.229 0.524 0.524zM18.095 18.619v9.429c0 0.295-0.229 0.524-0.524 0.524h-3.143c-0.295 0-0.524-0.229-0.524-0.524v-9.429c0-0.295 0.229-0.524 0.524-0.524h3.143c0.295 0 0.524 0.229 0.524 0.524zM24.381 12.333v15.714c0 0.295-0.229 0.524-0.524 0.524h-3.143c-0.295 0-0.524-0.229-0.524-0.524v-15.714c0-0.295 0.229-0.524 0.524-0.524h3.143c0.295 0 0.524 0.229 0.524 0.524zM30.667 3.952v24.095c0 0.295-0.229 0.524-0.524 0.524h-3.143c-0.295 0-0.524-0.229-0.524-0.524v-24.095c0-0.295 0.229-0.524 0.524-0.524h3.143c0.295 0 0.524 0.229 0.524 0.524z"></path>
</svg>
