<?xml version="1.0" encoding="utf-8"?>
<!-- Generated by IcoMoon.io -->
<!DOCTYPE svg PUBLIC "-//W3C//DTD SVG 1.1//EN" "http://www.w3.org/Graphics/SVG/1.1/DTD/svg11.dtd">
<svg version="1.1" xmlns="http://www.w3.org/2000/svg" xmlns:xlink="http://www.w3.org/1999/xlink" width="33" height="32" viewBox="0 0 33 32">
<path d="M13.552 26.329c0 0.532 0.247 1.823-0.608 1.823h-6.076c-3.019 0-5.468-2.449-5.468-5.468v-13.367c0-3.019 2.449-5.468 5.468-5.468h6.076c0.323 0 0.608 0.285 0.608 0.608 0 0.532 0.247 1.823-0.608 1.823h-6.076c-1.671 0-3.038 1.367-3.038 3.038v13.367c0 1.671 1.367 3.038 3.038 3.038h5.468c0.475 0 1.215-0.095 1.215 0.608zM31.171 16c0 0.323-0.133 0.627-0.361 0.854l-10.329 10.329c-0.228 0.228-0.532 0.361-0.854 0.361-0.665 0-1.215-0.551-1.215-1.215v-5.468h-8.506c-0.665 0-1.215-0.551-1.215-1.215v-7.291c0-0.665 0.551-1.215 1.215-1.215h8.506v-5.468c0-0.665 0.551-1.215 1.215-1.215 0.323 0 0.627 0.133 0.854 0.361l10.329 10.329c0.228 0.228 0.361 0.532 0.361 0.854z"></path>
</svg>
