<?xml version="1.0" encoding="utf-8"?>
<!-- Generated by IcoMoon.io -->
<!DOCTYPE svg PUBLIC "-//W3C//DTD SVG 1.1//EN" "http://www.w3.org/Graphics/SVG/1.1/DTD/svg11.dtd">
<svg version="1.1" xmlns="http://www.w3.org/2000/svg" xmlns:xlink="http://www.w3.org/1999/xlink" width="32" height="32" viewBox="0 0 32 32">
<path d="M13.72 17.926c0-2.124-1.714-3.838-3.838-3.838-2.11 0-3.824 1.714-3.824 3.838 0 2.11 1.714 3.824 3.824 3.824 2.124 0 3.838-1.714 3.838-3.824zM25.941 17.912c0-2.11-1.714-3.824-3.824-3.824-2.124 0-3.838 1.714-3.838 3.824 0 2.124 1.714 3.838 3.838 3.838 2.11 0 3.824-1.714 3.824-3.838zM30.502 6.455v19.090c0 0.836-0.68 1.515-1.529 1.515h-25.944c-0.85 0-1.529-0.68-1.529-1.515v-19.090c0-0.836 0.68-1.515 1.529-1.515h6.104c0.836 0 1.529 0.68 1.529 1.515v2.28h10.678v-2.28c0-0.836 0.694-1.515 1.529-1.515h6.104c0.85 0 1.529 0.68 1.529 1.515z"></path>
</svg>
