<?xml version="1.0" encoding="utf-8"?>
<!-- Generated by IcoMoon.io -->
<!DOCTYPE svg PUBLIC "-//W3C//DTD SVG 1.1//EN" "http://www.w3.org/Graphics/SVG/1.1/DTD/svg11.dtd">
<svg version="1.1" xmlns="http://www.w3.org/2000/svg" xmlns:xlink="http://www.w3.org/1999/xlink" width="32" height="32" viewBox="0 0 32 32">
<path d="M21.571 11.712c0 0-0.014-0.014 0 0v0zM25.139 14.511c2.662 0 4.912 1.99 4.912 4.707 0 2.895-2.305 5.022-5.159 5.022-7.286 0-8.631-10.964-15.794-10.964-2.772 0-4.789 1.77-4.789 4.611 0 2.936 2.196 4.707 5.036 4.707 1.866 0 3.993-0.782 5.502-1.866 0.247-0.178 0.741-0.714 1.002-0.714s0.48 0.22 0.48 0.48c0 0.343-0.576 0.837-0.823 1.057-1.798 1.564-4.405 2.689-6.792 2.689-3.664 0-6.765-2.593-6.765-6.367s2.964-6.545 6.71-6.545c8.137 0 9.77 10.799 15.89 10.799 1.839 0 3.225-1.194 3.225-3.074 0-1.743-1.345-3.060-3.074-3.060-0.768 0-1.537 0.508-2.058 0.508-0.37 0-0.7-0.316-0.7-0.686 0-0.508 0.233-1.043 0.233-1.592 0-2.923-2.237-5.036-5.132-5.036-2.333 0-3.513 1.619-3.897 1.619-0.274 0-0.494-0.22-0.494-0.494 0-0.247 0.178-0.453 0.343-0.631 1.111-1.262 2.84-1.921 4.514-1.921 3.485 0 6.106 2.566 6.106 6.051 0 0.302-0.014 0.604-0.055 0.906 0.521-0.137 1.057-0.206 1.578-0.206z"></path>
</svg>
