<?xml version="1.0" encoding="utf-8"?>
<!-- Generated by IcoMoon.io -->
<!DOCTYPE svg PUBLIC "-//W3C//DTD SVG 1.1//EN" "http://www.w3.org/Graphics/SVG/1.1/DTD/svg11.dtd">
<svg version="1.1" xmlns="http://www.w3.org/2000/svg" xmlns:xlink="http://www.w3.org/1999/xlink" width="32" height="32" viewBox="0 0 32 32">
<path d="M23.835 19.231c0-3.366-3.269-4.527-6.016-5.146l-2.012-0.464c-1.47-0.348-2.573-0.6-2.573-1.722 0-1.025 1.083-1.49 2.786-1.49 3.037 0 3.095 2.225 4.972 2.225 1.257 0 2.012-0.987 2.012-2.109 0-2.225-3.695-3.676-7.351-3.676-3.347 0-7.235 1.451-7.235 5.378 0 3.25 2.167 4.411 4.991 5.088l2.824 0.696c1.722 0.426 2.786 0.619 2.786 1.857 0 0.987-1.103 1.741-2.805 1.741-3.579 0-3.772-2.979-5.842-2.979-1.354 0-1.954 0.967-1.954 2.031 0 2.379 3.637 4.314 7.99 4.314 3.637 0 7.429-1.818 7.429-5.746zM30.857 23.429c0 4.101-3.327 7.429-7.429 7.429-1.702 0-3.269-0.58-4.527-1.548-0.929 0.193-1.915 0.31-2.902 0.31-7.525 0-13.619-6.094-13.619-13.619 0-0.987 0.116-1.973 0.31-2.902-0.967-1.257-1.548-2.824-1.548-4.527 0-4.101 3.327-7.429 7.429-7.429 1.702 0 3.269 0.58 4.527 1.548 0.929-0.193 1.915-0.31 2.902-0.31 7.525 0 13.619 6.094 13.619 13.619 0 0.987-0.116 1.973-0.31 2.902 0.967 1.257 1.548 2.824 1.548 4.527z"></path>
</svg>
