<?xml version="1.0" encoding="utf-8"?>
<!-- Generated by IcoMoon.io -->
<!DOCTYPE svg PUBLIC "-//W3C//DTD SVG 1.1//EN" "http://www.w3.org/Graphics/SVG/1.1/DTD/svg11.dtd">
<svg version="1.1" xmlns="http://www.w3.org/2000/svg" xmlns:xlink="http://www.w3.org/1999/xlink" width="32" height="32" viewBox="0 0 32 32">
<path d="M15.649 12.448c0 1.696-1.482 3.086-3.3 3.086s-3.3-1.39-3.3-3.086c0-1.711 1.482-3.086 3.3-3.086s3.3 1.375 3.3 3.086zM23.318 12.448c0 1.696-1.467 3.086-3.3 3.086-1.818 0-3.3-1.39-3.3-3.086 0-1.711 1.482-3.086 3.3-3.086 1.833 0 3.3 1.375 3.3 3.086zM26.755 15.198v-10.19c0-1.757-0.565-2.444-2.185-2.444h-16.988c-1.696 0-2.169 0.581-2.169 2.444v10.282c3.621 1.894 6.722 1.558 8.418 1.497 0.718-0.015 1.176 0.122 1.451 0.413 0.046 0.046 0.092 0.092 0.153 0.137 0.321 0.306 0.626 0.55 0.932 0.779 0.061-0.84 0.535-1.375 1.803-1.329 1.726 0.076 4.904 0.413 8.586-1.589zM29.245 15.122c-0.978 1.207-2.842 2.689-5.683 3.85 3.010 10.251-7.348 11.886-7.18 6.63 0 0.092-0.015-2.826-0.015-4.996-0.229-0.046-0.458-0.107-0.733-0.168 0 2.185-0.015 5.255-0.015 5.164 0.168 5.255-10.19 3.621-7.18-6.63-2.842-1.161-4.705-2.643-5.683-3.85-0.489-0.733 0.046-1.512 0.856-0.947 0.107 0.076 0.229 0.153 0.336 0.229v-10.602c0-1.467 1.1-2.658 2.46-2.658h19.204c1.36 0 2.46 1.192 2.46 2.658v10.602l0.321-0.229c0.81-0.565 1.344 0.214 0.856 0.947z"></path>
</svg>
