<?xml version="1.0" encoding="utf-8"?>
<!-- Generated by IcoMoon.io -->
<!DOCTYPE svg PUBLIC "-//W3C//DTD SVG 1.1//EN" "http://www.w3.org/Graphics/SVG/1.1/DTD/svg11.dtd">
<svg version="1.1" xmlns="http://www.w3.org/2000/svg" xmlns:xlink="http://www.w3.org/1999/xlink" width="32" height="32" viewBox="0 0 32 32">
<path d="M8.009 24.606v2.459h-6.762v-2.459h6.762zM14.771 22.147c0.672 0 1.229 0.557 1.229 1.229v4.918c0 0.672-0.557 1.229-1.229 1.229h-4.918c-0.672 0-1.229-0.557-1.229-1.229v-4.918c0-0.672 0.557-1.229 1.229-1.229h4.918zM17.844 14.771v2.459h-16.597v-2.459h16.597zM5.55 4.935v2.459h-4.303v-2.459h4.303zM30.753 24.606v2.459h-14.139v-2.459h14.139zM12.312 2.476c0.672 0 1.229 0.557 1.229 1.229v4.918c0 0.672-0.557 1.229-1.229 1.229h-4.918c-0.672 0-1.229-0.557-1.229-1.229v-4.918c0-0.672 0.557-1.229 1.229-1.229h4.918zM24.606 12.312c0.672 0 1.229 0.557 1.229 1.229v4.918c0 0.672-0.557 1.229-1.229 1.229h-4.918c-0.672 0-1.229-0.557-1.229-1.229v-4.918c0-0.672 0.557-1.229 1.229-1.229h4.918zM30.753 14.771v2.459h-4.303v-2.459h4.303zM30.753 4.935v2.459h-16.597v-2.459h16.597z"></path>
</svg>
