<?xml version="1.0" encoding="utf-8"?>
<!-- Generated by IcoMoon.io -->
<!DOCTYPE svg PUBLIC "-//W3C//DTD SVG 1.1//EN" "http://www.w3.org/Graphics/SVG/1.1/DTD/svg11.dtd">
<svg version="1.1" xmlns="http://www.w3.org/2000/svg" xmlns:xlink="http://www.w3.org/1999/xlink" width="32" height="32" viewBox="0 0 32 32">
<path d="M23.080 19.463c-0.967 3.115-3.811 5.204-7.080 5.204s-6.113-2.089-7.080-5.204c-0.213-0.658 0.155-1.335 0.813-1.548 0.638-0.213 1.335 0.155 1.548 0.813 0.638 2.070 2.554 3.463 4.72 3.463s4.082-1.393 4.72-3.463c0.213-0.658 0.909-1.025 1.567-0.813 0.638 0.213 1.006 0.89 0.793 1.548zM13.524 11.048c0 1.373-1.103 2.476-2.476 2.476s-2.476-1.103-2.476-2.476 1.103-2.476 2.476-2.476 2.476 1.103 2.476 2.476zM23.429 11.048c0 1.373-1.103 2.476-2.476 2.476s-2.476-1.103-2.476-2.476 1.103-2.476 2.476-2.476 2.476 1.103 2.476 2.476zM28.381 16c0-6.829-5.552-12.381-12.381-12.381s-12.381 5.552-12.381 12.381 5.552 12.381 12.381 12.381 12.381-5.552 12.381-12.381zM30.857 16c0 8.202-6.655 14.857-14.857 14.857s-14.857-6.655-14.857-14.857 6.655-14.857 14.857-14.857 14.857 6.655 14.857 14.857z"></path>
</svg>
