<?xml version="1.0" encoding="utf-8"?>
<!-- Generated by IcoMoon.io -->
<!DOCTYPE svg PUBLIC "-//W3C//DTD SVG 1.1//EN" "http://www.w3.org/Graphics/SVG/1.1/DTD/svg11.dtd">
<svg version="1.1" xmlns="http://www.w3.org/2000/svg" xmlns:xlink="http://www.w3.org/1999/xlink" width="32" height="32" viewBox="0 0 32 32">
<path d="M25.885 20.875c0-0.271-0.155-0.464-0.426-0.522-1.76-0.387-3.095-1.606-3.83-3.231-0.058-0.155-0.135-0.31-0.135-0.484 0-0.871 2.418-0.696 2.418-1.935 0-0.522-0.638-0.851-1.103-0.851-0.445 0-0.793 0.31-1.219 0.31-0.077 0-0.155-0.019-0.232-0.039 0.039-0.735 0.097-1.47 0.097-2.205 0-0.677-0.039-1.606-0.329-2.205-0.929-2.012-2.728-3.192-4.933-3.192-2.418 0-4.256 0.89-5.32 3.192-0.29 0.6-0.329 1.528-0.329 2.205 0 0.735 0.058 1.47 0.097 2.205-0.077 0.039-0.174 0.039-0.271 0.039-0.445 0-0.793-0.29-1.199-0.29-0.484 0-1.083 0.31-1.083 0.851 0 1.199 2.418 1.045 2.418 1.915 0 0.174-0.077 0.329-0.135 0.484-0.754 1.625-2.051 2.844-3.83 3.231-0.271 0.058-0.426 0.252-0.426 0.522 0 0.89 2.051 1.219 2.65 1.315 0.174 0.464 0.097 1.277 0.793 1.277 0.484 0 0.967-0.174 1.49-0.174 2.031 0 2.573 1.838 4.933 1.838 2.457 0 2.921-1.838 4.972-1.838 0.522 0 1.006 0.155 1.509 0.155 0.677 0 0.6-0.813 0.774-1.257 0.6-0.097 2.65-0.426 2.65-1.315zM30.857 16c0 8.202-6.655 14.857-14.857 14.857s-14.857-6.655-14.857-14.857 6.655-14.857 14.857-14.857 14.857 6.655 14.857 14.857z"></path>
</svg>
