<?xml version="1.0" encoding="utf-8"?>
<!-- Generated by IcoMoon.io -->
<!DOCTYPE svg PUBLIC "-//W3C//DTD SVG 1.1//EN" "http://www.w3.org/Graphics/SVG/1.1/DTD/svg11.dtd">
<svg version="1.1" xmlns="http://www.w3.org/2000/svg" xmlns:xlink="http://www.w3.org/1999/xlink" width="32" height="32" viewBox="0 0 32 32">
<path d="M16.29 2.119c3.258-0.036 5.954 1.792 7.311 4.723 0.416 0.887 0.489 2.262 0.489 3.239 0 1.158-0.090 2.298-0.163 3.457 0.145 0.072 0.344 0.127 0.507 0.127 0.651 0 1.194-0.489 1.846-0.489 0.615 0 1.502 0.434 1.502 1.158 0 1.737-3.638 1.412-3.638 2.932 0 0.271 0.109 0.525 0.217 0.778 0.869 1.9 2.516 3.728 4.47 4.543 0.471 0.199 0.941 0.308 1.448 0.416 0.326 0.072 0.507 0.308 0.507 0.633 0 1.231-3.131 1.737-3.963 1.864-0.362 0.561-0.090 1.882-1.050 1.882-0.742 0-1.484-0.235-2.28-0.235-0.38 0-0.76 0.018-1.122 0.090-2.154 0.362-2.878 2.678-6.407 2.678-3.402 0-4.217-2.317-6.316-2.678-0.38-0.072-0.76-0.090-1.14-0.090-0.814 0-1.593 0.271-2.244 0.271-1.013 0-0.706-1.339-1.086-1.918-0.833-0.127-3.963-0.633-3.963-1.864 0-0.326 0.181-0.561 0.507-0.633 0.507-0.109 0.977-0.217 1.448-0.416 1.936-0.796 3.62-2.642 4.47-4.543 0.109-0.253 0.217-0.507 0.217-0.778 0-1.52-3.656-1.231-3.656-2.914 0-0.706 0.832-1.158 1.466-1.158 0.561 0 1.122 0.471 1.828 0.471 0.199 0 0.398-0.036 0.579-0.127-0.072-1.14-0.163-2.28-0.163-3.439 0-0.977 0.072-2.371 0.489-3.258 1.593-3.439 4.289-4.687 7.891-4.723z"></path>
</svg>
