<?xml version="1.0" encoding="utf-8"?>
<!-- Generated by IcoMoon.io -->
<!DOCTYPE svg PUBLIC "-//W3C//DTD SVG 1.1//EN" "http://www.w3.org/Graphics/SVG/1.1/DTD/svg11.dtd">
<svg version="1.1" xmlns="http://www.w3.org/2000/svg" xmlns:xlink="http://www.w3.org/1999/xlink" width="32" height="32" viewBox="0 0 32 32">
<path d="M25.905 20.875c0-0.271-0.155-0.464-0.426-0.522-1.76-0.368-3.095-1.606-3.83-3.231-0.077-0.155-0.135-0.31-0.135-0.484 0-0.871 2.399-0.696 2.399-1.935 0-0.522-0.638-0.851-1.103-0.851-0.426 0-0.774 0.31-1.219 0.31-0.077 0-0.155-0.019-0.232-0.039 0.058-0.735 0.097-1.49 0.097-2.225 0-0.658-0.039-1.586-0.329-2.205-0.929-2.012-2.708-3.192-4.933-3.192-2.418 0-4.256 0.909-5.32 3.192-0.29 0.619-0.348 1.548-0.348 2.225 0 0.735 0.058 1.47 0.116 2.205-0.097 0.019-0.193 0.039-0.29 0.039-0.426 0-0.793-0.31-1.199-0.31-0.484 0-1.064 0.329-1.064 0.871 0 1.199 2.399 1.045 2.399 1.915 0 0.174-0.058 0.329-0.135 0.484-0.754 1.625-2.051 2.844-3.83 3.231-0.271 0.058-0.426 0.252-0.426 0.522 0 0.909 2.051 1.238 2.67 1.335 0.174 0.464 0.097 1.277 0.774 1.277 0.503 0 0.987-0.193 1.49-0.193 2.051 0 2.592 1.838 4.952 1.838 2.457 0 2.921-1.838 4.991-1.838 0.503 0 1.006 0.174 1.509 0.174 0.658 0 0.6-0.813 0.754-1.257 0.619-0.097 2.67-0.426 2.67-1.335zM30.857 6.714v18.571c0 3.076-2.496 5.571-5.571 5.571h-18.571c-3.076 0-5.571-2.496-5.571-5.571v-18.571c0-3.076 2.496-5.571 5.571-5.571h18.571c3.076 0 5.571 2.496 5.571 5.571z"></path>
</svg>
