<?xml version="1.0" encoding="utf-8"?>
<!-- Generated by IcoMoon.io -->
<!DOCTYPE svg PUBLIC "-//W3C//DTD SVG 1.1//EN" "http://www.w3.org/Graphics/SVG/1.1/DTD/svg11.dtd">
<svg version="1.1" xmlns="http://www.w3.org/2000/svg" xmlns:xlink="http://www.w3.org/1999/xlink" width="32" height="32" viewBox="0 0 32 32">
<path d="M28.171 19.665l-2.769 0.547 3.084 1.774c0.497 0.282 0.68 0.945 0.381 1.443s-0.945 0.68-1.443 0.381l-3.084-1.758 0.912 2.653c0.464 1.327-1.559 2.006-2.006 0.696l-1.691-4.974-4.494-2.587v5.19l3.449 3.946c0.929 1.045-0.68 2.454-1.592 1.393l-1.857-2.122v3.548c0 0.58-0.481 1.061-1.061 1.061s-1.061-0.481-1.061-1.061v-3.548l-1.857 2.122c-0.912 1.061-2.52-0.348-1.592-1.393l3.449-3.946v-5.19l-4.494 2.587-1.691 4.974c-0.448 1.31-2.471 0.63-2.006-0.696l0.912-2.653-3.084 1.758c-0.497 0.298-1.144 0.116-1.443-0.381s-0.116-1.161 0.381-1.443l3.084-1.774-2.769-0.547c-1.376-0.282-0.962-2.355 0.415-2.089l5.14 1.028 4.494-2.603-4.494-2.603-5.14 1.028c-0.066 0.017-0.149 0.017-0.216 0.017-1.26 0-1.443-1.857-0.199-2.106l2.769-0.547-3.084-1.774c-0.497-0.282-0.68-0.945-0.381-1.443 0.298-0.514 0.945-0.68 1.443-0.381l3.084 1.758-0.912-2.653c-0.464-1.327 1.559-2.006 2.006-0.696l1.691 4.974 4.494 2.587v-5.19l-3.449-3.946c-0.929-1.045 0.68-2.454 1.592-1.393l1.857 2.122v-3.548c0-0.58 0.481-1.061 1.061-1.061s1.061 0.481 1.061 1.061v3.548l1.857-2.122c0.912-1.061 2.52 0.348 1.592 1.393l-3.449 3.946v5.19l4.494-2.587 1.691-4.974c0.448-1.31 2.471-0.63 2.006 0.696l-0.912 2.653 3.084-1.758c0.497-0.298 1.144-0.116 1.443 0.381s0.116 1.161-0.381 1.443l-3.084 1.774 2.769 0.547c1.244 0.249 1.061 2.106-0.199 2.106-0.066 0-0.149 0-0.216-0.017l-5.14-1.028-4.494 2.603 4.494 2.603 5.14-1.028c1.376-0.265 1.791 1.807 0.415 2.089z"></path>
</svg>
