<?xml version="1.0" encoding="utf-8"?>
<!-- Generated by IcoMoon.io -->
<!DOCTYPE svg PUBLIC "-//W3C//DTD SVG 1.1//EN" "http://www.w3.org/Graphics/SVG/1.1/DTD/svg11.dtd">
<svg version="1.1" xmlns="http://www.w3.org/2000/svg" xmlns:xlink="http://www.w3.org/1999/xlink" width="32" height="32" viewBox="0 0 32 32">
<path d="M26.805 20.052c0 0.359-0.148 0.696-0.401 0.95l-9.455 9.455c-0.253 0.253-0.591 0.401-0.95 0.401s-0.696-0.148-0.95-0.401l-9.455-9.455c-0.253-0.253-0.401-0.591-0.401-0.95 0-0.739 0.612-1.351 1.351-1.351h18.909c0.739 0 1.351 0.612 1.351 1.351zM26.805 11.948c0 0.739-0.612 1.351-1.351 1.351h-18.909c-0.739 0-1.351-0.612-1.351-1.351 0-0.359 0.148-0.696 0.401-0.95l9.455-9.455c0.253-0.253 0.591-0.401 0.95-0.401s0.696 0.148 0.95 0.401l9.455 9.455c0.253 0.253 0.401 0.591 0.401 0.95z"></path>
</svg>
