<?xml version="1.0" encoding="utf-8"?>
<!-- Generated by IcoMoon.io -->
<!DOCTYPE svg PUBLIC "-//W3C//DTD SVG 1.1//EN" "http://www.w3.org/Graphics/SVG/1.1/DTD/svg11.dtd">
<svg version="1.1" xmlns="http://www.w3.org/2000/svg" xmlns:xlink="http://www.w3.org/1999/xlink" width="32" height="32" viewBox="0 0 32 32">
<path d="M25.571 22.915c0-1.36-1.111-2.802-2.438-2.802-1.161 0-1.89 0.945-1.89 2.172 0 1.194 0.763 2.205 2.338 2.205 1.078 0 1.99-0.647 1.99-1.575zM15.456 25.020c0 0.149-0.066 0.282-0.166 0.398l-5.29 5.29c-0.116 0.099-0.249 0.149-0.381 0.149s-0.265-0.050-0.381-0.149l-5.306-5.306c-0.149-0.166-0.199-0.381-0.116-0.58s0.282-0.332 0.497-0.332h3.184v-22.816c0-0.298 0.232-0.531 0.531-0.531h3.184c0.298 0 0.531 0.232 0.531 0.531v22.816h3.184c0.298 0 0.531 0.232 0.531 0.531zM27.892 23.876c0 3.349-1.824 6.981-5.77 6.981-0.746 0-1.36-0.116-1.791-0.265-0.265-0.083-0.497-0.166-0.696-0.249l0.647-1.874c0.149 0.066 0.332 0.133 0.514 0.182 0.332 0.116 0.763 0.216 1.244 0.216 1.99 0 3.018-1.658 3.333-3.383h-0.033c-0.464 0.497-1.443 0.846-2.421 0.846-2.404 0-3.98-1.89-3.98-4.046 0-2.288 1.758-4.162 4.195-4.162 2.636 0 4.759 2.156 4.759 5.754zM27.395 11.987v1.89h-7.777v-1.89h2.769v-7.163c0-0.216 0.017-0.431 0.017-0.597v-0.265h-0.033l-0.116 0.199c-0.083 0.133-0.216 0.298-0.431 0.514l-1.028 0.962-1.36-1.426 3.184-3.068h2.040v10.844h2.736z"></path>
</svg>
