<?xml version="1.0" encoding="utf-8"?>
<!-- Generated by IcoMoon.io -->
<!DOCTYPE svg PUBLIC "-//W3C//DTD SVG 1.1//EN" "http://www.w3.org/Graphics/SVG/1.1/DTD/svg11.dtd">
<svg version="1.1" xmlns="http://www.w3.org/2000/svg" xmlns:xlink="http://www.w3.org/1999/xlink" width="33" height="32" viewBox="0 0 33 32">
<path d="M21.325 27.143v3.184c0 0.298-0.232 0.531-0.531 0.531h-4.245c-0.298 0-0.531-0.232-0.531-0.531v-3.184c0-0.298 0.232-0.531 0.531-0.531h4.245c0.298 0 0.531 0.232 0.531 0.531zM13.366 25.020c0 0.149-0.066 0.282-0.166 0.398l-5.29 5.29c-0.116 0.099-0.249 0.149-0.381 0.149s-0.265-0.050-0.381-0.149l-5.306-5.306c-0.149-0.166-0.199-0.381-0.116-0.58s0.282-0.332 0.497-0.332h3.184v-22.816c0-0.298 0.232-0.531 0.531-0.531h3.184c0.298 0 0.531 0.232 0.531 0.531v22.816h3.184c0.298 0 0.531 0.232 0.531 0.531zM24.509 18.653v3.184c0 0.298-0.232 0.531-0.531 0.531h-7.429c-0.298 0-0.531-0.232-0.531-0.531v-3.184c0-0.298 0.232-0.531 0.531-0.531h7.429c0.298 0 0.531 0.232 0.531 0.531zM27.692 10.163v3.184c0 0.298-0.232 0.531-0.531 0.531h-10.612c-0.298 0-0.531-0.232-0.531-0.531v-3.184c0-0.298 0.232-0.531 0.531-0.531h10.612c0.298 0 0.531 0.232 0.531 0.531zM30.876 1.673v3.184c0 0.298-0.232 0.531-0.531 0.531h-13.796c-0.298 0-0.531-0.232-0.531-0.531v-3.184c0-0.298 0.232-0.531 0.531-0.531h13.796c0.298 0 0.531 0.232 0.531 0.531z"></path>
</svg>
