<?xml version="1.0" encoding="utf-8"?>
<!-- Generated by IcoMoon.io -->
<!DOCTYPE svg PUBLIC "-//W3C//DTD SVG 1.1//EN" "http://www.w3.org/Graphics/SVG/1.1/DTD/svg11.dtd">
<svg version="1.1" xmlns="http://www.w3.org/2000/svg" xmlns:xlink="http://www.w3.org/1999/xlink" width="32" height="32" viewBox="0 0 32 32">
<path d="M11.73 21.523l0.186-2.796-0.186-6.068c-0.012-0.151-0.128-0.278-0.278-0.278-0.139 0-0.267 0.128-0.267 0.278l-0.162 6.068 0.162 2.796c0.012 0.151 0.128 0.267 0.267 0.267 0.151 0 0.267-0.116 0.278-0.267zM15.165 21.187l0.128-2.448-0.139-6.799c0-0.116-0.058-0.22-0.151-0.278-0.058-0.035-0.116-0.058-0.186-0.058s-0.128 0.023-0.186 0.058c-0.093 0.058-0.151 0.162-0.151 0.278l-0.012 0.070-0.116 6.718s0 0.012 0.128 2.738v0.012c0 0.070 0.023 0.139 0.070 0.197 0.070 0.081 0.162 0.128 0.267 0.128 0.093 0 0.174-0.046 0.232-0.104 0.070-0.058 0.104-0.139 0.104-0.232zM3.039 17.242l0.232 1.485-0.232 1.462c-0.012 0.058-0.046 0.104-0.104 0.104s-0.093-0.046-0.104-0.104l-0.197-1.462 0.197-1.485c0.012-0.058 0.046-0.104 0.104-0.104s0.093 0.046 0.104 0.104zM4.037 16.325l0.302 2.402-0.302 2.355c-0.012 0.058-0.058 0.104-0.116 0.104s-0.104-0.046-0.104-0.116l-0.267-2.344 0.267-2.402c0-0.058 0.046-0.104 0.104-0.104s0.104 0.046 0.116 0.104zM7.286 21.581v0 0zM5.105 15.884l0.29 2.843-0.29 2.75c0 0.070-0.058 0.128-0.128 0.128s-0.128-0.058-0.139-0.128l-0.244-2.75 0.244-2.843c0.012-0.081 0.070-0.139 0.139-0.139s0.128 0.058 0.128 0.139zM6.195 15.803l0.267 2.924-0.267 2.831c-0.012 0.093-0.081 0.151-0.162 0.151s-0.151-0.058-0.151-0.151l-0.244-2.831 0.244-2.924c0-0.093 0.070-0.151 0.151-0.151s0.151 0.058 0.162 0.151zM7.286 16.012l0.244 2.715-0.244 2.854c-0.012 0.104-0.093 0.186-0.186 0.186s-0.174-0.081-0.174-0.186l-0.232-2.854 0.232-2.715c0-0.093 0.081-0.174 0.174-0.174s0.174 0.081 0.186 0.174zM11.73 21.523v0 0zM8.377 14.318l0.244 4.409-0.244 2.854c0 0.116-0.093 0.209-0.197 0.209-0.116 0-0.197-0.093-0.209-0.209l-0.209-2.854 0.209-4.409c0.012-0.116 0.093-0.209 0.209-0.209 0.104 0 0.197 0.093 0.197 0.209zM9.467 13.32l0.22 5.43-0.22 2.831c0 0.128-0.104 0.22-0.22 0.22-0.128 0-0.22-0.093-0.232-0.22l-0.186-2.831 0.186-5.43c0.012-0.128 0.104-0.22 0.232-0.22 0.116 0 0.22 0.093 0.22 0.22zM10.604 12.856l0.209 5.871-0.209 2.808c-0.012 0.139-0.116 0.244-0.255 0.244-0.128 0-0.232-0.104-0.244-0.244l-0.186-2.808 0.186-5.871c0-0.139 0.116-0.255 0.244-0.255 0.139 0 0.244 0.116 0.255 0.255zM15.153 21.465v0 0 0 0 0 0zM12.856 12.809l0.174 5.918-0.174 2.773c0 0.162-0.128 0.29-0.29 0.29s-0.278-0.128-0.29-0.29l-0.162-2.773 0.162-5.918c0-0.162 0.128-0.29 0.29-0.29s0.29 0.128 0.29 0.29zM14.004 13.030l0.162 5.709-0.162 2.738c0 0.174-0.139 0.313-0.313 0.313s-0.313-0.139-0.325-0.313l-0.139-2.738 0.139-5.709c0.012-0.186 0.151-0.325 0.325-0.325s0.302 0.139 0.313 0.325zM16.464 18.738l-0.162 2.68c0 0.197-0.162 0.36-0.36 0.36s-0.36-0.162-0.371-0.36l-0.070-1.323-0.070-1.358 0.139-7.38v-0.035c0.012-0.104 0.058-0.209 0.139-0.278 0.058-0.046 0.139-0.081 0.232-0.081 0.058 0 0.128 0.023 0.174 0.058 0.104 0.058 0.174 0.174 0.186 0.302zM29.367 18.518c0 1.81-1.474 3.272-3.284 3.272h-9.12c-0.197-0.023-0.36-0.174-0.36-0.383v-10.431c0-0.197 0.070-0.29 0.325-0.383 0.638-0.255 1.358-0.395 2.1-0.395 3.028 0 5.512 2.321 5.778 5.279 0.395-0.162 0.824-0.255 1.276-0.255 1.81 0 3.284 1.474 3.284 3.295z"></path>
</svg>
