<?xml version="1.0" encoding="utf-8"?>
<!-- Generated by IcoMoon.io -->
<!DOCTYPE svg PUBLIC "-//W3C//DTD SVG 1.1//EN" "http://www.w3.org/Graphics/SVG/1.1/DTD/svg11.dtd">
<svg version="1.1" xmlns="http://www.w3.org/2000/svg" xmlns:xlink="http://www.w3.org/1999/xlink" width="32" height="32" viewBox="0 0 32 32">
<path d="M9.877 18.093c-0.903 0.523-2.132 0.837-3.506 0.837h-1.675v-0.837h-0.837c-0.236 0-0.419-0.471-0.419-1.047 0-0.235 0.039-0.458 0.092-0.641-1.007-0.026-1.766-0.196-1.766-0.406s0.759-0.379 1.766-0.406c-0.052-0.183-0.092-0.406-0.092-0.641 0-0.576 0.183-1.047 0.419-1.047h0.837v-0.837h1.675c1.374 0 2.603 0.314 3.506 0.837h14.561c0.968 0.17 1.845 0.314 2.446 0.419 2.512 0.419 3.349 1.256 3.349 1.675s-0.837 1.256-3.349 1.675c-0.602 0.105-1.478 0.249-2.446 0.419h-14.561zM24.517 14.796c0.419 0.288 0.693 0.72 0.693 1.204s-0.275 0.916-0.693 1.204l1.060 0.392c0.536-0.379 0.89-0.955 0.89-1.596s-0.353-1.217-0.89-1.596zM9.943 18.303h13.279s-2.839 0.497-5.966 1.047c-1.675 0-2.931 1.256-2.931 1.256l-3.768 3.768s-1.269 0.837-2.093 0.837h-1.256l-1.217-6.070h0.379c1.334 0 2.603-0.301 3.572-0.837zM6.371 12.86h-0.379l1.217-6.070h1.256c0.85 0 1.675 0.419 2.093 0.837l3.768 3.768c0 0 1.256 1.256 2.93 1.256 3.127 0.549 5.966 1.047 5.966 1.047h-13.279c-0.968-0.536-2.237-0.837-3.572-0.837z"></path>
</svg>
