<?xml version="1.0" encoding="utf-8"?>
<!-- Generated by IcoMoon.io -->
<!DOCTYPE svg PUBLIC "-//W3C//DTD SVG 1.1//EN" "http://www.w3.org/Graphics/SVG/1.1/DTD/svg11.dtd">
<svg version="1.1" xmlns="http://www.w3.org/2000/svg" xmlns:xlink="http://www.w3.org/1999/xlink" width="32" height="32" viewBox="0 0 32 32">
<path d="M9.638 25.114c0 1.204-0.98 2.201-2.201 2.201-1.204 0-2.201-0.997-2.201-2.201 0-1.221 0.997-2.201 2.201-2.201 1.221 0 2.201 0.98 2.201 2.201zM18.201 28.656c0 1.221-0.98 2.201-2.201 2.201s-2.201-0.98-2.201-2.201 0.98-2.201 2.201-2.201 2.201 0.98 2.201 2.201zM6.095 16.55c0 1.221-0.98 2.201-2.201 2.201s-2.201-0.98-2.201-2.201 0.98-2.201 2.201-2.201 2.201 0.98 2.201 2.201zM26.765 25.114c0 1.204-0.997 2.201-2.201 2.201-1.221 0-2.201-0.997-2.201-2.201 0-1.221 0.98-2.201 2.201-2.201 1.204 0 2.201 0.98 2.201 2.201zM10.188 7.987c0 1.513-1.238 2.751-2.751 2.751s-2.751-1.238-2.751-2.751 1.238-2.751 2.751-2.751 2.751 1.238 2.751 2.751zM30.307 16.55c0 1.221-0.98 2.201-2.201 2.201s-2.201-0.98-2.201-2.201 0.98-2.201 2.201-2.201 2.201 0.98 2.201 2.201zM19.302 4.444c0 1.823-1.479 3.302-3.302 3.302s-3.302-1.479-3.302-3.302 1.479-3.302 3.302-3.302 3.302 1.479 3.302 3.302zM28.415 7.987c0 2.132-1.737 3.852-3.852 3.852-2.132 0-3.852-1.72-3.852-3.852 0-2.115 1.72-3.852 3.852-3.852 2.115 0 3.852 1.737 3.852 3.852z"></path>
</svg>
