<?xml version="1.0" encoding="utf-8"?>
<!-- Generated by IcoMoon.io -->
<!DOCTYPE svg PUBLIC "-//W3C//DTD SVG 1.1//EN" "http://www.w3.org/Graphics/SVG/1.1/DTD/svg11.dtd">
<svg version="1.1" xmlns="http://www.w3.org/2000/svg" xmlns:xlink="http://www.w3.org/1999/xlink" width="32" height="32" viewBox="0 0 32 32">
<path d="M22.945 22.074c0-0.542-0.213-0.754-0.58-0.987-2.496-1.49-5.397-2.225-8.647-2.225-1.896 0-3.714 0.252-5.552 0.658-0.445 0.097-0.813 0.387-0.813 1.006 0 0.484 0.368 0.948 0.948 0.948 0.174 0 0.484-0.097 0.716-0.155 1.509-0.31 3.095-0.522 4.701-0.522 2.844 0 5.533 0.696 7.68 1.993 0.232 0.135 0.387 0.213 0.638 0.213 0.484 0 0.909-0.387 0.909-0.929zM24.802 17.915c0-0.522-0.193-0.89-0.677-1.18-2.96-1.76-6.713-2.728-10.601-2.728-2.496 0-4.198 0.348-5.862 0.813-0.619 0.174-0.929 0.6-0.929 1.238s0.522 1.161 1.161 1.161c0.271 0 0.426-0.077 0.716-0.155 1.354-0.368 2.979-0.638 4.856-0.638 3.676 0 7.022 0.967 9.44 2.399 0.213 0.116 0.426 0.252 0.735 0.252 0.658 0 1.161-0.522 1.161-1.161zM26.891 13.118c0-0.716-0.31-1.083-0.774-1.354-3.347-1.954-7.932-2.863-12.304-2.863-2.573 0-4.933 0.29-7.042 0.909-0.542 0.155-1.045 0.619-1.045 1.432 0 0.793 0.6 1.412 1.393 1.412 0.29 0 0.561-0.097 0.774-0.155 1.877-0.522 3.908-0.716 5.939-0.716 4.024 0 8.202 0.89 10.891 2.496 0.271 0.155 0.464 0.232 0.774 0.232 0.735 0 1.393-0.58 1.393-1.393zM30.857 16c0 8.202-6.655 14.857-14.857 14.857s-14.857-6.655-14.857-14.857 6.655-14.857 14.857-14.857 14.857 6.655 14.857 14.857z"></path>
</svg>
