<?xml version="1.0" encoding="utf-8"?>
<!-- Generated by IcoMoon.io -->
<!DOCTYPE svg PUBLIC "-//W3C//DTD SVG 1.1//EN" "http://www.w3.org/Graphics/SVG/1.1/DTD/svg11.dtd">
<svg version="1.1" xmlns="http://www.w3.org/2000/svg" xmlns:xlink="http://www.w3.org/1999/xlink" width="32" height="32" viewBox="0 0 32 32">
<path d="M22.154 18.286l4.468-4.346-7.336-1.078-0.521-1.043-2.764-5.597v16.74l1.026 0.539 5.528 2.92-1.043-6.171-0.209-1.147zM30.011 13.732l-6.31 6.154 1.495 8.692c0.122 0.765-0.156 1.217-0.695 1.217-0.191 0-0.435-0.070-0.695-0.209l-7.805-4.102-7.805 4.102c-0.261 0.139-0.504 0.209-0.695 0.209-0.539 0-0.817-0.452-0.695-1.217l1.495-8.692-6.328-6.154c-0.747-0.747-0.504-1.478 0.539-1.634l8.726-1.269 3.911-7.909c0.226-0.469 0.539-0.713 0.852-0.713v0c0.313 0 0.608 0.243 0.852 0.713l3.911 7.909 8.726 1.269c1.043 0.156 1.286 0.887 0.521 1.634z"></path>
</svg>
