<?xml version="1.0" encoding="utf-8"?>
<!-- Generated by IcoMoon.io -->
<!DOCTYPE svg PUBLIC "-//W3C//DTD SVG 1.1//EN" "http://www.w3.org/Graphics/SVG/1.1/DTD/svg11.dtd">
<svg version="1.1" xmlns="http://www.w3.org/2000/svg" xmlns:xlink="http://www.w3.org/1999/xlink" width="32" height="32" viewBox="0 0 32 32">
<path d="M27.229 10.86c0 2.21-1.801 3.994-3.994 3.994-2.21 0-3.994-1.784-3.994-3.994s1.784-3.994 3.994-3.994c2.193 0 3.994 1.784 3.994 3.994zM14.625 23.006c0-2.275-1.817-4.092-4.092-4.092-0.295 0-0.589 0.033-0.884 0.098l1.702 0.688c1.67 0.671 2.488 2.554 1.817 4.223s-2.57 2.488-4.24 1.801c-0.671-0.262-1.342-0.54-2.013-0.802 0.688 1.293 2.046 2.177 3.618 2.177 2.275 0 4.092-1.817 4.092-4.092zM28.211 10.876c0-2.75-2.243-4.993-4.993-4.993-2.766 0-5.009 2.243-5.009 4.993 0 2.766 2.243 4.993 5.009 4.993 2.75 0 4.993-2.226 4.993-4.993zM30.667 10.876c0 4.125-3.339 7.448-7.448 7.448l-7.153 5.222c-0.262 2.815-2.652 5.025-5.533 5.025-2.652 0-4.894-1.882-5.434-4.387l-3.765-1.506v-7.022l6.368 2.57c0.835-0.507 1.801-0.786 2.832-0.786 0.196 0 0.393 0.016 0.573 0.033l4.649-6.662c0.033-4.076 3.372-7.382 7.464-7.382 4.109 0 7.448 3.339 7.448 7.448z"></path>
</svg>
