<?xml version="1.0" encoding="utf-8"?>
<!-- Generated by IcoMoon.io -->
<!DOCTYPE svg PUBLIC "-//W3C//DTD SVG 1.1//EN" "http://www.w3.org/Graphics/SVG/1.1/DTD/svg11.dtd">
<svg version="1.1" xmlns="http://www.w3.org/2000/svg" xmlns:xlink="http://www.w3.org/1999/xlink" width="32" height="32" viewBox="0 0 32 32">
<path d="M25.17 11.183c0-2.051-1.683-3.734-3.753-3.734-2.051 0-3.734 1.683-3.734 3.734 0 2.070 1.683 3.734 3.734 3.734 2.070 0 3.753-1.664 3.753-3.734zM13.369 22.558c0 2.128-1.702 3.83-3.83 3.83-1.47 0-2.747-0.832-3.385-2.051 0.638 0.252 1.257 0.503 1.896 0.774 1.548 0.619 3.327-0.135 3.966-1.702 0.619-1.548-0.135-3.327-1.702-3.946l-1.586-0.638c0.252-0.058 0.542-0.097 0.813-0.097 2.128 0 3.83 1.702 3.83 3.83zM30.857 6.714v18.571c0 3.076-2.496 5.571-5.571 5.571h-18.571c-3.076 0-5.571-2.496-5.571-5.571v-2.96l3.327 1.335c0.503 2.341 2.592 4.101 5.068 4.101 2.708 0 4.933-2.070 5.185-4.701l6.674-4.875c3.869 0 6.984-3.134 6.984-6.964 0-3.869-3.115-6.984-6.984-6.984-3.811 0-6.926 3.095-6.964 6.906l-4.353 6.229c-0.174-0.019-0.348-0.019-0.542-0.019-0.967 0-1.877 0.252-2.65 0.716l-5.746-2.302v-9.054c0-3.076 2.496-5.571 5.571-5.571h18.571c3.076 0 5.571 2.496 5.571 5.571zM26.079 11.222c0 2.573-2.089 4.662-4.682 4.662-2.573 0-4.662-2.089-4.662-4.662 0-2.592 2.089-4.682 4.662-4.682 2.592 0 4.682 2.089 4.682 4.682z"></path>
</svg>
