<?xml version="1.0" encoding="utf-8"?>
<!-- Generated by IcoMoon.io -->
<!DOCTYPE svg PUBLIC "-//W3C//DTD SVG 1.1//EN" "http://www.w3.org/Graphics/SVG/1.1/DTD/svg11.dtd">
<svg version="1.1" xmlns="http://www.w3.org/2000/svg" xmlns:xlink="http://www.w3.org/1999/xlink" width="32" height="32" viewBox="0 0 32 32">
<path d="M24.895 1.619c0.476-0.476 0.857-0.305 0.857 0.362v28.038c0 0.667-0.381 0.838-0.857 0.362l-13.524-13.524c-0.114-0.114-0.19-0.229-0.248-0.362v12.914c0 0.667-0.552 1.219-1.219 1.219h-2.438c-0.667 0-1.219-0.552-1.219-1.219v-26.819c0-0.667 0.552-1.219 1.219-1.219h2.438c0.667 0 1.219 0.552 1.219 1.219v12.914c0.057-0.133 0.133-0.248 0.248-0.362z"></path>
</svg>
