<?xml version="1.0" encoding="utf-8"?>
<!-- Generated by IcoMoon.io -->
<!DOCTYPE svg PUBLIC "-//W3C//DTD SVG 1.1//EN" "http://www.w3.org/Graphics/SVG/1.1/DTD/svg11.dtd">
<svg version="1.1" xmlns="http://www.w3.org/2000/svg" xmlns:xlink="http://www.w3.org/1999/xlink" width="32" height="32" viewBox="0 0 32 32">
<path d="M27.143 12.286c0-0.677-0.561-1.238-1.238-1.238s-1.238 0.561-1.238 1.238 0.561 1.238 1.238 1.238 1.238-0.561 1.238-1.238zM29.619 12.286c0 1.625-1.025 2.979-2.476 3.502v7.641c0 4.101-3.888 7.429-8.667 7.429s-8.667-3.327-8.667-7.429v-2.554c-4.198-0.522-7.429-3.618-7.429-7.351v-9.905c0-0.677 0.561-1.238 1.238-1.238 0.116 0 0.213 0.019 0.31 0.039 0.426-0.754 1.238-1.277 2.167-1.277 1.373 0 2.476 1.103 2.476 2.476s-1.103 2.476-2.476 2.476c-0.445 0-0.871-0.135-1.238-0.348v7.777c0 2.728 2.786 4.952 6.19 4.952s6.19-2.225 6.19-4.952v-7.777c-0.368 0.213-0.793 0.348-1.238 0.348-1.373 0-2.476-1.103-2.476-2.476s1.103-2.476 2.476-2.476c0.929 0 1.741 0.522 2.167 1.277 0.097-0.019 0.193-0.039 0.31-0.039 0.677 0 1.238 0.561 1.238 1.238v9.905c0 3.734-3.231 6.829-7.429 7.351v2.554c0 2.728 2.786 4.952 6.19 4.952s6.19-2.225 6.19-4.952v-7.641c-1.451-0.522-2.476-1.877-2.476-3.502 0-2.051 1.664-3.714 3.714-3.714s3.714 1.664 3.714 3.714z"></path>
</svg>
