<?xml version="1.0" encoding="utf-8"?>
<!-- Generated by IcoMoon.io -->
<!DOCTYPE svg PUBLIC "-//W3C//DTD SVG 1.1//EN" "http://www.w3.org/Graphics/SVG/1.1/DTD/svg11.dtd">
<svg version="1.1" xmlns="http://www.w3.org/2000/svg" xmlns:xlink="http://www.w3.org/1999/xlink" width="32" height="32" viewBox="0 0 32 32">
<path d="M28.226 23.429h-4.798v4.798c0.329-0.116 0.658-0.29 0.793-0.426l3.579-3.579c0.135-0.135 0.31-0.464 0.426-0.793zM22.81 20.952h5.571v-17.333h-24.762v24.762h17.333v-5.571c0-1.025 0.832-1.857 1.857-1.857zM30.857 3v19.81c0 1.025-0.6 2.457-1.315 3.173l-3.56 3.56c-0.716 0.716-2.147 1.315-3.173 1.315h-19.81c-1.025 0-1.857-0.832-1.857-1.857v-26c0-1.025 0.832-1.857 1.857-1.857h26c1.025 0 1.857 0.832 1.857 1.857z"></path>
</svg>
