<?xml version="1.0" encoding="utf-8"?>
<!-- Generated by IcoMoon.io -->
<!DOCTYPE svg PUBLIC "-//W3C//DTD SVG 1.1//EN" "http://www.w3.org/Graphics/SVG/1.1/DTD/svg11.dtd">
<svg version="1.1" xmlns="http://www.w3.org/2000/svg" xmlns:xlink="http://www.w3.org/1999/xlink" width="32" height="32" viewBox="0 0 32 32">
<path d="M27.886 26.535c0 2.971-6.162 4.322-11.886 4.322s-11.886-1.351-11.886-4.322c0-2.296 3.427-3.377 6.297-3.866 0.591-0.101 1.148 0.287 1.249 0.878s-0.287 1.148-0.878 1.249c-3.478 0.608-4.457 1.553-4.508 1.756 0.169 0.574 3.41 2.144 9.725 2.144s9.556-1.57 9.725-2.178c-0.051-0.169-1.030-1.114-4.508-1.722-0.591-0.101-0.979-0.658-0.878-1.249s0.658-0.979 1.249-0.878c2.87 0.49 6.297 1.57 6.297 3.866zM21.403 11.408v6.483c0 0.591-0.49 1.081-1.081 1.081h-1.081v6.483c0 0.591-0.49 1.081-1.081 1.081h-4.322c-0.591 0-1.081-0.49-1.081-1.081v-6.483h-1.081c-0.591 0-1.081-0.49-1.081-1.081v-6.483c0-1.199 0.962-2.161 2.161-2.161h6.483c1.199 0 2.161 0.962 2.161 2.161zM19.782 4.925c0 2.094-1.688 3.782-3.782 3.782s-3.782-1.688-3.782-3.782 1.688-3.782 3.782-3.782 3.782 1.688 3.782 3.782z"></path>
</svg>
