<?xml version="1.0" encoding="utf-8"?>
<!-- Generated by IcoMoon.io -->
<!DOCTYPE svg PUBLIC "-//W3C//DTD SVG 1.1//EN" "http://www.w3.org/Graphics/SVG/1.1/DTD/svg11.dtd">
<svg version="1.1" xmlns="http://www.w3.org/2000/svg" xmlns:xlink="http://www.w3.org/1999/xlink" width="32" height="32" viewBox="0 0 32 32">
<path d="M30.143 16c0.295 0 0.524 0.229 0.524 0.524v1.048c0 0.295-0.229 0.524-0.524 0.524h-28.286c-0.295 0-0.524-0.229-0.524-0.524v-1.048c0-0.295 0.229-0.524 0.524-0.524h28.286zM9.24 14.952c-0.311-0.393-0.589-0.835-0.835-1.309-0.524-1.064-0.786-2.095-0.786-3.077 0-1.997 0.737-3.667 2.193-5.058s3.601-2.079 6.433-2.079c0.622 0 1.522 0.115 2.734 0.311 0.72 0.131 1.686 0.393 2.897 0.786 0.115 0.426 0.229 1.080 0.344 1.932 0.147 1.293 0.229 2.292 0.229 2.996 0 0.229-0.033 0.475-0.082 0.737l-0.196 0.049-1.375-0.098-0.229-0.033c-0.557-1.653-1.129-2.766-1.686-3.356-0.966-0.998-2.128-1.49-3.438-1.49-1.244 0-2.243 0.327-2.979 0.966s-1.097 1.44-1.097 2.39c0 0.802 0.36 1.555 1.080 2.292s2.243 1.44 4.567 2.112c0.786 0.229 1.719 0.589 2.832 1.080 0.589 0.278 1.113 0.557 1.555 0.851h-12.162zM17.539 19.143h6.728c0.082 0.458 0.115 0.966 0.115 1.506 0 1.179-0.213 2.341-0.671 3.47-0.246 0.606-0.622 1.162-1.162 1.702-0.393 0.377-0.982 0.818-1.784 1.326-0.818 0.491-1.637 0.868-2.504 1.080-0.868 0.229-1.964 0.344-3.323 0.344-0.9 0-1.981-0.033-3.192-0.377l-2.292-0.655c-0.638-0.18-1.015-0.327-1.179-0.458-0.065-0.065-0.131-0.18-0.131-0.36v-0.213c0-0.131 0.033-0.982-0.033-2.554-0.033-0.818 0.033-1.391 0.033-1.719v-0.72l1.67-0.033c0.606 1.391 0.884 2.226 1.064 2.521 0.393 0.638 0.835 1.146 1.309 1.539s1.048 0.704 1.719 0.933c0.655 0.246 1.391 0.36 2.161 0.36 0.688 0 1.457-0.147 2.275-0.442 0.835-0.278 1.506-0.753 1.997-1.408 0.507-0.655 0.769-1.359 0.769-2.112 0-0.917-0.442-1.768-1.326-2.57-0.36-0.311-1.113-0.704-2.243-1.162z"></path>
</svg>
