<?xml version="1.0" encoding="utf-8"?>
<!-- Generated by IcoMoon.io -->
<!DOCTYPE svg PUBLIC "-//W3C//DTD SVG 1.1//EN" "http://www.w3.org/Graphics/SVG/1.1/DTD/svg11.dtd">
<svg version="1.1" xmlns="http://www.w3.org/2000/svg" xmlns:xlink="http://www.w3.org/1999/xlink" width="32" height="32" viewBox="0 0 32 32">
<path d="M17.896 14.897l1.741-0.522v-1.199c0-2.051-1.741-3.695-3.792-3.695s-3.792 1.625-3.792 3.676v5.475c0 0.503-0.406 0.909-0.909 0.909s-0.89-0.406-0.89-0.909v-2.321h-2.921v2.36c0 2.109 1.702 3.792 3.811 3.792 2.070 0 3.792-1.664 3.792-3.734v-5.417c0-0.503 0.406-0.909 0.909-0.909 0.484 0 0.89 0.406 0.89 0.909v1.045zM24.338 18.67v-2.36h-2.902v2.438c0 0.503-0.406 0.909-0.909 0.909-0.484 0-0.89-0.406-0.89-0.909v-2.379l-1.741 0.503-1.161-0.542v2.379c0 2.070 1.722 3.753 3.811 3.753s3.792-1.683 3.792-3.792zM30.857 16c0 8.202-6.655 14.857-14.857 14.857s-14.857-6.655-14.857-14.857 6.655-14.857 14.857-14.857 14.857 6.655 14.857 14.857z"></path>
</svg>
