<?xml version="1.0" encoding="utf-8"?>
<!-- Generated by IcoMoon.io -->
<!DOCTYPE svg PUBLIC "-//W3C//DTD SVG 1.1//EN" "http://www.w3.org/Graphics/SVG/1.1/DTD/svg11.dtd">
<svg version="1.1" xmlns="http://www.w3.org/2000/svg" xmlns:xlink="http://www.w3.org/1999/xlink" width="32" height="32" viewBox="0 0 32 32">
<path d="M17.541 13.22v-1.783c0-0.846-0.695-1.541-1.541-1.541s-1.541 0.695-1.541 1.541v9.246c0 3.535-2.931 6.39-6.481 6.39-3.58 0-6.481-2.901-6.481-6.481v-4.019h4.955v3.958c0 0.861 0.695 1.541 1.541 1.541s1.541-0.68 1.541-1.541v-9.367c0-3.46 2.961-6.239 6.466-6.239 3.52 0 6.466 2.795 6.466 6.285v2.055l-2.946 0.876zM25.548 16.574h4.955v4.019c0 3.58-2.901 6.481-6.481 6.481-3.565 0-6.481-2.87-6.481-6.421v-4.049l1.979 0.922 2.946-0.876v4.079c0 0.846 0.695 1.526 1.541 1.526s1.541-0.68 1.541-1.526v-4.155z"></path>
</svg>
