<?xml version="1.0" encoding="utf-8"?>
<!-- Generated by IcoMoon.io -->
<!DOCTYPE svg PUBLIC "-//W3C//DTD SVG 1.1//EN" "http://www.w3.org/Graphics/SVG/1.1/DTD/svg11.dtd">
<svg version="1.1" xmlns="http://www.w3.org/2000/svg" xmlns:xlink="http://www.w3.org/1999/xlink" width="32" height="32" viewBox="0 0 32 32">
<path d="M18.445 18.923v3.17h-4.707l-3.018-4.783-0.456-0.797c-0.114-0.133-0.171-0.266-0.209-0.399h-0.057c-0.038 0.133-0.114 0.266-0.171 0.399-0.114 0.228-0.285 0.531-0.474 0.835l-2.942 4.745h-4.897v-3.17h2.429l3.739-5.523-3.511-5.162h-2.6v-3.188h5.238l2.638 4.327c0.171 0.266 0.304 0.55 0.437 0.797 0.114 0.133 0.171 0.266 0.209 0.399h0.057c0.038-0.133 0.114-0.266 0.209-0.399l0.474-0.797 2.657-4.327h4.878v3.188h-2.372l-3.492 5.067 3.872 5.618h2.069zM30.573 23.041v3.91h-9.755l-0.076-0.512c-0.019-0.285-0.057-0.626-0.057-0.873 0-5.181 6.643-5.618 6.643-8.37 0-0.987-0.892-1.651-1.898-1.651-0.74 0-1.366 0.342-1.841 0.74-0.247 0.209-0.474 0.474-0.683 0.721l-1.993-1.746c0.342-0.474 0.721-0.873 1.196-1.253 0.797-0.645 1.955-1.234 3.568-1.234 2.752 0 4.669 1.613 4.669 4.137 0 4.536-6.301 4.916-6.567 7.649h4.403v-1.518h2.391z"></path>
</svg>
