<?xml version="1.0" encoding="utf-8"?>
<!-- Generated by IcoMoon.io -->
<!DOCTYPE svg PUBLIC "-//W3C//DTD SVG 1.1//EN" "http://www.w3.org/Graphics/SVG/1.1/DTD/svg11.dtd">
<svg version="1.1" xmlns="http://www.w3.org/2000/svg" xmlns:xlink="http://www.w3.org/1999/xlink" width="32" height="32" viewBox="0 0 32 32">
<path d="M11.809 7.619h8.381v-2.095h-8.381v2.095zM6.048 7.619v20.952h-1.048c-2.013 0-3.667-1.653-3.667-3.667v-13.619c0-2.013 1.653-3.667 3.667-3.667h1.048zM24.381 7.619v20.952h-16.762v-20.952h2.095v-2.619c0-0.868 0.704-1.571 1.571-1.571h9.429c0.868 0 1.571 0.704 1.571 1.571v2.619h2.095zM30.667 11.286v13.619c0 2.013-1.653 3.667-3.667 3.667h-1.048v-20.952h1.048c2.013 0 3.667 1.653 3.667 3.667z"></path>
</svg>
