<?xml version="1.0" encoding="utf-8"?>
<!-- Generated by IcoMoon.io -->
<!DOCTYPE svg PUBLIC "-//W3C//DTD SVG 1.1//EN" "http://www.w3.org/Graphics/SVG/1.1/DTD/svg11.dtd">
<svg version="1.1" xmlns="http://www.w3.org/2000/svg" xmlns:xlink="http://www.w3.org/1999/xlink" width="32" height="32" viewBox="0 0 32 32">
<path d="M25.568 16.547c0.298-5.306-3.764-9.7-9.020-10.015-5.223-0.315-9.85 3.665-10.148 8.921-0.298 5.306 3.764 9.7 9.037 10.015 5.223 0.315 9.849-3.648 10.131-8.921zM30.857 1.143l-5.787 5.77c2.636 2.57 4.063 6.152 3.83 9.833-0.365 6.168-5.107 11.093-11.193 11.922l-16.565 2.189 5.754-5.754c-2.636-2.57-4.046-6.152-3.83-9.833 0.381-6.185 5.107-11.11 11.209-11.939 5.522-0.73 11.060-1.459 16.582-2.189z"></path>
</svg>
