<?xml version="1.0" encoding="utf-8"?>
<!-- Generated by IcoMoon.io -->
<!DOCTYPE svg PUBLIC "-//W3C//DTD SVG 1.1//EN" "http://www.w3.org/Graphics/SVG/1.1/DTD/svg11.dtd">
<svg version="1.1" xmlns="http://www.w3.org/2000/svg" xmlns:xlink="http://www.w3.org/1999/xlink" width="32" height="32" viewBox="0 0 32 32">
<path d="M18.489 26.17v3.226h-4.79l-3.071-4.867-0.464-0.811c-0.116-0.135-0.174-0.27-0.212-0.406h-0.058c-0.039 0.135-0.116 0.27-0.174 0.406-0.116 0.232-0.29 0.541-0.483 0.85l-2.994 4.829h-4.983v-3.226h2.472l3.805-5.621-3.573-5.254h-2.646v-3.245h5.331l2.685 4.404c0.174 0.27 0.309 0.56 0.444 0.811 0.116 0.135 0.174 0.27 0.212 0.406h0.058c0.039-0.135 0.116-0.27 0.212-0.406l0.483-0.811 2.704-4.404h4.964v3.245h-2.414l-3.554 5.157 3.94 5.717h2.105zM30.793 13.054v3.979h-9.928l-0.058-0.522c-0.039-0.27-0.077-0.637-0.077-0.889 0-5.273 6.76-5.717 6.76-8.518 0-1.004-0.908-1.68-1.932-1.68-0.734 0-1.391 0.348-1.874 0.753-0.251 0.212-0.483 0.483-0.695 0.734l-2.028-1.777c0.348-0.483 0.734-0.888 1.217-1.275 0.811-0.637 1.989-1.256 3.631-1.256 2.801 0 4.752 1.642 4.752 4.211 0 4.636-6.413 5.022-6.683 7.784h4.481v-1.545h2.434z"></path>
</svg>
