<?xml version="1.0" encoding="utf-8"?>
<!-- Generated by IcoMoon.io -->
<!DOCTYPE svg PUBLIC "-//W3C//DTD SVG 1.1//EN" "http://www.w3.org/Graphics/SVG/1.1/DTD/svg11.dtd">
<svg version="1.1" xmlns="http://www.w3.org/2000/svg" xmlns:xlink="http://www.w3.org/1999/xlink" width="32" height="32" viewBox="0 0 32 32">
<path d="M10.366 25.578v-3.381c0-0.317-0.246-0.563-0.563-0.563h-5.634c-0.317 0-0.563 0.247-0.563 0.563v3.381c0 0.317 0.247 0.563 0.563 0.563h5.634c0.317 0 0.563-0.247 0.563-0.563zM10.366 18.817v-3.381c0-0.317-0.246-0.563-0.563-0.563h-5.634c-0.317 0-0.563 0.246-0.563 0.563v3.381c0 0.317 0.247 0.563 0.563 0.563h5.634c0.317 0 0.563-0.247 0.563-0.563zM19.381 25.578v-3.381c0-0.317-0.247-0.563-0.563-0.563h-5.634c-0.317 0-0.563 0.247-0.563 0.563v3.381c0 0.317 0.246 0.563 0.563 0.563h5.634c0.317 0 0.563-0.247 0.563-0.563zM10.366 12.056v-3.381c0-0.317-0.246-0.563-0.563-0.563h-5.634c-0.317 0-0.563 0.246-0.563 0.563v3.381c0 0.317 0.247 0.563 0.563 0.563h5.634c0.317 0 0.563-0.246 0.563-0.563zM19.381 18.817v-3.381c0-0.317-0.247-0.563-0.563-0.563h-5.634c-0.317 0-0.563 0.246-0.563 0.563v3.381c0 0.317 0.246 0.563 0.563 0.563h5.634c0.317 0 0.563-0.247 0.563-0.563zM28.396 25.578v-3.381c0-0.317-0.247-0.563-0.563-0.563h-5.634c-0.317 0-0.563 0.247-0.563 0.563v3.381c0 0.317 0.247 0.563 0.563 0.563h5.634c0.317 0 0.563-0.247 0.563-0.563zM19.381 12.056v-3.381c0-0.317-0.247-0.563-0.563-0.563h-5.634c-0.317 0-0.563 0.246-0.563 0.563v3.381c0 0.317 0.246 0.563 0.563 0.563h5.634c0.317 0 0.563-0.246 0.563-0.563zM28.396 18.817v-3.381c0-0.317-0.247-0.563-0.563-0.563h-5.634c-0.317 0-0.563 0.246-0.563 0.563v3.381c0 0.317 0.247 0.563 0.563 0.563h5.634c0.317 0 0.563-0.247 0.563-0.563zM28.396 12.056v-3.381c0-0.317-0.247-0.563-0.563-0.563h-5.634c-0.317 0-0.563 0.246-0.563 0.563v3.381c0 0.317 0.247 0.563 0.563 0.563h5.634c0.317 0 0.563-0.246 0.563-0.563zM30.649 6.422v19.157c0 1.549-1.268 2.817-2.817 2.817h-23.664c-1.549 0-2.817-1.268-2.817-2.817v-19.157c0-1.549 1.268-2.817 2.817-2.817h23.664c1.549 0 2.817 1.268 2.817 2.817z"></path>
</svg>
