<?xml version="1.0" encoding="utf-8"?>
<!-- Generated by IcoMoon.io -->
<!DOCTYPE svg PUBLIC "-//W3C//DTD SVG 1.1//EN" "http://www.w3.org/Graphics/SVG/1.1/DTD/svg11.dtd">
<svg version="1.1" xmlns="http://www.w3.org/2000/svg" xmlns:xlink="http://www.w3.org/1999/xlink" width="33" height="32" viewBox="0 0 33 32">
<path d="M10.314 7.419c0-1.393-1.118-2.511-2.511-2.511s-2.511 1.118-2.511 2.511 1.118 2.511 2.511 2.511 2.511-1.118 2.511-2.511zM31.241 18.716c0 0.667-0.275 1.314-0.726 1.765l-9.63 9.65c-0.471 0.451-1.118 0.726-1.785 0.726s-1.314-0.275-1.765-0.726l-14.024-14.043c-1-0.981-1.785-2.883-1.785-4.276v-8.159c0-1.373 1.138-2.51 2.511-2.51h8.159c1.393 0 3.295 0.785 4.295 1.785l14.024 14.004c0.451 0.471 0.726 1.118 0.726 1.785z"></path>
</svg>
