<?xml version="1.0" encoding="utf-8"?>
<!-- Generated by IcoMoon.io -->
<!DOCTYPE svg PUBLIC "-//W3C//DTD SVG 1.1//EN" "http://www.w3.org/Graphics/SVG/1.1/DTD/svg11.dtd">
<svg version="1.1" xmlns="http://www.w3.org/2000/svg" xmlns:xlink="http://www.w3.org/1999/xlink" width="33" height="32" viewBox="0 0 33 32">
<path d="M8.487 9.111c0-1.118-0.898-2.016-2.016-2.016s-2.016 0.898-2.016 2.016 0.898 2.016 2.016 2.016 2.016-0.898 2.016-2.016zM25.289 18.181c0 0.535-0.22 1.055-0.583 1.417l-7.732 7.748c-0.378 0.362-0.898 0.583-1.433 0.583s-1.055-0.22-1.417-0.583l-11.259-11.275c-0.803-0.787-1.433-2.315-1.433-3.433v-6.551c0-1.102 0.913-2.016 2.016-2.016h6.551c1.118 0 2.646 0.63 3.449 1.433l11.259 11.243c0.362 0.378 0.583 0.898 0.583 1.433zM31.336 18.181c0 0.535-0.22 1.055-0.583 1.417l-7.732 7.748c-0.378 0.362-0.898 0.583-1.433 0.583-0.819 0-1.228-0.378-1.764-0.929l7.401-7.401c0.362-0.362 0.583-0.882 0.583-1.417s-0.22-1.055-0.583-1.433l-11.259-11.243c-0.803-0.803-2.331-1.433-3.449-1.433h3.527c1.118 0 2.645 0.63 3.449 1.433l11.259 11.243c0.362 0.378 0.583 0.898 0.583 1.433z"></path>
</svg>
