<?xml version="1.0" encoding="utf-8"?>
<!-- Generated by IcoMoon.io -->
<!DOCTYPE svg PUBLIC "-//W3C//DTD SVG 1.1//EN" "http://www.w3.org/Graphics/SVG/1.1/DTD/svg11.dtd">
<svg version="1.1" xmlns="http://www.w3.org/2000/svg" xmlns:xlink="http://www.w3.org/1999/xlink" width="32" height="32" viewBox="0 0 32 32">
<path d="M18.078 25.351h10.39v-2.078h-10.39v2.078zM11.844 17.039h16.623v-2.078h-16.623v2.078zM22.234 8.727h6.234v-2.078h-6.234v2.078zM30.545 22.234v4.156c0 0.568-0.471 1.039-1.039 1.039h-27.013c-0.568 0-1.039-0.471-1.039-1.039v-4.156c0-0.568 0.471-1.039 1.039-1.039h27.013c0.568 0 1.039 0.471 1.039 1.039zM30.545 13.922v4.156c0 0.568-0.471 1.039-1.039 1.039h-27.013c-0.568 0-1.039-0.471-1.039-1.039v-4.156c0-0.568 0.471-1.039 1.039-1.039h27.013c0.568 0 1.039 0.471 1.039 1.039zM30.545 5.61v4.156c0 0.568-0.471 1.039-1.039 1.039h-27.013c-0.568 0-1.039-0.471-1.039-1.039v-4.156c0-0.568 0.471-1.039 1.039-1.039h27.013c0.568 0 1.039 0.471 1.039 1.039z"></path>
</svg>
