<?xml version="1.0" encoding="utf-8"?>
<!-- Generated by IcoMoon.io -->
<!DOCTYPE svg PUBLIC "-//W3C//DTD SVG 1.1//EN" "http://www.w3.org/Graphics/SVG/1.1/DTD/svg11.dtd">
<svg version="1.1" xmlns="http://www.w3.org/2000/svg" xmlns:xlink="http://www.w3.org/1999/xlink" width="32" height="32" viewBox="0 0 32 32">
<path d="M28.629 21.343v-14.571c0-0.258-0.228-0.486-0.486-0.486h-24.286c-0.258 0-0.486 0.228-0.486 0.486v14.571c0 0.258 0.228 0.486 0.486 0.486h24.286c0.258 0 0.486-0.228 0.486-0.486zM30.571 6.771v14.571c0 1.336-1.093 2.429-2.429 2.429h-11.171v1.943h5.343c0.273 0 0.486 0.212 0.486 0.486v0.971c0 0.273-0.212 0.486-0.486 0.486h-12.629c-0.273 0-0.486-0.212-0.486-0.486v-0.971c0-0.273 0.213-0.486 0.486-0.486h5.343v-1.943h-11.171c-1.336 0-2.429-1.093-2.429-2.429v-14.571c0-1.336 1.093-2.429 2.429-2.429h24.286c1.336 0 2.429 1.093 2.429 2.429z"></path>
</svg>
