<?xml version="1.0" encoding="utf-8"?>
<!-- Generated by IcoMoon.io -->
<!DOCTYPE svg PUBLIC "-//W3C//DTD SVG 1.1//EN" "http://www.w3.org/Graphics/SVG/1.1/DTD/svg11.dtd">
<svg version="1.1" xmlns="http://www.w3.org/2000/svg" xmlns:xlink="http://www.w3.org/1999/xlink" width="32" height="32" viewBox="0 0 32 32">
<path d="M20.858 22.815l2.438-11.491c0.216-1.011-0.365-1.409-1.028-1.161l-14.327 5.522c-0.978 0.381-0.962 0.929-0.166 1.177l3.665 1.144 8.506-5.356c0.398-0.265 0.763-0.116 0.464 0.149l-6.881 6.218-0.265 3.781c0.381 0 0.547-0.166 0.746-0.365l1.791-1.724 3.714 2.736c0.68 0.381 1.161 0.182 1.343-0.63zM30.857 16c0 8.208-6.649 14.857-14.857 14.857s-14.857-6.649-14.857-14.857 6.649-14.857 14.857-14.857 14.857 6.649 14.857 14.857z"></path>
</svg>
