<?xml version="1.0" encoding="utf-8"?>
<!-- Generated by IcoMoon.io -->
<!DOCTYPE svg PUBLIC "-//W3C//DTD SVG 1.1//EN" "http://www.w3.org/Graphics/SVG/1.1/DTD/svg11.dtd">
<svg version="1.1" xmlns="http://www.w3.org/2000/svg" xmlns:xlink="http://www.w3.org/1999/xlink" width="32" height="32" viewBox="0 0 32 32">
<path d="M19.349 10.628c0 1.758-1.443 3.2-3.2 3.2-0.68 0-1.31-0.216-1.841-0.58-0.597 0.647-1.26 1.459-1.907 2.421-2.703 4.063-3.847 8.855-3.349 14.244 0.033 0.481-0.315 0.895-0.779 0.945h-0.083c-0.431 0-0.813-0.332-0.862-0.779-0.647-7.263 1.658-12.403 3.698-15.438 0.746-1.111 1.492-2.006 2.189-2.736-0.182-0.398-0.265-0.829-0.265-1.277 0-1.774 1.426-3.2 3.2-3.2 1.758 0 3.2 1.426 3.2 3.2zM25.667 10.81c0 5.323-4.328 9.65-9.667 9.65-0.73 0-1.459-0.083-2.172-0.232-0.464-0.116-0.746-0.58-0.647-1.045 0.116-0.448 0.564-0.746 1.028-0.647 0.58 0.149 1.194 0.216 1.791 0.216 4.378 0 7.943-3.565 7.943-7.943s-3.565-7.943-7.943-7.943-7.943 3.565-7.943 7.943c0 1.277 0.298 2.487 0.862 3.615 0.216 0.431 0.050 0.945-0.365 1.161-0.431 0.216-0.945 0.050-1.161-0.381-0.696-1.343-1.061-2.869-1.061-4.394 0-5.339 4.344-9.667 9.667-9.667 5.339 0 9.667 4.328 9.667 9.667z"></path>
</svg>
