<?xml version="1.0" encoding="utf-8"?>
<!-- Generated by IcoMoon.io -->
<!DOCTYPE svg PUBLIC "-//W3C//DTD SVG 1.1//EN" "http://www.w3.org/Graphics/SVG/1.1/DTD/svg11.dtd">
<svg version="1.1" xmlns="http://www.w3.org/2000/svg" xmlns:xlink="http://www.w3.org/1999/xlink" width="32" height="32" viewBox="0 0 32 32">
<path d="M11.721 15.757l-8.078 8.078c-0.225 0.225-0.572 0.225-0.797 0l-0.867-0.867c-0.225-0.225-0.225-0.572 0-0.797l6.813-6.813-6.813-6.813c-0.225-0.225-0.225-0.572 0-0.797l0.867-0.867c0.225-0.225 0.572-0.225 0.797 0l8.078 8.078c0.225 0.225 0.225 0.572 0 0.797zM30.425 23.679v1.109c0 0.312-0.243 0.555-0.555 0.555h-16.641c-0.312 0-0.555-0.243-0.555-0.555v-1.109c0-0.312 0.243-0.555 0.555-0.555h16.641c0.312 0 0.555 0.243 0.555 0.555z"></path>
</svg>
