<?xml version="1.0" encoding="utf-8"?>
<!-- Generated by IcoMoon.io -->
<!DOCTYPE svg PUBLIC "-//W3C//DTD SVG 1.1//EN" "http://www.w3.org/Graphics/SVG/1.1/DTD/svg11.dtd">
<svg version="1.1" xmlns="http://www.w3.org/2000/svg" xmlns:xlink="http://www.w3.org/1999/xlink" width="32" height="32" viewBox="0 0 32 32">
<path d="M29.895 24.385c0.721 0 0.95 0.459 0.508 1.032l-2.063 2.653c-0.442 0.573-1.163 0.573-1.605 0l-2.063-2.653c-0.442-0.573-0.213-1.032 0.508-1.032h1.31v-16.77h-1.31c-0.721 0-0.95-0.459-0.508-1.032l2.063-2.653c0.442-0.573 1.163-0.573 1.605 0l2.063 2.653c0.442 0.573 0.213 1.032-0.508 1.032h-1.31v16.77h1.31zM2.66 3.439l0.884 0.442c0.115 0.049 3.112 0.082 3.455 0.082 1.441 0 2.882-0.066 4.323-0.066 1.179 0 2.342 0.016 3.521 0.016h4.798c0.655 0 1.032 0.147 1.474-0.475l0.688-0.016c0.147 0 0.311 0.016 0.459 0.016 0.033 1.834 0.033 3.668 0.033 5.503 0 0.573 0.016 1.212-0.082 1.785-0.36 0.131-0.737 0.246-1.114 0.295-0.377-0.655-0.639-1.376-0.884-2.096-0.115-0.328-0.508-2.538-0.54-2.571-0.344-0.426-0.721-0.344-1.228-0.344-1.49 0-3.046-0.066-4.52 0.115-0.082 0.721-0.147 1.49-0.131 2.227 0.016 4.602 0.066 9.204 0.066 13.806 0 1.261-0.197 2.588 0.164 3.799 1.245 0.639 2.719 0.737 3.996 1.31 0.033 0.262 0.082 0.54 0.082 0.819 0 0.147-0.016 0.311-0.049 0.475l-0.557 0.016c-2.325 0.066-4.618-0.295-6.96-0.295-1.654 0-3.308 0.295-4.962 0.295-0.016-0.278-0.049-0.573-0.049-0.852v-0.147c0.622-0.999 2.866-1.015 3.898-1.621 0.36-0.802 0.311-5.241 0.311-6.272 0-3.308-0.098-6.616-0.098-9.924v-1.916c0-0.295 0.066-1.474-0.131-1.703-0.229-0.246-2.375-0.197-2.653-0.197-0.606 0-2.358 0.278-2.833 0.622-0.786 0.54-0.786 3.816-1.769 3.881-0.295-0.18-0.704-0.442-0.917-0.721v-6.272z"></path>
</svg>
