<?xml version="1.0" encoding="utf-8"?>
<!-- Generated by IcoMoon.io -->
<!DOCTYPE svg PUBLIC "-//W3C//DTD SVG 1.1//EN" "http://www.w3.org/Graphics/SVG/1.1/DTD/svg11.dtd">
<svg version="1.1" xmlns="http://www.w3.org/2000/svg" xmlns:xlink="http://www.w3.org/1999/xlink" width="32" height="32" viewBox="0 0 32 32">
<path d="M15.27 6.267c0 0.597-0.381 1.26-1.028 1.26-0.663 0-1.028-0.663-1.028-1.26 0-0.58 0.365-1.26 1.028-1.26 0.647 0 1.028 0.68 1.028 1.26zM12.551 29.083v-1.89c0-0.647-0.514-1.21-1.177-1.21s-1.161 0.564-1.161 1.21v1.89c0 0.647 0.497 1.227 1.161 1.227s1.177-0.564 1.177-1.227zM15.403 29.083v-1.89c0-0.647-0.497-1.21-1.161-1.21s-1.177 0.564-1.177 1.21v1.89c0 0.647 0.514 1.227 1.177 1.227s1.161-0.58 1.161-1.227zM18.288 29.083v-1.89c0-0.647-0.514-1.21-1.177-1.21s-1.177 0.564-1.177 1.21v1.89c0 0.647 0.514 1.227 1.177 1.227s1.177-0.564 1.177-1.227zM21.173 29.083v-1.89c0-0.647-0.514-1.21-1.177-1.21s-1.177 0.564-1.177 1.21v1.89c0 0.647 0.514 1.227 1.177 1.227s1.177-0.58 1.177-1.227zM25.617 17.741c-1.791 3.432-5.24 5.953-9.203 5.953-5.605 0-9.319-4.908-9.319-10.247 0-0.978 0.116-1.94 0.348-2.885-1.161 1.957-1.724 4.212-1.724 6.467 0 3.499 1.443 7.064 4.145 9.335 0.298-0.564 0.862-0.945 1.509-0.945 0.58 0 1.128 0.332 1.426 0.829 0.315-0.497 0.846-0.829 1.443-0.829 0.58 0 1.128 0.332 1.426 0.829 0.315-0.497 0.862-0.829 1.443-0.829s1.128 0.332 1.443 0.829c0.298-0.497 0.846-0.829 1.426-0.829 0.63 0 1.21 0.381 1.492 0.929 2.52-2.106 3.98-5.339 4.145-8.606zM23.13 17.26c0-0.829-0.365-1.244-1.194-1.244-0.265 0-0.531 0.050-0.779 0.099-0.829 0.166-1.642 0.315-2.471 0.315-2.62 0-3.747-1.526-3.747-4.029 0-1.144 0.216-2.272 0.497-3.383-0.879 1.343-1.376 2.952-1.376 4.56 0 3.134 1.99 6.152 5.372 6.152 1.244 0 2.471-0.448 3.482-1.161 0.116-0.431 0.216-0.862 0.216-1.31zM15.801 6.333c0-1.045-0.73-2.139-1.874-2.139s-1.874 1.094-1.874 2.139c0 1.061 0.73 2.156 1.874 2.156s1.874-1.094 1.874-2.156zM26.231 11.954c0-3.117-2.006-6.135-5.372-6.135-1.758 0-3.399 0.879-4.577 2.139-0.415 1.376-0.796 2.985-0.796 4.444 0 2.205 0.879 3.482 3.2 3.482 0.796 0 1.575-0.149 2.355-0.315 0.298-0.050 0.58-0.1 0.879-0.1 1.144 0 1.724 0.663 1.724 1.791 0 0.249-0.017 0.514-0.066 0.763 1.675-1.509 2.653-3.814 2.653-6.069zM30.857 15.552c0 2.089-0.663 5.936-2.106 7.528-1.327 1.443-5.074 3.548-7.014 4.096l-0.066 0.017v1.89c0 0.945-0.73 1.774-1.691 1.774-0.58 0-1.128-0.332-1.426-0.829-0.315 0.497-0.862 0.829-1.443 0.829s-1.128-0.332-1.443-0.829c-0.298 0.497-0.846 0.829-1.426 0.829-0.597 0-1.128-0.332-1.443-0.829-0.298 0.497-0.846 0.829-1.426 0.829-1.094 0-1.708-0.912-1.708-1.907-0.945 0.713-2.073 1.128-3.283 1.128-1.277 0-2.52-0.481-3.499-1.327 0.597-0.017 1.194-0.133 1.758-0.332-1.21-0.332-2.288-1.094-3.018-2.106 0.381 0.083 0.779 0.116 1.177 0.116 0.962 0 1.907-0.265 2.719-0.763-1.277-1.277-3.283-3.416-3.98-5.074-0.332-0.779-0.398-1.824-0.398-2.653 0-2.885 1.177-9.286 5.008-9.286 0.614 0 1.094 0.282 1.343 0.862 0.216-0.315 0.448-0.614 0.696-0.895 0.116-0.149 0.332-0.315 0.415-0.481 0.464-0.73 0.68-1.227 1.26-1.973 1.874-2.388 4.742-4.029 7.827-4.029 0.348 0 0.696 0.017 1.028 0.066 0.63-0.68 1.509-1.061 2.421-1.061 0.846 0 1.724 0.348 2.321 0.945 0.050 0.050 0.083 0.133 0.083 0.199 0 0.216-0.597 0.779-0.746 0.945 0.249 0.083 0.912 0.398 0.912 0.696 0 0.166-0.166 0.298-0.265 0.415 1.824 1.608 2.869 3.897 3.267 6.268 0.249-0.298 0.597-0.497 0.995-0.497 0.614 0 1.21 0.415 1.658 0.813 1.21 1.078 1.492 3.084 1.492 4.626z"></path>
</svg>
