<?xml version="1.0" encoding="utf-8"?>
<!-- Generated by IcoMoon.io -->
<!DOCTYPE svg PUBLIC "-//W3C//DTD SVG 1.1//EN" "http://www.w3.org/Graphics/SVG/1.1/DTD/svg11.dtd">
<svg version="1.1" xmlns="http://www.w3.org/2000/svg" xmlns:xlink="http://www.w3.org/1999/xlink" width="32" height="32" viewBox="0 0 32 32">
<path d="M18.122 23.429c0 1.758-1.426 3.184-3.184 3.184s-3.184-1.426-3.184-3.184c0-1.327 0.829-2.537 2.122-3.001v-10.795h2.122v10.795c1.293 0.464 2.122 1.675 2.122 3.001zM20.245 23.429c0-1.741-0.829-3.267-2.122-4.245v-12.735c0-1.758-1.426-3.184-3.184-3.184s-3.184 1.426-3.184 3.184v12.735c-1.293 0.978-2.122 2.504-2.122 4.245 0 2.935 2.371 5.306 5.306 5.306s5.306-2.371 5.306-5.306zM22.367 23.429c0 4.096-3.333 7.429-7.429 7.429s-7.429-3.333-7.429-7.429c0-2.023 0.813-3.847 2.122-5.19v-11.79c0-2.935 2.371-5.306 5.306-5.306s5.306 2.371 5.306 5.306v11.79c1.31 1.343 2.122 3.167 2.122 5.19zM24.49 13.878v2.122h-3.184v-2.122h3.184zM24.49 9.633v2.122h-3.184v-2.122h3.184zM24.49 5.388v2.122h-3.184v-2.122h3.184z"></path>
</svg>
