<?xml version="1.0" encoding="utf-8"?>
<!-- Generated by IcoMoon.io -->
<!DOCTYPE svg PUBLIC "-//W3C//DTD SVG 1.1//EN" "http://www.w3.org/Graphics/SVG/1.1/DTD/svg11.dtd">
<svg version="1.1" xmlns="http://www.w3.org/2000/svg" xmlns:xlink="http://www.w3.org/1999/xlink" width="32" height="32" viewBox="0 0 32 32">
<path d="M5.929 7.707c0 0.648-0.537 1.185-1.185 1.185-0.666 0-1.185-0.537-1.185-1.185 0-0.666 0.518-1.185 1.185-1.185 0.648 0 1.185 0.518 1.185 1.185zM8.891 17.185v-11.848c0-0.648-0.537-1.185-1.185-1.185h-5.331c-0.648 0-1.185 0.537-1.185 1.185v11.848c0 0.648 0.537 1.185 1.185 1.185h5.331c0.648 0 1.185-0.537 1.185-1.185zM29.791 14.427c0.629 0.703 1.018 1.777 1.018 2.758-0.018 1.925-1.629 3.554-3.554 3.554h-5.128c0.148 0.592 0.333 0.777 0.537 1.185 0.481 0.963 1.037 2.036 1.037 3.554 0 1.425 0 4.739-4.147 4.739-0.315 0-0.611-0.13-0.833-0.352-0.796-0.777-1.018-1.925-1.222-3.017-0.222-1.074-0.426-2.184-1.148-2.906-0.574-0.574-1.203-1.37-1.87-2.221-0.815-1.074-2.592-3.277-3.277-3.332-0.611-0.056-1.129-0.574-1.129-1.185v-11.866c0-0.648 0.555-1.166 1.185-1.185 0.648-0.019 1.759-0.407 2.925-0.815 1.999-0.685 4.498-1.555 7.146-1.555h2.388c1.629 0.018 2.851 0.5 3.647 1.444 0.703 0.833 1.018 1.962 0.907 3.351 0.463 0.444 0.815 1.055 1 1.74 0.204 0.74 0.204 1.481 0 2.166 0.555 0.74 0.833 1.611 0.796 2.536 0 0.259-0.074 0.815-0.278 1.407z"></path>
</svg>
