<?xml version="1.0" encoding="utf-8"?>
<!-- Generated by IcoMoon.io -->
<!DOCTYPE svg PUBLIC "-//W3C//DTD SVG 1.1//EN" "http://www.w3.org/Graphics/SVG/1.1/DTD/svg11.dtd">
<svg version="1.1" xmlns="http://www.w3.org/2000/svg" xmlns:xlink="http://www.w3.org/1999/xlink" width="32" height="32" viewBox="0 0 32 32">
<path d="M5.929 24.293c0-0.648-0.537-1.185-1.185-1.185-0.666 0-1.185 0.537-1.185 1.185 0 0.666 0.518 1.185 1.185 1.185 0.648 0 1.185-0.518 1.185-1.185zM8.891 14.815v11.848c0 0.648-0.537 1.185-1.185 1.185h-5.331c-0.648 0-1.185-0.537-1.185-1.185v-11.848c0-0.648 0.537-1.185 1.185-1.185h5.331c0.648 0 1.185 0.537 1.185 1.185zM30.809 14.815c0 0.981-0.389 2.036-1.018 2.758 0.204 0.592 0.278 1.148 0.278 1.407 0.037 0.926-0.241 1.796-0.796 2.536 0.204 0.685 0.204 1.425 0 2.166-0.185 0.685-0.537 1.296-1 1.74 0.111 1.388-0.204 2.518-0.907 3.351-0.796 0.944-2.018 1.425-3.647 1.444h-2.388c-2.647 0-5.146-0.87-7.146-1.555-1.166-0.407-2.277-0.796-2.925-0.815-0.629-0.018-1.185-0.537-1.185-1.185v-11.866c0-0.611 0.518-1.129 1.129-1.185 0.685-0.056 2.462-2.258 3.277-3.332 0.666-0.852 1.296-1.648 1.87-2.221 0.722-0.722 0.926-1.833 1.148-2.906 0.204-1.092 0.426-2.24 1.222-3.017 0.222-0.222 0.518-0.352 0.833-0.352 4.147 0 4.147 3.314 4.147 4.739 0 1.518-0.537 2.592-1.037 3.554-0.204 0.407-0.389 0.592-0.537 1.185h5.128c1.925 0 3.554 1.629 3.554 3.554z"></path>
</svg>
