<?xml version="1.0" encoding="utf-8"?>
<!-- Generated by IcoMoon.io -->
<!DOCTYPE svg PUBLIC "-//W3C//DTD SVG 1.1//EN" "http://www.w3.org/Graphics/SVG/1.1/DTD/svg11.dtd">
<svg version="1.1" xmlns="http://www.w3.org/2000/svg" xmlns:xlink="http://www.w3.org/1999/xlink" width="32" height="32" viewBox="0 0 32 32">
<path d="M18.224 8.285l5.491 5.491-9.94 9.94-5.491-5.491zM14.558 25.297l10.739-10.739c0.434-0.434 0.434-1.13 0-1.564l-6.29-6.29c-0.417-0.417-1.147-0.417-1.564 0l-10.739 10.739c-0.434 0.434-0.434 1.13 0 1.564l6.29 6.29c0.209 0.209 0.487 0.313 0.782 0.313s0.573-0.104 0.782-0.313zM30.006 14.228l-15.761 15.778c-0.869 0.851-2.294 0.851-3.145 0l-2.189-2.189c1.303-1.303 1.303-3.423 0-4.726s-3.423-1.303-4.726 0l-2.172-2.189c-0.869-0.851-0.869-2.276 0-3.145l15.761-15.743c0.851-0.869 2.276-0.869 3.145 0l2.172 2.172c-1.303 1.303-1.303 3.423 0 4.726s3.423 1.303 4.727 0l2.189 2.172c0.851 0.869 0.851 2.294 0 3.145z"></path>
</svg>
