<?xml version="1.0" encoding="utf-8"?>
<!-- Generated by IcoMoon.io -->
<!DOCTYPE svg PUBLIC "-//W3C//DTD SVG 1.1//EN" "http://www.w3.org/Graphics/SVG/1.1/DTD/svg11.dtd">
<svg version="1.1" xmlns="http://www.w3.org/2000/svg" xmlns:xlink="http://www.w3.org/1999/xlink" width="32" height="32" viewBox="0 0 32 32">
<path d="M23.371 20.372c0-0.329-0.135-0.638-0.368-0.871l-3.502-3.502 3.502-3.502c0.232-0.232 0.368-0.542 0.368-0.871s-0.135-0.658-0.368-0.89l-1.741-1.741c-0.232-0.232-0.561-0.368-0.89-0.368s-0.638 0.135-0.871 0.368l-3.502 3.502-3.502-3.502c-0.232-0.232-0.542-0.368-0.871-0.368s-0.658 0.135-0.89 0.368l-1.741 1.741c-0.232 0.232-0.368 0.561-0.368 0.89s0.135 0.638 0.368 0.871l3.502 3.502-3.502 3.502c-0.232 0.232-0.368 0.542-0.368 0.871s0.135 0.658 0.368 0.89l1.741 1.741c0.232 0.232 0.561 0.368 0.89 0.368s0.638-0.135 0.871-0.368l3.502-3.502 3.502 3.502c0.232 0.232 0.542 0.368 0.871 0.368s0.658-0.135 0.89-0.368l1.741-1.741c0.232-0.232 0.368-0.561 0.368-0.89zM30.857 16c0 8.202-6.655 14.857-14.857 14.857s-14.857-6.655-14.857-14.857 6.655-14.857 14.857-14.857 14.857 6.655 14.857 14.857z"></path>
</svg>
