<?xml version="1.0" encoding="utf-8"?>
<!-- Generated by IcoMoon.io -->
<!DOCTYPE svg PUBLIC "-//W3C//DTD SVG 1.1//EN" "http://www.w3.org/Graphics/SVG/1.1/DTD/svg11.dtd">
<svg version="1.1" xmlns="http://www.w3.org/2000/svg" xmlns:xlink="http://www.w3.org/1999/xlink" width="32" height="32" viewBox="0 0 32 32">
<path d="M20.567 22.957l2.39-2.39c0.213-0.213 0.213-0.54 0-0.753l-3.814-3.814 3.814-3.814c0.213-0.213 0.213-0.54 0-0.753l-2.39-2.39c-0.213-0.213-0.54-0.213-0.753 0l-3.814 3.814-3.814-3.814c-0.213-0.213-0.54-0.213-0.753 0l-2.39 2.39c-0.213 0.213-0.213 0.54 0 0.753l3.814 3.814-3.814 3.814c-0.213 0.213-0.213 0.54 0 0.753l2.39 2.39c0.213 0.213 0.54 0.213 0.753 0l3.814-3.814 3.814 3.814c0.213 0.213 0.54 0.213 0.753 0zM30.667 6.048v19.905c0 1.44-1.179 2.619-2.619 2.619h-24.095c-1.44 0-2.619-1.179-2.619-2.619v-19.905c0-1.44 1.179-2.619 2.619-2.619h24.095c1.44 0 2.619 1.179 2.619 2.619z"></path>
</svg>
