<?xml version="1.0" encoding="utf-8"?>
<!-- Generated by IcoMoon.io -->
<!DOCTYPE svg PUBLIC "-//W3C//DTD SVG 1.1//EN" "http://www.w3.org/Graphics/SVG/1.1/DTD/svg11.dtd">
<svg version="1.1" xmlns="http://www.w3.org/2000/svg" xmlns:xlink="http://www.w3.org/1999/xlink" width="32" height="32" viewBox="0 0 32 32">
<path d="M22.365 19.54l-2.824 2.824c-0.252 0.252-0.638 0.252-0.89 0l-2.65-2.65-2.65 2.65c-0.252 0.252-0.638 0.252-0.89 0l-2.824-2.824c-0.252-0.252-0.252-0.638 0-0.89l2.65-2.65-2.65-2.65c-0.252-0.252-0.252-0.638 0-0.89l2.824-2.824c0.252-0.252 0.638-0.252 0.89 0l2.65 2.65 2.65-2.65c0.252-0.252 0.638-0.252 0.89 0l2.824 2.824c0.252 0.252 0.252 0.638 0 0.89l-2.65 2.65 2.65 2.65c0.252 0.252 0.252 0.638 0 0.89zM26.524 16c0-5.804-4.72-10.524-10.524-10.524s-10.524 4.72-10.524 10.524 4.72 10.524 10.524 10.524 10.524-4.72 10.524-10.524zM30.857 16c0 8.202-6.655 14.857-14.857 14.857s-14.857-6.655-14.857-14.857 6.655-14.857 14.857-14.857 14.857 6.655 14.857 14.857z"></path>
</svg>
