<?xml version="1.0" encoding="utf-8"?>
<!-- Generated by IcoMoon.io -->
<!DOCTYPE svg PUBLIC "-//W3C//DTD SVG 1.1//EN" "http://www.w3.org/Graphics/SVG/1.1/DTD/svg11.dtd">
<svg version="1.1" xmlns="http://www.w3.org/2000/svg" xmlns:xlink="http://www.w3.org/1999/xlink" width="32" height="32" viewBox="0 0 32 32">
<path d="M16 23.106c0-0.505-0.161-0.989-0.404-1.393-0.262-0.404-1.332-1.776-1.756-3.129-0.061-0.222-0.262-0.323-0.424-0.323s-0.363 0.101-0.424 0.323c-0.424 1.352-1.494 2.725-1.756 3.129-0.242 0.404-0.404 0.888-0.404 1.393 0 1.433 1.151 2.584 2.584 2.584s2.584-1.151 2.584-2.584zM26.335 20.522c0 5.713-4.623 10.335-10.335 10.335s-10.335-4.623-10.335-10.335c0-2.039 0.626-3.936 1.635-5.551 1.029-1.615 5.349-7.085 6.984-12.536 0.262-0.868 1.070-1.292 1.716-1.292s1.474 0.424 1.716 1.292c1.635 5.45 5.955 10.921 6.984 12.536s1.635 3.512 1.635 5.551z"></path>
</svg>
