<?xml version="1.0" encoding="utf-8"?>
<!-- Generated by IcoMoon.io -->
<!DOCTYPE svg PUBLIC "-//W3C//DTD SVG 1.1//EN" "http://www.w3.org/Graphics/SVG/1.1/DTD/svg11.dtd">
<svg version="1.1" xmlns="http://www.w3.org/2000/svg" xmlns:xlink="http://www.w3.org/1999/xlink" width="32" height="32" viewBox="0 0 32 32">
<path d="M17.771 16c0-3.903-3.183-7.086-7.086-7.086s-7.086 3.183-7.086 7.086 3.183 7.086 7.086 7.086 7.086-3.183 7.086-7.086zM28.4 16c0-3.903-3.183-7.086-7.086-7.086h-5.342c2.159 1.619 3.571 4.193 3.571 7.086s-1.412 5.467-3.571 7.086h5.342c3.903 0 7.086-3.183 7.086-7.086zM30.171 16c0 4.885-3.972 8.857-8.857 8.857h-10.629c-4.885 0-8.857-3.972-8.857-8.857s3.972-8.857 8.857-8.857h10.629c4.885 0 8.857 3.972 8.857 8.857z"></path>
</svg>
