<?xml version="1.0" encoding="utf-8"?>
<!-- Generated by IcoMoon.io -->
<!DOCTYPE svg PUBLIC "-//W3C//DTD SVG 1.1//EN" "http://www.w3.org/Graphics/SVG/1.1/DTD/svg11.dtd">
<svg version="1.1" xmlns="http://www.w3.org/2000/svg" xmlns:xlink="http://www.w3.org/1999/xlink" width="32" height="32" viewBox="0 0 32 32">
<path d="M14.103 9.334v1.625c0 0.236-0.208 0.431-0.444 0.431h-4.138v11.276c0 0.25-0.194 0.444-0.431 0.444h-1.875c-0.25 0-0.444-0.194-0.444-0.444v-11.276h-4.125c-0.25 0-0.444-0.194-0.444-0.431v-1.625c0-0.25 0.194-0.444 0.444-0.444h11.013c0.236 0 0.444 0.194 0.444 0.444zM28.518 9.292l1.069 13.346c0.014 0.125-0.028 0.236-0.111 0.333-0.083 0.083-0.194 0.139-0.319 0.139h-1.861c-0.222 0-0.417-0.181-0.43-0.403l-0.639-8.166-2.625 5.902c-0.069 0.167-0.222 0.264-0.403 0.264h-1.666c-0.167 0-0.319-0.097-0.403-0.264l-2.611-5.93-0.625 8.193c-0.014 0.222-0.208 0.403-0.43 0.403h-1.875c-0.125 0-0.236-0.056-0.319-0.139-0.083-0.097-0.125-0.208-0.125-0.333l1.083-13.346c0.014-0.222 0.208-0.403 0.43-0.403h1.972c0.181 0 0.333 0.111 0.403 0.264l3.055 7.221c0.097 0.222 0.194 0.472 0.278 0.708 0.097-0.236 0.181-0.486 0.278-0.708l3.069-7.221c0.069-0.153 0.222-0.264 0.403-0.264h1.958c0.236 0 0.43 0.181 0.444 0.403z"></path>
</svg>
