<?xml version="1.0" encoding="utf-8"?>
<!-- Generated by IcoMoon.io -->
<!DOCTYPE svg PUBLIC "-//W3C//DTD SVG 1.1//EN" "http://www.w3.org/Graphics/SVG/1.1/DTD/svg11.dtd">
<svg version="1.1" xmlns="http://www.w3.org/2000/svg" xmlns:xlink="http://www.w3.org/1999/xlink" width="32" height="32" viewBox="0 0 32 32">
<path d="M21.306 1.143c4.096 0 7.429 2.371 7.429 5.306v14.857c0 2.869-3.167 5.19-7.147 5.29l3.532 3.349c0.348 0.332 0.116 0.912-0.365 0.912h-17.51c-0.481 0-0.713-0.58-0.365-0.912l3.532-3.349c-3.98-0.099-7.147-2.421-7.147-5.29v-14.857c0-2.935 3.333-5.306 7.429-5.306h10.612zM16 23.429c1.758 0 3.184-1.426 3.184-3.184s-1.426-3.184-3.184-3.184-3.184 1.426-3.184 3.184 1.426 3.184 3.184 3.184zM25.551 13.878v-8.49h-19.102v8.49h19.102z"></path>
</svg>
