<?xml version="1.0" encoding="utf-8"?>
<!-- Generated by IcoMoon.io -->
<!DOCTYPE svg PUBLIC "-//W3C//DTD SVG 1.1//EN" "http://www.w3.org/Graphics/SVG/1.1/DTD/svg11.dtd">
<svg version="1.1" xmlns="http://www.w3.org/2000/svg" xmlns:xlink="http://www.w3.org/1999/xlink" width="32" height="32" viewBox="0 0 32 32">
<path d="M23.429 1.673c0-0.298 0.232-0.531 0.531-0.531h4.776c0.58 0 1.061 0.481 1.061 1.061v4.776c0 0.298-0.232 0.531-0.531 0.531h-1.061c-0.298 0-0.531-0.232-0.531-0.531v-2.222l-4.212 4.228c1.293 1.625 2.089 3.698 2.089 5.953 0 4.908-3.714 8.954-8.49 9.485v2.189h1.592c0.298 0 0.531 0.232 0.531 0.531v1.061c0 0.298-0.232 0.531-0.531 0.531h-1.592v1.592c0 0.298-0.232 0.531-0.531 0.531h-1.061c-0.298 0-0.531-0.232-0.531-0.531v-1.592h-1.592c-0.298 0-0.531-0.232-0.531-0.531v-1.061c0-0.298 0.232-0.531 0.531-0.531h1.592v-2.189c-4.775-0.531-8.49-4.577-8.49-9.485 0-2.255 0.796-4.328 2.089-5.953l-0.862-0.879-1.675 1.841c-0.199 0.216-0.531 0.232-0.746 0.050l-0.796-0.73c-0.216-0.182-0.232-0.531-0.033-0.746l1.741-1.907-1.841-1.857v2.222c0 0.298-0.232 0.531-0.531 0.531h-1.061c-0.298 0-0.531-0.232-0.531-0.531v-4.776c0-0.58 0.481-1.061 1.061-1.061h4.776c0.298 0 0.531 0.232 0.531 0.531v1.061c0 0.298-0.232 0.531-0.531 0.531h-2.205l1.758 1.774 1.426-1.559c0.199-0.216 0.531-0.232 0.746-0.050l0.796 0.73c0.216 0.182 0.232 0.531 0.033 0.746l-1.492 1.642 0.945 0.929c1.625-1.293 3.698-2.089 5.953-2.089s4.328 0.796 5.953 2.089l4.228-4.212h-2.222c-0.298 0-0.531-0.232-0.531-0.531v-1.061zM16 22.367c4.096 0 7.429-3.333 7.429-7.429s-3.333-7.429-7.429-7.429-7.429 3.333-7.429 7.429 3.333 7.429 7.429 7.429z"></path>
</svg>
