<?xml version="1.0" encoding="utf-8"?>
<!-- Generated by IcoMoon.io -->
<!DOCTYPE svg PUBLIC "-//W3C//DTD SVG 1.1//EN" "http://www.w3.org/Graphics/SVG/1.1/DTD/svg11.dtd">
<svg version="1.1" xmlns="http://www.w3.org/2000/svg" xmlns:xlink="http://www.w3.org/1999/xlink" width="32" height="32" viewBox="0 0 32 32">
<path d="M12.286 25.286v-13.619c0-0.348-0.271-0.619-0.619-0.619h-1.238c-0.348 0-0.619 0.271-0.619 0.619v13.619c0 0.348 0.271 0.619 0.619 0.619h1.238c0.348 0 0.619-0.271 0.619-0.619zM17.238 25.286v-13.619c0-0.348-0.271-0.619-0.619-0.619h-1.238c-0.348 0-0.619 0.271-0.619 0.619v13.619c0 0.348 0.271 0.619 0.619 0.619h1.238c0.348 0 0.619-0.271 0.619-0.619zM22.191 25.286v-13.619c0-0.348-0.271-0.619-0.619-0.619h-1.238c-0.348 0-0.619 0.271-0.619 0.619v13.619c0 0.348 0.271 0.619 0.619 0.619h1.238c0.348 0 0.619-0.271 0.619-0.619zM11.667 6.095h8.667l-0.929-2.263c-0.058-0.077-0.232-0.193-0.329-0.213h-6.132c-0.116 0.019-0.271 0.135-0.329 0.213zM29.619 6.714v1.238c0 0.348-0.271 0.619-0.619 0.619h-1.857v18.339c0 2.128-1.393 3.946-3.095 3.946h-16.095c-1.702 0-3.095-1.741-3.095-3.869v-18.417h-1.857c-0.348 0-0.619-0.271-0.619-0.619v-1.238c0-0.348 0.271-0.619 0.619-0.619h5.978l1.354-3.231c0.387-0.948 1.548-1.722 2.573-1.722h6.19c1.025 0 2.186 0.774 2.573 1.722l1.354 3.231h5.978c0.348 0 0.619 0.271 0.619 0.619z"></path>
</svg>
