<?xml version="1.0" encoding="utf-8"?>
<!-- Generated by IcoMoon.io -->
<!DOCTYPE svg PUBLIC "-//W3C//DTD SVG 1.1//EN" "http://www.w3.org/Graphics/SVG/1.1/DTD/svg11.dtd">
<svg version="1.1" xmlns="http://www.w3.org/2000/svg" xmlns:xlink="http://www.w3.org/1999/xlink" width="32" height="32" viewBox="0 0 32 32">
<path d="M28.204 25.551c0 0.58-0.481 1.061-1.061 1.061h-7.661c0.050 1.061 0.182 2.172 0.182 3.25 0 0.547-0.448 0.995-1.011 0.995h-5.306c-0.564 0-1.011-0.448-1.011-0.995 0-1.078 0.133-2.189 0.182-3.25h-7.661c-0.58 0-1.061-0.481-1.061-1.061 0-0.282 0.116-0.547 0.315-0.746l6.666-6.682h-3.797c-0.58 0-1.061-0.481-1.061-1.061 0-0.282 0.116-0.547 0.315-0.746l6.666-6.682h-3.267c-0.58 0-1.061-0.481-1.061-1.061 0-0.282 0.116-0.547 0.315-0.746l6.367-6.367c0.199-0.199 0.464-0.315 0.746-0.315s0.547 0.116 0.746 0.315l6.367 6.367c0.199 0.199 0.315 0.464 0.315 0.746 0 0.58-0.481 1.061-1.061 1.061h-3.267l6.666 6.682c0.199 0.199 0.315 0.464 0.315 0.746 0 0.58-0.481 1.061-1.061 1.061h-3.797l6.666 6.682c0.199 0.199 0.315 0.464 0.315 0.746z"></path>
</svg>
