<?xml version="1.0" encoding="utf-8"?>
<!-- Generated by IcoMoon.io -->
<!DOCTYPE svg PUBLIC "-//W3C//DTD SVG 1.1//EN" "http://www.w3.org/Graphics/SVG/1.1/DTD/svg11.dtd">
<svg version="1.1" xmlns="http://www.w3.org/2000/svg" xmlns:xlink="http://www.w3.org/1999/xlink" width="32" height="32" viewBox="0 0 32 32">
<path d="M14.762 24.667v-19.81c0-0.348-0.271-0.619-0.619-0.619h-9.286c-0.348 0-0.619 0.271-0.619 0.619v19.81c0 0.348 0.271 0.619 0.619 0.619h9.286c0.348 0 0.619-0.271 0.619-0.619zM27.762 17.238v-12.381c0-0.348-0.271-0.619-0.619-0.619h-9.286c-0.348 0-0.619 0.271-0.619 0.619v12.381c0 0.348 0.271 0.619 0.619 0.619h9.286c0.348 0 0.619-0.271 0.619-0.619zM30.857 2.381v27.238c0 0.677-0.561 1.238-1.238 1.238h-27.238c-0.677 0-1.238-0.561-1.238-1.238v-27.238c0-0.677 0.561-1.238 1.238-1.238h27.238c0.677 0 1.238 0.561 1.238 1.238z"></path>
</svg>
