<?xml version="1.0" encoding="utf-8"?>
<!-- Generated by IcoMoon.io -->
<!DOCTYPE svg PUBLIC "-//W3C//DTD SVG 1.1//EN" "http://www.w3.org/Graphics/SVG/1.1/DTD/svg11.dtd">
<svg version="1.1" xmlns="http://www.w3.org/2000/svg" xmlns:xlink="http://www.w3.org/1999/xlink" width="32" height="32" viewBox="0 0 32 32">
<path d="M9.889 17.232c0 0.634-0.512 1.147-1.134 1.147-0.634 0-1.147-0.512-1.147-1.147 0-0.622 0.512-1.134 1.147-1.134 0.622 0 1.134 0.512 1.134 1.134zM23.965 17.22c0 0.634-0.512 1.147-1.147 1.147s-1.147-0.512-1.147-1.147 0.512-1.134 1.147-1.134 1.147 0.5 1.147 1.134zM11.279 17.232c0-1.293-1.061-2.354-2.354-2.354-1.305 0-2.354 1.061-2.354 2.354 0 1.305 1.049 2.354 2.354 2.354 1.293 0 2.354-1.049 2.354-2.354zM25.344 17.22c0-1.293-1.049-2.354-2.354-2.354-1.293 0-2.354 1.061-2.354 2.354 0 1.305 1.061 2.354 2.354 2.354 1.305 0 2.354-1.049 2.354-2.354zM12.316 17.232c0 1.879-1.513 3.403-3.391 3.403s-3.403-1.525-3.403-3.403c0-1.866 1.525-3.391 3.403-3.391s3.391 1.525 3.391 3.391zM26.393 17.22c0 1.879-1.525 3.391-3.403 3.391-1.866 0-3.391-1.513-3.391-3.391s1.525-3.391 3.391-3.391c1.879 0 3.403 1.513 3.403 3.391zM14.634 17.256c0-3.111-2.525-5.636-5.636-5.636-3.098 0-5.623 2.525-5.623 5.636s2.525 5.636 5.623 5.636c3.111 0 5.636-2.525 5.636-5.636zM22.782 10.267c-2.013-0.878-4.282-1.354-6.782-1.354s-4.989 0.476-6.99 1.342c3.867 0.012 6.99 3.135 6.99 7.002 0-3.794 3.013-6.88 6.782-6.99zM28.625 17.256c0-3.111-2.513-5.636-5.623-5.636s-5.636 2.525-5.636 5.636 2.525 5.636 5.636 5.636 5.623-2.525 5.623-5.636zM25.38 10.352h4.672c-0.732 0.854-1.269 2.001-1.403 2.793 0.842 1.159 1.342 2.574 1.342 4.111 0 3.867-3.135 6.99-6.99 6.99-2.196 0-4.147-1-5.428-2.574 0 0-0.573 0.683-1.574 2.183-0.171-0.354-1.037-1.586-1.561-2.196-1.281 1.586-3.245 2.586-5.44 2.586-3.855 0-6.99-3.123-6.99-6.99 0-1.537 0.5-2.952 1.342-4.111-0.134-0.793-0.671-1.94-1.403-2.793h4.452c2.391-1.598 5.867-2.598 9.6-2.598s6.99 1 9.38 2.598z"></path>
</svg>
