<?xml version="1.0" encoding="utf-8"?>
<!-- Generated by IcoMoon.io -->
<!DOCTYPE svg PUBLIC "-//W3C//DTD SVG 1.1//EN" "http://www.w3.org/Graphics/SVG/1.1/DTD/svg11.dtd">
<svg version="1.1" xmlns="http://www.w3.org/2000/svg" xmlns:xlink="http://www.w3.org/1999/xlink" width="32" height="32" viewBox="0 0 32 32">
<path d="M11.134 23.569c0-1.183-0.98-2.163-2.163-2.163s-2.163 0.98-2.163 2.163 0.98 2.163 2.163 2.163 2.163-0.98 2.163-2.163zM4.646 14.919h6.488v-4.325h-2.669c-0.068 0-0.321 0.101-0.372 0.152l-3.295 3.295c-0.051 0.051-0.152 0.304-0.152 0.372v0.507zM26.272 23.569c0-1.183-0.98-2.163-2.163-2.163s-2.163 0.98-2.163 2.163 0.98 2.163 2.163 2.163 2.163-0.98 2.163-2.163zM30.597 5.187v17.301c0 1.25-1.318 1.081-2.163 1.081 0 2.382-1.943 4.325-4.325 4.325s-4.325-1.943-4.325-4.325h-6.488c0 2.382-1.943 4.325-4.325 4.325s-4.325-1.943-4.325-4.325h-1.081c-0.845 0-2.163 0.169-2.163-1.081 0-0.591 0.49-1.081 1.081-1.081v-5.406c0-1.2-0.169-2.534 0.76-3.463l3.345-3.345c0.422-0.422 1.233-0.76 1.842-0.76h2.703v-3.244c0-0.591 0.49-1.081 1.081-1.081h17.301c0.591 0 1.081 0.49 1.081 1.081z"></path>
</svg>
