<?xml version="1.0" encoding="utf-8"?>
<!-- Generated by IcoMoon.io -->
<!DOCTYPE svg PUBLIC "-//W3C//DTD SVG 1.1//EN" "http://www.w3.org/Graphics/SVG/1.1/DTD/svg11.dtd">
<svg version="1.1" xmlns="http://www.w3.org/2000/svg" xmlns:xlink="http://www.w3.org/1999/xlink" width="32" height="32" viewBox="0 0 32 32">
<path d="M28.156 16c0 8.188-6.669 14.857-14.857 14.857h-3.377c-0.38 0-0.675-0.295-0.675-0.675v-12.894l-4.537 1.393c-0.063 0.021-0.127 0.021-0.19 0.021-0.148 0-0.274-0.042-0.401-0.127-0.169-0.127-0.274-0.338-0.274-0.549v-2.701c0-0.295 0.19-0.549 0.485-0.654l4.917-1.498v-1.963l-4.537 1.393c-0.063 0.021-0.127 0.021-0.19 0.021-0.148 0-0.274-0.042-0.401-0.127-0.169-0.127-0.274-0.338-0.274-0.549v-2.701c0-0.295 0.19-0.549 0.485-0.654l4.917-1.498v-5.276c0-0.38 0.295-0.675 0.675-0.675h3.377c0.38 0 0.675 0.295 0.675 0.675v3.82l7.914-2.448c0.19-0.063 0.422-0.021 0.591 0.106s0.274 0.338 0.274 0.549v2.701c0 0.295-0.19 0.549-0.485 0.654l-8.294 2.554v1.963l7.914-2.448c0.19-0.063 0.422-0.021 0.591 0.105s0.274 0.338 0.274 0.549v2.701c0 0.295-0.19 0.549-0.485 0.654l-8.294 2.554v10.278c5.276-0.359 9.455-4.748 9.455-10.109 0-0.38 0.295-0.675 0.675-0.675h3.377c0.38 0 0.675 0.295 0.675 0.675z"></path>
</svg>
