<?xml version="1.0" encoding="utf-8"?>
<!-- Generated by IcoMoon.io -->
<!DOCTYPE svg PUBLIC "-//W3C//DTD SVG 1.1//EN" "http://www.w3.org/Graphics/SVG/1.1/DTD/svg11.dtd">
<svg version="1.1" xmlns="http://www.w3.org/2000/svg" xmlns:xlink="http://www.w3.org/1999/xlink" width="32" height="32" viewBox="0 0 32 32">
<path d="M8.727 23.792v3.117c0 0.292-0.227 0.52-0.52 0.52h-3.117c-0.292 0-0.519-0.227-0.519-0.52v-3.117c0-0.292 0.227-0.52 0.519-0.52h3.117c0.292 0 0.52 0.227 0.52 0.52zM5.61 17.558v3.117c0 0.292-0.227 0.52-0.519 0.52h-3.117c-0.292 0-0.519-0.227-0.519-0.52v-3.117c0-0.292 0.227-0.52 0.519-0.52h3.117c0.292 0 0.519 0.227 0.519 0.52zM14.961 23.792v3.117c0 0.292-0.227 0.52-0.52 0.52h-3.117c-0.292 0-0.52-0.227-0.52-0.52v-3.117c0-0.292 0.227-0.52 0.52-0.52h3.117c0.292 0 0.52 0.227 0.52 0.52zM11.844 17.558v3.117c0 0.292-0.227 0.52-0.52 0.52h-3.117c-0.292 0-0.519-0.227-0.519-0.52v-3.117c0-0.292 0.227-0.52 0.519-0.52h3.117c0.292 0 0.52 0.227 0.52 0.52zM2.526 14.961c-0.601 0-1.071-0.471-1.071-1.055v-2.094h8.344v2.094c0 0.584-0.471 1.055-1.055 1.055h-6.218zM21.195 23.792v3.117c0 0.292-0.227 0.52-0.52 0.52h-3.117c-0.292 0-0.52-0.227-0.52-0.52v-3.117c0-0.292 0.227-0.52 0.52-0.52h3.117c0.292 0 0.52 0.227 0.52 0.52zM18.078 17.558v3.117c0 0.292-0.227 0.52-0.52 0.52h-3.117c-0.292 0-0.52-0.227-0.52-0.52v-3.117c0-0.292 0.227-0.52 0.52-0.52h3.117c0.292 0 0.52 0.227 0.52 0.52zM27.429 23.792v3.117c0 0.292-0.227 0.52-0.52 0.52h-3.117c-0.292 0-0.52-0.227-0.52-0.52v-3.117c0-0.292 0.227-0.52 0.52-0.52h3.117c0.292 0 0.52 0.227 0.52 0.52zM24.312 17.558v3.117c0 0.292-0.227 0.52-0.52 0.52h-3.117c-0.292 0-0.52-0.227-0.52-0.52v-3.117c0-0.292 0.227-0.52 0.52-0.52h3.117c0.292 0 0.52 0.227 0.52 0.52zM30.545 10.935v0.211h-8.344v-0.162c0-0.601-0.52-1.688-6.201-1.656-5.682 0.016-6.201 1.055-6.201 1.656v0.162h-8.344v-0.211c0-1.088 1.948-6.364 14.545-6.364 12.581 0 14.545 5.276 14.545 6.364zM30.545 17.558v3.117c0 0.292-0.227 0.52-0.52 0.52h-3.117c-0.292 0-0.52-0.227-0.52-0.52v-3.117c0-0.292 0.227-0.52 0.52-0.52h3.117c0.292 0 0.52 0.227 0.52 0.52zM30.545 11.812v2.094c0 0.584-0.471 1.055-1.055 1.055h-6.234c-0.584 0-1.055-0.471-1.055-1.055v-2.094h8.344z"></path>
</svg>
