<?xml version="1.0" encoding="utf-8"?>
<!-- Generated by IcoMoon.io -->
<!DOCTYPE svg PUBLIC "-//W3C//DTD SVG 1.1//EN" "http://www.w3.org/Graphics/SVG/1.1/DTD/svg11.dtd">
<svg version="1.1" xmlns="http://www.w3.org/2000/svg" xmlns:xlink="http://www.w3.org/1999/xlink" width="32" height="32" viewBox="0 0 32 32">
<path d="M23.119 26.93l-1.199-3.54c-0.464 0.232-1.335 0.426-1.993 0.426-1.973 0.058-2.379-1.373-2.379-2.438v-7.699h4.972v-3.753h-4.952v-6.307h-3.637c-0.058 0-0.155 0.058-0.174 0.193-0.213 1.915-1.122 5.32-4.875 6.674v3.192h2.515v8.086c0 2.766 2.031 6.713 7.429 6.616 1.818-0.039 3.85-0.793 4.295-1.451zM30.857 6.714v18.571c0 3.076-2.496 5.571-5.571 5.571h-18.571c-3.076 0-5.571-2.496-5.571-5.571v-18.571c0-3.076 2.496-5.571 5.571-5.571h18.571c3.076 0 5.571 2.496 5.571 5.571z"></path>
</svg>
