<?xml version="1.0" encoding="utf-8"?>
<!-- Generated by IcoMoon.io -->
<!DOCTYPE svg PUBLIC "-//W3C//DTD SVG 1.1//EN" "http://www.w3.org/Graphics/SVG/1.1/DTD/svg11.dtd">
<svg version="1.1" xmlns="http://www.w3.org/2000/svg" xmlns:xlink="http://www.w3.org/1999/xlink" width="32" height="32" viewBox="0 0 32 32">
<path d="M25.905 10.467c-0.735 0.329-1.509 0.542-2.341 0.658 0.851-0.503 1.49-1.315 1.799-2.263-0.793 0.464-1.664 0.813-2.592 0.987-0.735-0.793-1.799-1.277-2.96-1.277-2.244 0-4.063 1.818-4.063 4.063 0 0.31 0.019 0.638 0.097 0.929-3.385-0.174-6.384-1.78-8.396-4.256-0.348 0.6-0.561 1.315-0.561 2.051 0 1.412 0.658 2.65 1.76 3.385-0.677-0.019-1.315-0.213-1.935-0.503v0.039c0 1.973 1.49 3.618 3.347 3.985-0.348 0.097-0.619 0.155-0.987 0.155-0.252 0-0.503-0.039-0.754-0.077 0.522 1.606 2.012 2.786 3.792 2.824-1.393 1.083-3.134 1.741-5.049 1.741-0.329 0-0.658-0.019-0.967-0.058 1.799 1.141 3.927 1.818 6.229 1.818 7.467 0 11.568-6.19 11.568-11.568 0-0.174 0-0.348-0.019-0.522 0.793-0.561 1.49-1.277 2.031-2.109zM30.857 6.714v18.571c0 3.076-2.496 5.571-5.571 5.571h-18.571c-3.076 0-5.571-2.496-5.571-5.571v-18.571c0-3.076 2.496-5.571 5.571-5.571h18.571c3.076 0 5.571 2.496 5.571 5.571z"></path>
</svg>
