<?xml version="1.0" encoding="utf-8"?>
<!-- Generated by IcoMoon.io -->
<!DOCTYPE svg PUBLIC "-//W3C//DTD SVG 1.1//EN" "http://www.w3.org/Graphics/SVG/1.1/DTD/svg11.dtd">
<svg version="1.1" xmlns="http://www.w3.org/2000/svg" xmlns:xlink="http://www.w3.org/1999/xlink" width="32" height="32" viewBox="0 0 32 32">
<path d="M30.593 6.963c-0.815 1.185-1.833 2.241-3 3.093 0.018 0.259 0.018 0.519 0.018 0.778 0 7.908-6.019 17.019-17.019 17.019-3.389 0-6.537-0.982-9.185-2.685 0.481 0.056 0.944 0.074 1.444 0.074 2.796 0 5.37-0.944 7.426-2.556-2.63-0.056-4.833-1.778-5.593-4.148 0.37 0.056 0.741 0.093 1.13 0.093 0.537 0 1.074-0.074 1.574-0.204-2.741-0.556-4.796-2.963-4.796-5.87v-0.074c0.796 0.444 1.722 0.722 2.704 0.759-1.611-1.074-2.667-2.907-2.667-4.982 0-1.111 0.296-2.13 0.815-3.019 2.944 3.63 7.37 6 12.334 6.259-0.093-0.444-0.148-0.907-0.148-1.37 0-3.296 2.667-5.982 5.982-5.982 1.722 0 3.278 0.722 4.37 1.889 1.352-0.259 2.648-0.759 3.796-1.444-0.444 1.389-1.389 2.556-2.63 3.296 1.204-0.13 2.37-0.463 3.445-0.926z"></path>
</svg>
