<?xml version="1.0" encoding="utf-8"?>
<!-- Generated by IcoMoon.io -->
<!DOCTYPE svg PUBLIC "-//W3C//DTD SVG 1.1//EN" "http://www.w3.org/Graphics/SVG/1.1/DTD/svg11.dtd">
<svg version="1.1" xmlns="http://www.w3.org/2000/svg" xmlns:xlink="http://www.w3.org/1999/xlink" width="32" height="32" viewBox="0 0 32 32">
<path d="M17.139 15.359v10.325c0 2.475-2.083 4.557-4.557 4.557s-4.557-2.083-4.557-4.557c0-0.623 0.516-1.139 1.139-1.139s1.139 0.516 1.139 1.139c0 1.193 1.086 2.279 2.279 2.279s2.279-1.086 2.279-2.279v-10.325c0.374-0.125 0.748-0.196 1.139-0.196s0.765 0.071 1.139 0.196zM30.811 15.84c0 0.303-0.267 0.57-0.57 0.57-0.16 0-0.285-0.071-0.409-0.178-1.033-0.961-1.994-1.638-3.471-1.638-1.691 0-3.151 1.050-4.112 2.385-0.214 0.303-0.374 0.623-0.57 0.926-0.125 0.196-0.267 0.303-0.498 0.303-0.249 0-0.392-0.107-0.516-0.303-0.196-0.303-0.356-0.623-0.57-0.926-0.961-1.335-2.403-2.385-4.095-2.385s-3.133 1.050-4.095 2.385c-0.214 0.303-0.374 0.623-0.57 0.926-0.125 0.196-0.267 0.303-0.516 0.303-0.231 0-0.374-0.107-0.498-0.303-0.196-0.303-0.356-0.623-0.57-0.926-0.961-1.335-2.421-2.385-4.112-2.385-1.478 0-2.439 0.676-3.471 1.638-0.125 0.107-0.249 0.178-0.409 0.178-0.303 0-0.57-0.267-0.57-0.57 0-0.053 0-0.089 0.018-0.125 1.638-6.729 8.136-10.539 14.794-10.539 6.622 0 13.191 3.81 14.794 10.539 0.018 0.036 0.018 0.071 0.018 0.125zM17.139 2.898v1.745c-0.374-0.018-0.765-0.036-1.139-0.036s-0.765 0.018-1.139 0.036v-1.745c0-0.623 0.516-1.139 1.139-1.139s1.139 0.516 1.139 1.139z"></path>
</svg>
