<?xml version="1.0" encoding="utf-8"?>
<!-- Generated by IcoMoon.io -->
<!DOCTYPE svg PUBLIC "-//W3C//DTD SVG 1.1//EN" "http://www.w3.org/Graphics/SVG/1.1/DTD/svg11.dtd">
<svg version="1.1" xmlns="http://www.w3.org/2000/svg" xmlns:xlink="http://www.w3.org/1999/xlink" width="32" height="32" viewBox="0 0 32 32">
<path d="M2.071 2.981c-0.348-0.019-0.638-0.019-0.871-0.077l-0.058-1.702c0.252-0.019 0.503-0.019 0.774-0.019 0.677 0 1.412 0.019 2.167 0.077 1.818 0.097 2.902 0.135 3.211 0.135 1.103 0 2.186-0.019 3.25-0.058 1.045-0.039 1.993-0.077 2.824-0.097 0.813 0 1.373-0.019 1.664-0.039l-0.019 0.271 0.039 1.238v0.174c-0.774 0.116-1.567 0.174-2.399 0.174-0.774 0-1.277 0.155-1.528 0.484-0.174 0.193-0.252 1.045-0.252 2.554 0 0.464 0.019 0.832 0.019 1.122l0.019 4.43 0.271 5.417c0.077 1.567 0.387 2.863 0.987 3.908 0.445 0.754 1.064 1.354 1.857 1.78 1.161 0.619 2.302 0.909 3.424 0.909 1.315 0 2.554-0.174 3.695-0.542 0.677-0.213 1.315-0.522 1.915-0.987 0.6-0.445 1.025-0.851 1.257-1.238 0.503-0.774 0.832-1.528 1.025-2.205 0.271-0.948 0.406-2.418 0.406-4.43 0-3.463-0.252-3.559-0.542-7.932l-0.077-1.141c-0.058-0.832-0.193-1.412-0.464-1.702-0.426-0.445-0.929-0.677-1.49-0.658l-1.935 0.039-0.271-0.058 0.039-1.664h1.625l3.966 0.193c1.315 0.058 2.573-0.058 3.792-0.193l0.348 0.039c0.077 0.484 0.116 0.813 0.116 0.987s-0.039 0.368-0.077 0.6c-0.522 0.135-1.064 0.232-1.625 0.252-0.909 0.135-1.432 0.232-1.528 0.329-0.174 0.174-0.29 0.426-0.29 0.793 0 0.252 0.039 0.638 0.058 1.122 0 0 0.155 0.348 0.426 7.661 0.097 2.921-0.097 4.894-0.29 5.881s-0.464 1.78-0.793 2.36c-0.503 0.851-1.238 1.644-2.167 2.379-0.948 0.716-2.109 1.296-3.521 1.722s-3.057 0.638-4.933 0.638c-2.128 0-3.966-0.29-5.494-0.89s-2.689-1.393-3.463-2.36-1.315-2.225-1.606-3.772c-0.213-1.064-0.31-2.592-0.31-4.585v-6.442c0-2.438-0.116-3.811-0.329-4.12-0.31-0.445-1.257-0.716-2.844-0.754zM30.857 30.238v-1.238c0-0.348-0.271-0.619-0.619-0.619h-28.476c-0.348 0-0.619 0.271-0.619 0.619v1.238c0 0.348 0.271 0.619 0.619 0.619h28.476c0.348 0 0.619-0.271 0.619-0.619z"></path>
</svg>
