<?xml version="1.0" encoding="utf-8"?>
<!-- Generated by IcoMoon.io -->
<!DOCTYPE svg PUBLIC "-//W3C//DTD SVG 1.1//EN" "http://www.w3.org/Graphics/SVG/1.1/DTD/svg11.dtd">
<svg version="1.1" xmlns="http://www.w3.org/2000/svg" xmlns:xlink="http://www.w3.org/1999/xlink" width="32" height="32" viewBox="0 0 32 32">
<path d="M23.926 12.037c-0.133-0.564-0.696-0.912-1.277-0.779-2.371 0.564-4.527 1.028-6.649 1.028s-4.278-0.464-6.649-1.028c-0.58-0.133-1.144 0.216-1.277 0.779-0.133 0.58 0.216 1.144 0.779 1.277 1.758 0.415 3.399 0.779 5.024 0.962-0.066 5.605-0.68 7.163-1.376 8.954l-0.149 0.348c-0.216 0.547 0.066 1.161 0.614 1.376 0.116 0.050 0.249 0.066 0.381 0.066 0.431 0 0.829-0.249 0.995-0.68l0.133-0.332c0.464-1.194 0.895-2.305 1.177-4.295h0.696c0.282 1.99 0.713 3.101 1.177 4.295l0.133 0.332c0.166 0.431 0.564 0.68 0.995 0.68 0.133 0 0.265-0.017 0.381-0.066 0.547-0.216 0.829-0.829 0.614-1.376l-0.149-0.348c-0.696-1.791-1.31-3.349-1.376-8.954 1.625-0.182 3.267-0.547 5.024-0.962 0.564-0.133 0.912-0.696 0.779-1.277zM18.122 9.633c0-1.177-0.945-2.122-2.122-2.122s-2.122 0.945-2.122 2.122 0.945 2.122 2.122 2.122 2.122-0.945 2.122-2.122zM27.673 16c0 6.45-5.223 11.673-11.673 11.673s-11.673-5.223-11.673-11.673 5.223-11.673 11.673-11.673 11.673 5.223 11.673 11.673zM16 3.265c-7.014 0-12.735 5.721-12.735 12.735s5.721 12.735 12.735 12.735 12.735-5.721 12.735-12.735-5.721-12.735-12.735-12.735zM30.857 16c0 8.208-6.649 14.857-14.857 14.857s-14.857-6.649-14.857-14.857 6.649-14.857 14.857-14.857v0c8.208 0 14.857 6.649 14.857 14.857z"></path>
</svg>
