<?xml version="1.0" encoding="utf-8"?>
<!-- Generated by IcoMoon.io -->
<!DOCTYPE svg PUBLIC "-//W3C//DTD SVG 1.1//EN" "http://www.w3.org/Graphics/SVG/1.1/DTD/svg11.dtd">
<svg version="1.1" xmlns="http://www.w3.org/2000/svg" xmlns:xlink="http://www.w3.org/1999/xlink" width="32" height="32" viewBox="0 0 32 32">
<path d="M25.286 16c1.025 0 1.857 0.832 1.857 1.857v11.143c0 1.025-0.832 1.857-1.857 1.857h-18.571c-1.025 0-1.857-0.832-1.857-1.857v-11.143c0-1.025 0.832-1.857 1.857-1.857h0.619v-6.19c0-4.778 3.888-8.667 8.667-8.667s8.667 3.888 8.667 8.667c0 0.677-0.561 1.238-1.238 1.238h-1.238c-0.677 0-1.238-0.561-1.238-1.238 0-2.728-2.225-4.952-4.952-4.952s-4.952 2.225-4.952 4.952v6.19h14.238z"></path>
</svg>
