<?xml version="1.0" encoding="utf-8"?>
<!-- Generated by IcoMoon.io -->
<!DOCTYPE svg PUBLIC "-//W3C//DTD SVG 1.1//EN" "http://www.w3.org/Graphics/SVG/1.1/DTD/svg11.dtd">
<svg version="1.1" xmlns="http://www.w3.org/2000/svg" xmlns:xlink="http://www.w3.org/1999/xlink" width="32" height="32" viewBox="0 0 32 32">
<path d="M30.649 11.493v4.507c0 0.616-0.511 1.127-1.127 1.127h-1.127c-0.616 0-1.127-0.511-1.127-1.127v-4.508c0-2.483-2.025-4.508-4.508-4.508s-4.508 2.025-4.508 4.508v3.381h1.69c0.933 0 1.69 0.757 1.69 1.69v10.142c0 0.933-0.757 1.69-1.69 1.69h-16.903c-0.933 0-1.69-0.757-1.69-1.69v-10.142c0-0.933 0.757-1.69 1.69-1.69h11.832v-3.381c0-4.349 3.539-7.888 7.888-7.888s7.888 3.539 7.888 7.888z"></path>
</svg>
