<?xml version="1.0" encoding="utf-8"?>
<!-- Generated by IcoMoon.io -->
<!DOCTYPE svg PUBLIC "-//W3C//DTD SVG 1.1//EN" "http://www.w3.org/Graphics/SVG/1.1/DTD/svg11.dtd">
<svg version="1.1" xmlns="http://www.w3.org/2000/svg" xmlns:xlink="http://www.w3.org/1999/xlink" width="32" height="32" viewBox="0 0 32 32">
<path d="M23.975 26.824c0-0.623-0.516-1.139-1.139-1.139s-1.139 0.516-1.139 1.139 0.516 1.139 1.139 1.139 1.139-0.516 1.139-1.139zM28.533 26.824c0-0.623-0.516-1.139-1.139-1.139s-1.139 0.516-1.139 1.139 0.516 1.139 1.139 1.139 1.139-0.516 1.139-1.139zM30.811 22.836v5.697c0 0.944-0.765 1.709-1.709 1.709h-26.205c-0.944 0-1.709-0.765-1.709-1.709v-5.697c0-0.944 0.765-1.709 1.709-1.709h7.602c0.481 1.317 1.745 2.279 3.222 2.279h4.557c1.478 0 2.742-0.961 3.222-2.279h7.602c0.944 0 1.709 0.765 1.709 1.709zM25.026 11.3c-0.178 0.427-0.587 0.712-1.050 0.712h-4.557v7.975c0 0.623-0.516 1.139-1.139 1.139h-4.557c-0.623 0-1.139-0.516-1.139-1.139v-7.975h-4.557c-0.463 0-0.872-0.285-1.050-0.712-0.178-0.409-0.089-0.908 0.249-1.228l7.975-7.975c0.214-0.231 0.516-0.338 0.801-0.338s0.587 0.107 0.801 0.338l7.975 7.975c0.338 0.32 0.427 0.819 0.249 1.228z"></path>
</svg>
