<?xml version="1.0" encoding="utf-8"?>
<!-- Generated by IcoMoon.io -->
<!DOCTYPE svg PUBLIC "-//W3C//DTD SVG 1.1//EN" "http://www.w3.org/Graphics/SVG/1.1/DTD/svg11.dtd">
<svg version="1.1" xmlns="http://www.w3.org/2000/svg" xmlns:xlink="http://www.w3.org/1999/xlink" width="32" height="32" viewBox="0 0 32 32">
<path d="M29.934 15.669c0.123 0.061 0.196 0.196 0.196 0.331s-0.074 0.27-0.196 0.331l-3.925 2.355c-0.061 0.037-0.123 0.061-0.196 0.061-0.061 0-0.135-0.012-0.196-0.049-0.123-0.074-0.196-0.196-0.196-0.343v-1.57h-10.524c0.393 0.613 0.724 1.337 1.018 2.024 0.589 1.325 1.19 2.686 2.048 2.686h1.177v-1.177c0-0.221 0.172-0.392 0.392-0.392h3.925c0.221 0 0.392 0.172 0.392 0.392v3.925c0 0.221-0.172 0.392-0.392 0.392h-3.925c-0.221 0-0.392-0.172-0.392-0.392v-1.177h-1.177c-1.877 0-2.723-1.926-3.483-3.618-0.576-1.312-1.178-2.662-2.012-2.662h-4.416c-0.356 1.349-1.582 2.355-3.042 2.355-1.729 0-3.14-1.411-3.14-3.14s1.411-3.14 3.14-3.14c1.46 0 2.686 1.006 3.042 2.355h1.276c0.834 0 1.435-1.349 2.012-2.662 0.76-1.693 1.607-3.618 3.483-3.618h1.312c0.331-0.92 1.19-1.57 2.22-1.57 1.3 0 2.355 1.055 2.355 2.355s-1.055 2.355-2.355 2.355c-1.030 0-1.889-0.65-2.22-1.57h-1.312c-0.859 0-1.46 1.361-2.048 2.686-0.294 0.687-0.626 1.411-1.018 2.024h13.664v-1.57c0-0.147 0.074-0.27 0.196-0.343s0.282-0.061 0.392 0.012z"></path>
</svg>
