<?xml version="1.0" encoding="utf-8"?>
<!-- Generated by IcoMoon.io -->
<!DOCTYPE svg PUBLIC "-//W3C//DTD SVG 1.1//EN" "http://www.w3.org/Graphics/SVG/1.1/DTD/svg11.dtd">
<svg version="1.1" xmlns="http://www.w3.org/2000/svg" xmlns:xlink="http://www.w3.org/1999/xlink" width="32" height="32" viewBox="0 0 32 32">
<path d="M9.81 24.667c0 0.677-0.561 1.238-1.238 1.238s-1.238-0.561-1.238-1.238 0.561-1.238 1.238-1.238 1.238 0.561 1.238 1.238zM29.619 25.847c0 3.153-2.070 5.010-5.165 5.010h-16.908c-3.095 0-5.165-1.857-5.165-5.010 0-3.85 0.774-9.924 5.378-10.93-0.31 0.735-0.426 1.528-0.426 2.321v3.927c-1.49 0.522-2.476 1.935-2.476 3.502 0 2.051 1.664 3.714 3.714 3.714s3.714-1.664 3.714-3.714c0-1.567-1.006-2.979-2.476-3.502v-3.927c0-0.638 0.058-1.277 0.484-1.799 1.625 1.277 3.637 2.012 5.707 2.012s4.082-0.735 5.707-2.012c0.426 0.522 0.484 1.161 0.484 1.799v1.238c-2.728 0-4.952 2.225-4.952 4.952v1.722c-0.387 0.348-0.619 0.851-0.619 1.373 0 1.025 0.832 1.857 1.857 1.857s1.857-0.832 1.857-1.857c0-0.522-0.232-1.025-0.619-1.373v-1.722c0-1.354 1.122-2.476 2.476-2.476s2.476 1.122 2.476 2.476v1.722c-0.387 0.348-0.619 0.851-0.619 1.373 0 1.025 0.832 1.857 1.857 1.857s1.857-0.832 1.857-1.857c0-0.522-0.232-1.025-0.619-1.373v-1.722c0-1.76-0.948-3.405-2.476-4.275 0-1.412 0.135-2.921-0.426-4.237 4.604 1.006 5.378 7.080 5.378 10.93zM23.429 8.571c0 4.101-3.327 7.429-7.429 7.429s-7.429-3.327-7.429-7.429 3.327-7.429 7.429-7.429 7.429 3.327 7.429 7.429z"></path>
</svg>
