<?xml version="1.0" encoding="utf-8"?>
<!-- Generated by IcoMoon.io -->
<!DOCTYPE svg PUBLIC "-//W3C//DTD SVG 1.1//EN" "http://www.w3.org/Graphics/SVG/1.1/DTD/svg11.dtd">
<svg version="1.1" xmlns="http://www.w3.org/2000/svg" xmlns:xlink="http://www.w3.org/1999/xlink" width="32" height="32" viewBox="0 0 32 32">
<path d="M16 1.143c8.208 0 14.857 6.649 14.857 14.857 0 8.158-6.616 14.857-14.857 14.857-8.225 0-14.857-6.682-14.857-14.857 0-8.208 6.649-14.857 14.857-14.857zM26.264 23.545c1.542-2.122 2.471-4.726 2.471-7.545 0-7.014-5.721-12.735-12.735-12.735s-12.735 5.721-12.735 12.735c0 2.819 0.929 5.422 2.471 7.545 0.597-2.968 2.040-5.422 5.074-5.422 1.343 1.31 3.167 2.122 5.19 2.122s3.847-0.813 5.19-2.122c3.034 0 4.477 2.454 5.074 5.422zM22.367 12.816c0-3.515-2.852-6.367-6.367-6.367s-6.367 2.852-6.367 6.367 2.852 6.367 6.367 6.367 6.367-2.852 6.367-6.367z"></path>
</svg>
