<?xml version="1.0" encoding="utf-8"?>
<!-- Generated by IcoMoon.io -->
<!DOCTYPE svg PUBLIC "-//W3C//DTD SVG 1.1//EN" "http://www.w3.org/Graphics/SVG/1.1/DTD/svg11.dtd">
<svg version="1.1" xmlns="http://www.w3.org/2000/svg" xmlns:xlink="http://www.w3.org/1999/xlink" width="32" height="32" viewBox="0 0 32 32">
<path d="M26.397 23.346c-0.431-3.101-1.691-5.853-4.51-6.235-1.459 1.592-3.565 2.603-5.886 2.603s-4.427-1.011-5.886-2.603c-2.819 0.381-4.079 3.134-4.51 6.235 2.305 3.25 6.102 5.389 10.397 5.389s8.092-2.139 10.397-5.389zM22.367 11.755c0-3.515-2.852-6.367-6.367-6.367s-6.367 2.852-6.367 6.367 2.852 6.367 6.367 6.367 6.367-2.852 6.367-6.367zM30.857 16c0 8.175-6.633 14.857-14.857 14.857-8.208 0-14.857-6.666-14.857-14.857 0-8.208 6.649-14.857 14.857-14.857s14.857 6.649 14.857 14.857z"></path>
</svg>
