<?xml version="1.0" encoding="utf-8"?>
<!-- Generated by IcoMoon.io -->
<!DOCTYPE svg PUBLIC "-//W3C//DTD SVG 1.1//EN" "http://www.w3.org/Graphics/SVG/1.1/DTD/svg11.dtd">
<svg version="1.1" xmlns="http://www.w3.org/2000/svg" xmlns:xlink="http://www.w3.org/1999/xlink" width="32" height="32" viewBox="0 0 32 32">
<path d="M11.476 16c-2.997 0-5.429-2.432-5.429-5.429s2.432-5.429 5.429-5.429 5.429 2.432 5.429 5.429-2.432 5.429-5.429 5.429zM25.048 17.81h4.976c0.24 0 0.452 0.212 0.452 0.452v2.714c0 0.24-0.212 0.452-0.452 0.452h-4.976v4.976c0 0.24-0.212 0.452-0.452 0.452h-2.714c-0.24 0-0.452-0.212-0.452-0.452v-4.976h-4.976c-0.24 0-0.452-0.212-0.452-0.452v-2.714c0-0.24 0.212-0.452 0.452-0.452h4.976v-4.976c0-0.24 0.212-0.452 0.452-0.452h2.714c0.24 0 0.452 0.212 0.452 0.452v4.976zM14.643 20.976c0 0.99 0.82 1.81 1.81 1.81h3.619v3.365c-0.693 0.509-1.569 0.707-2.417 0.707h-12.356c-2.262 0-3.775-1.357-3.775-3.661 0-3.195 0.749-8.1 4.891-8.1 0.226 0 0.382 0.099 0.551 0.24 1.385 1.060 2.728 1.725 4.51 1.725s3.124-0.664 4.51-1.725c0.17-0.141 0.325-0.24 0.551-0.24 1.202 0 2.262 0.452 3.068 1.357h-3.153c-0.99 0-1.81 0.82-1.81 1.81v2.714z"></path>
</svg>
