<?xml version="1.0" encoding="utf-8"?>
<!-- Generated by IcoMoon.io -->
<!DOCTYPE svg PUBLIC "-//W3C//DTD SVG 1.1//EN" "http://www.w3.org/Graphics/SVG/1.1/DTD/svg11.dtd">
<svg version="1.1" xmlns="http://www.w3.org/2000/svg" xmlns:xlink="http://www.w3.org/1999/xlink" width="32" height="32" viewBox="0 0 32 32">
<path d="M23.18 14.143c2.338 0.68 5.555 2.985 5.555 10.529 0 3.416-2.537 6.185-5.654 6.185h-14.161c-3.117 0-5.654-2.769-5.654-6.185 0-7.545 3.217-9.85 5.555-10.529-0.829-1.31-1.31-2.852-1.31-4.51 0-4.676 3.814-8.49 8.49-8.49s8.49 3.814 8.49 8.49c0 1.658-0.481 3.2-1.31 4.51zM16 3.265c-3.515 0-6.367 2.852-6.367 6.367s2.852 6.367 6.367 6.367 6.367-2.852 6.367-6.367-2.852-6.367-6.367-6.367zM23.080 28.735c1.94 0 3.532-1.807 3.532-4.063 0-5.223-1.758-8.49-5.041-8.656-1.492 1.31-3.432 2.106-5.571 2.106s-4.079-0.796-5.571-2.106c-3.283 0.166-5.041 3.432-5.041 8.656 0 2.255 1.592 4.063 3.532 4.063h14.161z"></path>
</svg>
