<?xml version="1.0" encoding="utf-8"?>
<!-- Generated by IcoMoon.io -->
<!DOCTYPE svg PUBLIC "-//W3C//DTD SVG 1.1//EN" "http://www.w3.org/Graphics/SVG/1.1/DTD/svg11.dtd">
<svg version="1.1" xmlns="http://www.w3.org/2000/svg" xmlns:xlink="http://www.w3.org/1999/xlink" width="32" height="32" viewBox="0 0 32 32">
<path d="M11.463 16c-2.995 0-5.425-2.43-5.425-5.425s2.43-5.425 5.425-5.425 5.425 2.43 5.425 5.425-2.43 5.425-5.425 5.425zM26.678 20.521l3.518 3.518c0.085 0.085 0.127 0.198 0.127 0.325 0 0.113-0.042 0.226-0.127 0.311l-1.921 1.921c-0.085 0.085-0.198 0.127-0.311 0.127-0.127 0-0.24-0.042-0.325-0.127l-3.518-3.518-3.518 3.518c-0.085 0.085-0.198 0.127-0.325 0.127-0.113 0-0.226-0.042-0.311-0.127l-1.921-1.921c-0.085-0.085-0.127-0.198-0.127-0.311 0-0.127 0.042-0.24 0.127-0.325l3.518-3.518-3.518-3.518c-0.085-0.085-0.127-0.198-0.127-0.325 0-0.113 0.042-0.226 0.127-0.311l1.921-1.921c0.085-0.085 0.198-0.127 0.311-0.127 0.127 0 0.24 0.042 0.325 0.127l3.518 3.518 3.518-3.518c0.085-0.085 0.198-0.127 0.325-0.127 0.113 0 0.226 0.042 0.311 0.127l1.921 1.921c0.085 0.085 0.127 0.198 0.127 0.311 0 0.127-0.042 0.24-0.127 0.325zM19.643 20.521l-2.557 2.557c-0.339 0.339-0.523 0.805-0.523 1.286 0 0.466 0.184 0.932 0.523 1.271l1.173 1.173c-0.198 0.028-0.41 0.042-0.622 0.042h-12.348c-2.26 0-3.772-1.356-3.772-3.659 0-3.193 0.749-8.095 4.888-8.095 0.226 0 0.381 0.099 0.551 0.24 1.356 1.074 2.741 1.724 4.507 1.724s3.15-0.65 4.507-1.724c0.17-0.141 0.325-0.24 0.551-0.24 0.268 0 0.537 0.028 0.805 0.085-0.466 0.452-0.763 0.819-0.763 1.497 0 0.48 0.184 0.947 0.523 1.286z"></path>
</svg>
