<?xml version="1.0" encoding="utf-8"?>
<!-- Generated by IcoMoon.io -->
<!DOCTYPE svg PUBLIC "-//W3C//DTD SVG 1.1//EN" "http://www.w3.org/Graphics/SVG/1.1/DTD/svg11.dtd">
<svg version="1.1" xmlns="http://www.w3.org/2000/svg" xmlns:xlink="http://www.w3.org/1999/xlink" width="32" height="32" viewBox="0 0 32 32">
<path d="M25.611 3.697c0-0.256 0.199-0.456 0.456-0.456h4.101c0.498 0 0.911 0.413 0.911 0.911v4.101c0 0.256-0.199 0.456-0.456 0.456h-0.911c-0.256 0-0.456-0.199-0.456-0.456v-1.908l-3.617 3.631c1.396 1.752 2.093 4.073 1.666 6.565-0.598 3.418-3.375 6.137-6.807 6.65-2.164 0.328-4.201-0.199-5.824-1.282-1.068 0.712-2.307 1.182-3.645 1.324v1.88h1.367c0.256 0 0.456 0.199 0.456 0.456v0.911c0 0.256-0.199 0.456-0.456 0.456h-1.367v1.367c0 0.256-0.199 0.456-0.456 0.456h-0.911c-0.256 0-0.456-0.199-0.456-0.456v-1.367h-1.367c-0.256 0-0.456-0.199-0.456-0.456v-0.911c0-0.256 0.199-0.456 0.456-0.456h1.367v-1.88c-4.471-0.498-7.875-4.599-7.205-9.313 0.484-3.546 3.304-6.394 6.835-6.935 2.179-0.328 4.215 0.199 5.838 1.282 1.31-0.869 2.876-1.381 4.557-1.381 1.937 0 3.717 0.684 5.112 1.794l3.631-3.617h-1.908c-0.256 0-0.456-0.199-0.456-0.456v-0.911zM14.675 19.546c1.125-1.153 1.823-2.72 1.823-4.457s-0.698-3.304-1.823-4.457c-1.125 1.153-1.823 2.72-1.823 4.457s0.698 3.304 1.823 4.457zM3.739 15.089c0 3.517 2.862 6.38 6.38 6.38 1.125 0 2.193-0.299 3.104-0.812-1.353-1.467-2.193-3.418-2.193-5.568s0.84-4.101 2.193-5.568c-0.911-0.513-1.979-0.812-3.104-0.812-3.517 0-6.38 2.862-6.38 6.38zM19.232 21.468c3.517 0 6.38-2.862 6.38-6.38s-2.862-6.38-6.38-6.38c-1.125 0-2.193 0.299-3.104 0.812 1.353 1.467 2.193 3.418 2.193 5.568s-0.84 4.101-2.193 5.568c0.911 0.513 1.979 0.812 3.104 0.812z"></path>
</svg>
