<?xml version="1.0" encoding="utf-8"?>
<!-- Generated by IcoMoon.io -->
<!DOCTYPE svg PUBLIC "-//W3C//DTD SVG 1.1//EN" "http://www.w3.org/Graphics/SVG/1.1/DTD/svg11.dtd">
<svg version="1.1" xmlns="http://www.w3.org/2000/svg" xmlns:xlink="http://www.w3.org/1999/xlink" width="32" height="32" viewBox="0 0 32 32">
<path d="M25.349 11.080c0 4.814-3.643 8.783-8.327 9.303v4.229h3.643c0.293 0 0.52 0.228 0.52 0.52v1.041c0 0.293-0.228 0.52-0.52 0.52h-3.643v3.643c0 0.293-0.228 0.52-0.52 0.52h-1.041c-0.293 0-0.52-0.228-0.52-0.52v-3.643h-3.643c-0.293 0-0.52-0.228-0.52-0.52v-1.041c0-0.293 0.228-0.52 0.52-0.52h3.643v-4.229c-4.928-0.537-8.701-4.912-8.295-10.067 0.358-4.424 3.871-8.051 8.262-8.539 5.66-0.634 10.441 3.773 10.441 9.303zM8.695 11.080c0 4.017 3.269 7.286 7.286 7.286s7.286-3.269 7.286-7.286-3.269-7.286-7.286-7.286-7.286 3.269-7.286 7.286z"></path>
</svg>
