<?xml version="1.0" encoding="utf-8"?>
<!-- Generated by IcoMoon.io -->
<!DOCTYPE svg PUBLIC "-//W3C//DTD SVG 1.1//EN" "http://www.w3.org/Graphics/SVG/1.1/DTD/svg11.dtd">
<svg version="1.1" xmlns="http://www.w3.org/2000/svg" xmlns:xlink="http://www.w3.org/1999/xlink" width="32" height="32" viewBox="0 0 32 32">
<path d="M30.431 10.165c0.404 5.117-3.341 9.46-8.233 9.992v4.197h3.616c0.291 0 0.517 0.226 0.517 0.517v1.033c0 0.291-0.226 0.517-0.517 0.517h-3.616v3.616c0 0.291-0.226 0.517-0.517 0.517h-1.033c-0.291 0-0.517-0.226-0.517-0.517v-3.616h-8.265v3.616c0 0.291-0.226 0.517-0.517 0.517h-1.033c-0.291 0-0.517-0.226-0.517-0.517v-3.616h-3.616c-0.291 0-0.517-0.226-0.517-0.517v-1.033c0-0.291 0.226-0.517 0.517-0.517h3.616v-4.197c-4.891-0.533-8.636-4.875-8.233-9.992 0.355-4.439 3.923-8.071 8.346-8.491 2.26-0.226 4.375 0.371 6.086 1.517 1.711-1.146 3.826-1.743 6.086-1.517 4.423 0.42 7.991 4.052 8.346 8.491zM16 15.976c1.275-1.308 2.066-3.083 2.066-5.053s-0.791-3.745-2.066-5.053c-1.275 1.308-2.066 3.083-2.066 5.053s0.791 3.745 2.066 5.053zM10.834 18.155c1.275 0 2.47-0.339 3.519-0.92-1.55-1.663-2.486-3.874-2.486-6.312s0.952-4.649 2.486-6.312c-1.049-0.581-2.244-0.92-3.519-0.92-3.987 0-7.232 3.245-7.232 7.232s3.245 7.232 7.232 7.232zM20.133 24.354v-4.197c-1.517-0.161-2.922-0.71-4.133-1.517-1.211 0.807-2.615 1.356-4.133 1.517v4.197h8.265zM21.166 18.155c3.987 0 7.232-3.245 7.232-7.232s-3.245-7.232-7.232-7.232c-1.275 0-2.47 0.339-3.519 0.92 1.534 1.663 2.486 3.874 2.486 6.312s-0.936 4.649-2.486 6.312c1.049 0.581 2.244 0.92 3.519 0.92z"></path>
</svg>
