<?xml version="1.0" encoding="utf-8"?>
<!-- Generated by IcoMoon.io -->
<!DOCTYPE svg PUBLIC "-//W3C//DTD SVG 1.1//EN" "http://www.w3.org/Graphics/SVG/1.1/DTD/svg11.dtd">
<svg version="1.1" xmlns="http://www.w3.org/2000/svg" xmlns:xlink="http://www.w3.org/1999/xlink" width="32" height="32" viewBox="0 0 32 32">
<path d="M21.455 18.805c0-0.967-0.174-1.935-0.542-2.844-0.503 0.31-1.064 0.542-1.644 0.658 0.31 0.696 0.426 1.451 0.426 2.205 0 2.979-2.205 5.417-5.223 5.417-3.037 0-5.243-2.438-5.243-5.417 0-2.921 2.225-5.494 5.243-5.494 0.658 0 1.296 0.116 1.896 0.368 0.058-0.58 0.252-1.161 0.522-1.683-0.774-0.271-1.586-0.406-2.418-0.406-4.005 0-6.984 3.231-6.984 7.196s2.998 7.1 6.984 7.1 6.984-3.153 6.984-7.1zM18.012 11.938c0.039 0.464 0.039 0.929 0.039 1.373 0 3.579-0.696 9.402-4.546 10.872 0.271 0.039 0.542 0.058 0.813 0.058h0.193c2.863-1.818 4.237-4.604 4.237-7.951 0-1.49-0.252-2.96-0.735-4.353zM18.012 11.938c-0.097-1.877-1.161-4.778-2.747-5.842 1.083 1.838 2.051 3.811 2.747 5.842zM24.493 9.906c0-1.18-0.29-2.379-0.987-3.366-0.464 0.987-1.335 1.818-2.399 2.109-1.528 0.426-2.882 1.141-2.882 2.96 0 0.522 0.174 1.045 0.464 1.49 1.838-0.426 3.792-1.78 4.565-3.521-0.116 1.548-2.998 3.424-4.121 4.043 0.561 0.561 1.296 1.006 2.128 1.006 1.412 0 2.418-1.257 2.902-2.457 0.232-0.58 0.329-1.664 0.329-2.263zM30.857 6.714v18.571c0 3.076-2.496 5.571-5.571 5.571h-18.571c-3.076 0-5.571-2.496-5.571-5.571v-18.571c0-3.076 2.496-5.571 5.571-5.571h18.571c3.076 0 5.571 2.496 5.571 5.571z"></path>
</svg>
