<?xml version="1.0" encoding="utf-8"?>
<!-- Generated by IcoMoon.io -->
<!DOCTYPE svg PUBLIC "-//W3C//DTD SVG 1.1//EN" "http://www.w3.org/Graphics/SVG/1.1/DTD/svg11.dtd">
<svg version="1.1" xmlns="http://www.w3.org/2000/svg" xmlns:xlink="http://www.w3.org/1999/xlink" width="32" height="32" viewBox="0 0 32 32">
<path d="M24.178 20.188c0 2.852-0.997 5.364-2.932 7.458-2.014 2.194-4.567 3.211-7.538 3.211-2.951 0-5.524-0.997-7.538-3.211-1.934-2.094-2.932-4.607-2.932-7.458 0-5.923 4.467-10.769 10.47-10.769 1.236 0 2.473 0.199 3.63 0.618-0.399 0.778-0.678 1.635-0.778 2.513-0.897-0.379-1.875-0.558-2.852-0.558-4.527 0-7.857 3.869-7.857 8.256 0 4.467 3.31 8.117 7.857 8.117s7.837-3.649 7.837-8.117c0-1.137-0.199-2.253-0.638-3.31 0.877-0.179 1.715-0.518 2.453-0.977 0.558 1.336 0.818 2.792 0.818 4.228zM20.11 16.419c0 5.026-2.034 9.213-6.342 11.926l-0.279 0.020c-0.419 0-0.838-0.040-1.236-0.1 5.763-2.194 6.82-10.948 6.82-16.293 0-0.678 0-1.376-0.060-2.054 0.718 2.094 1.097 4.288 1.097 6.501zM19.013 9.878v0.040c-1.037-3.051-2.473-6.003-4.108-8.775 2.513 1.695 3.889 5.803 4.108 8.735zM23.879 13.926c-1.236 0-2.333-0.658-3.191-1.496 2.034-1.117 4.607-2.852 5.783-4.926 0.14-0.279 0.379-0.798 0.419-1.117-1.157 2.593-4.108 4.627-6.86 5.265-0.439-0.678-0.698-1.436-0.698-2.253 0-0.957 0.479-2.234 1.197-2.932 0.818-0.778 2.034-1.177 3.131-1.476 1.595-0.439 2.892-1.675 3.59-3.171 1.037 1.476 1.476 3.271 1.476 5.045 0 0.897-0.14 2.533-0.479 3.39-0.738 1.795-2.234 3.669-4.367 3.669z"></path>
</svg>
