<?xml version="1.0" encoding="utf-8"?>
<!-- Generated by IcoMoon.io -->
<!DOCTYPE svg PUBLIC "-//W3C//DTD SVG 1.1//EN" "http://www.w3.org/Graphics/SVG/1.1/DTD/svg11.dtd">
<svg version="1.1" xmlns="http://www.w3.org/2000/svg" xmlns:xlink="http://www.w3.org/1999/xlink" width="32" height="32" viewBox="0 0 32 32">
<path d="M30.4 7.257v17.486c0 0.418-0.257 0.788-0.627 0.948-0.129 0.048-0.273 0.080-0.402 0.080-0.273 0-0.53-0.096-0.723-0.305l-6.477-6.477v2.668c0 2.555-2.073 4.629-4.629 4.629h-11.314c-2.555 0-4.629-2.073-4.629-4.629v-11.314c0-2.555 2.073-4.629 4.629-4.629h11.314c2.555 0 4.629 2.073 4.629 4.629v2.652l6.477-6.461c0.193-0.209 0.45-0.305 0.723-0.305 0.129 0 0.273 0.032 0.402 0.080 0.37 0.161 0.627 0.53 0.627 0.948z"></path>
</svg>
