<?xml version="1.0" encoding="utf-8"?>
<!-- Generated by IcoMoon.io -->
<!DOCTYPE svg PUBLIC "-//W3C//DTD SVG 1.1//EN" "http://www.w3.org/Graphics/SVG/1.1/DTD/svg11.dtd">
<svg version="1.1" xmlns="http://www.w3.org/2000/svg" xmlns:xlink="http://www.w3.org/1999/xlink" width="32" height="32" viewBox="0 0 32 32">
<path d="M26.137 11.009c0.135-2.805-0.909-4.217-3.115-4.295-2.979-0.097-4.991 1.586-6.036 5.049 0.542-0.232 1.064-0.368 1.586-0.368 1.083 0 1.567 0.619 1.432 1.857-0.058 0.735-0.542 1.818-1.432 3.231-0.909 1.432-1.586 2.128-2.031 2.128-0.58 0-1.083-1.083-1.586-3.269-0.155-0.658-0.445-2.283-0.871-4.933-0.387-2.438-1.412-3.579-3.095-3.424-0.696 0.077-1.78 0.696-3.173 1.935-1.045 0.909-2.070 1.857-3.134 2.786l1.006 1.296c0.967-0.658 1.528-1.006 1.683-1.006 0.735 0 1.432 1.161 2.070 3.463 0.58 2.128 1.161 4.237 1.741 6.365 0.871 2.302 1.915 3.463 3.173 3.463 2.012 0 4.488-1.896 7.409-5.688 2.824-3.637 4.295-6.5 4.372-8.589zM30.857 6.714v18.571c0 3.076-2.496 5.571-5.571 5.571h-18.571c-3.076 0-5.571-2.496-5.571-5.571v-18.571c0-3.076 2.496-5.571 5.571-5.571h18.571c3.076 0 5.571 2.496 5.571 5.571z"></path>
</svg>
