<?xml version="1.0" encoding="utf-8"?>
<!-- Generated by IcoMoon.io -->
<!DOCTYPE svg PUBLIC "-//W3C//DTD SVG 1.1//EN" "http://www.w3.org/Graphics/SVG/1.1/DTD/svg11.dtd">
<svg version="1.1" xmlns="http://www.w3.org/2000/svg" xmlns:xlink="http://www.w3.org/1999/xlink" width="32" height="32" viewBox="0 0 32 32">
<path d="M30.658 9.248c-0.126 2.849-2.128 6.761-5.986 11.738-4.003 5.175-7.357 7.771-10.133 7.771-1.713 0-3.155-1.587-4.327-4.742-0.793-2.885-1.587-5.788-2.38-8.691-0.865-3.155-1.821-4.724-2.831-4.724-0.216 0-0.974 0.451-2.29 1.37l-1.388-1.767c1.442-1.28 2.867-2.578 4.291-3.822 1.911-1.695 3.372-2.542 4.345-2.632 2.29-0.216 3.678 1.334 4.219 4.67 0.559 3.606 0.974 5.86 1.19 6.725 0.667 2.993 1.37 4.49 2.164 4.49 0.613 0 1.533-0.956 2.777-2.903 1.226-1.947 1.875-3.426 1.965-4.436 0.162-1.677-0.487-2.506-1.965-2.506-0.703 0-1.424 0.162-2.182 0.469 1.442-4.724 4.201-7.014 8.276-6.888 3.011 0.090 4.436 2.056 4.255 5.878z"></path>
</svg>
