<?xml version="1.0" encoding="utf-8"?>
<!-- Generated by IcoMoon.io -->
<!DOCTYPE svg PUBLIC "-//W3C//DTD SVG 1.1//EN" "http://www.w3.org/Graphics/SVG/1.1/DTD/svg11.dtd">
<svg version="1.1" xmlns="http://www.w3.org/2000/svg" xmlns:xlink="http://www.w3.org/1999/xlink" width="32" height="32" viewBox="0 0 32 32">
<path d="M28.948 15.831v3.517c-1.243 0.284-2.487 0.409-3.517 0.409-2.487 5.222-6.945 9.698-8.437 10.532-0.941 0.533-1.829 0.568-2.877-0.053-1.829-1.101-8.756-6.785-11.065-24.652h5.026c1.261 10.728 4.351 16.234 7.744 20.354 1.883-1.883 3.694-4.387 5.097-7.211-3.357-1.705-5.399-5.453-5.399-9.822 0-4.423 2.54-7.762 6.891-7.762 4.227 0 6.536 2.629 6.536 7.158 0 1.687-0.355 3.605-1.030 5.080 0 0-3.126 0.622-4.28-1.385 0.231-0.764 0.551-2.078 0.551-3.268 0-2.114-0.764-3.144-1.918-3.144-1.226 0-2.078 1.154-2.078 3.375 0 4.529 2.877 7.122 6.607 7.122 0.657 0 1.403-0.071 2.149-0.249z"></path>
</svg>
