<?xml version="1.0" encoding="utf-8"?>
<!-- Generated by IcoMoon.io -->
<!DOCTYPE svg PUBLIC "-//W3C//DTD SVG 1.1//EN" "http://www.w3.org/Graphics/SVG/1.1/DTD/svg11.dtd">
<svg version="1.1" xmlns="http://www.w3.org/2000/svg" xmlns:xlink="http://www.w3.org/1999/xlink" width="32" height="32" viewBox="0 0 32 32">
<path d="M28.802 9.421c0.208 0.57-0.445 1.904-2.084 4.085-2.696 3.585-2.987 3.251-0.764 5.322 2.14 1.987 2.584 2.946 2.654 3.071 0 0 0.889 1.556-0.987 1.57l-3.557 0.056c-0.764 0.153-1.779-0.542-1.779-0.542-1.334-0.917-2.584-3.293-3.557-2.987 0 0-1 0.32-0.973 2.459 0.014 0.459-0.208 0.709-0.208 0.709s-0.25 0.264-0.736 0.306h-1.598c-3.515 0.222-6.614-3.015-6.614-3.015s-3.39-3.502-6.364-10.491c-0.195-0.459 0.014-0.681 0.014-0.681s0.208-0.264 0.792-0.264l3.807-0.028c0.361 0.056 0.611 0.25 0.611 0.25s0.222 0.153 0.333 0.445c0.625 1.556 1.431 2.974 1.431 2.974 1.39 2.862 2.334 3.349 2.876 3.057 0 0 0.709-0.431 0.556-3.891-0.056-1.251-0.403-1.82-0.403-1.82-0.32-0.431-0.917-0.556-1.181-0.597-0.208-0.028 0.139-0.528 0.597-0.75 0.681-0.333 1.89-0.347 3.321-0.333 1.125 0.014 1.445 0.083 1.876 0.181 1.32 0.32 0.875 1.542 0.875 4.488 0 0.945-0.181 2.265 0.5 2.696 0.292 0.195 1.014 0.028 2.793-3.001 0 0 0.834-1.445 1.487-3.126 0.111-0.306 0.347-0.431 0.347-0.431s0.222-0.125 0.528-0.083l4.002-0.028c1.209-0.153 1.403 0.403 1.403 0.403z"></path>
</svg>
