<?xml version="1.0" encoding="utf-8"?>
<!-- Generated by IcoMoon.io -->
<!DOCTYPE svg PUBLIC "-//W3C//DTD SVG 1.1//EN" "http://www.w3.org/Graphics/SVG/1.1/DTD/svg11.dtd">
<svg version="1.1" xmlns="http://www.w3.org/2000/svg" xmlns:xlink="http://www.w3.org/1999/xlink" width="32" height="32" viewBox="0 0 32 32">
<path d="M14.551 29.142c0-0.4-0.883-3.231-1.066-3.897-0.1-0.416-0.133-1.099-0.45-1.399-0.217-0.2-0.566-0.233-0.849-0.233-0.783 0-1.566 0.183-2.348 0.183-0.233 0-0.583-0.017-0.783-0.183-0.267-0.217-0.4-0.966-0.5-1.299-0.4-1.382-0.616-2.798-0.616-4.247s0.217-2.865 0.616-4.247c0.1-0.333 0.233-1.083 0.5-1.299 0.2-0.167 0.55-0.183 0.783-0.183 0.783 0 1.566 0.183 2.348 0.183 0.283 0 0.633-0.033 0.849-0.233 0.316-0.3 0.35-0.983 0.45-1.399 0.183-0.666 1.066-3.498 1.066-3.897 0-0.566-1.499-1.399-1.982-1.582-0.25-0.1-0.5-0.133-0.749-0.133-0.55 0-1.099 0.15-1.632 0.3-2.732 0.816-3.381 2.482-4.464 4.83-1.166 2.515-1.449 4.913-1.449 7.662s0.283 5.147 1.449 7.662c1.083 2.348 1.732 4.014 4.464 4.83 0.533 0.15 1.083 0.3 1.632 0.3 0.25 0 0.5-0.033 0.749-0.133 0.483-0.183 1.982-1.016 1.982-1.582zM17.199 13.935c-0.283 0-0.55-0.117-0.75-0.316-0.416-0.416-0.433-1.099 0-1.516 0.4-0.4 0.616-0.933 0.616-1.499s-0.217-1.099-0.616-1.516c-0.433-0.416-0.416-1.083 0-1.499s1.083-0.416 1.499 0c0.799 0.799 1.249 1.882 1.249 3.015s-0.45 2.215-1.249 3.015c-0.217 0.2-0.483 0.316-0.75 0.316zM20.214 16.949c-0.283 0-0.55-0.1-0.75-0.316-0.416-0.416-0.416-1.083 0-1.499 1.199-1.216 1.865-2.815 1.865-4.53s-0.666-3.315-1.865-4.53c-0.416-0.416-0.416-1.083 0-1.499s1.083-0.416 1.499 0c1.616 1.616 2.498 3.748 2.498 6.029s-0.883 4.414-2.498 6.029c-0.2 0.217-0.483 0.316-0.75 0.316zM23.229 19.964c-0.283 0-0.55-0.1-0.75-0.316-0.416-0.416-0.416-1.083 0-1.499 1.999-2.015 3.115-4.697 3.115-7.545s-1.116-5.53-3.115-7.545c-0.416-0.416-0.416-1.083 0-1.499s1.083-0.416 1.499 0c2.415 2.415 3.748 5.63 3.748 9.044s-1.332 6.629-3.748 9.044c-0.2 0.217-0.483 0.316-0.75 0.316z"></path>
</svg>
