<?xml version="1.0" encoding="utf-8"?>
<!-- Generated by IcoMoon.io -->
<!DOCTYPE svg PUBLIC "-//W3C//DTD SVG 1.1//EN" "http://www.w3.org/Graphics/SVG/1.1/DTD/svg11.dtd">
<svg version="1.1" xmlns="http://www.w3.org/2000/svg" xmlns:xlink="http://www.w3.org/1999/xlink" width="32" height="32" viewBox="0 0 32 32">
<path d="M14.872 6.413v19.174c0 0.617-0.511 1.128-1.128 1.128-0.3 0-0.582-0.123-0.793-0.335l-5.869-5.869h-4.617c-0.617 0-1.128-0.511-1.128-1.128v-6.767c0-0.617 0.511-1.128 1.128-1.128h4.617l5.869-5.869c0.211-0.211 0.493-0.335 0.793-0.335 0.617 0 1.128 0.511 1.128 1.128zM21.639 16c0 1.762-1.075 3.472-2.732 4.141-0.141 0.070-0.3 0.088-0.441 0.088-0.617 0-1.128-0.493-1.128-1.128 0-1.339 2.044-0.969 2.044-3.102s-2.044-1.762-2.044-3.102c0-0.634 0.511-1.128 1.128-1.128 0.141 0 0.3 0.018 0.441 0.088 1.657 0.652 2.732 2.379 2.732 4.141zM26.151 16c0 3.578-2.15 6.908-5.463 8.301-0.141 0.053-0.3 0.088-0.441 0.088-0.634 0-1.146-0.511-1.146-1.128 0-0.493 0.282-0.828 0.687-1.040 0.476-0.247 0.916-0.458 1.339-0.775 1.745-1.269 2.767-3.296 2.767-5.446s-1.022-4.177-2.767-5.446c-0.423-0.317-0.864-0.529-1.339-0.775-0.405-0.211-0.687-0.546-0.687-1.040 0-0.617 0.511-1.128 1.128-1.128 0.159 0 0.317 0.035 0.458 0.088 3.313 1.392 5.463 4.723 5.463 8.301zM30.663 16c0 5.41-3.225 10.31-8.195 12.442-0.141 0.053-0.3 0.088-0.458 0.088-0.617 0-1.128-0.511-1.128-1.128 0-0.511 0.264-0.793 0.687-1.040 0.247-0.141 0.529-0.229 0.793-0.37 0.493-0.264 0.987-0.564 1.445-0.899 2.89-2.132 4.6-5.499 4.6-9.094s-1.709-6.961-4.6-9.094c-0.458-0.335-0.952-0.634-1.445-0.899-0.264-0.141-0.546-0.229-0.793-0.37-0.423-0.247-0.687-0.529-0.687-1.040 0-0.617 0.511-1.128 1.128-1.128 0.159 0 0.317 0.035 0.458 0.088 4.97 2.132 8.195 7.032 8.195 12.442z"></path>
</svg>
