<?xml version="1.0" encoding="utf-8"?>
<!-- Generated by IcoMoon.io -->
<!DOCTYPE svg PUBLIC "-//W3C//DTD SVG 1.1//EN" "http://www.w3.org/Graphics/SVG/1.1/DTD/svg11.dtd">
<svg version="1.1" xmlns="http://www.w3.org/2000/svg" xmlns:xlink="http://www.w3.org/1999/xlink" width="32" height="32" viewBox="0 0 32 32">
<path d="M19.609 5.774v20.451c0 0.658-0.545 1.203-1.203 1.203-0.32 0-0.62-0.132-0.846-0.357l-6.259-6.259h-4.925c-0.658 0-1.203-0.545-1.203-1.203v-7.218c0-0.658 0.545-1.203 1.203-1.203h4.925l6.259-6.259c0.226-0.226 0.526-0.357 0.846-0.357 0.658 0 1.203 0.545 1.203 1.203zM26.827 16c0 1.88-1.147 3.703-2.914 4.417-0.15 0.075-0.32 0.094-0.47 0.094-0.658 0-1.203-0.526-1.203-1.203 0-1.429 2.18-1.034 2.18-3.308s-2.18-1.88-2.18-3.308c0-0.677 0.545-1.203 1.203-1.203 0.15 0 0.32 0.019 0.47 0.094 1.767 0.695 2.914 2.538 2.914 4.417z"></path>
</svg>
