<?xml version="1.0" encoding="utf-8"?>
<!-- Generated by IcoMoon.io -->
<!DOCTYPE svg PUBLIC "-//W3C//DTD SVG 1.1//EN" "http://www.w3.org/Graphics/SVG/1.1/DTD/svg11.dtd">
<svg version="1.1" xmlns="http://www.w3.org/2000/svg" xmlns:xlink="http://www.w3.org/1999/xlink" width="32" height="32" viewBox="0 0 32 32">
<path d="M9.671 9.799c0-0.784-0.513-1.297-1.297-1.297-0.77 0-1.554 0.513-1.554 1.297 0 0.77 0.784 1.283 1.554 1.283 0.784 0 1.297-0.513 1.297-1.283zM20.262 17.026c0-0.513-0.513-1.026-1.297-1.026-0.513 0-1.026 0.513-1.026 1.026 0 0.527 0.513 1.041 1.026 1.041 0.784 0 1.297-0.513 1.297-1.041zM16.898 9.799c0-0.784-0.513-1.297-1.283-1.297-0.784 0-1.554 0.513-1.554 1.297 0 0.77 0.77 1.283 1.554 1.283 0.77 0 1.283-0.513 1.283-1.283zM25.95 17.026c0-0.513-0.527-1.026-1.297-1.026-0.513 0-1.026 0.513-1.026 1.026 0 0.527 0.513 1.041 1.026 1.041 0.77 0 1.297-0.513 1.297-1.041zM22.158 11.367c-0.328-0.043-0.656-0.057-0.998-0.057-4.904 0-8.781 3.663-8.781 8.168 0 0.756 0.114 1.483 0.328 2.167-0.328 0.029-0.641 0.043-0.969 0.043-1.297 0-2.323-0.257-3.621-0.513l-3.606 1.81 1.026-3.108c-2.58-1.81-4.134-4.148-4.134-6.985 0-4.918 4.647-8.781 10.335-8.781 5.075 0 9.536 3.093 10.42 7.256zM30.597 19.364c0 2.323-1.54 4.39-3.621 5.944l0.784 2.58-2.837-1.554c-1.041 0.257-2.081 0.527-3.108 0.527-4.918 0-8.781-3.364-8.781-7.498s3.863-7.498 8.781-7.498c4.647 0 8.781 3.364 8.781 7.498z"></path>
</svg>
