<?xml version="1.0" encoding="utf-8"?>
<!-- Generated by IcoMoon.io -->
<!DOCTYPE svg PUBLIC "-//W3C//DTD SVG 1.1//EN" "http://www.w3.org/Graphics/SVG/1.1/DTD/svg11.dtd">
<svg version="1.1" xmlns="http://www.w3.org/2000/svg" xmlns:xlink="http://www.w3.org/1999/xlink" width="32" height="32" viewBox="0 0 32 32">
<path d="M12.417 22.515c0.457-0.75 0.212-1.614-0.554-1.941-0.734-0.31-1.712 0.016-2.169 0.734-0.473 0.734-0.245 1.598 0.489 1.941 0.75 0.342 1.761 0.016 2.234-0.734zM13.95 20.542c0.163-0.294 0.065-0.62-0.228-0.734-0.294-0.098-0.652 0.033-0.815 0.31-0.163 0.294-0.082 0.603 0.212 0.734 0.294 0.114 0.669-0.016 0.832-0.31zM16.787 22.287c-0.978 2.218-3.816 3.425-6.229 2.642-2.332-0.75-3.31-3.050-2.299-5.121 1.011-2.022 3.604-3.164 5.903-2.577 2.397 0.62 3.604 2.87 2.626 5.055zM21.875 19.677c-0.31-3.18-4.485-5.365-9.328-4.892-4.843 0.489-8.496 3.441-8.186 6.621s4.485 5.365 9.328 4.892c4.843-0.489 8.496-3.441 8.186-6.621zM26.898 19.743c0 3.669-5.284 8.284-13.226 8.284-6.066 0-12.263-2.935-12.263-7.779 0-2.528 1.598-5.447 4.354-8.203 3.686-3.686 7.974-5.349 9.589-3.734 0.718 0.701 0.783 1.941 0.326 3.408-0.228 0.75 0.701 0.326 0.701 0.342 2.968-1.256 5.561-1.321 6.507 0.033 0.506 0.718 0.457 1.729 0 2.903-0.212 0.538 0.065 0.62 0.473 0.75 1.68 0.522 3.539 1.778 3.539 3.995zM25.691 9.567c0.93 1.027 1.19 2.446 0.783 3.686-0.163 0.506-0.701 0.783-1.207 0.62s-0.783-0.701-0.62-1.207v0c0.196-0.62 0.065-1.305-0.391-1.81s-1.125-0.701-1.745-0.571v0c-0.522 0.114-1.044-0.212-1.142-0.734-0.114-0.522 0.212-1.027 0.734-1.142 1.272-0.277 2.658 0.114 3.588 1.158zM28.643 6.909c1.924 2.12 2.43 5.023 1.614 7.567v0c-0.196 0.587-0.815 0.913-1.402 0.718s-0.913-0.815-0.734-1.402v0c0.587-1.81 0.228-3.881-1.142-5.382-1.37-1.517-3.376-2.087-5.235-1.696-0.603 0.13-1.207-0.261-1.337-0.864s0.261-1.19 0.864-1.321v0c2.626-0.554 5.447 0.245 7.371 2.381z"></path>
</svg>
