<?xml version="1.0" encoding="utf-8"?>
<!-- Generated by IcoMoon.io -->
<!DOCTYPE svg PUBLIC "-//W3C//DTD SVG 1.1//EN" "http://www.w3.org/Graphics/SVG/1.1/DTD/svg11.dtd">
<svg version="1.1" xmlns="http://www.w3.org/2000/svg" xmlns:xlink="http://www.w3.org/1999/xlink" width="32" height="32" viewBox="0 0 32 32">
<path d="M20.165 17.497c0.326 0 3.455 1.632 3.59 1.862 0.038 0.096 0.038 0.211 0.038 0.288 0 0.48-0.154 1.017-0.326 1.459-0.442 1.075-2.227 1.766-3.321 1.766-0.921 0-2.822-0.806-3.647-1.19-2.745-1.248-4.453-3.378-6.104-5.816-0.729-1.075-1.382-2.399-1.363-3.724v-0.154c0.038-1.267 0.499-2.169 1.42-3.033 0.288-0.269 0.595-0.422 0.998-0.422 0.23 0 0.461 0.058 0.71 0.058 0.518 0 0.614 0.154 0.806 0.653 0.134 0.326 1.113 2.937 1.113 3.129 0 0.729-1.325 1.555-1.325 1.996 0 0.096 0.038 0.192 0.096 0.288 0.422 0.902 1.228 1.939 1.958 2.63 0.883 0.845 1.824 1.401 2.899 1.939 0.134 0.077 0.269 0.134 0.422 0.134 0.576 0 1.536-1.862 2.035-1.862zM16.269 27.671c6.642 0 12.055-5.413 12.055-12.055s-5.413-12.055-12.055-12.055-12.055 5.413-12.055 12.055c0 2.534 0.806 5.010 2.303 7.064l-1.516 4.473 4.645-1.478c1.958 1.286 4.281 1.996 6.622 1.996zM16.269 1.143c7.985 0 14.473 6.488 14.473 14.473s-6.488 14.473-14.473 14.473c-2.438 0-4.856-0.614-7.006-1.804l-8.004 2.572 2.611-7.774c-1.363-2.246-2.073-4.837-2.073-7.467 0-7.985 6.488-14.473 14.473-14.473z"></path>
</svg>
