<?xml version="1.0" encoding="utf-8"?>
<!-- Generated by IcoMoon.io -->
<!DOCTYPE svg PUBLIC "-//W3C//DTD SVG 1.1//EN" "http://www.w3.org/Graphics/SVG/1.1/DTD/svg11.dtd">
<svg version="1.1" xmlns="http://www.w3.org/2000/svg" xmlns:xlink="http://www.w3.org/1999/xlink" width="32" height="32" viewBox="0 0 32 32">
<path d="M27.111 14.624c0.348 0.365 0.531 0.862 0.481 1.36l-0.73 9.136c-0.083 0.929-0.846 1.625-1.758 1.625-0.050 0-0.099 0-0.149-0.017-0.978-0.066-1.691-0.929-1.625-1.89l0.58-7.114-2.371 0.133c0.58 1.194 0.912 2.554 0.912 3.98 0 2.388-0.929 4.56-2.454 6.168l-2.272-2.272c0.929-1.028 1.509-2.404 1.509-3.897 0-3.217-2.603-5.82-5.804-5.82-1.509 0-2.869 0.58-3.913 1.526l-2.272-2.288c1.277-1.21 2.902-2.040 4.709-2.338l4.378-4.974-2.471-1.443-3.001 2.67c-0.73 0.663-1.841 0.597-2.487-0.133s-0.58-1.841 0.133-2.487l3.963-3.532c0.564-0.514 1.393-0.597 2.056-0.199 8.075 4.693 8.092 4.693 8.092 4.693 0.431 0.249 0.68 0.68 0.796 1.128 0.166 0.647 0.050 1.376-0.431 1.94l-3.399 3.847 6.152-0.332c0.514-0.033 1.011 0.149 1.376 0.531zM23.828 7.046c-1.625 0-2.952-1.31-2.952-2.952 0-1.625 1.327-2.952 2.952-2.952 1.642 0 2.968 1.327 2.968 2.952 0 1.642-1.327 2.952-2.968 2.952zM13.431 27.64c1.194 0 2.321-0.381 3.25-1.011l2.305 2.305c-1.526 1.21-3.466 1.923-5.555 1.923-4.991 0-9.037-4.046-9.037-9.020 0-2.106 0.713-4.029 1.923-5.571l2.305 2.305c-0.63 0.929-0.995 2.056-0.995 3.267 0 3.2 2.603 5.804 5.804 5.804z"></path>
</svg>
