<?xml version="1.0" encoding="utf-8"?>
<!-- Generated by IcoMoon.io -->
<!DOCTYPE svg PUBLIC "-//W3C//DTD SVG 1.1//EN" "http://www.w3.org/Graphics/SVG/1.1/DTD/svg11.dtd">
<svg version="1.1" xmlns="http://www.w3.org/2000/svg" xmlns:xlink="http://www.w3.org/1999/xlink" width="33" height="32" viewBox="0 0 33 32">
<path d="M19.78 20.643l1.722 3.444c-1.3 4.018-5.048 6.77-9.269 6.77-5.352 0-9.725-4.373-9.725-9.725 0-4.086 2.566-7.732 6.399-9.134l0.287 2.212c-2.752 1.216-4.525 3.917-4.525 6.922 0 4.17 3.394 7.564 7.564 7.564 4.339 0 7.851-3.714 7.547-8.053zM29.032 22.331l0.979 1.925-4.322 2.161c-0.152 0.084-0.321 0.118-0.49 0.118-0.405 0-0.794-0.236-0.962-0.591l-4.035-8.053h-7.969c-0.54 0-1.013-0.422-1.081-0.962l-1.621-13.152c-0.017-0.169 0.051-0.54 0.101-0.709 0.321-1.165 1.401-1.925 2.6-1.925 1.486 0 2.701 1.216 2.701 2.701 0 1.536-1.351 2.853-2.904 2.684l0.625 4.879h7.142v2.161h-6.871l0.27 2.161h7.682c0.405 0 0.794 0.236 0.962 0.591l3.849 7.682z"></path>
</svg>
