<?xml version="1.0" encoding="utf-8"?>
<!-- Generated by IcoMoon.io -->
<!DOCTYPE svg PUBLIC "-//W3C//DTD SVG 1.1//EN" "http://www.w3.org/Graphics/SVG/1.1/DTD/svg11.dtd">
<svg version="1.1" xmlns="http://www.w3.org/2000/svg" xmlns:xlink="http://www.w3.org/1999/xlink" width="32" height="32" viewBox="0 0 32 32">
<path d="M16 26.222c-0.381 0-2.433-2.052-2.433-2.447 0-0.718 1.876-1.114 2.433-1.114s2.433 0.396 2.433 1.114c0 0.396-2.052 2.447-2.433 2.447zM19.957 22.25c-0.205 0-1.803-1.465-3.957-1.465-2.169 0-3.737 1.465-3.957 1.465-0.352 0-2.477-2.11-2.477-2.462 0-0.132 0.059-0.249 0.147-0.337 1.568-1.553 4.118-2.418 6.287-2.418s4.719 0.865 6.287 2.418c0.088 0.088 0.147 0.205 0.147 0.337 0 0.352-2.125 2.462-2.477 2.462zM23.957 18.264c-0.117 0-0.249-0.059-0.337-0.117-2.418-1.876-4.455-2.99-7.62-2.99-4.426 0-7.796 3.107-7.958 3.107-0.337 0-2.447-2.11-2.447-2.462 0-0.117 0.059-0.234 0.147-0.322 2.623-2.623 6.58-4.074 10.258-4.074s7.635 1.451 10.258 4.074c0.088 0.088 0.147 0.205 0.147 0.322 0 0.352-2.11 2.462-2.447 2.462zM27.929 14.293c-0.117 0-0.234-0.059-0.322-0.132-3.385-2.975-7.034-4.631-11.607-4.631s-8.221 1.656-11.607 4.631c-0.088 0.073-0.205 0.132-0.322 0.132-0.337 0-2.462-2.11-2.462-2.462 0-0.132 0.059-0.249 0.147-0.337 3.708-3.678 9.057-5.715 14.244-5.715s10.537 2.037 14.244 5.715c0.088 0.088 0.147 0.205 0.147 0.337 0 0.352-2.125 2.462-2.462 2.462z"></path>
</svg>
