<?xml version="1.0" encoding="utf-8"?>
<!-- Generated by IcoMoon.io -->
<!DOCTYPE svg PUBLIC "-//W3C//DTD SVG 1.1//EN" "http://www.w3.org/Graphics/SVG/1.1/DTD/svg11.dtd">
<svg version="1.1" xmlns="http://www.w3.org/2000/svg" xmlns:xlink="http://www.w3.org/1999/xlink" width="32" height="32" viewBox="0 0 32 32">
<path d="M20.224 25.171l-3.644-8.584c-1.445 2.829-3.039 5.781-4.41 8.584-0.012 0.012-0.667 0-0.667-0.012-2.087-4.879-4.274-9.721-6.361-14.612-0.506-1.186-2.199-3.113-3.36-3.1 0-0.136-0.012-0.445-0.012-0.63h7.201v0.618c-0.852 0.049-2.347 0.593-1.927 1.519 0.976 2.211 4.607 10.684 5.583 12.833 0.667-1.322 2.569-4.854 3.347-6.349-0.618-1.26-2.606-5.954-3.236-7.115-0.432-0.79-1.606-0.865-2.483-0.877v-0.618l6.336 0.012v0.581c-0.865 0.025-1.692 0.346-1.309 1.161 0.84 1.779 1.359 3.026 2.137 4.657 0.247-0.482 1.544-3.088 2.137-4.484 0.395-0.914-0.173-1.272-1.717-1.309 0.012-0.161 0-0.457 0.012-0.605 1.976-0.012 4.941-0.012 5.472-0.025v0.605c-1 0.037-2.038 0.568-2.582 1.408l-2.631 5.459c0.284 0.716 2.816 6.349 3.076 6.966l5.447-12.562c-0.383-1.025-1.618-1.248-2.1-1.26v-0.618l5.682 0.049 0.012 0.025-0.012 0.543c-1.248 0.037-2.001 0.704-2.483 1.791-1.112 2.569-4.595 10.672-6.905 15.946h-0.605z"></path>
</svg>
