<?xml version="1.0" encoding="utf-8"?>
<!-- Generated by IcoMoon.io -->
<!DOCTYPE svg PUBLIC "-//W3C//DTD SVG 1.1//EN" "http://www.w3.org/Graphics/SVG/1.1/DTD/svg11.dtd">
<svg version="1.1" xmlns="http://www.w3.org/2000/svg" xmlns:xlink="http://www.w3.org/1999/xlink" width="32" height="32" viewBox="0 0 32 32">
<path d="M4.98 25.184h11.020v-7.347h-11.020v7.347zM19.673 17.837h7.347v-11.020h-11.020v3.673h1.378c1.263 0 2.296 1.033 2.296 2.296v5.051zM30.694 5.439v13.775c0 1.263-1.033 2.296-2.296 2.296h-8.724v5.051c0 1.263-1.033 2.296-2.296 2.296h-13.775c-1.263 0-2.296-1.033-2.296-2.296v-13.775c0-1.263 1.033-2.296 2.296-2.296h8.725v-5.051c0-1.263 1.033-2.296 2.296-2.296h13.775c1.263 0 2.296 1.033 2.296 2.296z"></path>
</svg>
