<?xml version="1.0" encoding="utf-8"?>
<!-- Generated by IcoMoon.io -->
<!DOCTYPE svg PUBLIC "-//W3C//DTD SVG 1.1//EN" "http://www.w3.org/Graphics/SVG/1.1/DTD/svg11.dtd">
<svg version="1.1" xmlns="http://www.w3.org/2000/svg" xmlns:xlink="http://www.w3.org/1999/xlink" width="32" height="32" viewBox="0 0 32 32">
<path d="M3.249 16c0-1.841 0.398-3.598 1.111-5.19l6.085 16.665c-4.261-2.073-7.196-6.434-7.196-11.474zM24.606 15.353c0 1.094-0.448 2.355-0.978 4.129l-1.26 4.245-4.61-13.696s0.763-0.050 1.459-0.133c0.68-0.083 0.597-1.094-0.083-1.045-2.073 0.149-3.399 0.166-3.399 0.166s-1.244-0.017-3.35-0.166c-0.696-0.050-0.779 0.995-0.083 1.045 0.647 0.066 1.327 0.133 1.327 0.133l1.99 5.439-2.786 8.357-4.643-13.796s0.763-0.050 1.459-0.133c0.68-0.083 0.597-1.094-0.083-1.045-2.056 0.149-3.399 0.166-3.399 0.166-0.232 0-0.514-0.017-0.813-0.017 2.272-3.466 6.185-5.754 10.645-5.754 3.316 0 6.334 1.277 8.606 3.349h-0.166c-1.244 0-2.139 1.078-2.139 2.255 0 1.045 0.614 1.923 1.26 2.985 0.497 0.846 1.045 1.94 1.045 3.515zM16.216 17.111l3.93 10.728c0.017 0.066 0.050 0.133 0.083 0.182-1.327 0.464-2.736 0.73-4.228 0.73-1.244 0-2.454-0.182-3.598-0.531zM27.176 9.881c0.995 1.824 1.575 3.897 1.575 6.119 0 4.709-2.554 8.805-6.351 11.010l3.897-11.242c0.647-1.857 0.978-3.283 0.978-4.577 0-0.464-0.033-0.895-0.099-1.31zM16 1.143c8.191 0 14.857 6.666 14.857 14.857s-6.666 14.857-14.857 14.857-14.857-6.666-14.857-14.857 6.666-14.857 14.857-14.857zM16 30.177c7.81 0 14.177-6.367 14.177-14.177s-6.367-14.177-14.177-14.177-14.177 6.367-14.177 14.177 6.367 14.177 14.177 14.177z"></path>
</svg>
