<?xml version="1.0" encoding="utf-8"?>
<!-- Generated by IcoMoon.io -->
<!DOCTYPE svg PUBLIC "-//W3C//DTD SVG 1.1//EN" "http://www.w3.org/Graphics/SVG/1.1/DTD/svg11.dtd">
<svg version="1.1" xmlns="http://www.w3.org/2000/svg" xmlns:xlink="http://www.w3.org/1999/xlink" width="32" height="32" viewBox="0 0 32 32">
<path d="M7.534 14.942h2.646v-3.704h-2.646v3.704zM21.374 20.431v-1.521c-1.422 0.496-2.596 0.612-4.018 0.628-3.191 0.017-6.019-1.306-7.937-2.794l0.017 1.587c1.802 1.637 4.563 2.927 8.003 2.91 1.438 0 2.794-0.298 3.935-0.81zM11.767 14.942h10.582v-3.704h-10.582v3.704zM30.815 14.413c0 2.1-0.595 4.084-1.637 5.82 0.926 1.058 1.472 2.364 1.472 3.786 0 3.456-3.274 6.267-7.325 6.267-2.745 0-5.126-1.29-6.382-3.191-0.314 0.017-0.628 0.017-0.942 0.017s-0.628 0-0.942-0.017c-1.257 1.901-3.638 3.191-6.382 3.191-4.051 0-7.325-2.811-7.325-6.267 0-1.422 0.546-2.728 1.472-3.786-1.042-1.736-1.637-3.72-1.637-5.82 0-7.011 6.63-12.698 14.815-12.698s14.815 5.688 14.815 12.698z"></path>
</svg>
