<?xml version="1.0" encoding="utf-8"?>
<!-- Generated by IcoMoon.io -->
<!DOCTYPE svg PUBLIC "-//W3C//DTD SVG 1.1//EN" "http://www.w3.org/Graphics/SVG/1.1/DTD/svg11.dtd">
<svg version="1.1" xmlns="http://www.w3.org/2000/svg" xmlns:xlink="http://www.w3.org/1999/xlink" width="32" height="32" viewBox="0 0 32 32">
<path d="M16.862 18.189l2.703 5.455h-0.846l-2.902-5.804-2.835 5.804h-0.813l2.968-6.202-1.293-0.547 0.348-0.813 3.98 1.691-0.348 0.829zM10.478 8.372l5.041 2.156-2.156 5.041-5.041-2.156zM16.182 11.44l3.98 1.708-1.708 3.963-3.963-1.691zM20.842 13.927l3.167 1.343-1.36 3.151-3.151-1.343zM29 16c0-7.163-5.837-13-13-13s-13 5.837-13 13 5.837 13 13 13 13-5.837 13-13zM30.857 16c0 8.191-6.666 14.857-14.857 14.857s-14.857-6.666-14.857-14.857 6.666-14.857 14.857-14.857 14.857 6.666 14.857 14.857z"></path>
</svg>
