<?xml version="1.0" encoding="utf-8"?>
<!-- Generated by IcoMoon.io -->
<!DOCTYPE svg PUBLIC "-//W3C//DTD SVG 1.1//EN" "http://www.w3.org/Graphics/SVG/1.1/DTD/svg11.dtd">
<svg version="1.1" xmlns="http://www.w3.org/2000/svg" xmlns:xlink="http://www.w3.org/1999/xlink" width="32" height="32" viewBox="0 0 32 32">
<path d="M11.106 16.29v2.476h-4.875v-2.476h4.875zM11.106 11.357v2.457h-4.875v-2.457h4.875zM25.769 21.243v2.476h-6.597v-2.476h6.597zM25.769 16.29v2.476h-13v-2.476h13zM25.769 11.357v2.457h-13v-2.457h13zM28.381 27.994v-23.988c0-0.213-0.174-0.387-0.387-0.387h-0.619l-7.313 4.952-4.063-3.308-4.063 3.308-7.313-4.952h-0.619c-0.213 0-0.387 0.174-0.387 0.387v23.988c0 0.213 0.174 0.387 0.387 0.387h23.988c0.213 0 0.387-0.174 0.387-0.387zM11.841 6.521l3.579-2.902h-7.854zM20.159 6.521l4.275-2.902h-7.854zM30.857 4.006v23.988c0 1.586-1.277 2.863-2.863 2.863h-23.988c-1.586 0-2.863-1.277-2.863-2.863v-23.988c0-1.586 1.277-2.863 2.863-2.863h23.988c1.586 0 2.863 1.277 2.863 2.863z"></path>
</svg>
