<?xml version="1.0" encoding="utf-8"?>
<!-- Generated by IcoMoon.io -->
<!DOCTYPE svg PUBLIC "-//W3C//DTD SVG 1.1//EN" "http://www.w3.org/Graphics/SVG/1.1/DTD/svg11.dtd">
<svg version="1.1" xmlns="http://www.w3.org/2000/svg" xmlns:xlink="http://www.w3.org/1999/xlink" width="31" height="32" viewBox="0 0 31 32">
<path d="M7.537 25.206c0-0.617-0.511-1.128-1.128-1.128s-1.128 0.511-1.128 1.128 0.511 1.128 1.128 1.128 1.128-0.511 1.128-1.128zM18.884 17.806l-12.016 12.016c-0.405 0.405-0.987 0.652-1.586 0.652s-1.181-0.247-1.603-0.652l-1.868-1.903c-0.423-0.405-0.669-0.987-0.669-1.586s0.247-1.18 0.669-1.603l11.999-11.999c0.916 2.308 2.766 4.158 5.074 5.074zM30.054 10.142c0 0.581-0.211 1.304-0.405 1.868-1.11 3.136-4.123 5.303-7.453 5.303-4.352 0-7.893-3.541-7.893-7.893s3.541-7.893 7.893-7.893c1.286 0 2.96 0.388 4.035 1.11 0.176 0.123 0.282 0.282 0.282 0.493 0 0.194-0.123 0.388-0.282 0.493l-5.162 2.978v3.947l3.401 1.885c0.581-0.335 4.669-2.907 5.021-2.907s0.564 0.264 0.564 0.617z"></path>
</svg>
