<?xml version="1.0" encoding="utf-8"?>
<!-- Generated by IcoMoon.io -->
<!DOCTYPE svg PUBLIC "-//W3C//DTD SVG 1.1//EN" "http://www.w3.org/Graphics/SVG/1.1/DTD/svg11.dtd">
<svg version="1.1" xmlns="http://www.w3.org/2000/svg" xmlns:xlink="http://www.w3.org/1999/xlink" width="32" height="32" viewBox="0 0 32 32">
<path d="M14.394 13.466c0 0 0-0.019-2.438-4.295-0.193-0.31-0.464-0.658-1.006-0.658h-3.56c-0.232 0-0.406 0.077-0.503 0.213-0.097 0.155-0.077 0.368 0.019 0.561l2.418 4.179v0.019l-3.792 6.693c-0.116 0.193-0.097 0.387 0 0.542s0.252 0.252 0.464 0.252h3.579c0.522 0 0.793-0.368 0.967-0.696 3.714-6.558 3.85-6.81 3.85-6.81zM26.466 3.851c-0.097-0.155-0.252-0.232-0.464-0.232h-3.618c-0.522 0-0.754 0.329-0.948 0.677-7.699 13.658-7.951 14.103-7.951 14.103s0 0.019 5.068 9.305c0.174 0.31 0.445 0.677 1.006 0.677h3.56c0.213 0 0.387-0.077 0.484-0.232s0.097-0.348-0.019-0.542l-5.030-9.208v-0.019l7.912-13.987c0.097-0.193 0.097-0.387 0-0.542zM30.857 6.714v18.571c0 3.076-2.496 5.571-5.571 5.571h-18.571c-3.076 0-5.571-2.496-5.571-5.571v-18.571c0-3.076 2.496-5.571 5.571-5.571h18.571c3.076 0 5.571 2.496 5.571 5.571z"></path>
</svg>
