<?xml version="1.0" encoding="utf-8"?>
<!-- Generated by IcoMoon.io -->
<!DOCTYPE svg PUBLIC "-//W3C//DTD SVG 1.1//EN" "http://www.w3.org/Graphics/SVG/1.1/DTD/svg11.dtd">
<svg version="1.1" xmlns="http://www.w3.org/2000/svg" xmlns:xlink="http://www.w3.org/1999/xlink" width="32" height="32" viewBox="0 0 32 32">
<path d="M14.078 12.946c0 0-0.18 0.305-4.617 8.192-0.234 0.395-0.539 0.826-1.168 0.826h-4.294c-0.252 0-0.449-0.126-0.557-0.305s-0.126-0.413 0-0.647l4.545-8.048c0.018 0 0.018 0 0-0.018l-2.892-5.012c-0.126-0.234-0.144-0.485-0.018-0.665 0.108-0.18 0.323-0.269 0.575-0.269h4.294c0.647 0 0.97 0.431 1.186 0.808 2.928 5.12 2.946 5.138 2.946 5.138zM28.558 1.412c0.126 0.18 0.126 0.431 0 0.665l-9.486 16.779c-0.018 0-0.018 0.018 0 0.018l6.036 11.049c0.126 0.234 0.126 0.485 0.018 0.665-0.126 0.18-0.323 0.269-0.575 0.269h-4.294c-0.647 0-0.988-0.431-1.186-0.808-6.090-11.156-6.090-11.174-6.090-11.174s0.305-0.539 9.539-16.923c0.234-0.413 0.503-0.808 1.15-0.808h4.33c0.252 0 0.449 0.090 0.557 0.269z"></path>
</svg>
