<?xml version="1.0" encoding="utf-8"?>
<!-- Generated by IcoMoon.io -->
<!DOCTYPE svg PUBLIC "-//W3C//DTD SVG 1.1//EN" "http://www.w3.org/Graphics/SVG/1.1/DTD/svg11.dtd">
<svg version="1.1" xmlns="http://www.w3.org/2000/svg" xmlns:xlink="http://www.w3.org/1999/xlink" width="32" height="32" viewBox="0 0 32 32">
<path d="M16.079 22.955v2.073c-0.016 4.604-0.016 4.767-0.098 4.98-0.131 0.343-0.424 0.571-0.833 0.653-1.175 0.196-4.849-1.159-5.616-2.073-0.163-0.18-0.245-0.392-0.278-0.588-0.016-0.147 0.016-0.294 0.065-0.424 0.082-0.229 0.229-0.408 3.51-4.294 0 0 0.016 0 0.98-1.143 0.327-0.408 0.914-0.539 1.453-0.343 0.539 0.212 0.833 0.669 0.816 1.159zM13.646 18.857c-0.033 0.571-0.359 0.996-0.849 1.143l-1.959 0.637c-4.392 1.404-4.539 1.437-4.767 1.437-0.359-0.016-0.686-0.229-0.882-0.588-0.131-0.261-0.229-0.702-0.278-1.224-0.18-1.6 0.033-4 0.506-4.751 0.229-0.359 0.555-0.539 0.914-0.522 0.245 0 0.441 0.098 5.175 2.025 0 0-0.016 0.016 1.371 0.555 0.49 0.196 0.8 0.702 0.767 1.29zM27.132 23.706c-0.163 1.175-2.596 4.261-3.706 4.702-0.376 0.147-0.751 0.114-1.029-0.114-0.196-0.147-0.392-0.441-3.004-4.686l-0.767-1.257c-0.294-0.457-0.245-1.045 0.131-1.502 0.359-0.441 0.882-0.588 1.355-0.424 0 0 0.016 0.016 1.943 0.653 4.392 1.437 4.539 1.486 4.718 1.633 0.294 0.229 0.424 0.571 0.359 0.996zM16.16 13.388c0.082 1.698-0.637 1.91-0.882 1.992-0.229 0.065-0.947 0.278-1.861-1.159-6.008-9.486-6.171-9.763-6.171-9.763-0.082-0.343 0.016-0.718 0.31-1.012 0.898-0.931 5.78-2.302 7.053-1.976 0.408 0.098 0.702 0.359 0.8 0.735 0.065 0.408 0.653 9.208 0.751 11.184zM26.969 15.151c0.033 0.408-0.114 0.751-0.424 0.963-0.196 0.131-0.392 0.196-5.371 1.404-0.8 0.18-1.241 0.294-1.486 0.376l0.016-0.033c-0.49 0.131-1.045-0.098-1.355-0.588s-0.294-1.029 0-1.42c0 0 0.016-0.016 1.224-1.665 2.678-3.657 2.808-3.837 3.004-3.967 0.31-0.212 0.686-0.212 1.061-0.033 1.061 0.506 3.2 3.69 3.331 4.914v0.049z"></path>
</svg>
