<?xml version="1.0" encoding="utf-8"?>
<!-- Generated by IcoMoon.io -->
<!DOCTYPE svg PUBLIC "-//W3C//DTD SVG 1.1//EN" "http://www.w3.org/Graphics/SVG/1.1/DTD/svg11.dtd">
<svg version="1.1" xmlns="http://www.w3.org/2000/svg" xmlns:xlink="http://www.w3.org/1999/xlink" width="32" height="32" viewBox="0 0 32 32">
<path d="M7.825 4.758h11.458l-0.431 1.194h-11.027c-2.438 0-4.427 2.006-4.427 4.444v12.784c0 2.089 1.492 3.93 3.548 4.361 0.531 0.116 1.078 0.083 1.625 0.083v1.194h-0.746c-3.101 0-5.621-2.537-5.621-5.638v-12.784c0-3.101 2.52-5.638 5.621-5.638zM21.936 1.143h4.096l-7.992 21.457c-1.492 3.98-3.3 8.125-8.208 8.258v-3.233c1.841-0.298 3.018-1.31 3.648-3.018 0.216-0.564 0.332-1.144 0.332-1.741s-0.116-1.194-0.332-1.758l-4.726-12.154h3.781l3.101 9.7zM29.796 10.395v18.422h-13.182c0.265-0.398 0.547-0.779 0.746-1.21h11.242v-17.212c0-1.89-1.194-3.582-2.968-4.212l0.415-1.111c2.255 0.763 3.747 2.952 3.747 5.323z"></path>
</svg>
