<?xml version="1.0" encoding="utf-8"?>
<!-- Generated by IcoMoon.io -->
<!DOCTYPE svg PUBLIC "-//W3C//DTD SVG 1.1//EN" "http://www.w3.org/Graphics/SVG/1.1/DTD/svg11.dtd">
<svg version="1.1" xmlns="http://www.w3.org/2000/svg" xmlns:xlink="http://www.w3.org/1999/xlink" width="32" height="32" viewBox="0 0 32 32">
<path d="M18.921 23.874v-3.037c0-0.638-0.193-0.967-0.561-0.967-0.213 0-0.426 0.097-0.638 0.31v4.333c0.213 0.213 0.426 0.31 0.638 0.31 0.368 0 0.561-0.31 0.561-0.948zM22.481 21.513h1.277v-0.658c0-0.658-0.213-0.987-0.638-0.987s-0.638 0.329-0.638 0.987v0.658zM11.434 16.368v1.354h-1.548v8.183h-1.432v-8.183h-1.509v-1.354h4.488zM15.323 18.805v7.1h-1.296v-0.774c-0.503 0.58-0.987 0.871-1.47 0.871-0.406 0-0.696-0.174-0.813-0.542-0.077-0.213-0.116-0.542-0.116-1.045v-5.61h1.277v5.223c0 0.29 0 0.464 0.019 0.503 0.019 0.193 0.116 0.29 0.29 0.29 0.271 0 0.522-0.193 0.813-0.6v-5.417h1.296zM20.198 20.952v2.824c0 0.638-0.039 1.122-0.135 1.412-0.155 0.542-0.503 0.813-1.025 0.813-0.445 0-0.89-0.271-1.315-0.793v0.696h-1.296v-9.537h1.296v3.115c0.406-0.503 0.851-0.774 1.315-0.774 0.522 0 0.871 0.271 1.025 0.813 0.097 0.29 0.135 0.754 0.135 1.432zM25.054 23.448v0.174c0 0.426-0.019 0.696-0.039 0.832-0.039 0.29-0.135 0.542-0.29 0.774-0.348 0.522-0.89 0.774-1.548 0.774-0.677 0-1.199-0.252-1.567-0.735-0.271-0.348-0.406-0.909-0.406-1.664v-2.496c0-0.754 0.116-1.296 0.387-1.664 0.368-0.484 0.89-0.735 1.548-0.735 0.638 0 1.161 0.252 1.509 0.735 0.271 0.368 0.406 0.909 0.406 1.664v1.47h-2.573v1.257c0 0.658 0.213 0.987 0.658 0.987 0.31 0 0.503-0.174 0.58-0.503 0-0.077 0.019-0.368 0.019-0.871h1.315zM16.329 7.507v3.018c0 0.658-0.213 0.987-0.619 0.987-0.426 0-0.619-0.329-0.619-0.987v-3.018c0-0.658 0.193-1.006 0.619-1.006 0.406 0 0.619 0.348 0.619 1.006zM26.64 21.301v0c0-1.664 0-3.424-0.368-5.030-0.271-1.141-1.199-1.973-2.302-2.089-2.631-0.29-5.301-0.29-7.97-0.29-2.65 0-5.32 0-7.951 0.29-1.122 0.116-2.051 0.948-2.302 2.089-0.368 1.606-0.387 3.366-0.387 5.030v0c0 1.644 0 3.405 0.387 5.030 0.252 1.122 1.18 1.954 2.283 2.089 2.65 0.29 5.32 0.29 7.97 0.29s5.32 0 7.97-0.29c1.103-0.135 2.031-0.967 2.283-2.089 0.387-1.625 0.387-3.385 0.387-5.030zM12.034 8.707l1.741-5.726h-1.451l-0.987 3.772-1.025-3.772h-1.509c0.29 0.89 0.619 1.78 0.909 2.67 0.464 1.354 0.754 2.36 0.89 3.057v3.888h1.432v-3.888zM17.625 10.274v-2.515c0-0.754-0.135-1.315-0.406-1.683-0.368-0.484-0.871-0.735-1.509-0.735-0.658 0-1.161 0.252-1.509 0.735-0.271 0.368-0.406 0.929-0.406 1.683v2.515c0 0.754 0.135 1.315 0.406 1.683 0.348 0.484 0.851 0.735 1.509 0.735 0.638 0 1.141-0.252 1.509-0.735 0.271-0.348 0.406-0.929 0.406-1.683zM21.126 12.595h1.296v-7.158h-1.296v5.475c-0.29 0.406-0.561 0.6-0.813 0.6-0.174 0-0.29-0.097-0.31-0.31-0.019-0.039-0.019-0.193-0.019-0.503v-5.262h-1.296v5.668c0 0.503 0.039 0.832 0.116 1.064 0.135 0.348 0.426 0.522 0.832 0.522 0.484 0 0.967-0.29 1.49-0.871v0.774zM30.857 6.714v18.571c0 3.076-2.496 5.571-5.571 5.571h-18.571c-3.076 0-5.571-2.496-5.571-5.571v-18.571c0-3.076 2.496-5.571 5.571-5.571h18.571c3.076 0 5.571 2.496 5.571 5.571z"></path>
</svg>
