<?xml version="1.0" encoding="utf-8"?>
<!-- Generated by IcoMoon.io -->
<!DOCTYPE svg PUBLIC "-//W3C//DTD SVG 1.1//EN" "http://www.w3.org/Graphics/SVG/1.1/DTD/svg11.dtd">
<svg version="1.1" xmlns="http://www.w3.org/2000/svg" xmlns:xlink="http://www.w3.org/1999/xlink" width="32" height="32" viewBox="0 0 32 32">
<path d="M19.366 21.77v3.499c0 0.746-0.216 1.111-0.647 1.111-0.249 0-0.497-0.116-0.746-0.365v-4.991c0.249-0.249 0.497-0.365 0.746-0.365 0.431 0 0.647 0.381 0.647 1.111zM24.971 21.787v0.763h-1.492v-0.763c0-0.746 0.249-1.128 0.746-1.128s0.746 0.381 0.746 1.128zM8.953 18.172h1.774v-1.559h-5.173v1.559h1.741v9.435h1.658v-9.435zM13.728 27.607h1.476v-8.191h-1.476v6.268c-0.332 0.464-0.647 0.696-0.945 0.696-0.199 0-0.315-0.116-0.348-0.348-0.017-0.050-0.017-0.232-0.017-0.58v-6.036h-1.476v6.483c0 0.58 0.050 0.962 0.133 1.21 0.133 0.415 0.481 0.614 0.962 0.614 0.531 0 1.094-0.332 1.691-1.011v0.895zM20.842 25.153v-3.267c0-0.763-0.033-1.31-0.149-1.642-0.182-0.614-0.597-0.929-1.177-0.929-0.547 0-1.061 0.298-1.542 0.895v-3.598h-1.476v10.994h1.476v-0.796c0.497 0.614 1.011 0.912 1.542 0.912 0.58 0 0.995-0.315 1.177-0.912 0.116-0.348 0.149-0.895 0.149-1.658zM26.446 24.987v-0.216h-1.509c0 0.597-0.017 0.929-0.033 1.011-0.083 0.398-0.298 0.597-0.663 0.597-0.514 0-0.763-0.381-0.763-1.144v-1.443h2.968v-1.708c0-0.879-0.149-1.509-0.448-1.923-0.431-0.564-1.011-0.846-1.758-0.846-0.763 0-1.343 0.282-1.774 0.846-0.315 0.415-0.464 1.045-0.464 1.923v2.869c0 0.879 0.166 1.526 0.481 1.923 0.431 0.564 1.011 0.846 1.791 0.846s1.393-0.298 1.791-0.879c0.182-0.265 0.315-0.564 0.348-0.895 0.033-0.149 0.033-0.481 0.033-0.962zM16.365 9.848v-3.482c0-0.763-0.216-1.144-0.713-1.144-0.481 0-0.713 0.381-0.713 1.144v3.482c0 0.763 0.232 1.161 0.713 1.161 0.497 0 0.713-0.398 0.713-1.161zM28.287 22.301c0 1.907-0.017 3.946-0.431 5.804-0.315 1.31-1.376 2.272-2.653 2.404-3.051 0.348-6.135 0.348-9.203 0.348s-6.152 0-9.203-0.348c-1.277-0.133-2.355-1.094-2.653-2.404-0.431-1.857-0.431-3.897-0.431-5.804v0c0-1.923 0.017-3.946 0.431-5.804 0.315-1.31 1.376-2.272 2.67-2.421 3.034-0.332 6.119-0.332 9.186-0.332s6.152 0 9.203 0.332c1.277 0.149 2.355 1.111 2.653 2.421 0.431 1.857 0.431 3.88 0.431 5.804zM11.739 1.143h1.691l-2.006 6.616v4.494h-1.658v-4.494c-0.149-0.813-0.481-1.973-1.011-3.515-0.365-1.028-0.73-2.073-1.078-3.101h1.758l1.177 4.361zM17.874 6.665v2.902c0 0.879-0.149 1.542-0.464 1.957-0.415 0.564-0.995 0.846-1.758 0.846-0.746 0-1.327-0.282-1.741-0.846-0.315-0.431-0.464-1.078-0.464-1.957v-2.902c0-0.879 0.149-1.526 0.464-1.94 0.415-0.564 0.995-0.846 1.741-0.846 0.763 0 1.343 0.282 1.758 0.846 0.315 0.415 0.464 1.061 0.464 1.94zM23.429 3.978v8.274h-1.509v-0.912c-0.597 0.696-1.161 1.028-1.708 1.028-0.481 0-0.829-0.199-0.978-0.614-0.083-0.249-0.133-0.647-0.133-1.244v-6.533h1.509v6.085c0 0.348 0 0.547 0.017 0.58 0.033 0.232 0.149 0.365 0.348 0.365 0.298 0 0.614-0.232 0.945-0.713v-6.318h1.509z"></path>
</svg>
